<svg width="100" height="100" fill="none" xmlns="http://www.w3.org/2000/svg"><circle cx="50" cy="50" r="50" fill="#FFF3C9"/><path d="M51.667 33.333A1.666 1.666 0 0050 35v13.333A1.667 1.667 0 0051.667 50H65a1.667 1.667 0 001.667-1.667 15 15 0 00-15-15zm1.666 13.334v-9.884a11.667 11.667 0 019.884 9.884h-9.884z" fill="#FFC700"/><path d="M64.7 53.433a1.668 1.668 0 00-2.133 1.017A13.334 13.334 0 1145.55 37.433a1.668 1.668 0 10-1.1-3.15A16.668 16.668 0 1065.717 55.55a1.667 1.667 0 00-1.017-2.117z" fill="#FFC700"/></svg>