<svg width="148" height="148" fill="none" xmlns="http://www.w3.org/2000/svg"><path d="M32 86.093v20.46h17.077v-5.031M32 80.642V65.55h17.077v7.463m0 28.51l16.403 6.205h6.393m-22.796-6.205v-28.51m27.675 34.715s25.687.022 28.938 0c3.251-.023 5.618-10.838 0-10.817m0 0H93.408m12.282 0h4.879c4.459 0 4.206-10.817-.42-10.817m0 0h-16.74m16.74 0c9.926 0 7.907-11.069 0-11.069m-17.75 0h17.75m0 0c7.823 0 6.393-12.075.42-12.075H90.632m-4.458 0h-6.646s3.281-18.53 3.281-24.4c0-5.87-10.936-7.631-10.936-2.6 0 5.031-10.478 24.976-22.796 37.063" stroke="#000" stroke-width="4"/><path d="M147.417 73.958c0 9.98-1.99 19.495-5.595 28.168-11.05 26.593-37.274 45.291-67.864 45.291C33.388 147.417.5 114.528.5 73.958S33.388.5 73.958.5s73.459 32.888 73.459 73.458z" stroke="#000" stroke-opacity=".67"/></svg>