<svg width="148" height="148" fill="none" xmlns="http://www.w3.org/2000/svg"><path d="M63.372 44.89c4.68-1.3 8.986-1.882 12.915-1.904m29.015 16.47c-1.485-3.112-3.323-5.872-6.715-8.671M71.379 38.34l4.908 4.646m0 0c4.508-.024 8.522.69 12.041 1.904m-7.736 6.81l7.736-6.81m0 0c3.796 1.31 7.617 3.715 10.259 5.895M63.372 35.496c14.81-9.05 35.215 5.94 35.215 15.289m0 0c-3.617 10.733-26.088 15.221-34.612 9.182-8.524-6.04-11.077-7.975-16.962-8.268l5.683-8.713m3.702-3.525l2.41-2.241m15.843 77.999c3.557-1.14 6.758-2.247 9.643-3.406M107.8 85.485c-1.242 4.643-2.737 8.444-4.598 11.635m-9.264-1.207l1.034 10.28m0 0c3.365-2.432 6.049-5.333 8.23-9.073m-8.23 9.073c-2.982 2.155-6.499 3.942-10.677 5.62m25.313-16.59l-6.406 1.897m-18.907 14.693c-5.338-16.59-1.134-30.199 17.22-36.412 4.253-1.84 5.799-3.37 8.093-6.378 18.038 24.081-.772 48.643-25.313 42.79zM41.503 59.967c-1.267 3.745-3.18 7.12-3.663 10.263m13.048 33.182c-2.861-3.645-5.218-6.947-7.082-10.084m4.499-7.843l-9.056-2.844m0 0c.847 3.522 2.36 6.99 4.557 10.687M39.25 82.64c-.946-3.933-2.096-7.937-1.409-12.41m2.716 29.993l3.25-6.895M37.84 70.229c-12.524 12.412-6.24 44.042 29.062 44.042-.269-6.395-.689-5.602-.689-16.375 0-10.774-11.882-26.546-28.373-27.666z" stroke="#000" stroke-width="4"/><path d="M147.417 73.958c0 9.98-1.99 19.495-5.595 28.168-11.05 26.593-37.274 45.291-67.864 45.291C33.388 147.417.5 114.528.5 73.958S33.388.5 73.958.5s73.459 32.888 73.459 73.458z" stroke="#000" stroke-opacity=".67"/></svg>