<svg width="148" height="148" fill="none" xmlns="http://www.w3.org/2000/svg"><path d="M109.613 69.39c0-21.985-17.915-39.807-40.015-39.807m40.015 39.807l-10.09-7.702m10.09 7.702l8.003-7.702m-48.018 47.508c-22.1 0-40.015-17.822-40.015-39.806m0 0c0-21.985 17.916-39.807 40.015-39.807M29.583 69.39h10.613m29.402-39.807v8.308M58.203 58.313l9.481 8.827m4.959 0l17.223-17.307M69.598 92.322c2.349-18.173 23.071-9.838 20.703 0-2.368 9.837-21.006 23.65-20.703 24.489h22.356m26.706-5.971H91.084l20.79-30.2v29.594m0 1.212v6.75m-39.579-48.72a2.251 2.251 0 01-2.262 2.24 2.251 2.251 0 01-2.262-2.24 2.251 2.251 0 012.262-2.24 2.251 2.251 0 012.262 2.24z" stroke="#000" stroke-width="4"/><path d="M147.417 73.958c0 9.98-1.99 19.495-5.595 28.168-11.05 26.593-37.274 45.291-67.864 45.291C33.388 147.417.5 114.528.5 73.958S33.388.5 73.958.5s73.459 32.888 73.459 73.458z" stroke="#000" stroke-opacity=".67"/></svg>