<svg id="energy" viewBox="0 0 14 20" xmlns="http://www.w3.org/2000/svg">
    <path d="M13.09 8.22L6.09001 19.64C5.95265 19.8619 5.71101 19.9979 5.45001 20H5.25001C5.10994 19.9997 4.97614 19.9419 4.88001 19.84C4.78437 19.7377 4.73706 19.5994 4.75001 19.46L5.31001 13H1.74001C1.47142 12.9971 1.2243 12.8526 1.09001 12.62L0.900011 12.29C0.80457 12.1334 0.80457 11.9366 0.900011 11.78L7.90001 0.360002C8.0411 0.131972 8.29191 -0.00483306 8.56001 1.96758e-06H8.76001C8.90008 0.000261669 9.03388 0.058121 9.13001 0.160002C9.22565 0.262276 9.27296 0.400579 9.26001 0.540002L8.69001 7H12.26C12.5286 7.0029 12.7757 7.14737 12.91 7.38L13.1 7.71C13.1924 7.86847 13.1885 8.06528 13.09 8.22Z"/>
</svg>