<svg width="90" height="77" viewBox="0 0 90 77" fill="none" xmlns="http://www.w3.org/2000/svg">
<path fill-rule="evenodd" clip-rule="evenodd" d="M66.06 0.165017C65.6948 0.251417 63.5586 1.08221 61.3128 2.01123C56.4027 4.04209 55.8592 4.48558 56.8029 5.69095C57.0587 6.01782 57.3321 6.15652 57.7207 6.15652C58.0252 6.15652 60.0963 5.38581 62.3233 4.4437C67.9965 2.04392 66.636 1.88049 76.8846 6.19292C81.4093 8.09674 85.3725 9.83429 85.6914 10.0541C86.3856 10.5319 86.9776 11.3602 87.2117 12.1807C87.4837 13.1334 87.4412 70.1443 87.168 71.069C86.8852 72.0253 85.5887 73.3282 84.6372 73.6123C84.2391 73.731 83.1953 73.8282 82.3174 73.8282C80.8987 73.8282 80.6682 73.874 80.2443 74.2404C79.6297 74.7717 79.6103 75.7018 80.2037 76.1847C80.5575 76.4727 80.8706 76.5047 82.8117 76.4511C84.883 76.3939 85.0882 76.3552 86.1748 75.8175C87.5683 75.1278 88.8033 73.8635 89.461 72.4532L89.9322 71.4429L89.9793 41.9359C90.0256 12.8841 90.021 12.4113 89.6755 11.2805C89.2792 9.98271 88.343 8.65366 87.2949 7.90114C86.4823 7.31772 70.6401 0.625643 69.1446 0.234278C68.0448 -0.0537241 67.0759 -0.0754564 66.06 0.165017ZM50.1628 6.67634C48.1103 7.54777 47.147 8.21671 46.3254 9.34133C44.9758 11.1891 45.0101 10.7741 45.0101 25.2546V38.1371H42.2848C40.786 38.1371 39.5596 38.1154 39.5596 38.0889C39.5596 38.0624 39.7565 37.2606 39.9972 36.3072C40.9753 32.4319 40.9822 27.5531 40.0157 23.0296C39.134 18.9025 38.5634 17.6231 37.1335 16.5665C35.1256 15.0825 32.6175 15.2092 30.7589 16.8886C29.3858 18.1291 29.0143 19.0664 29.0121 21.2948C29.0088 24.6791 28.442 27.1985 27.2207 29.2561C26.3158 30.7807 24.1184 32.8764 20.6586 35.5144C18.9181 36.8415 17.0194 38.346 16.4392 38.858L15.3843 39.7886L15.3324 38.6161C15.2874 37.5974 15.2208 37.3963 14.8252 37.0835C14.3851 36.7356 14.1449 36.7236 7.61655 36.7236H0.863103L0.431639 37.1574L0 37.591V56.8386C0 75.5234 0.00984595 76.0981 0.335993 76.5031L0.671986 76.9203L7.51352 76.9703C15.9467 77.0319 15.2964 77.2535 15.2964 74.3199V72.3636L16.4371 72.4707C18.0318 72.6204 19.7188 73.2594 21.3406 74.3284C23.6357 75.8414 22.8964 75.7711 36.5587 75.7776C48.0201 75.7831 48.662 75.8002 49.5814 76.1252C50.5025 76.4508 51.1497 76.4672 63.2386 76.4727L75.929 76.4785L76.2933 76.013C76.4937 75.7569 76.6578 75.4426 76.6578 75.3145C76.6578 74.8473 76.2569 74.2159 75.839 74.0243C75.5394 73.8872 72.079 73.8282 64.3405 73.8282H53.2706L53.8435 72.8122C54.3739 71.8716 54.4165 71.6772 54.4165 70.1914C54.4165 68.7382 54.3642 68.4846 53.8635 67.5081L53.3106 66.4296L53.9859 65.9592C54.7618 65.4191 55.7808 63.9807 56.0887 62.9914C56.5209 61.6028 56.168 59.4523 55.2852 58.093C54.9935 57.6441 54.9979 57.6352 56.0386 56.5894C56.8087 55.8155 57.1677 55.2885 57.397 54.595C57.964 52.8793 57.7082 50.7409 56.779 49.4296L56.409 48.9074L57.2939 48.1078C58.6036 46.9244 59.159 45.6662 59.1599 43.8804C59.1605 42.8051 59.0699 42.2679 58.7823 41.6398C58.2467 40.471 57.094 39.2867 55.9359 38.7149C54.9643 38.2355 54.8692 38.2242 51.2956 38.1659L47.6474 38.1062L47.6484 25.4444C47.649 16.7308 47.71 12.562 47.8439 12.0756C48.1611 10.9245 49.3845 9.86468 51.3187 9.06552C52.6876 8.49976 53.0055 8.29428 53.1885 7.8568C53.4723 7.17884 53.2351 6.45283 52.6412 6.18091C52.025 5.89873 51.9675 5.91022 50.1628 6.67634ZM65.41 9.11376C64.2014 9.5424 62.8625 10.9874 62.4942 12.2606C61.5157 15.6431 63.8048 18.7802 67.2514 18.7802C70.698 18.7802 72.987 15.6431 72.0085 12.2606C71.6258 10.9377 70.3062 9.54329 69.0206 9.10298C67.9564 8.73865 66.4551 8.74307 65.41 9.11376ZM68.5366 11.8151C69.601 12.4673 69.9231 13.96 69.2258 15.009C68.1864 16.5727 66.1924 16.537 65.2217 14.9372C63.9702 12.8744 66.4516 10.5375 68.5366 11.8151ZM35.0379 18.4136C35.9453 18.8021 36.3421 19.3933 36.8283 21.0809C37.727 24.2007 38.0419 26.4766 38.0397 29.8328C38.0374 33.1782 37.7487 35.0878 36.8395 37.7705C36.3031 39.3535 36.2816 39.9669 36.7465 40.4341C37.0885 40.7777 37.3325 40.7875 45.5882 40.7875C54.0434 40.7875 54.0813 40.7891 54.8613 41.185C56.7501 42.1439 57.147 44.528 55.6653 46.0169C54.8634 46.8228 54.0996 46.9694 50.6998 46.9705C48.034 46.9714 47.6402 47.0092 47.2859 47.2974C46.7064 47.769 46.7433 48.6715 47.3641 49.2081C47.8195 49.6017 47.9697 49.6219 50.4443 49.6219C52.8527 49.6219 53.089 49.6514 53.627 50.0194C55.5512 51.3354 55.6018 53.7734 53.7341 55.1766C53.3055 55.4987 52.922 55.5512 50.4324 55.6293L47.6157 55.7176L47.1792 56.2284C46.6754 56.8177 46.7287 57.4653 47.3226 57.9704C47.6112 58.2157 48.0187 58.2796 49.2943 58.2796C51.2114 58.2796 51.9311 58.4607 52.6168 59.1154C53.3448 59.8108 53.6253 60.438 53.6253 61.3717C53.6253 62.3051 53.3403 62.9431 52.6299 63.6004C51.8606 64.3123 51.1385 64.4637 48.5129 64.4637C46.1054 64.4637 46.0882 64.4665 45.7262 64.9293C45.3104 65.4604 45.2824 65.6857 45.5569 66.2912C45.844 66.9245 46.4328 67.114 48.1126 67.114C49.8717 67.114 50.6005 67.3888 51.3055 68.3178C51.7088 68.8491 51.7792 69.1142 51.7792 70.104C51.7792 71.4793 51.3654 72.214 50.2769 72.7721C49.6171 73.1103 49.2013 73.1215 37.2193 73.1215C28.1934 73.1215 24.6813 73.0653 24.2455 72.9138C23.9169 72.7995 23.2127 72.4117 22.6809 72.0518C20.8833 70.8355 19.5301 70.2967 17.4017 69.9497C16.6789 69.832 15.9095 69.7008 15.692 69.6584L15.2964 69.581V61.5579V53.5347L14.8331 53.1686C14.23 52.6917 13.8446 52.7063 13.2403 53.2286L12.747 53.655L12.699 64.0066L12.6508 74.3583H7.64415H2.63731V56.8661V39.374H7.64011H12.6429L12.6949 44.1399C12.7456 48.7764 12.7575 48.9164 13.1327 49.2934C13.6066 49.7691 14.4575 49.8 14.9425 49.359C15.2679 49.063 15.2964 48.8185 15.2964 46.3224V43.6079L16.3974 42.5068C17.846 41.0583 18.8784 40.1945 22.1534 37.6915C26.7958 34.1433 28.395 32.531 29.774 30.0079C31.0009 27.7632 31.432 25.9393 31.6197 22.1974C31.7414 19.7741 31.7796 19.5656 32.1825 19.127C33.0019 18.2348 34.0239 17.9795 35.0379 18.4136ZM65.9633 37.1325C65.6252 37.4943 65.5811 37.7389 65.5811 39.2527V40.9642H64.8978C63.394 40.9642 61.451 42.5369 61.0178 44.1048C60.9178 44.4668 60.8373 45.6773 60.8388 46.7949C60.8411 48.4561 60.9069 48.9713 61.1991 49.6187C61.8888 51.1467 62.1332 51.2889 66.636 52.779C68.9262 53.5368 69.9537 53.9601 70.1084 54.2098C70.2352 54.4144 70.3279 55.1445 70.3275 55.936C70.3268 57.501 69.998 58.2533 69.114 58.7127C68.3835 59.0924 65.416 59.0924 64.6854 58.7127C64.0455 58.3802 63.4728 57.484 63.4719 56.814C63.471 56.1615 62.7584 55.4526 62.1033 55.4526C61.7939 55.4526 61.4407 55.6213 61.191 55.8885C60.8358 56.2684 60.7961 56.4472 60.8816 57.2794C61.0996 59.4011 62.8015 61.2353 64.8593 61.5658L65.5811 61.6819V63.314C65.5811 65.27 65.8935 65.8772 66.8997 65.8772C67.9059 65.8772 68.2184 65.27 68.2184 63.314V61.6819L68.9378 61.5662C69.9731 61.3999 70.8562 60.8955 71.6747 60.0034C72.7071 58.8775 73.0111 57.8093 72.9374 55.5652C72.8827 53.8997 72.8323 53.6709 72.344 52.8781C71.6407 51.7361 71.0667 51.4365 67.1228 50.1528C64.7966 49.3957 63.7768 48.9821 63.6504 48.7446C63.4086 48.2905 63.422 45.1017 63.6676 44.6188C64.1167 43.7364 64.4706 43.6226 66.7766 43.6184C68.3109 43.6155 69.0799 43.6876 69.4236 43.8663C69.9333 44.1311 70.3282 44.8013 70.3282 45.4013C70.3282 45.9602 70.6215 46.3744 71.1825 46.6079C71.6071 46.7846 71.7916 46.7744 72.2229 46.5503C72.5112 46.4005 72.7962 46.1493 72.8563 45.9918C73.1749 45.1575 72.7261 43.5161 71.906 42.5162C71.2581 41.7264 69.7756 40.9642 68.8872 40.9642H68.2184V39.3095C68.2184 37.903 68.1637 37.5848 67.8539 37.1892C67.3776 36.5807 66.5038 36.5545 65.9633 37.1325Z" fill="black"/>
</svg>
