<svg width="84" height="84" viewBox="0 0 84 84" fill="none" xmlns="http://www.w3.org/2000/svg">
<path fill-rule="evenodd" clip-rule="evenodd" d="M38.8425 0.0305842C32.4041 0.764997 28.2667 1.91725 23.4173 4.32651C10.6909 10.6487 2.37062 22.246 0.239163 36.6328C-0.114706 39.0216 -0.0670092 45.4265 0.32351 47.9328C1.31901 54.3232 3.51833 60.0707 6.92673 65.1894L7.74337 66.4157L7.33023 67.0186C6.60408 68.0789 6.16428 69.8756 6.28335 71.2952C6.46291 73.4345 7.15785 74.5549 10.131 77.4967C13.0344 80.3699 13.2459 80.4623 14.4448 79.3801C14.8185 79.0428 15.1872 78.7669 15.2644 78.7669C15.3416 78.7669 15.8089 79.1807 16.303 79.6867C16.7974 80.1925 17.6519 81.0374 18.2022 81.564L19.2026 82.5217L20.1686 81.5684L21.1348 80.6152L19.1628 78.6394L17.1907 76.6637L18.1962 75.6591L19.2017 74.6546L21.1792 76.6248L23.1568 78.595L24.1125 77.6281L25.0681 76.6614L23.1076 74.6921L21.1471 72.7227L21.8408 71.985C23.0245 70.7257 22.9482 70.5391 20.0611 67.6298C18.6535 66.2113 17.2289 64.9425 16.7548 64.6846C14.8395 63.6431 12.721 63.4749 10.7839 64.2102L9.88079 64.5531L8.83514 62.9441C6.03206 58.6312 3.97198 53.1423 3.12851 47.7408C2.69784 44.9818 2.69643 39.1668 3.12606 36.37C4.37705 28.2247 7.97834 20.827 13.5296 14.9988C23.7108 4.31022 38.7616 0.238189 53.0055 4.31898C53.9959 4.60262 55.2736 5.02466 55.845 5.25662L56.8842 5.67831L57.4094 4.42462C57.6982 3.73506 57.8706 3.10594 57.7926 3.02675C57.5583 2.78919 53.7913 1.57106 51.8189 1.09489C48.8176 0.37046 46.5042 0.093654 42.8757 0.0251532C40.995 -0.0104111 39.18 -0.00795841 38.8425 0.0305842ZM63.7852 2.42373L62.867 3.34105L64.837 5.31496L66.8071 7.28869L65.8016 8.29325L64.7961 9.29781L62.8186 7.32758L60.841 5.35735L59.8853 6.32425L58.9297 7.29097L60.8902 9.26032L62.8507 11.2297L62.157 11.9674C60.9549 13.2462 61.0305 13.4236 64.0601 16.4333C66.2386 18.5973 66.853 19.1053 67.8741 19.5878C68.9777 20.109 69.2391 20.1619 70.6697 20.1528C71.8498 20.1453 72.4836 20.0491 73.1824 19.7711L74.117 19.3993L75.1627 21.0083C82.199 31.8353 83.1959 46.0226 77.7711 58.1298C75.9113 62.2803 73.155 66.2295 69.7159 69.6712C63.6444 75.7474 56.2789 79.4573 47.604 80.809C44.8411 81.2394 38.998 81.2419 36.3012 80.8139C33.7649 80.4111 31.0921 79.7473 28.9627 78.9911C28.0135 78.6541 27.1727 78.4461 27.0941 78.5288C26.8772 78.7571 26.0643 80.7645 26.1395 80.886C26.1756 80.9446 26.8984 81.2368 27.7454 81.5353C41.6769 86.4472 56.755 83.93 68.3024 74.7646C70.6518 72.8998 73.603 69.8674 75.4327 67.4382C79.8726 61.5438 82.5285 55.2047 83.6785 47.7576C84.11 44.9634 84.1065 38.8343 83.6717 36.0196C82.68 29.5995 80.4137 23.7364 76.9001 18.5002L76.2535 17.5367L76.667 16.9338C77.3934 15.8744 77.8335 14.0773 77.7144 12.6572C77.5349 10.5179 76.8399 9.3975 73.8668 6.45564C70.9488 3.5681 70.7563 3.48611 69.5197 4.60244L68.8069 5.24576L66.9297 3.37609C65.8973 2.3477 64.9739 1.50642 64.878 1.50642C64.7819 1.50642 64.2902 1.91917 63.7852 2.42373ZM74.5191 11.301C74.9803 12.192 75.0606 13.5697 74.7125 14.6169C74.124 16.3872 72.0297 17.6691 70.2029 17.3772C69.0525 17.1934 68.3069 16.6919 66.5514 14.9208L64.8884 13.2428L67.8666 10.2584L70.845 7.27397L72.5316 8.99683C73.4593 9.94428 74.3536 10.9812 74.5191 11.301ZM41.2478 12.7362C40.8377 12.9746 23.7618 47.0966 23.7618 47.6775C23.7618 47.9231 23.9556 48.3173 24.1923 48.5539L24.6227 48.9839H32.6094H40.596V59.7663V70.5487L41.0265 70.9787C41.4814 71.4333 42.1455 71.5302 42.7158 71.2253C43.1484 70.9941 60.236 36.9064 60.236 36.2749C60.236 36.0292 60.0422 35.6351 59.8055 35.3985L59.3751 34.9684H51.3884H43.4018V24.1861V13.4037L42.9713 12.9737C42.5166 12.5193 41.7923 12.4194 41.2478 12.7362ZM40.9967 37.3712C41.2847 37.6589 41.9175 37.691 48.91 37.7715L56.5103 37.8591L49.9657 50.9111L43.421 63.963L43.4114 55.502L43.4018 47.0409L42.9713 46.6109L42.5409 46.1808H34.9927H27.4447L33.9765 33.1275L40.5084 20.0742L40.596 28.5663C40.6771 36.4152 40.7074 37.0822 40.9967 37.3712ZM15.1031 67.0011C15.4771 67.195 16.5315 68.1086 17.4464 69.0316L19.1094 70.7096L16.1312 73.694L13.1528 76.6784L11.4662 74.9556C10.5385 74.0081 9.64423 72.9711 9.47869 72.6514C9.01751 71.7604 8.93719 70.3827 9.28528 69.3355C9.63897 68.2716 10.9441 66.9916 11.9686 66.7041C12.8818 66.4476 14.2936 66.5815 15.1031 67.0011Z" fill="black"/>
</svg>
