<svg width="147" height="147" fill="none" xmlns="http://www.w3.org/2000/svg"><path d="M47.136 42.911l-13.58 21.852m13.58-21.852l13.767 21.852M47.136 42.91h27.675m27.675 0l13.58 21.852m-13.58-21.852H74.811m27.675 0L88.485 64.763m27.581 0L74.952 120m41.114-55.237H88.485M74.952 120L33.556 64.763M74.952 120l13.533-55.237M74.952 120L60.903 64.763m-27.347 0h27.347m0 0L74.811 42.91M60.903 64.763h27.582M74.81 42.91l13.674 21.852m1.733 28.04l8.616-11.816m.936-1.032l2.248-3.188M27 44.693l6.556 2.439m-.281-13.13l5.057 5.44M43.296 28l2.154 6.752m42.239-3.188l1.405 1.594m2.435 2.438l-1.686-1.688m1.78-2.157l-1.78 1.5m-2.529 2.158l1.78-1.5M117.47 92.24l-1.779 1.5M120 90.084l-1.779 1.5m-2.155-1.688l1.405 1.594m.75.75l1.592 1.689m-75.674 13.598l-1.78 1.501m4.309-3.658l-1.78 1.501m-2.154-1.689l1.405 1.595m.75.75l1.591 1.688" stroke="#fff" stroke-width="2"/><circle cx="73.5" cy="73.5" r="72.5" stroke="#fff" stroke-width="2"/></svg>