<svg width="147" height="147" fill="none" xmlns="http://www.w3.org/2000/svg"><path d="M36 43.088h9.82m-9.487 6.954h15.949m-8.46 16.338h27.132m17.56 0h-17.56m17.56 0c0 9.133 15.978 11.898 15.978-1.005M88.514 66.38c0-16.338 17.643-19.605 25.965-12.567 8.212 6.944 8.655 24.13-8.322 28.319H91.51M70.954 66.38c28.878-14.16 2.912-46.584-16.229-25.386m-1.498 3.77c-5.493 14.83 14.48 18.097 15.48 5.278m-32.374 32.09H91.51m0 0c12.982 0 20.14 16.087 11.817 26.141M91.01 99.14c1.837-11.6-15.916-12.262-16.311-.921m0 0c-.395 11.341 12.982 21.114 26.381 12.484M74.699 98.219H46.403m-2.996 10.054h19.058" stroke="#fff" stroke-width="2"/><circle cx="73.5" cy="73.5" r="72.5" stroke="#fff" stroke-width="2"/></svg>