<svg width="147" height="147" viewBox="0 0 147 147" fill="none" xmlns="http://www.w3.org/2000/svg">
<path d="M47.136 42.9113L33.5559 64.7625M47.136 42.9113L60.9033 64.7625M47.136 42.9113H74.8112M102.486 42.9113L116.066 64.7625M102.486 42.9113H74.8112M102.486 42.9113L88.4849 64.7625M116.066 64.7625L74.9517 120M116.066 64.7625H88.4849M74.9517 120L33.5559 64.7625M74.9517 120L88.4849 64.7625M74.9517 120L60.9033 64.7625M33.5559 64.7625H60.9033M60.9033 64.7625L74.8112 42.9113M60.9033 64.7625H88.4849M74.8112 42.9113L88.4849 64.7625M90.2175 92.8033L98.8338 80.9868M99.7704 79.9551L102.018 76.7666M27 44.6932L33.5559 47.1315M33.2749 34.002L38.3323 39.4414M43.2961 28L45.4502 34.7523M87.6888 31.5637L89.0937 33.158M91.5287 35.5963L89.8429 33.9083M91.6224 31.7513L89.8429 33.2518M87.3142 35.4088L89.0937 33.9083M117.471 92.2406L115.692 93.7411M120 90.0836L118.221 91.5841M116.066 89.896L117.471 91.4903M118.221 92.2406L119.813 93.9286M44.139 107.527L42.3595 109.028M46.6677 105.37L44.8882 106.871M42.7341 105.182L44.139 106.777M44.8882 107.527L46.4804 109.215" stroke="white" stroke-width="2"/>
<circle cx="73.5" cy="73.5" r="72.5" stroke="white" stroke-width="2"/>
</svg>
