<svg width="147" height="147" viewBox="0 0 147 147" fill="none" xmlns="http://www.w3.org/2000/svg">
<path d="M36 43.0881H45.8203M36.3329 50.0423H52.2818M43.8229 66.3804H70.9536M88.5136 66.3804H70.9536M88.5136 66.3804C88.5136 75.5129 104.492 78.2778 104.492 65.3749M88.5136 66.3804C88.5136 50.0423 106.157 46.7746 114.479 53.8125C122.691 60.7574 123.134 77.9427 106.157 82.132H91.5096M70.9536 66.3804C99.8319 52.2206 73.8664 19.7957 54.7251 40.9935M53.2271 44.7637C47.7344 59.5937 67.7079 62.8613 68.7066 50.0423M36.3329 82.132H91.5096M91.5096 82.132C104.492 82.132 111.65 98.2187 103.327 108.273M91.0103 99.1404C92.8475 87.5398 75.0936 86.8776 74.6986 98.2187M74.6986 98.2187C74.3037 109.56 87.6814 119.333 101.08 110.703M74.6986 98.2187H46.4029M43.4068 108.273H62.4649" stroke="white" stroke-width="2"/>
<circle cx="73.5" cy="73.5" r="72.5" stroke="white" stroke-width="2"/>
</svg>
