<svg width="70" height="141" fill="none" xmlns="http://www.w3.org/2000/svg"><path d="M20.2 13.054H8a5 5 0 00-5 5v5.329m17.2-10.33V8a5 5 0 015-5h19.86a5 5 0 015 5v5.054m-29.86 0h29.86m0 0h11.926a5 5 0 015 5v5.329M3 23.383h63.986M3 23.383v105.771M66.986 23.383v105.771m-63.986 0v3.677a5 5 0 005 5h53.986a5 5 0 005-5v-3.677m-63.986 0h63.986M44.212 54.095l-3.107 12.241a3.882 3.882 0 003.763 4.837v0c3.302 0 5.096 3.862 2.966 6.386L35.145 92.586c-3.471 4.112-10.097.59-8.63-4.588l2.437-8.604c.718-2.535-1.186-5.053-3.82-5.053v0c-3.395 0-5.225-3.984-3.013-6.559l14.947-17.4c2.848-3.314 8.221-.523 7.146 3.713v0z" stroke="#fff" stroke-width="6"/></svg>