<svg width="127" height="111" fill="none" xmlns="http://www.w3.org/2000/svg"><path d="M4.595 3l100.629 103.819M87.969 68.123v0c0 3.857-4.434 6.064-7.713 4.032-12.599-7.811-21.847-8.202-33.97-.401-3.238 2.083-7.761-.057-7.761-3.908v0c0-1.556.794-3.014 2.126-3.818 16.82-10.154 27.413-9.14 44.866.008a4.61 4.61 0 012.452 4.087zm17.255-18.405v0c0 3.832-4.228 6.177-7.562 4.286-28.363-16.09-45.577-16.233-68.74-.856-3.152 2.092-7.507-.077-7.507-3.861v0c0-1.557.799-3.018 2.12-3.842 29.176-18.196 47.401-16.602 79.093-.03a4.858 4.858 0 012.596 4.303zm18.559-16.9v0c0 3.65-3.964 5.936-7.182 4.215-42.52-22.735-67.995-22.148-106.417-.274C7.013 38.565 3 36.322 3 32.673v0c0-1.673.906-3.228 2.362-4.052 39.96-22.605 65.514-26.436 115.88 0a4.761 4.761 0 012.541 4.197z" stroke="#fff" stroke-width="5" stroke-linecap="round"/><circle cx="64.189" cy="94.059" r="13.45" stroke="#fff" stroke-width="5"/></svg>