<svg width="134" height="137" fill="none" xmlns="http://www.w3.org/2000/svg"><path d="M12.557 62.506l-3.195 1.092c-4.054 1.386-7.764-2.603-5.79-6.405C9.028 46.686 15.613 38.19 22.92 31.626m37.375-16.918v-8.11c0-4.925 12.835-4.78 12.835 0v7.388m-12.835.722C47.83 30.79 45.6 44.147 45.15 64.967m15.143-50.26a61.881 61.881 0 0112.835.106m-12.835-.105c-8.6.827-17.111 3.477-25.117 8.035m37.952-7.93c22.228 2.493 43.645 16.923 56.981 41.81 2.072 3.865-1.957 8.213-6.264 7.384-6.167-1.187-13.712-1.692-19.421.96M73.129 14.813C86.244 28.791 88.077 40.56 90.003 62.506m-56.534 0l10.328 2.304a5.145 5.145 0 002.674-.128c7.95-2.529 14.57-3.495 21.178-3.259m21.648 4.123c-8.141-2.378-14.887-3.88-21.648-4.123m-47.304 1.083c2.462-.81 3.679-.765 5.624 0m41.68-1.083v66.982c0 7.387-15.72 7.532-15.72 0v-8.835m-29.01-87.944c-2.415-.734-4.26-2.173-4.45-4.317-.576-6.517 8.654-25.201 8.942-24.477.235.59 6.016 12.127 7.766 19.91M22.92 31.626c4.926 1.497 12.23.058 12.713-4.316.134-1.21-.055-2.79-.455-4.566m61.46 23.685c-1.01-.435-8.22 17.525-8.22 25.346 0 7.821 15.431 7.821 16.008 0s-6.778-24.912-7.788-25.346z" stroke="#fff" stroke-width="5" stroke-linecap="round"/></svg>