<svg width="91" height="151" fill="none" xmlns="http://www.w3.org/2000/svg"><path d="M38.974 119.668v0a1.3 1.3 0 00-1.3 1.301V143a5 5 0 005 5H82.23a5 5 0 005-5v-18.332a5 5 0 00-5-5h-.923m-42.331 0S17.159 90.901 9.79 81.311c-7.368-9.589 4.768-11.187 10.258-7.555 2.292 1.516 5.74 4.449 8.98 7.352 3.291 2.947 8.646.662 8.646-3.756V38.015c0-7.41 12.425-7.41 12.425 0v20.994m-11.124 60.659h42.33M50.1 80.004V59.009m0 0c0-6.61 13.003-6.32 13.003 0v4.577m0 20.34v-20.34m0 0c0-6.392 11.992-7.41 11.992 0v6.538m0 16.418V70.124m0 0c0-6.538 12.28-6.538 12.713.727.383 6.408.09 28.986.016 34.217a4.93 4.93 0 01-.492 2.079l-6.025 12.521M3 42.664h23.838M14.992 14.042l15.604 15.256M43.309 3v20.631m28.317-8.862L56.023 29.298m3.322 13.366h23.55" stroke="#fff" stroke-width="5" stroke-linecap="round"/></svg>