<svg width="116" height="134" viewBox="0 0 116 134" fill="none" xmlns="http://www.w3.org/2000/svg">
<path d="M46.8392 26.3605L50.9826 30.293C53.1116 32.3136 56.515 32.0742 58.3403 29.7756L69.1608 16.1486M4.32168 6.20187L18.6713 13.6287M4.32168 25.5648H18.6713M4.32168 44.5299L18.6713 36.7051M97.4615 13.6287L111.413 6.20187M97.4615 25.5648H111.413M97.4615 36.7051L110.483 43.7341M58 66.9431L65.9479 78.7872C66.8765 80.171 68.4334 81.0012 70.0998 81.0012H109.287M58 66.9431L49.9218 78.8141C48.9908 80.1823 47.4431 81.0012 45.7882 81.0012H5.91608M58 66.9431V90.0195M5.91608 81.0012V81.0012C3.66185 81.0012 2.19911 78.6247 3.2146 76.6122L8.78145 65.5794C9.63164 63.8945 11.3581 62.8318 13.2454 62.8318H103.092C105.011 62.8318 106.761 63.9302 107.595 65.6585L112.517 75.8558C113.666 78.2372 111.931 81.0012 109.287 81.0012V81.0012M5.91608 81.0012V126C5.91608 128.761 8.15466 131 10.9161 131H57.6014M109.287 81.0012V126C109.287 128.761 107.048 131 104.287 131H57.6014M58 113.229L57.6014 131M36.0769 116.279H18.6713M57.3353 3.00054C28.8699 2.82212 28.1047 46.9171 58 46.9171C87.8953 46.9171 85.8006 3.17896 57.3353 3.00054Z" stroke="#154911" stroke-width="5"/>
</svg>
