<svg width="137" height="136" viewBox="0 0 137 136" fill="none" xmlns="http://www.w3.org/2000/svg">
<path d="M38.4626 84.7444L55.2677 70.1095M38.4626 84.7444C38.4626 84.7444 37.6684 122.189 38.4626 123.243C39.2568 124.298 41.5061 125.683 41.5061 125.683M38.4626 84.7444C38.7288 81.1171 38.3553 79.7626 35.9485 79.6024H21.9884M55.2677 70.1095L42.7102 23.9933C41.9759 21.2964 43.595 18.5212 46.3042 17.8334L68.897 12.0974M55.2677 70.1095L57.5487 78.2005C58.1562 80.3554 60.1222 81.8438 62.3611 81.8438H68.897M68.897 12.0974V8C68.897 5.23858 71.1356 3 73.897 3H129C131.761 3 134 5.23858 134 8V128C134 130.761 131.761 133 129 133H105.021M68.897 12.0974V29.2373M68.897 81.8438V29.2373M68.897 81.8438L59.5968 45.609C59.0034 43.2969 60.2815 41.061 62.0241 39.4296C63.5692 37.983 64.5438 35.9804 65.1552 32.5186C65.4816 30.6705 67.0203 29.2373 68.897 29.2373V29.2373M68.897 81.8438H79.3505M114.416 93.9736C120.371 95.2921 123.943 81.8438 114.416 81.8438C104.889 81.8438 79.3505 81.8438 79.3505 81.8438M114.416 93.9736C117.517 93.9736 122.356 93.9736 122.356 93.9736M114.416 93.9736C102.479 93.9736 83.8495 93.9736 83.8495 93.9736M122.356 93.9736C130.692 93.9736 130.03 106.763 122.356 106.763C114.681 106.763 114.416 106.763 114.416 106.763M122.356 93.9736C122.614 81.1529 123.017 61.144 123.017 61.144M114.416 106.763C122.356 105.84 124.076 120.475 114.416 120.475C104.757 120.475 108.69 120.475 105.021 120.475C96.7531 120.475 83.8495 120.475 83.8495 120.475M114.416 106.763H83.8495M105.021 133C105.021 133 52.7533 133 50.6364 133C48.5195 133 43.3589 129.968 41.5061 125.683M105.021 133C113.755 133 115.342 121.661 105.021 121.002M122.356 38.8621V31.1085C122.356 28.719 120.578 26.8624 118.422 25.8307C117.183 25.2375 116.277 24.4301 115.619 23.2167C114.434 21.0346 112.575 19.0852 110.092 19.0852H92.7686C90.7359 19.0852 88.9925 20.3662 87.9633 22.1191C86.9015 23.9276 85.6237 25.1518 83.5716 25.9724C81.2549 26.8989 79.3505 28.8532 79.3505 31.3483V81.8438M123.017 48.4868V52.9696M41.5061 125.683C40.633 130.128 39.5827 131.932 36.5309 132.843C36.1473 132.957 35.7462 133 35.3459 133H8.02828C5.5218 132.834 4.34226 132.099 3.28823 129.434C3.08505 128.92 3 128.367 3 127.815V84.7444C3.2885 80.7107 4.59424 79.8311 8.02828 79.6024H21.9884M21.9884 79.6024V112.959M101.978 56.6613C115.21 56.6613 115.739 77.0974 101.978 77.7566C88.2161 78.4158 86.9339 56.9491 101.978 56.6613Z" stroke="#154911" stroke-width="5"/>
</svg>
