<svg width="109" height="81" viewBox="0 0 109 81" fill="none" xmlns="http://www.w3.org/2000/svg">
<g clip-path="url(#clip0)">
<path d="M14.8451 17.2957C14.2871 11.8283 13.5695 6.69218 12.6525 1.90588H76.1604C78.0685 12.9558 79.1607 24.1127 79.4295 35.2995C79.7605 49.9586 78.6664 64.6156 76.1604 79.0941H12.6525C13.6293 73.461 14.4664 67.3309 15.0446 60.6853" stroke="#040F1F" stroke-width="4"/>
<path d="M86.9364 79.0943C86.9364 79.0943 86.9364 22.6957 107.869 19.8568H78.5714" stroke="#040F1F" stroke-width="4"/>
<path d="M19.8971 51.0691C22.309 51.6859 24.8005 52.0101 27.3157 52.0261C32.8011 51.991 38.173 50.4908 42.8537 47.6866C47.5344 44.8824 51.3467 40.8805 53.881 36.1111C51.8068 32.1998 48.8722 28.8044 45.3034 26.1625L36.5439 34.7498C36.6149 35.1983 36.6504 35.6534 36.6494 36.1111C36.6496 37.2687 36.4151 38.4148 35.9595 39.4829C35.5041 40.5509 34.8367 41.5197 33.9962 42.3327C33.1556 43.1459 32.1586 43.7871 31.0633 44.2194C29.9678 44.6516 28.7956 44.8662 27.6149 44.8507C27.188 44.846 26.7639 44.8113 26.3453 44.7478L19.8971 51.0691Z" fill="#1673FF"/>
<path d="M34.9551 30.9598C33.9948 29.6577 32.686 28.6377 31.1703 28.0145C29.5438 27.3458 27.7518 27.164 26.0201 27.4919C24.2884 27.8198 22.6944 28.6428 21.439 29.8572C20.1835 31.0717 19.3228 32.6232 18.9652 34.3163C18.6077 36.0094 18.7694 37.7685 19.4297 39.3717C20.0601 40.9019 21.1179 42.225 22.4794 43.1901L15.8222 49.7164C14.4291 49.1426 13.0768 48.4648 11.7778 47.6865C7.09707 44.8824 3.28466 40.8804 0.750488 36.111C3.28119 31.3389 7.09281 27.3345 11.7742 24.5299C16.4557 21.7253 21.8293 20.2268 27.3157 20.196C32.4746 20.2249 37.534 21.5517 42.0118 24.0418L34.9551 30.9598Z" fill="#1673FF"/>
<path d="M50.1071 14.2941L5.53259 57.992" stroke="#040F1F" stroke-width="4" stroke-linejoin="bevel"/>
</g>
<defs>
<clipPath id="clip0">
<rect width="108.075" height="81" fill="white" transform="translate(0.750488)"/>
</clipPath>
</defs>
</svg>
