<svg width="128" height="128" fill="none" xmlns="http://www.w3.org/2000/svg"><circle cx="64" cy="64" r="63" stroke="#fff" stroke-width="2"/><path d="M58.532 41.439h-7.337m17.255 0h6.385m0 0V35H89.78v6.439m-14.945 0H89.78m0 0H98v6.642h-4.484m-42.321-6.642V35H37.812v6.439m13.383 0H37.812m0 0H30v6.642h4.076m27.784-6.642h3.125m28.531 6.642h-59.44m59.44 0l-.747 36.26m0 0H34.076m58.693 0h3.804V92H30v-7.659h4.076m0 0v-36.26M82.51 63.466v3.762m0 3.761v-3.761m0 0h-4.075 7.812m-37.906 0h-7.88m24.523-13.115l-9.51 14.843h6.929V80.41l9.035-15.588h-6.454V54.113z" stroke="#fff" stroke-width="3"/></svg>