<svg width="128" height="128" viewBox="0 0 128 128" fill="none" xmlns="http://www.w3.org/2000/svg">
<circle cx="64" cy="64" r="63" stroke="white" stroke-width="2"/>
<path d="M33.9143 63.602V52.5311H27V81.0405H33.9143V70.4761M33.9143 63.602H37.4806V52.5311H46.2144L57.3499 48.9132H68.8495M33.9143 63.602V70.4761M33.9143 70.4761H37.4806V81.0405H48.0339L57.3499 89H84.2064L89.4467 83.1389V75.9754H95.0508V81.0405H100V52.5311H93.8863V57.8857H89.4467V48.9132H68.8495M68.8495 48.9132V44.3546M68.8495 44.3546H62.4447V39H84.2064V44.3546H79.1844M68.8495 44.3546H79.1844M79.1844 44.3546V47.6107M66.011 54.8466H76.5643L72.0518 63.602H77.5832L61.2802 81.0405L66.9571 67.1476H62.4447L66.011 54.8466Z" stroke="white" stroke-width="3"/>
</svg>
