<svg width="128" height="128" fill="none" xmlns="http://www.w3.org/2000/svg"><circle cx="64" cy="64" r="63" stroke="#fff" stroke-width="2"/><path d="M33.914 63.602v-11.07H27V81.04h6.914V70.476m0-6.874h3.567v-11.07h8.733l11.136-3.619h11.5M33.914 63.602v6.874m0 0h3.567V81.04h10.553L57.35 89h26.856l5.24-5.861v-7.164h5.605v5.066H100V52.53h-6.114v5.355h-4.44v-8.973H68.85m0 0v-4.558m0 0h-6.405V39h21.761v5.355h-5.022m-10.334 0h10.334m0 0v3.256m-13.173 7.236h10.553l-4.512 8.755h5.531L61.28 81.04l5.677-13.892h-4.512l3.566-12.301z" stroke="#fff" stroke-width="3"/></svg>