<svg width="128" height="128" fill="none" xmlns="http://www.w3.org/2000/svg"><path d="M20.348 88.5c-11.29-34.12 12.669-62 42.76-62 17.767 0 32.007 7.11 40.181 18.426 8.013 11.092 10.346 26.43 4.197 43.574H20.348z" stroke="#fff" stroke-width="3"/><path d="M24.894 83.257a65.794 65.794 0 01-.424-8.992m79.66 8.992c.417-3.143.575-6.14.5-8.992m-80.16 0h7.355m-7.355 0c.192-7.994 1.986-14.753 4.92-20.31m7.024 4.2l-7.024-4.2m0 0c3.562-6.748 8.804-11.722 14.892-14.98m3.746 7.473l-3.746-7.474m0 0c12.202-6.532 27.802-6.172 40.086.604m-4.215 6.87l4.215-6.87m0 0c11.316 6.241 19.818 17.928 20.262 34.687m-5.651-20.623l-7.212 4.514m4.777 16.11h8.086m-44.239-7.868l3.747-26.225 4.12 25.944" stroke="#fff" stroke-width="3"/><circle cx="64.512" cy="74.265" r="8.428" stroke="#fff" stroke-width="3"/><circle cx="64" cy="64" r="63" stroke="#fff" stroke-width="2"/></svg>