<svg width="1920" height="115" viewBox="0 0 1920 115" fill="none" xmlns="http://www.w3.org/2000/svg">
<path fill-rule="evenodd" clip-rule="evenodd" d="M1920 16.0299L1839.88 40.0745C1759.75 64.1191 1599.5 112.208 1439.25 114.88C1279 117.552 1118.75 74.8056 958.5 66.7907C798.25 58.7758 638 85.492 477.75 85.492C317.5 85.492 157.25 58.7757 77.125 45.4176L-2.99999 32.0595L-2.99999 -2.6732e-07L77.125 6.73743e-06C157.25 1.37422e-05 317.5 2.77517e-05 477.75 4.17612e-05C638 5.57707e-05 798.25 6.97802e-05 958.5 8.37897e-05C1118.75 9.77992e-05 1279 0.000111809 1439.25 0.000125818C1599.5 0.000139828 1759.75 0.000153837 1839.88 0.000160842L1920 0.000167847L1920 16.0299Z" fill="#EBEFF5"/>
</svg>
