<svg width="27" height="54" viewBox="0 0 27 54" fill="none" xmlns="http://www.w3.org/2000/svg">
<path fill-rule="evenodd" clip-rule="evenodd" d="M10.4531 0.399136C6.27186 0.678833 2.23955 1.63097 0.730753 2.69489C0.0540472 3.17205 -0.0325841 3.47538 0.00854839 5.22174C0.0400325 6.55724 0.0638994 6.71588 0.279616 7.02587C0.652652 7.56184 1.02904 7.70434 2.24859 7.77127C3.02452 7.81385 3.38111 7.87641 3.49089 7.98903C3.71585 8.21981 7.79081 15.7597 7.92894 16.2007C7.9981 16.4217 8.06452 17.6177 8.09113 19.1227C8.13196 21.4259 8.15501 21.6975 8.33153 21.9517C8.55831 22.2781 9.12939 22.5036 9.4613 22.3977C10.1199 22.1876 17.8646 18.6528 18.1474 18.4333C18.5685 18.1062 18.8273 17.578 18.9643 16.7662C19.0238 16.4134 19.1724 15.9216 19.2944 15.6732C19.7695 14.7057 23.1926 8.43746 23.4144 8.12893C23.6482 7.80354 23.6534 7.80208 24.7445 7.75982C25.9736 7.71215 26.3367 7.57735 26.7204 7.02587C26.9361 6.71588 26.96 6.55724 26.9915 5.22174C27.0326 3.47538 26.946 3.17205 26.2692 2.69489C23.8995 1.02379 16.712 -0.0194192 10.4531 0.399136ZM17.0547 21.1341C13.1873 22.8065 9.05292 24.7404 8.80704 24.9923C8.20986 25.6036 8.11723 25.9473 8.11723 27.5507C8.11723 28.9969 8.11987 29.0135 8.39653 29.3281C8.9542 29.9621 8.9733 29.9569 13.4072 27.9734C15.6088 26.9885 17.6046 26.0681 17.8424 25.928C18.1297 25.7588 18.3762 25.4918 18.5777 25.1316C18.8751 24.6002 18.8808 24.5617 18.8819 23.1082C18.8828 21.6357 18.881 21.6246 18.6035 21.3171C18.2138 20.8856 17.7549 20.8313 17.0547 21.1341ZM17.5334 28.2535C17.4337 28.2801 15.537 29.1147 13.3186 30.1083C10.8465 31.2153 9.13722 32.0409 8.90281 32.2409C8.22265 32.8215 8.11723 33.1715 8.11723 34.8492V36.3211L8.47544 36.6882C8.79902 37.0199 8.87519 37.0503 9.26254 37.0024C9.65619 36.9538 16.8262 33.8075 17.7973 33.2573C18.0263 33.1276 18.3527 32.8185 18.5228 32.5705C18.8289 32.1239 18.8323 32.1045 18.8646 30.5743C18.9013 28.8369 18.8289 28.5902 18.2052 28.3231C17.8618 28.176 17.835 28.1732 17.5334 28.2535ZM13.2578 37.4415C10.6446 38.6155 8.9928 39.4154 8.80155 39.5993C8.23799 40.1415 8.1219 40.5686 8.11947 42.1103C8.11713 43.5449 8.17522 43.8109 8.56075 44.131C9.01321 44.5065 9.35852 44.3944 13.625 42.4865C15.8744 41.4806 17.8748 40.5294 18.0703 40.3726C18.2658 40.2158 18.5285 39.8813 18.6543 39.6292C18.8575 39.2214 18.8828 39.017 18.8828 37.7807C18.8828 36.3431 18.8242 36.0758 18.4392 35.7561C17.9707 35.3672 17.6217 35.4808 13.2578 37.4415ZM13.1445 44.7898C9.44556 46.4536 8.82837 46.7633 8.49809 47.1213C8.04959 47.6075 8.01008 47.96 8.33193 48.6065C8.58198 49.1089 12.2312 53 12.7756 53.3449C13.245 53.6422 13.7547 53.6422 14.2259 53.3449C14.4296 53.2164 15.4635 52.1932 16.5234 51.0711C18.9704 48.4806 18.8828 48.6779 18.8828 45.762C18.8828 43.6017 18.8467 43.3809 18.4392 43.0426C17.977 42.6589 17.6189 42.777 13.1445 44.7898Z" fill="#F96F0D"/>
</svg>
