<svg width="107" height="126" viewBox="0 0 107 126" fill="none" xmlns="http://www.w3.org/2000/svg">
<path d="M2 124V105.721C2 102.96 4.23858 100.721 7 100.721H32.2757C35.0371 100.721 37.2757 98.4827 37.2757 95.7213V78.0519M37.2757 78.0519L16.8296 57.364C14.8385 55.3494 14.9169 52.0846 17.0025 50.1679L17.8265 49.4106M37.2757 78.0519H59.3998M105 53.6763H75.5847C72.8233 53.6763 70.5847 55.9149 70.5847 58.6763V73.0519C70.5847 75.8134 68.3461 78.0519 65.5847 78.0519H59.3998M46.3711 2L36.8708 21.8661M28.3031 39.7822L17.8265 49.4106M28.3031 39.7822L40.2092 53.6763M28.3031 39.7822L33.0824 29.7882M59.3998 78.0519V69.2767M54.6062 69.2767H59.3998M59.3998 69.2767V65.8671C59.3998 63.1057 57.1612 60.8671 54.3998 60.8671H48.6712C47.2113 60.8671 45.8244 60.2291 44.8745 59.1206L40.2092 53.6763M49.5668 69.2767H40.7461C39.4649 69.2767 38.2326 68.7849 37.3034 67.9027L17.8265 49.4106M74.8866 2L53.3768 34.0539M40.2092 53.6763L48.2243 41.7323M33.0824 29.7882L48.2243 41.7323M33.0824 29.7882L36.8708 21.8661M48.2243 41.7323L53.3768 34.0539M36.8708 21.8661L53.3768 34.0539" stroke="#25691E" stroke-width="3" stroke-linecap="round"/>
</svg>
