<svg width="106" height="84" viewBox="0 0 106 84" fill="none" xmlns="http://www.w3.org/2000/svg">
<path d="M48.0881 10.9331C47.8979 10.5847 47.6893 10.2454 47.4633 9.9154M48.0881 10.9331L47.4633 9.9154M48.0881 10.9331C64.496 -7.15975 91.1238 7.26858 91.1238 23.8542M65.9942 66.4827L48.0495 81.9468C48.0495 81.9468 5.21743 57.7332 3.28423 27.7198C1.39799 -1.56464 38.3885 -3.34055 47.4633 9.9154M2 40.6405H29.0626L34.5566 22.5309L46.3583 59.1571L53.2766 40.6405H63.654M70.1653 63.0232L73.1157 60.1745M87.3592 49.7971V40.7423M87.3592 31.6875V40.7423M87.3592 40.7423L78.1009 40.6405H95.9053" stroke="#25691E" stroke-width="3" stroke-linecap="round"/>
<circle cx="87.3592" cy="40.8436" r="16.4061" stroke="#25691E" stroke-width="3"/>
</svg>
