<svg width="137" height="136" fill="none" xmlns="http://www.w3.org/2000/svg"><path d="M38.463 84.744L55.268 70.11M38.463 84.745s-.795 37.445 0 38.499c.794 1.055 3.043 2.44 3.043 2.44m-3.043-40.939c.266-3.627-.108-4.981-2.514-5.142h-13.96m33.279-9.493L41.374 19.085l27.523-6.988M55.267 70.11l3.309 11.735h10.321m0-69.747V3H134v130h-28.979M68.897 12.097v17.14m0 52.607V29.237m0 52.607L58.576 41.63c4.338-2.078 6.215-4.204 7.013-12.394h3.308m0 52.607H79.35m35.066 12.13c5.955 1.318 9.527-12.13 0-12.13H79.35m35.066 12.13h7.94m-7.94 0H83.85m38.506 0c8.336 0 7.674 12.789 0 12.789h-7.94m7.94-12.79l.661-32.829m-8.601 45.619c7.94-.923 9.66 13.712 0 13.712H83.85m30.566-13.712H83.85M105.02 133H50.636c-2.117 0-7.277-3.032-9.13-7.317M105.021 133c8.734 0 10.321-11.339 0-11.998m17.335-82.14V26.996c-5.056-.994-7.132-2.365-7.94-7.91H89.407c-2 4.908-3.784 7.037-10.056 7.91v54.848m43.666-33.357v4.483m-81.51 72.713c-.927 4.716-2.053 6.46-5.558 7.317H8.029c-2.737-.181-3.892-1.041-5.029-4.351V84.744c.288-4.033 1.594-4.913 5.028-5.142h13.96m0 0v33.357m79.99-56.298c13.232 0 13.761 20.436 0 21.096-13.762.659-15.044-20.808 0-21.096z" stroke="#022F38" stroke-width="6"/></svg>