<svg width="124" height="134" fill="none" xmlns="http://www.w3.org/2000/svg"><path d="M50.84 26.36l8.104 7.693 14.217-17.904M8.32 6.202l14.35 7.427M8.321 25.565h14.35M8.321 44.53l14.35-7.825m78.791-23.076l13.951-7.427m-13.951 19.363h13.951m-13.951 11.14l13.021 7.03M62 66.942L71.434 81h41.853M62 66.943l-9.566 14.058H9.916M62 66.943V90.02M9.916 81.001H5l9.168-18.17h96.063L119 81.002h-5.713m-103.37 0V131H61.6m51.686-49.999V131H61.601M62 113.229L61.601 131m-21.524-14.721H22.67M61.335 3.001C32.87 2.822 32.105 46.917 62 46.917S89.8 3.18 61.335 3.001z" stroke="#022F38" stroke-width="6"/></svg>