<svg width="106" height="106" fill="none" xmlns="http://www.w3.org/2000/svg"><circle cx="53" cy="53" r="53" fill="url(#paint0_linear)"/><path d="M70 48.869V31.082h-9.723M70 57.762V81H36V31.082h8.384m0 0h15.893m-15.893 0V25h15.893v6.082m5.473 36.09v8.894H40.774v-8.894m24.976 0H40.774m24.976 0v-9.41m-24.976 9.41v-9.41m0 0V41.066m0 16.696L51.397 58m14.353-.238V48.87m0 8.893H53.888M65.75 48.87V35.902H40.774v5.164m24.976 7.803h-9.71m-15.266-7.803v7.803h8.78m0 0c1.436-2.805 2.787-5.372 2.98-5.508h6.404l-2.898 5.508m-6.486 0a627.028 627.028 0 00-2.725 5.393L52 54.5l-.602 3.5m4.642-9.131l-1.416 2.878h5.415l-6.151 6.015m-2.49.238l-.32 2.688 2.81-2.926" stroke="#fff" stroke-width="2" stroke-linecap="round"/><defs><linearGradient id="paint0_linear" x1="53" y1="0" x2="53" y2="106" gradientUnits="userSpaceOnUse"><stop stop-color="#FDAE39"/><stop offset="1" stop-color="#C04A1E"/></linearGradient></defs></svg>