<svg width="106" height="106" fill="none" xmlns="http://www.w3.org/2000/svg"><circle cx="53" cy="53" r="53" fill="url(#paint0_linear)"/><path d="M31.026 36.546c-5.882 5.2-7.132 18.098-5.154 22.83m5.154-22.83l-4.529.832m4.529-.832v4.16m40.76-5.72c6.856 7.892 7.444 13.937 6.56 24.39m0 0l-2.24-2.807m2.24 2.808L81 56.568m-4.165 6.865C71.63 74.98 62.95 78.513 51.172 79.763m0 0l3.071-3.224m-3.071 3.225L54.243 82m-10.255-3.537c-7.496-1.508-15.357-9.62-17.127-15.03m0 0l-.989 4.681m.99-4.68l3.904 1.82m3.8-32.505c6.142-6.657 19.052-10.713 34.305-.832m0 0l-.937-3.9m.937 3.9l-3.54.832" stroke="#fff" stroke-width="2" stroke-linecap="round"/><defs><linearGradient id="paint0_linear" x1="53" y1="0" x2="53" y2="106" gradientUnits="userSpaceOnUse"><stop stop-color="#FDAE39"/><stop offset="1" stop-color="#C04A1E"/></linearGradient></defs></svg>