<svg width="106" height="106" viewBox="0 0 106 106" fill="none" xmlns="http://www.w3.org/2000/svg">
<circle cx="53" cy="53" r="53" fill="url(#paint0_linear)"/>
<path d="M31.026 36.5457C25.1437 41.7464 23.8943 54.6442 25.8724 59.3768M31.026 36.5457L26.4971 37.3778M31.026 36.5457V40.7063M71.786 34.9854C78.6419 42.8781 79.23 48.9234 78.3451 59.3768M78.3451 59.3768L76.1067 56.5685M78.3451 59.3768L81 56.5685M76.8355 63.4334C71.6299 74.979 62.9496 78.5138 51.1718 79.7637M51.1718 79.7637L54.2431 76.5392M51.1718 79.7637L54.2431 82M43.988 78.4635C36.4919 76.9553 28.6314 68.8422 26.8615 63.4334M26.8615 63.4334L25.8724 68.1141M26.8615 63.4334L30.7657 65.2537M34.5658 32.7491C40.7085 26.0922 53.6184 22.0356 68.8709 31.917M68.8709 31.917L67.9339 28.0165M68.8709 31.917L65.3311 32.7491" stroke="white" stroke-width="2" stroke-linecap="round"/>
<defs>
<linearGradient id="paint0_linear" x1="53" y1="0" x2="53" y2="106" gradientUnits="userSpaceOnUse">
<stop stop-color="#FDAE39"/>
<stop offset="1" stop-color="#C04A1E"/>
</linearGradient>
</defs>
</svg>
