<svg width="106" height="106" fill="none" xmlns="http://www.w3.org/2000/svg"><circle cx="53" cy="53" r="53" fill="url(#paint0_linear)"/><circle cx="53" cy="53" r="33" stroke="#fff" stroke-width="2"/><path d="M79.818 53.066c0 14.847-12.036 26.884-26.884 26.884-14.847 0-26.884-12.037-26.884-26.884 0-14.848 12.037-26.884 26.884-26.884 14.848 0 26.884 12.036 26.884 26.884z" stroke="#fff" stroke-width="2"/><circle cx="52.868" cy="53.132" r="2.222" stroke="#fff" stroke-width="2"/><path d="M49.778 53.263H39m-3.099 0h-5.984M53 49.91V43m0-13.149v6.116m8.878.544l2.63-3.372m5.065 10.128l3.09-1.71M70.1 53.263h5.853m-6.38 9.273l3.091 1.907m-9.996 5.064l1.842 3.156M53 70.296v6.05m-9.404-6.84l-2.302 3.157m-4.67-10.127l-3.682 1.907m3.683-20.716l-3.288-2.17m10.259-5.046l-2.302-3.372" stroke="#fff" stroke-width="2" stroke-linecap="round"/><defs><linearGradient id="paint0_linear" x1="53" y1="0" x2="53" y2="106" gradientUnits="userSpaceOnUse"><stop stop-color="#FDAE39"/><stop offset="1" stop-color="#C04A1E"/></linearGradient></defs></svg>