<svg width="106" height="106" fill="none" xmlns="http://www.w3.org/2000/svg"><circle cx="53" cy="53" r="53" fill="url(#paint0_linear)"/><path d="M43.362 62.64C44.384 57.393 63.057 24 63.057 24s-6.133 38.231-9.473 43.001c-3.339 4.77-11.244.886-10.222-4.361zm-23.238 7.02h-1.636c-1.41-5.494.682-13.698.682-13.698l2.794 1.09c-1.76 4.136-2.448 6.681-1.84 12.607zm2.998-15.675l-2.998-1.158c2.248-7.003 9.132-14.584 9.132-14.584l3.203 4.225c-4.386 3.664-6.486 6.12-9.337 11.517zM48.2 29.52s-11.584 2.608-16.627 6.679l3.27 4.361c4.111-2.06 6.625-3.063 13.358-3.203V29.52zm4.907 8.314l-2.453-.477 1.42-7.837c1.91-.517 5.52.409 5.52.409-2.448 3.052-3.356 4.797-4.487 7.905zm16.629-3.339s-4.05-2.652-5.657-2.794l-2.385 9.54 2.385 1.5 5.657-8.246zm2.726 1.908l-6.61 7.769c3.788 3.907 5.472 6.313 6.61 11.517l11.857-4.634s-5.867-9.662-11.858-14.652zm12.879 18.264l-12.198 3.611c1.746 5.036 1.547 7.55 0 11.722H87.59s-.146-9.371-2.249-15.333z" stroke="#fff" stroke-width="2" stroke-linecap="round"/><circle cx="49.689" cy="61.413" r="2.067" stroke="#fff" stroke-width="2"/><defs><linearGradient id="paint0_linear" x1="53" y1="0" x2="53" y2="106" gradientUnits="userSpaceOnUse"><stop stop-color="#FDAE39"/><stop offset="1" stop-color="#C04A1E"/></linearGradient></defs></svg>