<svg width="106" height="106" fill="none" xmlns="http://www.w3.org/2000/svg"><circle cx="53" cy="53" r="53" fill="url(#paint0_linear)"/><path d="M53.387 39.245V18m0 0l-6.738 7.681M53.387 18l7.24 7.681m-7.24 42.005v21.106m0 0l6.895-7.473m-6.895 7.473l-7.015-7.473M18 53.456h21.175m-21.175 0l7.889-6.46M18 53.455l7.889 6.687m41.866-6.687H89m0 0l-7.266-6.46M89 53.455l-7.266 6.687M45.265 45.334h16.243v16.244H45.306l-.02-8.122-.02-8.122z" stroke="#fff" stroke-width="2" stroke-linecap="round"/><path d="M71.673 35.18a1 1 0 00-1.05-.948l-8.988.452a1 1 0 00.1 1.998l7.99-.402.402 7.99a1 1 0 101.998-.1l-.452-8.99zm-7.882 9.153l7.625-8.431-1.484-1.342-7.624 8.432 1.483 1.341zM35.085 34.231a1 1 0 00-.992 1.008l.072 9a1 1 0 102-.016l-.064-8 8-.064a1 1 0 10-.017-2l-9 .072zm9.428 8.868l-8.719-8.58-1.403 1.425 8.72 8.58 1.402-1.425zm-10.42 28.777a1 1 0 00.995 1.005l9 .041a1 1 0 00.01-2l-8-.036.036-8a1 1 0 00-2-.01l-.041 9zm8.37-8.706l-8.074 8 1.407 1.421 8.075-8-1.407-1.421zm29.559 9.789a1 1 0 00.993-1.008l-.066-9a1 1 0 10-2 .015l.058 8-8 .058a1 1 0 10.015 2l9-.066zm-8.805-8.268l8.096 7.98 1.404-1.425-8.096-7.98-1.404 1.425z" fill="#fff"/><defs><linearGradient id="paint0_linear" x1="53" y1="0" x2="53" y2="106" gradientUnits="userSpaceOnUse"><stop stop-color="#FDAE39"/><stop offset="1" stop-color="#C04A1E"/></linearGradient></defs></svg>