<svg width="138" height="138" viewBox="0 0 138 138" fill="none" xmlns="http://www.w3.org/2000/svg">
<path d="M0 0H113C126.807 0 138 11.1929 138 25V138H25C11.1929 138 0 126.807 0 113V0Z" fill="url(#paint0_linear)"/>
<g clip-path="url(#clip0)">
<path d="M106.463 83.747C108.144 81.6035 108.95 79.3057 108.847 76.9394C108.744 74.3329 107.578 72.2923 106.618 71.0406C107.732 68.2626 108.161 63.89 104.44 60.4948C101.713 58.0084 97.0835 56.8938 90.6703 57.2024C86.1604 57.4082 82.3879 58.2484 82.2336 58.2827H82.2165C81.3591 58.4371 80.4503 58.6257 79.5243 58.8315C79.4557 57.734 79.6443 55.0075 81.6677 48.8687C84.0684 41.5638 83.9312 35.9737 81.2219 32.2355C78.3754 28.3087 73.8313 28 72.4938 28C71.2077 28 70.0245 28.5316 69.1843 29.509C67.2809 31.721 67.5038 35.8022 67.7439 37.6884C65.4804 43.7587 59.1357 58.6428 53.7685 62.7754C53.6657 62.844 53.5799 62.9297 53.4942 63.0155C51.9166 64.6788 50.8534 66.4793 50.1332 68.0569C49.1215 67.5082 47.9726 67.1995 46.738 67.1995H36.2779C32.334 67.1995 29.1445 70.4061 29.1445 74.3329V102.198C29.1445 106.142 32.3511 109.331 36.2779 109.331H46.738C48.2641 109.331 49.6874 108.851 50.8534 108.028L54.8831 108.508C55.5004 108.594 66.4749 109.983 77.7409 109.76C79.7815 109.914 81.702 110 83.4854 110C86.5548 110 89.2299 109.76 91.4591 109.28C96.7062 108.165 100.29 105.936 102.108 102.661C103.497 100.157 103.497 97.6708 103.274 96.0933C106.686 93.0067 107.286 89.5943 107.166 87.1936C107.098 85.8047 106.789 84.6215 106.463 83.747ZM36.2779 104.701C34.889 104.701 33.7744 103.57 33.7744 102.198V74.3158C33.7744 72.9268 34.9061 71.8122 36.2779 71.8122H46.738C48.127 71.8122 49.2416 72.944 49.2416 74.3158V102.181C49.2416 103.57 48.1098 104.684 46.738 104.684H36.2779V104.701ZM102.073 81.7407C101.353 82.4952 101.216 83.6441 101.765 84.5358C101.765 84.5529 102.468 85.7532 102.554 87.3994C102.674 89.6458 101.593 91.6349 99.3298 93.3325C98.5239 93.9498 98.1981 95.013 98.541 95.9732C98.541 95.9904 99.2784 98.2539 98.078 100.397C96.9291 102.455 94.3741 103.93 90.4988 104.753C87.3951 105.422 83.1767 105.542 77.9982 105.13C77.9296 105.13 77.8438 105.13 77.7581 105.13C66.7322 105.37 55.5862 103.93 55.4662 103.913H55.449L53.7171 103.707C53.82 103.227 53.8714 102.712 53.8714 102.198V74.3158C53.8714 73.5784 53.7514 72.8582 53.5456 72.1895C53.8543 71.0406 54.7117 68.4856 56.7351 66.3078C64.4344 60.2033 71.9622 39.6089 72.288 38.7173C72.4252 38.3572 72.4595 37.9628 72.3909 37.5684C72.0994 35.6478 72.2022 33.2986 72.6138 32.5956C73.5226 32.6127 75.9747 32.8699 77.4494 34.9105C79.1985 37.3283 79.1299 41.6495 77.2437 47.3768C74.3629 56.105 74.1228 60.7005 76.4034 62.724C77.5352 63.7357 79.0442 63.7871 80.1416 63.3927C81.1876 63.1527 82.1822 62.9469 83.1253 62.7926C83.1939 62.7754 83.2796 62.7583 83.3482 62.7411C88.6125 61.5922 98.0437 60.8892 101.319 63.8729C104.097 66.4107 102.125 69.7716 101.902 70.1317C101.268 71.092 101.456 72.3438 102.314 73.1154C102.331 73.1326 104.131 74.8302 104.217 77.1108C104.285 78.637 103.565 80.1974 102.073 81.7407Z" fill="#533232"/>
</g>
<defs>
<linearGradient id="paint0_linear" x1="69" y1="0" x2="69" y2="138" gradientUnits="userSpaceOnUse">
<stop stop-color="#EFD9D1"/>
<stop offset="0.482292" stop-color="#FDF6F4"/>
<stop offset="1" stop-color="#EFD9D1"/>
</linearGradient>
<clipPath id="clip0">
<rect width="82" height="82" fill="white" transform="translate(28 28)"/>
</clipPath>
</defs>
</svg>
