<svg width="83" height="83" viewBox="0 0 83 83" fill="none" xmlns="http://www.w3.org/2000/svg">
<circle cx="41.5" cy="41.5" r="41" stroke="black" stroke-opacity="0.35"/>
<path d="M40.9783 28.848C43.2583 28.848 45.0823 29.436 46.4503 30.612C47.8423 31.764 48.5383 33.336 48.5383 35.328C48.5383 37.296 47.8063 38.964 46.3423 40.332C44.9023 41.7 42.9343 42.696 40.4383 43.32V48.576H39.7183V42.996C41.9263 42.18 43.4143 41.22 44.1823 40.116C44.9503 38.988 45.3343 37.62 45.3343 36.012C45.3343 33.828 44.8783 32.208 43.9663 31.152C43.0783 30.096 41.8543 29.568 40.2943 29.568C39.5983 29.568 38.9263 29.664 38.2783 29.856C37.6543 30.048 37.1503 30.384 36.7663 30.864C37.2223 30.96 37.5823 31.164 37.8463 31.476C38.1343 31.788 38.2783 32.196 38.2783 32.7C38.2783 33.3 38.0863 33.78 37.7023 34.14C37.3183 34.476 36.8503 34.644 36.2983 34.644C35.7463 34.644 35.2903 34.464 34.9303 34.104C34.5703 33.744 34.3903 33.288 34.3903 32.736C34.3903 31.776 34.9543 30.912 36.0823 30.144C37.3543 29.28 38.9863 28.848 40.9783 28.848ZM40.1143 52.896C40.7383 52.896 41.2783 53.124 41.7343 53.58C42.1903 54.036 42.4183 54.576 42.4183 55.2C42.4183 55.824 42.1903 56.364 41.7343 56.82C41.2783 57.276 40.7383 57.504 40.1143 57.504C39.4903 57.504 38.9503 57.276 38.4943 56.82C38.0383 56.364 37.8103 55.824 37.8103 55.2C37.8103 54.576 38.0383 54.036 38.4943 53.58C38.9503 53.124 39.4903 52.896 40.1143 52.896Z" fill="black"/>
</svg>
