<svg width="148" height="148" viewBox="0 0 148 148" fill="none" xmlns="http://www.w3.org/2000/svg">
<path d="M63.3721 44.8903C68.0523 43.5902 72.3575 43.0078 76.287 42.9863M105.302 59.456C103.817 56.3441 101.979 53.5843 98.5867 50.785M71.3793 38.3401L76.287 42.9863M76.287 42.9863C80.7955 42.9616 84.8095 43.6753 88.3282 44.8903M80.5919 51.6992L88.3282 44.8903M88.3282 44.8903C92.1235 46.2009 95.9451 48.6055 98.5867 50.785M63.3721 35.496C78.1812 26.4463 98.5867 41.4366 98.5867 50.785M98.5867 50.785C94.9705 61.5183 72.4986 66.0063 63.9748 59.9668C55.4509 53.9273 52.8979 51.9915 47.0131 51.6992L52.6957 42.9863M56.398 39.4606L58.8088 37.2197M74.6511 115.219C78.2082 114.079 81.4088 112.972 84.2942 111.813M107.799 85.4847C106.557 90.1278 105.062 93.9294 103.201 97.12M93.9373 95.9133L94.9705 106.193M94.9705 106.193C98.3362 103.761 101.02 100.86 103.201 97.12M94.9705 106.193C91.989 108.348 88.472 110.135 84.2942 111.813M109.607 95.2238L103.201 97.12M84.2942 111.813C78.956 95.2238 83.1604 81.614 101.514 75.4007C105.767 73.5617 107.313 72.0312 109.607 69.0229C127.645 93.1044 108.835 117.666 84.2942 111.813ZM41.5028 59.9668C40.2357 63.7118 38.323 67.0866 37.8402 70.2295M50.8876 103.412C48.027 99.7675 45.6705 96.4646 43.8064 93.3277M48.3047 85.4847L39.2489 82.6405M39.2489 82.6405C40.0963 86.1635 41.6092 89.6302 43.8064 93.3277M39.2489 82.6405C38.3027 78.7067 37.153 74.7029 37.8402 70.2295M40.5558 100.223L43.8064 93.3277M37.8402 70.2295C25.3158 82.6405 31.6009 114.271 66.902 114.271C66.633 107.876 66.2131 108.669 66.2131 97.8957C66.2131 87.1222 54.3313 71.3499 37.8402 70.2295Z" stroke="black" stroke-width="4"/>
<path d="M147.417 73.9583C147.417 83.9385 145.427 93.4526 141.822 102.126C130.772 128.719 104.548 147.417 73.9583 147.417C33.3884 147.417 0.5 114.528 0.5 73.9583C0.5 33.3884 33.3884 0.5 73.9583 0.5C114.528 0.5 147.417 33.3884 147.417 73.9583Z" stroke="black" stroke-opacity="0.67"/>
</svg>
