<svg width="148" height="148" viewBox="0 0 148 148" fill="none" xmlns="http://www.w3.org/2000/svg">
<path d="M109.613 69.3897C109.613 47.4053 91.6976 29.5834 69.5981 29.5834M109.613 69.3897L99.5221 61.688M109.613 69.3897L117.616 61.688M69.5981 109.196C47.4985 109.196 29.5833 91.3741 29.5833 69.3897M29.5833 69.3897C29.5833 47.4053 47.4985 29.5834 69.5981 29.5834M29.5833 69.3897H40.1959M69.5981 29.5834V37.8908M58.2025 58.3132L67.6843 67.1398M72.6427 67.1398L89.8664 49.8327M69.5981 92.3216C71.9467 74.1492 92.6693 82.4845 90.3013 92.3216C87.9334 102.159 69.2949 115.972 69.5981 116.811H91.9541M118.66 110.84H91.0842L111.874 80.6393V110.234M111.874 111.446V118.196" stroke="black" stroke-width="4"/>
<path d="M72.2954 69.4762C72.2954 70.7036 71.2924 71.7164 70.033 71.7164C68.7736 71.7164 67.7706 70.7036 67.7706 69.4762C67.7706 68.2488 68.7736 67.236 70.033 67.236C71.2924 67.236 72.2954 68.2488 72.2954 69.4762Z" stroke="black" stroke-width="4"/>
<path d="M147.417 73.9583C147.417 83.9385 145.427 93.4526 141.822 102.126C130.772 128.719 104.548 147.417 73.9583 147.417C33.3884 147.417 0.5 114.528 0.5 73.9583C0.5 33.3884 33.3884 0.5 73.9583 0.5C114.528 0.5 147.417 33.3884 147.417 73.9583Z" stroke="black" stroke-opacity="0.67"/>
</svg>
