<svg width="148" height="148" viewBox="0 0 148 148" fill="none" xmlns="http://www.w3.org/2000/svg">
<path d="M32 86.0928V106.553H49.0766V101.522M32 80.6424V65.5489H49.0766V73.0118M49.0766 101.522L65.4802 107.727H71.8734M49.0766 101.522V73.0118M76.7524 107.727C76.7524 107.727 102.439 107.749 105.69 107.727C108.941 107.704 111.308 96.8893 105.69 96.9098M105.69 96.9098H93.4084M105.69 96.9098C105.69 96.9098 106.111 96.9098 110.569 96.9098C115.028 96.9098 114.775 86.0928 110.149 86.0928M110.149 86.0928H93.4084M110.149 86.0928C120.075 86.0928 118.056 75.0243 110.149 75.0243M92.399 75.0243H110.149M110.149 75.0243C117.972 75.0243 116.542 62.9495 110.569 62.9495C104.597 62.9495 90.6324 62.9495 90.6324 62.9495M86.174 62.9495H79.5284C79.5284 62.9495 82.8092 44.4181 82.8092 38.5485C82.8092 32.6788 71.8734 30.9179 71.8734 35.949C71.8734 40.9802 61.3948 60.9252 49.0766 73.0118" stroke="black" stroke-width="4"/>
<path d="M147.417 73.9583C147.417 83.9385 145.427 93.4526 141.822 102.126C130.772 128.719 104.548 147.417 73.9583 147.417C33.3884 147.417 0.5 114.528 0.5 73.9583C0.5 33.3884 33.3884 0.5 73.9583 0.5C114.528 0.5 147.417 33.3884 147.417 73.9583Z" stroke="black" stroke-opacity="0.67"/>
</svg>
