<svg width="85" height="118" fill="none" xmlns="http://www.w3.org/2000/svg"><path d="M12.127 73.103c-6.824-2.753-7.882-16.453-5.9-16.758m5.9 16.758a55.667 55.667 0 01-.98-16.758m.98 16.758c2.321 10.933 7.994 21.488 17.387 29.209M6.226 56.345s-1.595-7.377 0-22.66a20.872 20.872 0 012.102-7.167M6.226 56.345h4.921m67.494-29.827c-4.094-8.666-10.18-13.742-18.821-16.222-4.6-1.321-9.925-1.906-16.057-1.906-1.488 0-2.98.07-4.466.21m-28.15 47.745c1.607-16.92 11.16-31.627 27.193-34.335M11.147 56.345c4.174-6.326 7.588-6.578 14.086-7.694 6.499-1.116 13.107-7.167 13.107-7.167M39.297 8.6c-5.742 4.322-4.254 11.067-.957 13.41m.957-13.41a49.105 49.105 0 00-11.272 2.415c-.947.324 4.635-1.488 3.722-1.108M38.34 22.01a32.519 32.519 0 015.423-.446c17.684 0 28.852 13.464 31.965 30.144M43.763 14.08v3.373M80.13 29.996l1.276 3.057m.638 3.162v21.184m0 0c3.54 4.928-3.662 19.724-6.783 16.337m6.783-16.337h-5.576m-1.207 16.337a55.767 55.767 0 001.207-16.337m-1.207 16.337c-2.404 10.706-8.037 21.004-17.25 28.576m18.457-44.913a52.422 52.422 0 00-.74-5.691m-31.965-25.19c.464 2.091.636 3.755.56 5.165m-3.856 7.694c2.238-2.619 3.682-4.512 3.856-7.695m0 0c15.996 1.648 21.506 8.294 31.405 20.026m-46.214 50.604c4.049 3.328 8.788 6.129 14.249 8.207 5.46-2.078 10.2-4.879 14.249-8.207m-28.498 0c1.9 8.527 1.88 11.482 0 13.688m28.498-13.688c-1.44 6.105-2.452 9.636 0 13.688M8.328 26.518c2.228-4.475 5.996-8.274 10.659-11.22 1.942-1.227 10.554-4.472 12.76-5.39M8.328 26.517S.004 26.12 2.45 17.032C4.895 7.944 17.104 2 25.233 2c6.14 0 6.514 7.907 6.514 7.907m33.63 94.223c6.724-2.776 9.207-7.617 11.803-14.124m0 0l-3.935 1.581m3.934-1.58l1.596 3.794M21.672 104.13c-6.724-2.776-9.526-7.617-12.122-14.124m0 0l4.253 1.581m-4.253-1.58L8.274 93.8" stroke="#2F7271" stroke-width="4"/></svg>