<svg width="97" height="119" fill="none" xmlns="http://www.w3.org/2000/svg"><path d="M12.12 73.688C5.3 70.913 4.243 57.1 6.223 56.792m5.897 16.896a56.62 56.62 0 01-.979-16.896m.979 16.896c2.32 11.023 7.989 21.665 17.375 29.449M6.223 56.792s-1.594-7.438 0-22.846a21.183 21.183 0 012.101-7.226m-2.1 30.072h4.917M78.59 26.72c-4.091-8.738-10.174-13.855-18.808-16.356-4.597-1.332-9.918-1.922-16.046-1.922-1.487 0-2.978.072-4.463.213m-28.13 48.137c1.605-17.06 11.152-31.888 27.173-34.618M11.141 56.792c4.171-6.378 7.582-6.632 14.077-7.757 6.494-1.125 13.097-7.226 13.097-7.226m.957-33.154c-5.739 4.357-4.251 11.158-.957 13.52m.957-13.52a48.698 48.698 0 00-11.264 2.434c-.947.327 4.631-1.5 3.719-1.117m6.588 12.202a32.217 32.217 0 015.42-.449c17.672 0 28.832 13.575 31.944 30.392M43.735 14.18v3.4m36.342 12.646l1.275 3.081m.638 3.188v21.36m0 0c3.538 4.968-3.66 19.885-6.779 16.47m6.779-16.47h-5.572m-1.207 16.47a56.71 56.71 0 001.206-16.47m-1.206 16.47a55.974 55.974 0 01-1.613 5.778m2.82-22.249a53.293 53.293 0 00-.74-5.738M43.736 26.72c.463 2.108.636 3.785.559 5.207m-3.853 7.757c2.237-2.64 3.68-4.549 3.853-7.757m0 0c15.986 1.66 21.491 8.361 31.385 20.19m-46.184 51.02c4.046 3.356 8.783 6.18 14.24 8.275 5.456-2.095 10.193-4.919 14.239-8.275m-28.479 0c1.9 8.598 1.88 11.577 0 13.801m28.479-13.801c-1.44 6.156-2.45 9.716 0 13.801m0-13.801c2.022-1.677 4.616-4.326 6.297-6.243M8.324 26.72c2.226-4.512 5.991-8.342 10.651-11.313 1.941-1.237 10.547-4.508 12.752-5.435M8.324 26.72s-8.318-.401-5.874-9.564C4.893 7.993 17.094 2 25.217 2c6.136 0 6.51 7.972 6.51 7.972m44.996 78.314a8.626 8.626 0 11-17.253 0 8.626 8.626 0 0117.253 0z" stroke="#2F7271" stroke-width="4"/><circle cx="91.687" cy="80.848" r="3.313" stroke="#2F7271" stroke-width="4"/><path d="M72.685 110.071a3.207 3.207 0 11-6.415 0 3.207 3.207 0 016.415 0zm-1.932-11.796c6.907 11.902 18.87 6.848 21.359 0 2.489-6.848-2.657-17.64-14.876-14.664" stroke="#2F7271" stroke-width="4"/><circle cx="87.755" cy="110.07" r="4.482" stroke="#2F7271" stroke-width="4"/></svg>