<svg width="84" height="119" fill="none" xmlns="http://www.w3.org/2000/svg"><path d="M11.96 74.15c-6.71-2.795-7.751-16.697-5.802-17.006m5.804 17.004a58.235 58.235 0 01-.964-17.004m.964 17.004c1.316 6.397 3.73 12.668 7.309 18.332M6.157 57.145s-1.569-7.487 0-22.994c.261-2.58.976-5.011 2.067-7.272M6.157 57.145h4.84m66.387-30.266c-4.027-8.794-10.014-13.944-18.513-16.461-4.524-1.34-9.761-1.934-15.793-1.934-1.463 0-2.931.072-4.393.213M10.997 57.145c1.58-17.17 10.978-32.093 26.747-34.841m-26.747 34.84c4.106-6.419 7.463-6.674 13.855-7.806 6.392-1.133 12.892-7.273 12.892-7.273m.941-33.368c-5.648 4.386-4.184 11.23-.941 13.607m.941-13.607a47.029 47.029 0 00-11.087 2.45c-.931.33 4.56-1.51 3.661-1.123m6.485 12.28a31.028 31.028 0 015.334-.452c17.394 0 28.378 13.662 31.441 30.587m-31.441-38.18v3.422m35.77 12.727l1.255 3.101m.628 3.209v21.496m0 0c3.482 5-3.602 20.013-6.672 16.577m6.672-16.577h-5.484m-1.188 16.577a58.333 58.333 0 001.187-16.577M74.06 74.791c-2.364 10.864-7.905 21.313-16.966 28.996m18.154-45.573a54.782 54.782 0 00-.728-5.775m-31.441-25.56c.456 2.122.626 3.81.55 5.24m-3.792 7.807c2.202-2.657 3.622-4.578 3.792-7.807m0 0c15.735 1.672 21.154 8.415 30.891 20.32m-45.456 65.238c1.849-2.239 4.092-5.425 2.223-14.077 3.982 3.377 6.421 6.407 11.792 8.515 5.37-2.108 10.033-4.951 14.015-8.328m0 0c-1.417 6.196-2.411 9.778 0 13.89M8.224 26.879c2.191-4.54 5.898-8.396 10.484-11.386 1.91-1.245 10.38-4.537 12.551-5.47M8.224 26.88s-8.187-.404-5.782-9.626C4.848 8.032 16.857 2 24.852 2c6.04 0 6.407 8.024 6.407 8.024M19.269 92.48c-1.002.467-2.115.883-3.358 1.28 7.022 2.92 10.178 6.325 12.655 13.903 2.486-8.935 5.027-11.71 11.296-13.262-7.38-3.172-9.77-7.189-11.61-14.651-2.072 7.353-4.368 10.582-8.982 12.73zm-5.66 8.766v6.844m0 4.024V119m64.01-20.126H84m-72.691 11.229H4.615m70.704-20.086v6.845m0 4.024v6.885m-2.301-8.897h-6.694" stroke="#2F7271" stroke-width="4"/></svg>