<svg width="103" height="103" viewBox="0 0 103 103" fill="none" xmlns="http://www.w3.org/2000/svg">
<circle cx="51.5" cy="51.5" r="51.5" fill="url(#paint0_linear_6_71)"/>
<path d="M47.416 57.336C47.416 55.672 47.784 54.296 48.52 53.208C49.288 52.12 50.392 50.92 51.832 49.608C52.888 48.648 53.656 47.848 54.136 47.208C54.648 46.536 54.904 45.784 54.904 44.952C54.904 43.768 54.424 42.84 53.464 42.168C52.536 41.464 51.288 41.112 49.72 41.112C48.216 41.112 46.872 41.432 45.688 42.072C44.536 42.68 43.56 43.544 42.76 44.664L36.952 41.256C38.296 39.208 40.104 37.624 42.376 36.504C44.68 35.384 47.4 34.824 50.536 34.824C54.216 34.824 57.16 35.608 59.368 37.176C61.608 38.744 62.728 40.92 62.728 43.704C62.728 45.016 62.504 46.168 62.056 47.16C61.64 48.152 61.112 49 60.472 49.704C59.864 50.376 59.064 51.16 58.072 52.056C56.888 53.112 56.024 54.008 55.48 54.744C54.936 55.448 54.664 56.312 54.664 57.336H47.416ZM51.064 69.384C49.752 69.384 48.648 68.968 47.752 68.136C46.888 67.272 46.456 66.232 46.456 65.016C46.456 63.8 46.888 62.792 47.752 61.992C48.616 61.16 49.72 60.744 51.064 60.744C52.408 60.744 53.512 61.16 54.376 61.992C55.24 62.792 55.672 63.8 55.672 65.016C55.672 66.232 55.224 67.272 54.328 68.136C53.464 68.968 52.376 69.384 51.064 69.384Z" fill="white"/>
<defs>
<linearGradient id="paint0_linear_6_71" x1="78" y1="92" x2="21.5" y2="6.82574e-06" gradientUnits="userSpaceOnUse">
<stop stop-color="#7028E4"/>
<stop offset="1" stop-color="#E5B2CA"/>
</linearGradient>
</defs>
</svg>
