<svg width="725" height="821" viewBox="0 0 725 821" fill="none" xmlns="http://www.w3.org/2000/svg">
<path fill-rule="evenodd" clip-rule="evenodd" d="M319.586 0.326628C420.115 6.24709 469.866 113.65 537.536 185.479C599.693 251.457 697.858 306.455 691.726 395.339C685.68 482.975 575.964 518.011 510.381 579.053C446.89 638.149 405.705 722.907 319.586 741.717C215.48 764.455 75.5022 772.727 16.8392 686.85C-42.171 600.464 72.002 498.195 82.974 395.339C91.7031 313.509 30.5556 229.392 73.239 158.135C124.465 72.6148 217.247 -5.70046 319.586 0.326628Z" fill="#796071"/>
<path fill-rule="evenodd" clip-rule="evenodd" d="M485.054 366.06C537.503 363.802 584.928 395.593 620.227 434.435C648.762 465.835 641.327 511.63 654.107 552.085C671.066 605.763 728.629 654.453 706.029 706.018C682.844 758.919 613.123 776.263 555.361 777.391C504.43 778.386 467.521 737.913 423.956 711.526C374.26 681.426 304.639 670.176 286.98 614.836C268.411 556.644 301.339 494.318 339.393 446.522C375.306 401.416 427.441 368.539 485.054 366.06Z" fill="#754A75"/>
</svg>
