<svg width="25" height="29" viewBox="0 0 25 29" fill="none" xmlns="http://www.w3.org/2000/svg">
<path d="M23.867 2C17.4856 10.2213 2.7258 -0.158103 2.20721 23.0415C2.21312 23.0423 2.21903 23.0431 2.22494 23.0439C17.8803 25.1193 25.09 20.7972 23.867 2Z" fill="url(#paint0_linear_9_609)"/>
<path d="M1.0916 28C0.476642 25.0623 3.03887 20.9804 6.35718 17.8656M14.5025 13.33C12.5698 13.4818 10.1462 14.7428 7.88763 16.5409M10.0666 11.8399C8.70026 13.0367 7.52799 15.8736 7.88763 16.5409M7.88763 16.5409C7.36598 16.9561 6.85313 17.4001 6.35718 17.8656M6.35718 17.8656C9.54461 18.3058 10.7934 18.0218 13.1015 17.5949M2.20721 23.0415C2.7258 -0.158103 17.4856 10.2213 23.867 2C25.0905 20.8043 17.8749 25.1225 2.20721 23.0415Z" stroke="#065330"/>
<defs>
<linearGradient id="paint0_linear_9_609" x1="12.5" y1="2" x2="12.5" y2="28" gradientUnits="userSpaceOnUse">
<stop stop-color="#00C56C"/>
<stop offset="1" stop-color="#164530"/>
</linearGradient>
</defs>
</svg>
