<svg width="122" height="143" fill="none" xmlns="http://www.w3.org/2000/svg"><path d="M20.2 13.054H3v10.329m17.2-10.33V3h29.86v10.054m-29.86 0h29.86m0 0h16.926v10.329m0 32.503c9.477.084 17.75 2.616 17.75 13.359 0 10.742-3.164 45.448 0 59.909 3.165 14.461 23.256 14.461 23.256 0V74.341M66.986 55.886V23.383m0 32.503v73.268m41.006-54.813h-7.844V58.502m7.844 15.839h7.293V58.502m-15.137 0h15.137m-15.137 0c-2.74-1.318-3.751-2.457-3.853-5.784V33.574h3.853m15.137 24.928c3.093-.796 3.594-2.341 3.715-5.784V33.574h-3.715m-15.137 0V23.383h15.137v10.192m-15.137 0h15.137M3 23.383h63.986M3 23.383v105.771m0 0v8.677h63.986v-8.677m-63.986 0h63.986m-18.44-92.136L16.487 74.34h13.897l-10.182 35.945 33.024-39.113H39.878l4.334-17.078 4.335-17.077z" stroke="#484848" stroke-width="6"/></svg>