<svg width="120" height="145" fill="none" xmlns="http://www.w3.org/2000/svg"><path d="M57.644 57.96C67.012 36.678 73.382 25.423 85.811 6c0 0 34.517 47.932 30.927 74.051-3.59 26.12-52.742 30.704-59.094 0m25.543 9.587c11.736 1.389 21.815-6.67 21.815-21.118m-48.876-4.585c-.952 3.503-1.278 5.377 0 7.92m-3.728 28.619s-22.361 25.473-14.084 35.289c7.012 8.316 20.74 8.316 27.753 0 8.41-9.973-13.67-35.289-13.67-35.289zM22.16 51.987S-1.174 80.05 3.66 95.056c4.172 12.955 29.852 12.732 34.656 0 5.66-15.005-16.155-43.07-16.155-43.07z" stroke="#484848" stroke-width="6"/></svg>