<svg width="131" height="131" viewBox="0 0 131 131" fill="none" xmlns="http://www.w3.org/2000/svg">
<circle cx="65.5" cy="65.5" r="63.5" stroke="white" stroke-width="4"/>
<path d="M106.762 66.6481C106.308 66.178 105.807 65.7564 105.266 65.3899C104.306 64.6346 103.066 64.3309 101.865 64.5568C100.964 64.8244 100.016 64.3107 99.7484 63.4092C99.4809 62.5076 99.9945 61.5599 100.896 61.2923C102.279 60.8987 103.753 60.9644 105.096 61.4794C105.69 61.711 106.26 62.0014 106.796 62.3465C106.321 56.0738 104.382 50.0001 101.134 44.6129C100.455 44.5612 99.7729 44.5612 99.0938 44.6129C97.3936 44.6129 96.0674 45.0549 95.8633 45.531C95.4925 46.3949 94.4915 46.7945 93.6275 46.4236C92.7636 46.0528 92.364 45.0517 92.7349 44.1878C93.5638 42.6538 95.0978 41.6289 96.8325 41.4504C97.4707 41.3076 98.1185 41.2109 98.7708 41.1614C95.4049 36.715 91.1632 33.0059 86.3079 30.2627C85.7299 30.5518 85.1178 30.8748 84.6077 31.2149C82.7884 32.303 81.2072 33.5952 80.9691 34.3603C80.7842 35.1444 80.0742 35.691 79.2689 35.6695H78.8778C77.9688 35.4511 77.4067 34.5395 77.6196 33.6292C78.2453 31.9498 79.4117 30.5263 80.9351 29.5826C81.5132 29.1576 82.0913 28.7835 82.6354 28.4435C77.5493 26.2085 72.0556 25.0506 66.5 25.043H65.2928C65.2378 25.1278 65.1751 25.2075 65.1058 25.281C64.624 25.7456 64.1911 26.2584 63.8136 26.8112C63.0359 27.8108 62.5956 29.0311 62.5554 30.2967C62.5554 31.2357 61.7941 31.997 60.8552 31.997C59.9162 31.997 59.1549 31.2357 59.1549 30.2967C59.1305 29.2868 59.3039 28.2817 59.665 27.3383C59.9185 26.679 60.2375 26.0468 60.6171 25.451C54.8866 26.2935 49.4059 28.364 44.5497 31.5209C44.5497 31.5209 44.5497 31.5209 44.5497 31.6399C44.4377 32.326 44.3753 33.0193 44.3627 33.7143C44.1712 35.0135 44.4292 36.3392 45.0938 37.4718C45.7982 38.1432 45.8247 39.2584 45.1533 39.9627C44.482 40.667 43.3668 40.6936 42.6625 40.0222C41.7001 39.0165 41.1016 37.7177 40.9622 36.3326C40.9033 35.6141 40.9033 34.8919 40.9622 34.1733C37.1439 37.2973 33.9236 41.0878 31.4578 45.361C31.5271 45.5346 31.5673 45.7185 31.5768 45.9051C31.621 46.6396 31.7349 47.3683 31.9169 48.0814C32.2216 49.6029 33.0599 50.9657 34.2802 51.924C35.0878 52.4264 35.3352 53.4882 34.8328 54.2958C34.3304 55.1034 33.2686 55.3508 32.461 54.8484C31.4799 54.2002 30.6506 53.3475 30.0296 52.349C29.633 51.6766 29.3081 50.9642 29.0605 50.2237C27.0516 55.076 26.0119 60.2743 26 65.526V66.8012C26.072 66.8464 26.1405 66.8976 26.204 66.9542C26.6886 67.4277 27.2119 67.86 27.7683 68.2464C28.964 69.1524 30.3892 69.706 31.8829 69.8446C32.8218 69.8446 33.5831 70.6059 33.5831 71.5449C33.5831 72.4838 32.8218 73.2451 31.8829 73.2451C30.7071 73.1701 29.555 72.8819 28.4824 72.395C27.8276 72.1113 27.1966 71.7759 26.5951 71.3918C27.3982 76.873 29.3259 82.1291 32.2569 86.8301C32.3813 86.815 32.5067 86.815 32.631 86.8301C33.2877 87.0643 33.965 87.235 34.6543 87.3402C35.7495 87.6016 36.901 87.4815 37.9188 87.0002C38.6807 86.4512 39.7433 86.624 40.2921 87.3859C40.8411 88.1478 40.6683 89.2105 39.9064 89.7592C39.8577 89.7943 39.8071 89.8268 39.755 89.8566C38.9989 90.3222 38.153 90.6236 37.2727 90.7407C36.823 90.8151 36.3683 90.8548 35.9125 90.8597H35.1474C38.4711 94.9822 42.5656 98.4182 47.2021 100.976C47.3103 100.919 47.4242 100.873 47.5422 100.84C48.1949 100.709 48.8289 100.498 49.4295 100.211C50.4977 99.7997 51.3635 98.9886 51.8438 97.9498C52.1382 97.058 53.0995 96.5738 53.9912 96.868C54.883 97.1623 55.3672 98.1236 55.073 99.0154C55.063 99.0458 55.052 99.076 55.0403 99.1059C54.6507 100.157 54.0014 101.093 53.153 101.826C52.6325 102.276 52.0621 102.664 51.4528 102.983C56.2417 104.935 61.3623 105.945 66.534 105.958V105.839C67.0101 105.329 67.4691 104.768 67.8942 104.139C68.7639 103.164 69.3928 102 69.7305 100.738C69.4336 99.8655 69.8861 98.9155 70.7506 98.5959C71.6318 98.2715 72.6092 98.7227 72.9335 99.6041C72.9372 99.6137 72.9406 99.6235 72.944 99.633C73.2713 101.023 73.013 102.486 72.2299 103.68C71.8815 104.329 71.4896 104.954 71.0567 105.55C76.8577 104.914 82.4505 103.022 87.4471 100.007C87.4964 99.3221 87.4964 98.6346 87.4471 97.9498C87.5075 97.0676 87.3251 96.1855 86.92 95.3994C86.1018 94.9505 85.7983 93.9261 86.2399 93.1041C86.6875 92.2786 87.7196 91.9723 88.545 92.4201C88.5474 92.4214 88.5497 92.4227 88.5523 92.424C89.6795 93.1589 90.4257 94.3531 90.5926 95.6884C90.7292 96.3947 90.8032 97.1115 90.8136 97.8308C95.0923 94.5982 98.6917 90.5537 101.406 85.929C101.158 85.2848 100.862 84.6598 100.522 84.0587C99.7909 82.7495 98.9578 81.7294 98.4987 81.6784C97.5598 81.561 96.8937 80.7045 97.011 79.7656C97.1283 78.8266 97.9848 78.1605 98.9238 78.2779C100.301 78.5361 101.521 79.3235 102.324 80.4712C102.742 81.008 103.117 81.5763 103.446 82.1714C105.626 77.354 106.833 72.154 107 66.8692C106.913 66.8039 106.833 66.73 106.762 66.6481ZM66.466 93.7672C50.8687 93.7578 38.2325 81.1062 38.2418 65.509C38.2512 49.9117 50.9027 37.2754 66.5 37.2848C82.0905 37.2941 94.7242 49.9355 94.7242 65.526C94.7148 81.126 82.066 93.7672 66.466 93.7672Z" fill="white"/>
</svg>
