<svg width="131" height="131" viewBox="0 0 131 131" fill="none" xmlns="http://www.w3.org/2000/svg">
<circle cx="65.5" cy="65.5" r="63.5" stroke="white" stroke-width="4"/>
<path d="M78.8907 36.6453H73.338V32.8428H58.8381V36.6453H53.5715C50.1443 36.6453 47.3572 39.204 47.3572 42.3491V93.049C47.3572 96.1935 50.1451 98.7526 53.5715 98.7526H78.8907C82.3189 98.7526 85.1054 96.1935 85.1054 93.049V42.349C85.1054 39.204 82.3189 36.6453 78.8907 36.6453ZM80.9631 93.0495C80.9631 94.0973 80.0334 94.9502 78.8907 94.9502H53.5715C52.4287 94.9502 51.4992 94.0988 51.4992 93.0495V42.349C51.4992 41.3011 52.4287 40.4476 53.5715 40.4476H78.8907C80.0334 40.4476 80.9631 41.301 80.9631 42.349V93.0495ZM78.7039 92.7H53.7585V84.3578H78.7033V92.7H78.7039ZM78.7039 82.303H53.7585V73.9612H78.7033V82.303H78.7039ZM78.7039 71.9057H53.7585V63.5634H78.7033V71.9057H78.7039ZM78.7039 61.532H53.7585V53.1899H78.7033V61.532H78.7039ZM78.7039 51.1345H53.7585V42.7919H78.7033V51.1345H78.7039Z" fill="white"/>
</svg>
