<svg width="101" height="102" viewBox="0 0 101 102" fill="none" xmlns="http://www.w3.org/2000/svg">
<g clip-path="url(#clip0)">
<path d="M22.654 71.8047C20.808 71.8047 19.2977 73.335 19.2977 75.2054C19.2977 77.0759 20.808 78.6062 22.654 78.6062C24.4999 78.6062 26.0102 77.0759 26.0102 75.2054C26.0102 73.335 24.4999 71.8047 22.654 71.8047Z" fill="white"/>
<path d="M79.8766 71.8047C78.0307 71.8047 76.5204 73.335 76.5204 75.2054C76.5204 77.0759 78.0307 78.6062 79.8766 78.6062C81.7226 78.6062 83.2328 77.0759 83.2328 75.2054C83.2328 73.335 81.7226 71.8047 79.8766 71.8047Z" fill="white"/>
<path d="M74.8423 59.9023H71.4861C70.4793 59.9023 69.8081 60.5824 69.8081 61.6026C69.8081 62.6228 70.4793 63.3029 71.4861 63.3029H74.8423C75.8492 63.3029 76.5204 62.6228 76.5204 61.6026C76.5204 60.5824 75.8492 59.9023 74.8423 59.9023Z" fill="white"/>
<path d="M97.8321 56.3314L91.2876 53.6109L87.0923 36.6074C86.5889 34.2269 84.5752 32.6966 82.2258 32.6966H73.4106C75.6128 25.8357 76.4523 19.8839 76.5204 19.264C76.5204 18.7539 76.3526 18.4138 76.1847 17.9037C75.849 17.5635 75.3456 17.3936 74.8422 17.3936H14.2637C13.4246 17.3936 12.7534 17.9037 12.7534 18.7539L11.7869 24.195H5.7055C4.69865 24.195 4.02748 24.8751 4.02748 25.8953C4.02748 26.9155 4.69865 27.5956 5.7055 27.5956H11.1828L10.5787 30.9963H4.53071C3.52386 30.9963 2.85269 31.6764 2.85269 32.6966C2.85269 33.7168 3.52386 34.3969 4.53071 34.3969H9.97438L9.37027 37.7976H3.35612C2.34927 37.7976 1.6781 38.4777 1.6781 39.4979C1.6781 40.5181 2.34927 41.1981 3.35612 41.1981H8.76616L8.16205 44.5989H2.01359C1.00674 44.5989 0.335571 45.2789 0.335571 46.2991C0.335571 47.3193 1.00674 47.9994 2.01359 47.9994H7.55794L6.71215 52.7603C6.67498 52.8735 6.65669 52.9865 6.6506 53.0978L2.68495 74.865C2.51721 75.3751 2.51721 75.7152 2.85269 76.2253C3.18837 76.7354 3.6918 76.9054 4.19522 76.9054H12.7292C13.5345 81.7143 17.6882 85.4072 22.6542 85.4072C27.6202 85.4072 31.7738 81.7143 32.5791 76.9054H69.9517C70.757 81.7143 74.9106 85.4072 79.8766 85.4072C84.8426 85.4072 88.9963 81.7143 89.8015 76.9054H96.6573C98.5033 76.9054 100.014 75.3751 100.014 73.5047V59.562C100.014 58.0317 99.1745 56.8415 97.8321 56.3314ZM29.5342 44.5991H11.5973L12.194 41.1983H30.8765C31.7156 41.1983 32.5545 40.5183 32.5545 39.4981C32.5545 38.4779 31.8834 37.7978 30.8765 37.7978H12.7906L13.3872 34.3971H32.0513C33.0581 34.3971 33.7293 33.717 33.7293 32.6968C33.7293 31.6766 33.0581 30.9965 32.0513 30.9965H13.9839L14.5805 27.5958H33.2259C34.2327 27.5958 34.9039 26.9157 34.9039 25.8955C34.9039 24.8753 34.2327 24.1952 33.2259 24.1952H15.1773L15.774 20.7945H72.8287C72.3359 23.7196 71.1333 29.578 68.9126 35.3935C66.164 42.4995 61.5846 50.247 54.6167 51.283C54.5713 51.2896 54.5257 51.2959 54.48 51.3021C54.3831 51.3153 54.2861 51.3282 54.1884 51.3386C54.0346 51.3547 53.8797 51.3677 53.7235 51.3772C53.6714 51.3806 53.6189 51.383 53.5664 51.3856C53.3878 51.3942 53.2087 51.4006 53.0272 51.4006H10.4041L11.0007 47.9998H29.7019C30.541 47.9998 31.2122 47.3197 31.2122 46.2995C31.2122 45.2793 30.541 44.5991 29.5342 44.5991ZM22.654 82.0064C18.9623 82.0064 15.9417 78.9458 15.9417 75.2051C15.9417 71.4645 18.9623 68.4038 22.654 68.4038C26.3457 68.4038 29.3662 71.4645 29.3662 75.2051C29.3662 78.9458 26.3459 82.0064 22.654 82.0064ZM79.8766 82.0064C76.1849 82.0064 73.1643 78.9458 73.1643 75.2051C73.1643 71.4645 76.1849 68.4038 79.8766 68.4038C83.5683 68.4038 86.5889 71.4645 86.5889 75.2051C86.5889 78.9458 83.5683 82.0064 79.8766 82.0064ZM96.6573 73.5047H89.8015C88.9963 68.6958 84.8426 65.0029 79.8766 65.0029C79.8501 65.0029 79.8239 65.0047 79.7974 65.0049C79.7677 65.0047 79.7386 65.0029 79.7089 65.0029C74.6746 65.0029 70.6472 68.7436 69.8081 73.5047H32.5789C32.0124 70.1211 29.7879 67.2922 26.7884 65.9115C26.7219 65.8808 26.656 65.8492 26.5888 65.8197C26.5465 65.8013 26.5036 65.7846 26.4609 65.7669C26.3524 65.7212 26.2432 65.6768 26.1327 65.6352C26.1026 65.6238 26.0722 65.6134 26.0419 65.6023C25.919 65.5572 25.7953 65.5144 25.6702 65.4742C25.6431 65.4654 25.6159 65.4572 25.5886 65.4488C25.4612 65.4092 25.3326 65.3717 25.2028 65.3373C25.1741 65.3297 25.1453 65.3221 25.1164 65.3148C24.989 65.2821 24.8606 65.2518 24.7312 65.2241C24.6986 65.2171 24.6659 65.2099 24.6333 65.2034C24.5084 65.1779 24.3823 65.1551 24.2555 65.1346C24.2179 65.1284 24.1804 65.1219 24.1426 65.1161C24.0205 65.0976 23.8972 65.0822 23.7735 65.0683C23.7316 65.0635 23.6899 65.0579 23.6479 65.0535C23.5242 65.0412 23.3995 65.0322 23.2744 65.0244C23.2331 65.0218 23.1924 65.0179 23.1509 65.0159C22.9863 65.0077 22.8205 65.0029 22.6536 65.0029C22.4866 65.0029 22.3209 65.0077 22.1563 65.0159C22.115 65.0179 22.0741 65.0218 22.0328 65.0244C21.9077 65.0322 21.783 65.0412 21.6593 65.0535C21.6172 65.0577 21.5756 65.0635 21.5337 65.0683C21.41 65.0822 21.2867 65.0978 21.1646 65.1161C21.1268 65.1219 21.0894 65.1284 21.0517 65.1346C20.9248 65.1553 20.799 65.1781 20.6739 65.2034C20.6411 65.2101 20.6086 65.2171 20.576 65.2241C20.4466 65.2518 20.3182 65.2821 20.1907 65.3148C20.162 65.3221 20.1331 65.3295 20.1044 65.3373C19.9746 65.3719 19.846 65.4092 19.7186 65.4491C19.6914 65.4574 19.6643 65.4656 19.6372 65.4744C19.5119 65.5146 19.388 65.5576 19.2651 65.6027C19.235 65.6136 19.2045 65.624 19.1747 65.6354C19.0639 65.6772 18.9546 65.7216 18.8459 65.7673C18.8036 65.785 18.7607 65.8015 18.7186 65.8199C18.6512 65.8494 18.5849 65.881 18.5182 65.9121C15.5193 67.293 13.295 70.1217 12.7287 73.5049H6.20892L9.73289 54.8011H53.0274C53.2647 54.8011 53.4991 54.7941 53.732 54.783C53.7479 54.7822 53.7636 54.7818 53.7796 54.781C63.098 54.3063 68.8414 45.0488 72.2253 36.0975H82.226C83.0651 36.0975 83.7363 36.7776 83.904 37.4579L87.7269 53.101H80.38C79.2054 53.101 78.1986 52.0808 78.1986 50.8907V42.899C78.1986 41.8788 77.5274 41.1987 76.5206 41.1987C75.5137 41.1987 74.8426 41.8788 74.8426 42.899V50.8907C74.8426 53.9513 77.3597 56.5018 80.3802 56.5018H89.2741L96.6577 59.3924V73.5047H96.6573Z" fill="white"/>
</g>
<defs>
<clipPath id="clip0">
<rect width="99.678" height="101" fill="white" transform="translate(0.335571 0.900391)"/>
</clipPath>
</defs>
</svg>
