<svg width="131" height="131" viewBox="0 0 131 131" fill="none" xmlns="http://www.w3.org/2000/svg">
<circle cx="65.5" cy="65.5" r="63.5" stroke="white" stroke-width="4"/>
<path d="M107.58 63.5535L104.713 60.6868C104.445 60.418 104.08 60.2668 103.7 60.2668H99.4C98.6084 60.2668 97.9667 60.9086 97.9667 61.7002V68.8668H95.1V58.8335C95.1 58.0419 94.4582 57.4002 93.6667 57.4002H84.4002L79.0968 49.438C78.8301 49.0381 78.3807 48.7987 77.9 48.8002H69.3V45.9335H79.3333C80.1249 45.9335 80.7667 45.2917 80.7667 44.5002V38.7668C80.7667 37.9753 80.1249 37.3335 79.3333 37.3335H50.6667C49.8751 37.3335 49.2333 37.9753 49.2333 38.7668V44.5002C49.2333 45.2917 49.8751 45.9335 50.6667 45.9335H60.7V48.8002H52.1C51.6209 48.8002 51.1733 49.0394 50.9075 49.438L45.5998 57.4002H37.7667C36.9751 57.4002 36.3333 58.0419 36.3333 58.8335V67.4335H33.4667V58.8335C33.4667 58.0419 32.8249 57.4002 32.0333 57.4002H26.3C25.8209 57.4002 25.3733 57.6394 25.1075 58.038L22.2408 62.338C22.0842 62.5738 22.0005 62.8504 22 63.1335V67.4335C22.0005 67.7166 22.0842 67.9932 22.2408 68.229L24.8667 72.1635V84.6335C24.8667 85.4251 25.5084 86.0668 26.3 86.0668H32.0333C32.8249 86.0668 33.4667 85.4251 33.4667 84.6335V76.0335H36.3333V84.6335C36.3333 85.4251 36.9751 86.0668 37.7667 86.0668H45.5998L50.9032 94.029C51.1699 94.4289 51.6193 94.6683 52.1 94.6668H93.6667C94.4582 94.6668 95.1 94.0251 95.1 93.2335V80.3335H97.9667V90.3668C97.9667 91.1584 98.6084 91.8002 99.4 91.8002H103.7C104.08 91.8002 104.445 91.6489 104.713 91.3802L107.58 88.5135C107.849 88.2448 108 87.8804 108 87.5002V64.5668C108 64.1866 107.849 63.8222 107.58 63.5535ZM30.6 68.8668V83.2002H27.7333V71.7335C27.7328 71.4504 27.6491 71.1738 27.4925 70.938L24.8667 67.0035V63.5635L27.0668 60.2668H30.6V68.8668ZM36.3333 73.1668H33.4667V70.3002H36.3333V73.1668ZM52.1 43.0668V40.2002H77.9V43.0668H52.1ZM66.4333 45.9335V48.8002H63.5667V45.9335H66.4333ZM86.5 91.8002H52.8668L47.5635 83.838C47.2967 83.4381 46.8474 83.1987 46.3667 83.2002H39.2V60.2668H46.3667C46.8458 60.2668 47.2933 60.0276 47.5592 59.629L52.8668 51.6668H77.1332L82.4365 59.629C82.7033 60.0289 83.1526 60.2683 83.6333 60.2668H86.5V91.8002ZM92.2333 70.3002V91.8002H89.3667V60.2668H92.2333V70.3002ZM97.9667 77.4668H95.1V71.7335H97.9667V77.4668ZM105.133 86.9068L103.107 88.9335H100.833V63.1335H103.107L105.133 65.1602V86.9068Z" fill="white"/>
<path d="M77.5232 69.3313C77.2516 69.0352 76.8684 68.8668 76.4667 68.8668H69.654L72.1323 57.7111C72.3039 56.9384 71.8167 56.1728 71.044 56.001C70.5871 55.8994 70.1095 56.0273 69.7644 56.3437L52.5644 72.1104C51.981 72.6454 51.9418 73.5522 52.4768 74.1355C52.7484 74.4317 53.1316 74.6001 53.5333 74.6001H60.346L57.8677 85.7557C57.6961 86.5285 58.1832 87.2941 58.956 87.4659C59.4129 87.5675 59.8905 87.4395 60.2356 87.1231L77.4356 71.3565C78.019 70.8215 78.0582 69.9147 77.5232 69.3313ZM61.6532 81.9345L63.5323 73.4778C63.7041 72.7051 63.2169 71.9393 62.4442 71.7677C62.3421 71.7449 62.238 71.7334 62.1333 71.7334H57.2184L68.3468 61.5324L66.4677 69.9891C66.2959 70.7618 66.7831 71.5276 67.5558 71.6992C67.6579 71.722 67.762 71.7333 67.8667 71.7334H72.7816L61.6532 81.9345Z" fill="white"/>
<path d="M44.9333 68.8667H42.0667V80.3334H44.9333V68.8667Z" fill="white"/>
<path d="M44.9333 63.1333H42.0667V66H44.9333V63.1333Z" fill="white"/>
</svg>
