<svg width="95" height="95" viewBox="0 0 95 95" fill="none" xmlns="http://www.w3.org/2000/svg">
<g clip-path="url(#clip0)">
<path d="M72.6884 70.9561H68.1492V69.6254C68.1492 69.0723 67.6869 68.6234 67.1175 68.6234C66.5477 68.6234 66.0859 69.0723 66.0859 69.6254V70.9561H48.3417V69.6254C48.3417 69.0723 47.8798 68.6234 47.31 68.6234C46.7402 68.6234 46.2784 69.0723 46.2784 69.6254V70.9561H28.5342V69.6254C28.5342 69.0723 28.0723 68.6234 27.5025 68.6234C26.9327 68.6234 26.4709 69.0723 26.4709 69.6254V70.9561H21.9317C21.3618 70.9561 20.9 71.405 20.9 71.958C20.9 72.5115 21.3618 72.96 21.9317 72.96H72.6884C73.2578 72.96 73.72 72.5115 73.72 71.958C73.72 71.405 73.2582 70.9561 72.6884 70.9561Z" fill="white"/>
<path d="M25.027 65.5455C25.027 66.099 25.4888 66.5475 26.0586 66.5475H36.3879V67.8782C36.3879 68.4316 36.8497 68.8802 37.4196 68.8802C37.989 68.8802 38.4512 68.4316 38.4512 67.8782V66.5475H56.195V67.8782C56.195 68.4316 56.6572 68.8802 57.2267 68.8802C57.7965 68.8802 58.2583 68.4316 58.2583 67.8782V66.5475H72.6884C73.2578 66.5475 73.72 66.099 73.72 65.5455C73.72 64.9925 73.2578 64.5436 72.6884 64.5436H26.0586C25.4888 64.5436 25.027 64.9921 25.027 65.5455Z" fill="white"/>
<path d="M21.9317 66.5475C22.2029 66.5475 22.4692 66.4402 22.6611 66.2539C22.8529 66.0676 22.9633 65.8089 22.9633 65.5455C22.9633 65.2821 22.8529 65.0234 22.6611 64.8371C22.4692 64.6508 22.2029 64.5436 21.9317 64.5436C21.6605 64.5436 21.3941 64.6508 21.2023 64.8371C21.0104 65.0238 20.9 65.2821 20.9 65.5455C20.9 65.8089 21.0104 66.0676 21.2023 66.2539C21.3941 66.4402 21.6605 66.5475 21.9317 66.5475Z" fill="white"/>
<path d="M23.7823 45.1746C26.1627 46.3664 30.4569 47.9261 36.6185 47.9261C39.4241 47.9261 42.617 47.6028 46.1918 46.7738C46.399 46.7261 46.6029 46.6767 46.8068 46.627C46.9861 46.5836 47.1501 46.494 47.2819 46.3675L51.103 42.6955L51.8638 44.1672C52.1044 44.6329 52.6726 44.8415 53.1703 44.6474C56.6037 43.3077 59.45 41.6893 61.6302 39.8372C61.8514 39.6494 61.9796 39.3789 61.9824 39.0936L62.0058 36.9594L62.4897 37.4294C62.7029 37.6361 62.9987 37.7425 63.2977 37.7198C63.5979 37.6975 63.8732 37.5492 64.0513 37.3136C66.2496 34.4032 66.5901 31.3386 65.0745 28.8338C65.5641 28.4682 66.0497 28.0968 66.5301 27.7187L71.9671 23.4404C72.4096 23.0921 72.4781 22.4612 72.1191 22.0314C71.7608 21.6013 71.1108 21.5352 70.6683 21.8835L65.2312 26.1618C64.7577 26.5344 64.2798 26.8999 63.7986 27.2596C61.7857 25.2745 59.6072 24.2162 57.1478 24.0283C54.0484 23.7911 50.5207 24.9148 46.3599 27.4619C45.6555 27.8936 45.267 28.1226 44.5618 28.5387L44.0431 28.8443C43.7477 29.0189 43.562 29.3253 43.5483 29.6604C43.5342 29.9958 43.6941 30.3156 43.9742 30.5124L44.438 30.8384L41.8577 30.4208C41.6163 30.3821 41.3685 30.4275 41.1582 30.5496C35.1122 34.0635 27.6082 38.2451 23.6735 40.4251C22.7873 40.9159 22.2501 41.8361 22.2719 42.8263C22.2932 43.8192 22.8723 44.719 23.7823 45.1746ZM63.0491 35.1386L61.7293 33.8568C61.4355 33.5715 60.9947 33.4854 60.6102 33.6377C60.2258 33.7899 59.9727 34.1515 59.9683 34.5547L59.9243 38.6169C58.156 40.0466 55.9247 41.3276 53.2767 42.4341L52.3095 40.5633C52.1612 40.2764 51.8808 40.076 51.5548 40.0239C51.2283 39.9715 50.8967 40.0748 50.6621 40.3003L46.0319 44.7492C45.9263 44.7746 45.8203 44.8 45.7131 44.8247C42.2982 45.6161 39.2645 45.9237 36.6093 45.9237C30.8825 45.9237 26.9207 44.4916 24.7277 43.3934C24.7269 43.393 24.7261 43.3926 24.7252 43.3922C24.7514 43.3942 24.7776 43.3957 24.8042 43.3957C24.8244 43.3957 24.8445 43.3953 24.8651 43.3942C32.4472 42.9652 39.8823 41.3965 46.9644 38.732C52.8213 36.5284 58.3366 33.6122 63.4077 30.0428C64.2331 31.557 64.113 33.3073 63.0491 35.1386ZM41.892 32.4584L48.4324 33.5163C48.9059 33.5926 49.3694 33.3433 49.5539 32.9144C49.7385 32.485 49.595 31.9891 49.207 31.7163L46.4417 29.7731C46.7548 29.5868 47.0562 29.4048 47.4604 29.1574C51.2312 26.8486 54.347 25.8232 56.9858 26.0259C58.8758 26.1708 60.5216 26.9524 62.1262 28.4717C51.5874 35.8838 39.2948 40.2854 26.2723 41.2912C30.3485 39.0263 36.6266 35.5128 41.892 32.4584Z" fill="white"/>
<path d="M33.665 59.1667C34.2344 59.1667 34.6966 58.7178 34.6966 58.1647C34.6966 57.6113 34.2344 57.1628 33.665 57.1628H33.6525C33.0827 57.1628 32.6208 57.6113 32.6208 58.1647C32.6208 58.7178 33.0827 59.1667 33.6525 59.1667H33.665Z" fill="white"/>
<path d="M29.1226 57.9334C29.2902 58.0324 29.4752 58.0794 29.6581 58.0794C30.0063 58.0794 30.346 57.9084 30.5403 57.5984C30.8365 57.1256 30.6821 56.5092 30.1953 56.2215C28.1864 55.034 26.9867 52.9612 26.9867 50.6767C26.9867 50.1237 26.5249 49.6747 25.9551 49.6747C25.3853 49.6747 24.9235 50.1237 24.9235 50.6767C24.9235 53.6661 26.4935 56.3788 29.1226 57.9334Z" fill="white"/>
<path d="M68.1491 45.9495C68.1491 45.3965 67.6869 44.9476 67.1175 44.9476C66.5477 44.9476 66.0859 45.3965 66.0859 45.9495C66.0859 47.8282 64.5122 49.3562 62.5783 49.3562C62.0085 49.3562 61.5466 49.8051 61.5466 50.3581C61.5466 50.9115 62.0085 51.3601 62.5783 51.3601C65.6502 51.3601 68.1491 48.9331 68.1491 45.9495Z" fill="white"/>
</g>
<circle cx="47.5" cy="47.5" r="46.5" stroke="white" stroke-width="2"/>
<defs>
<clipPath id="clip0">
<rect width="52.82" height="51.3" fill="white" transform="translate(20.9 21.66)"/>
</clipPath>
</defs>
</svg>
