<svg width="40" height="40" fill="none" xmlns="http://www.w3.org/2000/svg"><path fill-rule="evenodd" clip-rule="evenodd" d="M20 40c11.046 0 20-8.954 20-20S31.046 0 20 0 0 8.954 0 20s8.954 20 20 20z" fill="red"/><path fill-rule="evenodd" clip-rule="evenodd" d="M20 12.8c-2.898 0-6.66.73-6.66.73l-.009.01A2.77 2.77 0 0011 16.277v7.445a2.778 2.778 0 002.338 2.743l.003.004s3.761.731 6.659.731c2.898 0 6.66-.73 6.66-.73A2.78 2.78 0 0029 23.722v-7.446a2.778 2.778 0 00-2.338-2.744C26.66 13.53 22.898 12.8 20 12.8zm-1.8 4.05L23.6 20l-5.4 3.15v-6.3z" fill="#fff"/></svg>