<svg width="69" height="69" fill="none" xmlns="http://www.w3.org/2000/svg"><path d="M61.777 51.303a2.695 2.695 0 00-3.77.553 29.39 29.39 0 01-1.555 1.916 2.695 2.695 0 004.038 3.57 34.741 34.741 0 001.841-2.268 2.695 2.695 0 00-.554-3.771zm4.508-12.641a2.696 2.696 0 00-3.207 2.06 29.03 29.03 0 01-.626 2.383 2.695 2.695 0 105.15 1.592 33.97 33.97 0 00.743-2.828 2.696 2.696 0 00-2.06-3.207zM48.804 59.935c-.716.4-1.457.773-2.202 1.11a2.695 2.695 0 102.218 4.912 34.67 34.67 0 002.612-1.316 2.695 2.695 0 10-2.628-4.706zM31.805 12.938v20.446l-9.884 9.883a2.696 2.696 0 003.812 3.812l10.673-10.673c.505-.505.79-1.191.79-1.906V12.937a2.695 2.695 0 10-5.391 0z" fill="#fff"/><path d="M66.305 5.795a2.695 2.695 0 00-2.696 2.695v7.485C57.336 6.135 46.38 0 34.5 0c-9.215 0-17.879 3.589-24.395 10.105C3.589 16.62 0 25.285 0 34.5s3.589 17.879 10.105 24.395C16.62 65.411 25.285 69 34.5 69c.023 0 .045-.003.067-.003.023 0 .045.003.068.003.971 0 1.952-.041 2.916-.122a2.695 2.695 0 10-.45-5.371c-.815.068-1.644.102-2.466.102-.023 0-.045.003-.068.004-.022 0-.044-.004-.067-.004-16.051 0-29.11-13.058-29.11-29.109 0-16.051 13.06-29.11 29.11-29.11 10.344 0 19.859 5.514 25.058 14.286h-7.411a2.695 2.695 0 100 5.39h8.228a8.573 8.573 0 004.727-1.415A8.623 8.623 0 0069 16.44V8.49a2.695 2.695 0 00-2.695-2.696z" fill="#fff"/></svg>