<svg width="131" height="131" fill="none" xmlns="http://www.w3.org/2000/svg"><circle cx="65.5" cy="65.5" r="65.5" fill="url(#paint0_linear)"/><path d="M65.374 50.638V27m0 0l-7.497 8.547M65.374 27l8.057 8.547m-8.057 46.738v23.484m0 0l7.672-8.316m-7.672 8.316l-7.805-8.316M26 66.451h23.561m-23.561 0l8.778-7.189M26 66.451l8.778 7.44m46.584-7.44H105m0 0l-8.085-7.189M105 66.451l-8.085 7.44M56.337 57.415h18.074v18.074H56.383l-.023-9.037-.023-9.037z" stroke="#fff" stroke-width="2" stroke-linecap="round"/><path d="M85.608 46.122a1 1 0 00-1.049-.948l-8.989.452a1 1 0 00.1 1.997l7.99-.402.402 7.99a1 1 0 101.998-.1l-.452-8.989zm-8.74 10.103l8.483-9.382-1.483-1.341-8.484 9.381 1.483 1.342zM45.01 45.172a1 1 0 00-.991 1.009l.072 9a1 1 0 102-.017l-.065-8 8-.064a1 1 0 10-.016-2l-9 .072zm10.412 9.836L45.72 45.46l-1.403 1.425 9.702 9.548 1.403-1.425zm-11.403 31.94a1 1 0 00.995 1.004l9 .042a1 1 0 00.009-2l-8-.037.037-8a1 1 0 10-2-.01l-.041 9zm9.28-9.609l-8.984 8.903 1.407 1.42 8.985-8.902-1.407-1.42zm32.809 10.699a1 1 0 00.993-1.007l-.065-9a1 1 0 10-2 .015l.058 8-8 .058a1 1 0 00.014 2l9-.066zm-9.717-9.166l9.008 8.879 1.404-1.425-9.008-8.878-1.404 1.424z" fill="#fff"/><defs><linearGradient id="paint0_linear" x1="65.5" y1="0" x2="65.5" y2="131" gradientUnits="userSpaceOnUse"><stop stop-color="#6F81AB"/><stop offset="1" stop-color="#001F66"/></linearGradient></defs></svg>