<svg width="131" height="131" fill="none" xmlns="http://www.w3.org/2000/svg"><circle cx="65.5" cy="65.5" r="65.5" fill="url(#paint0_linear)"/><circle cx="65" cy="66" r="39" stroke="#fff" stroke-width="2"/><path d="M96.727 66.077c0 17.566-14.24 31.805-31.804 31.805-17.566 0-31.805-14.24-31.805-31.805 0-17.565 14.24-31.804 31.805-31.804 17.565 0 31.804 14.24 31.804 31.804z" stroke="#fff" stroke-width="2"/><circle cx="64.845" cy="66.155" r="2.791" stroke="#fff" stroke-width="2"/><path d="M61.209 66.31h-12.68m-3.645 0h-7.04M65 62.364v-8.129m0-15.469v7.195m10.445.64l3.095-3.966m5.957 11.914l3.636-2.011M85.117 66.31h6.886m-7.505 10.909l3.636 2.243m-11.76 5.958l2.167 3.713M65 86.349v7.118M53.936 85.42l-2.708 3.713M45.735 77.22l-4.333 2.243m4.333-24.371l-3.868-2.553m12.07-5.937l-2.709-3.966" stroke="#fff" stroke-width="2" stroke-linecap="round"/><defs><linearGradient id="paint0_linear" x1="65.5" y1="0" x2="65.5" y2="131" gradientUnits="userSpaceOnUse"><stop stop-color="#6F81AB"/><stop offset="1" stop-color="#001F66"/></linearGradient></defs></svg>