<svg viewBox="0 0 34 42" fill="none">
<path d="M25.0022 20.2964C25.6556 20.2964 26.2053 20.834 26.2806 21.5467L26.3774 22.463C26.8896 22.632 27.3836 22.8572 27.8529 23.1346L28.5116 22.5616C29.0237 22.116 29.7587 22.1626 30.2208 22.67L31.5214 24.098C31.9834 24.6053 32.0259 25.4123 31.6203 25.9745L31.0984 26.6985C31.351 27.2137 31.556 27.756 31.7098 28.3181L32.5441 28.4245C33.1932 28.5071 33.6829 29.1107 33.6829 29.8282V31.8478C33.6829 32.5652 33.1933 33.1688 32.5443 33.2515L31.7098 33.3578C31.5559 33.9201 31.3508 34.4626 31.0981 34.9778L31.62 35.7011C32.0258 36.2635 31.9834 37.0705 31.5213 37.5779L30.2207 39.006C29.7587 39.5133 29.0238 39.5599 28.5118 39.1146L27.8524 38.5415C27.3857 38.8174 26.8945 39.0416 26.3854 39.2102L26.2829 40.1366C26.2044 40.846 25.6561 41.3794 25.0053 41.3794H23.1597C22.509 41.3794 21.9607 40.8461 21.8822 40.1371L21.7793 39.2101C21.2728 39.0423 20.7841 38.8195 20.3196 38.5456L19.6502 39.1215C19.138 39.5622 18.4067 39.5136 17.9465 39.0083L16.6415 37.5754C16.1814 37.0702 16.1371 36.2673 16.5382 35.7049L17.0628 34.9693C16.8133 34.4592 16.6104 33.9226 16.4577 33.3665L15.614 33.2539C14.968 33.1678 14.4822 32.5657 14.4822 31.8511V29.8246C14.4822 29.1101 14.9679 28.5081 15.6136 28.4219L16.4578 28.3089C16.6106 27.7529 16.8134 27.2165 17.0628 26.7066L16.5385 25.9711C16.1372 25.4086 16.1814 24.6057 16.6416 24.1004L17.9466 22.6675C18.4067 22.1622 19.1379 22.1136 19.65 22.5541L20.32 23.13C20.787 22.8547 21.2784 22.631 21.7877 22.463L21.8845 21.5469C21.9598 20.8341 22.5095 20.2964 23.1629 20.2964H25.0022ZM25.0022 21.7096H23.1629L22.9639 23.5927L22.526 23.7075C21.8442 23.8862 21.1955 24.1819 20.6006 24.582L20.2196 24.8383L19.8678 24.5359L18.8566 23.6667L17.5516 25.0996L18.6185 26.5963L18.3851 27.0146C18.0225 27.6646 17.7541 28.3732 17.5911 29.1178L17.4867 29.5947L17.0433 29.6541L15.7691 29.8246V31.8511L17.4865 32.0802L17.5909 32.5574C17.7539 33.3022 18.0224 34.011 18.3851 34.6613L18.6185 35.0796L18.3431 35.4659L17.5515 36.5761L18.8565 38.0091L20.2188 36.837L20.6 37.0934C21.1921 37.4918 21.8377 37.7867 22.516 37.9657L22.9503 38.0804L23.0044 38.5672L23.1597 39.9663H25.0053L25.2139 38.0805L25.6485 37.9659C26.33 37.7861 26.9784 37.4894 27.5728 37.0883L27.9562 36.8295L28.3091 37.1362L29.3107 38.0067L30.6113 36.5787L29.5387 35.0922L29.7745 34.671C30.1417 34.0151 30.4128 33.2994 30.5764 32.5471L30.6809 32.0662L31.1281 32.0093L32.396 31.8478V29.8282L30.6809 29.6096L30.5764 29.1288C30.4129 28.3767 30.1419 27.6612 29.7749 27.0055L29.5392 26.5845L29.8186 26.1971L30.6113 25.0973L29.3108 23.6692L27.957 24.8469L27.5734 24.588C26.9761 24.1848 26.3242 23.8871 25.6391 23.7075L25.2012 23.5927L25.1493 23.1017L25.0022 21.7096ZM20.233 0.403809C22.6638 0.403809 24.6459 2.51838 24.7343 5.16552L24.7373 5.3352L24.7694 17.3047C24.7704 17.6949 24.4832 18.0122 24.1278 18.0133C23.7978 18.0144 23.5251 17.7425 23.487 17.3912L23.4824 17.3088L23.4504 5.33935C23.4453 3.44354 22.081 1.9001 20.3723 1.82018L20.233 1.81693H4.82145C3.09129 1.81693 1.68009 3.31647 1.60701 5.19649L1.60404 5.34974V32.1991C1.60404 34.0988 2.96971 35.6484 4.68189 35.7286L4.82145 35.7319H12.3336C12.689 35.7319 12.9771 36.0482 12.9771 36.4384C12.9771 36.8008 12.7287 37.0994 12.4086 37.1402L12.3336 37.145H4.82145C2.38558 37.145 0.40131 35.0219 0.31969 32.3691L0.317078 32.1991V5.34974C0.317078 2.67508 2.2506 0.496298 4.6666 0.406677L4.82145 0.403809H20.233ZM24.0825 25.993C26.5194 25.993 28.4949 28.1622 28.4949 30.8379C28.4949 33.5137 26.5194 35.6828 24.0825 35.6828C21.6457 35.6828 19.6702 33.5137 19.6702 30.8379C19.6702 28.1622 21.6457 25.993 24.0825 25.993ZM24.0825 27.4061C22.3564 27.4061 20.9571 28.9426 20.9571 30.8379C20.9571 32.7333 22.3564 34.2697 24.0825 34.2697C25.8087 34.2697 27.208 32.7333 27.208 30.8379C27.208 28.9426 25.8087 27.4061 24.0825 27.4061ZM11.2563 31.1392C11.6117 31.1392 11.8998 31.4556 11.8998 31.8458C11.8998 32.2081 11.6513 32.5068 11.3313 32.5476L11.2563 32.5524H4.82145C4.46607 32.5524 4.17797 32.236 4.17797 31.8458C4.17797 31.4834 4.42638 31.1848 4.74641 31.144L4.82145 31.1392H11.2563ZM11.2563 26.8999C11.6117 26.8999 11.8998 27.2162 11.8998 27.6064C11.8998 27.9688 11.6513 28.2674 11.3313 28.3082L11.2563 28.313H4.82145C4.46607 28.313 4.17797 27.9966 4.17797 27.6064C4.17797 27.2441 4.42638 26.9454 4.74641 26.9046L4.82145 26.8999H11.2563ZM13.8302 22.6605C14.1856 22.6605 14.4737 22.9768 14.4737 23.3671C14.4737 23.7294 14.2253 24.028 13.9052 24.0689L13.8302 24.0736H4.82145C4.46607 24.0736 4.17797 23.7573 4.17797 23.3671C4.17797 23.0047 4.42638 22.7061 4.74641 22.6652L4.82145 22.6605H13.8302ZM16.4041 13.8285C18.1343 13.8285 19.5455 15.328 19.6186 17.208L19.6215 17.3613V18.7744C19.6215 19.1646 19.3334 19.481 18.9781 19.481C18.6481 19.481 18.3761 19.2082 18.3389 18.8568L18.3346 18.7744V17.3613C18.3346 16.2324 17.5309 15.3097 16.5176 15.2452L16.4041 15.2416H8.68235C7.65427 15.2416 6.81389 16.124 6.75518 17.2367L6.7519 17.3613V18.7744C6.7519 19.1646 6.4638 19.481 6.10842 19.481C5.77842 19.481 5.50643 19.2082 5.46926 18.8568L5.46493 18.7744V17.3613C5.46493 15.4615 6.8306 13.912 8.54278 13.8317L8.68235 13.8285H16.4041ZM12.5432 3.93662C14.6756 3.93662 16.4041 5.83465 16.4041 8.17598C16.4041 10.5173 14.6756 12.4154 12.5432 12.4154C10.4109 12.4154 8.68235 10.5173 8.68235 8.17598C8.68235 5.83465 10.4109 3.93662 12.5432 3.93662ZM12.5432 5.34974C11.1217 5.34974 9.96931 6.61509 9.96931 8.17598C9.96931 9.73688 11.1217 11.0022 12.5432 11.0022C13.9648 11.0022 15.1172 9.73688 15.1172 8.17598C15.1172 6.61509 13.9648 5.34974 12.5432 5.34974Z" fill="#B4B4B4"/>
</svg>
