<svg width="107" height="141" viewBox="0 0 107 141" fill="none" xmlns="http://www.w3.org/2000/svg">
<path d="M48.4305 19.726C50.1495 19.4661 51.9126 19.3311 53.709 19.3311C72.0191 19.3311 86.8623 33.3594 86.8623 50.6642C86.8623 67.969 72.0191 81.9973 53.709 81.9973C35.3989 81.9973 20.5557 67.969 20.5557 50.6642C20.5557 37.6532 28.9467 26.4944 40.8934 21.7579" stroke="#B02262" stroke-width="6"/>
<path d="M32.535 86.9602C33.6285 87.0591 34.7427 87.2672 35.8782 87.6585C43.7178 90.3607 45.5052 98.7582 53.8479 98.5857C54.7585 98.5668 55.5886 98.454 56.3553 98.2641M32.535 86.9602C27.293 86.4862 22.5279 88.5208 18.1871 84.8939C12.3119 79.9848 16.9486 73.2018 14.0081 66.331C10.9919 59.2831 2.80732 57.4748 3.00346 49.8745C3.19961 42.2742 11.8179 40.9887 14.8439 33.9446C17.6298 27.4597 12.8976 21.2017 18.1871 16.3033C23.4957 11.3871 30.1005 16.1676 36.9926 13.5386C43.9769 10.8743 45.2065 3.26016 52.7335 3.00642C60.6648 2.73906 62.3011 10.8944 69.728 13.5386C76.6832 16.0148 83.1825 11.4283 88.5335 16.3033C93.8796 21.1738 89.3083 27.463 92.1553 33.9446C95.2395 40.9662 103.772 42.2749 103.996 49.8745C104.218 57.4197 95.6939 59.139 93.2697 66.331C91.2602 72.2926 95.3411 77.1928 91.4588 82.2608C87.4841 87.4495 81.3689 85.5595 75.1607 86.4902M32.535 86.9602L16.5155 124.916L32.535 121.361L40.6144 134L56.3553 98.2641M56.3553 98.2641C62.3825 96.7711 64.4877 90.5112 70.9817 87.6585C72.3639 87.0514 73.7647 86.6995 75.1607 86.4902M58.0269 115.569L66.5241 134L75.1607 121.361L91.4588 124.916L75.1607 86.4902M42.8432 50.6644L52.7335 63.1713L68.0564 40.6589" stroke="#B02262" stroke-width="6"/>
</svg>
