<svg width="150" height="150" viewBox="0 0 150 150" fill="none" xmlns="http://www.w3.org/2000/svg">
<path d="M0 33C0 14.7746 14.7746 0 33 0H149.281V116.281C149.281 134.506 134.506 149.281 116.281 149.281H0V33Z" fill="url(#paint0_linear)"/>
<g clip-path="url(#clip0)">
<path d="M111.278 79.7762C112.523 78.3858 113.282 76.5504 113.282 74.5424C113.282 70.214 109.76 66.6917 105.432 66.6917H90.1942C91.7032 62.1121 92.347 56.0356 92.347 53.4309V50.8158C92.347 45.0446 87.6505 40.3481 81.8794 40.3481H79.2625C78.0622 40.3481 77.0154 41.1646 76.7241 42.33L75.2987 48.0331C73.3011 56.0199 66.9595 64.8319 60.3963 66.4335C59.2466 63.5235 56.4081 61.4579 53.0934 61.4579H37.3919C35.9474 61.4579 34.775 62.6302 34.775 64.0748V111.179C34.775 112.624 35.9474 113.796 37.3919 113.796H53.0934C56.2145 113.796 58.9151 111.966 60.18 109.321L69.1717 112.318C72.1113 113.299 75.1748 113.796 78.275 113.796H100.198C104.526 113.796 108.048 110.274 108.048 105.945C108.048 104.925 107.853 103.948 107.497 103.053C110.826 102.144 113.282 99.0925 113.282 95.4777C113.282 93.4696 112.523 91.6343 111.278 90.2439C112.523 88.8534 113.282 87.0181 113.282 85.01C113.282 83.002 112.523 81.1667 111.278 79.7762ZM55.7103 105.945C55.7103 107.388 54.5362 108.562 53.0934 108.562H40.0088V66.6917H53.0934C54.5362 66.6917 55.7103 67.8658 55.7103 69.3086V105.945ZM100.198 82.3931H105.432C106.874 82.3931 108.048 83.5673 108.048 85.01C108.048 86.4528 106.874 87.6269 105.432 87.6269H100.198C98.7532 87.6269 97.5808 88.7993 97.5808 90.2439C97.5808 91.6884 98.7532 92.8608 100.198 92.8608H105.432C106.874 92.8608 108.048 94.0349 108.048 95.4777C108.048 96.9205 106.874 98.0946 105.432 98.0946H100.198C98.7532 98.0946 97.5808 99.267 97.5808 100.711C97.5808 102.156 98.7532 103.328 100.198 103.328C101.641 103.328 102.815 104.503 102.815 105.945C102.815 107.388 101.641 108.562 100.198 108.562H78.275C75.7384 108.562 73.2314 108.156 70.8255 107.353L60.9441 104.059V71.6778C65.0492 70.8979 69.067 68.2985 72.694 64.0434C76.2356 59.8877 79.1072 54.3783 80.3755 49.3032L81.3054 45.582H81.8794C84.7649 45.582 87.1132 47.9302 87.1132 50.8158V53.4309C87.1132 56.9446 86.0141 63.684 84.6079 66.6917H79.2625C77.8179 66.6917 76.6455 67.8641 76.6455 69.3086C76.6455 70.7531 77.8179 71.9255 79.2625 71.9255H105.432C106.874 71.9255 108.048 73.0996 108.048 74.5424C108.048 75.9852 106.874 77.1593 105.432 77.1593H100.198C98.7532 77.1593 97.5808 78.3317 97.5808 79.7762C97.5808 81.2208 98.7532 82.3931 100.198 82.3931Z" fill="white"/>
<path d="M47.8595 103.328C49.3047 103.328 50.4764 102.157 50.4764 100.711C50.4764 99.2661 49.3047 98.0945 47.8595 98.0945C46.4142 98.0945 45.2426 99.2661 45.2426 100.711C45.2426 102.157 46.4142 103.328 47.8595 103.328Z" fill="white"/>
<path d="M84.4962 24.4722C83.0509 24.4722 81.8793 25.6438 81.8793 27.0891V32.4974C81.8793 33.9426 83.0509 35.1143 84.4962 35.1143C85.9414 35.1143 87.1131 33.9426 87.1131 32.4974V27.0891C87.1131 25.6438 85.9414 24.4722 84.4962 24.4722Z" fill="white"/>
<path d="M73.3935 36.0122L69.6927 32.3114C68.6709 31.2894 67.0138 31.2894 65.9918 32.3114C64.9698 33.3334 64.9698 34.9903 65.9918 36.0122L69.6927 39.7131C70.7145 40.7349 72.3717 40.7351 73.3935 39.7131C74.4155 38.6911 74.4155 37.0342 73.3935 36.0122Z" fill="white"/>
<path d="M103.001 32.3114C101.979 31.2894 100.322 31.2894 99.2997 32.3114L95.5989 36.0121C94.5769 37.0341 94.5769 38.6909 95.5989 39.7129C96.6207 40.7349 98.2777 40.7351 99.2997 39.7131L103.001 36.0122C104.023 34.9903 104.023 33.3334 103.001 32.3114Z" fill="white"/>
</g>
<defs>
<linearGradient id="paint0_linear" x1="74.6404" y1="0" x2="74.6404" y2="149.281" gradientUnits="userSpaceOnUse">
<stop stop-color="#CF5170"/>
<stop offset="0.508333" stop-color="#E3A4B4"/>
<stop offset="1" stop-color="#D04F6F"/>
</linearGradient>
<clipPath id="clip0">
<rect width="89.3238" height="89.3238" fill="white" transform="translate(29.3667 24.4722)"/>
</clipPath>
</defs>
</svg>
