<svg width="96" height="96" viewBox="0 0 96 96" fill="none" xmlns="http://www.w3.org/2000/svg">
<circle cx="47.8006" cy="47.8006" r="47.8006" fill="url(#paint0_linear_9_240)"/>
<path d="M39.2047 59.4764L44.0407 54.6592M59.5494 39.2109L56.2976 42.4501M44.0407 54.6592L47.765 50.9494M44.0407 54.6592C44.0066 54.5107 44.0407 54.2162 44.0584 54.0557M44.0407 54.6592C46.114 54.9281 48.1163 54.8288 49.9885 54.4097M47.765 45.1909V50.9494M47.765 50.9494L50.0997 48.6238M53.0458 41.0381V45.6892M53.0458 45.6892L56.2976 42.4501M53.0458 45.6892L50.0997 48.6238M59.7162 42.5885L56.2976 42.4501M55.5472 48.7346L50.0997 48.6238M56.5477 59.4764L51.8679 54.5485M51.3782 54.0328C58.395 51.7862 63.212 44.8796 62.3287 36.1655C50.6583 35.9535 46.0731 41.9649 44.514 47.3503M51.3782 54.0328L51.8679 54.5485M51.3782 54.0328C50.9238 54.1782 50.4603 54.3041 49.9885 54.4097M36.0362 39.2109L39.5542 42.5885M44.514 47.3503L42.4843 45.4016M44.514 47.3503C44.3787 47.818 44.2661 48.2809 44.1737 48.7346M42.651 41.0381L42.4843 45.4016M42.4843 45.4016L39.5542 42.5885M35.8695 42.5885H39.5542M40.094 48.7346H44.1737M44.1737 48.7346C43.7265 50.9301 43.8626 52.7993 44.0584 54.0557M47.9874 41.315C43.0129 36.726 39.65 36.0155 33.2013 36.2209C33.3125 46.4644 36.6267 51.3684 44.0584 54.0557M51.8679 54.5485C51.8319 54.5485 50.5999 54.456 49.9885 54.4097M48.5906 30.4213C65.8225 7.27647 101.342 45.3159 48.5906 72.5028C-7.71706 48.6936 31.2491 5.94765 48.5906 30.4213Z" stroke="white" stroke-width="2"/>
<defs>
<linearGradient id="paint0_linear_9_240" x1="72.397" y1="85.3913" x2="19.9556" y2="6.33543e-06" gradientUnits="userSpaceOnUse">
<stop stop-color="#7028E4"/>
<stop offset="1" stop-color="#E5B2CA"/>
</linearGradient>
</defs>
</svg>
