<svg width="96" height="96" viewBox="0 0 96 96" fill="none" xmlns="http://www.w3.org/2000/svg">
<circle cx="47.8006" cy="47.8006" r="47.8006" fill="url(#paint0_linear_9_247)"/>
<path d="M37.0772 39.9154C34.5174 39.9154 35.1197 35.5407 37.0772 35.5407C37.5249 35.5407 38.721 35.5406 40.3406 35.5406M37.0772 39.9154C39.6369 39.9154 56.4037 39.9154 58.7134 39.9154M37.0772 39.9154C37.0772 39.9154 37.0772 42.0056 37.0772 46.3318C37.0772 48.9625 39.3137 50.0119 42.3486 51.1134C43.7294 51.6146 45.9983 51.8414 48.2722 51.8416M58.7134 39.9154C61.023 39.9154 62.1274 35.5407 58.7134 35.5407C58.1679 35.5407 57.2945 35.5406 56.2038 35.5406M58.7134 39.9154C58.7134 40.2266 58.7134 37.1934 58.7134 46.5749C58.7134 49.0653 57.1887 49.9083 54.9488 50.9497C53.728 51.5172 50.9964 51.842 48.2722 51.8416M48.2722 51.8416V66.5044M58.011 71.2195H38.433H48.2722V67.7197M48.2722 66.5044V67.7197M48.2722 66.5044C49.2219 64.4101 50.1882 62.8359 51.3344 61.6145M60.27 57.4632C56.0632 58.3527 53.4053 59.4077 51.3344 61.6145M48.2722 67.7197C48.3124 66.6014 47.0801 65.0454 45.3104 63.5912M36.3246 59.5534C38.9148 59.5202 42.6981 61.4447 45.3104 63.5912M51.3344 61.6145C49.1758 55.2272 58.7134 48.8595 68.6534 59.5534C62.278 56.8799 57.258 69.5182 51.3344 61.6145ZM45.3104 63.5912C47.72 57.6577 38.0816 50.3663 27.5898 61.3519C37.3286 61.0603 39.2864 70.782 45.3104 63.5912ZM40.3406 35.5406C40.3406 35.5406 40.3406 28.298 40.3406 26.4995C40.3406 24.7009 44.1056 24.5065 44.1056 26.4995C44.1056 28.4925 44.1056 35.5406 44.1056 35.5406M40.3406 35.5406C41.4356 35.5406 42.724 35.5406 44.1056 35.5406M44.1056 35.5406C46.777 35.5406 49.7966 35.5406 52.4388 35.5406M52.4388 35.5406C52.4388 35.5406 52.4388 28.4438 52.4388 26.4995C52.4388 24.5551 56.2038 24.5066 56.2038 26.4995C56.2038 28.4924 56.2038 35.5406 56.2038 35.5406M52.4388 35.5406C53.8348 35.5406 55.1255 35.5406 56.2038 35.5406" stroke="white" stroke-width="2"/>
<defs>
<linearGradient id="paint0_linear_9_247" x1="72.397" y1="85.3913" x2="19.9556" y2="6.33543e-06" gradientUnits="userSpaceOnUse">
<stop stop-color="#7028E4"/>
<stop offset="1" stop-color="#E5B2CA"/>
</linearGradient>
</defs>
</svg>
