<svg width="96" height="96" viewBox="0 0 96 96" fill="none" xmlns="http://www.w3.org/2000/svg">
<circle cx="47.8006" cy="47.8006" r="47.8006" fill="url(#paint0_linear_9_226)"/>
<path d="M39.1463 55.0042C40.0897 57.1276 43.5859 57.1276 44.7512 55.0042M50.4962 55.0042C50.9734 56.9456 55.1578 57.7422 55.8792 54.8925M50.4407 43.5435C52.2969 36.179 55.8984 31.6204 64.6473 23.0981C66.6125 36.4561 65.1431 42.375 58.0469 50.1988M50.4407 43.5435C48.4794 43.0462 46.4026 43.0648 44.4433 43.5435M50.4407 43.5435C51.2915 43.7592 52.1206 44.0721 52.9089 44.4865M58.0469 50.1988C58.3555 50.921 58.6158 51.7027 58.8208 52.5457V58.748C71.4439 78.2493 21.8321 77.6346 35.7352 58.748V52.5457C35.9034 51.5146 36.2071 50.5575 36.6227 49.6801M58.0469 50.1988C57.7816 49.5777 57.4807 49.0007 57.1487 48.4665M44.4433 43.5435C42.8689 35.1084 38.7228 30.7617 30.5738 23.0981C29.3044 33.956 30.8205 39.7497 36.6227 49.6801M44.4433 43.5435C43.7509 43.7127 43.0732 43.9393 42.4205 44.2208M36.6227 49.6801C36.9846 48.9159 37.4314 48.2121 37.9474 47.5725M47.7479 63.777C49.2904 62.8611 50.0444 62.2643 50.4962 60.5361C48.2994 59.4873 47.035 59.6347 44.7512 60.5361C45.0958 62.0509 45.7003 62.7767 47.7479 63.777ZM47.7479 63.777C47.0265 65.5651 45.2486 66.2792 42.4205 65.5651M47.7479 63.777C48.5999 65.7074 49.6867 66.0548 52.5204 65.5651M52.9089 44.4865C55.4736 37.1966 57.5694 33.331 63.1753 27.0654C64.1461 31.3285 60.4677 46.2326 57.1487 48.4665M52.9089 44.4865C54.5587 45.354 56.0301 46.6667 57.1487 48.4665M42.4205 44.2208C39.9025 36.3045 37.2722 32.8323 32.0431 27.0654C31.7655 34.2702 33.2851 38.8305 37.9474 47.5725M42.4205 44.2208C40.6903 44.9672 39.1355 46.0997 37.9474 47.5725" stroke="white" stroke-width="2"/>
<defs>
<linearGradient id="paint0_linear_9_226" x1="72.397" y1="85.3913" x2="19.9556" y2="6.33543e-06" gradientUnits="userSpaceOnUse">
<stop stop-color="#7028E4"/>
<stop offset="1" stop-color="#E5B2CA"/>
</linearGradient>
</defs>
</svg>
