<svg width="96" height="96" viewBox="0 0 96 96" fill="none" xmlns="http://www.w3.org/2000/svg">
<circle cx="47.8006" cy="47.8006" r="47.8006" fill="url(#paint0_linear_9_233)"/>
<path d="M28.8707 53.1469C26.3362 44.4555 27.8514 37.7851 31.4658 33.1937M67.2348 53.1469C68.7616 47.4344 68.6767 42.6282 67.4753 38.7137M47.7468 68.7954C38.5269 74.0209 21.7884 65.33 22.4777 54.5648C25.4616 53.2751 28.8941 52.9535 32.2479 53.4488M47.7468 68.7954C47.8286 68.865 47.913 68.9325 47.9999 68.9979M47.7468 68.7954C46.4187 67.3188 45.1651 66.058 43.8931 64.9465M47.7468 68.7954C47.7468 60.4185 40.2198 54.6259 32.2479 53.4488M47.7468 68.7954C48.144 64.8219 50.2673 60.8572 53.5783 57.9101M47.9999 68.9979C54.3491 73.7789 74.0768 67.3496 73.7833 54.5648C65.6484 51.5114 58.3697 53.6454 53.5783 57.9101M47.9999 68.9979C49.4141 67.5166 50.7179 66.239 51.9926 65.1144M66.4687 57.1982C63.3002 58.2752 60.7533 59.3177 58.4838 60.5406M61.8138 56.4386C59.1931 58.1034 58.549 58.9978 58.4838 60.5406M58.4838 60.5406C56.1518 61.7971 54.1126 63.244 51.9926 65.1144M61.8138 64.9465C56.9681 66.1156 54.9893 65.9645 51.9926 65.1144M29.4857 57.1982C32.9858 58.4832 35.7451 59.6441 38.1304 60.9432M34.5497 56.4386C37.6495 58.5962 37.9094 59.4597 38.1304 60.9432M38.1304 60.9432C40.2628 62.1047 42.0964 63.3767 43.8931 64.9465M34.2428 64.9465C38.4152 65.8207 40.5838 65.9412 43.8931 64.9465M29.4857 36.7893C29.4857 36.7893 32.6571 39.9291 30.4513 42.6132C28.2455 45.2972 31.4977 47.3229 33.7313 48.1839C35.9648 49.0448 32.2479 53.4488 32.2479 53.4488M37.5165 55.2232C39.2336 51.766 45.394 53.4488 46.6728 58.5149C47.9516 63.5811 51.2356 58.8386 53.5783 57.9101M31.4658 33.1937C31.6277 32.9911 38.4884 29.0916 39.4092 33.5482C40.3299 38.0047 47.5935 30.1551 47.9516 35.0168C48.3096 39.8785 42.0444 46.3707 46.6728 46.7152C49.2602 46.9078 50.4794 41.8893 55.2152 41.8535C59.9509 41.8177 57.9404 36.5399 61.1488 36.1309C63.7994 35.7931 67.4753 38.7137 67.4753 38.7137M31.4658 33.1937C40.5154 21.6975 62.7246 23.2344 67.4753 38.7137M65.1387 43.2715C62.5325 42.5359 58.5947 45.5498 60.1769 47.7281C61.2491 49.204 65.7772 52.2353 64.7295 48.8929C63.6817 45.5504 67.7216 44.0006 65.1387 43.2715Z" stroke="white" stroke-width="2"/>
<defs>
<linearGradient id="paint0_linear_9_233" x1="72.397" y1="85.3913" x2="19.9556" y2="6.33543e-06" gradientUnits="userSpaceOnUse">
<stop stop-color="#7028E4"/>
<stop offset="1" stop-color="#E5B2CA"/>
</linearGradient>
</defs>
</svg>
