<svg width="96" height="96" viewBox="0 0 96 96" fill="none" xmlns="http://www.w3.org/2000/svg">
<circle cx="47.8006" cy="47.8006" r="47.8006" fill="url(#paint0_linear_9_219)"/>
<path d="M48.2953 56.3472C48.1218 62.8255 47.4772 68.799 45.1384 69.9362H55.8935C53.4035 68.9737 52.7555 62.9191 52.6171 56.3472M48.2953 56.3472C48.3802 53.1804 48.3524 49.8929 48.355 46.9907C45.4326 45.9514 44.3708 44.7289 43.2115 41.7333C45.3924 43.5852 46.5061 44.0145 48.3745 44.1393C48.4104 41.8613 48.5087 40.0217 48.7683 38.971C50.023 33.8918 51.0089 34.1591 52.2637 38.971C52.6745 40.5466 52.6488 44.1953 52.6107 48.461C55.2272 48.181 56.7573 46.8742 59.5233 43.8719C57.8761 48.4654 56.4922 50.4087 52.5858 51.8917C52.5806 53.3684 52.586 54.8709 52.6171 56.3472M48.2953 56.3472H38.7302C27.3927 51.4017 33.3755 41.6561 38.7302 40.8869C35.1899 31.7086 43.8837 31.9257 43.8837 31.7086C43.8837 24.4017 56.5657 22.9315 57.2827 31.7086C63.1748 32.8651 64.7216 35.7631 62.2569 40.8869C69.9547 42.6516 71.578 53.0502 62.2569 56.3472H52.6171M30.1299 69.9362V33.0606M30.1299 33.0606L26.9482 38.3625M30.1299 33.0606L33.7598 38.3625" stroke="white" stroke-width="2"/>
<defs>
<linearGradient id="paint0_linear_9_219" x1="72.397" y1="85.3913" x2="19.9556" y2="6.33543e-06" gradientUnits="userSpaceOnUse">
<stop stop-color="#7028E4"/>
<stop offset="1" stop-color="#E5B2CA"/>
</linearGradient>
</defs>
</svg>
