<svg width="75" height="75" fill="none" xmlns="http://www.w3.org/2000/svg"><g clip-path="url(#clip0)" fill="#fff" fill-opacity=".91"><path d="M74.53 36.396L52.336 15.085c-1.809-1.738-4.75-1.737-6.56 0a4.45 4.45 0 00-1.39 3.235 4.45 4.45 0 001.39 3.234L62.384 37.5 45.777 53.445a4.46 4.46 0 00.001 6.47 4.722 4.722 0 003.28 1.303 4.716 4.716 0 003.277-1.303L74.53 38.604a1.53 1.53 0 000-2.208zM50.214 57.709c-.627.604-1.688.601-2.317 0a1.422 1.422 0 01-.449-1.028c0-.384.16-.75.449-1.028l17.754-17.048a1.533 1.533 0 000-2.208l-17.754-17.05a1.42 1.42 0 01-.449-1.027c0-.385.16-.75.449-1.027a1.67 1.67 0 011.16-.453c.421 0 .844.15 1.158.452L71.26 37.5 50.215 57.71z"/><path d="M51.57 36.396L29.378 15.084c-1.809-1.736-4.75-1.736-6.56 0a4.45 4.45 0 00-1.39 3.236 4.45 4.45 0 001.39 3.234L39.425 37.5 22.817 53.445a4.46 4.46 0 00.002 6.47 4.724 4.724 0 003.28 1.303 4.72 4.72 0 003.279-1.303L51.57 38.604a1.531 1.531 0 000-2.208zM27.258 57.708c-.627.604-1.691.603-2.32 0a1.421 1.421 0 01-.448-1.027c0-.384.16-.75.449-1.028l17.754-17.048a1.532 1.532 0 000-2.208l-17.754-17.05a1.419 1.419 0 01-.449-1.027c0-.385.16-.75.449-1.027a1.67 1.67 0 011.16-.453c.423 0 .845.15 1.16.452l21.043 20.207-21.044 20.209z"/><path d="M30.142 36.396L7.949 15.084c-1.809-1.735-4.753-1.733-6.559 0A4.451 4.451 0 000 18.32c0 1.225.493 2.374 1.39 3.234L17.995 37.5 1.39 53.445a4.46 4.46 0 00.001 6.47 4.719 4.719 0 003.278 1.302 4.728 4.728 0 003.281-1.302l22.193-21.31a1.531 1.531 0 000-2.21zM5.829 57.707c-.64.614-1.68.614-2.32 0a1.422 1.422 0 01-.448-1.026c0-.385.16-.75.449-1.029l17.754-17.048a1.532 1.532 0 000-2.208L3.51 19.346a1.42 1.42 0 01-.449-1.026c0-.385.16-.75.449-1.027.32-.307.74-.46 1.16-.46.42 0 .84.153 1.16.46L26.873 37.5 5.829 57.707z"/></g><defs><clipPath id="clip0"><path fill="#fff" d="M0 0h75v75H0z"/></clipPath></defs></svg>