<svg width="65" height="65" viewBox="0 0 65 65" fill="none" xmlns="http://www.w3.org/2000/svg">
<path d="M53.1959 43.3564H46.6821V45.5276H53.1959V43.3564Z" fill="#0796EF"/>
<path d="M44.5109 43.3564H37.9971V45.5276H44.5109V43.3564Z" fill="#0796EF"/>
<path d="M35.8258 43.3564H29.312V45.5276H35.8258V43.3564Z" fill="#0796EF"/>
<path d="M64.0381 22.5154L42.5567 1.0308C41.9467 0.414977 41.1156 0.0689319 40.2487 0.0700175H40.2389C39.3777 0.0704246 38.5529 0.416605 37.9493 1.0308L15.1619 23.8149H3.25689C1.45814 23.8149 0 25.2731 0 27.0718V57.4695C0 59.2683 1.45814 60.7264 3.25689 60.7264H19.3416L22.5811 63.9692C23.1911 64.585 24.0223 64.9311 24.8892 64.93H24.8979C25.7593 64.9297 26.5847 64.5835 27.1885 63.9692L30.4346 60.7264H55.3672C57.1659 60.7264 58.6241 59.2683 58.6241 57.4695V32.5369L64.0327 27.1283C64.65 26.524 64.9985 25.697 65 24.8333C65.0032 23.9629 64.6566 23.1277 64.0381 22.5154ZM50.2278 11.7753L38.1881 23.8149H28.969L45.6182 7.1657L50.2278 11.7753ZM39.4866 2.56154C39.8995 2.13855 40.5772 2.13041 41.0003 2.54349C41.0064 2.54946 41.0126 2.55543 41.0184 2.56154L44.0831 5.63062L25.8977 23.8149H18.2321L39.4866 2.56154ZM25.6513 62.4384C25.4527 62.6458 25.1784 62.7633 24.8913 62.7641C24.6004 62.7635 24.3219 62.6462 24.1184 62.4384L22.4128 60.7264H27.3644L25.6513 62.4384ZM56.4528 57.4695C56.4528 58.0691 55.9667 58.5551 55.3672 58.5551H3.25689C2.65735 58.5551 2.17126 58.0691 2.17126 57.4695V42.2707H56.4528V57.4695ZM56.4528 40.0994H2.17126V33.5856H56.4528V40.0994ZM56.4528 31.4144H2.17126V27.0718C2.17126 26.4723 2.65735 25.9862 3.25689 25.9862H55.3672C55.9667 25.9862 56.4528 26.4723 56.4528 27.0718V31.4144ZM62.503 25.5878L58.6241 29.4667V27.0718C58.6241 25.2731 57.1659 23.8149 55.3672 23.8149H41.254L51.7585 13.3104L62.4987 24.0505C62.7073 24.2549 62.8246 24.5347 62.8244 24.8268C62.8241 25.1134 62.7082 25.3878 62.503 25.5878Z" fill="#0796EF"/>
<path d="M10.4122 56.4131C10.5707 56.2761 10.7191 56.1276 10.8562 55.9691C12.2918 57.6412 14.7585 57.9589 16.5709 56.7052C17.7407 55.8873 18.4428 54.5543 18.4556 53.1269C18.4556 50.7286 16.5114 48.7844 14.1131 48.7844C13.8976 48.7814 13.6824 48.7996 13.4704 48.8387L13.4422 48.8463C13.4313 48.8463 13.4204 48.8463 13.4107 48.8463C12.4161 49.0116 11.5116 49.522 10.8562 50.288C9.28745 48.4739 6.54501 48.2751 4.73106 49.844C2.91697 51.4127 2.71817 54.1552 4.28704 55.9691C5.85577 57.7832 8.59808 57.982 10.4122 56.4131ZM13.8384 50.9785C13.9289 50.9612 14.0209 50.9536 14.1131 50.9557C15.3123 50.9557 16.2843 51.9277 16.2843 53.1269C16.2833 53.5863 16.1336 54.033 15.8577 54.4004C15.8186 54.4536 15.7882 54.5089 15.7437 54.5643C15.7361 54.573 15.7252 54.5784 15.7166 54.5871C15.3065 55.0399 14.724 55.2983 14.1131 55.2982C12.9141 55.2777 11.9586 54.2892 11.9791 53.0903C11.9973 52.0257 12.7847 51.1313 13.8384 50.9785ZM7.5993 50.9557C8.79851 50.9557 9.77056 51.9277 9.77056 53.1269C9.77056 54.3261 8.79851 55.2982 7.5993 55.2982C6.40008 55.2982 5.42804 54.3261 5.42804 53.1269C5.42804 51.9277 6.40008 50.9557 7.5993 50.9557Z" fill="#0796EF"/>
</svg>
