<svg width="62" height="62" viewBox="0 0 62 62" fill="none" xmlns="http://www.w3.org/2000/svg">
<path d="M59.8809 4.23056H2.11914C0.950707 4.23056 0 5.18127 0 6.3497V13.8085C0 14.9827 1.81641 14.9827 1.81641 13.8085V6.3497C1.81641 6.18283 1.95215 6.04697 2.11914 6.04697H59.8809C60.0478 6.04697 60.1836 6.18283 60.1836 6.3497V50.6384C60.1836 50.8053 60.0478 50.9411 59.8809 50.9411H48.2423V49.0513H57.3769C57.8786 49.0513 58.2851 48.6447 58.2851 48.1431V38.6326C58.2851 37.4583 56.4687 37.4583 56.4687 38.6326V47.2349H48.2423V43.2053C48.2718 43.2078 48.3016 43.2104 48.3296 43.2129C49.0835 43.2792 50.0213 43.3616 50.671 42.7108C51.3199 42.0606 51.2378 41.1219 51.1718 40.3676C51.1007 39.5581 51.1772 39.3365 51.7994 38.8193C53.4014 37.4873 53.4312 36.061 51.7994 34.7045C51.1772 34.187 51.1011 33.9656 51.1718 33.156C51.3496 31.1244 50.4007 30.1288 48.3296 30.3108C47.5213 30.3817 47.302 30.3049 46.7866 29.6826C45.4567 28.0769 44.0294 28.0473 42.6748 29.6826C42.1594 30.3048 41.9402 30.382 41.1319 30.3108C39.0989 30.1321 38.1082 31.0864 38.2896 33.156C38.3603 33.9657 38.2842 34.187 37.662 34.7045C36.06 36.0364 36.0304 37.4629 37.662 38.8193C38.2842 39.3368 38.3603 39.5582 38.2896 40.3678C38.0989 42.5438 39.1381 43.3851 41.2189 43.2054V47.2352H5.53144V9.75304H56.4687V33.7888C56.4687 34.9631 58.2851 34.9631 58.2851 33.7888V8.84484C58.2851 8.34327 57.8786 7.93663 57.3769 7.93663H4.62324C4.12155 7.93663 3.71504 8.34327 3.71504 8.84484V48.1431C3.71504 48.6447 4.12155 49.0513 4.62324 49.0513H41.2189V50.9411H2.11914C1.95215 50.9411 1.81641 50.8053 1.81641 50.6384V18.4099C1.81641 17.2357 0 17.2357 0 18.4099V50.6384C0 51.8068 0.950707 52.7575 2.11914 52.7575H41.2189V56.8687C41.3482 57.6151 41.7787 57.8896 42.5101 57.6921L44.7306 56.6593L46.9511 57.6921C47.5005 57.9476 48.2423 57.5438 48.2423 56.8687V52.7575H59.8809C61.0493 52.7575 62 51.8068 62 50.6384V6.3497C62 5.18115 61.0493 4.23056 59.8809 4.23056ZM40.9727 41.4033C40.0635 41.4833 40.0194 41.4347 40.0989 40.526C40.2209 39.1313 39.9001 38.3176 38.823 37.4222C38.086 36.8094 38.0862 36.7138 38.823 36.101C39.9001 35.2056 40.221 34.3919 40.0989 32.9973C40.0194 32.0885 40.0635 32.0403 40.9727 32.1199C42.3674 32.2428 43.1801 31.9196 44.0734 30.841C44.6838 30.1043 44.7772 30.1043 45.3876 30.841C46.2812 31.9196 47.0936 32.2423 48.4884 32.1199C49.3977 32.0399 49.4416 32.0885 49.3622 32.9972C49.2401 34.3919 49.5609 35.2055 50.638 36.1009C51.3749 36.7137 51.3752 36.8095 50.6379 37.4222C49.5608 38.3177 49.2399 39.1311 49.3621 40.5257C49.4419 41.4344 49.3975 41.4832 48.4885 41.4033C47.918 41.3532 47.2709 41.2963 46.7013 41.5329C46.1499 41.7619 45.7623 42.2296 45.3875 42.6822C45.211 42.8953 44.8887 43.2844 44.7303 43.354C44.5721 43.2844 44.2498 42.8953 44.0733 42.6822C43.6985 42.2298 43.311 41.7619 42.7595 41.5329C42.1717 41.3537 41.5761 41.3104 40.9727 41.4033ZM45.1136 54.8343C44.8707 54.7213 44.5905 54.7213 44.3476 54.8343L43.0353 55.4447V44.2618C43.4662 44.7357 43.998 45.1756 44.7306 45.1756C45.4632 45.1756 45.9949 44.7358 46.4259 44.262V55.4447L45.1136 54.8343Z" fill="#0796EF"/>
<path d="M11.7777 17.3553H43.0862C44.2604 17.3553 44.2604 15.5389 43.0862 15.5389H11.7777C10.6034 15.5389 10.6034 17.3553 11.7777 17.3553Z" fill="#0796EF"/>
<path d="M51.1305 21.9712C51.1305 21.4696 50.7239 21.063 50.2223 21.063H11.7781C10.6039 21.063 10.6039 22.8794 11.7781 22.8794H50.2224C50.7239 22.8794 51.1305 22.4727 51.1305 21.9712Z" fill="#0796EF"/>
<path d="M34.5285 27.4951C34.5285 26.9936 34.122 26.5869 33.6203 26.5869H11.7781C10.6039 26.5869 10.6039 28.4033 11.7781 28.4033H33.6203C34.1219 28.4033 34.5285 27.9967 34.5285 27.4951Z" fill="#0796EF"/>
<path d="M22.6022 40.1545C22.1071 40.1554 21.6118 40.156 21.1166 40.1564C20.164 40.1571 19.6395 39.9031 19.4449 38.893C19.2673 37.9708 17.9372 38.0883 17.6934 38.893C17.5855 39.2494 17.0406 40.2696 16.5646 40.1861C16.3124 40.1419 16.2022 39.7529 16.1089 39.5514C15.9274 39.1591 15.7952 38.7434 15.6819 38.3269C15.2039 36.5669 15.1084 34.7293 14.8093 32.9361C14.6359 31.8963 13.0509 32.1903 13.0254 33.1776C12.944 36.3225 12.4298 39.4243 11.3102 42.3721C10.8947 43.466 12.65 43.939 13.0617 42.855C13.4934 41.7185 13.8361 40.5546 14.102 39.3735C14.2447 39.8038 14.4148 40.226 14.6225 40.6366C15.1529 41.6848 16.2346 42.3049 17.392 41.8387C17.8051 41.6723 18.1819 41.3815 18.5027 41.0275C19.362 42.0184 20.6404 41.9735 21.833 41.972C23.6309 41.9697 25.4288 41.9655 27.2268 41.9605C28.3955 41.9573 28.3976 40.1408 27.2268 40.1441C25.6853 40.1485 24.1437 40.152 22.6022 40.1545Z" fill="#0796EF"/>
<path d="M44.7304 40.309C46.6865 40.309 48.2779 38.7177 48.2779 36.7617C48.2779 34.8056 46.6865 33.2143 44.7304 33.2143C42.7745 33.2143 41.1831 34.8057 41.1831 36.7617C41.1831 38.7176 42.7744 40.309 44.7304 40.309ZM44.7304 35.0307C45.6849 35.0307 46.4615 35.8073 46.4615 36.7617C46.4615 37.716 45.6849 38.4926 44.7304 38.4926C43.776 38.4926 42.9995 37.7161 42.9995 36.7617C42.9995 35.8072 43.776 35.0307 44.7304 35.0307Z" fill="#0796EF"/>
</svg>
