<svg width="65" height="65" viewBox="0 0 65 65" fill="none" xmlns="http://www.w3.org/2000/svg">
<g clip-path="url(#clip0_112:119)">
<path d="M64.4014 26.855L58.9856 24.6889C58.4336 22.8218 57.6828 21.0142 56.748 19.3028L59.0491 13.9336C59.2028 13.576 59.1225 13.1605 58.8472 12.8852L52.1148 6.15276C51.8395 5.87753 51.4244 5.7972 51.0664 5.95093L45.6972 8.25195C43.9858 7.31716 42.1782 6.56635 40.3111 6.0144L38.145 0.598564C38.0001 0.237045 37.65 0 37.2607 0H27.7393C27.35 0 26.9999 0.237045 26.855 0.598564L24.6889 6.0144C22.8223 6.56586 21.0142 7.31716 19.3028 8.25195L13.9336 5.95093C13.5756 5.79769 13.1605 5.87753 12.8852 6.15276L6.15276 12.8852C5.87753 13.1605 5.7972 13.576 5.95093 13.9341L8.25195 19.3028C7.31716 21.0142 6.56635 22.8223 6.0144 24.6889L0.598564 26.855C0.237045 26.9999 0 27.35 0 27.7393V37.2607C0 37.65 0.237045 38.0001 0.598564 38.145L6.0144 40.3111C6.56586 42.1777 7.31667 43.9858 8.25195 45.6972L5.95093 51.0664C5.7972 51.424 5.87753 51.8395 6.15276 52.1148L12.8852 58.8472C13.1605 59.1225 13.576 59.2028 13.9336 59.0491L19.3028 56.748C21.0142 57.6828 22.8218 58.4341 24.6889 58.9856L26.855 64.4014C26.9999 64.763 27.35 65 27.7393 65H37.2607C37.65 65 38.0001 64.763 38.1445 64.4014L40.3111 58.9856C42.1777 58.4341 43.9858 57.6828 45.6972 56.748L51.0659 59.0491C51.424 59.2028 51.839 59.1225 52.1148 58.8472L58.8472 52.1148C59.1225 51.8395 59.2023 51.424 59.0491 51.0664L56.748 45.6972C57.6828 43.9858 58.4336 42.1782 58.9856 40.3111L64.4014 38.145C64.763 38.0001 65 37.65 65 37.2607V27.7393C65 27.35 64.763 26.9999 64.4014 26.855ZM63.0957 36.6161L57.845 38.7162C57.5688 38.8268 57.36 39.0599 57.2807 39.3465C56.7193 41.3768 55.905 43.3366 54.8611 45.1715C54.7138 45.4304 54.696 45.7433 54.8135 46.0175L57.0451 51.2236L51.2236 57.0451L46.0175 54.8135C45.7433 54.6965 45.4304 54.7138 45.1715 54.8611C43.3361 55.905 41.3768 56.7193 39.3465 57.2807C39.0599 57.36 38.8268 57.5688 38.7162 57.845L36.6161 63.0957H28.3839L26.2833 57.845C26.1732 57.5688 25.9401 57.36 25.6535 57.2807C23.6232 56.7193 21.6634 55.905 19.8285 54.8611C19.5696 54.7138 19.2567 54.6965 18.9825 54.8135L13.7759 57.0451L7.9549 51.2236L10.186 46.0175C10.3035 45.7433 10.2862 45.4304 10.1384 45.1715C9.09451 43.3361 8.28072 41.3768 7.71885 39.3465C7.6395 39.0599 7.43073 38.8268 7.155 38.7162L1.9043 36.6161V28.3839L7.155 26.2833C7.43122 26.1732 7.64 25.9401 7.71935 25.6535C8.28072 23.6232 9.095 21.6639 10.1389 19.829C10.2862 19.5696 10.304 19.2567 10.1865 18.983L7.9549 13.7759L13.7759 7.9549L18.983 10.1865C19.2567 10.304 19.5701 10.2862 19.829 10.1389C21.6639 9.095 23.6232 8.28072 25.6535 7.71935C25.9401 7.64 26.1732 7.43122 26.2833 7.155L28.3839 1.9043H36.6161L38.7167 7.155C38.8268 7.43122 39.0599 7.64 39.3465 7.71935C41.3768 8.28072 43.3361 9.095 45.171 10.1389C45.4304 10.2862 45.7433 10.304 46.017 10.1865L51.2241 7.9549L57.0451 13.7759L54.8135 18.983C54.696 19.2567 54.7138 19.5696 54.8611 19.829C55.905 21.6634 56.7193 23.6232 57.2807 25.6535C57.36 25.9401 57.5688 26.1732 57.845 26.2833L63.0957 28.3839V36.6161Z" fill="#0796EF"/>
<path d="M32.5 11.5527C20.9497 11.5527 11.5527 20.9497 11.5527 32.5C11.5527 44.0503 20.9497 53.4473 32.5 53.4473C44.0503 53.4473 53.4473 44.0503 53.4473 32.5C53.4473 20.9497 44.0503 11.5527 32.5 11.5527ZM32.5 51.543C21.9996 51.543 13.457 43.0004 13.457 32.5C13.457 21.9996 21.9996 13.457 32.5 13.457C43.0004 13.457 51.543 21.9996 51.543 32.5C51.543 43.0004 43.0004 51.543 32.5 51.543Z" fill="#0796EF"/>
<path d="M32.5 15.3613C28.6081 15.3613 24.9393 16.6333 21.8905 19.04C21.4774 19.3653 21.407 19.9644 21.7328 20.377C22.0586 20.7901 22.6572 20.8605 23.0703 20.5347C25.7794 18.3958 29.0405 17.2656 32.5 17.2656C40.9002 17.2656 47.7344 24.0998 47.7344 32.5C47.7344 40.9002 40.9002 47.7344 32.5 47.7344C24.0998 47.7344 17.2656 40.9002 17.2656 32.5C17.2656 29.0405 18.3958 25.7794 20.5347 23.0703C20.8605 22.6572 20.7901 22.0586 20.377 21.7328C19.9644 21.407 19.3653 21.4774 19.0395 21.8905C16.6333 24.9393 15.3613 28.6081 15.3613 32.5C15.3613 41.9501 23.0499 49.6387 32.5 49.6387C41.9501 49.6387 49.6387 41.9501 49.6387 32.5C49.6387 23.0499 41.9501 15.3613 32.5 15.3613Z" fill="#0796EF"/>
<path d="M21.3042 39.5137L32.0238 45.7026C32.1711 45.7874 32.3357 45.8301 32.4999 45.8301C32.6645 45.8301 32.8287 45.7874 32.976 45.7026L43.6956 39.5137C43.9901 39.3436 44.1716 39.0292 44.1716 38.689V26.3111C44.1716 25.9709 43.9901 25.6564 43.6956 25.4864L32.976 19.2974C32.6814 19.1273 32.3184 19.1273 32.0238 19.2974L21.3042 25.4864C21.0096 25.6564 20.8281 25.9709 20.8281 26.3111V38.689C20.8281 39.0292 21.0096 39.3436 21.3042 39.5137ZM22.7324 27.96L31.5477 33.0495V43.229L22.7324 38.1395V27.96ZM33.452 43.229V33.0495L42.2673 27.96V38.1395L33.452 43.229ZM32.4999 21.2215L41.3152 26.3111L32.4999 31.4006L23.6846 26.3111L32.4999 21.2215Z" fill="#0796EF"/>
</g>
<defs>
<clipPath id="clip0_112:119">
<rect width="65" height="65" fill="white"/>
</clipPath>
</defs>
</svg>
