<svg width="71" height="71" viewBox="0 0 71 71" fill="none" xmlns="http://www.w3.org/2000/svg">
<path d="M37.256 33.7459C36.7138 33.2037 35.836 33.2037 35.2938 33.7459C34.753 34.2867 34.753 35.1645 35.2938 35.7067C35.836 36.2475 36.7138 36.2475 37.256 35.7067C37.7968 35.1645 37.7968 34.2867 37.256 33.7459Z" fill="#0796EF"/>
<path d="M54.9051 16.0956C52.1954 13.3861 47.809 13.386 45.0992 16.0956C42.3966 18.7982 42.3965 23.1968 45.0996 25.9016C47.8031 28.6035 52.2018 28.6046 54.9051 25.9013C57.6144 23.192 57.615 18.8054 54.9051 16.0956ZM52.944 23.9401C51.3225 25.5617 48.683 25.5617 47.0607 23.9404C45.4389 22.3177 45.4388 19.6782 47.0604 18.0567C48.6861 16.431 51.3181 16.4308 52.944 18.0567C54.5696 19.6822 54.5699 22.3143 52.944 23.9401Z" fill="#0796EF"/>
<path d="M70.5935 0.406183C70.3212 0.13397 69.9495 -0.0135762 69.5632 0.000984291C69.2497 0.0122167 61.7843 0.312302 52.91 3.44892C45.7989 5.9597 39.8717 9.55449 35.2929 14.1334C34.2668 15.1595 33.2684 16.2475 32.3131 17.3778C27.7857 14.7128 24.1578 15.5484 21.8643 16.7758C16.5836 19.6019 13.3149 27.2755 13.3149 32.7641C13.3154 33.3249 13.6533 33.8306 14.1714 34.0451C14.3429 34.1163 14.5232 34.1508 14.7018 34.1508C15.0628 34.1508 15.4173 34.0098 15.6826 33.7446C18.4676 30.9597 21.9026 31.1339 23.0247 31.2814L23.5104 31.767C22.5546 34.0413 21.7847 36.3027 21.2201 38.5022C21.0162 39.2982 21.085 40.1404 21.388 40.9109C20.0529 41.5262 18.7647 42.4296 17.6432 43.5512C14.0736 47.1209 13.3488 55.8203 13.3197 56.1889C13.2878 56.5934 13.4345 56.9917 13.7214 57.2786C13.9825 57.5396 14.3357 57.6848 14.7018 57.6848C14.7381 57.6848 14.7746 57.6834 14.8111 57.6805C15.1797 57.6515 23.8794 56.9267 27.4489 53.3571C28.5701 52.2359 29.4734 50.948 30.0887 49.6131C30.9043 49.9339 31.7438 49.9734 32.4988 49.7799C34.6973 49.2154 36.9585 48.4458 39.2329 47.4899L39.7186 47.9755C39.866 49.0978 40.0401 52.5328 37.2553 55.3175C36.8589 55.7141 36.7402 56.3105 36.9548 56.8286C37.1694 57.3468 37.675 57.6846 38.2359 57.6846C43.7245 57.6846 51.3979 54.416 54.224 49.1352C55.4514 46.842 56.2871 43.2141 53.6221 38.6866C54.7518 37.7317 55.84 36.7333 56.8664 35.7068C61.4454 31.1279 65.04 25.2007 67.5508 18.0901C70.6875 9.21544 70.9875 1.74991 70.9987 1.43651C71.0126 1.0517 70.8657 0.678534 70.5935 0.406183ZM16.4154 29.7814C17.2768 25.6125 19.7788 21.0379 23.1735 19.221C25.442 18.0071 27.9216 18.1261 30.5581 19.5692C28.312 22.5232 26.3594 25.7057 24.7318 29.0664C24.7111 29.0537 24.4615 28.7398 23.9978 28.6353C23.8071 28.5922 20.138 27.803 16.4154 29.7814ZM25.4878 51.3959C23.5811 53.3026 19.1082 54.3083 16.2811 54.7189C16.6919 51.8916 17.6977 47.4189 19.6043 45.5123C20.672 44.4445 21.9101 43.635 23.1545 43.179L27.8211 47.8456C27.3651 49.09 26.5557 50.3281 25.4878 51.3959ZM31.8099 47.0933C31.4085 47.1961 30.9437 47.0452 30.5981 46.7002C28.8041 44.9062 28.1023 44.2044 27.8821 43.9843C27.4783 43.5805 26.4881 42.5902 24.3008 40.4028C23.9549 40.0563 23.8041 39.5916 23.9065 39.191C24.3507 37.4612 24.9316 35.6865 25.638 33.8947L37.1054 45.3621C35.3134 46.0687 33.5389 46.6494 31.8099 47.0933ZM51.7791 47.8266C49.9622 51.2211 45.3877 53.7233 41.219 54.5846C42.5482 52.0834 42.8412 48.8994 42.3555 46.9686C42.2428 46.5202 41.9502 46.2947 41.9338 46.2682C45.2943 44.6406 48.4767 42.688 51.4309 40.4419C52.8741 43.0786 52.9929 45.5585 51.7791 47.8266ZM54.9056 33.7458C53.656 34.9952 52.3105 36.2023 50.9063 37.3335C47.5308 40.0514 43.8155 42.3537 39.8517 44.1863L26.8138 31.1487C28.6465 27.1846 30.9487 23.4694 33.6664 20.0942C34.7985 18.6891 36.0055 17.3434 37.2545 16.0945C41.3627 11.9862 46.6646 8.71663 53.0175 6.3631L64.637 17.9827C62.2838 24.3354 59.0142 29.6373 54.9056 33.7458ZM65.6348 15.0579L55.9422 5.36536C61.2229 3.72515 65.817 3.11097 68.1101 2.89021C67.8892 5.1837 67.2748 9.77775 65.6348 15.0579Z" fill="#0796EF"/>
<path d="M33.3328 57.2782C32.791 56.7367 31.9129 56.737 31.3715 57.2785L27.4499 61.2015C26.9085 61.7431 26.9087 62.6212 27.4502 63.1626C27.992 63.704 28.87 63.704 29.4114 63.1623L33.333 59.2393C33.8744 58.6976 33.8743 57.8196 33.3328 57.2782Z" fill="#0796EF"/>
<path d="M13.7221 37.6675C13.1807 37.1258 12.3028 37.1258 11.761 37.6672L7.83798 41.5888C7.29633 42.1302 7.29619 43.0083 7.83757 43.5499C8.3788 44.0913 9.25673 44.0919 9.79866 43.5502L13.7217 39.6286C14.2633 39.0872 14.2635 38.2091 13.7221 37.6675Z" fill="#0796EF"/>
<path d="M23.5276 59.2405C22.9863 58.699 22.1081 58.699 21.5665 59.2404L12.1729 68.6326C11.6312 69.1741 11.6312 70.0522 12.1727 70.5937C12.714 71.1352 13.5922 71.1355 14.1338 70.5939L23.5274 61.2016C24.0691 60.6601 24.0691 59.782 23.5276 59.2405Z" fill="#0796EF"/>
<path d="M12.4338 59.2405C11.8924 58.699 11.0142 58.699 10.4727 59.2404L1.07911 68.6326C0.537456 69.1741 0.537456 70.0522 1.07897 70.5937C1.6202 71.1352 2.49841 71.1355 3.04006 70.5939L12.4337 61.2016C12.9753 60.6601 12.9753 59.782 12.4338 59.2405Z" fill="#0796EF"/>
<path d="M11.7594 47.4725C11.2181 46.9312 10.3399 46.9312 9.79835 47.4727L0.406117 56.8663C-0.135395 57.4079 -0.135395 58.2859 0.406256 58.8275C0.947769 59.369 1.82584 59.369 2.36735 58.8274L11.7596 49.4338C12.3011 48.8921 12.3011 48.0142 11.7594 47.4725Z" fill="#0796EF"/>
<path d="M43.1382 27.8618C42.5966 27.3203 41.7188 27.3203 41.177 27.8618L39.2162 29.8226C38.6747 30.3641 38.6747 31.2422 39.2162 31.7838C39.7578 32.3253 40.6358 32.3253 41.1774 31.7838L43.1382 29.823C43.6797 29.2815 43.6797 28.4034 43.1382 27.8618Z" fill="#0796EF"/>
</svg>
