<svg width="1920" height="98" viewBox="0 0 1920 98" fill="none" xmlns="http://www.w3.org/2000/svg">
<path fill-rule="evenodd" clip-rule="evenodd" d="M1929 32.814L1847.58 41.2083C1766.17 49.6025 1603.33 66.0095 1440.5 79.7456C1277.67 93.4817 1114.83 104.547 952 93.4817C789.167 82.4166 626.333 49.6026 463.5 41.2084C300.667 32.8141 137.833 49.6027 56.4166 57.6154L-25 66.0097L-25 0.000247118L56.4166 0.00024C137.833 0.000232883 300.667 0.000218647 463.5 0.000204412C626.333 0.000190177 789.167 0.000175941 952 0.000161706C1114.83 0.000147471 1277.67 0.000133235 1440.5 0.000119C1603.33 0.000104765 1766.17 9.05293e-05 1847.58 8.34116e-05L1929 7.62939e-05L1929 32.814Z" fill="white"/>
</svg>
