<svg width="81" height="81" viewBox="0 0 81 81" fill="none" xmlns="http://www.w3.org/2000/svg">
<path d="M80.7408 34.104L67.7698 14.3246C67.4772 13.8788 66.9802 13.6102 66.447 13.6102H14.6145C14.0824 13.6102 13.5861 13.8775 13.2935 14.3219L0.301513 34.0423C0.239656 34.1275 0.186025 34.2196 0.141253 34.318C-0.115194 34.8834 -0.0171079 35.5465 0.392005 36.0135L6.97721 43.5324C7.55291 44.1897 8.55212 44.2559 9.2093 43.6803C9.86647 43.1046 9.9326 42.1052 9.35706 41.4482L5.07023 36.5533H26.3487L37.0412 73.0582L24.9584 59.2621C24.3829 58.6047 23.3833 58.5386 22.7263 59.1141C22.0692 59.6898 22.003 60.6892 22.5786 61.3462L39.3149 80.4557C39.6151 80.7987 40.0491 80.9955 40.5049 80.9955C40.9608 80.9955 41.3945 80.7987 41.6947 80.4556L59.5131 60.1056C60.0888 59.4483 60.0226 58.4489 59.3651 57.8735C58.7076 57.2978 57.7082 57.3641 57.133 58.0216L43.9689 73.0561L54.6609 36.5531H75.9305L66.093 47.7887C65.5173 48.446 65.5835 49.4454 66.241 50.0208C66.5412 50.2837 66.9126 50.4126 67.2825 50.4126C67.7226 50.4126 68.1605 50.2299 68.4731 49.8727L80.6083 36.0133C81.0762 35.4789 81.1305 34.698 80.7408 34.104ZM4.52032 33.3895L14.6113 18.0721L24.6564 33.3895H4.52032ZM17.5434 16.7741H37.5756L27.5596 32.0472L17.5434 16.7741ZM40.5047 18.0767L50.5467 33.3895H30.4628L40.5047 18.0767ZM40.5047 73.6282L29.6453 36.5533H51.3641L40.5047 73.6282ZM53.4758 32.0869L43.4338 16.7741H63.5181L53.4758 32.0869ZM56.4049 33.3895L66.447 18.0767L76.4888 33.3895H56.4049Z" fill="white"/>
<path d="M24.8678 51.7351C20.7872 51.7351 17.4673 48.4152 17.4673 44.3347C17.4673 43.4611 16.7591 42.7528 15.8855 42.7528C15.0119 42.7528 14.3036 43.4611 14.3036 44.3347C14.3036 48.4152 10.9837 51.7351 6.90316 51.7351C6.02972 51.7351 5.32129 52.4434 5.32129 53.317C5.32129 54.1906 6.02972 54.8989 6.90316 54.8989C10.9837 54.8989 14.3036 58.2187 14.3036 62.2993C14.3036 63.1729 15.012 63.8811 15.8855 63.8811C16.7589 63.8811 17.4673 63.1729 17.4673 62.2993C17.4673 58.2187 20.7872 54.8989 24.8678 54.8989C25.7414 54.8989 26.4496 54.1906 26.4496 53.317C26.4496 52.4434 25.7414 51.7351 24.8678 51.7351ZM15.8855 56.7438C15.0231 55.3545 13.848 54.1795 12.4588 53.317C13.848 52.4546 15.0229 51.2796 15.8855 49.8901C16.7478 51.2795 17.923 52.4545 19.3121 53.317C17.923 54.1795 16.748 55.3543 15.8855 56.7438Z" fill="white"/>
<path d="M79.4181 6.33177C76.8014 6.33177 74.6725 4.20283 74.6725 1.58615C74.6725 0.712548 73.9641 0.00427246 73.0906 0.00427246C72.2172 0.00427246 71.5088 0.712548 71.5088 1.58615C71.5088 4.20283 69.3798 6.33177 66.7631 6.33177C65.8897 6.33177 65.1813 7.04004 65.1813 7.91364C65.1813 8.78724 65.8897 9.49551 66.7631 9.49551C69.3798 9.49551 71.5088 11.6245 71.5088 14.2411C71.5088 15.1147 72.2172 15.823 73.0906 15.823C73.9641 15.823 74.6725 15.1147 74.6725 14.2411C74.6725 11.6245 76.8014 9.49551 79.4181 9.49551C80.2916 9.49551 81 8.78724 81 7.91364C81 7.04004 80.2916 6.33177 79.4181 6.33177ZM73.0906 9.50042C72.6393 8.89956 72.1047 8.36499 71.5039 7.91364C72.1047 7.46228 72.6393 6.92772 73.0906 6.32686C73.542 6.92772 74.0766 7.46228 74.6774 7.91364C74.0766 8.36483 73.5418 8.89956 73.0906 9.50042Z" fill="white"/>
<path d="M63.7215 53.0567C63.4274 52.7609 63.0193 52.5932 62.6034 52.5932C62.1871 52.5932 61.7809 52.7609 61.485 53.0567C61.1908 53.351 61.0215 53.7592 61.0215 54.1751C61.0215 54.591 61.1906 54.9992 61.485 55.2934C61.7793 55.5877 62.1871 55.7569 62.6034 55.7569C63.0194 55.7569 63.4274 55.5877 63.7215 55.2934C64.0158 54.9992 64.1852 54.591 64.1852 54.1751C64.1852 53.7592 64.0159 53.351 63.7215 53.0567Z" fill="white"/>
</svg>
