<svg width="81" height="81" viewBox="0 0 81 81" fill="none" xmlns="http://www.w3.org/2000/svg">
<path d="M27.4175 80.999C18.4134 51.3292 37.4388 40.4959 37.4388 40.4959C36.1077 56.328 45.1047 68.6623 45.1047 68.6623C48.4136 67.664 54.7295 62.9979 54.7295 62.9979C54.7295 68.6623 51.3969 80.9919 51.3969 80.9919C51.3969 80.9919 63.0633 71.9713 66.7357 56.9889C70.4034 42.0065 59.7496 26.965 59.7496 26.965C60.3915 37.5693 56.8041 47.9989 49.7755 55.9669C50.1271 55.561 50.4222 55.1102 50.6487 54.6216C51.9114 52.0962 53.9388 45.5326 52.7517 30.333C51.0806 8.997 31.7484 0 31.7484 0C33.4147 12.9999 28.4182 15.9949 16.7141 40.6706C5.00996 65.3415 27.4175 80.999 27.4175 80.999Z" fill="white"/>
</svg>
