<svg width="69" height="69" viewBox="0 0 69 69" fill="none" xmlns="http://www.w3.org/2000/svg">
<path d="M68.4079 53.3012L57.4745 42.3666L57.2493 39.5953L60.2626 37.759C61.1148 37.2396 61.4605 36.176 61.0764 35.2547L59.7186 31.998L62.0167 29.3205C62.6666 28.5632 62.6668 27.4449 62.0169 26.6874L59.7185 24.009L61.0764 20.7521C61.4605 19.831 61.1148 18.7672 60.2626 18.2479L57.2493 16.4115L57.535 12.895C57.6159 11.9001 56.9584 10.9952 55.9874 10.7645L52.5546 9.94926L51.7392 6.51557C51.5086 5.54432 50.6017 4.88733 49.6088 4.96779L46.0911 5.25349L44.2547 2.24013C43.7353 1.38761 42.6711 1.04247 41.7502 1.42642L38.4937 2.78512L35.8167 0.487237C35.0595 -0.162738 33.9408 -0.162738 33.1836 0.487237L30.5063 2.78512L27.2497 1.42655C26.3283 1.04234 25.2647 1.38788 24.7452 2.24027L22.9088 5.25363L19.3911 4.96792C18.3963 4.88828 17.4915 5.54445 17.2607 6.51571L16.4453 9.9494L13.0125 10.7646C12.0415 10.9953 11.384 11.9003 11.4649 12.8951L11.7506 16.4117L8.73736 18.248C7.8851 18.7674 7.53942 19.831 7.92351 20.7522L9.2814 24.0091L6.98298 26.6876C6.33314 27.4449 6.33327 28.5632 6.98325 29.3206L9.28127 31.9981L7.92351 35.2549C7.53942 36.176 7.8851 37.2397 8.73736 37.7591L11.7506 39.5954L11.5254 42.3667L0.592258 53.3012C0.0968595 53.7966 -0.106771 54.5131 0.0542736 55.1951C0.215184 55.877 0.717859 56.4268 1.38239 56.6484L9.60956 59.3904L12.3516 67.6176C12.5732 68.2823 13.123 68.7848 13.8049 68.9457C14.4869 69.1066 15.2034 68.9031 15.6988 68.4077L30.7105 53.3973L33.1833 55.5205C33.9369 56.1675 35.0556 56.1743 35.817 55.5205L38.2898 53.3973L53.3015 68.4076C53.7969 68.903 54.5135 69.1066 55.1954 68.9456C55.8773 68.7847 56.4271 68.282 56.6487 67.6175L59.3908 59.3903L67.6179 56.6482C68.2826 56.4267 68.7851 55.8768 68.946 55.1949C69.107 54.5131 68.9033 53.7965 68.4079 53.3012V53.3012ZM15.1535 63.2361L13.1253 57.152C12.9241 56.5484 12.4503 56.0747 11.8468 55.8735L5.76402 53.8461L14.1076 45.5023L16.4454 46.0577L17.261 49.4914C17.4917 50.4626 18.3994 51.1196 19.3914 51.0392L22.909 50.7535L24.6991 53.6909L15.1535 63.2361ZM43.2872 47.5858L41.7056 50.1811L38.9009 49.0109C38.1962 48.7169 37.3854 48.8452 36.8057 49.3429L34.5001 51.3224L32.1945 49.3429C31.3839 48.6468 30.4721 48.8554 30.0993 49.0109L27.2946 50.1811L25.713 47.5858C25.3157 46.9338 24.5861 46.5614 23.8233 46.6229L20.7936 46.869L20.0912 43.9117C19.9148 43.1686 19.3346 42.5885 18.5917 42.412L15.6353 41.7097L15.8814 38.681C15.9433 37.9197 15.5706 37.1886 14.9184 36.7912L12.3228 35.2095L13.4923 32.4046C13.7862 31.6998 13.6579 30.8895 13.1604 30.3101L11.1811 28.0039L13.1605 25.697C13.6576 25.1175 13.7861 24.3075 13.4922 23.6026L12.3227 20.7978L14.9182 19.216C15.5705 18.8185 15.943 18.0874 15.8813 17.3262L15.6352 14.2975L18.5915 13.5953C19.3345 13.4189 19.9147 12.8388 20.0911 12.0957L20.7935 9.13838L23.8232 9.38433C24.5844 9.44672 25.3154 9.07369 25.7128 8.42143L27.2944 5.82611L30.0992 6.99628C30.8037 7.2902 31.6145 7.16204 32.1941 6.66462L34.5001 4.68532L36.8059 6.66462C37.3857 7.16218 38.196 7.2902 38.9009 6.99628L41.7056 5.82611L43.2872 8.42143C43.6846 9.07356 44.4147 9.44699 45.1769 9.38433L48.2066 9.13838L48.909 12.0957C49.0854 12.8388 49.6655 13.4189 50.4085 13.5953L53.3648 14.2975L53.1188 17.3262C53.0569 18.0875 53.4295 18.8186 54.0818 19.216L56.6774 20.7978L55.5079 23.6026C55.214 24.3073 55.3423 25.1175 55.8395 25.697L57.819 28.0039L55.8397 30.3101C55.3423 30.8895 55.2138 31.6998 55.5078 32.4046L56.6773 35.2095L54.0817 36.7912C53.4294 37.1888 53.0569 37.9199 53.1186 38.681L53.3647 41.7097L50.4084 42.412C49.6654 42.5885 49.0852 43.1686 48.9088 43.9117L48.2064 46.869L45.1768 46.6229C44.4156 46.561 43.6846 46.9335 43.2872 47.5858V47.5858ZM57.1534 55.8735C56.5498 56.0747 56.0761 56.5484 55.8749 57.152L53.8466 63.2361L44.3013 53.6908L46.0914 50.7533L49.6091 51.039C50.6009 51.1195 51.5087 50.4625 51.7394 49.4912L52.555 46.0575L54.8928 45.5022L63.2364 53.8459L57.1534 55.8735Z" fill="white"/>
<path d="M51.0861 22.2437L44.9619 16.1194C44.1725 15.33 42.8925 15.33 42.1031 16.1194L32.335 25.8875L27.9799 21.5326C27.1906 20.7431 25.9106 20.7431 25.1212 21.5326L18.9969 27.657C18.2074 28.4464 18.2074 29.7263 18.9969 30.5158L30.9057 42.4246C31.6952 43.2142 32.9753 43.2139 33.7645 42.4246L51.0863 25.1026C51.8757 24.3131 51.8757 23.0332 51.0861 22.2437ZM32.335 38.1362L23.285 29.0863L26.5505 25.8208L30.9056 30.1758C31.6949 30.9652 32.9749 30.9652 33.7643 30.1758L43.5324 20.4077L46.7979 23.6732L32.335 38.1362Z" fill="white"/>
</svg>
