<svg width="70" height="70" viewBox="0 0 70 70" fill="none" xmlns="http://www.w3.org/2000/svg">
<path d="M27.7523 50.8981C27.7522 50.8981 27.7521 50.8981 27.7519 50.8981C27.7492 50.8981 27.7467 50.8985 27.744 50.8985C26.3946 50.9077 25.939 50.8334 24.8803 50.1338C24.4122 49.8241 23.7846 49.9571 23.4782 50.4299C23.1718 50.903 23.3031 51.5373 23.7714 51.8467C24.9298 52.6124 25.7308 52.8546 26.739 52.9222V53.8354C26.739 54.4006 27.1924 54.8589 27.7519 54.8589C28.3115 54.8589 28.7649 54.4006 28.7649 53.8354V52.8363C30.8215 52.393 32.0239 50.6639 32.293 49.0471C32.644 46.9379 31.5527 45.1041 29.5127 44.3757C28.2795 43.9353 26.9128 43.401 26.1264 42.7778C25.7933 42.5139 25.6475 41.9718 25.7547 41.3969C25.8584 40.8405 26.2335 40.1657 26.9749 39.94C27.2611 39.853 27.5288 39.8086 27.7768 39.7944C27.7846 39.7943 27.7922 39.7936 27.7999 39.7932C28.8794 39.7394 29.5745 40.2648 29.7267 40.3928C30.1569 40.7542 30.7953 40.6952 31.1532 40.2607C31.511 39.8262 31.4526 39.1809 31.0226 38.8194C30.8106 38.6411 29.9981 38.0206 28.7647 37.8121V36.9968C28.7647 36.4315 28.3113 35.9733 27.7518 35.9733C27.1922 35.9733 26.7389 36.4315 26.7389 36.9968V37.8872C26.6243 37.9143 26.5086 37.9442 26.3905 37.9801C25.0432 38.3902 24.0366 39.5542 23.7637 41.0178C23.5142 42.3554 23.9405 43.6471 24.876 44.3885C25.6958 45.0382 26.8435 45.5936 28.8374 46.3057C30.4642 46.8866 30.3643 48.2912 30.2951 48.7079C30.1211 49.7541 29.2511 50.8843 27.7523 50.8981V50.8981Z" fill="white"/>
<path d="M66.9649 22.6354C66.9649 21.449 67.4854 19.9984 67.9888 18.5955C68.8301 16.2506 69.7001 13.8259 68.5483 11.8161C67.7185 10.3657 66.2187 9.77881 65.1627 9.46358C64.6265 9.30323 64.0628 9.61301 63.9044 10.155C63.7458 10.6972 64.0523 11.2665 64.5887 11.4266C65.738 11.7698 66.4389 12.2191 66.7949 12.8412C67.4737 14.0257 66.7988 15.9065 66.0843 17.8978C65.5213 19.467 64.9392 21.0894 64.9392 22.6354C64.9392 24.1816 65.5214 25.804 66.0843 27.3732C66.7988 29.3645 67.4737 31.2454 66.7946 32.4303C66.0774 33.683 64.0821 34.0322 61.9695 34.4019C60.3798 34.6802 58.7359 34.9677 57.4724 35.7071C56.2594 36.4159 55.2284 37.6824 54.2313 38.9073C52.9053 40.5364 51.5339 42.2208 50.0072 42.2208C48.4798 42.2208 47.1081 40.5357 45.7815 38.9061C44.7847 37.6817 43.754 36.4156 42.5423 35.7072C41.2779 34.9677 39.6338 34.68 38.0439 34.4018C35.9311 34.0321 33.9355 33.6829 33.2183 32.43C32.5401 31.2455 33.2147 29.3647 33.9289 27.3735C34.4918 25.8041 35.0739 24.1814 35.0739 22.6353C35.0739 21.0891 34.4918 19.4664 33.9289 17.8972C33.444 16.5453 32.9778 15.2446 32.9405 14.1777C32.9407 14.1726 32.9413 14.1674 32.9413 14.1622C32.9413 14.1439 32.9396 14.126 32.9386 14.1082C32.9303 13.6316 33.0108 13.2034 33.2185 12.8405C33.9359 11.5874 35.9319 11.2384 38.0453 10.8689C39.6347 10.591 41.278 10.3037 42.542 9.56497C43.7542 8.85645 44.7849 7.58992 45.7817 6.36515C47.1083 4.73536 48.48 3.04988 50.0072 3.04988C51.5339 3.04988 52.905 4.73467 54.231 6.36406C55.2283 7.58938 56.2594 8.85631 57.4716 9.5647C58.4611 10.1441 59.6628 10.4336 60.7076 10.6402C61.2575 10.7489 61.7888 10.3872 61.8963 9.83244C62.0038 9.27772 61.6459 8.74005 61.0969 8.63142C60.2166 8.45729 59.2183 8.22162 58.4867 7.79312C57.5911 7.26991 56.719 6.19839 55.7958 5.06396C54.2465 3.16042 52.4907 1.00305 50.0071 1.00305C47.523 1.00305 45.7667 3.1611 44.2169 5.06519C43.2939 6.19921 42.4221 7.27019 41.5275 7.79325C40.5763 8.34907 39.1139 8.60481 37.6997 8.85208C35.2203 9.28563 32.6564 9.73392 31.4646 11.8158C31.2218 12.24 31.0698 12.6826 30.9876 13.139H21.4843C19.1705 13.139 17.288 15.041 17.288 17.3789V45.694H12.1288C10.6579 45.694 9.36567 46.5343 8.75629 47.8871C8.14745 49.2389 8.36881 50.7739 9.33326 51.8926L13.4741 56.7016C13.6744 56.9343 13.9557 57.0533 14.2387 57.0533C14.4745 57.0533 14.7114 56.9706 14.9032 56.8019C15.3252 56.4309 15.3697 55.7844 15.0024 55.358L10.8612 50.5484C10.4179 50.0342 10.3203 49.3564 10.6001 48.7349C10.8803 48.1125 11.4519 47.7409 12.1285 47.7409H18.3005C18.8601 47.7409 19.3135 47.2827 19.3135 46.7174V17.3789C19.3135 16.1697 20.2871 15.1859 21.4839 15.1859H31.015C31.2027 16.3036 31.6163 17.4586 32.0239 18.595C32.5271 19.9981 33.0475 21.449 33.0475 22.6355C33.0475 23.8222 32.527 25.2731 32.0239 26.6761C31.1829 29.0207 30.3134 31.445 31.4642 33.4551C32.2831 34.8857 33.7501 35.545 35.3921 35.9582V46.7174C35.3921 47.2827 35.8455 47.7409 36.405 47.7409H42.5799C43.2562 47.7409 43.8275 48.1127 44.1079 48.7353C44.3877 49.3568 44.2904 50.0346 43.8468 50.549L30.0391 66.586C29.3631 67.3707 28.3849 67.8209 27.3549 67.821C27.3548 67.821 27.3547 67.821 27.3545 67.821C26.325 67.821 25.3469 67.3712 24.6713 66.5875L17.6619 58.446C17.2948 58.0194 16.655 57.9747 16.2328 58.3456C15.8108 58.7166 15.7663 59.3631 16.1335 59.7895L23.1433 67.9314C24.204 69.1622 25.739 69.868 27.3547 69.868H27.3553C28.9714 69.8677 30.5066 69.1612 31.5675 67.9296L45.3754 51.8927C46.3401 50.7737 46.5612 49.2389 45.9522 47.8871C45.3429 46.534 44.0508 45.6936 42.5803 45.6936H37.4184V36.3695C37.5117 36.386 37.605 36.4022 37.6981 36.4186C39.1128 36.6661 40.5757 36.922 41.5274 37.4787C42.4221 38.0017 43.2939 39.0726 44.2168 40.2062C45.7665 42.1099 47.523 44.2675 50.0071 44.2675C52.4907 44.2675 54.2467 42.1104 55.7958 40.2073C56.7189 39.0732 57.591 38.002 58.4871 37.4784C59.4379 36.9219 60.9006 36.666 62.3151 36.4185C64.7937 35.9846 67.3566 35.5362 68.5478 33.4551C69.7 31.4446 68.8301 29.02 67.9887 26.675C67.4854 25.2724 66.9649 23.8218 66.9649 22.6354V22.6354Z" fill="white"/>
<path d="M52.1268 25.5645C52.6365 25.7975 53.2365 25.5683 53.4669 25.0535C53.6974 24.5384 53.4709 23.9321 52.9612 23.6992L46.8336 20.9006C46.8247 20.8965 46.8155 20.8925 46.8064 20.8887C46.371 20.7053 45.8747 20.8045 45.5416 21.1418C45.2084 21.479 45.1111 21.981 45.2933 22.4204C45.2965 22.4282 45.2997 22.4358 45.3031 22.4433L48.0574 28.65C48.2259 29.0298 48.5953 29.2551 48.9822 29.2551C49.1208 29.2551 49.2615 29.2263 49.396 29.1653C49.9064 28.934 50.1348 28.3283 49.9059 27.8126L49.5056 26.9105L51.2389 25.1591L52.1268 25.5645ZM48.6187 24.9115L48.0903 23.7207L49.2658 24.2577L48.6187 24.9115Z" fill="white"/>
<path d="M54.708 23.4604C54.9114 23.4604 55.1161 23.3987 55.2923 23.2728C55.3825 23.2083 55.4237 23.1789 57.0081 21.5601C57.4014 21.1582 57.3979 20.5102 57 20.1128C56.6024 19.7154 55.961 19.7188 55.5676 20.1208C55.278 20.4167 54.9729 20.7274 54.7112 20.993L50.9159 17.1581C50.5202 16.7584 49.8789 16.7584 49.4833 17.1581C49.0877 17.5578 49.0877 18.2058 49.4833 18.6054L53.9914 23.1604C54.1875 23.3587 54.4468 23.4604 54.708 23.4604V23.4604Z" fill="white"/>
<path d="M58.4592 19.6778C58.7278 19.6778 58.9854 19.57 59.1755 19.378L61.0593 17.4746C61.4549 17.0749 61.4549 16.4268 61.0593 16.0272C60.6636 15.6275 60.0223 15.6275 59.6267 16.0272L58.4592 17.207L57.6563 16.3957L58.6849 15.3564C59.0806 14.9567 59.0806 14.3087 58.685 13.909C58.2893 13.5093 57.6479 13.5092 57.2526 13.909L56.2238 14.9483L55.4209 14.1371L56.5886 12.9573C56.9842 12.5576 56.9842 11.9096 56.5886 11.51C56.1929 11.1103 55.5516 11.1103 55.1561 11.51L53.2723 13.4134C52.8767 13.8131 52.8767 14.4612 53.2723 14.8607L57.7428 19.378C57.933 19.57 58.1905 19.6778 58.4592 19.6778V19.6778Z" fill="white"/>
<path d="M43.5631 31.3809C43.0024 31.3525 42.5291 31.7882 42.5017 32.3528C42.4742 32.9173 42.9048 33.3976 43.4637 33.4253C43.524 33.4283 43.5847 33.4298 43.6451 33.4298C44.6792 33.4298 45.7001 32.9925 46.471 32.2137C47.4957 31.1784 47.6976 29.6414 46.9513 28.5593C46.3846 27.738 45.1812 27.1392 43.5019 27.9211C42.7804 28.2572 42.0765 28.5416 41.8203 28.6433C41.7311 28.6445 41.6712 28.5911 41.6355 28.5428C41.5436 28.4189 41.549 28.2386 41.6501 28.0484C42.0366 27.3211 42.9746 27.2017 43.0112 27.1973C43.5642 27.1441 43.9722 26.6503 43.9242 26.0901C43.8761 25.5271 43.3844 25.1101 42.8277 25.1588C42.0715 25.225 40.5967 25.7041 39.8653 27.0801C39.3899 27.9745 39.4469 29.0052 40.0139 29.7701C40.549 30.492 41.4212 30.8257 42.29 30.6406C42.3423 30.6294 42.3937 30.6142 42.4436 30.5948C42.4815 30.5801 43.3861 30.2293 44.3503 29.78C44.7066 29.6141 45.1404 29.5138 45.2894 29.7298C45.4177 29.9159 45.4269 30.374 45.0386 30.7662C44.6322 31.1769 44.0803 31.4065 43.5631 31.3809V31.3809Z" fill="white"/>
<path d="M10.1244 21.4879L10.2107 21.1591C10.6491 19.4856 9.72168 17.7389 8.09936 17.1824L4.64 15.9958C3.78441 15.7024 2.83725 15.7817 2.04135 16.2132C1.24519 16.6447 0.656064 17.3982 0.42498 18.2806L0.210914 19.0979C-0.0203052 19.9803 0.122721 20.9297 0.603121 21.7026C1.08379 22.4755 1.86807 23.0179 2.75527 23.1905L6.34253 23.8886C6.5489 23.9288 6.75486 23.9481 6.9584 23.9481C8.41378 23.9479 9.73991 22.9562 10.1244 21.4879V21.4879ZM8.25238 20.635L8.16608 20.9639V20.9642C7.99915 21.6016 7.36627 22.0035 6.72556 21.8784L3.13815 21.1802C2.79538 21.1135 2.50433 20.9123 2.31862 20.6136C2.13292 20.3149 2.07984 19.9625 2.16925 19.6215L2.38332 18.8042C2.47273 18.4632 2.69125 18.1836 2.99904 18.0167C3.18353 17.9167 3.38396 17.866 3.58614 17.866C3.72093 17.866 3.85653 17.8886 3.98875 17.934L7.44812 19.1206C8.066 19.3325 8.41918 19.9979 8.25238 20.635V20.635Z" fill="white"/>
<path d="M6.93925 12.2477L9.7005 14.6648C10.3149 15.2024 11.0788 15.4684 11.8414 15.4684C12.6861 15.4684 13.529 15.1419 14.1638 14.4965L14.4012 14.2551C15.6089 13.0272 15.6702 11.0459 14.5404 9.74441L12.1317 6.96941C11.5362 6.28313 10.6768 5.87319 9.77384 5.84466C8.86976 5.81683 7.98784 6.17122 7.35104 6.81848L6.76111 7.41824C6.12418 8.06576 5.77843 8.96015 5.81206 9.87228C5.84555 10.7844 6.25653 11.6501 6.93925 12.2477V12.2477ZM8.19785 8.86121L8.78778 8.26145C9.02441 8.02086 9.33639 7.88986 9.67012 7.88986C9.68362 7.88986 9.69699 7.88999 9.7105 7.89054C10.0595 7.90159 10.3784 8.05362 10.6085 8.3189L13.0173 11.0942C13.4475 11.5898 13.4243 12.3445 12.9642 12.8121L12.7267 13.0535C12.267 13.5212 11.52 13.5495 11.0269 13.1177L8.26565 10.7006C8.00188 10.4697 7.8494 10.1485 7.8363 9.796C7.82347 9.44337 7.95178 9.11135 8.19785 8.86121V8.86121Z" fill="white"/>
<path d="M17.0139 8.09662C17.4783 9.45213 18.749 10.3204 20.1117 10.3204C20.3934 10.3204 20.6791 10.2833 20.9624 10.2057H20.9626L21.2874 10.1167C22.9409 9.66351 23.9745 7.97872 23.6401 6.28083L22.9275 2.66029C22.7513 1.76494 22.2098 0.975768 21.4419 0.495003C20.674 0.0142386 19.7335 -0.124273 18.8619 0.114404L18.0542 0.335749C17.1824 0.574562 16.4403 1.17446 16.0181 1.98137C15.5959 2.78829 15.5233 3.74586 15.8188 4.60832L17.0139 8.09662ZM17.8088 2.93813C17.972 2.62631 18.2474 2.40373 18.5842 2.31148L19.3918 2.09014C19.5012 2.06025 19.6117 2.04538 19.7214 2.04538C19.9496 2.04538 20.174 2.10965 20.3744 2.2352C20.6711 2.42106 20.8722 2.71392 20.9403 3.05985L21.6528 6.68039C21.7801 7.32696 21.3865 7.96876 20.7566 8.14138L20.4318 8.23036C19.8015 8.40312 19.1414 8.05009 18.9278 7.42713L17.7325 3.93896C17.6187 3.6053 17.6457 3.24995 17.8088 2.93813V2.93813Z" fill="white"/>
<path d="M66.4455 46.6768L62.8583 45.9787C61.1755 45.6509 59.5144 46.7056 59.0763 48.3792L58.99 48.7081C58.5516 50.3816 59.479 52.1283 61.1013 52.6848L64.5607 53.8714C64.9012 53.9882 65.2561 54.0459 65.6104 54.0459C66.1461 54.0459 66.6801 53.9138 67.1593 53.654C67.9555 53.2225 68.5446 52.469 68.7757 51.5866L68.9898 50.7693C69.221 49.8869 69.078 48.9375 68.5976 48.1646C68.117 47.3918 67.3326 46.8495 66.4455 46.6768V46.6768ZM67.0316 50.2457L66.8175 51.063C66.7281 51.404 66.5096 51.6836 66.2018 51.8505C65.8942 52.0171 65.5427 52.0466 65.2121 51.9332L61.7527 50.7466C61.1348 50.5347 60.7816 49.8694 60.9484 49.2323L61.0347 48.9034C61.0347 48.9034 61.0347 48.9033 61.0347 48.9031C61.1813 48.3439 61.6861 47.9662 62.2407 47.9662C62.3182 47.9662 62.3967 47.9735 62.4753 47.989L66.0627 48.6871C66.4054 48.7538 66.6965 48.955 66.8822 49.2537C67.0679 49.5524 67.1208 49.9045 67.0316 50.2457V50.2457Z" fill="white"/>
<path d="M62.2622 57.6196L59.501 55.2025C58.2062 54.0692 56.2457 54.1427 55.0377 55.3708L54.8003 55.6122C53.5926 56.8401 53.5313 58.8214 54.6611 60.1229L57.0698 62.898C57.6653 63.5843 58.5247 63.9942 59.4277 64.0228C59.4614 64.0239 59.4951 64.0244 59.5287 64.0244C60.3962 64.0244 61.2374 63.6722 61.8505 63.0491L62.4404 62.4493C63.0773 61.8018 63.4231 60.9074 63.3894 59.9953C63.3559 59.083 62.945 58.2172 62.2622 57.6196V57.6196ZM61.0036 61.0061L60.4137 61.6058C60.1676 61.856 59.837 61.9896 59.491 61.9768C59.142 61.9657 58.8231 61.8137 58.593 61.5484L56.1843 58.7731C55.754 58.2775 55.7772 57.5228 56.2373 57.0552L56.4748 56.8138C56.9346 56.3464 57.6816 56.318 58.1746 56.7496L60.936 59.1667C61.1997 59.3976 61.3522 59.7188 61.3653 60.0713C61.378 60.4239 61.2497 60.7559 61.0036 61.0061Z" fill="white"/>
<path d="M52.1864 61.7692C51.6259 60.1336 49.8916 59.2077 48.238 59.66H48.2378L47.913 59.749C46.2595 60.2022 45.2259 61.887 45.5603 63.5849L46.2729 67.2054C46.4491 68.1008 46.9906 68.89 47.7585 69.3707C48.2797 69.6971 48.8806 69.8658 49.4852 69.8658C49.7714 69.8658 50.0584 69.828 50.3384 69.7513L51.146 69.53C52.0178 69.2912 52.76 68.6913 53.1821 67.8843C53.6043 67.0774 53.677 66.1199 53.3815 65.2574L52.1864 61.7692ZM51.3913 66.9279C51.2281 67.2397 50.9528 67.4623 50.6159 67.5545L49.8083 67.7759C49.4716 67.868 49.1226 67.8168 48.8257 67.6309C48.529 67.4451 48.3279 67.1522 48.2598 66.8063L47.5473 63.1857C47.42 62.5392 47.8136 61.8974 48.4435 61.7247L48.7683 61.6358C49.3985 61.4633 50.0588 61.816 50.2723 62.439L51.4676 65.9272C51.5814 66.2606 51.5544 66.6159 51.3913 66.9279V66.9279Z" fill="white"/>
</svg>
