<svg width="170" height="170" viewBox="0 0 170 170" fill="none" xmlns="http://www.w3.org/2000/svg">
<ellipse cx="85" cy="84.6302" rx="85" ry="84.5573" fill="#0A0909"/>
<path d="M71.5485 48.7413C77.2846 47.1583 82.5609 46.4492 87.3768 46.423M122.938 66.4756C121.117 62.6867 118.865 59.3265 114.707 55.9183M81.3621 40.7662L87.3768 46.423M87.3768 46.423C92.9025 46.393 97.822 47.262 102.134 48.7413M92.6529 57.0314L102.134 48.7413M102.134 48.7413C106.786 50.3369 111.47 53.2646 114.707 55.9183M71.5485 37.3032C89.6984 26.2849 114.707 44.5363 114.707 55.9183M114.707 55.9183C110.275 68.9866 82.7339 74.4509 72.2872 67.0976C61.8405 59.7442 58.7115 57.3873 51.4993 57.0314L58.4638 46.423M63.0012 42.1304L65.9559 39.402M85.372 134.37C89.7315 132.982 93.6541 131.634 97.1904 130.223M125.998 98.1666C124.476 103.82 122.643 108.448 120.362 112.333M109.009 110.864L110.275 123.38M110.275 123.38C114.4 120.419 117.689 116.887 120.362 112.333M110.275 123.38C106.621 126.004 102.311 128.18 97.1904 130.223M128.214 110.024L120.362 112.333M97.1904 130.223C90.648 110.024 95.8008 93.4539 118.295 85.889C123.507 83.6499 125.402 81.7865 128.214 78.1237C150.321 107.444 127.267 137.348 97.1904 130.223ZM44.7459 67.0976C43.1929 71.6573 40.8488 75.7662 40.2571 79.5928M56.2478 119.993C52.7419 115.557 49.8537 111.535 47.5692 107.716M53.0822 98.1666L41.9835 94.7037M41.9835 94.7037C43.0221 98.9931 44.8763 103.214 47.5692 107.716M41.9835 94.7037C40.8239 89.9142 39.4149 85.0393 40.2571 79.5928M43.5852 116.111L47.5692 107.716M40.2571 79.5928C24.9074 94.7037 32.6103 133.216 75.8748 133.216C75.5451 125.429 75.0305 126.395 75.0305 113.278C75.0305 100.16 60.4684 80.957 40.2571 79.5928Z" stroke="white" stroke-width="2"/>
</svg>
