<svg width="170" height="170" viewBox="0 0 170 170" fill="none" xmlns="http://www.w3.org/2000/svg">
<ellipse cx="85" cy="84.6302" rx="85" ry="84.5573" fill="#0A0909"/>
<path d="M61.3268 113.85H57.2008L61.3268 142.328H77.2414L81.1316 113.85H77.2414M61.3268 113.85V105.945H69.2841M61.3268 113.85H77.2414M77.2414 113.85V105.945H69.2841M69.2841 105.945V71.0736M72.9516 45.5011C72.9634 44.5311 72.9785 43.7003 72.9975 43.0599C73.1393 38.2882 65.251 39.1607 65.0991 43.0599C64.9472 46.9592 64.8842 64.036 65.0361 67.9353C65.0361 72.7009 72.9344 72.7009 72.9344 67.9353C72.9344 67.6285 72.9341 67.2779 72.9335 66.8891M72.9516 45.5011C76.5834 41.6318 78.8918 40.1541 83.0178 41.8977M72.9516 45.5011C72.9266 47.5565 72.9161 50.2371 72.9134 53.0567M72.9134 53.0567C76.0411 49.5759 79.0097 47.3609 83.0178 49.2208M72.9134 53.0567C72.9111 55.4583 72.9143 57.9608 72.9189 60.2635M72.9189 60.2635C76.0162 56.8543 78.5381 55.0327 83.0178 56.6601M72.9189 60.2635C72.9242 62.8751 72.9311 65.2298 72.9335 66.8891M72.9335 66.8891C76.1441 63.4911 78.5381 61.5421 83.0178 63.402M56.2577 41.8977C52.6032 23.0669 89.0301 18.301 89.03 41.8977M89.03 41.8977L83.0178 37.0155M89.03 41.8977L94.9244 37.0155M92.6626 67.7836V50.3477H106.337V67.9353M106.337 67.9353H85.2358L91.6016 142.328H108.459L109.518 128.112M106.337 67.9353H114L113.249 78.0127M99.1463 120.672H110.072M110.072 120.672L109.518 128.112M110.072 120.672L110.67 112.652M104.098 128.112H109.518M89.03 56.6601H109.518M89.03 63.402H110.072M113.249 78.0127H99.1463V112.652H110.67M113.249 78.0127L110.67 112.652" stroke="white" stroke-width="2"/>
</svg>
