<svg width="98" height="81" fill="none" xmlns="http://www.w3.org/2000/svg"><g clip-path="url(#clip0)"><path d="M24.805 26.981h19.79v-1.504a8.33 8.33 0 012.502-5.837 8.403 8.403 0 015.9-2.398h23.284C73.317-.301 62.458 0 62.458 0H10.302c.963 0 14.503.564 14.503 26.981z" fill="#1673FF"/><path d="M44.594 26.982H3.24l9.177 51.856h78.16l-1.322-7.521-7.856-44.373-.283-1.58a9.862 9.862 0 00-3.39-5.849 9.94 9.94 0 00-6.373-2.31H54.508a9.936 9.936 0 00-6.977 2.857 9.85 9.85 0 00-2.937 6.92z" stroke="#040F1F" stroke-width="4"/><path d="M90.576 78.837l5.08-54.526a6.421 6.421 0 00-1.664-4.947 6.467 6.467 0 00-2.174-1.556 6.503 6.503 0 00-2.62-.547h-2.02M30.166 39.09l14.2 13.443M54.622 38.45L34.114 66.617m15.673-8.95l8.8 8.31" stroke="#040F1F" stroke-width="4"/></g><defs><clipPath id="clip0"><path fill="#fff" transform="translate(.466)" d="M0 0h97.067v81H0z"/></clipPath></defs></svg>