<svg width="48" height="47" fill="none" xmlns="http://www.w3.org/2000/svg"><mask id="a" maskUnits="userSpaceOnUse" x="0" y="0" width="48" height="47"><path d="M.48 0h47.04v47H.48V0z" fill="#fff"/></mask><g mask="url(#a)"><path d="M47.52 23.5C47.52 36.478 36.989 47 24 47 11.01 47 .48 36.478.48 23.5S11.01 0 24 0c12.989 0 23.52 10.522 23.52 23.5z" fill="#00765F"/></g><path d="M24.735 25.403v5.723c1.88-.189 3.412-1.033 3.412-2.815 0-1.721-1.378-2.344-3.412-2.908zm-1.907-4.784v-5.252c-2.037.186-3.318 1.124-3.318 2.563 0 1.47 1.062 2.094 3.318 2.689zm0 14.133c-5.29-.313-8.263-2.94-8.389-7.285h4.414c.249 2.378 1.47 3.47 3.975 3.659v-6.161c-4.26-.97-7.764-2.033-7.764-6.567 0-4.157 3.224-6.378 7.764-6.597V9.737h1.907v2.095c4.288.376 7.042 2.751 7.356 6.817h-4.289c-.22-1.782-1.407-2.877-3.067-3.19v5.597c4.351.938 7.887 2.127 7.887 6.754 0 4.253-3.285 6.725-7.887 6.942v2.908h-1.907v-2.908z" fill="#72BF00"/></svg>