<svg width="42" height="42" viewBox="0 0 42 42" fill="none" xmlns="http://www.w3.org/2000/svg">
<path d="M7.06452 17.4255C4.78612 17.4255 2.90979 19.3021 2.90979 21.5809C2.90979 23.8596 4.78612 25.7362 7.06452 25.7362C9.34292 25.7362 11.2193 23.8596 11.2193 21.5809C11.2193 19.3021 9.34292 17.4255 7.06452 17.4255ZM7.06452 24.3957C5.50091 24.3957 4.25003 23.1447 4.25003 21.5809C4.25003 20.017 5.50091 18.766 7.06452 18.766C8.62813 18.766 9.87902 20.017 9.87902 21.5809C9.87902 23.1447 8.58346 24.3957 7.06452 24.3957Z" fill="white"/>
<path d="M20.4222 4.06543C18.1438 4.06543 16.2674 5.94203 16.2674 8.22075C16.2674 10.4995 18.1438 12.3761 20.4222 12.3761C22.7006 12.3761 24.5769 10.4995 24.5769 8.22075C24.5769 5.89734 22.7006 4.06543 20.4222 4.06543ZM20.4222 11.0356C18.8586 11.0356 17.6077 9.78458 17.6077 8.22075C17.6077 6.65692 18.8586 5.40586 20.4222 5.40586C21.9858 5.40586 23.2367 6.65692 23.2367 8.22075C23.2367 9.78458 21.9858 11.0356 20.4222 11.0356Z" fill="white"/>
<path d="M42 20.017C41.5086 8.93617 32.2163 0 21.003 0C9.61095 0 0.184622 9.20426 0.00592422 20.5979C-0.128099 26.183 2.01628 31.5 5.99231 35.5213C10.0577 39.6766 15.642 42 21.405 42H21.5837C24.5323 42 26.9 39.6319 26.9 36.683C26.9 33.734 24.5323 31.366 21.5837 31.366C20.3328 31.366 19.35 30.383 19.35 29.1319C19.35 28.6851 19.484 28.2383 19.7521 27.8809C20.2435 27.166 21.2263 26.8532 22.1645 27.0766L22.2985 27.1213C23.192 27.3447 23.9068 28.0149 24.3089 28.9532C25.2917 31.2319 27.5254 32.7511 30.0272 32.7511C36.4604 32.7064 41.866 27.4787 42 21V20.017ZM40.6598 21C40.5257 26.7191 35.7456 31.4106 29.9825 31.4106C28.0169 31.4106 26.2746 30.2489 25.5151 28.4617C24.9343 27.1213 23.9068 26.183 22.6112 25.8702L22.4772 25.8255C20.9583 25.4681 19.4394 26.0043 18.6352 27.166C18.2331 27.7468 18.0098 28.4617 18.0098 29.1766C18.0098 31.1426 19.618 32.7511 21.5837 32.7511C23.7728 32.7511 25.5598 34.5383 25.5598 36.7277C25.5598 38.917 23.7728 40.7043 21.5837 40.7043H21.405C16.0441 40.7043 10.7725 38.4702 6.97515 34.6277C3.22249 30.7851 1.25681 25.8255 1.34616 20.5979C1.52486 9.96383 10.3704 1.34043 21.003 1.34043C31.6802 1.34043 40.5257 10.0532 40.6598 20.7319V20.8213V21Z" fill="white"/>
<path d="M30.2953 6.96924C28.0169 6.96924 26.1406 8.84583 26.1406 11.1246C26.1406 13.4033 28.0169 15.2799 30.2953 15.2799C32.5737 15.2799 34.45 13.4033 34.45 11.1246C34.45 8.80115 32.6184 6.96924 30.2953 6.96924ZM30.2953 13.9395C28.7317 13.9395 27.4808 12.6884 27.4808 11.1246C27.4808 9.56073 28.7317 8.30966 30.2953 8.30966C31.8589 8.30966 33.1098 9.56073 33.1098 11.1246C33.1098 12.6884 31.8589 13.9395 30.2953 13.9395Z" fill="white"/>
<path d="M11.1298 8.71277C8.85143 8.71277 6.9751 10.5894 6.9751 12.8681C6.9751 15.1468 8.85143 17.0234 11.1298 17.0234C13.4082 17.0234 15.2846 15.1468 15.2846 12.8681C15.2846 10.5447 13.4082 8.71277 11.1298 8.71277ZM11.1298 15.683C9.56622 15.683 8.31533 14.4319 8.31533 12.8681C8.31533 11.3043 9.56622 10.0532 11.1298 10.0532C12.6934 10.0532 13.9443 11.3043 13.9443 12.8681C13.9443 14.4319 12.6934 15.683 11.1298 15.683Z" fill="white"/>
</svg>
