<svg width="131" height="131" fill="none" xmlns="http://www.w3.org/2000/svg"><circle cx="65.5" cy="65.5" r="63.5" stroke="#fff" stroke-width="4"/><path d="M78.89 36.645h-5.552v-3.802h-14.5v3.802h-5.267c-3.427 0-6.214 2.559-6.214 5.704v50.7c0 3.144 2.788 5.704 6.215 5.704H78.89c3.428 0 6.214-2.56 6.214-5.704v-50.7c0-3.145-2.786-5.704-6.214-5.704zm2.073 56.404c0 1.048-.93 1.901-2.072 1.901H53.57c-1.142 0-2.072-.851-2.072-1.9V42.348c0-1.048.93-1.901 2.072-1.901h25.32c1.142 0 2.072.853 2.072 1.901v50.7zm-2.26-.349H53.759v-8.342h24.945V92.7zm0-10.397H53.759v-8.342h24.945v8.342zm0-10.397H53.759v-8.343h24.945v8.343zm0-10.374H53.759V53.19h24.945v8.342zm0-10.397H53.759v-8.343h24.945v8.343z" fill="#fff"/></svg>