<svg width="100" height="101" fill="none" xmlns="http://www.w3.org/2000/svg"><g clip-path="url(#clip0)"><path d="M94.55 83.9c-9.817-5.275-17.347-8.232-24.05-9.366l.694-.967c.329-.333.493-.833.329-1.333l-1.542-6.248c.559-.8 1.086-1.627 1.58-2.478 6.13-2.114 9.229-5.687 9.75-10.948 2.692-.142 5.015-2.577 5.015-5.326v-12.5c0-2.737-2.148-5.162-4.963-5.324C81 19.78 76.81.9 50.139.9S19.28 19.782 18.916 29.41c-2.67.16-4.963 2.432-4.963 5.324v12.5c0 2.833 2.467 5.333 5.428 5.333h2.467c.907 0 1.778-.264 2.537-.716.933 5.017 2.991 9.95 5.913 14.135l-1.541 6.248c0 .333 0 .833.328 1.333l.694.966c-6.703 1.135-14.233 4.092-24.05 9.367C2.603 85.4.794 88.567.794 92.067v7.167c0 1 .658 1.666 1.645 1.666H97.84c.987 0 1.645-.666 1.645-1.666v-7.167c0-3.333-1.974-6.5-4.934-8.167zm-44.4-3.812l3.938 9.146h-7.95l4.012-9.146zm-5.207 12.479H55.33l.963 5h-12.34l.988-5zM67.41 69.234l.658 3-1.68 2.338a1.48 1.48 0 00-.294.328l-6.841 9.6-2.171 3.02-4.435-10.11c5.409-.668 10.225-3.461 14.087-7.463.228-.233.454-.47.676-.713zm6.423-10.368a36.434 36.434 0 002.07-7.061 5.14 5.14 0 002.107.728c-.285 2.356-1.318 4.58-4.177 6.333zm9.039-24.299v12.5c0 1-.823 2-1.974 2h-2.467c-.987 0-1.974-.833-1.974-2v-12.5c0-1 .823-2 1.974-2h2.467c.987 0 1.974.833 1.974 2zM50.139 4.234c10.139 0 27.202 3.353 27.935 25.194a5.17 5.17 0 00-1.946.61C74.126 17.346 63.206 7.567 50.139 7.567c-13.064 0-23.983 9.776-25.987 22.465a5.117 5.117 0 00-1.948-.605C22.938 7.587 40.001 4.234 50.14 4.234zM23.657 47.067c0 1-.822 2-1.974 2h-2.467c-.987 0-1.974-.833-1.974-2v-12.5c0-1 .823-2 1.974-2h2.467c.987 0 1.974.833 1.974 2v12.5zm3.454-12.833C27.111 21.4 37.474 10.9 50.14 10.9s23.029 10.5 23.029 23.334V45.9c0 5.514-1.417 10.563-3.714 14.822-3.926 1.154-9.574 1.845-17.67 1.845-.986 0-1.644.667-1.644 1.667s.658 1.666 1.645 1.666c5.926 0 10.882-.369 14.941-1.14l-.302.307a27.833 27.833 0 01-2.614 3.056c-3.873 3.656-8.492 5.871-12.944 6.09a1.832 1.832 0 00-.727-.146c-.252 0-.48.05-.685.149-2.724-.127-5.513-1.002-8.156-2.499-2.678-1.559-5.197-3.806-7.443-6.65l-.493-.5-.096-.032c-3.694-4.91-6.154-11.367-6.154-18.635V34.234zm20.52 43.176l-4.434 10.11-2.17-3.02-6.843-9.6a2.869 2.869 0 00-.17-.157l-1.803-2.51.657-3c.223.244.449.48.677.713 3.861 4.002 8.678 6.796 14.086 7.464zM4.084 92.067c0-2.167 1.151-4.167 3.125-5.167 10.484-5.643 18.032-8.476 24.755-9.322l9.816 13.675-1.247 6.314H4.083v-5.5zm92.111 5.5h-36.45L58.5 91.253l9.922-13.823c6.7 1.024 14.383 3.855 24.65 9.304 1.973 1.166 3.124 3.166 3.124 5.333v5.5z" fill="#fff"/></g><defs><clipPath id="clip0"><path fill="#fff" transform="translate(.794 .9)" d="M0 0h98.691v100H0z"/></clipPath></defs></svg>