<svg width="95" height="95" fill="none" xmlns="http://www.w3.org/2000/svg"><g clip-path="url(#clip0)" fill="#fff"><path d="M47.5 26.125a1.188 1.188 0 01-1.188-1.187v-4.75a1.188 1.188 0 012.376 0v4.75c0 .655-.532 1.187-1.188 1.187zm15.955 6.607a1.19 1.19 0 01-.84-.346 1.188 1.188 0 010-1.68l3.358-3.358a1.188 1.188 0 011.679 1.68l-3.358 3.358c-.23.23-.535.346-.839.346zm11.358 15.956h-4.75a1.188 1.188 0 010-2.375h4.75a1.188 1.188 0 010 2.375zm-7.999 19.313c-.304 0-.608-.116-.841-.347l-3.358-3.358a1.188 1.188 0 011.679-1.68l3.358 3.36A1.188 1.188 0 0166.814 68zM47.5 76a1.188 1.188 0 01-1.188-1.187v-4.75a1.188 1.188 0 012.376 0v4.75c0 .655-.532 1.187-1.188 1.187zm-19.313-7.999a1.188 1.188 0 01-.84-2.026l3.357-3.358a1.188 1.188 0 011.68 1.68l-3.359 3.357c-.23.23-.534.347-.838.347zm-3.249-19.313h-4.75a1.188 1.188 0 010-2.375h4.75a1.188 1.188 0 010 2.375zm6.607-15.956c-.304 0-.608-.116-.841-.346l-3.356-3.359a1.188 1.188 0 011.68-1.679l3.358 3.358a1.188 1.188 0 01-.841 2.026zM44.11 66.5a1.187 1.187 0 01-1.178-1.342l2.027-15.283h-8.147a1.19 1.19 0 01-.95-1.9l14.25-19a1.188 1.188 0 012.123.907L50.09 42.75h8.099c.436 0 .838.24 1.044.625.207.385.186.85-.052 1.218L45.104 65.968c-.226.34-.604.532-.993.532zm-4.922-19h7.124a1.188 1.188 0 011.178 1.344l-1.522 11.49 10.015-15.209h-7.295a1.187 1.187 0 01-1.171-1.382l1.574-9.448L39.187 47.5z"/></g><circle cx="47.5" cy="47.5" r="46.5" stroke="#fff" stroke-width="2"/><defs><clipPath id="clip0"><path fill="#fff" transform="translate(19 19)" d="M0 0h57v57H0z"/></clipPath></defs></svg>