<svg width="131" height="131" fill="none" xmlns="http://www.w3.org/2000/svg"><circle cx="65.5" cy="65.5" r="63.5" stroke="#fff" stroke-width="4"/><g clip-path="url(#clip0)" fill="#fff"><path d="M54.415 105.932l-.555-50.18c-3.466-.757-6.213-4.106-6.256-7.98-.044-3.975 2.536-7.284 6.078-8.118l-.148-13.414c-.011-.994.727-1.797 1.662-1.807.934-.01 1.69.776 1.701 1.77l.149 13.414c3.466.757 6.212 4.105 6.255 7.98.044 3.975-2.536 7.283-6.077 8.117l.555 50.181c.01.993-.728 1.797-1.663 1.807-.934.01-1.69-.776-1.701-1.77zm5.523-58.297c-.029-2.584-2.015-4.748-4.538-4.72-2.43.027-4.46 2.235-4.432 4.819.029 2.584 2.015 4.748 4.538 4.72 2.429-.027 4.461-2.136 4.432-4.82zm17.461 57.943l-.173-15.6c-3.466-.757-6.213-4.106-6.256-7.981-.043-3.975 2.536-7.283 6.078-8.117l-.53-47.895c-.01-.993.728-1.797 1.663-1.807.934-.01 1.69.776 1.701 1.77l.529 47.796c3.465.756 6.213 4.105 6.255 7.98.044 3.975-2.536 7.283-6.077 8.117l.173 15.7c.011.994-.728 1.797-1.662 1.807-.934.01-1.69-.776-1.701-1.77zm5.997-23.818c-.028-2.583-2.015-4.748-4.537-4.72-2.523.028-4.461 2.236-4.433 4.82.029 2.583 2.015 4.747 4.538 4.72 2.523-.028 4.462-2.137 4.432-4.82z"/></g><defs><clipPath id="clip0"><path fill="#fff" transform="scale(1 -1) rotate(-89.367 -4.571 -20.522)" d="M0 0h83.275v78.303H0z"/></clipPath></defs></svg>