<svg width="1440" height="86" viewBox="0 0 1440 86" fill="none" xmlns="http://www.w3.org/2000/svg">
<path fill-rule="evenodd" clip-rule="evenodd" d="M1440 11.9876L1379.71 29.9689C1319.42 47.9501 1198.83 83.9126 1078.25 85.9105C957.667 87.9085 837.083 55.9418 716.5 49.9481C595.917 43.9543 475.333 63.9335 354.75 63.9335C234.167 63.9335 113.583 43.9544 53.2916 33.9648L-7.00001 23.9752L-7.00001 0.000240942L53.2916 0.000235671C113.583 0.0002304 234.167 0.000219858 354.75 0.000209316C475.333 0.000198775 595.917 0.000188233 716.5 0.000177691C837.083 0.00016715 957.667 0.000156608 1078.25 0.000146066C1198.83 0.000135524 1319.42 0.000124983 1379.71 0.000119712L1440 0.000114441L1440 11.9876Z" fill="#C64244"/>
</svg>
