<svg width="1440" height="115" viewBox="0 0 1440 115" fill="none" xmlns="http://www.w3.org/2000/svg">
<path fill-rule="evenodd" clip-rule="evenodd" d="M-4 98.9702L56.2917 74.9256C116.583 50.8809 237.167 2.79162 357.75 0.119989C478.333 -2.55164 598.917 40.1944 719.5 48.2093C840.083 56.2242 960.667 29.5079 1081.25 29.5079C1201.83 29.5079 1322.42 56.2242 1382.71 69.5823L1443 82.9405V115H1382.71C1322.42 115 1201.83 115 1081.25 115C960.667 115 840.083 115 719.5 115C598.917 115 478.333 115 357.75 115C237.167 115 116.583 115 56.2917 115H-4V98.9702Z" fill="#ECEFF4"/>
</svg>
