<svg width="26" height="25" viewBox="0 0 26 25" fill="none" xmlns="http://www.w3.org/2000/svg">
<path d="M10.1522 9.72577C8.47457 6.32017 8.98397 2.73992 12.9386 1C16.8148 2.61798 17.3678 6.29201 15.4303 10.0107C17.9565 7.4188 21.3365 6.23578 25 9.74404C24.3425 13.7876 21.0021 15.3184 16.8616 14.6357C20.5489 16.4455 22.3492 19.7949 20.3516 23.9256C16.2209 24.5212 13.6967 21.4512 12.9264 17.9691C12.2048 22.4386 9.199 24.2104 5.64806 23.7541C3.47611 19.9579 5.58383 16.4666 9.10521 14.6367C5.05144 15.4772 1.86619 14.438 1 9.98898C3.92846 6.75873 7.42648 7.27828 10.1522 9.72577Z" fill="#884270" fill-opacity="0.96"/>
<path d="M12.939 13.418C8.58422 9.30317 7.48292 3.40033 12.9386 1C18.0149 3.11896 17.3917 8.76432 12.939 13.418ZM12.939 13.418C15.4133 9.00925 19.9357 4.89441 25 9.74404C24.1437 15.0101 18.7373 16.0143 12.939 13.418ZM12.939 13.418C11.7891 18.0472 14.4066 24.7828 20.3516 23.9256C22.9694 18.5126 19.065 14.4412 12.939 13.418ZM12.939 13.418C7.43462 14.2018 2.76133 18.7085 5.64806 23.7541C10.223 24.3419 13.8932 21.2313 12.939 13.418ZM12.939 13.418C10.28 8.27446 5.08569 5.48224 1 9.98898C2.1254 15.7694 7.16554 15.7938 12.939 13.418ZM12.939 13.418V7.44169M12.939 13.418C13.0868 13.2613 16.915 12.2097 18.8107 11.7035L12.939 13.418ZM12.939 13.418L16.6088 18.684M12.939 13.418L9.2203 18.684M12.939 13.418L7.0429 11.7035" stroke="#754063"/>
</svg>
