<svg viewBox="0 0 102 27" fill="none"><path clip-rule="evenodd" d="M13.5 27C20.956 27 27 20.956 27 13.5S20.956 0 13.5 0 0 6.044 0 13.5 6.044 27 13.5 27zM21 6H6v15h15V6z"/><path d="M34 23.73V4.08h6.824c2.364 0 4.157.459 5.38 1.376 1.221.909 1.832 2.245 1.832 4.009 0 .962-.245 1.813-.736 2.55-.49.73-1.173 1.265-2.047 1.606 1 .252 1.784.76 2.355 1.525.58.765.87 1.701.87 2.808 0 1.89-.598 3.32-1.793 4.291-1.196.972-2.9 1.467-5.112 1.485H34zm4.014-8.556v5.303h3.439c.945 0 1.681-.224 2.208-.674.535-.46.803-1.089.803-1.89 0-1.8-.924-2.713-2.77-2.74h-3.68zm0-2.862h2.97c2.026-.036 3.038-.85 3.038-2.442 0-.891-.259-1.53-.776-1.917-.509-.396-1.316-.594-2.422-.594h-2.81v4.953zM55.329 23.73h-3.88V3h3.88v20.73zm11.587 0c-.178-.35-.308-.787-.388-1.31-.937 1.054-2.154 1.58-3.653 1.58-1.418 0-2.596-.414-3.532-1.242-.928-.827-1.392-1.871-1.392-3.13 0-1.548.567-2.736 1.7-3.564 1.141-.828 2.787-1.246 4.937-1.255h1.78v-.837c0-.674-.174-1.214-.522-1.62-.34-.404-.879-.607-1.62-.607-.65 0-1.163.158-1.538.473-.366.315-.549.747-.549 1.296h-3.867c0-.846.259-1.629.776-2.349.518-.72 1.25-1.282 2.195-1.687.945-.414 2.007-.62 3.184-.62 1.784 0 3.198.454 4.242 1.362 1.053.9 1.579 2.169 1.579 3.806v6.33c.009 1.386.2 2.434.575 3.145v.23h-3.907zm-3.198-2.713c.571 0 1.097-.126 1.58-.377.48-.262.838-.608 1.07-1.04v-2.51h-1.445c-1.936 0-2.967.675-3.091 2.024l-.014.23c0 .486.17.886.509 1.201.339.315.803.472 1.391.472zm13.06-11.89l.12 1.687c1.035-1.304 2.422-1.957 4.161-1.957 1.535 0 2.677.455 3.426 1.363.75.91 1.133 2.268 1.15 4.076v9.434H81.77v-9.34c0-.827-.179-1.425-.536-1.794-.356-.378-.95-.567-1.78-.567-1.088 0-1.904.468-2.448 1.403V23.73h-3.867V9.127h3.64zm17.06 8.746l-1.392 1.403v4.454H88.58V3h3.867v11.485l.75-.971 3.706-4.387h4.643l-5.232 6.087L102 23.73h-4.442l-3.72-5.857z"/></svg>