<svg width="28" height="28" viewBox="0 0 28 28" fill="none" xmlns="http://www.w3.org/2000/svg">
<g clip-path="url(#clip0)">
<path d="M10.6322 20.0215L5.68494 25.0288C5.50808 25.186 5.36496 25.3783 5.26444 25.5937C5.16391 25.8091 5.10812 26.0431 5.10051 26.2813C5.0929 26.5194 5.13363 26.7566 5.22018 26.9781C5.30673 27.1997 5.43727 27.4009 5.60372 27.5694C5.77016 27.7378 5.96899 27.87 6.18789 27.9576C6.4068 28.0452 6.64113 28.0864 6.8764 28.0787C7.11167 28.071 7.34288 28.0145 7.55573 27.9128C7.76858 27.811 7.95855 27.6662 8.11389 27.4872L13.0612 22.4799L10.6322 20.0215Z" fill="#1673FF"/>
<path d="M5.45511 14.9316L0.500351 19.9389C0.19587 20.2694 0.0302182 20.7068 0.0383734 21.1586C0.0465286 21.6104 0.227852 22.0414 0.544058 22.3604C0.860264 22.6795 1.2866 22.8617 1.73305 22.8686C2.1795 22.8754 2.61111 22.7064 2.93675 22.3973L7.88407 17.39L5.45511 14.9316Z" fill="#1673FF"/>
<path d="M15.0587 24.5915L19.0151 20.5872C20.3105 19.2701 21.0377 17.4873 21.0377 15.6289C21.0377 13.7705 20.3105 11.9878 19.0151 10.6707L17.1971 8.82312C15.8939 7.51574 14.1332 6.78223 12.2982 6.78223C10.4633 6.78223 8.70261 7.51574 7.39936 8.82312L3.43555 12.8199L13.2482 22.7666" stroke="#040F1F" stroke-width="2"/>
<path d="M18.1357 9.80338L19.6781 8.24238C19.9033 8.01474 20.0821 7.74438 20.204 7.44677C20.3259 7.14915 20.3887 6.83012 20.3887 6.50793C20.3887 6.18574 20.3259 5.86671 20.204 5.56909C20.0821 5.27148 19.9033 5.00112 19.6781 4.77349C19.331 4.43199 19.0931 3.99308 18.9949 3.51338C18.8967 3.03368 18.9428 2.53522 19.1273 2.0823C19.3117 1.62939 19.6261 1.24281 20.0297 0.972456C20.4333 0.702101 20.9077 0.560376 21.3917 0.565567H28.0006" stroke="#040F1F" stroke-width="2" stroke-linejoin="round"/>
<path d="M9.31348 12.8215C9.69748 12.4327 10.1534 12.1243 10.6552 11.9139C11.1569 11.7035 11.6948 11.5952 12.2379 11.5952C12.781 11.5952 13.3189 11.7035 13.8206 11.9139C14.3224 12.1243 14.7783 12.4327 15.1623 12.8215" stroke="#040F1F" stroke-width="2"/>
</g>
<defs>
<clipPath id="clip0">
<rect width="28" height="28" fill="white"/>
</clipPath>
</defs>
</svg>
