<svg width="28" height="28" viewBox="0 0 28 28" fill="none" xmlns="http://www.w3.org/2000/svg">
<g clip-path="url(#clip0)">
<path d="M22.8523 17.1341C23.9402 16.1049 21.9631 12.5656 18.4362 9.22902C14.9093 5.89239 11.1682 4.02189 10.0803 5.05114C8.99235 6.0804 10.9695 9.61965 14.4964 12.9562C18.0233 16.2929 21.7643 18.1634 22.8523 17.1341Z" stroke="#040F1F" stroke-width="2" stroke-linejoin="round"/>
<path d="M22.8522 17.1275L3.4842 25.7345C3.1095 25.8998 2.6899 25.9515 2.28294 25.8824C1.87597 25.8133 1.50156 25.6268 1.21102 25.3485C0.920478 25.0702 0.728037 24.7137 0.660074 24.3278C0.592111 23.942 0.651953 23.5457 0.831397 23.1933L8.31581 8.50488" stroke="#040F1F" stroke-width="2" stroke-linejoin="round"/>
<path d="M12.2491 22.1704C12.4577 22.6214 12.5704 23.1068 12.5807 23.599C12.5909 24.0911 12.4987 24.5804 12.3091 25.0388C12.1195 25.4972 11.8363 25.9158 11.4758 26.2707C11.1152 26.6256 10.6842 26.9098 10.2076 27.1072C9.73086 27.3045 9.21776 27.4111 8.69753 27.4208C8.1773 27.4305 7.66014 27.3432 7.17558 27.1639C6.69102 26.9845 6.24854 26.7167 5.87341 26.3755C5.49828 26.0344 5.19784 25.6267 4.98926 25.1757" stroke="#040F1F" stroke-width="2" stroke-linejoin="round"/>
<path d="M16.4653 7.26172C16.3655 7.26172 16.2574 7.26172 16.1576 7.26172C15.198 7.33509 14.2981 7.73211 13.622 8.38048C12.9458 9.02884 12.5383 9.88541 12.4736 10.7942C13.1108 11.5521 13.7939 12.2745 14.5194 12.9577C15.243 13.6397 16.0036 14.2857 16.798 14.8931C17.756 14.8224 18.6557 14.4298 19.3344 13.7863C20.0131 13.1428 20.426 12.2907 20.4986 11.3842C20.4986 11.2898 20.4986 11.1954 20.4986 11.0931C20.4986 10.0797 20.0742 9.10754 19.3183 8.38946C18.5624 7.67138 17.5365 7.26588 16.4653 7.26172Z" fill="#1673FF"/>
<path d="M22.8524 17.1274C21.763 18.1581 18.0291 16.2935 14.5364 12.9577C11.0437 9.62194 9.03123 6.08162 10.1206 5.09033" stroke="#040F1F" stroke-width="2" stroke-linejoin="round"/>
<path d="M21.3301 6.46719L25.1554 2.84033" stroke="#040F1F" stroke-width="2" stroke-linejoin="round"/>
<path d="M23.7666 9.81836H27.9994" stroke="#040F1F" stroke-width="2" stroke-linejoin="round"/>
<path d="M17.7295 4.0045V0" stroke="#040F1F" stroke-width="2" stroke-linejoin="round"/>
</g>
<defs>
<clipPath id="clip0">
<rect width="28" height="28" fill="white"/>
</clipPath>
</defs>
</svg>
