<svg width="150" height="150" fill="none" xmlns="http://www.w3.org/2000/svg"><path d="M0 33C0 14.775 14.775 0 33 0h116.281v116.281c0 18.225-14.775 33-33 33H0V33z" fill="url(#paint0_linear)"/><g clip-path="url(#clip0)" fill="#fff"><path d="M111.278 79.776a7.825 7.825 0 002.004-5.234c0-4.328-3.522-7.85-7.85-7.85H90.194c1.51-4.58 2.153-10.656 2.153-13.261v-2.615c0-5.771-4.697-10.468-10.468-10.468h-2.617c-1.2 0-2.247.817-2.538 1.982L75.3 48.033c-1.998 7.987-8.34 16.799-14.903 18.4-1.15-2.91-3.988-4.975-7.303-4.975H37.392a2.618 2.618 0 00-2.617 2.617v47.104a2.618 2.618 0 002.617 2.617h15.701a7.859 7.859 0 007.087-4.475l8.992 2.997a28.707 28.707 0 009.103 1.478h21.923c4.328 0 7.85-3.522 7.85-7.851 0-1.02-.195-1.997-.551-2.892 3.329-.909 5.785-3.96 5.785-7.575a7.824 7.824 0 00-2.004-5.234 7.825 7.825 0 002.004-5.234 7.825 7.825 0 00-2.004-5.234zM55.71 105.945a2.62 2.62 0 01-2.617 2.617H40.01v-41.87h13.084a2.62 2.62 0 012.617 2.617v36.636zm44.488-23.552h5.234a2.62 2.62 0 012.616 2.617 2.62 2.62 0 01-2.616 2.617h-5.234a2.618 2.618 0 000 5.234h5.234a2.62 2.62 0 012.616 2.617 2.62 2.62 0 01-2.616 2.617h-5.234a2.618 2.618 0 000 5.233 2.62 2.62 0 012.617 2.617 2.62 2.62 0 01-2.617 2.617H78.275a23.49 23.49 0 01-7.45-1.209l-9.88-3.294V71.678c4.104-.78 8.122-3.38 11.749-7.635 3.542-4.155 6.413-9.665 7.681-14.74l.93-3.721h.574a5.24 5.24 0 015.234 5.234v2.615c0 3.514-1.099 10.253-2.505 13.26h-5.346a2.618 2.618 0 000 5.234h26.17a2.62 2.62 0 012.616 2.617 2.62 2.62 0 01-2.616 2.617h-5.234a2.618 2.618 0 000 5.234z"/><path d="M47.86 103.328a2.617 2.617 0 100-5.233 2.617 2.617 0 000 5.233zm36.636-78.856a2.617 2.617 0 00-2.617 2.617v5.408a2.617 2.617 0 005.234 0V27.09a2.617 2.617 0 00-2.617-2.617zm-11.102 11.54l-3.701-3.7a2.617 2.617 0 10-3.701 3.7l3.7 3.701a2.617 2.617 0 003.702-3.7zm29.607-3.701a2.617 2.617 0 00-3.701 0l-3.701 3.701a2.617 2.617 0 103.7 3.701l3.702-3.7a2.617 2.617 0 000-3.702z"/></g><defs><linearGradient id="paint0_linear" x1="74.64" y1="0" x2="74.64" y2="149.281" gradientUnits="userSpaceOnUse"><stop stop-color="#CF5170"/><stop offset=".508" stop-color="#E3A4B4"/><stop offset="1" stop-color="#D04F6F"/></linearGradient><clipPath id="clip0"><path fill="#fff" transform="translate(29.367 24.472)" d="M0 0h89.324v89.324H0z"/></clipPath></defs></svg>