<svg width="107" height="106" viewBox="0 0 107 106" fill="none" xmlns="http://www.w3.org/2000/svg">
<path d="M105.606 53C105.606 81.7134 82.1945 105 53.303 105C24.4115 105 1 81.7134 1 53C1 24.2866 24.4115 1 53.303 1C82.1945 1 105.606 24.2866 105.606 53Z" stroke="url(#paint0_linear_2_131)" stroke-width="2"/>
<path d="M28.2631 72.9155C24.6018 74.3973 23.9643 75.8712 24.0015 79C25.7467 76.0932 27.5255 75.229 32.0702 75C32.8509 65.4251 34.624 60.8155 42.8096 55.4507C50.9953 50.0859 71.9594 46.7747 71.9594 46.7747C41.3003 58.502 34.6545 63.6015 34.7409 75.9014C39.0446 71.7732 41.578 69.5062 49.2873 66.7183L40.7072 65.1972C45.3394 62.5184 49.2864 62.3634 57.072 62.831C63.9409 60.9884 67.4549 58.6172 73.4936 53.4789C71.3391 52.2739 70.0378 51.7733 67.4136 51.4507C70.3107 50.4616 72.0166 50.4003 75.2551 51.4507C81.1948 44.6155 83.7094 40.1987 80.7668 27C72.4185 32.1322 70.158 34.9818 70.9934 40.0141C69.4271 38.5361 69.1464 37.4577 69.9138 35C61.6842 38.4028 58.5216 39.4119 57.072 46.7747C55.1677 43.2476 55.1484 43.1517 56.2765 40.0141C39.1639 44.3088 33.9408 48.4047 34.7409 59.6197C33.1367 56.9881 32.7575 55.1616 32.7521 51.4507C28.7484 57.4459 27.7709 61.5097 29.5701 70.7183C27.9089 69.4119 26.5578 69.5494 24.0015 70.0986C25.8338 70.8874 26.8351 71.3777 28.2631 72.9155Z" stroke="#F96F0D" stroke-width="2"/>
<defs>
<linearGradient id="paint0_linear_2_131" x1="15.5886" y1="-25" x2="102.802" y2="143.407" gradientUnits="userSpaceOnUse">
<stop stop-opacity="0.43"/>
<stop offset="0.492708" stop-opacity="0.625146"/>
<stop offset="1" stop-opacity="0.81"/>
</linearGradient>
</defs>
</svg>
