<svg width="107" height="106" viewBox="0 0 107 106" fill="none" xmlns="http://www.w3.org/2000/svg">
<path d="M105.606 53C105.606 81.7134 82.1945 105 53.303 105C24.4115 105 1 81.7134 1 53C1 24.2866 24.4115 1 53.303 1C82.1945 1 105.606 24.2866 105.606 53Z" stroke="url(#paint0_linear_2_135)" stroke-width="2"/>
<path fill-rule="evenodd" clip-rule="evenodd" d="M59.223 29.1081C58.6921 29.3208 58.178 29.7201 57.8268 30.1925C57.2079 31.0247 57.1724 31.2037 56.488 36.9299C56.1416 39.8276 55.8372 42.324 55.8116 42.4773L55.765 42.7561H54.5924C53.1384 42.7561 52.8595 42.8486 52.3128 43.513C51.5294 44.4648 51.475 45.7261 52.1746 46.7191L52.4656 47.1322L51.5995 48.1883L50.7333 49.2444H49.4065C47.7849 49.2444 47.5307 49.3234 46.9728 50.0013C46.1894 50.9531 46.135 52.2144 46.8347 53.2074L47.1257 53.6205L46.2595 54.6766L45.3934 55.7327H44.0666C42.445 55.7327 42.1907 55.8118 41.6329 56.4896C40.8495 57.4414 40.7951 58.7027 41.4947 59.6957L41.7857 60.1088L40.9196 61.1649L40.0534 62.221H38.7266C37.105 62.221 36.8508 62.3001 36.2929 62.9779C35.5115 63.9274 35.4553 65.1911 36.1506 66.1781L36.4374 66.5853L36.0785 67.6474C35.7976 68.4785 35.6845 68.7093 35.5584 68.7093C35.1447 68.7093 34.69 68.9807 34.2904 69.4662C33.5448 70.3721 33.4563 71.5506 34.0597 72.5379C34.2992 72.93 34.3276 72.787 33.5719 74.9863C33.2573 75.9017 33 76.7592 33 76.8919C33 77.2007 33.3519 77.6307 33.6045 77.6307C33.7117 77.6307 35.6108 76.7183 37.8248 75.6031L41.8501 73.5755H43.2351C44.92 73.5755 45.1653 73.501 45.727 72.8186C46.5103 71.8668 46.5647 70.6055 45.8651 69.6125L45.5741 69.1994L46.4403 68.1433L47.3064 67.0872H48.6332C50.2548 67.0872 50.509 67.0082 51.0669 66.3303C51.8503 65.3785 51.9047 64.1172 51.2051 63.1242L50.9141 62.7111L51.7802 61.655L52.6464 60.5989H53.9732C55.5948 60.5989 55.849 60.5198 56.4069 59.842C57.1903 58.8902 57.2447 57.6289 56.545 56.6359L56.254 56.2228L57.1202 55.1667L57.9863 54.1106H59.3131C60.9347 54.1106 61.189 54.0315 61.7468 53.3537C62.491 52.4495 62.5808 51.2694 61.9802 50.2862L61.7806 49.9594L61.9708 49.9079C62.0756 49.8796 64.1136 49.513 66.4999 49.0933C70.4711 48.3948 70.8819 48.3045 71.3495 48.0269C71.9607 47.6641 72.482 47.0086 72.786 46.2207C72.9954 45.6781 73.0074 45.5646 72.9977 44.2261C72.9764 41.2849 72.1735 38.3541 70.6866 35.7897C70.0248 34.6483 68.375 32.6437 67.4356 31.8397C65.9829 30.5961 64.2716 29.6986 62.5366 29.2704C61.4182 28.9943 59.7151 28.9109 59.223 29.1081ZM62.2502 30.8464C64.459 31.3938 66.3361 32.6091 68.0246 34.5852C70.2884 37.2346 71.513 40.3601 71.6843 43.9259C71.732 44.9171 71.7189 45.0966 71.5698 45.4973C71.3505 46.087 71.1076 46.3846 70.641 46.6355C70.3075 46.8147 70.1513 46.8321 69.3689 46.7778C67.2975 46.6337 65.2964 45.8 63.5473 44.3522C62.6323 43.5948 60.9262 41.4895 60.3033 40.3492C59.1314 38.2039 58.4986 35.8966 58.3935 33.3852C58.3477 32.2912 58.3525 32.2494 58.588 31.7091C58.7847 31.2575 58.9138 31.1007 59.2854 30.8617C59.7302 30.5756 59.7645 30.5697 60.6649 30.6253C61.1728 30.6568 61.8862 30.7562 62.2502 30.8464ZM60.5721 33.2725C60.2045 33.719 60.2717 33.9146 61.6653 36.4533L62.9634 38.8176L62.6665 39.9C62.3147 41.1831 62.3052 41.3689 62.5746 41.6961C62.8439 42.0235 62.9968 42.0119 64.0528 41.5844L64.9436 41.2237L66.8895 42.801C68.9789 44.4943 69.1398 44.5759 69.5074 44.1292C69.875 43.6827 69.8078 43.4871 68.4142 40.9484L67.1161 38.5841L67.4129 37.5017C67.7648 36.2186 67.7743 36.0328 67.5049 35.7056C67.2355 35.3782 67.0827 35.3898 66.0266 35.8173L65.1359 36.178L63.1899 34.6007C61.1006 32.9074 60.9397 32.8258 60.5721 33.2725ZM64.4129 37.5517C64.8799 37.9313 65.0312 37.956 65.5429 37.7366C65.7394 37.6524 65.9135 37.5997 65.9298 37.6194C65.946 37.6392 65.9026 37.8508 65.8333 38.0895C65.6527 38.7112 65.6731 38.8951 65.9855 39.4625C66.1386 39.7406 66.3358 40.105 66.4235 40.2722L66.5833 40.5764L66.333 40.3822C66.1953 40.2756 65.8955 40.036 65.6666 39.85C65.1996 39.4704 65.0482 39.4457 64.5366 39.6651C64.3401 39.7493 64.166 39.802 64.1497 39.7823C64.1334 39.7625 64.1768 39.5509 64.2462 39.3122C64.4267 38.6905 64.4064 38.5066 64.094 37.9392C63.9409 37.6611 63.7437 37.2967 63.6559 37.1295L63.4962 36.8253L63.7465 37.0195C63.8841 37.1261 64.184 37.3657 64.4129 37.5517ZM58.3779 39.5146C58.6398 40.1574 59.0914 41.0922 59.3812 41.5921C60.0577 42.7587 61.7001 44.7542 62.6602 45.5762C63.3741 46.1875 65.1027 47.3128 65.5367 47.4486C65.6494 47.484 65.7245 47.5333 65.7036 47.5582C65.6826 47.5833 64.5579 47.7992 63.2041 48.0381L60.7427 48.4727L60.4489 48.8585L60.155 49.2444H56.3625H52.5699L53.2334 48.4333L53.897 47.6223H56.5936H59.2902L59.4949 47.3734C59.6278 47.2121 59.6998 47.0096 59.6998 46.7977C59.6998 46.5115 59.5387 46.2735 58.4065 44.8882C57.6952 44.0178 57.1122 43.239 57.1108 43.1576C57.1095 43.0761 57.2494 41.8235 57.4218 40.3738C57.6838 38.17 57.7488 37.7879 57.8184 38.0421C57.8642 38.2093 58.116 38.8719 58.3779 39.5146ZM56.7378 45.1892L57.4013 46.0002H55.4179H53.4344L53.2297 45.7513C53.1005 45.5945 53.0248 45.3867 53.0248 45.1892C53.0248 44.9917 53.1005 44.7839 53.2297 44.627C53.4298 44.3837 53.4642 44.3781 54.7543 44.3781H56.0742L56.7378 45.1892ZM60.8299 51.1153C61.1009 51.4445 61.1009 51.9105 60.8299 52.2396L60.6252 52.4885H54.3598H48.0945L47.8897 52.2396C47.7606 52.0828 47.6849 51.875 47.6849 51.6775C47.6849 51.48 47.7606 51.2722 47.8897 51.1153L48.0945 50.8664H54.3598H60.6252L60.8299 51.1153ZM55.4862 54.9216L54.8226 55.7327H51.0263H47.2299L47.8935 54.9216L48.557 54.1106H52.3534H56.1498L55.4862 54.9216ZM55.49 57.6036C55.761 57.9328 55.761 58.3988 55.49 58.7279L55.2852 58.9768H49.0199H42.7545L42.5498 58.7279C42.4206 58.5711 42.3449 58.3633 42.3449 58.1658C42.3449 57.9683 42.4206 57.7605 42.5498 57.6036L42.7545 57.3548H49.0199H55.2852L55.49 57.6036ZM50.1463 61.41L49.4827 62.221H45.6863H41.8899L42.5535 61.41L43.2171 60.5989H47.0135H50.8098L50.1463 61.41ZM50.15 64.092C50.421 64.4211 50.421 64.8871 50.15 65.2163L49.9453 65.4651H43.6799H37.4146L37.2098 65.2163C37.0806 65.0594 37.005 64.8516 37.005 64.6541C37.005 64.4566 37.0806 64.2488 37.2098 64.092L37.4146 63.8431H43.6799H49.9453L50.15 64.092ZM44.8063 67.8983L44.1427 68.7093H40.6572C38.7403 68.7093 37.1718 68.6922 37.1718 68.6712C37.1718 68.6503 37.269 68.3651 37.3877 68.0376C37.7662 66.9933 37.3436 67.0872 41.6676 67.0872H45.4699L44.8063 67.8983ZM44.8101 70.5803C45.0811 70.9095 45.0811 71.3754 44.8101 71.7046L44.6053 71.9535H40.0087H35.4121L35.2073 71.7046C35.0782 71.5477 35.0025 71.3399 35.0025 71.1424C35.0025 70.9449 35.0782 70.7371 35.2073 70.5803L35.4121 70.3314H40.0087H44.6053L44.8101 70.5803ZM38.2496 73.6146C38.223 73.6445 36.5326 74.5108 35.0207 75.2695C34.9176 75.3212 34.9928 75.0347 35.3709 73.9354L35.4946 73.5755H36.8895C37.6566 73.5755 38.2687 73.5931 38.2496 73.6146Z" fill="#F96F0D"/>
<defs>
<linearGradient id="paint0_linear_2_135" x1="15.5886" y1="-25" x2="102.802" y2="143.407" gradientUnits="userSpaceOnUse">
<stop stop-opacity="0.43"/>
<stop offset="0.492708" stop-opacity="0.625146"/>
<stop offset="1" stop-opacity="0.81"/>
</linearGradient>
</defs>
</svg>
