<svg width="107" height="106" viewBox="0 0 107 106" fill="none" xmlns="http://www.w3.org/2000/svg">
<path d="M105.606 53C105.606 81.7134 82.1945 105 53.303 105C24.4115 105 1 81.7134 1 53C1 24.2866 24.4115 1 53.303 1C82.1945 1 105.606 24.2866 105.606 53Z" stroke="url(#paint0_linear_2_126)" stroke-width="2"/>
<path d="M48.4366 34.6541H43.1127M57.7264 34.6541H62.4527M32.2475 34.6541H26V40.12H29.0423M32.2475 34.6541V30H43.1127V34.6541M32.2475 34.6541H43.1127M62.4527 34.6541V30H73.3179V34.6541M62.4527 34.6541H73.3179M73.3179 34.6541H80V40.12H76.4145M76.4145 40.12V69.56M76.4145 40.12H29.0423M76.4145 69.56H29.0423M76.4145 69.56H80V76H26V69.56H29.0423M29.0423 69.56V40.12M34.8008 55.1647H40.8853M68.0483 52.2424V58.1953M64.7344 55.1647H71.3078M50.827 34.6541H53.6519M53.6519 45.0447L46.8068 56.6259H52.0221V65.3929L59.1388 53.8659H53.6519V45.0447Z" stroke="#F96F0D" stroke-width="2"/>
<defs>
<linearGradient id="paint0_linear_2_126" x1="15.5886" y1="-25" x2="102.802" y2="143.407" gradientUnits="userSpaceOnUse">
<stop stop-opacity="0.43"/>
<stop offset="0.492708" stop-opacity="0.625146"/>
<stop offset="1" stop-opacity="0.81"/>
</linearGradient>
</defs>
</svg>
