<svg width="107" height="106" viewBox="0 0 107 106" fill="none" xmlns="http://www.w3.org/2000/svg">
<path d="M105.606 53C105.606 81.7134 82.1945 105 53.303 105C24.4115 105 1 81.7134 1 53C1 24.2866 24.4115 1 53.303 1C82.1945 1 105.606 24.2866 105.606 53Z" stroke="url(#paint0_linear_103_4)" stroke-width="2"/>
<path fill-rule="evenodd" clip-rule="evenodd" d="M50.809 27.1458C40.5371 28.4041 31.8252 35.5192 28.4584 45.3998C26.4628 51.2566 26.5176 57.9552 28.6082 63.7046C29.8353 67.0791 32.4127 71.1983 34.7021 73.4436C35.1966 73.9287 35.6815 74.0902 36.2302 73.953C36.4221 73.905 37.3354 73.064 38.8259 71.5626C41.3116 69.059 41.4718 68.8266 41.2281 68.0792C41.0061 67.3985 40.4178 67.0711 39.671 67.2129C39.3478 67.2742 38.9803 67.5867 37.559 69.0084C36.5207 70.0471 35.8015 70.6896 35.7454 70.6289C34.9234 69.7383 33.5734 67.8256 32.8082 66.4676C31.1441 63.514 29.989 59.7921 29.761 56.6486L29.6865 55.6215L32.1032 55.6211C34.314 55.6208 34.5488 55.6029 34.858 55.4121C35.2302 55.1826 35.5231 54.6998 35.5231 54.3162C35.5231 53.9175 35.1655 53.3559 34.7774 53.1453C34.4597 52.9729 34.1415 52.9501 32.053 52.9501H29.6882L29.7627 51.9617C30.1117 47.3314 32.1754 42.321 35.2972 38.5243C35.5629 38.2011 35.7956 37.9148 35.8139 37.8883C35.8324 37.8617 36.5942 38.5898 37.5068 39.5064C38.4195 40.423 39.27 41.2261 39.3968 41.2912C39.5237 41.3563 39.8189 41.4095 40.053 41.4095C40.5727 41.4095 41.1653 40.9385 41.2621 40.4485C41.4054 39.7233 41.2696 39.512 39.4767 37.6695L37.761 35.9063L38.5903 35.2305C41.0565 33.2206 43.5237 31.8534 46.4337 30.8845C47.9436 30.3816 49.9504 29.934 51.204 29.8204C51.6105 29.7835 52.0976 29.7291 52.2863 29.6994L52.6295 29.6454V31.881C52.6295 33.1105 52.6603 34.2723 52.6979 34.4627C52.7355 34.653 52.9272 34.9716 53.1238 35.1706C53.4334 35.4839 53.551 35.5323 54.0022 35.5323C54.4534 35.5323 54.5711 35.4839 54.8807 35.1706C55.0773 34.9716 55.2689 34.653 55.3065 34.4627C55.3441 34.2723 55.375 33.1105 55.375 31.881V29.6454L55.7181 29.6994C55.9069 29.7291 56.3939 29.7835 56.8005 29.8204C58.054 29.934 60.0608 30.3816 61.5707 30.8845C64.4807 31.8534 66.9479 33.2206 69.4141 35.2305L70.2434 35.9063L68.5277 37.6695C66.7348 39.512 66.599 39.7233 66.7423 40.4485C66.8392 40.9385 67.4318 41.4095 67.9514 41.4095C68.1855 41.4095 68.4807 41.3563 68.6077 41.2912C68.7345 41.2261 69.5849 40.423 70.4976 39.5064C71.4103 38.5898 72.172 37.8617 72.1905 37.8883C72.2089 37.9148 72.4415 38.2011 72.7073 38.5243C75.8291 42.321 77.8927 47.3314 78.2417 51.9617L78.3163 52.9501H75.9515C73.2947 52.9501 73.0435 53.0079 72.6742 53.7047C72.4267 54.1717 72.4307 54.521 72.6883 54.9484C73.0689 55.5803 73.2669 55.6215 75.9223 55.6215H78.318L78.2434 56.6486C78.0154 59.7921 76.8603 63.514 75.1963 66.4676C74.431 67.8256 73.0811 69.7383 72.259 70.6289C72.203 70.6896 71.4838 70.0471 70.4454 69.0084C68.6275 67.1899 68.3991 67.0433 67.6455 67.2108C67.0447 67.3443 66.6172 68.0693 66.737 68.7514C66.794 69.0762 67.1665 69.5083 69.036 71.4177C70.263 72.6711 71.3953 73.7651 71.5521 73.8487C71.9167 74.0434 72.4116 74.043 72.7848 73.8477C73.4234 73.5135 75.4599 71.0639 76.6996 69.139C77.5767 67.7771 78.8443 65.2224 79.3963 63.7046C81.755 57.2179 81.4983 49.4991 78.716 43.2497C74.743 34.3255 66.6079 28.2695 57.0774 27.1413C55.4697 26.951 52.3812 26.9533 50.809 27.1458ZM59.3106 38.8132C58.6747 38.9374 58.4711 39.3399 56.4827 44.4015L54.5729 49.2635L53.7332 49.3309C51.277 49.5281 49.4746 51.2239 49.1245 53.667C49.0232 54.3732 49.0327 54.6244 49.1868 55.3232C49.4161 56.3627 49.9044 57.3583 50.4577 57.9146C51.6105 59.0733 53.8212 59.5683 55.5003 59.0435C57.8563 58.3072 59.3643 55.7025 58.8273 53.2974C58.5987 52.2738 58.1123 51.3002 57.5278 50.6966L57.0531 50.2062L59.0182 45.2269C60.9004 40.4572 60.9785 40.23 60.873 39.833C60.8122 39.6052 60.6552 39.3169 60.5239 39.1923C60.296 38.9763 59.7717 38.7217 59.6183 38.7526C59.5785 38.7606 59.44 38.7878 59.3106 38.8132ZM55.2078 52.3047C55.8617 52.625 56.2171 53.319 56.2187 54.2788C56.2216 56.0791 54.5446 57.1104 52.8853 56.3286C52.1627 55.9881 51.8767 55.4992 51.8095 54.4896C51.7512 53.6129 51.9006 53.1891 52.4619 52.6385C53.1612 51.9527 54.2252 51.8233 55.2078 52.3047Z" fill="#F96F0D"/>
<defs>
<linearGradient id="paint0_linear_103_4" x1="15.5886" y1="-25" x2="102.802" y2="143.407" gradientUnits="userSpaceOnUse">
<stop stop-opacity="0.43"/>
<stop offset="0.492708" stop-opacity="0.625146"/>
<stop offset="1" stop-opacity="0.81"/>
</linearGradient>
</defs>
</svg>
