<svg width="107" height="106" viewBox="0 0 107 106" fill="none" xmlns="http://www.w3.org/2000/svg">
<path d="M105.606 53C105.606 81.7134 82.1945 105 53.303 105C24.4115 105 1 81.7134 1 53C1 24.2866 24.4115 1 53.303 1C82.1945 1 105.606 24.2866 105.606 53Z" stroke="url(#paint0_linear_2_139)" stroke-width="2"/>
<path fill-rule="evenodd" clip-rule="evenodd" d="M51.0506 26.1151C49.5989 26.2505 48.6346 26.4177 46.9638 26.8238C38.3675 28.9132 31.213 35.1789 27.8908 43.5271C26.3883 47.3027 25.7334 51.8033 26.0994 55.8386C26.2514 57.5136 26.3858 58.3103 26.8163 60.0858C28.0272 65.0794 30.7665 69.8008 34.5295 73.3805C36.678 75.4244 38.9218 76.9874 41.5326 78.2587C44.1546 79.5356 46.8865 80.3747 49.8138 80.8022C51.7578 81.0862 55.5557 81.0605 57.5572 80.75C60.4941 80.2942 62.9224 79.5277 65.626 78.2033C70.1936 75.9656 74.1494 72.3876 76.9188 67.9889C77.7138 66.7261 78.8839 64.316 79.4243 62.8277C79.9599 61.353 80.5582 58.93 80.8048 57.2364C81.0651 55.45 81.0651 51.6037 80.8048 49.8173C80.3711 46.8392 79.5334 44.137 78.2015 41.419C73.2097 31.2325 62.2746 25.0688 51.0506 26.1151ZM57.0732 29.4962C59.6278 29.8864 61.7923 30.5618 64.1176 31.694C69.0202 34.0812 72.9548 37.9964 75.3073 42.8282C76.489 45.2552 77.1674 47.4232 77.5787 50.0861C77.8424 51.7933 77.8424 55.2604 77.5787 56.9676C76.3263 65.0772 71.3766 71.8388 64.1176 75.3561C60.5693 77.0754 57.5301 77.7671 53.5242 77.7671C49.3133 77.7671 45.8679 76.9261 42.2317 75.0105C37.6196 72.5808 33.9629 68.8021 31.6907 64.118C29.971 60.5728 29.2786 57.5327 29.2786 53.5269C29.2786 49.5216 29.969 46.49 31.6917 42.9301C34.8846 36.3322 40.8053 31.6016 48.0435 29.865C48.7792 29.6885 50.5454 29.4075 51.6421 29.2925C52.5241 29.1999 55.9831 29.3297 57.0732 29.4962ZM52.7276 39.2664C51.9061 39.7636 51.9205 39.6634 51.9155 44.9023C51.9112 49.36 51.9201 49.575 52.1274 49.9813C52.3709 50.4584 52.9905 50.8387 53.5242 50.8387C54.0578 50.8387 54.6774 50.4584 54.9209 49.9813C55.1279 49.5754 55.1374 49.3551 55.1374 44.9169C55.1374 40.3091 55.1357 40.2739 54.8963 39.8479C54.4475 39.0497 53.5038 38.7967 52.7276 39.2664ZM45.9421 44.367C45.7646 44.4806 45.2772 44.9309 44.8588 45.3675C41.8106 48.5492 40.8097 53.2122 42.2649 57.4515C43.4382 60.8695 46.3775 63.7504 49.8138 64.8503C51.2356 65.3055 51.8871 65.4024 53.5242 65.4024C55.1009 65.4024 55.7992 65.3054 57.0732 64.9092C60.6444 63.7985 63.5562 60.9652 64.7926 57.3977C65.2872 55.9708 65.4095 55.1527 65.3958 53.3656C65.3854 52.0086 65.3402 51.5894 65.111 50.7233C64.5177 48.4804 63.5927 46.8209 62.0815 45.2877C61.2437 44.4376 61.0428 44.288 60.6564 44.227C59.6808 44.0726 58.7952 44.8041 58.7944 45.7653C58.7939 46.3657 58.8909 46.5343 59.8059 47.5228C62.0998 50.0009 62.7917 53.1407 61.746 56.3272C60.5577 59.9482 56.854 62.4494 53.0468 62.2022C51.7544 62.1183 50.8766 61.885 49.7062 61.3143C45.4614 59.2446 43.657 54.2045 45.6218 49.906C46.08 48.9034 46.4802 48.3317 47.4488 47.2962C48.3679 46.3137 48.4969 45.9544 48.2051 45.1905C47.9687 44.5718 47.5196 44.2527 46.8123 44.2005C46.4046 44.1705 46.1822 44.2131 45.9421 44.367Z" fill="#F96F0D"/>
<defs>
<linearGradient id="paint0_linear_2_139" x1="15.5886" y1="-25" x2="102.802" y2="143.407" gradientUnits="userSpaceOnUse">
<stop stop-opacity="0.43"/>
<stop offset="0.492708" stop-opacity="0.625146"/>
<stop offset="1" stop-opacity="0.81"/>
</linearGradient>
</defs>
</svg>
