<svg width="138" height="138" fill="none" xmlns="http://www.w3.org/2000/svg"><path d="M0 0h113c13.807 0 25 11.193 25 25v113H25c-13.807 0-25-11.193-25-25V0z" fill="url(#paint0_linear)"/><g clip-path="url(#clip0)"><path d="M106.463 83.747c1.681-2.144 2.487-4.441 2.384-6.808-.103-2.606-1.269-4.647-2.229-5.898 1.114-2.778 1.543-7.151-2.178-10.546-2.727-2.487-7.356-3.601-13.77-3.293-4.51.206-8.282 1.046-8.436 1.08h-.017c-.858.155-1.767.344-2.693.55-.068-1.098.12-3.825 2.144-9.963 2.4-7.305 2.263-12.895-.446-16.633C78.375 28.309 73.832 28 72.494 28c-1.286 0-2.47.532-3.31 1.509-1.903 2.212-1.68 6.293-1.44 8.18-2.264 6.07-8.608 20.954-13.975 25.086a1.835 1.835 0 00-.275.24c-1.577 1.664-2.64 3.464-3.36 5.042a7.076 7.076 0 00-3.396-.858h-10.46c-3.944 0-7.133 3.207-7.133 7.134v27.865c0 3.944 3.206 7.133 7.133 7.133h10.46c1.526 0 2.95-.48 4.115-1.303l4.03.48c.617.086 11.592 1.475 22.858 1.252 2.04.154 3.961.24 5.744.24 3.07 0 5.745-.24 7.974-.72 5.247-1.115 8.831-3.344 10.649-6.619 1.389-2.504 1.389-4.99 1.166-6.568 3.412-3.086 4.012-6.499 3.892-8.9a11.558 11.558 0 00-.703-3.446zm-70.185 20.954a2.506 2.506 0 01-2.504-2.503V74.316a2.506 2.506 0 012.504-2.504h10.46a2.507 2.507 0 012.504 2.504v27.865a2.506 2.506 0 01-2.504 2.503h-10.46v.017zm65.795-22.96a2.304 2.304 0 00-.308 2.795c0 .017.703 1.217.789 2.863.12 2.247-.961 4.236-3.224 5.933a2.337 2.337 0 00-.789 2.641c0 .017.737 2.28-.463 4.424-1.149 2.058-3.704 3.533-7.58 4.356-3.103.669-7.321.789-12.5.377h-.24c-11.026.24-22.172-1.2-22.292-1.217h-.017l-1.732-.206a7.26 7.26 0 00.154-1.509V74.316c0-.738-.12-1.458-.325-2.127.308-1.148 1.166-3.703 3.19-5.881 7.698-6.105 15.226-26.7 15.552-27.59a2.17 2.17 0 00.103-1.15c-.292-1.92-.189-4.27.223-4.972.909.017 3.36.274 4.835 2.315 1.75 2.417 1.68 6.739-.205 12.466-2.881 8.728-3.121 13.323-.84 15.347 1.131 1.012 2.64 1.063 3.738.669a48.42 48.42 0 012.983-.6c.069-.018.155-.035.223-.052 5.264-1.149 14.696-1.852 17.971 1.132 2.778 2.538.806 5.899.583 6.259-.634.96-.446 2.212.412 2.983.017.018 1.817 1.715 1.903 3.996.068 1.526-.652 3.086-2.144 4.63z" fill="#533232"/></g><defs><linearGradient id="paint0_linear" x1="69" y1="0" x2="69" y2="138" gradientUnits="userSpaceOnUse"><stop stop-color="#EFD9D1"/><stop offset=".482" stop-color="#FDF6F4"/><stop offset="1" stop-color="#EFD9D1"/></linearGradient><clipPath id="clip0"><path fill="#fff" transform="translate(28 28)" d="M0 0h82v82H0z"/></clipPath></defs></svg>