<svg width="138" height="138" fill="none" xmlns="http://www.w3.org/2000/svg"><path d="M0 0h113c13.807 0 25 11.193 25 25v113H25c-13.807 0-25-11.193-25-25V0z" fill="url(#paint0_linear)"/><path d="M69 107.216a5.042 5.042 0 01-3.325-1.25 979.736 979.736 0 00-9.779-8.41l-.015-.014c-8.664-7.383-16.146-13.76-21.351-20.04C28.71 70.48 26 63.821 26 56.548c0-7.067 2.423-13.586 6.822-18.358 4.452-4.829 10.56-7.488 17.203-7.488 4.964 0 9.51 1.57 13.512 4.665 2.02 1.562 3.85 3.474 5.463 5.704 1.613-2.23 3.443-4.142 5.463-5.705 4.002-3.094 8.549-4.664 13.513-4.664 6.641 0 12.75 2.66 17.202 7.488C109.577 42.963 112 49.482 112 56.549c0 7.273-2.71 13.93-8.529 20.952-5.206 6.282-12.687 12.657-21.35 20.04a974.08 974.08 0 00-9.797 8.427A5.05 5.05 0 0169 107.216zM50.025 35.741c-5.218 0-10.012 2.082-13.5 5.864-3.539 3.84-5.488 9.146-5.488 14.944 0 6.117 2.274 11.587 7.371 17.738 4.927 5.945 12.255 12.19 20.74 19.421l.016.014c2.966 2.528 6.329 5.394 9.829 8.454 3.52-3.066 6.888-5.937 9.86-8.469 8.485-7.231 15.813-13.475 20.74-19.42 5.096-6.15 7.37-11.621 7.37-17.738 0-5.798-1.95-11.105-5.489-14.944-3.486-3.782-8.28-5.864-13.498-5.864-3.823 0-7.332 1.215-10.431 3.611-2.762 2.137-4.686 4.837-5.814 6.727A3.155 3.155 0 0169 47.63c-1.13 0-2.151-.58-2.731-1.552-1.128-1.89-3.052-4.59-5.814-6.727-3.099-2.396-6.608-3.611-10.43-3.611z" fill="#533232"/><defs><linearGradient id="paint0_linear" x1="69" y1="0" x2="69" y2="138" gradientUnits="userSpaceOnUse"><stop stop-color="#EFD9D1"/><stop offset=".482" stop-color="#FDF6F4"/><stop offset="1" stop-color="#EFD9D1"/></linearGradient></defs></svg>