<svg width="155" height="143" viewBox="0 0 155 143" fill="none" xmlns="http://www.w3.org/2000/svg">
<path d="M20.4374 117.14C11.4734 120.759 9.91271 124.359 10.0036 132C14.2765 124.901 18.6314 122.79 29.7582 122.231C31.6695 98.846 36.0104 87.5878 56.0511 74.4854C76.0919 61.3829 127.418 53.296 127.418 53.296C52.3559 81.9375 36.0851 94.3921 36.2966 124.432C46.8335 114.35 53.0357 108.813 71.9104 102.004L50.9038 98.2893C62.2448 91.7468 71.9081 91.3683 90.9693 92.5103C107.786 88.01 116.39 82.2189 131.174 69.6695C125.899 66.7265 122.713 65.5041 116.288 64.7161C123.381 62.3005 127.558 62.1507 135.487 64.7161C150.029 48.0225 156.185 37.2354 148.981 5C128.542 17.5345 123.008 24.4939 125.053 36.7844C121.218 33.1748 120.531 30.5409 122.41 24.5385C102.261 32.8491 94.5184 35.3137 90.9693 53.296C86.3072 44.6817 86.2599 44.4475 89.0217 36.7844C47.1254 47.2734 34.3379 57.2769 36.2966 84.6674C32.3691 78.2402 31.4408 73.7793 31.4276 64.7161C21.6253 79.3582 19.2323 89.2834 23.637 111.774C19.57 108.583 16.2623 108.919 10.0036 110.26C14.4896 112.186 16.941 113.384 20.4374 117.14Z" stroke="white" stroke-width="6"/>
</svg>
