<svg width="134" height="137" viewBox="0 0 134 137" fill="none" xmlns="http://www.w3.org/2000/svg">
<path d="M12.5567 62.5063L9.36225 63.5983C5.30781 64.9844 1.59752 60.9954 3.57206 57.1927C9.02766 46.6858 15.6135 38.1913 22.9187 31.6255M60.2937 14.7076C60.2937 14.7076 60.2937 11.5224 60.2937 6.59782C60.2937 1.67328 73.1294 1.8183 73.1294 6.59782C73.1294 11.3773 73.1294 13.986 73.1294 13.986M60.2937 14.7076C47.8306 30.7912 45.6014 44.1465 45.1506 64.9669M60.2937 14.7076C64.5678 14.2961 68.8635 14.3348 73.1294 14.8132M60.2937 14.7076C51.6947 15.5354 43.1829 18.1853 35.1773 22.7427M73.1294 14.8132C95.3567 17.306 116.774 31.736 130.11 56.6223C132.182 60.4884 128.153 64.8356 123.846 64.0066C117.679 62.8199 110.134 62.3151 104.425 64.9669M73.1294 14.8132C86.2443 28.7914 88.0772 40.5592 90.0032 62.5063M33.4687 62.5063L43.7967 64.8098C44.6825 65.0073 45.6058 64.9567 46.4708 64.6816C54.4207 62.1534 61.0416 61.1867 67.649 61.4235M89.2974 65.5462C81.156 63.1678 74.4096 61.6657 67.649 61.4235M20.3446 62.5063C22.8067 61.6952 24.0239 61.7407 25.9692 62.5063M67.649 61.4235C67.649 61.4235 67.649 121.019 67.649 128.405C67.649 135.792 51.929 135.937 51.929 128.405C51.929 120.874 51.929 119.57 51.929 119.57M22.9187 31.6255C20.5036 30.8921 18.6595 29.4534 18.4698 27.3094C17.8929 20.7919 27.123 2.10782 27.4115 2.832C27.6463 3.42167 33.4272 14.9586 35.1773 22.7427M22.9187 31.6255C27.8453 33.1217 35.1481 31.683 35.632 27.3094C35.766 26.0988 35.5765 24.5184 35.1773 22.7427M96.6373 46.4278C95.6278 45.9933 88.4168 63.953 88.4168 71.7742C88.4168 79.5954 103.848 79.5954 104.425 71.7742C105.002 63.953 97.6469 46.8623 96.6373 46.4278Z" stroke="white" stroke-width="5" stroke-linecap="round"/>
</svg>
