<svg width="70" height="141" viewBox="0 0 70 141" fill="none" xmlns="http://www.w3.org/2000/svg">
<path d="M20.2005 13.0538H8C5.23858 13.0538 3 15.2924 3 18.0538V23.383M20.2005 13.0538V8C20.2005 5.23858 22.4391 3 25.2005 3H45.0605C47.8219 3 50.0605 5.23858 50.0605 8V13.0538M20.2005 13.0538H50.0605M50.0605 13.0538H61.9858C64.7472 13.0538 66.9858 15.2924 66.9858 18.0538V23.383M3 23.383H66.9858M3 23.383V129.154M66.9858 23.383V55.8857V129.154M3 129.154V132.831C3 135.592 5.23858 137.831 8.00001 137.831H61.9858C64.7472 137.831 66.9858 135.592 66.9858 132.831V129.154M3 129.154H66.9858M44.2123 54.0952L41.1054 66.3363C40.4827 68.7896 42.3367 71.1729 44.8677 71.1729V71.1729C48.1705 71.1729 49.9643 75.0352 47.8336 77.5587L35.1454 92.586C31.6738 96.6977 25.0477 93.1751 26.5144 87.9976L28.9517 79.3937C29.6697 76.859 27.7656 74.3405 25.1311 74.3405V74.3405C21.7366 74.3405 19.9071 70.3571 22.119 67.7822L37.0659 50.3825C39.9136 47.0676 45.2874 49.8594 44.2123 54.0952V54.0952Z" stroke="white" stroke-width="6"/>
</svg>
