<svg width="130" height="151" viewBox="0 0 130 151" fill="none" xmlns="http://www.w3.org/2000/svg">
<path d="M102.154 103.306C108.799 94.8599 111.003 82.6261 109.837 38.8563C109.78 36.7437 108.395 34.8845 106.385 34.2331L67.2274 21.5474C66.2335 21.2254 65.1636 21.2228 64.1682 21.5401L24.1418 34.2961C22.2012 34.9146 20.8243 36.6805 20.6859 38.7125C16.6404 98.1065 29.0055 115.967 64.0018 130.838C65.0865 131.299 66.3172 131.357 67.4364 130.988C75.3035 128.394 80.0827 126.057 87.8639 120.339M93.6968 114.807C96.362 113.132 97.0191 112.17 97.4882 110.44M63.2136 91.1098L87.1772 68.4154C89.2825 66.4216 89.2559 63.0608 87.1192 61.1006L83.692 57.9565C81.7671 56.1906 78.8074 56.204 76.8986 57.9871L63.3945 70.6023C61.4262 72.4411 58.3549 72.3901 56.4487 70.487L54.2579 68.2998C52.288 66.3331 49.0912 66.3539 47.147 68.346L43.2374 72.3519C41.2516 74.3865 41.3598 77.6653 43.4754 79.5647L56.4352 91.2C58.3733 92.94 61.3225 92.9008 63.2136 91.1098ZM67.5088 147.441C115.788 132.271 129.497 105.875 126.642 27.2744C126.567 25.2147 125.223 23.3786 123.273 22.711L67.3185 3.55446C66.2687 3.19506 65.1292 3.19506 64.0795 3.55446L7.91754 22.7821C6.07249 23.4138 4.75566 25.1083 4.56992 27.0496C-3.15526 107.789 17.7838 126.261 63.9765 147.222C65.0759 147.721 66.357 147.803 67.5088 147.441Z" stroke="white" stroke-width="5" stroke-linecap="round"/>
</svg>
