<svg width="127" height="111" viewBox="0 0 127 111" fill="none" xmlns="http://www.w3.org/2000/svg">
<path d="M4.59498 3L105.224 106.819M87.9688 68.1228V68.1228C87.9688 71.98 83.5346 74.1875 80.2562 72.155C67.657 64.344 58.409 63.9534 46.2866 71.7535C43.0482 73.8373 38.5245 71.697 38.5245 67.8461V67.8461C38.5245 66.2905 39.3191 64.8315 40.6508 64.0276C57.4705 53.8743 68.0636 54.8882 85.5168 64.0361C87.0313 64.8299 87.9688 66.4128 87.9688 68.1228ZM105.224 49.7177V49.7177C105.224 53.5502 100.996 55.8947 97.6621 54.0036C69.2989 37.9135 52.0855 37.7713 28.9226 53.1475C25.77 55.2403 21.4147 53.0706 21.4147 49.2866V49.2866C21.4147 47.73 22.2136 46.2689 23.5344 45.4452C52.7107 27.249 70.9363 28.8428 102.628 45.4149C104.225 46.2504 105.224 47.9147 105.224 49.7177ZM123.783 32.8179V32.8179C123.783 36.4677 119.819 38.7537 116.601 37.0328C74.0817 14.2979 48.6055 14.8846 10.1836 36.7591C7.01252 38.5645 3 36.3218 3 32.6728V32.6728C3 31.0004 3.90636 29.4449 5.362 28.6215C45.3226 6.01615 70.8756 2.18481 121.242 28.6214C122.795 29.4365 123.783 31.0641 123.783 32.8179Z" stroke="white" stroke-width="5" stroke-linecap="round"/>
<circle cx="64.189" cy="94.0591" r="13.4498" stroke="white" stroke-width="5"/>
</svg>
