<svg width="91" height="151" viewBox="0 0 91 151" fill="none" xmlns="http://www.w3.org/2000/svg">
<path d="M38.9745 119.668V119.668C38.2564 119.668 37.6743 120.25 37.6743 120.969V143C37.6743 145.761 39.9128 148 42.6743 148H82.2294C84.9908 148 87.2294 145.761 87.2294 143V124.668C87.2294 121.907 84.9908 119.668 82.2294 119.668H81.3059M38.9745 119.668C38.9745 119.668 17.1588 90.9007 9.79044 81.3115C2.4221 71.7223 14.5577 70.1241 20.0482 73.7564C22.3395 75.2721 25.788 78.2049 29.0288 81.1079C32.3193 84.0555 37.6743 81.77 37.6743 77.3524C37.6743 63.8387 37.6743 42.9311 37.6743 38.0148C37.6743 30.6053 50.0992 30.6055 50.0992 38.0148C50.0992 45.4242 50.0992 59.0093 50.0992 59.0093M38.9745 119.668H81.3059M50.0992 80.0039V59.0093M50.0992 59.0093C50.0992 52.3989 63.102 52.6895 63.102 59.0093C63.102 65.3292 63.102 63.586 63.102 63.586M63.102 83.9267V63.586M63.102 63.586C63.102 57.1935 75.0935 56.1765 75.0935 63.586C75.0935 70.9955 75.0935 70.1241 75.0935 70.1241M75.0935 86.542V70.1241M75.0935 70.1241C75.0935 63.586 87.3738 63.586 87.8073 70.8505C88.1898 77.2592 87.8974 99.837 87.8232 105.068C87.813 105.793 87.6446 106.494 87.3305 107.147L81.3059 119.668M3 42.6644H26.8385M14.9915 14.0421L30.5949 29.2977M43.3087 3V23.6313M71.626 14.7686L56.0226 29.2977M59.3455 42.6644H82.8951" stroke="white" stroke-width="5" stroke-linecap="round"/>
</svg>
