<svg width="109" height="108" viewBox="0 0 109 108" fill="none" xmlns="http://www.w3.org/2000/svg">
<path fill-rule="evenodd" clip-rule="evenodd" d="M54.5243 0.416084C53.3405 0.984158 26.3244 28.6457 26.1251 29.4937C25.9227 30.3557 26.7359 31.3281 27.6591 31.3281C28.2999 31.3281 29.7444 29.9239 42.1262 17.2646C49.6915 9.5297 56.0373 3.20112 56.2277 3.20112C56.418 3.20112 60.934 7.68807 66.2631 13.1724C77.2559 24.485 77.1844 24.3909 77.3566 27.7486C77.474 30.0355 77.085 31.5901 75.9439 33.3953C74.8907 35.0614 74.9182 35.6258 76.1206 37.0093C79.3524 40.7274 80.8285 44.6926 80.8285 49.6568C80.8285 53.7933 79.9605 56.7439 77.7528 60.1132C77.069 61.1569 71.3555 67.1581 59.8366 78.9322L42.9243 96.219L38.7934 92.0159C34.3641 87.5091 34.0134 87.2855 33.0391 88.3462C31.9845 89.4948 32.2009 89.8524 36.7751 94.522C41.3416 99.1834 41.9211 99.5761 43.7404 99.2395C44.5178 99.0958 46.3578 97.2916 61.582 81.7456C70.9182 72.2122 79.0574 63.7376 79.6693 62.9134C80.9222 61.2251 82.399 58.4463 82.8238 56.9768L83.1071 55.9969H84.3855C85.3022 55.9969 85.9776 55.8342 86.7728 55.4215C87.9601 54.8052 89.5255 54.6584 89.9776 55.1208C90.1836 55.3316 90.248 59.97 90.248 74.5907V93.7842L86.6982 93.6724C84.7457 93.6108 82.7427 93.5186 82.247 93.4674C80.9822 93.3369 71.4371 93.7496 68.7236 94.0523C59.6058 95.0695 53.9324 96.9444 52.721 99.3407C52.2936 100.186 52.288 101.48 52.7079 102.311C53.9155 104.7 59.0742 106.387 68.7653 107.565C73.5401 108.144 87.7672 108.145 92.6146 107.566C102.804 106.348 107.913 104.527 108.823 101.789C109.664 99.2568 107.426 97.1401 102.492 95.8004L100.503 95.2604L100.39 74.303C100.267 51.4288 100.369 53.1462 98.9741 50.3321C98.3018 48.9753 96.4523 47.0251 95.0285 46.1716C93.4598 45.2312 91.4863 44.7037 89.5288 44.7019C88.5092 44.7007 87.7321 44.5951 87.6417 44.4455C87.332 43.933 85.6046 43.3266 84.4396 43.3218C83.3564 43.3172 83.2293 43.2607 83.0012 42.6827C82.1238 40.4584 80.6953 37.6955 79.7894 36.4703L78.7335 35.0418L79.2816 33.9343C80.5717 31.3286 80.9225 28.0209 80.2068 25.2105C79.4326 22.1705 78.9276 21.5501 68.5273 10.8627C62.0995 4.25773 58.5078 0.73309 57.8967 0.430378C56.7473 -0.138848 55.6902 -0.143229 54.5243 0.416084ZM55.6334 8.24923C53.384 9.29431 52.6297 12.1363 54.0467 14.2278C54.9403 15.547 67.5029 28.2259 68.3542 28.6678C69.9601 29.5013 72.1689 28.9694 73.278 27.4819C73.9041 26.6425 74.1985 24.9502 73.9201 23.7901C73.7044 22.8907 60.0388 8.8422 58.8066 8.25315C57.6682 7.70905 56.7986 7.7079 55.6334 8.24923ZM64.1837 17.9233C71.0706 24.9707 71.543 25.5865 70.1866 25.7456C69.7174 25.8007 68.5417 24.7003 63.0326 19.0507C59.4068 15.3322 56.4401 12.1331 56.4401 11.9415C56.4401 11.5392 56.8714 11.0398 57.219 11.0398C57.3499 11.0398 60.4842 14.1375 64.1837 17.9233ZM46.9738 22.7001C45.995 23.1284 15.126 54.5899 14.5301 55.7664C13.8684 57.0729 13.7588 58.3504 14.1796 59.8501C14.5486 61.1649 14.7214 61.3561 26.0872 73.0251C35.2028 82.384 37.8565 84.9809 38.7472 85.4148C40.15 86.0982 41.9675 86.1431 43.2549 85.5262C43.8705 85.2313 49.1364 79.9838 59.8504 68.9893C73.4105 55.0738 75.5977 52.7363 75.9383 51.7936C76.3949 50.5288 76.321 48.9267 75.7489 47.6958C75.5425 47.2513 72.951 44.4111 69.9901 41.3845C64.2382 35.5048 63.9515 35.3003 62.9262 36.3491C61.9131 37.3854 62.1263 37.7054 67.541 43.2814C70.3304 46.1539 72.736 48.7485 72.8863 49.047C73.5602 50.3847 73.7299 50.1892 57.3941 66.8927C42.0989 82.532 41.8832 82.7407 41.0024 82.7407C40.1254 82.7407 39.9165 82.5431 28.8685 71.2708C22.6857 64.9623 17.4946 59.4898 17.3328 59.1094C17.1709 58.7289 17.0887 58.1482 17.1502 57.819C17.2268 57.409 22.1468 52.2256 32.7416 41.3923L48.2211 25.5644H49.2018C50.1714 25.5644 50.2293 25.6119 54.4057 29.8296C57.2961 32.7488 58.7848 34.0947 59.1224 34.0947C59.7634 34.0947 60.7224 33.1075 60.7224 32.4475C60.7224 31.7471 52.6263 23.376 51.3689 22.7766C50.2654 22.2505 48.0877 22.2125 46.9738 22.7001ZM47.9412 29.3703C47.3509 29.7931 47.4221 29.4351 45.3797 42.2792C44.4925 47.8585 43.6987 52.4997 43.6156 52.5929C43.5324 52.6862 38.8024 53.5404 33.1047 54.4912C27.4067 55.4422 22.3661 56.3292 21.9032 56.4624C20.0487 56.9966 20.2249 59.4792 22.122 59.5416C22.4644 59.5529 27.2811 58.7921 32.8254 57.8508C38.3697 56.9097 42.9549 56.1897 43.0149 56.2508C43.0746 56.3121 42.3671 61.0653 41.4426 66.8136C40.5178 72.5619 39.7614 77.4643 39.7614 77.7078C39.7614 77.9515 40.0202 78.4153 40.3362 78.7386C40.9889 79.4062 41.8625 79.3516 42.4839 78.6039C42.7287 78.3097 43.3951 74.7083 44.6165 67.0785C45.5938 60.9752 46.4572 55.8752 46.5357 55.7454C46.6141 55.6158 51.5818 54.6844 57.5753 53.6758C64.306 52.5431 68.6761 51.7055 69.0051 51.4849C69.7385 50.9933 69.6423 49.6564 68.8291 49.0383C68.2632 48.6081 68.1701 48.6191 57.9274 50.3409C52.2456 51.296 47.4456 52.0776 47.2612 52.0776C47.0766 52.0776 46.972 51.948 47.0286 51.7894C47.3691 50.8361 50.4089 30.6533 50.2866 30.1572C50.15 29.6029 49.3404 29.0227 48.7037 29.0227C48.5513 29.0227 48.208 29.1792 47.9412 29.3703ZM11.8599 43.6049C6.23902 49.3426 1.48359 54.3395 1.29269 54.7091C0.736885 55.7839 0.986163 57.5903 1.84038 58.6787C2.22534 59.1691 8.35788 65.5099 15.4682 72.7694C27.1847 84.7315 28.4642 85.9684 29.1203 85.9684C29.544 85.9684 30.0315 85.777 30.2952 85.5073C31.3906 84.3868 31.6795 84.7317 17.4482 70.1757C10.1344 62.6951 4.15037 56.4723 4.15037 56.3469C4.15037 56.2215 8.66373 51.498 14.1801 45.8502C20.1731 39.7144 24.2206 35.3983 24.2364 35.1262C24.286 34.2819 24.1861 33.9811 23.7214 33.576C22.6152 32.6121 22.6963 32.5436 11.8599 43.6049ZM85.4698 46.8211C85.6477 47.003 85.7403 47.9738 85.7403 49.6568C85.7403 52.422 85.613 52.7692 84.5983 52.7692H83.9974V49.6568V46.5444H84.5983C84.9289 46.5444 85.3211 46.6689 85.4698 46.8211ZM92.7607 48.6657C94.3747 49.4242 95.7621 50.8389 96.5255 52.5046L97.1223 53.8067L97.235 77.373C97.3401 99.3351 97.3743 100.971 97.7399 101.408C98.2468 102.013 99.3512 102.017 99.9397 101.415C100.27 101.077 100.39 100.647 100.39 99.8013C100.39 99.1673 100.481 98.6486 100.592 98.6486C101.498 98.6486 105.392 100.235 105.688 100.725C105.911 101.095 103.235 102.263 100.729 102.89C98.2481 103.51 95.3348 103.995 91.375 104.45C87.8846 104.85 73.4536 104.85 69.9632 104.45C63.6306 103.723 59.3284 102.793 56.8908 101.623L55.4258 100.92L55.9422 100.489C57.6227 99.0866 64.2218 97.6556 71.879 97.0331C75.2057 96.7627 85.0256 96.7057 88.1303 96.9388L90.1971 97.094L90.2972 98.3288C90.358 99.0811 90.558 99.7453 90.8084 100.028C91.3101 100.596 92.4226 100.638 92.9912 100.111C93.3852 99.7467 93.4035 98.7304 93.4035 77.0906V54.4513L92.8909 53.6735C92.1974 52.6208 91.0955 51.9017 89.8935 51.7172L88.8957 51.5642V49.7182V47.8724L90.1917 47.9699C90.9256 48.0252 92.0399 48.327 92.7607 48.6657ZM70.9964 100.107C69.8323 101.298 70.5062 102.631 72.3988 102.882C72.9807 102.959 75.7579 103.091 78.5703 103.177C83.1394 103.315 83.7456 103.29 84.2613 102.944C84.9738 102.467 85.0605 101.181 84.4245 100.53C84.0567 100.154 83.4445 100.09 78.9589 99.9586C76.1805 99.8772 73.3835 99.7432 72.7432 99.6609C71.6911 99.5256 71.5227 99.5685 70.9964 100.107Z" fill="black"/>
</svg>
