<svg width="108" height="81" viewBox="0 0 108 81" fill="none" xmlns="http://www.w3.org/2000/svg">
<path fill-rule="evenodd" clip-rule="evenodd" d="M62.0169 0.350147C61.6796 0.565837 54.9342 10.1986 45.7492 23.5811C31.8819 43.7854 30.0574 46.5343 30.0574 47.224C30.0574 48.0815 30.4573 48.7954 31.1666 49.2047C31.5083 49.4018 33.9487 49.4974 40.6512 49.5757L49.676 49.6812L44.9987 63.9268C42.4262 71.7619 40.3188 78.4905 40.3156 78.8795C40.3112 79.4118 40.4922 79.7705 41.0479 80.3311C41.7154 81.0043 41.8688 81.0645 42.65 80.9587C43.2189 80.8817 43.7102 80.6384 44.0895 80.2458C44.5342 79.7855 69.9675 46.5377 77.6113 36.4243C79.1377 34.4048 79.3789 33.5174 78.6763 32.5056C77.952 31.4624 77.5898 31.4257 68.0396 31.4257C62.2071 31.4257 59.1406 31.3525 59.1406 31.2132C59.1406 31.0965 60.5623 24.4909 62.3 16.5347C65.7908 0.551064 65.7048 1.25195 64.2835 0.377585C63.4796 -0.116686 62.7609 -0.125551 62.0169 0.350147ZM10.2851 4.64748C8.70393 4.87963 5.98832 6.18938 4.70866 7.33705C3.48884 8.43112 2.29999 10.2227 1.61057 12.0062L1.07892 13.3812L1.02159 37.5965C0.957772 64.4758 0.901279 63.2587 2.34225 66.0247C3.57651 68.3941 5.84395 70.3902 8.41017 71.3667C9.63501 71.8326 9.84843 71.8422 20.2847 71.9012L30.9119 71.9614L31.5309 71.3371C31.9891 70.8749 32.1498 70.514 32.1498 69.9474C32.1498 69.0527 31.6955 68.0657 31.1637 67.804C30.958 67.7029 26.2233 67.5727 20.642 67.5146C10.5069 67.4093 10.4929 67.4085 9.39167 66.9064C7.95781 66.2528 6.36703 64.5093 5.8565 63.0324C5.49307 61.9808 5.47277 60.659 5.47277 38.0737V14.2254L6.02682 13.0334C6.7018 11.5812 7.87998 10.3542 9.25505 9.67165L10.2851 9.16028L27.1282 9.05476C40.1165 8.9733 44.0766 8.88845 44.4314 8.68374C45.514 8.05904 45.8919 6.48886 45.1993 5.49166C44.4381 4.39549 44.6783 4.40984 27.5011 4.43749C18.7228 4.45163 10.9756 4.54617 10.2851 4.64748ZM73.6447 4.74266C73.0336 5.05543 72.3222 6.12607 72.3222 6.73325C72.3222 7.22646 72.9566 8.32454 73.4206 8.63457C73.81 8.89479 75.2855 8.9676 81.9468 9.05476C89.8453 9.15817 90.0198 9.16978 90.9009 9.64421C92.286 10.3903 93.3848 11.5078 94.0236 12.8196C94.5699 13.9418 94.6116 14.226 94.7099 17.4966C94.78 19.8316 94.9062 21.1412 95.0928 21.4717C95.5753 22.3254 96.538 22.5617 99.5316 22.5617H102.274L102.886 23.1786L103.498 23.7955V38.1703C103.498 53.5524 103.518 53.2314 102.491 53.7175C102.297 53.8095 100.751 53.9361 99.0556 53.999C96.0339 54.1109 95.9626 54.1246 95.3941 54.6982C94.8162 55.2813 94.8141 55.2934 94.7013 58.9191C94.5881 62.5517 94.5873 62.5563 93.8818 63.8848C93.0984 65.3599 92.4485 65.9959 90.8615 66.8403L89.793 67.4091L77.3437 67.5146C63.9435 67.6282 64.2678 67.5993 63.7585 68.7267C63.3361 69.662 63.4851 70.663 64.146 71.3297L64.7576 71.9466H77.1791C90.7979 71.9466 90.8711 71.9407 93.2283 70.6715C94.8558 69.795 96.2084 68.5714 97.1918 67.086C98.5198 65.0798 98.9301 63.7508 99.0787 60.9722L99.2084 58.5452L101.196 58.4394C104.417 58.2683 106.202 57.1263 107.452 54.4395L107.996 53.269V38.1792V23.0894L107.41 21.8858C106.697 20.4207 105.115 18.9317 103.758 18.4478C103.212 18.253 101.942 18.0413 100.935 17.977L99.1038 17.8603V16.0343C99.1038 11.9147 97.2675 8.40685 93.9927 6.27C91.4674 4.62236 91.0074 4.55251 82.156 4.47294C75.2608 4.41089 74.2293 4.44361 73.6447 4.74266ZM56.2944 23.0894C55.0987 28.5449 54.1201 33.3631 54.1197 33.7966C54.1193 34.3696 54.2856 34.7729 54.7294 35.2739L55.3397 35.9632L63.7263 36.025C68.339 36.059 72.1129 36.1259 72.1129 36.1736C72.1129 36.2213 66.8874 43.112 60.5006 51.4865C54.1138 59.8608 48.8883 66.6308 48.8883 66.5305C48.8883 66.4305 50.2535 62.2197 51.9221 57.1734C53.6696 51.8883 54.956 47.663 54.956 47.2075C54.956 46.632 54.7898 46.2289 54.3456 45.7275L53.7353 45.0382L45.1713 44.9327L36.6072 44.8271L47.5 28.9556C53.4909 20.2263 58.4097 13.1035 58.4307 13.1271C58.4516 13.1507 57.4902 17.6338 56.2944 23.0894Z" fill="black"/>
</svg>
