<svg width="79" height="78" viewBox="0 0 79 78" fill="none" xmlns="http://www.w3.org/2000/svg">
<path fill-rule="evenodd" clip-rule="evenodd" d="M37.1246 0.0733993C31.4645 0.615408 27.1621 1.81862 22.4601 4.17474C18.7247 6.04647 15.6863 8.268 12.4784 11.473C9.04771 14.9008 6.89529 17.9108 4.84326 22.1508C2.43791 27.1205 1.22234 32.0656 1.02173 37.6977C0.790146 44.1983 2.12806 50.3851 5.02282 56.2006C7.06204 60.2972 9.15724 63.1953 12.4784 66.5137C15.8362 69.8683 18.75 71.9632 22.8606 73.9779C25.7288 75.3837 27.5807 76.0679 30.4884 76.7966C38.1133 78.7075 45.7929 78.3405 53.2089 75.7111C55.2388 74.9913 58.8884 73.2269 60.6183 72.1292C69.7992 66.3023 76.2235 57.059 78.2991 46.6906C78.8727 43.8249 78.9961 42.4626 78.9961 38.9933C78.9961 35.5241 78.8727 34.1617 78.2991 31.2961C76.28 21.209 70.1352 12.1508 61.381 6.35634C59.3862 5.03607 55.1137 2.91041 52.9905 2.18214C49.8812 1.1155 46.6823 0.426559 43.4557 0.128728C41.9014 -0.0146999 38.3681 -0.0456414 37.1246 0.0733993ZM44.905 5.54257C52.2699 6.64746 58.6181 9.85211 63.9042 15.1335C69.2185 20.4429 72.379 26.7242 73.5323 34.2683C73.899 36.6672 73.899 41.3194 73.5323 43.7184C72.6333 49.5994 70.5056 54.6939 66.9762 59.417C65.5867 61.2762 62.3258 64.5342 60.4649 65.9224C54.309 70.5144 47.635 72.7405 40.0232 72.7405C32.4254 72.7405 25.7236 70.5025 19.6151 65.9253C12.5589 60.6381 7.88737 52.7194 6.51466 43.7184C6.14563 41.2985 6.14411 36.6505 6.51161 34.2683C8.2593 22.9399 15.0273 13.6421 25.1489 8.6646C29.059 6.74166 32.6279 5.76693 37.6586 5.24763C38.8549 5.12417 43.33 5.30631 44.905 5.54257ZM39.2078 15.7378C38.495 15.9977 37.9837 16.458 37.6671 17.1244C37.4592 17.5623 37.4297 18.982 37.4297 28.5897V39.555L37.773 40.1813C38.0383 40.6654 39.641 42.0247 44.8287 46.1653C48.5206 49.1121 51.7265 51.6188 51.9531 51.736C52.1798 51.8532 52.7015 51.9491 53.1128 51.9491C54.9642 51.9491 56.1546 49.9544 55.3319 48.2306C55.1468 47.8427 53.4263 46.3816 48.8514 42.7264L42.6229 37.7503L42.5815 27.4999L42.5404 17.2494L42.1129 16.6897C41.3802 15.7299 40.2473 15.3588 39.2078 15.7378Z" fill="black"/>
</svg>
