<svg width="131" height="131" fill="none" xmlns="http://www.w3.org/2000/svg"><circle cx="65.5" cy="65.5" r="63.5" stroke="#fff" stroke-width="4"/><path d="M106.762 66.648a9.44 9.44 0 00-1.496-1.258 4.234 4.234 0 00-3.401-.833 1.703 1.703 0 01-.969-3.265 6.649 6.649 0 014.2.187 9.548 9.548 0 011.7.867 40.228 40.228 0 00-5.662-17.733 13.438 13.438 0 00-2.04 0c-1.7 0-3.027.442-3.23.918a1.702 1.702 0 11-3.13-1.343 5.27 5.27 0 014.099-2.738c.638-.142 1.285-.24 1.938-.289a40.807 40.807 0 00-12.463-10.898c-.578.289-1.19.612-1.7.952-1.82 1.088-3.4 2.38-3.639 3.145a1.7 1.7 0 01-1.7 1.31h-.391a1.7 1.7 0 01-1.258-2.04 8.077 8.077 0 013.315-4.047c.578-.425 1.156-.8 1.7-1.14a40.244 40.244 0 00-16.135-3.4h-1.207a1.679 1.679 0 01-.187.238 9.815 9.815 0 00-1.292 1.53 5.985 5.985 0 00-1.259 3.486 1.7 1.7 0 01-3.4 0 7.753 7.753 0 01.51-2.959c.254-.659.572-1.291.952-1.887a40.21 40.21 0 00-16.067 6.07v.119c-.112.686-.175 1.38-.187 2.074a5.764 5.764 0 00.73 3.758 1.762 1.762 0 11-2.43 2.55 6.24 6.24 0 01-1.7-3.69 13.216 13.216 0 010-2.159 40.806 40.806 0 00-9.505 11.188c.07.174.11.358.119.544.044.735.158 1.463.34 2.176a6.512 6.512 0 002.363 3.843 1.722 1.722 0 11-1.819 2.924 8.162 8.162 0 01-2.431-2.499 11.132 11.132 0 01-.97-2.125A40.241 40.241 0 0026 65.526v1.275c.072.045.14.097.204.153.485.474 1.008.906 1.564 1.292a8.044 8.044 0 004.115 1.599 1.7 1.7 0 010 3.4 9.724 9.724 0 01-3.4-.85 13.418 13.418 0 01-1.888-1.003 40.194 40.194 0 005.662 15.438 1.55 1.55 0 01.374 0c.657.234 1.334.405 2.023.51A4.949 4.949 0 0037.92 87a1.7 1.7 0 111.836 2.857 6.325 6.325 0 01-2.482.884 8.92 8.92 0 01-1.36.119h-.766a40.8 40.8 0 0012.055 10.116 1.73 1.73 0 01.34-.136 8.052 8.052 0 001.887-.629 4.403 4.403 0 002.415-2.261 1.7 1.7 0 113.196 1.156 6.649 6.649 0 01-1.887 2.72c-.52.45-1.09.838-1.7 1.157a40.223 40.223 0 0015.081 2.975v-.119c.476-.51.935-1.071 1.36-1.7a8.351 8.351 0 001.837-3.401 1.7 1.7 0 013.203-1.134l.01.029a5.204 5.204 0 01-.714 4.047c-.349.649-.74 1.274-1.173 1.87a40.207 40.207 0 0016.39-5.543c.05-.685.05-1.372 0-2.057a4.846 4.846 0 00-.527-2.55 1.7 1.7 0 01-.68-2.296 1.7 1.7 0 012.305-.684l.007.004a4.574 4.574 0 012.04 3.264c.137.707.211 1.424.222 2.143a40.8 40.8 0 0010.592-11.902 14.06 14.06 0 00-.884-1.87c-.731-1.31-1.564-2.33-2.023-2.38a1.714 1.714 0 01.425-3.401 5.353 5.353 0 013.4 2.193 13.02 13.02 0 011.122 1.7A40.194 40.194 0 00107 66.87a1.53 1.53 0 01-.238-.22zm-40.296 27.12c-15.597-.01-28.233-12.662-28.224-28.259.01-15.597 12.66-28.234 28.258-28.224 15.59.01 28.224 12.65 28.224 28.241-.01 15.6-12.658 28.241-28.258 28.241z" fill="#fff"/></svg>