<svg width="131" height="131" fill="none" xmlns="http://www.w3.org/2000/svg"><circle cx="65.5" cy="65.5" r="63.5" stroke="#fff" stroke-width="4"/><path d="M107.58 63.553l-2.867-2.866a1.431 1.431 0 00-1.013-.42h-4.3c-.792 0-1.433.642-1.433 1.433v7.167H95.1V58.833c0-.791-.642-1.433-1.433-1.433H84.4l-5.303-7.962c-.267-.4-.716-.64-1.197-.638h-8.6v-2.866h10.033c.792 0 1.434-.642 1.434-1.434v-5.733c0-.792-.642-1.434-1.434-1.434H50.667c-.792 0-1.434.642-1.434 1.434V44.5c0 .792.642 1.434 1.434 1.434H60.7V48.8h-8.6c-.48 0-.927.24-1.193.638L45.6 57.4h-7.833c-.792 0-1.434.642-1.434 1.434v8.6h-2.866v-8.6c0-.792-.642-1.434-1.434-1.434H26.3c-.48 0-.927.24-1.192.638l-2.867 4.3c-.157.236-.24.512-.241.795v4.3c0 .284.084.56.24.796l2.627 3.934v12.47c0 .792.641 1.434 1.433 1.434h5.733c.792 0 1.434-.642 1.434-1.433v-8.6h2.866v8.6c0 .791.642 1.433 1.434 1.433H45.6l5.303 7.962c.267.4.716.64 1.197.638h41.567c.791 0 1.433-.642 1.433-1.433v-12.9h2.867v10.033c0 .791.641 1.433 1.433 1.433h4.3c.38 0 .745-.151 1.013-.42l2.867-2.867A1.43 1.43 0 00108 87.5V64.567c0-.38-.151-.745-.42-1.013zM30.6 68.868V83.2h-2.867V71.734c0-.284-.084-.56-.24-.796l-2.626-3.934v-3.44l2.2-3.297H30.6v8.6zm5.733 4.3h-2.866V70.3h2.866v2.867zm15.767-30.1V40.2h25.8v2.867H52.1zm14.333 2.867V48.8h-2.866v-2.866h2.866zM86.5 91.8H52.867l-5.303-7.962c-.267-.4-.717-.64-1.197-.638H39.2V60.267h7.167c.479 0 .926-.24 1.192-.638l5.308-7.962h24.266l5.303 7.962c.267.4.717.64 1.197.638H86.5V91.8zm5.733-21.5v21.5h-2.866V60.267h2.866V70.3zm5.734 7.167H95.1v-5.733h2.867v5.733zm7.166 9.44l-2.026 2.026h-2.274v-25.8h2.274l2.026 2.027v21.747z" fill="#fff"/><path d="M77.523 69.331a1.433 1.433 0 00-1.056-.464h-6.813l2.478-11.156a1.434 1.434 0 00-2.368-1.367l-17.2 15.766a1.433 1.433 0 00.97 2.49h6.812l-2.478 11.156a1.433 1.433 0 002.368 1.367l17.2-15.767a1.433 1.433 0 00.087-2.025zm-15.87 12.603l1.88-8.456a1.433 1.433 0 00-1.4-1.745h-4.915l11.129-10.2-1.88 8.456a1.433 1.433 0 001.4 1.744h4.915L61.653 81.934zm-16.72-13.067h-2.866v11.466h2.866V68.867zm0-5.734h-2.866V66h2.866v-2.867z" fill="#fff"/></svg>