<svg width="100" height="101" fill="none" xmlns="http://www.w3.org/2000/svg"><g clip-path="url(#clip0)" fill="#fff"><path d="M58.469 37.567A17.891 17.891 0 0048.03 40.9H28.861c-.987 0-1.644.667-1.644 1.667s.657 1.666 1.644 1.666h15.623A18.318 18.318 0 0041.05 50.9H28.86c-.987 0-1.644.667-1.644 1.667s.657 1.666 1.644 1.666h11.59a18.73 18.73 0 00.6 6.667H28.862c-.987 0-1.645.666-1.645 1.666 0 1 .658 1.667 1.645 1.667h13.47c2.982 5.948 9.07 10 16.137 10 10.033 0 18.093-8.166 18.093-18.333 0-10.166-8.06-18.333-18.093-18.333zm0 33.333c-8.225 0-14.804-6.666-14.804-15 0-.954.09-1.885.255-2.789a2 2 0 00.063-.331 14.934 14.934 0 015.418-8.764c.13-.074.252-.165.36-.273A14.65 14.65 0 0158.47 40.9c8.224 0 14.803 6.667 14.803 15 0 8.334-6.58 15-14.803 15z"/><path d="M67.515 47.734c-.822-.5-1.81-.334-2.303.5l-8.717 13.333-5.1-5.166c-.657-.667-1.644-.667-2.302 0-.658.666-.658 1.666 0 2.333l6.58 6.667c.328.333.657.5 1.15.5.658 0 1.152-.334 1.316-.834l9.87-15c.493-.833.329-1.833-.494-2.333z"/><path d="M89.72.9H25.573c-4.606 0-8.225 3.667-8.225 8.334v68.333H5.833c-2.796 0-4.934 2.167-4.934 5V90.9c0 5.5 4.44 10 9.869 10h62.504c2.468 0 4.77-1 6.58-2.666 2.138-1.834 3.29-4.5 3.29-7.334V24.234h11.513c2.796 0 4.935-2.167 4.935-5V10.9c0-5.5-4.441-10-9.87-10zM10.769 97.567c-3.619 0-6.58-3-6.58-6.667v-8.333c0-.833.658-1.667 1.645-1.667h57.569v10c0 2.5.823 4.834 2.467 6.667H10.768zM79.852 10.9v80c0 2-.823 3.667-2.139 5-1.238.976-2.706 1.6-4.211 1.681a2.04 2.04 0 00-.23-.014 6.455 6.455 0 01-3.09-.787c-2.064-1.18-3.49-3.515-3.49-6.213V79.234c0-1-.657-1.667-1.644-1.667H20.637V9.234c0-2.834 2.138-5 4.934-5H82.32a11.8 11.8 0 00-.876 1.243 10.013 10.013 0 00-1.591 5.423zM96.3 19.234c0 .833-.658 1.666-1.645 1.666H83.141v-10c0-3.666 2.961-6.666 6.58-6.666 3.618 0 6.579 3 6.579 6.666v8.334z"/><path d="M40.375 14.234h19.739c.986 0 1.644-.667 1.644-1.667S61.1 10.9 60.113 10.9H40.376c-.987 0-1.645.667-1.645 1.667s.658 1.667 1.645 1.667zm-11.514 10h42.766c.988 0 1.645-.667 1.645-1.667s-.657-1.667-1.645-1.667H28.861c-.987 0-1.644.667-1.644 1.667s.657 1.667 1.644 1.667zm0 10h42.766c.988 0 1.645-.667 1.645-1.667s-.657-1.667-1.645-1.667H28.861c-.987 0-1.644.667-1.644 1.667s.657 1.667 1.644 1.667z"/></g><defs><clipPath id="clip0"><path fill="#fff" transform="translate(.899 .9)" d="M0 0h98.691v100H0z"/></clipPath></defs></svg>