<svg width="101" height="102" fill="none" xmlns="http://www.w3.org/2000/svg"><g clip-path="url(#clip0)" fill="#fff"><path d="M95.751 60.06h-1.492V46.444a6.417 6.417 0 00-2.675-5.223v-1.854c0-2.689-2.159-4.877-4.813-4.877h-1.114l4.262-6.336c1.428-2.123.885-5.029-1.21-6.477L59.791 1.712a4.52 4.52 0 00-3.447-.728A4.566 4.566 0 0053.4 2.938l-24.96 37.11h-6.944l1.675-17.187a.509.509 0 01.317-.428 10.829 10.829 0 005.268-4.337.498.498 0 01.471-.224l10.894 1.09c.781.077 1.476-.5 1.553-1.29a1.434 1.434 0 00-1.274-1.574l-10.893-1.09a3.31 3.31 0 00-3.148 1.543 7.961 7.961 0 01-3.873 3.189 3.358 3.358 0 00-2.142 2.838l-1.703 17.47H16.83l2.65-27.184c.095-.978.957-1.697 1.924-1.599l22.014 2.204c.78.076 1.476-.5 1.553-1.291a1.434 1.434 0 00-1.274-1.574L21.683 8.401c-2.524-.253-4.78 1.623-5.03 4.18l-2.136 21.91h-3.638c-2.653 0-4.812 2.188-4.812 4.877v1.264a6.409 6.409 0 00-3.683 5.813v49.059c0 3.527 2.832 6.396 6.313 6.396h79.25c3.48 0 6.312-2.87 6.312-6.396V81.89h1.492c1.76 0 3.193-1.452 3.193-3.235v-15.36c0-1.785-1.432-3.236-3.193-3.236zm-8.98-22.69c1.088 0 1.972.896 1.972 1.998v.733a6.236 6.236 0 00-.796-.052H81.92l1.802-2.679h3.05zM55.747 4.559a1.747 1.747 0 012.445-.47l28.917 19.968a1.8 1.8 0 01.463 2.477l-9.09 13.514h-2.18l4.456-6.626a3.402 3.402 0 00.155-3.568 8.133 8.133 0 01-.952-4.965 3.383 3.383 0 00-1.437-3.23l-14.99-10.35a3.285 3.285 0 00-3.493-.174 7.851 7.851 0 01-4.907.918 3.345 3.345 0 00-3.222 1.451L34.06 40.048h-2.182L55.748 4.56zm.625 24.44c-6.185 0-11.262 4.886-11.676 11.05h-7.2L54.26 15.124a.505.505 0 01.48-.222 10.683 10.683 0 006.675-1.248.496.496 0 01.52.032l14.99 10.35a.511.511 0 01.22.48 11.056 11.056 0 001.295 6.75.52.52 0 01-.028.535l-5.547 8.246H68.05c-.414-6.163-5.49-11.05-11.677-11.05zm8.829 11.05H47.544c.407-4.575 4.21-8.172 8.828-8.172 4.62 0 8.422 3.597 8.829 8.171zm-56.294-.681c0-1.102.885-1.998 1.972-1.998h3.357l-.26 2.678h-5.07v-.68zm-3.682 7.077c0-1.94 1.558-3.518 3.472-3.518h79.25c1.914 0 3.472 1.578 3.472 3.518v3.993H5.225v-3.993zm86.194 49.059c0 1.94-1.558 3.518-3.472 3.518H8.697c-1.914 0-3.472-1.578-3.472-3.518V91.51h7.66a1.43 1.43 0 001.42-1.439 1.43 1.43 0 00-1.42-1.439h-7.66V53.317h86.194v6.742H77.914c-4.255 0-7.94 2.513-9.69 6.151l-.018.036c-.015.031-.028.064-.042.095-.209.448-.39.912-.537 1.391l-.001.004a11.013 11.013 0 00-.484 3.238c0 6.02 4.832 10.916 10.772 10.916h13.504v6.742h-69.44a1.43 1.43 0 00-1.42 1.44 1.43 1.43 0 001.42 1.438h69.44v3.994zm4.685-16.85a.355.355 0 01-.353.357H77.914c-3.006 0-5.628-1.704-6.973-4.209a7.99 7.99 0 01-.477-1.067 8.092 8.092 0 01-.481-2.76 8.098 8.098 0 01.958-3.828c1.345-2.505 3.967-4.21 6.974-4.21H95.75c.194 0 .353.16.353.358v15.36z"/><path d="M78.247 65.135c-3.177 0-5.763 2.62-5.763 5.84 0 3.219 2.586 5.838 5.763 5.838 3.178 0 5.763-2.62 5.763-5.839 0-3.22-2.585-5.839-5.763-5.839zm0 8.8c-1.611 0-2.922-1.328-2.922-2.96 0-1.633 1.31-2.961 2.922-2.961 1.611 0 2.922 1.328 2.922 2.96 0 1.633-1.31 2.96-2.922 2.96z"/></g><defs><clipPath id="clip0"><path fill="#fff" transform="translate(.825 .9)" d="M0 0h99.678v101H0z"/></clipPath></defs></svg>