<svg width="109" height="81" fill="none" xmlns="http://www.w3.org/2000/svg"><g clip-path="url(#clip0)"><path d="M14.845 17.296c-.558-5.468-1.276-10.604-2.193-15.39H76.16a228.46 228.46 0 013.27 33.393 226.696 226.696 0 01-3.27 43.795H12.653a218.262 218.262 0 002.392-18.409" stroke="#040F1F" stroke-width="4"/><path d="M86.936 79.094s0-56.398 20.933-59.237H78.571" stroke="#040F1F" stroke-width="4"/><path d="M19.897 51.07c2.412.616 4.904.94 7.419.956a30.627 30.627 0 0015.538-4.34A29.827 29.827 0 0053.88 36.112a29.7 29.7 0 00-8.578-9.948l-8.76 8.587a8.587 8.587 0 01-.584 4.733 8.731 8.731 0 01-1.963 2.85 8.934 8.934 0 01-2.933 1.886 9.075 9.075 0 01-3.448.632 9.135 9.135 0 01-1.27-.103l-6.448 6.321zm15.058-20.11a8.907 8.907 0 00-3.785-2.945 9.101 9.101 0 00-5.15-.523 8.994 8.994 0 00-4.581 2.365 8.71 8.71 0 00-2.474 4.46 8.6 8.6 0 00.465 5.055 8.789 8.789 0 003.05 3.818l-6.658 6.526a30.382 30.382 0 01-4.044-2.03A29.825 29.825 0 01.75 36.112 29.786 29.786 0 0111.774 24.53a30.587 30.587 0 0115.542-4.334 30.603 30.603 0 0114.696 3.846l-7.057 6.918z" fill="#1673FF"/><path d="M50.107 14.294L5.533 57.992" stroke="#040F1F" stroke-width="4" stroke-linejoin="bevel"/></g><defs><clipPath id="clip0"><path fill="#fff" transform="translate(.75)" d="M0 0h108.075v81H0z"/></clipPath></defs></svg>