<svg width="107" height="81" fill="none" xmlns="http://www.w3.org/2000/svg"><g clip-path="url(#clip0)"><path d="M6.35 28.179V13.32a11.4 11.4 0 013.353-8.07 11.463 11.463 0 018.094-3.343h54.51c3.037 0 5.949 1.203 8.095 3.343a11.399 11.399 0 013.353 8.072V67.68a11.387 11.387 0 01-3.353 8.072 11.448 11.448 0 01-8.094 3.343h-54.51a11.475 11.475 0 01-8.095-3.343A11.413 11.413 0 016.35 67.68v-2.315" stroke="#040F1F" stroke-width="4" stroke-linejoin="round"/><path d="M67.704 79.014h26.79a8.933 8.933 0 006.31-2.607 8.884 8.884 0 002.614-6.292v-59.31c0-2.36-.94-4.624-2.614-6.293a8.933 8.933 0 00-6.31-2.606h-2.018M43.922 59.122c10.336 0 18.715-8.356 18.715-18.663s-8.379-18.663-18.715-18.663-18.715 8.356-18.715 18.663 8.379 18.663 18.715 18.663z" stroke="#040F1F" stroke-width="4" stroke-linejoin="round"/><path d="M43.922 50.546c5.586 0 10.114-4.515 10.114-10.086 0-5.57-4.528-10.087-10.114-10.087-5.587 0-10.115 4.516-10.115 10.087 0 5.57 4.528 10.086 10.114 10.086z" fill="#1673FF"/><path d="M62.718 21.716l-5.552 5.556M30.698 53.647l-5.573 5.557m37.593 0l-5.552-5.557M30.698 27.272l-5.573-5.556" stroke="#040F1F" stroke-width="4" stroke-linejoin="round"/><path d="M12.528 40.66a6.147 6.147 0 00-.826-3.173 6.17 6.17 0 00-2.343-2.302 6.193 6.193 0 00-6.337.19c-.94.6-1.7 1.443-2.199 2.439a6.146 6.146 0 00.48 6.304 6.175 6.175 0 002.544 2.08L6.35 59.645l2.504-13.449a6.054 6.054 0 002.668-2.22 6.028 6.028 0 001.006-3.316z" fill="#1673FF"/></g><defs><clipPath id="clip0"><path fill="#fff" transform="translate(.173)" d="M0 0h106.074v81H0z"/></clipPath></defs></svg>