<svg width="96" height="96" fill="none" xmlns="http://www.w3.org/2000/svg"><circle cx="47.801" cy="47.801" r="47.801" fill="url(#paint0_linear_9_226)"/><path d="M39.146 55.004c.944 2.124 4.44 2.124 5.605 0m5.745 0c.477 1.942 4.662 2.738 5.383-.111m-5.438-11.35c1.856-7.364 5.457-11.923 14.206-20.445 1.965 13.358.496 19.277-6.6 27.1m-7.606-6.654c-1.962-.498-4.038-.48-5.998 0m5.998 0c.85.215 1.68.528 2.468.943m5.138 5.712c.309.722.569 1.504.774 2.347v6.202c12.623 19.501-36.989 18.887-23.086 0v-6.202c.168-1.031.472-1.989.888-2.866m21.424.519a12.807 12.807 0 00-.898-1.732m-12.706-4.923c-1.574-8.436-5.72-12.782-13.87-20.446-1.269 10.858.247 16.652 6.05 26.582m7.82-6.136c-.692.169-1.37.395-2.023.677m-5.797 5.46c.362-.765.808-1.469 1.324-2.108m9.8 16.204c1.543-.916 2.297-1.513 2.75-3.24-2.198-1.05-3.462-.902-5.746 0 .345 1.514.95 2.24 2.997 3.24zm0 0c-.72 1.788-2.498 2.502-5.327 1.788m5.328-1.788c.852 1.93 1.939 2.278 4.772 1.788m.389-21.078c2.565-7.29 4.66-11.156 10.266-17.422.971 4.263-2.707 19.168-6.026 21.402m-4.24-3.98c1.65.867 3.121 2.18 4.24 3.98M42.42 44.22c-2.517-7.916-5.148-11.389-10.377-17.156-.277 7.205 1.242 11.765 5.904 20.507m4.473-3.351c-1.73.746-3.285 1.879-4.473 3.352" stroke="#fff" stroke-width="2"/><defs><linearGradient id="paint0_linear_9_226" x1="72.397" y1="85.391" x2="19.956" y2="0" gradientUnits="userSpaceOnUse"><stop stop-color="#7028E4"/><stop offset="1" stop-color="#E5B2CA"/></linearGradient></defs></svg>