<svg width="96" height="96" fill="none" xmlns="http://www.w3.org/2000/svg"><circle cx="47.801" cy="47.801" r="47.801" fill="url(#paint0_linear_9_219)"/><path d="M48.295 56.347c-.173 6.478-.818 12.452-3.157 13.59h10.756c-2.49-.963-3.139-7.018-3.277-13.59m-4.322 0c.085-3.167.057-6.454.06-9.356-2.922-1.04-3.984-2.262-5.143-5.258 2.18 1.852 3.294 2.282 5.162 2.406.036-2.278.135-4.117.394-5.168 1.255-5.08 2.24-4.812 3.496 0 .41 1.576.385 5.224.347 9.49 2.616-.28 4.146-1.587 6.912-4.59-1.647 4.594-3.03 6.538-6.937 8.02-.005 1.477 0 2.98.031 4.456m-4.322 0H38.73c-11.337-4.945-5.354-14.69 0-15.46-3.54-9.178 5.154-8.961 5.154-9.178 0-7.307 12.682-8.777 13.399 0 5.892 1.156 7.439 4.054 4.974 9.178 7.698 1.765 9.321 12.163 0 15.46h-9.64M30.13 69.937V33.06m0 0l-3.182 5.301m3.182-5.301l3.63 5.301" stroke="#fff" stroke-width="2"/><defs><linearGradient id="paint0_linear_9_219" x1="72.397" y1="85.391" x2="19.956" y2="0" gradientUnits="userSpaceOnUse"><stop stop-color="#7028E4"/><stop offset="1" stop-color="#E5B2CA"/></linearGradient></defs></svg>