<svg width="96" height="96" fill="none" xmlns="http://www.w3.org/2000/svg"><circle cx="47.801" cy="47.801" r="47.801" fill="url(#paint0_linear_9_247)"/><path d="M37.077 39.915c-2.56 0-1.957-4.374 0-4.374h3.264m-3.264 4.374h21.636m-21.636 0v6.417c0 2.63 2.237 3.68 5.272 4.781 1.38.502 3.65.728 5.923.729m10.441-11.927c2.31 0 3.414-4.374 0-4.374h-2.51m2.51 4.374v6.66c0 2.49-1.524 3.333-3.764 4.375-1.221.567-3.953.892-6.677.892m0 0v14.662m9.739 4.715H38.433h9.84v-3.5m0-1.215v1.216m0-1.216c.949-2.094 1.915-3.668 3.061-4.89m8.936-4.15c-4.207.889-6.865 1.944-8.936 4.15m-3.062 6.106c.04-1.119-1.192-2.675-2.962-4.129m-8.985-4.038c2.59-.033 6.373 1.892 8.985 4.038m6.024-1.977c-2.158-6.387 7.38-12.755 17.32-2.06-6.376-2.674-11.396 9.964-17.32 2.06zm-6.024 1.977c2.41-5.933-7.228-13.225-17.72-2.24 9.739-.29 11.696 9.431 17.72 2.24zm-4.97-28.05V26.5c0-1.8 3.766-1.994 3.766 0v9.04m-3.765 0h3.765m0 0h8.333m0 0V26.5c0-1.945 3.765-1.993 3.765 0v9.04m-3.765 0h3.765" stroke="#fff" stroke-width="2"/><defs><linearGradient id="paint0_linear_9_247" x1="72.397" y1="85.391" x2="19.956" y2="0" gradientUnits="userSpaceOnUse"><stop stop-color="#7028E4"/><stop offset="1" stop-color="#E5B2CA"/></linearGradient></defs></svg>