<svg width="96" height="96" fill="none" xmlns="http://www.w3.org/2000/svg"><circle cx="47.801" cy="47.801" r="47.801" fill="url(#paint0_linear_9_240)"/><path d="M39.205 59.476l4.836-4.817m15.508-15.448l-3.251 3.24M44.04 54.658l3.724-3.71m-3.724 3.71c-.034-.148 0-.443.017-.603m-.017.603a17.1 17.1 0 005.948-.25m-2.224-9.218v5.758m0 0l2.335-2.325m2.946-7.586v4.651m0 0l3.252-3.239m-3.252 3.24L50.1 48.623m9.616-6.035l-3.418-.139m-.75 6.285l-5.448-.111m6.448 10.852l-4.68-4.928m-.49-.515c7.017-2.247 11.834-9.153 10.95-17.867-11.67-.212-16.255 5.799-17.814 11.184m6.864 6.683l.49.515m-.49-.515c-.454.145-.918.271-1.39.377m-13.952-15.2l3.518 3.379m4.96 4.761l-2.03-1.948m2.03 1.948c-.135.468-.248.93-.34 1.385m-1.523-7.697l-.167 4.364m0 0l-2.93-2.813m-3.684 0h3.684m.54 6.146h4.08m0 0a15.016 15.016 0 00-.116 5.32m3.93-12.74c-4.975-4.589-8.338-5.3-14.787-5.094.111 10.243 3.426 15.147 10.857 17.835m7.81.492c-.036 0-1.268-.092-1.88-.138M48.592 30.42c17.232-23.145 52.751 14.895 0 42.082-56.308-23.81-17.342-66.555 0-42.082z" stroke="#fff" stroke-width="2"/><defs><linearGradient id="paint0_linear_9_240" x1="72.397" y1="85.391" x2="19.956" y2="0" gradientUnits="userSpaceOnUse"><stop stop-color="#7028E4"/><stop offset="1" stop-color="#E5B2CA"/></linearGradient></defs></svg>