<svg width="96" height="96" fill="none" xmlns="http://www.w3.org/2000/svg"><circle cx="47.801" cy="47.801" r="47.801" fill="url(#paint0_linear_9_233)"/><path d="M28.87 53.147c-2.534-8.691-1.019-15.362 2.596-19.953m35.769 19.953c1.527-5.713 1.442-10.519.24-14.433M47.747 68.795c-9.22 5.226-25.959-3.465-25.27-14.23 2.985-1.29 6.417-1.611 9.77-1.116m15.5 15.346c.082.07.166.138.253.203m-.253-.203c-1.328-1.476-2.582-2.737-3.854-3.849m3.854 3.85c0-8.378-7.527-14.17-15.5-15.347m15.5 15.346c.397-3.973 2.52-7.938 5.831-10.885M48 68.998c6.35 4.78 26.077-1.648 25.783-14.433-8.135-3.054-15.413-.92-20.205 3.345M48 68.998c1.414-1.481 2.718-2.759 3.993-3.884m14.476-7.916c-3.169 1.077-5.716 2.12-7.985 3.343m3.33-4.102c-2.62 1.664-3.265 2.559-3.33 4.102m0 0c-2.332 1.256-4.371 2.703-6.491 4.573m9.82-.168c-4.845 1.17-6.824 1.019-9.82.168m-22.507-7.916c3.5 1.285 6.26 2.446 8.644 3.745m-3.58-4.504c3.1 2.157 3.36 3.02 3.58 4.504m0 0a31.249 31.249 0 015.763 4.004m-9.65 0c4.172.874 6.34.994 9.65 0M29.486 36.788s3.171 3.14.965 5.824c-2.206 2.684 1.047 4.71 3.28 5.57 2.234.862-1.483 5.266-1.483 5.266m5.269 1.774c1.717-3.457 7.877-1.774 9.156 3.292 1.279 5.066 4.563.324 6.905-.605M31.466 33.194c.162-.203 7.022-4.102 7.943.354.92 4.457 8.184-3.393 8.543 1.469.358 4.861-5.908 11.354-1.28 11.698 2.588.193 3.807-4.826 8.543-4.862 4.736-.035 2.725-5.313 5.934-5.722 2.65-.338 6.326 2.583 6.326 2.583m-36.01-5.52c9.05-11.497 31.26-9.96 36.01 5.52m-2.336 4.558c-2.606-.736-6.544 2.278-4.962 4.456 1.072 1.476 5.6 4.507 4.553 1.165-1.048-3.343 2.992-4.892.409-5.621z" stroke="#fff" stroke-width="2"/><defs><linearGradient id="paint0_linear_9_233" x1="72.397" y1="85.391" x2="19.956" y2="0" gradientUnits="userSpaceOnUse"><stop stop-color="#7028E4"/><stop offset="1" stop-color="#E5B2CA"/></linearGradient></defs></svg>