<svg width="145" height="123" fill="none" xmlns="http://www.w3.org/2000/svg"><path d="M60.754 14.838H47.049m37.617 0h12.166m-77.75 0H3V28.74h7.831m8.25-13.902V3H47.05v11.838m-27.968 0H47.05m49.783 0V3H124.8v11.838m-27.968 0H124.8m0 0H142V28.74h-9.229m0 0v74.88m0-74.88H10.831m121.94 74.88H10.831m121.94 0H142V120H3v-16.38h7.831m0 0V28.74m14.823 38.266h15.662m69.919-7.433v15.141m-8.53-7.708h16.921m-52.72-52.168h7.272m0 26.428l-17.62 29.456h13.425v22.3l18.319-29.32H74.178V41.266z" stroke="#484848" stroke-width="6"/></svg>