<svg width="142" height="142" fill="none" xmlns="http://www.w3.org/2000/svg"><path d="M34.214 83.817h-5.146v10.432h27.954M34.215 83.817l.01-49.23m-.01 49.23H45.34M34.213 33.85l.01.737m72.59 49.23h4.59v10.432h-15.16m10.57-10.432V33.85c0-39.808-70.791-42.69-72.59.737m72.59 49.23h-10.57M45.34 43.87c.624-11.848 2.846-17.253 14.464-21.826m6.815-1.647h4.729M45.34 83.817v-10.57m0 10.57h50.903M45.34 73.247V55.814h17.94l6.398 17.433h-24.34zm50.903 10.57v-10.57m0 0V55.814H75.659l6.12 17.433h14.464zm-49.93 21.826L45.34 139h11.682V94.25m0 0h27.19m0 0V139h12.03V94.25m-12.03 0h12.03m25.035-24.16l14.186 3.157m-8.901-22.238H142M123.781 33.85l15.02-4.53m-24.895-15.51l12.656-10.158m-111.68 0L29.068 13.81M2.782 29.321l15.994 4.53M0 51.008h16.69M5.84 73.247l14.465-3.157" stroke="#484848" stroke-width="6"/></svg>