<svg width="155" height="143" fill="none" xmlns="http://www.w3.org/2000/svg"><path d="M20.437 117.14c-8.964 3.619-10.524 7.219-10.433 14.86 4.273-7.099 8.627-9.21 19.754-9.769 1.912-23.385 6.252-34.643 26.293-47.746 20.04-13.102 71.367-21.189 71.367-21.189-75.062 28.642-91.333 41.096-91.121 71.136 10.537-10.082 16.739-15.619 35.613-22.428l-21.006-3.715c11.34-6.542 21.004-6.92 40.065-5.779 16.817-4.5 25.421-10.291 40.205-22.84-5.275-2.944-8.461-4.166-14.886-4.954 7.093-2.415 11.27-2.565 19.199 0C150.029 48.023 156.185 37.236 148.981 5c-20.439 12.535-25.973 19.494-23.928 31.784-3.835-3.61-4.522-6.243-2.643-12.245-20.149 8.31-27.892 10.775-31.44 28.757-4.663-8.614-4.71-8.849-1.948-16.512-41.897 10.49-54.684 20.493-52.725 47.883-3.928-6.427-4.856-10.888-4.87-19.95-9.802 14.641-12.195 24.566-7.79 47.057-4.067-3.191-7.375-2.855-13.633-1.514 4.486 1.926 6.937 3.124 10.433 6.88z" stroke="#484848" stroke-width="6"/></svg>