<svg width="147" height="142" fill="none" xmlns="http://www.w3.org/2000/svg"><path d="M107.578 29.845L73.155 4 5 55.69l8.83 9.486 4.967-3.59m88.781-31.74V14.447h16.073v27.465m-16.073-12.068l16.073 12.068m0 0L142 55.69l-10.623 11.273-4.967-3.811M18.797 61.585l54.358-39.3 53.255 40.867M18.797 61.585V139h14.486m93.127-28.732V139H33.283M5 139h28.283M142 139H33.283m0-30.244V139m0-41.105v4.399m93.127-39.142v28.694m0 6.05v4.398M72.534 65.176H45.562v25.502m26.972-25.502h26.972v25.502M72.535 65.176v51.003m0 0h26.972V90.678m-26.972 25.501H45.562V90.678m0 0h53.945" stroke="#484848" stroke-width="6"/></svg>