<svg width="122" height="122" fill="none" xmlns="http://www.w3.org/2000/svg"><path d="M66.098 27s-.004 4.826 2.072 8.864c2.077 4.038-13.973 14.48-11.138 17.467 2.545 2.679 7.247-.615 9.066 2.607 1.562 2.767-2.331 5.179-1.036 8.081 1.67 3.744 9.305-.975 9.336 3.129.026 3.39-10.995 0-6.475 5.735 4.52 5.736 2.227 7.563 2.578 10.428.567 4.616 16.178-.12 16.319 1.564L92 94M54.183 65.062c-4.662 2.086-4.403 9.907 0 12.514m-7.77-19.553c-8.289 8.603-6.994 20.596.777 25.81m-8.03-31.545c-10.62 7.82-11.137 28.156 0 37.54" stroke="#E9355C" stroke-width="2"/><circle cx="61" cy="61" r="60.5" stroke="#000"/></svg>