<svg width="122" height="122" fill="none" xmlns="http://www.w3.org/2000/svg"><path d="M43.177 63.77c0 12.462 9.245 18.945 18.352 18.924m17.554-18.923c0 12.755-8.712 18.903-17.554 18.923m0 0V91m0 0h9.84m-9.84 0h-9.575M46.37 44.817c-3.192 1.068-4.256 6.674 0 9.343m-6.12-15.75c-8.245 5.072-6.117 18.687 0 21.623m-5.053-26.962c-11.969 3.738-9.84 30.7 0 32.835m40.96-21.089c3.457 1.602 3.99 7.208 0 9.343m5.585-15.75c9.309 4.005 6.117 20.022 0 21.623m6.915-26.962c12.501 13.08 6.65 25.895 0 32.835M50.624 38.41c0-10.945 21.544-11.479 21.544 0v29.9c0 9.076-21.544 10.144-21.544 0v-29.9z" stroke="#E9355C" stroke-width="2"/><circle cx="61" cy="61" r="60.5" stroke="#000"/></svg>