<svg width="122" height="122" fill="none" xmlns="http://www.w3.org/2000/svg"><path d="M46.631 79.977C47.81 86.578 41.931 92 35.551 92S24 89.407 24 83.042c0-5.658 8.835-11.993 18.5-7.042m44.678-.373c1.18 6.601-4.7 12.023-11.08 12.023-6.379 0-11.55-2.593-11.55-8.958C64.547 73.034 71.5 68 82.5 71.5" stroke="#E9355C" stroke-width="2"/><path d="M41.916 75.209l.343-34.026a8 8 0 017.306-7.889l29.11-2.533c4.691-.409 8.718 3.302 8.694 8.01l-.19 37.199M82 72l.307-17.694c.084-4.784-4.023-8.57-8.784-8.1l-19.678 1.941a8 8 0 00-7.214 7.962v23.986" stroke="#E9355C" stroke-width="2"/><circle cx="61" cy="61" r="60.5" stroke="#000"/></svg>