<svg width="122" height="122" fill="none" xmlns="http://www.w3.org/2000/svg"><path d="M59.633 60.8l-8.758-9.044m0 0s-3.259-3.2-6.314-6.521c-3.055-3.32-9.165 2.075-5.703 5.396l16.707 17.024c2.249 2.291 1.015 6.148-2.156 6.653-2.463.391-5.11.782-7.218 1.021-5.5.623-5.296 7.472-.611 8.302 4.1.727 23.961.181 28.851.034.714-.022 1.4-.23 1.988-.635C79.731 80.75 91.054 72.333 91 63.914c-.063-9.86-14.053-21.792-17.108-23.453-3.055-1.66-6.314.83-5.946 4.774m-17.07 6.52c-.61-2.37 4.462-7.143 6.314-5.482 1.852 1.66 2.139 2.075 2.139 2.075m6.416 6.227l-6.416-6.227m0 0c-2.325-2.643 4.222-7.182 6.416-5.189 2.194 1.994 1.044.928 2.2 2.076m0 0a383.654 383.654 0 013.3 3.32l-3.3-3.32zM38.248 59.97C17.88 43.575 46.191 27.178 53.116 44.197" stroke="#E9355C" stroke-width="2"/><circle cx="61" cy="61" r="60.5" stroke="#000"/></svg>