<svg width="99" height="99" viewBox="0 0 99 99" fill="none" xmlns="http://www.w3.org/2000/svg">
<g clip-path="url(#clip0)">
<path d="M35.6738 67.5658C35.5642 66.771 36.1124 66.0421 36.9071 65.9268C37.6966 65.8174 38.4309 66.3654 38.5406 67.1547C38.7653 68.6729 38.9352 70.2625 39.0449 71.9123C39.1599 73.562 39.2202 75.2174 39.2202 76.8671C39.2202 80.8629 38.9022 84.9298 38.1678 88.8542C37.4607 92.6143 36.4303 95.8372 35.175 98.227C34.9228 98.6984 34.4296 98.9998 33.8924 98.9998H21.2695C20.672 98.9998 20.1622 98.6434 19.9375 98.1283C18.7042 95.7496 17.6903 92.565 16.9942 88.8542C16.2598 84.9298 15.9419 80.8627 15.9419 76.8671C15.9419 72.8713 16.2598 68.8042 16.9942 64.8798C17.6684 61.2897 18.6385 58.1929 19.817 55.8414V50.4206C19.817 49.1709 20.3267 48.0363 21.1491 47.2141C21.9712 46.3919 23.1059 45.8821 24.3555 45.8821H26.1315V21.4258H25.3805C24.5804 21.4258 23.9336 20.7736 23.9336 19.9732C23.9336 19.1729 24.5804 18.5263 25.3805 18.5263H26.1315V16.2789H23.3636C22.5579 16.2789 21.9111 15.6321 21.9111 14.8264C21.9111 14.0263 22.5579 13.3795 23.3636 13.3795H26.1315V11.1321H23.3636C22.5579 11.1321 21.9111 10.4853 21.9111 9.68518C21.9111 8.88486 22.5579 8.23266 23.3636 8.23266H26.1315V5.99085H25.3805C24.5804 5.99085 23.9336 5.33846 23.9336 4.53834C23.9336 3.73802 24.5804 3.08563 25.3805 3.08563H26.1315V1.45252C26.1315 0.652395 26.7783 0 27.5785 0C28.3788 0 29.031 0.652395 29.031 1.45252V3.08582H29.7818C30.5821 3.08582 31.2289 3.73822 31.2289 4.53853C31.2289 5.33865 30.5821 5.99105 29.7818 5.99105H29.031V8.23285H31.7989C32.5992 8.23285 33.2514 8.88506 33.2514 9.68537C33.2514 10.4857 32.5992 11.1323 31.7989 11.1323H29.031V13.3797H31.7989C32.5992 13.3797 33.2514 14.0265 33.2514 14.8266C33.2514 15.6323 32.5992 16.2791 31.7989 16.2791H29.031V18.5263H29.7818C30.5821 18.5263 31.2289 19.1731 31.2289 19.9732C31.2289 20.7736 30.5821 21.4258 29.7818 21.4258H29.031V45.8824H30.8068C32.0565 45.8824 33.1911 46.3923 34.0133 47.2145C34.8354 48.0367 35.3451 49.1713 35.3451 50.421V55.8418C35.6576 56.4611 35.9534 57.1298 36.2274 57.8425C36.5453 58.6592 36.8524 59.558 37.1374 60.5337C37.3566 61.3009 36.9181 62.1012 36.1509 62.3261C35.3834 62.5454 34.5833 62.1068 34.3584 61.3394C34.1119 60.4844 33.8323 59.6676 33.5308 58.8948C33.3609 58.4508 33.1801 58.0287 32.9937 57.634H22.163C21.2094 59.684 20.4145 62.3369 19.8389 65.4117C19.5156 67.1491 19.258 69.0237 19.088 70.9915H36.0685C35.9699 69.813 35.8384 68.6673 35.6738 67.5658ZM60.5089 42.4074C59.9882 43.0157 59.0728 43.0816 58.4645 42.5663C57.8616 42.0456 57.7903 41.1302 58.311 40.5274C59.155 39.5352 60.1253 38.7405 61.1886 38.1925C62.2575 37.6444 63.4031 37.3429 64.5979 37.3429C67.4262 37.3429 69.9476 38.9872 71.7342 41.6455C73.406 44.1341 74.4418 47.5378 74.4418 51.276C74.4418 55.0086 73.406 58.4177 71.7342 60.9063C69.9474 63.5648 67.426 65.2035 64.5979 65.2035C61.7696 65.2035 59.2482 63.5646 57.4614 60.9063C55.7896 58.4177 54.7538 55.0086 54.7538 51.276C54.7538 49.8618 54.9073 48.4367 55.2142 47.0555C55.3841 46.2773 56.1568 45.784 56.9352 45.954C57.7135 46.1294 58.2068 46.8966 58.0368 47.6749C57.7738 48.8588 57.6532 50.0646 57.6532 51.276C57.6532 54.4332 58.4972 57.2669 59.8619 59.2948C61.1116 61.1528 62.789 62.3039 64.5977 62.3039C66.4064 62.3039 68.0782 61.1528 69.3333 59.2948C70.6982 57.2669 71.5422 54.433 71.5422 51.276C71.5422 48.1188 70.6982 45.2852 69.3333 43.257C68.0782 41.3934 66.4064 40.2479 64.5977 40.2479C63.8687 40.2479 63.1672 40.4289 62.5148 40.7631C61.7913 41.1359 61.1116 41.6949 60.5089 42.4074ZM80.1531 85.5165H49.0369V90.9263C49.0369 92.3459 49.6234 93.6395 50.5606 94.5821C51.498 95.5195 52.7914 96.1006 54.2166 96.1006H74.979C76.3986 96.1006 77.692 95.5197 78.635 94.5821C79.5722 93.6395 80.1533 92.3459 80.1533 90.9263V85.5165H80.1531ZM49.0369 82.6114H80.1531V76.0616C80.1531 75.2613 80.8055 74.6091 81.6056 74.6091C82.4057 74.6091 83.0581 75.2615 83.0581 76.0616V90.9263C83.0581 93.146 82.1481 95.1688 80.6848 96.6321C79.2213 98.0955 77.1987 99 74.979 99H54.2166C51.9912 99 49.9741 98.0955 48.5108 96.6321C47.0474 95.1688 46.1375 93.146 46.1375 90.9263V25.3063C46.1375 23.0865 47.0472 21.064 48.5108 19.6005C49.9743 18.1371 51.9912 17.2326 54.2166 17.2326H54.973V14.0702C54.973 13.2699 55.6252 12.6177 56.4255 12.6177C57.2259 12.6177 57.8725 13.2699 57.8725 14.0702V17.2328H71.3177V4.76322C71.3177 4.25352 71.1095 3.78752 70.7695 3.4476C70.4352 3.11328 69.9692 2.89962 69.4539 2.89962H59.7359C59.2262 2.89962 58.7602 3.11347 58.4204 3.4476C58.0861 3.78752 57.8723 4.25352 57.8723 4.76322V7.49828C57.8723 8.2986 57.2255 8.9508 56.4254 8.9508C55.6252 8.9508 54.9728 8.2986 54.9728 7.49828V4.76322C54.9728 3.45321 55.51 2.26366 56.3704 1.39779C57.2367 0.537152 58.426 0 59.7361 0H69.4541C70.7697 0 71.9591 0.537152 72.8195 1.3976C73.6856 2.26346 74.2227 3.45301 74.2227 4.76302V17.2326H74.9792C77.1989 17.2326 79.2215 18.1369 80.685 19.6005C82.1483 21.064 83.0583 23.0865 83.0583 25.3063V69.4895C83.0583 70.2898 82.4059 70.9422 81.6058 70.9422C80.8055 70.9422 80.1533 70.2898 80.1533 69.4895V33.6157H49.0369V82.6114ZM49.0369 30.7161H80.1531V25.3063C80.1531 23.8867 79.5722 22.5931 78.6348 21.6504C77.692 20.7132 76.3984 20.132 74.9788 20.132C68.0561 20.132 61.1389 20.132 54.2164 20.132C52.7912 20.132 51.4978 20.713 50.5604 21.6504C49.6232 22.5933 49.0367 23.8867 49.0367 25.3063V30.7161H49.0369ZM18.9071 73.8909C18.8632 74.8666 18.8413 75.8587 18.8413 76.8673C18.8413 77.8757 18.8632 78.868 18.9071 79.8435H36.2549C36.2988 78.868 36.3152 77.8757 36.3152 76.8673C36.3152 75.8533 36.2988 74.8612 36.2549 73.8909H18.9071ZM19.088 82.7429C19.258 84.7107 19.5156 86.5852 19.8389 88.3227C20.4145 91.3975 21.2092 94.0504 22.163 96.1004H32.9991C33.9473 94.0504 34.7476 91.3975 35.3231 88.3227C35.6464 86.5852 35.8985 84.7105 36.0685 82.7429H19.088ZM56.6446 77.355C55.8443 77.355 55.1921 76.7028 55.1921 75.9025C55.1921 75.1021 55.8443 74.4555 56.6446 74.4555H72.5508C73.3511 74.4555 73.9977 75.1021 73.9977 75.9025C73.9977 76.7028 73.3509 77.355 72.5508 77.355H56.6446ZM60.454 71.8301C59.6537 71.8301 59.0015 71.1833 59.0015 70.383C59.0015 69.5827 59.6537 68.9305 60.454 68.9305H68.7414C69.5417 68.9305 70.1939 69.5827 70.1939 70.383C70.1939 71.1833 69.5415 71.8301 68.7414 71.8301H60.454ZM22.7164 54.7344H32.4453V50.4208C32.4453 49.9712 32.2591 49.5657 31.9631 49.2643C31.6616 48.9683 31.256 48.7819 30.8064 48.7819H24.3552C23.9058 48.7819 23.4947 48.9683 23.1987 49.2643C22.9026 49.5657 22.7162 49.9712 22.7162 50.4208V54.7344H22.7164Z" fill="black"/>
</g>
<defs>
<clipPath id="clip0">
<rect width="99" height="99" fill="white"/>
</clipPath>
</defs>
</svg>
