<svg width="61" height="93" viewBox="0 0 61 93" fill="none" xmlns="http://www.w3.org/2000/svg">
<path d="M8.88616 39.5112C19.2066 29.391 39.3137 28.3257 52.3923 39.5112M8.88616 39.5112C8.88616 39.5112 10.3205 59.3214 12.0109 64.559M8.88616 39.5112C7.85257 38.9352 6.86116 38.9385 5.95071 39.192M52.3923 39.5112L50.1686 63.3914M52.3923 39.5112C53.5929 39.0933 54.5786 38.9189 55.4178 38.9732M10.2207 53.9813C10.2207 53.9813 7.91521 55.0886 4.79356 52.2059C1.67191 49.3232 2.03565 41.2507 3.45959 40.3989C4.17843 39.9689 5.0225 39.4504 5.95071 39.192M51.1472 53.9813C51.1472 53.9813 54.3501 53.9813 56.8412 52.2059C59.3324 50.4304 59.5103 41.9081 58.1758 40.3989C57.4103 39.5333 56.5466 39.0463 55.4178 38.9732M46.2539 69.3392C42.7991 73.1858 40.7141 75.3362 35.3996 79.1043C36.7555 79.9292 27.7444 80.5699 25.2571 79.1043C24.3238 78.5543 21.3047 75.6283 19.1285 73.5517C19.5238 76.1168 20.4396 78.6158 19.652 80.3471M5.95071 39.192C6.35111 37.1917 6.96975 35.3774 7.77164 33.7409M55.4178 38.9732C55.4178 36.3984 54.6505 34.0488 53.3715 31.9654M11.5558 19.182C8.00173 24.4105 7.18928 27.5968 7.77164 33.7409M7.77164 33.7409C16.2882 16.3604 45.4345 19.0368 53.3715 31.9654M14.8477 14.7433C16.3628 13.3827 17.9434 12.2738 19.5631 11.3942M53.3715 31.9654C55.1107 23.7272 49.5264 15.5118 41.3945 11.3942M19.5631 11.3942C26.8501 7.43665 34.9278 8.11973 41.3945 11.3942M19.5631 11.3942C21.6094 -2.30124 42.2503 0.0956559 41.3945 11.3942M14.1359 91C16.7279 88.1181 17.2754 87.0021 17.6947 85.3185M41.2716 74.4819C41.3994 79.9636 43.5216 86.8277 47.3216 91M6.04993 73.9068V78.523M6.04993 81.275V85.8024M0 79.9434H4.80436M7.38447 79.9434H12.0109M15.8366 58.904C15.5697 58.3713 12.5129 66.3145 7.38447 68.1365C13.675 71.0632 15.8366 79.4107 15.8366 78.7893C17.0623 73.3086 18.6273 70.917 24.0218 68.6691C18.7544 66.0582 17.438 63.3914 15.8366 58.904Z" stroke="#022F38" stroke-width="3"/>
</svg>
