<svg width="81" height="81" fill="none" xmlns="http://www.w3.org/2000/svg"><path d="M80.74 34.104l-12.97-19.78a1.582 1.582 0 00-1.323-.714H14.614a1.58 1.58 0 00-1.32.712L.301 34.042a1.582 1.582 0 00.09 1.971l6.585 7.52a1.582 1.582 0 102.38-2.085L5.07 36.553h21.28l10.69 36.505-12.082-13.796a1.582 1.582 0 10-2.38 2.084l16.737 19.11a1.582 1.582 0 002.38 0l17.818-20.35a1.581 1.581 0 10-2.38-2.084L43.969 73.056 54.66 36.553h21.27L66.093 47.79a1.581 1.581 0 102.38 2.084l12.135-13.86a1.581 1.581 0 00.133-1.909zm-76.22-.715l10.091-15.317L24.656 33.39H4.52zm13.023-16.615h20.033L27.56 32.047 17.543 16.774zm22.962 1.303l10.042 15.312H30.463l10.042-15.312zm0 55.551l-10.86-37.075h21.72l-10.86 37.075zm12.97-41.541l-10.04-15.313h20.084L53.476 32.087zm2.93 1.302l10.042-15.312 10.042 15.312H56.405z" fill="#fff"/><path d="M24.868 51.735c-4.08 0-7.4-3.32-7.4-7.4a1.582 1.582 0 10-3.164 0c0 4.08-3.32 7.4-7.4 7.4a1.582 1.582 0 000 3.164c4.08 0 7.4 3.32 7.4 7.4a1.582 1.582 0 003.163 0c0-4.08 3.32-7.4 7.4-7.4a1.582 1.582 0 000-3.164zm-8.982 5.009a10.648 10.648 0 00-3.427-3.427 10.647 10.647 0 003.427-3.427 10.647 10.647 0 003.426 3.427 10.647 10.647 0 00-3.427 3.427zM79.418 6.332a4.751 4.751 0 01-4.746-4.746 1.582 1.582 0 00-3.163 0 4.751 4.751 0 01-4.746 4.746 1.582 1.582 0 000 3.164 4.751 4.751 0 014.746 4.745 1.582 1.582 0 003.163 0 4.751 4.751 0 014.746-4.745 1.582 1.582 0 000-3.164zM73.091 9.5a7.978 7.978 0 00-1.587-1.586 7.979 7.979 0 001.587-1.587 8.03 8.03 0 001.586 1.587c-.6.45-1.135.986-1.586 1.586zm-9.37 43.557a1.587 1.587 0 00-1.118-.464 1.59 1.59 0 00-1.118.464 1.594 1.594 0 00-.463 1.118c0 .416.169.824.463 1.118a1.59 1.59 0 001.118.464c.416 0 .824-.17 1.118-.464a1.59 1.59 0 00.464-1.118c0-.416-.17-.824-.464-1.118z" fill="#fff"/></svg>