<svg width="130" height="151" fill="none" xmlns="http://www.w3.org/2000/svg"><path d="M102.154 103.306c6.645-8.446 8.849-20.68 7.683-64.45a5.007 5.007 0 00-3.452-4.623L67.227 21.547a5 5 0 00-3.059-.007L24.142 34.296a5.006 5.006 0 00-3.456 4.416c-4.046 59.394 8.32 77.255 43.316 92.126a4.898 4.898 0 003.434.15c7.867-2.594 12.647-4.931 20.428-10.649m5.833-5.532c2.665-1.675 3.322-2.637 3.791-4.367M63.214 91.11l23.963-22.695a5 5 0 00-.058-7.314l-3.427-3.145a5 5 0 00-6.793.031L63.394 70.602a5 5 0 01-6.945-.115L54.258 68.3a5 5 0 00-7.111.046l-3.91 4.006a5 5 0 00.238 7.213L56.435 91.2a5 5 0 006.779-.09zm4.295 56.331c48.279-15.17 61.988-41.566 59.133-120.167-.075-2.06-1.419-3.895-3.369-4.563L67.319 3.554a5 5 0 00-3.24 0L7.918 22.782c-1.846.632-3.162 2.326-3.348 4.268-7.725 80.739 13.214 99.211 59.407 120.172a5 5 0 003.532.219z" stroke="#fff" stroke-width="5" stroke-linecap="round"/></svg>