<svg width="47" height="40" fill="none" xmlns="http://www.w3.org/2000/svg"><path d="M32.71 25.355a5.8 5.8 0 01-3.523-5.35c0-2.825 1.998-5.174 4.641-5.69l2.86-4.244-9.4.01V5.374H3.253V20.67H15.81a7.399 7.399 0 01-2.986-5.95c0-4.082 3.269-7.39 7.302-7.39 4.033 0 7.303 3.308 7.303 7.39 0 4.032-3.194 7.304-7.16 7.38l.002 2.183c1.9.018 3.714.4 5.379 1.079l7.058-.008z" fill="#BDCCD4"/><path d="M3.255 5.373H1.627v33.803h1.628V5.373zm.171-1.653a2.007 2.007 0 00.72-2.723 1.956 1.956 0 00-2.69-.73 2.005 2.005 0 00-.72 2.723 1.957 1.957 0 002.69.73z" fill="#03755F"/><path d="M29.188 20.005a5.798 5.798 0 003.521 5.35 5.66 5.66 0 002.207.447c3.164 0 5.73-2.595 5.73-5.797 0-3.202-2.566-5.797-5.73-5.797-.372 0-.735.039-1.088.107-2.643.516-4.64 2.865-4.64 5.69z" fill="#72BF00"/><mask id="a" maskUnits="userSpaceOnUse" x="30" y="27" width="17" height="13"><path d="M30.36 27.504h16.16v11.74H30.36v-11.74z" fill="#fff"/></mask><g mask="url(#a)"><path d="M34.917 27.504a11.46 11.46 0 00-4.558.942 15.002 15.002 0 014.558 10.799h11.602c0-6.485-5.195-11.74-11.602-11.74z" fill="#72BF00"/></g><path d="M27.43 14.72c0-4.08-3.27-7.389-7.303-7.389-4.033 0-7.302 3.308-7.302 7.39a7.4 7.4 0 002.986 5.95c1.21.9 2.7 1.438 4.316 1.438.048 0 .095-.006.143-.007 3.966-.078 7.16-3.349 7.16-7.382z" fill="#03755F"/><mask id="b" maskUnits="userSpaceOnUse" x="5" y="24" width="30" height="16"><path d="M5.338 24.28h29.578v14.965H5.338V24.279z" fill="#fff"/></mask><g mask="url(#b)"><path d="M30.36 28.446a14.782 14.782 0 00-4.71-3.083 14.583 14.583 0 00-5.378-1.08c-.048 0-.096-.004-.145-.004-8.168 0-14.79 6.7-14.79 14.966h29.579c0-4.246-1.75-8.075-4.556-10.8z" fill="#03755F"/></g></svg>