<svg width="150" height="150" viewBox="0 0 150 150" fill="none" xmlns="http://www.w3.org/2000/svg">
<path d="M0 33C0 14.7746 14.7746 0 33 0H149.281V116.281C149.281 134.506 134.506 149.281 116.281 149.281H0V33Z" fill="url(#paint0_linear)"/>
<g clip-path="url(#clip0)">
<path d="M74.6404 46.0309C76.1055 46.0309 77.2932 44.8432 77.2932 43.3782V32.0125C77.1529 28.4929 72.1265 28.4955 71.9877 32.0125V43.3782C71.9877 44.8432 73.1754 46.0309 74.6404 46.0309Z" fill="white"/>
<path d="M41.5093 45.2537C42.547 46.2913 44.2264 46.2881 45.2608 45.2537C46.2968 44.2177 46.2968 42.5382 45.2608 41.5022L37.2242 33.4654C36.188 32.4294 34.5087 32.4296 33.4727 33.4654C32.4367 34.5014 32.4367 36.1809 33.4727 37.2169L41.5093 45.2537Z" fill="white"/>
<path d="M107.772 45.254L115.808 37.217C118.198 34.6292 114.642 31.0768 112.057 33.4655L104.02 41.5024C101.63 44.0903 105.186 47.6429 107.772 45.254Z" fill="white"/>
<path d="M119.42 73.0917L105.213 53.2019C104.715 52.5047 103.911 52.0911 103.054 52.0911H46.2266C45.3699 52.0911 44.5659 52.5047 44.0679 53.2019L29.8608 73.0917C29.1071 74.147 29.2268 75.5925 30.1438 76.5093L72.7647 119.13C73.8005 120.166 75.4804 120.166 76.5163 119.13L119.137 76.5093C120.054 75.5924 120.174 74.1468 119.42 73.0917ZM97.8994 57.3966L88.8473 70.0697L79.7951 57.3966H97.8994ZM83.6927 71.9807H65.5881L74.6404 59.3078L83.6927 71.9807ZM69.4856 57.3966L60.4333 70.0697L51.3812 57.3966H69.4856ZM46.2266 59.3078L55.2786 71.9809H37.1743L46.2266 59.3078ZM38.4237 77.2862H58.5214L68.5702 107.433L38.4237 77.2862ZM74.6404 108.866L64.1139 77.2862H85.1669L74.6404 108.866ZM80.7106 107.433L90.7594 77.2862H110.857L80.7106 107.433ZM94.0022 71.9807L103.054 59.3076L112.107 71.9807H94.0022Z" fill="white"/>
</g>
<defs>
<linearGradient id="paint0_linear" x1="74.6404" y1="0" x2="74.6404" y2="149.281" gradientUnits="userSpaceOnUse">
<stop stop-color="#CF5170"/>
<stop offset="0.508333" stop-color="#E3A4B4"/>
<stop offset="1" stop-color="#D04F6F"/>
</linearGradient>
<clipPath id="clip0">
<rect width="90.5474" height="90.5474" fill="white" transform="translate(29.3667 29.3667)"/>
</clipPath>
</defs>
</svg>
