<svg width="150" height="150" viewBox="0 0 150 150" fill="none" xmlns="http://www.w3.org/2000/svg">
<path d="M0 33C0 14.7746 14.7746 0 33 0H149.281V116.281C149.281 134.506 134.506 149.281 116.281 149.281H0V33Z" fill="url(#paint0_linear)"/>
<g clip-path="url(#clip0)">
<path d="M95.5098 99.4274H88.5497V98.8236C88.5497 98.3541 88.8216 97.8593 89.3648 97.3394C91.6505 95.1538 96.4863 93.3506 96.4863 89.0123C96.4863 85.9081 93.8408 84.0286 90.8831 84.0286C88.1442 84.0286 85.5553 85.7527 85.5553 88.6211C85.5553 89.7858 86.0384 90.3678 87.0048 90.3678C87.8859 90.3678 88.6744 89.8832 88.6744 89.1349C88.6744 88.3819 88.8836 87.8163 89.3021 87.4394C90.1798 86.6489 91.8897 86.6761 92.6516 87.5532C94.262 89.4096 92.3586 91.4793 90.4061 92.937C89.745 93.5053 85.4305 95.8408 85.4305 98.8114V101.244C85.4305 101.861 86.266 102.273 86.8249 102.273H95.5329C95.7939 102.273 96.0263 102.127 96.2308 101.836C96.9191 100.852 96.3412 99.4274 95.5098 99.4274Z" fill="white"/>
<path d="M106.943 95.2849V92.5385C106.943 91.0971 103.698 91.1033 103.698 92.5385V95.2849H100.778L105.571 85.7011C106.235 84.3702 103.51 83.1619 102.7 84.8704L96.7855 96.4046C96.3459 97.2135 96.7609 98.1294 97.7089 98.1294H103.699V101.204C103.699 102.606 106.943 102.644 106.943 101.204V98.1294H108.117C108.924 98.1294 109.507 96.6976 108.865 95.7081C108.446 95.062 107.895 95.3619 106.943 95.2849Z" fill="white"/>
<path d="M70.7296 64.8505V49.0005C70.7296 48.0375 69.9486 47.2559 68.985 47.2559C68.0213 47.2559 67.2404 48.0375 67.2404 49.0005V64.8505C65.2593 65.4393 63.6946 67.004 63.1058 68.9851H54.6628C53.6992 68.9851 52.9182 69.7661 52.9182 70.7297C52.9182 71.6926 53.6992 72.4736 54.6628 72.4736H63.1058C63.8595 75.0087 66.2093 76.8624 68.985 76.8624C72.3672 76.8624 75.1183 74.1112 75.1183 70.7297C75.1183 67.9533 73.264 65.6035 70.7296 64.8505ZM68.985 73.3738C67.5273 73.3738 66.3408 72.1874 66.3408 70.7297C66.3408 69.2713 67.5266 68.0855 68.985 68.0855C70.4427 68.0855 71.6291 69.2713 71.6291 70.7297C71.6291 72.1874 70.4427 73.3738 68.985 73.3738Z" fill="white"/>
<path d="M86.6518 77.9662C86.6518 76.8472 85.6214 76.0437 84.5671 76.2543C83.613 76.4485 83.0099 77.3685 83.198 78.3063C83.3936 79.2712 84.3238 79.8635 85.2479 79.676C86.0841 79.5057 86.6518 78.7806 86.6518 77.9662Z" fill="white"/>
<path d="M117.96 89.2476C116.51 83.7201 113.071 79.0553 108.244 76.0424C108.481 74.2801 108.602 72.4987 108.602 70.7296C108.602 48.8334 90.8838 31.1113 68.9849 31.1113C47.0894 31.1113 29.3667 48.8307 29.3667 70.7296C29.3667 96.5893 53.8948 115.809 79.2802 108.992C84.715 115.591 93.5723 118.629 102.1 116.391C113.956 113.28 121.071 101.104 117.96 89.2476ZM101.214 113.017C93.4244 115.061 85.4708 111.868 81.0984 105.628C81.0786 105.599 81.0582 105.571 81.0384 105.541C76.7995 99.4188 76.5713 91.3118 80.6152 84.8779C81.4309 83.5858 81.7826 83.4325 81.8201 82.6747C81.9046 80.9594 79.7115 80.1668 78.6818 81.54C75.2212 86.1537 73.6361 91.9374 74.4178 97.7935C57.2409 101.221 41.3847 88.0209 41.3847 70.7296C41.3847 55.5106 53.766 43.1293 68.9849 43.1293C75.7521 43.1293 82.094 45.5214 87.1125 49.9142L85.1307 49.7507C84.1712 49.6703 83.3282 50.3858 83.2491 51.3454C83.1694 52.3056 83.8836 53.1486 84.8438 53.2276C91.1612 53.7469 90.8225 53.7258 90.9547 53.7258C91.8481 53.7258 92.608 53.0436 92.6905 52.1379L93.2295 46.177C93.3167 45.2174 92.6094 44.369 91.6498 44.2824C90.6903 44.1945 89.8418 44.9033 89.7546 45.8628L89.6095 47.467C84.1467 42.6114 76.9181 39.6401 68.9849 39.6401C51.8428 39.6401 37.8962 53.5868 37.8962 70.7296C37.8962 90.3353 55.8929 105.074 75.1442 101.204C75.6437 102.895 76.362 104.538 77.156 105.928C54.4461 111.183 32.8559 93.8545 32.8559 70.7296C32.8559 50.8077 49.063 34.6005 68.9849 34.6005C88.9062 34.6005 105.114 50.8077 105.114 70.7296C105.114 71.929 105.053 73.1352 104.934 74.336C103.336 73.6736 101.681 73.2027 99.9939 72.9308C100.045 72.1982 100.074 71.4628 100.074 70.7296C100.074 66.2856 99.155 61.9936 97.3437 57.9728C96.9477 57.0944 95.9146 56.7032 95.0368 57.0985C94.1584 57.4944 93.7665 58.5269 94.1625 59.406C95.7694 62.9729 96.5845 66.7831 96.5845 70.7296C96.5845 71.3695 96.5627 72.0121 96.5184 72.652C93.3045 72.648 90.7339 73.4085 90.8164 73.3874C89.8861 73.6313 89.3266 74.5834 89.572 75.5177C90.1213 77.6112 92.0458 76.5624 94.093 76.298C103.243 75.1238 112.15 80.8497 114.585 90.1329C117.208 100.128 111.21 110.394 101.214 113.017Z" fill="white"/>
</g>
<defs>
<linearGradient id="paint0_linear" x1="74.6404" y1="0" x2="74.6404" y2="149.281" gradientUnits="userSpaceOnUse">
<stop stop-color="#CF5170"/>
<stop offset="0.508333" stop-color="#E3A4B4"/>
<stop offset="1" stop-color="#D04F6F"/>
</linearGradient>
<clipPath id="clip0">
<rect width="89.3238" height="89.3238" fill="white" transform="translate(29.3667 29.3667)"/>
</clipPath>
</defs>
</svg>
