<svg width="122" height="143" viewBox="0 0 122 143" fill="none" xmlns="http://www.w3.org/2000/svg">
<path d="M20.2005 13.0538H3V23.383M20.2005 13.0538V3H50.0605V13.0538M20.2005 13.0538H50.0605M50.0605 13.0538H66.9858V23.383M66.9858 55.8856C76.4627 55.9698 84.7367 58.5024 84.7367 69.2448C84.7367 79.9872 81.5718 114.693 84.7367 129.154C87.9015 143.615 107.992 143.615 107.992 129.154C107.992 114.693 107.992 74.3405 107.992 74.3405M66.9858 55.8856V23.383M66.9858 55.8856V129.154M107.992 74.3405H100.148V58.5024M107.992 74.3405H115.285V58.5024M100.148 58.5024H115.285M100.148 58.5024C97.4076 57.184 96.3965 56.0449 96.2954 52.718V33.5745H100.148M115.285 58.5024C118.378 57.7058 118.879 56.1608 119 52.718V33.5745H115.285M100.148 33.5745V23.383H115.285V33.5745M100.148 33.5745H115.285M3 23.383H66.9858M3 23.383V129.154M3 129.154V137.831H66.9858V129.154M3 129.154H66.9858M48.5469 37.0176L16.4852 74.3405H30.3832L20.2005 110.286L53.2254 71.1729H39.8778L44.2123 54.0952L48.5469 37.0176Z" stroke="#484848" stroke-width="6"/>
</svg>
