<svg width="142" height="142" viewBox="0 0 142 142" fill="none" xmlns="http://www.w3.org/2000/svg">
<path d="M34.2135 83.8168H29.0676V94.2494H57.0225M34.2135 83.8168L34.2231 34.5873M34.2135 83.8168H45.3399M34.2135 33.8503L34.2231 34.5873M106.813 83.8168H111.403V94.2494H96.2429M106.813 83.8168C106.813 83.8168 106.813 73.6586 106.813 33.8503C106.813 -5.958 36.0215 -8.8407 34.2231 34.5873M106.813 83.8168H96.2429M45.3399 43.8713C45.9638 32.0226 48.1865 26.6181 59.8041 22.0452M66.619 20.398H71.3477M45.3399 83.8168V73.2473M45.3399 83.8168H96.2429M45.3399 73.2473V55.8139H63.2811L69.6787 73.2473H45.3399ZM96.2429 83.8168V73.2473M96.2429 73.2473V55.8139H75.6592L81.7786 73.2473H96.2429ZM46.3134 95.0733L45.3399 139H57.0225V94.2494M57.0225 94.2494H84.2125M84.2125 94.2494V139H96.2429V94.2494M84.2125 94.2494H96.2429M121.277 70.09L135.463 73.2473M126.562 51.0094H142M123.781 33.8503L138.801 29.3206M113.906 13.809L126.562 3.65096M14.8815 3.65096L29.0676 13.809M2.78159 29.3206L18.7757 33.8503M0 51.0094H16.6895M5.84133 73.2473L20.3056 70.09" stroke="#484848" stroke-width="6"/>
</svg>
