<svg width="23" height="28" viewBox="0 0 23 28" fill="none" xmlns="http://www.w3.org/2000/svg">
<g clip-path="url(#clip0)">
<path d="M14.8829 5.79109C14.8829 6.64332 14.5266 7.46065 13.8922 8.06327C13.2579 8.66588 12.3975 9.00443 11.5004 9.00443C10.6032 9.00443 9.74288 8.66588 9.10848 8.06327C8.47412 7.46065 8.11774 6.64332 8.11774 5.79109C8.11774 4.01844 11.5004 0 11.5004 0C11.5004 0 14.8829 4.01844 14.8829 5.79109Z" fill="#1673FF"/>
<path d="M4.8988 9.00439H18.1021V16.2998C18.1021 17.8862 17.4387 19.4077 16.2578 20.5295C15.077 21.6513 13.4753 22.2816 11.8053 22.2816H11.2031C9.53305 22.2816 7.93142 21.6513 6.75053 20.5295C5.56965 19.4077 4.90623 17.8862 4.90623 16.2998V9.00439H4.8988Z" stroke="#040F1F" stroke-width="2"/>
<path d="M11.5005 22.2818C9.75083 22.2818 8.07284 21.622 6.835 20.4475C5.59717 19.2729 4.90077 17.6795 4.8988 16.0176" stroke="#040F1F" stroke-width="2"/>
<path d="M11.5007 19.9371C10.4057 19.9371 9.35544 19.5243 8.58048 18.7895C7.80552 18.0546 7.36916 17.0577 7.36719 16.0176" stroke="#040F1F" stroke-width="2"/>
<path d="M20.0717 9.00439H22.0419V13.1924C22.0419 13.6839 21.9399 14.1706 21.7419 14.6247C21.5439 15.0789 21.2536 15.4915 20.8878 15.8391C20.5219 16.1866 20.0875 16.4623 19.6095 16.6505C19.1314 16.8386 18.6191 16.9354 18.1017 16.9354" stroke="#040F1F" stroke-width="2"/>
<path d="M4.89852 9.00439H0.958341V13.1924C0.956383 13.6851 1.05686 14.1733 1.25399 14.6291C1.45113 15.0848 1.74105 15.4991 2.10712 15.8482C2.4732 16.1973 2.90821 16.4743 3.38724 16.6632C3.86625 16.8522 4.37983 16.9495 4.89852 16.9495" stroke="#040F1F" stroke-width="2"/>
<path d="M11.5005 23.7856V27.0343" stroke="#040F1F" stroke-width="2"/>
<path d="M4.8988 27.0347H18.1021" stroke="#040F1F" stroke-width="2"/>
</g>
<defs>
<clipPath id="clip0">
<rect width="23" height="28" fill="white"/>
</clipPath>
</defs>
</svg>
