<svg width="170" height="170" viewBox="0 0 170 170" fill="none" xmlns="http://www.w3.org/2000/svg">
<ellipse cx="85" cy="84.6302" rx="85" ry="84.5573" fill="#0A0909"/>
<path d="M131.219 78.7702C131.219 50.1409 107.889 26.9323 79.1094 26.9323M131.219 78.7702L118.078 68.7407M131.219 78.7702L141.641 68.7407M79.1094 130.608C50.3302 130.608 27 107.4 27 78.7702M27 78.7702C27 50.1409 50.3302 26.9323 79.1094 26.9323M27 78.7702H40.8203M79.1094 26.9323V37.7506M64.2695 64.3457L76.6172 75.8403M83.0742 75.8403L105.504 53.302M79.1094 108.633C82.168 84.9682 109.154 95.823 106.07 108.633C102.987 121.444 78.7145 139.432 79.1094 140.525H108.223M143 132.749H107.09L134.164 93.4201V131.96M134.164 133.538V142.328" stroke="white" stroke-width="2"/>
<path d="M84.2266 78.883C84.2266 81.3754 82.194 83.4048 79.6758 83.4048C77.1575 83.4048 75.125 81.3754 75.125 78.883C75.125 76.3905 77.1575 74.3611 79.6758 74.3611C82.194 74.3611 84.2266 76.3905 84.2266 78.883Z" stroke="white" stroke-width="2"/>
</svg>
