<svg width="151" height="105" fill="none" xmlns="http://www.w3.org/2000/svg"><path d="M138.371 41.94h-34.968a5 5 0 01-5-5V11.976M138.37 41.94l8.513 10.504A5 5 0 01148 55.592v24.512a5 5 0 01-5 5h-11.303m6.674-43.164l-12.89-27.11a5 5 0 00-4.515-2.854H98.403M9.629 61.344h27.7M0 41.94h48.806M8.442 22.404h48.014m41.947-10.428V8a5 5 0 00-5-5H20.829a5 5 0 00-5 5v72.104a5 5 0 005 5h11.797m83.057-15.972c-22.94-.005-21.222 32.86-.66 32.868m.66-32.868c11.261 0 16.266 7.912 16.014 15.972m-16.014-15.972c-11.261 0-16.584 7.912-16.655 15.972M115.023 102c10.482 0 16.412-8.528 16.674-16.896M115.023 102c-10.481 0-16.069-8.528-15.995-16.896m-66.402 0c.02-8.06 5.242-15.972 16.18-15.972 10.937 0 16.159 7.912 16.18 15.972m-32.36 0C32.605 93.472 38.19 102 48.806 102s16.2-8.528 16.18-16.896m34.042 0H64.985" stroke="#154911" stroke-width="5"/></svg>