<svg width="137" height="136" fill="none" xmlns="http://www.w3.org/2000/svg"><path d="M38.463 84.744L55.268 70.11M38.463 84.745s-.795 37.445 0 38.499c.794 1.055 3.043 2.44 3.043 2.44m-3.043-40.939c.266-3.627-.108-4.981-2.514-5.142h-13.96m33.279-9.493L42.71 23.993a5 5 0 013.594-6.16l22.593-5.736M55.267 70.11l2.282 8.092a5 5 0 004.812 3.643h6.536m0-69.747V8a5 5 0 015-5H129a5 5 0 015 5v120a5 5 0 01-5 5h-23.979M68.897 12.097v17.14m0 52.607V29.237m0 52.607l-9.3-36.235c-.594-2.312.684-4.548 2.427-6.18 1.545-1.446 2.52-3.449 3.131-6.91.327-1.848 1.865-3.282 3.742-3.282v0m0 52.607H79.35m35.066 12.13c5.955 1.318 9.527-12.13 0-12.13H79.35m35.066 12.13h7.94m-7.94 0H83.85m38.506 0c8.336 0 7.674 12.789 0 12.789h-7.94m7.94-12.79l.661-32.829m-8.601 45.619c7.94-.923 9.66 13.712 0 13.712H83.85m30.566-13.712H83.85M105.02 133H50.636c-2.117 0-7.277-3.032-9.13-7.317M105.021 133c8.734 0 10.321-11.339 0-11.998m17.335-82.14v-7.754c0-2.389-1.778-4.246-3.934-5.277-1.239-.593-2.145-1.4-2.803-2.614-1.185-2.182-3.044-4.132-5.527-4.132H92.769c-2.033 0-3.776 1.281-4.806 3.034-1.061 1.809-2.34 3.033-4.391 3.853-2.317.927-4.222 2.881-4.222 5.376v50.496m43.667-33.357v4.483m-81.51 72.713c-.874 4.445-1.924 6.249-4.976 7.16a4.156 4.156 0 01-1.185.157H8.028c-2.506-.166-3.686-.901-4.74-3.566A4.4 4.4 0 013 127.815v-43.07c.288-4.034 1.594-4.914 5.028-5.143h13.96m0 0v33.357m79.99-56.298c13.232 0 13.761 20.436 0 21.096-13.762.659-15.044-20.808 0-21.096z" stroke="#154911" stroke-width="5"/></svg>