<svg width="116" height="134" fill="none" xmlns="http://www.w3.org/2000/svg"><path d="M46.84 26.36l4.143 3.933a5 5 0 007.357-.517l10.82-13.627M4.323 6.202l14.35 7.427M4.321 25.565h14.35M4.321 44.53l14.35-7.825m78.79-23.076l13.951-7.427m-13.95 19.363h13.951m-13.951 11.14l13.021 7.03M58 66.942l7.948 11.844A5 5 0 0070.1 81h39.187M58 66.943l-8.078 11.871a5 5 0 01-4.134 2.187H5.916M58 66.943V90.02M5.916 81.001v0c-2.254 0-3.717-2.376-2.701-4.389L8.78 65.58a5 5 0 014.464-2.747h89.847a5 5 0 014.503 2.827l4.922 10.197c1.149 2.381-.586 5.145-3.23 5.145v0m-103.37 0V126a5 5 0 005 5H57.6m51.686-49.999V126a5 5 0 01-5 5H57.601M58 113.229L57.601 131m-21.524-14.721H18.67M57.335 3.001C28.87 2.822 28.105 46.917 58 46.917S85.8 3.18 57.335 3.001z" stroke="#154911" stroke-width="5"/></svg>