<svg width="100" height="69" viewBox="0 0 100 69" fill="none" xmlns="http://www.w3.org/2000/svg">
<path d="M91.6239 27.5667H65.1586V7.89333M91.6239 27.5667L98 35.3667V55.9067H87.2046M91.6239 27.5667L82.1907 7.89333H65.1586M6.37611 40.3067H24.7184M0 27.5667H32.3173M5.59002 14.74H37.3832M65.1586 7.89333V2H10.4813V55.9067H21.6037M76.6007 45.42C61.4104 45.4164 62.5485 66.9949 76.164 67M76.6007 45.42C84.0572 45.42 87.3718 50.6146 87.2046 55.9067M76.6007 45.42C69.1442 45.42 65.6194 50.6146 65.5724 55.9067M76.164 67C83.1045 67 87.031 61.4009 87.2046 55.9067M76.164 67C69.2235 67 65.5236 61.4009 65.5724 55.9067M21.6037 55.9067C21.6174 50.6146 25.0751 45.42 32.3173 45.42C39.5595 45.42 43.0172 50.6146 43.0308 55.9067M21.6037 55.9067C21.5896 61.4009 25.2878 67 32.3173 67C39.3468 67 43.045 61.4009 43.0308 55.9067M65.5724 55.9067H43.0308" stroke="black" stroke-width="3"/>
</svg>
