<svg width="91" height="89" viewBox="0 0 91 89" fill="none" xmlns="http://www.w3.org/2000/svg">
<path d="M25.5515 55.4483L36.7121 45.8793M25.5515 55.4483C25.5515 55.4483 25.0241 79.931 25.5515 80.6207C26.079 81.3103 27.5727 82.2155 27.5727 82.2155M25.5515 55.4483C25.7283 53.0766 25.4802 52.1909 23.8818 52.0862H14.6106M36.7121 45.8793L27.4849 12.5172L45.7636 7.94828M36.7121 45.8793L38.9091 53.5517H45.7636M45.7636 7.94828V2H89V87H69.7545M45.7636 7.94828V19.1552M45.7636 53.5517V19.1552M45.7636 53.5517L38.9091 27.2586C41.7905 25.8998 43.037 24.51 43.5667 19.1552H45.7636M45.7636 53.5517H52.7061M75.9939 61.4828C79.9485 62.3448 82.3212 53.5517 75.9939 53.5517C69.6667 53.5517 52.7061 53.5517 52.7061 53.5517M75.9939 61.4828C78.0531 61.4828 81.2667 61.4828 81.2667 61.4828M75.9939 61.4828C68.0663 61.4828 55.6939 61.4828 55.6939 61.4828M81.2667 61.4828C86.803 61.4828 86.3636 69.8448 81.2667 69.8448C76.1697 69.8448 75.9939 69.8448 75.9939 69.8448M81.2667 61.4828C81.4383 53.1 81.7061 40.0172 81.7061 40.0172M75.9939 69.8448C81.2667 69.2414 82.4091 78.8103 75.9939 78.8103C69.5788 78.8103 72.1912 78.8103 69.7545 78.8103C64.2635 78.8103 55.6939 78.8103 55.6939 78.8103M75.9939 69.8448H55.6939M69.7545 87C69.7545 87 35.0423 87 33.6364 87C32.2305 87 28.8032 85.0172 27.5727 82.2155M69.7545 87C75.5545 87 76.6091 79.5862 69.7545 79.1552M81.2667 25.4483V17.6897C77.9095 17.0397 76.5307 16.1433 75.9939 12.5172H59.3848C58.0561 15.7271 56.8714 17.1189 52.7061 17.6897V53.5517M81.7061 31.7414V34.6724M27.5727 82.2155C26.9575 85.2996 26.2096 86.4395 23.8818 87H5.33939C3.52187 86.8814 2.75494 86.3196 2 84.1552V55.4483C2.1916 52.8108 3.05877 52.2357 5.33939 52.0862H14.6106M14.6106 52.0862V73.8966M67.7333 37.0862C76.5212 37.0862 76.8727 50.4483 67.7333 50.8793C58.5939 51.3103 57.7423 37.2744 67.7333 37.0862Z" stroke="black" stroke-width="3"/>
</svg>
