<svg width="101" height="106" viewBox="0 0 101 106" fill="none" xmlns="http://www.w3.org/2000/svg">
<path d="M25.5458 38.2236H10.2762L3 103H98L90.7238 38.2236H75.4542M32.3096 38.2236H68.5879M42.2503 46.5919H58.7497V55.4767H42.2503V46.5919ZM25.5458 56.9238H32.3096C32.3096 56.9238 32.3096 45.5602 32.3096 24.8972C32.3096 4.23429 68.5879 1.75481 68.5879 24.8972C68.5879 48.0396 68.5879 56.9238 68.5879 56.9238H75.4542C75.4542 56.9238 75.4542 55.1682 75.4542 24.8972C75.4542 -5.37372 25.5458 -3.20429 25.5458 24.8972C25.5458 52.9987 25.5458 56.9238 25.5458 56.9238Z" stroke="black" stroke-width="5"/>
</svg>
