<svg width="51" height="44" fill="none" xmlns="http://www.w3.org/2000/svg"><path fill-rule="evenodd" clip-rule="evenodd" d="M12.852.19c-.3.135-.517.337-.757.71-.185.287-2.982 5.03-6.216 10.54C.053 21.37 0 21.466 0 22c0 .535.053.631 5.88 10.56 3.233 5.51 6.03 10.253 6.215 10.54.632.98-.598.898 13.405.898s12.773.083 13.405-.898c.185-.287 2.982-5.03 6.215-10.54C50.947 22.63 51 22.534 51 22c0-.535-.053-.631-5.88-10.56C41.888 5.93 39.09 1.188 38.906.9c-.632-.98.598-.898-13.405-.898-11.837 0-12.24.006-12.648.188zm14.62 10.718c2.102.318 4.5 1.548 6.112 3.136 1.297 1.276 2.438 3.187 2.934 4.915.533 1.855.533 4.227 0 6.082-.496 1.728-1.636 3.639-2.934 4.915-1.297 1.277-3.238 2.4-4.994 2.888-1.885.525-4.295.525-6.18 0-1.1-.306-2.861-1.16-3.735-1.813-1.503-1.12-2.581-2.407-3.412-4.07-.984-1.97-1.35-3.93-1.134-6.062.145-1.43.467-2.525 1.134-3.86 1.156-2.313 2.845-3.976 5.197-5.115 2.24-1.085 4.445-1.404 7.013-1.016z" fill="#000"/></svg>