<?xml version="1.0" standalone="no"?>
<!DOCTYPE svg PUBLIC "-//W3C//DTD SVG 20010904//EN"
 "http://www.w3.org/TR/2001/REC-SVG-20010904/DTD/svg10.dtd">
<svg version="1.0" xmlns="http://www.w3.org/2000/svg"
 width="350.000000pt" height="420.000000pt" viewBox="0 0 350.000000 420.000000"
 preserveAspectRatio="xMidYMid meet">
<metadata>
Created by potrace 1.16, written by Peter Selinger 2001-2019
</metadata>
<g transform="translate(0.000000,420.000000) scale(0.100000,-0.100000)"
fill="#000000" stroke="none">
<path d="M2440 4180 c-103 -27 -260 -107 -350 -179 -188 -150 -327 -407 -346
-642 -4 -42 -4 -89 0 -103 6 -25 10 -26 70 -26 140 0 307 68 444 181 200 165
332 443 332 700 l0 89 -37 -1 c-21 0 -72 -9 -113 -19z"/>
<path d="M2340 3171 c-95 -22 -170 -47 -345 -117 -112 -45 -126 -48 -210 -48
-87 0 -96 2 -260 66 -248 96 -349 115 -506 98 -399 -44 -726 -315 -867 -721
-65 -184 -77 -270 -77 -529 0 -201 4 -254 23 -363 78 -432 253 -834 509 -1170
24 -31 42 -57 39 -57 -2 0 36 -43 86 -94 159 -168 274 -229 428 -228 96 1 160
18 333 89 140 57 215 73 353 73 129 0 197 -15 359 -82 145 -60 175 -69 271
-75 155 -10 280 39 407 157 128 120 315 381 421 590 54 106 146 328 146 352 0
7 -39 36 -87 63 -51 29 -122 83 -171 129 -134 127 -207 244 -259 413 -24 80
-27 103 -27 253 0 130 3 179 18 230 56 202 184 389 351 515 l75 56 -47 61
c-124 158 -292 266 -503 323 -132 37 -337 44 -460 16z"/>
</g>
</svg>
