<svg width="48" height="38" fill="none" xmlns="http://www.w3.org/2000/svg"><g clip-path="url(#clip0)" fill="#fff"><path d="M29.142 8.624H41.14v3.445H29.142V8.624zm0 8.614H41.14v3.445H29.142v-3.445zm0 8.612H41.14v3.446H29.142V25.85z"/><path d="M44.568.011H3.432a3.423 3.423 0 00-2.423 1.01A3.458 3.458 0 00.004 3.456v31.008c.001.914.363 1.79 1.005 2.436a3.423 3.423 0 002.423 1.01h41.136a3.425 3.425 0 002.422-1.011 3.459 3.459 0 001.006-2.435V3.456a3.461 3.461 0 00-1.005-2.435 3.423 3.423 0 00-2.423-1.01zM3.432 3.456h18.854v31.008H3.432V3.456zm22.282 31.008V3.456h18.854l.003 31.008H25.714z"/></g><defs><clipPath id="clip0"><path fill="#fff" d="M0 0h48v37.92H0z"/></clipPath></defs></svg>