<svg width="27" height="54" fill="none" xmlns="http://www.w3.org/2000/svg"><path fill-rule="evenodd" clip-rule="evenodd" d="M10.453.4C6.272.678 2.24 1.63.731 2.694c-.677.477-.764.78-.722 2.527.031 1.335.055 1.494.27 1.804.374.536.75.678 1.97.745.776.043 1.132.105 1.242.218.225.23 4.3 7.77 4.438 8.212.07.22.136 1.417.162 2.922.041 2.303.064 2.575.24 2.829.227.326.798.552 1.13.446.659-.21 8.404-3.745 8.686-3.965.422-.327.68-.855.817-1.667.06-.353.208-.844.33-1.093.476-.967 3.899-7.236 4.12-7.544.234-.325.24-.327 1.33-.37 1.23-.047 1.593-.182 1.976-.733.216-.31.24-.469.271-1.804.042-1.747-.045-2.05-.722-2.527C23.9 1.024 16.712-.02 10.453.399zm6.602 20.734c-3.868 1.672-8.002 3.606-8.248 3.858-.597.612-.69.955-.69 2.559 0 1.446.003 1.463.28 1.777.557.634.576.629 5.01-1.355 2.202-.985 4.198-1.905 4.435-2.045.288-.17.534-.436.736-.796.297-.532.303-.57.304-2.024 0-1.472-.001-1.483-.279-1.79-.39-.432-.848-.487-1.548-.184zm.478 7.12c-.1.026-1.996.86-4.214 1.854-2.473 1.107-4.182 1.933-4.416 2.133-.68.58-.786.93-.786 2.608v1.472l.358.367c.324.332.4.362.788.314.393-.048 7.563-3.195 8.534-3.745.23-.13.556-.438.726-.686.306-.447.31-.466.342-1.997.036-1.737-.036-1.984-.66-2.25-.343-.148-.37-.15-.672-.07zm-4.275 9.187c-2.613 1.174-4.265 1.974-4.456 2.158-.564.543-.68.97-.683 2.511-.002 1.435.056 1.7.442 2.021.452.376.798.263 5.064-1.645 2.25-1.005 4.25-1.957 4.445-2.113a2.64 2.64 0 00.584-.744c.204-.408.229-.612.229-1.848 0-1.438-.059-1.705-.444-2.025-.468-.389-.817-.275-5.181 1.685zm-.113 7.349c-3.7 1.664-4.317 1.973-4.647 2.331-.448.486-.488.839-.166 1.485.25.503 3.9 4.394 4.444 4.739.469.297.979.297 1.45 0 .204-.129 1.237-1.152 2.297-2.274 2.447-2.59 2.36-2.393 2.36-5.309 0-2.16-.036-2.381-.444-2.72-.462-.383-.82-.265-5.294 1.748z" fill="#F96F0D"/></svg>