<svg width="131" height="131" viewBox="0 0 131 131" fill="none" xmlns="http://www.w3.org/2000/svg">
<circle cx="65.5" cy="65.5" r="65.5" fill="url(#paint0_linear)"/>
<path d="M89 59.8197V35.3627H75.5599M89 72.0482V104H42V35.3627H53.589M53.589 35.3627H75.5599M53.589 35.3627V31.6547V27H75.5599V35.3627M83.125 84.9867V97.2152H48.5993V84.9867M83.125 84.9867H48.5993M83.125 84.9867V72.0482M48.5993 84.9867V72.0482M48.5993 72.0482V49.0902M48.5993 72.0482L63.2848 72.375M83.125 72.0482V59.8197M83.125 72.0482H66.7274M83.125 59.8197V49.0902V41.9898H48.5993V49.0902M83.125 59.8197H69.7028M48.5993 49.0902V59.8197H60.7364M60.7364 59.8197C62.7211 55.9633 64.5887 52.4332 64.8562 52.2459H73.7089L69.7028 59.8197M60.7364 59.8197C59.3766 62.462 57.9618 65.2575 56.9692 67.2357L64.1176 67.5625L63.2848 72.375M69.7028 59.8197L67.7457 63.7769H75.2303L66.7274 72.0482M63.2848 72.375L62.8442 76.0717L66.7274 72.0482" stroke="white" stroke-width="2" stroke-linecap="round"/>
<defs>
<linearGradient id="paint0_linear" x1="65.5" y1="0" x2="65.5" y2="131" gradientUnits="userSpaceOnUse">
<stop stop-color="#6F81AB"/>
<stop offset="1" stop-color="#001F66"/>
</linearGradient>
</defs>
</svg>
