<svg width="122" height="122" viewBox="0 0 122 122" fill="none" xmlns="http://www.w3.org/2000/svg">
<path d="M46.6312 79.9772C47.8099 86.578 41.931 92 35.5513 92C29.1717 92 23.9999 89.4069 24 83.0419C24.0001 77.3841 32.8346 71.0494 42.5 76" stroke="#E9355C" stroke-width="2"/>
<path d="M87.1785 75.6272C88.3572 82.228 82.4783 87.65 76.0987 87.65C69.7191 87.65 64.5473 85.0568 64.5474 78.6918C64.5474 73.034 71.5 68 82.5 71.5" stroke="#E9355C" stroke-width="2"/>
<path d="M41.916 75.2089L42.2589 41.1835C42.3004 37.0652 45.4618 33.6513 49.5648 33.2942L78.6755 30.7606C83.3661 30.3523 87.3932 34.0632 87.3691 38.7715L87.1783 75.9696M82 72L82.3074 54.3058C82.3905 49.5221 78.2842 45.7356 73.523 46.2055L53.8451 48.1474C49.751 48.5514 46.6308 51.9947 46.6308 56.1087V80.0949" stroke="#E9355C" stroke-width="2"/>
<circle cx="61" cy="61" r="60.5" stroke="black"/>
</svg>
