<svg width="122" height="122" viewBox="0 0 122 122" fill="none" xmlns="http://www.w3.org/2000/svg">
<path d="M59.6334 60.8009L50.8752 51.7558M50.8752 51.7558C50.8752 51.7558 47.6163 48.5556 44.5612 45.2349C41.5061 41.9141 35.3958 47.3103 38.8582 50.6311L55.5649 67.6549C57.8137 69.9465 56.5798 73.8032 53.409 74.3075C50.9461 74.6992 48.299 75.0904 46.1908 75.3291C40.6915 75.9518 40.8951 82.8008 45.5797 83.631C49.6802 84.3577 69.5414 83.8123 74.431 83.6649C75.1446 83.6434 75.8314 83.4349 76.4193 83.03C79.7309 80.7494 91.0544 72.3333 90.9998 63.9141C90.9358 54.0536 76.946 42.1217 73.8909 40.4613C70.8357 38.8009 67.5769 41.2915 67.9449 45.2349M50.8752 51.7558C50.2642 49.3858 55.3373 44.6122 57.1893 46.2726C59.0412 47.9329 59.3279 48.3481 59.3279 48.3481M65.7438 54.5745L59.3279 48.3481M59.3279 48.3481C57.0033 45.7049 63.5499 41.1656 65.7438 43.1594C67.9376 45.1531 66.7876 44.0866 67.9449 45.2349M67.9449 45.2349C69.0672 46.3485 70.374 47.67 71.2431 48.5556L67.9449 45.2349ZM38.2473 59.9707C17.8795 43.5745 46.1907 27.1783 53.1158 44.1971" stroke="#E9355C" stroke-width="2"/>
<circle cx="61" cy="61" r="60.5" stroke="black"/>
</svg>
