<svg width="122" height="122" viewBox="0 0 122 122" fill="none" xmlns="http://www.w3.org/2000/svg">
<path d="M75.1984 46.583C86.5254 54.5992 82.5276 70.4089 75.1984 74.6397M80.3067 41.2389C97.8523 51.9271 87.6359 76.4211 80.3067 79.9838M37 72.1903H43.8941C44.7521 72.1903 45.5874 72.4662 46.2766 72.9772L60.1542 83.2674C62.7938 85.2247 66.5367 83.3405 66.5367 80.0543V41.1466C66.5367 37.8238 62.7199 35.9497 60.0907 37.9816L46.2958 48.6427C45.5953 49.1841 44.7351 49.4777 43.8498 49.4777H37C34.7909 49.4777 33 51.2686 33 53.4777V68.1903C33 70.3994 34.7909 72.1903 37 72.1903Z" stroke="#E9355C" stroke-width="2"/>
<circle cx="61" cy="61" r="60.5" stroke="black"/>
</svg>
