<svg width="122" height="122" viewBox="0 0 122 122" fill="none" xmlns="http://www.w3.org/2000/svg">
<path d="M66.0982 27C66.0982 27 66.0935 31.8256 68.1703 35.8638C70.2471 39.902 54.1966 50.3442 57.0325 53.3307C59.5765 56.0099 64.2789 52.7158 66.0982 55.9377C67.6603 58.7045 63.7666 61.1166 65.0621 64.0195C66.7329 67.7632 74.3673 63.0439 74.3984 67.1479C74.4241 70.5382 63.403 67.1479 67.923 72.8833C72.4429 78.6187 70.1496 80.4459 70.5015 83.3113C71.0683 87.9272 86.6789 83.1905 86.8196 84.8755L92 94M54.1832 65.0623C49.521 67.1479 49.78 74.9689 54.1832 77.5759M46.4128 58.0233C38.1242 66.6265 39.4194 78.6187 47.1899 83.8327M39.1604 52.2879C28.5404 60.1089 28.0226 80.4436 39.1604 89.8288" stroke="#E9355C" stroke-width="2"/>
<circle cx="61" cy="61" r="60.5" stroke="black"/>
</svg>
