<svg width="122" height="122" viewBox="0 0 122 122" fill="none" xmlns="http://www.w3.org/2000/svg">
<path d="M43.177 63.7707C43.177 76.2325 52.4215 82.7148 61.529 82.6943M79.0831 63.7707C79.0831 76.5262 70.3706 82.6745 61.529 82.6943M61.529 82.6943V91M61.529 91H71.3699M61.529 91H51.9541M46.3687 44.8171C43.177 45.8849 42.1131 51.4909 46.3687 54.1605M40.2513 38.4102C32.0062 43.4823 34.1341 57.097 40.2513 60.0334M35.198 33.0712C23.2292 36.8085 25.3571 63.7707 35.198 65.9064M76.1576 44.8171C79.6153 46.4188 80.1472 52.0248 76.1576 54.1605M81.743 38.4102C91.052 42.4145 87.8604 58.4317 81.743 60.0334M88.6583 33.0712C101.159 46.1519 95.3075 58.9656 88.6583 65.9064M50.6242 38.4102C50.6242 27.4652 72.1678 26.9312 72.1678 38.4102C72.1678 49.8891 72.1678 59.2325 72.1678 68.309C72.1678 77.3854 50.6242 78.4532 50.6242 68.309C50.6242 58.1647 50.6242 49.3552 50.6242 38.4102Z" stroke="#E9355C" stroke-width="2"/>
<circle cx="61" cy="61" r="60.5" stroke="black"/>
</svg>
