<svg width="107" height="111" viewBox="0 0 107 111" fill="none" xmlns="http://www.w3.org/2000/svg">
<path d="M20.8099 106.633C-4.02227 102.394 -4.22762 66.2074 28.7112 33.4325M36.4074 106.84C59.6013 93.1331 59.7007 66.5176 27.1722 34.2596M27.1722 95.467C41.586 92.6787 43.0816 87.485 39.8963 74.9956M25.8383 107.46C28.021 108.621 30.9689 107.564 31.7898 107.46M92.3762 73.238C97.5973 70.4061 99.3567 68.2101 98.4304 62.1751M54.4674 5C38.0645 31.7101 39.3832 42.6343 54.4674 43.358C69.5515 44.0817 69.1166 27.4951 54.4674 5ZM89.5611 28.0562C66.4731 53.8005 66.1653 82.5624 85.8671 83.4996C105.569 84.4367 112.624 68.3719 89.5611 28.0562Z" stroke="#B65E20" stroke-width="5"/>
</svg>
