<svg width="92" height="120" viewBox="0 0 92 120" fill="none" xmlns="http://www.w3.org/2000/svg">
<path d="M16.0345 110.809L16.1747 111L13.596 87.2537L36.5962 73.5221L21.8472 70.2183C49.1759 68.142 60.2749 65.1534 75.3767 51.0148L65.6816 47.2979H79.6054C88.4692 36.0061 89.59 26.1497 88.7849 6L76.3049 16.7375L72.1794 27.8879L69.8071 19.9381L56.5021 25.5133C55.6788 32.9193 53.7146 36.6074 48.1478 42.5487V27.8879C9.16099 33.3599 12.152 56.3835 11.9458 60.3068C11.7395 64.2301 9.98628 47.2979 9.98628 47.2979C3.05683 59.8643 -0.225057 67.126 7.30464 84.8791C6.7918 98.2366 10.14 102.791 16.0345 110.809Z" stroke="#B65E20" stroke-width="5"/>
</svg>
