<svg width="82" height="108" viewBox="0 0 82 108" fill="none" xmlns="http://www.w3.org/2000/svg">
<path d="M67.0324 28.3623C63.5744 35.3756 60.3191 43.5327 57.773 49.3323M52.4672 43.6786C45.8181 29.2669 53.9237 14.485 75.4595 4C84.644 43.7446 74.9757 45.6065 57.773 49.3323M57.773 49.3323C53.6451 56.014 44.4141 86.5147 44.9764 107C46.2894 89.7509 43.9973 78.0024 33.6059 63.7236M18.2388 46.1457C24.6614 52.645 29.7045 58.3626 33.6059 63.7236M3.33541 24.4561C0.318398 63.004 18.2388 69.48 33.6059 63.7236M3.7964 26.1008C30.825 28.8762 42.7041 44.2972 37.4854 59.2006" stroke="#B65E20" stroke-width="5"/>
</svg>
