<svg width="108" height="105" viewBox="0 0 108 105" fill="none" xmlns="http://www.w3.org/2000/svg">
<path d="M24.5165 44.6236V37.7882H3V102H24.5165V94.4396M24.5165 44.6236H31.0024C43.1424 44.9004 51.1536 12.2351 52.0042 7.8572C53.7794 -1.28004 63.9442 4.70021 66.2113 7.8572C68.4784 11.0142 72.2592 29.3449 61.5785 41.5166C61.5785 41.5166 86.8013 41.5166 94.7284 41.5166C102.656 41.5166 104.818 55.8089 94.7284 55.8089M24.5165 44.6236V94.4396M94.7284 55.8089H76.9181M94.7284 55.8089C108.833 55.8089 108.009 71.1369 94.7284 71.1369M94.7284 71.1369H75.5797M94.7284 71.1369C103.582 71.1369 104.818 86.2578 94.7284 86.2578C84.6393 86.2578 86.4924 86.2578 86.4924 86.2578M69.9175 86.2578H86.4924M86.4924 86.2578C98.4346 86.2578 96.4786 100.654 86.4924 100.654C76.5063 100.654 38.003 100.654 38.003 100.654L24.5165 94.4396" stroke="#B65E20" stroke-width="5"/>
</svg>
