<svg width="734" height="782" viewBox="0 0 734 782" fill="none" xmlns="http://www.w3.org/2000/svg">
<path fill-rule="evenodd" clip-rule="evenodd" d="M-103.722 351.584C-94.8573 373.654 -85.036 407.524 -81.8978 426.853C-69.1022 505.615 -67.4165 509.6 -28.5487 553.301C0.650061 586.128 12.0234 603.809 29.9645 644.283C56.8273 704.889 67.5569 713.959 147.579 743.712C200.423 763.36 201.828 763.627 226.435 758.874C249.977 754.324 253.851 754.819 290.758 767.064C340.086 783.427 389.545 786.505 419.276 775.066C432.959 769.804 448.384 768.055 465.93 769.78C504.022 773.525 522.595 765.464 555.238 731.026C570.836 714.566 595.209 692.173 609.393 681.26C628.125 666.851 648.652 641.966 684.363 590.377L733.539 519.336L728.458 495.574C725.661 482.506 723.153 467.664 722.877 462.592C722.501 455.572 714.453 450.2 689.148 440.059C670.868 432.741 649.554 424.827 641.785 422.481C621.13 416.237 635.315 411.592 674.5 411.762C708.027 411.908 729.554 405.513 730.577 395.099C731.435 386.37 693.32 289.24 687.371 284.996C684.627 283.044 680.025 274.438 677.146 265.874C674.267 257.314 665.513 245.109 657.7 238.756C649.885 232.407 634.654 213.013 623.85 195.659C604.497 164.579 577.477 138.858 554.494 129.642C540.066 123.854 506.815 82.7506 491.939 52.3125C479.223 26.3055 458.669 12.4636 428.337 9.48187C395.679 6.27144 264.219 6.87545 247.848 10.3102C237.171 12.5529 226.072 11.1592 209.705 5.51961C188.37 -1.83269 184.886 -1.7809 163.718 6.18495C151.122 10.9307 133.874 21.5289 125.393 29.7423C102.978 51.4474 105.608 66.0035 140.22 111.84C155.856 132.544 167.635 150.256 166.398 151.198C165.16 152.145 153.934 145.062 141.46 135.462C128.982 125.863 98.909 108.852 74.6305 97.6564C30.5251 77.3174 30.4669 77.3072 12.4874 83.7569C-29.4662 98.8045 -40.3057 114.948 -52.509 180.554C-61.5303 229.053 -65.6231 236.703 -104.406 277.626C-111.834 285.466 -118.345 296.285 -118.874 301.667C-119.403 307.049 -112.586 329.509 -103.722 351.584ZM-69.0994 278.139C-34.7877 252.229 -26.4271 239.717 -14.8517 196.912C6.29924 118.695 36.6596 86.6971 62.2576 115.644C67.1427 121.168 76.3398 126.199 82.6984 126.825C89.057 127.45 99.2744 132.443 105.408 137.921C122.791 153.45 180.757 180.425 183.646 174.326C191.765 157.195 206.291 150.534 229.564 153.29C242.563 154.829 266.373 157.642 282.471 159.541C319.881 163.957 338.342 164.203 336.238 160.255C333.814 155.697 349.787 152.544 355.321 156.49C357.912 158.336 361.756 157.737 363.86 155.161C370.507 147.024 405.065 171.171 417.304 192.499C430.595 215.669 438.177 214.993 425.786 191.747C409.185 160.584 391.809 146.133 368.997 144.514C335.179 142.111 330.691 142.39 333.015 146.755C334.232 149.039 326.95 152.583 316.84 154.629C302.425 157.545 289.39 156.222 256.508 148.51C223.116 140.674 212.144 139.591 202.685 143.191C192.222 147.17 189.863 146.319 182.955 136.08C178.639 129.68 175.193 123.078 175.298 121.405C175.403 119.733 185.387 115.909 197.49 112.907C216.584 108.172 223.226 108.582 247.768 115.993C281.171 126.077 322.912 129.607 328.46 122.815C330.625 120.171 339.028 118.425 347.139 118.943C355.25 119.456 361.108 118.404 360.155 116.6C359.202 114.796 363.092 112.427 368.8 111.337C385.411 108.165 421.104 132.106 436.968 157.065C444.665 169.171 457.763 187.686 466.084 198.216L481.207 217.357L460.571 247.871C449.219 264.653 433.92 285.599 426.569 294.419C419.223 303.239 412.887 314.075 412.492 318.498C411.915 325.017 412.731 325.404 416.802 320.531C421.098 315.391 424.848 315.939 442.697 324.32C458.584 331.778 465.387 338.523 471.186 352.574C475.379 362.726 483.932 382.243 490.194 395.95C500.521 418.554 500.891 422.364 494.182 437.006C490.117 445.879 482.427 456.838 477.092 461.358C471.758 465.878 460.619 479.644 452.343 491.95C444.066 504.26 430.396 517.979 421.958 522.441C412.505 527.441 403.984 537.164 399.743 547.779C391.64 568.062 378.607 579.364 368.698 574.694C364.817 572.863 358.536 573.305 354.74 575.678C349.729 578.813 340.285 577.394 320.13 570.483C289.97 560.14 285.009 560.404 283.826 572.44C283.396 576.809 279.674 583.899 275.557 588.19C271.439 592.48 268.757 599.833 269.593 604.528C270.514 609.713 268.486 612.825 264.431 612.458C260.753 612.124 249.634 612.292 239.721 612.835C222.421 613.78 221.846 613.352 225.306 602.197C228.347 592.394 231.502 590.829 245.45 592.2C254.541 593.094 262.186 591.782 262.431 589.284C262.677 586.786 256.28 584.093 248.215 583.301C237.131 582.211 233.757 579.779 234.391 573.33C235.625 560.777 248.856 554.342 263.335 559.255C272.384 562.327 275.39 561.82 274.294 557.407C273.426 553.892 261.705 549.186 246.533 546.254C223.045 541.717 215.37 536.964 173.641 501.089C147.987 479.033 127.165 459.332 127.365 457.302C127.564 455.272 122.052 443.977 115.118 432.194C108.183 420.415 102.727 408.149 102.993 404.938C103.259 401.727 111.591 395.636 121.506 391.401C155.873 376.731 142.322 370.305 83.7863 373.524C61.956 374.721 33.9073 377.682 21.4559 380.103C-0.679737 384.407 -1.40169 384.221 -11.0402 371.833C-24.5949 354.405 -21.9326 334.702 -4.83981 325.927C34.0488 305.965 40.0311 299.826 43.4973 276.314C45.6641 261.601 50.98 249.289 58.6371 241.224C69.1454 230.156 76.5452 208.795 80.4763 178.193C81.1952 172.586 86.5843 164.349 92.4517 159.882C100.378 153.847 101.306 151.581 96.0669 151.066C87.4063 150.215 72.0964 166.153 71.0164 177.139C70.5802 181.576 68.3267 185.023 66.015 184.796C63.6983 184.568 62.316 189.242 62.9415 195.178C63.5666 201.118 57.4071 217.543 49.2523 231.676C40.4491 246.933 34.9406 262.307 35.6984 269.508C37.0259 282.106 21.8189 308.844 13.7791 308.054C5.31888 307.222 -28.1268 332.305 -28.888 340.048C-29.3019 344.258 -26.0904 356.014 -21.7447 366.172C-17.4043 376.334 -15.1837 386.273 -16.8056 388.264C-18.4323 390.255 -16.3306 392.218 -12.1421 392.629C-6.24292 393.209 -5.0333 398.574 -6.78386 416.382C-9.08357 439.775 1.49526 480.447 14.4097 497.862C18.2006 502.972 30.0536 511.708 40.7435 517.266C51.4378 522.829 63.7433 533.187 68.0887 540.286C100.771 593.65 123.057 621.098 137.219 625.416C145.532 627.948 160.711 635.131 170.953 641.379C181.195 647.627 192.031 652.548 195.04 652.317C198.043 652.085 209.605 655.904 220.729 660.803C243.641 670.892 255.35 673.167 245.066 665.53C231.799 655.673 270.6 663.11 304.142 676.853C332.68 688.541 339.292 689.746 359.095 686.841C371.477 685.023 394.227 684.76 409.644 686.253C435.366 688.744 438.813 687.864 451.331 675.622C492.817 635.065 519.21 613.059 527.827 611.838C534.918 610.838 535.948 609.344 531.66 606.286C522.243 599.573 553.958 567.502 568.586 568.94C574.94 569.565 579.933 572.178 579.68 574.749C578.666 585.063 541.792 634.18 520.467 653.626C507.979 665.009 492.171 681.297 485.337 689.823C463.757 716.737 452.021 719.614 385.858 714.178C338.531 710.292 321.264 706.985 297.008 697.167C276.548 688.888 260.661 685.295 247.431 685.947C234.375 686.594 223.464 684.183 214.314 678.624C197.062 668.143 188.9 667.281 204.404 677.582C215.971 685.267 215.975 685.272 204.811 684.339C198.664 683.822 182.846 676.962 169.659 669.094C156.473 661.223 135.621 650.914 123.32 646.179C99.7169 637.1 88.0547 626.172 94.0851 618.791C96.0764 616.355 95.7975 614.172 93.4711 613.943C91.1446 613.715 79.9267 599.021 68.5432 581.293C50.8089 553.674 43.0458 546.353 14.296 530.142C-18.7041 511.537 -19.4275 510.714 -29.4446 480.29C-36.5017 458.861 -38.832 441.202 -37.0252 422.823C-34.7947 400.133 -36.3112 393.573 -47.4934 377.562C-54.6824 367.263 -61.3901 353.925 -62.3937 347.92C-64.9016 332.922 -50.4816 317.602 -25.3506 308.582C-1.47295 300.011 11.7872 281.281 13.3116 253.977C13.9976 241.728 18.3117 232.179 27.3996 222.81C37.0752 212.834 42.1564 200.852 46.8567 176.933C50.3539 159.127 55.186 141.146 57.5905 136.966C60.0417 132.714 59.8429 129.163 57.1451 128.898C50.8353 128.278 40.9786 147.375 34.6164 172.538C31.8204 183.612 22.8846 203.079 14.7606 215.794C5.01458 231.055 0.655461 242.87 1.93512 250.534C5.44313 271.472 -7.82646 290.399 -34.9635 303.161C-71.7243 320.453 -78.1147 340.179 -57.5154 372.739C-47.8281 388.044 -45.4357 398.495 -45.7986 423.872C-46.2877 457.661 -33.2914 501.652 -18.4367 516.497C-13.8218 521.105 -0.444869 530.202 11.2865 536.711C27.792 545.858 37.6182 556.788 54.6586 584.94C66.7787 604.964 76.5203 623.131 76.306 625.311C75.7461 631.006 128.252 662.474 135.466 660.767C143.969 658.755 161.57 670.615 157.492 675.606C155.63 677.881 155.969 679.451 158.245 679.092C160.515 678.733 169.07 682.619 177.253 687.724C193.378 697.783 199.201 699.695 196.127 693.913C192.104 686.35 278.755 704.636 302.934 716.449C328.106 728.746 366.371 732.343 380.907 723.78C384.332 721.764 401.841 722.059 419.816 724.441C456.653 729.318 454.65 730.41 512.071 674.087C533.785 652.785 540.638 648.731 552.92 649.938L567.671 651.388L557.79 661.739C552.356 667.427 544.786 671.841 540.966 671.548C537.151 671.251 535.195 672.329 536.621 673.937C538.046 675.549 532.93 686.179 525.253 697.562C517.576 708.941 511.097 720.235 510.859 722.656C510.62 725.081 505.336 731.999 499.118 738.032C489.2 747.659 484.295 748.658 459.13 746.184C443.358 744.634 428.891 745.275 426.983 747.609C425.076 749.944 419.25 751.435 414.03 750.922C408.81 750.408 404.352 751.937 404.118 754.317C403.443 761.179 371.905 764.251 348.708 759.715C337.05 757.436 314.624 751.091 298.877 745.618C283.131 740.14 265.491 735.407 259.679 735.097C253.867 734.787 236.659 729.12 221.44 722.497C206.221 715.879 186.27 707.695 177.103 704.313C167.936 700.932 154.386 694.248 146.991 689.463C139.596 684.673 134.87 683.251 136.49 686.294C138.111 689.338 138.599 691.747 137.573 691.646C133.536 691.249 88.3802 672.054 79.2254 666.844C69.4166 661.258 52.8819 633.986 57.2771 630.639C60.4401 628.231 36.9348 596.72 15.3035 574.358C-43.8253 513.231 -49.2084 505.443 -56.8632 469.965C-72.0927 399.397 -80.3317 369.258 -90.6287 346.401C-106.128 312.008 -103.683 304.256 -69.0994 278.139ZM11.5269 393.26C36.4771 389.591 38.5521 391.624 38.5337 419.722C38.5062 458.554 51.1899 484.691 76.624 498.187C91.4958 506.082 101.43 516.363 112.107 534.911C131.238 568.147 138.933 575.703 166.871 588.685C179.527 594.569 193.586 601.247 198.113 603.531C202.641 605.811 206.519 605.871 206.736 603.659C206.954 601.447 194.512 594.781 179.083 588.849C153.083 578.851 149.434 575.553 129.066 543.607C112.947 518.334 101.747 506.311 87.0444 498.505C63.0176 485.753 55.6006 476.669 47.4271 449.98C36.7842 415.231 43.6272 388.941 62.8203 390.828C70 391.533 81.129 425.304 79.5449 441.568C77.9193 458.306 79.7839 462.479 94.5961 475.146C120.327 497.169 146.588 528.107 154.246 545.427C158.672 555.427 164.787 561.343 171.37 561.99C177.005 562.544 187.994 566.871 195.789 571.608C203.579 576.34 211.175 579.293 212.658 578.159C214.146 577.026 204.585 569.671 191.418 561.81C178.24 553.948 165.522 542.317 163.142 535.952C160.763 529.587 142.871 509.138 123.385 490.504C94.8013 463.171 88.1937 454.185 89.1965 443.985C89.8796 437.036 87.861 423.686 84.7106 414.32C81.5597 404.959 79.0889 396.21 79.2197 394.879C79.3505 393.549 82.7562 392.787 86.7884 393.184C90.8205 393.58 93.8222 396.929 93.4584 400.631C93.095 404.328 102.4 423.823 114.14 443.947C129.481 470.258 142.509 485.717 160.489 498.943C174.244 509.063 191.839 524.196 199.596 532.575C212.662 546.699 218.503 550.221 228.072 549.763C233.635 549.499 231.569 560.379 219.58 594.485C211.511 617.431 206.673 625.09 200.588 624.542C194.424 623.991 193.887 624.883 198.39 628.173C203.165 631.655 202.727 633.557 196.228 637.622C189.634 641.748 186.779 641.476 181.156 636.182C177.339 632.588 163.088 625.052 149.493 619.428C127.216 610.217 122.637 605.64 103.199 573.163C84.745 542.327 77.0355 534.26 49.8674 517.319C12.1712 493.827 2.20387 475.95 1.52921 430.657C1.28273 414.24 0.897721 399.483 0.671853 397.865C0.446448 396.242 5.33289 394.173 11.5269 393.26ZM23.2648 364.012C26.4606 369.453 27.0811 368.11 25.7018 358.749C22.9418 340.09 44.7263 324.852 70.537 327.39C94.7788 329.773 100.109 338.202 83.4047 347.739C58.7339 361.817 55.7411 364.352 61.1054 366.608C63.9672 367.816 73.3763 366.223 82.0112 363.069C93.1179 359.016 98.0377 354.048 98.819 346.1C99.8182 335.936 101.874 335.056 120.397 336.877L140.866 338.889L129.262 347.098C118.369 354.799 113.354 363.697 119.556 364.307C121.071 364.456 128.359 359.092 135.744 352.385C143.134 345.683 153.908 339.295 159.682 338.189C179.522 334.398 160.052 328.445 108.182 322.442C59.7659 316.834 56.2497 317.062 38.9503 326.935C20.4117 337.516 15.0884 350.103 23.2648 364.012ZM73.4322 309.332C75.788 309.564 78.4409 302.406 79.324 293.422C80.2066 284.444 85.7982 271.888 91.7482 265.526C97.8973 258.945 105.456 241.589 109.276 225.273C115.9 196.94 116.266 196.485 139.006 188.293L162.027 179.996L144.675 180.821C121.711 181.907 105.707 196.621 98.7303 223.063C95.594 234.938 89.7349 249.513 85.7064 255.454C76.674 268.776 67.5624 308.755 73.4322 309.332ZM113.905 313.311C127.424 314.64 139.983 294.759 138.503 274.377C136.885 252.08 149.243 228.175 165.601 221.951C171.886 219.561 187.255 210.452 199.755 201.708C217.232 189.486 226.226 186.284 238.651 187.85C388.465 206.754 370.336 202.927 387.463 219.257C404.477 235.484 412.33 232.5 398.012 215.254C383.015 197.19 361.867 189.691 334.316 192.659C318.171 194.397 304.042 192.902 286.601 187.606C243.887 174.645 213.449 176.664 184.368 194.394C136.903 223.34 126.747 236.795 128.152 268.884C128.928 286.587 127.048 292.464 117.719 301.521C108.429 310.535 107.728 312.704 113.905 313.311ZM156.395 38.2513C177.677 24.1108 185.765 23.9109 211.271 36.8731C235.593 49.2329 308.136 52.3702 345.585 42.685C360.107 38.9264 388.274 36.1744 408.176 36.5627C443.707 37.2629 444.587 37.5466 456.781 52.2495C463.61 60.4869 473.401 74.6372 478.546 83.6949C508.637 136.708 519.045 151.254 534.84 162.358L552.389 174.698L537.416 176.418C523.725 177.993 524.227 178.359 543.313 180.735C558.377 182.606 564.855 185.627 566.598 191.59C567.923 196.136 573.248 203.363 578.431 207.656C587.581 215.232 587.348 215.493 570.477 216.586L553.095 217.715L572.068 220.181C586.042 222 594.684 226.655 604.874 237.846C612.481 246.201 625.926 257.322 634.747 262.563C653.318 273.588 657.22 282.486 644.282 284.287C637.132 285.285 637.523 285.878 646.172 287.15C654.281 288.342 659.21 294.572 665.328 311.347C669.86 323.774 677.789 345.321 682.945 359.236C688.101 373.15 690.863 386.316 689.079 388.498C687.3 390.68 678.276 391.719 669.024 390.809C654.069 389.339 652.338 387.816 653.395 377.066C654.666 364.136 643.305 338.854 616.44 294.838C607.255 279.789 600.988 265.128 602.518 262.266C604.044 259.398 600.93 255.529 595.601 253.667C590.272 251.804 587.387 248.471 589.189 246.264C590.994 244.057 586.574 240.435 579.375 238.219C572.171 236.002 555.937 226.455 543.295 217.004L520.311 199.819L540.141 198.893L559.97 197.972L535.254 194.891C506.351 191.289 501.711 186.683 465.887 125.971C447.317 94.5052 438.077 83.8848 420.094 73.3542C395.07 58.7014 394.352 58.7271 332.885 75.9422L300.161 85.106L253.202 73.0613C191.938 57.3451 186.114 57.011 164.366 67.9095C150.995 74.6105 144.669 75.6119 141.108 71.5842C132.386 61.721 137.347 50.9056 156.395 38.2513ZM145.08 205.962C150.796 206.304 152.06 205.341 148.307 203.51C144.907 201.85 140.673 201.599 138.902 202.948C137.131 204.296 139.91 205.651 145.08 205.962ZM168.065 82.4836C183.546 73.9953 202.227 75.0705 294.265 89.7676C322.308 94.2439 340.281 95.5843 336.772 92.9328C332.481 89.691 338.961 86.1231 358.82 80.7844C382.43 74.4342 389.359 74.2762 402.017 79.7942C425.6 90.0776 446.979 111.099 462.598 139.354C470.486 153.629 482.45 171.125 489.184 178.229C499.637 189.258 500.285 191.747 493.617 195.278C487.214 198.67 487.524 199.072 495.346 197.516C507.914 195.015 524.827 211.209 515.096 216.429C510.517 218.881 511.394 219.403 517.932 218.101C533.62 214.985 587.708 259.865 590.074 277.963C590.548 281.581 592.064 285.688 593.436 287.084C594.809 288.48 606.744 308.279 619.953 331.079C643.705 372.079 649.52 398.063 634.608 396.597C630.796 396.222 624.076 396.813 619.675 397.912C613.453 399.465 611.976 396.816 613.038 386.012C614.819 367.9 608.611 351.181 588.76 320.598C579.859 306.883 572.687 293.798 572.823 291.518C573.332 283.122 551.958 260.606 531.183 247.655C498.811 227.479 465.593 192.665 449.58 162.139C441.681 147.074 428.053 127.631 419.295 118.929C405.305 105.026 400.171 102.893 376.891 101.315C362.327 100.329 351.389 101.363 352.588 103.617C354.591 107.386 345.872 108.588 330.907 106.608C327.585 106.171 325.775 107.516 326.883 109.596C332.559 120.27 294.732 118.188 239.646 104.794C206.642 96.7673 200.03 96.4063 183.908 101.732C169.847 106.379 164.154 106.407 159.317 101.855C150.689 93.7385 151.724 91.4466 168.065 82.4836ZM145.386 455.547C151.781 462.779 179.337 481.753 206.626 497.715C251.222 523.797 259.127 526.913 284.758 528.52C307.304 529.929 318.081 533.254 336.254 544.404C348.9 552.158 362.377 557.72 366.207 556.767C370.036 555.809 377.648 545.745 383.12 534.402C390.025 520.091 401.978 507.477 422.184 493.181C457.183 468.416 477.285 433.199 470.548 408.459C464.243 385.301 435.56 354.102 419.085 352.483C408.709 351.463 402.345 346.875 395.14 335.226C362.153 281.859 346.409 265.161 321.359 256.949C274.618 241.628 265.165 241.364 299.006 256.329C318.41 264.908 338.166 277.328 344.286 284.799C392.34 343.434 409.189 360.681 419.389 361.683C431.857 362.909 456.907 390.156 462.365 408.425C466.583 422.536 452.442 455.349 438.204 464.501C433.031 467.825 424.314 475.736 418.834 482.085C413.354 488.433 406.232 493.369 403.006 493.052C396.794 492.441 377.943 518.596 376.892 529.287C376.55 532.775 372.525 538.473 367.943 541.962C360.401 547.704 357.79 547.158 340.144 536.115C328.066 528.559 307.782 521.608 286.729 517.805C248.42 510.889 172.294 474.98 154.209 455.296C135.54 434.977 149.791 385.488 181.941 358.976C199.796 344.255 209.208 327.527 211.235 306.903C212.059 298.524 217.073 285.224 222.377 277.345C227.677 269.465 233.799 260.144 235.98 256.635C238.161 253.121 245.372 249.396 252.003 248.347C263.301 246.569 263.396 246.353 253.506 244.955C235.085 242.346 226.848 247.029 212.328 268.383C202.66 282.596 197.432 296.729 195.835 312.969C193.859 333.066 191.073 338.675 177.851 349.183C161.235 362.392 137.211 407.339 135.057 429.257C134.257 437.386 138.205 447.427 145.386 455.547ZM127.132 637.318C138.989 642.909 142.287 641.931 132.907 635.603C128.261 632.468 123.336 630.759 121.965 631.808C120.589 632.851 122.916 635.336 127.132 637.318ZM159.049 322.334C164.572 322.877 181.585 276.861 182.08 260.035C182.338 251.334 187.792 244.997 202.859 235.895C222.407 224.087 225.398 223.721 272.074 227.452C335.608 232.528 366.353 246.455 383.548 277.956C396.307 301.326 411.601 318.378 407.63 304.809C401.171 282.76 372.168 245.734 351.855 233.612C330.781 221.035 327.8 220.485 276.148 219.594C206.1 218.39 203.485 218.784 185.602 233.24C172.56 243.775 170.013 249.251 167.745 271.621C166.291 285.968 162.692 303.149 159.754 309.794C156.53 317.089 156.249 322.059 159.049 322.334ZM176.837 383.694C181.025 384.106 183.299 382.266 181.882 379.605C180.466 376.943 177.241 374.563 174.709 374.314C172.178 374.065 169.909 375.906 169.664 378.404C169.418 380.901 172.648 383.282 176.837 383.694ZM169.334 659.809C181.19 665.399 184.489 664.421 175.108 658.093C170.462 654.958 165.537 653.25 164.166 654.298C162.79 655.341 165.117 657.826 169.334 659.809ZM201.91 452.116C215.026 465.521 224.278 470.896 236.267 472.075C245.431 472.976 259.684 479.132 268.542 486.014C281.08 495.758 293.181 499.717 326.318 504.928L368.232 511.515L372.824 497.586C380.271 474.988 392.163 463.652 404.198 467.678C409.964 469.607 412.001 469.724 408.731 467.94C404.596 465.681 406.807 462.313 415.985 456.896C424.436 451.908 429.633 444.564 430.428 436.48C431.837 422.147 417.169 394.609 403.417 385.764C369.893 364.205 354.228 348.464 346.061 328.141C334.722 299.921 311.567 284.618 282.728 286.286C258.514 287.684 236.345 302.466 234.794 318.243C233.307 333.376 219.006 358.172 201.893 375.285C191.73 385.452 187.832 394.377 186.17 411.285C184.158 431.754 185.565 435.41 201.91 452.116ZM199.215 392.282C203.051 387.349 214.205 375.239 223.993 365.37C237.04 352.222 242.26 342.689 243.542 329.65C245.956 305.098 253.729 296.155 275.581 292.778C301.025 288.85 334.334 307.632 339.046 328.565C343.155 346.807 355.096 361.32 384.268 383.529C408.936 402.306 424.858 430.545 416.653 440.968C414.178 444.113 403.323 452.483 392.535 459.566C379.895 467.871 371.258 477.875 368.25 487.691C363.687 502.585 353.394 506.938 347.763 496.352C345.968 492.979 336.992 491.372 323.1 491.932C305.764 492.636 298.083 490.555 285.854 481.833C275.418 474.397 262.182 470.037 244.871 468.335C222.305 466.117 217.523 463.813 204.2 448.746C187.826 430.23 185.98 409.309 199.215 392.282ZM233.396 617.84C242.343 618.339 252.437 618.817 255.819 618.898C263.499 619.08 261.892 649.731 253.994 653.728C247.295 657.114 223.1 655.107 208.669 649.965C198.542 646.36 198.514 645.835 207.687 631.591C215.432 619.563 220.052 617.092 233.396 617.84ZM228.393 433.553C233.859 437.484 237.794 438.32 238.061 435.604C238.308 433.088 236.312 430.81 233.624 430.546C225.603 429.757 230.485 405.6 240.836 394.828C246.129 389.323 258.276 373.033 267.834 358.629C281.865 337.485 287.746 332.423 298.37 332.325C308.52 332.232 312.079 334.677 313.928 343.026C318.36 363.005 337.624 386.455 358.437 397.213C396.268 416.77 392.186 444.79 349.26 460.2L329.07 467.446L305.159 455.925C292.005 449.583 275.267 443.902 267.964 443.294C256.012 442.298 256.486 442.991 272.728 450.205C282.653 454.611 294.331 461.862 298.675 466.311C314.699 482.72 340.916 478.662 375.618 454.409C403.256 435.088 394.781 405.197 357.459 390.344C342.899 384.547 324.598 358.478 325.887 345.366C327.242 331.582 308.649 316.718 293.631 319.589C286.908 320.872 277.539 330.438 268.805 344.936C261.091 357.746 247.291 376.098 238.144 385.722C218.798 406.065 215.139 424.015 228.393 433.553ZM260.833 407.858C272.438 380.519 299.826 368.767 312.265 385.796C315.354 390.02 322.243 396.136 327.574 399.384C336.015 404.533 335.85 403.545 326.266 391.707C311.987 374.066 300.801 367.235 289.676 369.36C279.06 371.389 256.121 400.526 255.562 412.691C255.331 417.704 257.499 415.72 260.833 407.858ZM288.336 435.452C300.906 436.944 316.774 440.783 323.595 443.976C341.207 452.214 355.49 445.809 357.15 428.933C358.016 420.122 355.203 413.591 348.83 409.599C339.385 403.681 339.338 403.809 346.458 416.358C353.003 427.888 352.908 429.763 345.478 435.415C338.506 440.728 334.742 440.569 320.985 434.388C309.023 429.016 299.537 427.831 285.106 429.907L265.485 432.729L288.336 435.452ZM283.413 409.074C285.079 406.083 285.582 400.974 284.53 397.72C283.483 394.462 282.122 396.91 281.508 403.155C280.894 409.399 281.753 412.061 283.413 409.074ZM281.39 628.244C282.483 627.315 292.195 629.971 302.966 634.143C320.959 641.112 376.161 645.406 408.787 642.368C419.823 641.343 472.032 595.916 494.723 567.59C501.349 559.322 509.013 551.487 511.757 550.175C514.501 548.867 520.526 537.377 525.143 524.638C531.027 508.411 538.522 498.175 550.196 490.417C566.604 479.516 566.841 478.912 566.254 449.695C565.928 433.384 566.563 419.351 567.667 418.51C568.766 417.669 574.265 419.861 579.88 423.375C594.258 432.382 653.155 453.446 668.043 454.909C681.41 456.223 682.632 458.549 684.008 485.409C684.898 502.811 684.767 502.94 669.421 500.024C655.581 497.397 654.066 495.538 655.196 482.53C656.572 466.635 650.986 455.438 648.667 469.434C647.874 474.189 647.36 480.829 647.514 484.182C647.997 494.428 635.432 502.515 624.687 498.873C615.289 495.693 615.309 495.883 625.025 501.767L635.429 508.068L616.32 525.008C590.172 548.19 586.589 551.804 586.851 554.709C587.59 562.962 580.893 566.179 568.367 563.59C555.507 560.932 554.908 560.038 562.468 554.72C567.086 551.464 570.203 545.062 569.388 540.497C568.371 534.785 570.681 532.462 576.786 533.062C583.364 533.709 584.37 532.469 580.67 528.285C576.971 524.102 579.155 519.86 589.079 511.917C596.449 506.02 604.978 496.665 608.024 491.127C615.409 477.702 617.883 449.978 611.744 449.375C609.056 449.111 605.968 457.932 604.882 468.982C603.409 483.969 599.342 492.305 588.88 501.8C581.165 508.8 571.817 514.232 568.108 513.867C564.124 513.476 562.243 516.102 563.508 520.293C565.021 525.289 562.237 527.202 554.082 526.777C546.217 526.366 545.101 527.082 550.596 529.016C560.574 532.523 555.212 544.556 543.936 543.952C538.841 543.68 538.041 544.587 541.755 546.411C554.902 552.871 546.187 562.162 527.975 561.096C510.478 560.073 510.329 560.187 524.857 563.343L540.134 566.666L527.585 585.792C519.198 598.568 511.774 604.721 505.219 604.328C499.637 603.995 498.026 605.02 501.486 606.713C505.757 608.802 502.194 614.821 489.499 626.953C479.565 636.45 465.243 651.32 457.674 659.995C440.134 680.097 424.989 683.217 370.748 677.885C336.912 674.558 320.506 670.575 299.295 660.543C275.969 649.506 272.353 646.179 275.588 638.724C277.682 633.886 280.297 629.168 281.39 628.244ZM318.494 610.014C337.606 613.782 353.418 614.025 368.501 610.78C380.636 608.172 396.496 607.869 403.747 610.104C414.016 613.274 418.887 612.056 425.76 604.588C430.612 599.31 435.065 590.104 435.652 584.132C436.614 574.35 455.92 551.137 498.328 508.778C507.122 499.994 515.179 485.544 518.239 473.088C521.064 461.572 525.998 446.425 529.197 439.431C538.65 418.771 538.47 398.958 528.655 378.478C486.007 289.5 484.033 286.188 469.994 280.066C457.483 274.608 456.523 272.785 462.072 265.027C468.034 256.68 469.057 256.666 480.864 264.769C503.308 280.172 507.151 284.998 532.171 329.208C557.259 373.535 558.637 379.091 560.738 444.361C561.529 468.943 560.934 470.233 539.966 489.609C528.091 500.579 515.122 516.844 511.138 525.751C496.673 558.092 432.5 629.2 411.838 635.776C396.515 640.657 323.12 633.337 304.065 625.025C295.87 621.45 289.475 615.369 289.854 611.514C290.427 605.682 295.259 605.428 318.494 610.014ZM304.815 572.265C329.035 581.002 364.743 586.112 378.042 582.752C387.024 580.48 395.596 573.252 401.48 562.995C406.578 554.096 421.734 537.519 435.153 526.155C462.391 503.085 503.924 441.816 505.891 421.806C506.594 414.653 502.836 398.165 497.541 385.168C492.245 372.175 485.352 353.696 482.234 344.104C477.711 330.219 472.84 325.311 458.311 319.999C448.274 316.33 437.321 313.047 433.96 312.703C425.464 311.831 426.964 305.559 438.149 295.19C447.434 286.579 448.015 286.595 463.652 296.042C491.447 312.829 529.41 383.353 526.513 412.819C524.185 436.503 502.182 485.184 485.214 504.191C477.738 512.568 471.425 521.416 471.186 523.855C470.946 526.294 461.654 537.734 450.537 549.274C439.419 560.819 428.311 577.541 425.847 586.438C421.424 602.414 420.999 602.625 391.747 603.417C328.088 605.143 291.406 595.732 293.136 578.124C293.911 570.24 296.123 569.132 304.815 572.265ZM354.846 753.55C361.567 754.211 364.42 753.45 361.181 751.862C357.947 750.269 352.449 749.728 348.962 750.66C345.481 751.588 348.126 752.889 354.846 753.55ZM416.064 254.9C422.556 263.664 430.158 269.804 432.952 268.542C435.875 267.225 434.141 261.566 428.878 255.225C417.979 242.098 417.932 236.256 428.659 229.543C435.194 225.458 438.254 226.203 445.527 233.645C454.847 243.191 459.009 238.304 450.118 228.25C446.228 223.851 446.689 220.865 452.033 215.947C466.546 202.595 454.596 205.946 429.862 222.168L404.253 238.965L416.064 254.9ZM399.367 702.25C414.152 703.703 420.281 703.448 412.993 701.682C405.706 699.915 393.604 698.726 386.112 699.039C378.62 699.353 384.582 700.796 399.367 702.25ZM491.276 231.186C500.44 232.087 546.426 270.439 552.947 282.622C556.662 289.558 569.743 312.955 582.023 334.618C605.732 376.453 610.12 403.296 592.987 401.74C588.277 401.31 579.36 401.708 573.162 402.616C562.747 404.151 562.042 402.789 563.834 384.563C565.446 368.159 561.806 358.057 542.176 324.423C529.197 302.192 513.566 280.484 507.44 276.181C471.097 250.676 472.979 253.062 480.114 241.521C483.781 235.594 488.803 230.943 491.276 231.186ZM555.228 632.74C558.748 630.06 566.158 628.074 571.699 628.325C579.987 628.704 580.292 628.266 573.422 625.867C563.021 622.231 563.287 616.012 574.024 611.707C578.514 609.906 581.932 607.559 581.618 606.492C579.187 598.238 591.183 589.503 603.314 590.696C611.09 591.46 617.36 593.039 617.246 594.202C616.455 602.245 596.145 626.675 590.696 626.139C587.001 625.776 585.188 627.753 586.667 630.53C591.086 638.838 577.227 647.742 562.179 646.263C547.116 644.782 544.949 640.566 555.228 632.74ZM608.303 572.221C619.88 572.822 620.263 572.488 611.002 569.872C598.931 566.466 597.329 559.018 608.084 556.333C611.953 555.37 614.623 551.052 614.016 546.741C613.398 542.334 622.181 531.151 634.096 521.175C650.197 507.69 658.195 504.079 667.465 506.113L679.663 508.784L660.627 529.841C650.157 541.421 641.174 554.345 640.661 558.559C640.153 562.774 637.411 567.269 634.572 568.548C631.732 569.828 629.018 574.839 628.542 579.69C627.849 586.738 624.244 588.168 610.569 586.823C589.308 584.733 587.197 571.123 608.303 572.221Z" fill="#EDEDED" fill-opacity="0.35"/>
</svg>
