<svg viewBox="0 0 325 61" fill="none">
<path d="M162.284 33.5621V52.6126C162.284 53.3877 162.592 54.1311 163.139 54.6792C163.687 55.2273 164.429 55.5352 165.204 55.5352C165.978 55.5352 166.721 55.2273 167.268 54.6792C167.816 54.1311 168.123 53.3877 168.123 52.6126V11.9139C168.123 11.1388 168.431 10.3954 168.978 9.84733C169.526 9.29924 170.269 8.99131 171.043 8.99131C171.817 8.99131 172.56 9.29924 173.107 9.84733C173.655 10.3954 173.963 11.1388 173.963 11.9139V47.2004C173.972 47.9691 174.284 48.7032 174.83 49.2434C175.377 49.7837 176.114 50.0866 176.882 50.0866C177.65 50.0866 178.387 49.7837 178.933 49.2434C179.48 48.7032 179.792 47.9691 179.801 47.2004V14.0787C179.801 13.3036 180.109 12.5602 180.656 12.0121C181.204 11.464 181.946 11.1561 182.721 11.1561C183.495 11.1561 184.238 11.464 184.785 12.0121C185.333 12.5602 185.64 13.3036 185.64 14.0787V49.3652C185.64 50.1403 185.948 50.8837 186.496 51.4318C187.043 51.9798 187.786 52.2878 188.56 52.2878C189.334 52.2878 190.077 51.9798 190.624 51.4318C191.172 50.8837 191.48 50.1403 191.48 49.3652V6.50161C191.48 6.11781 191.555 5.73778 191.702 5.3832C191.849 5.02862 192.064 4.70643 192.335 4.43504C192.606 4.16365 192.928 3.94837 193.282 3.8015C193.636 3.65463 194.016 3.57905 194.399 3.57905C194.783 3.57905 195.162 3.65463 195.516 3.8015C195.871 3.94837 196.192 4.16365 196.464 4.43504C196.735 4.70643 196.95 5.02862 197.096 5.3832C197.243 5.73778 197.319 6.11781 197.319 6.50161V47.2004C197.328 47.9691 197.64 48.7032 198.187 49.2434C198.733 49.7837 199.47 50.0866 200.238 50.0866C201.006 50.0866 201.743 49.7837 202.29 49.2434C202.836 48.7032 203.148 47.9691 203.157 47.2004V18.4084C203.157 17.6332 203.465 16.8899 204.013 16.3418C204.56 15.7937 205.303 15.4858 206.077 15.4858C206.851 15.4858 207.594 15.7937 208.141 16.3418C208.689 16.8899 208.997 17.6332 208.997 18.4084V54.7775C208.997 55.5526 209.304 56.2959 209.852 56.844C210.399 57.3921 211.142 57.7 211.916 57.7C212.691 57.7 213.433 57.3921 213.981 56.844C214.528 56.2959 214.836 55.5526 214.836 54.7775V11.9139C214.836 11.5301 214.911 11.15 215.058 10.7955C215.205 10.4409 215.42 10.1187 215.691 9.84733C215.962 9.57595 216.284 9.36066 216.638 9.21379C216.992 9.06692 217.372 8.99131 217.755 8.99131C218.139 8.99131 218.518 9.06692 218.873 9.21379C219.227 9.36066 219.549 9.57595 219.82 9.84733C220.091 10.1187 220.306 10.4409 220.453 10.7955C220.599 11.15 220.675 11.5301 220.675 11.9139V43.9533C220.67 44.3402 220.742 44.7241 220.887 45.0829C221.031 45.4417 221.245 45.7681 221.517 46.0434C221.789 46.3186 222.112 46.5371 222.469 46.6863C222.825 46.8354 223.208 46.9123 223.594 46.9123C223.981 46.9123 224.363 46.8354 224.72 46.6863C225.077 46.5371 225.4 46.3186 225.672 46.0434C225.943 45.7681 226.157 45.4417 226.302 45.0829C226.447 44.7241 226.518 44.3402 226.514 43.9533V33.5621C226.514 32.787 226.821 32.0436 227.369 31.4955C227.916 30.9474 228.659 30.6395 229.433 30.6395C230.208 30.6395 230.95 30.9474 231.498 31.4955C232.045 32.0436 232.353 32.787 232.353 33.5621V54.7775C232.353 55.5526 232.66 56.2959 233.208 56.844C233.755 57.3921 234.498 57.7 235.272 57.7C236.047 57.7 236.789 57.3921 237.337 56.844C237.884 56.2959 238.192 55.5526 238.192 54.7775V11.9139C238.192 11.1388 238.5 10.3954 239.047 9.84733C239.595 9.29924 240.337 8.99131 241.112 8.99131C241.886 8.99131 242.629 9.29924 243.176 9.84733C243.724 10.3954 244.031 11.1388 244.031 11.9139V40.7059C244.026 41.0927 244.098 41.4767 244.243 41.8354C244.387 42.1942 244.602 42.5207 244.873 42.7959C245.145 43.0712 245.468 43.2897 245.825 43.4389C246.181 43.588 246.564 43.6648 246.951 43.6648C247.337 43.6648 247.72 43.588 248.076 43.4389C248.433 43.2897 248.756 43.0712 249.028 42.7959C249.299 42.5207 249.514 42.1942 249.658 41.8354C249.803 41.4767 249.875 41.0927 249.87 40.7059V10.8317C249.87 10.0566 250.177 9.31323 250.725 8.76514C251.273 8.21705 252.015 7.90912 252.789 7.90912C253.564 7.90912 254.306 8.21705 254.854 8.76514C255.401 9.31323 255.709 10.0566 255.709 10.8317V52.6131C255.709 53.3882 256.017 54.1316 256.564 54.6797C257.112 55.2278 257.854 55.5357 258.629 55.5357C259.403 55.5357 260.146 55.2278 260.693 54.6797C261.241 54.1316 261.548 53.3882 261.548 52.6131V11.9143C261.548 11.1392 261.856 10.3959 262.403 9.84777C262.951 9.29968 263.693 8.99178 264.468 8.99178C265.242 8.99178 265.985 9.29968 266.532 9.84777C267.08 10.3959 267.387 11.1392 267.387 11.9143V45.0355C267.387 45.8107 267.695 46.554 268.243 47.1021C268.79 47.6502 269.533 47.9581 270.307 47.9581C271.081 47.9581 271.824 47.6502 272.371 47.1021C272.919 46.554 273.227 45.8107 273.227 45.0355V14.0787C273.222 13.6919 273.294 13.308 273.438 12.9492C273.583 12.5904 273.797 12.2639 274.069 11.9887C274.34 11.7134 274.664 11.4949 275.02 11.3457C275.377 11.1966 275.759 11.1198 276.146 11.1198C276.532 11.1198 276.915 11.1966 277.272 11.3457C277.628 11.4949 277.952 11.7134 278.223 11.9887C278.495 12.2639 278.709 12.5904 278.854 12.9492C278.998 13.308 279.07 13.6919 279.065 14.0787V38.5411C279.065 39.3162 279.373 40.0596 279.92 40.6076C280.468 41.1557 281.211 41.4636 281.985 41.4636C282.759 41.4636 283.502 41.1557 284.049 40.6076C284.597 40.0596 284.904 39.3162 284.904 38.5411V24.9028C284.904 24.1277 285.212 23.3843 285.76 22.8363C286.307 22.2882 287.05 21.9803 287.824 21.9803C288.598 21.9803 289.341 22.2882 289.888 22.8363C290.436 23.3843 290.744 24.1277 290.744 24.9028V49.3652C290.744 50.1403 291.051 50.8837 291.599 51.4318C292.146 51.9798 292.889 52.2878 293.663 52.2878C294.438 52.2878 295.18 51.9798 295.728 51.4318C296.275 50.8837 296.583 50.1403 296.583 49.3652V19.4906C296.578 19.1037 296.65 18.7198 296.794 18.361C296.939 18.0022 297.153 17.6758 297.425 17.4005C297.696 17.1253 298.02 16.9068 298.376 16.7576C298.733 16.6084 299.116 16.5316 299.502 16.5316C299.889 16.5316 300.271 16.6084 300.628 16.7576C300.984 16.9068 301.308 17.1253 301.579 17.4005C301.851 17.6758 302.065 18.0022 302.21 18.361C302.354 18.7198 302.426 19.1037 302.421 19.4906V50.4478C302.421 51.2229 302.729 51.9663 303.277 52.5144C303.824 53.0625 304.567 53.3704 305.341 53.3704C306.115 53.3704 306.858 53.0625 307.406 52.5144C307.953 51.9663 308.261 51.2229 308.261 50.4478V11.9139C308.261 11.1388 308.568 10.3954 309.116 9.84733C309.663 9.29924 310.406 8.99131 311.18 8.99131C311.955 8.99131 312.697 9.29924 313.245 9.84733C313.792 10.3954 314.1 11.1388 314.1 11.9139V27.717C314.1 28.4921 314.407 29.2354 314.955 29.7835C315.502 30.3316 316.245 30.6395 317.019 30.6395C317.794 30.6395 318.536 30.3316 319.084 29.7835C319.631 29.2354 319.939 28.4921 319.939 27.717V5.41944C319.949 4.65068 320.26 3.91665 320.807 3.3764C321.353 2.83615 322.09 2.5332 322.858 2.5332C323.626 2.5332 324.363 2.83615 324.91 3.3764C325.456 3.91665 325.768 4.65068 325.778 5.41944V52.6126C325.778 53.3877 326.085 54.1311 326.633 54.6792C327.18 55.2273 327.923 55.5352 328.697 55.5352C329.472 55.5352 330.214 55.2273 330.762 54.6792C331.309 54.1311 331.617 53.3877 331.617 52.6126V7.58424C331.617 6.80912 331.924 6.06576 332.472 5.51768C333.02 4.96959 333.762 4.66168 334.536 4.66168C335.311 4.66168 336.053 4.96959 336.601 5.51768C337.148 6.06576 337.456 6.80912 337.456 7.58424V47.2004C337.456 47.9755 337.764 48.7188 338.311 49.2669C338.859 49.815 339.601 50.1229 340.376 50.1229C341.15 50.1229 341.893 49.815 342.44 49.2669C342.988 48.7188 343.295 47.9755 343.295 47.2004V11.9139C343.29 11.5271 343.362 11.1431 343.507 10.7844C343.651 10.4256 343.866 10.0991 344.137 9.82386C344.409 9.54862 344.732 9.3301 345.089 9.18095C345.445 9.03179 345.828 8.95499 346.215 8.95499C346.601 8.95499 346.984 9.03179 347.34 9.18095C347.697 9.3301 348.02 9.54862 348.292 9.82386C348.563 10.0991 348.778 10.4256 348.922 10.7844C349.067 11.1431 349.139 11.5271 349.134 11.9139V47.2004C349.134 47.9755 349.442 48.7188 349.989 49.2669C350.537 49.815 351.279 50.1229 352.054 50.1229C352.828 50.1229 353.57 49.815 354.118 49.2669C354.665 48.7188 354.973 47.9755 354.973 47.2004V20.5727C354.973 19.7976 355.281 19.0542 355.828 18.5062C356.376 17.9581 357.118 17.6502 357.893 17.6502C358.667 17.6502 359.41 17.9581 359.957 18.5062C360.505 19.0542 360.812 19.7976 360.812 20.5727V27.717C360.812 28.4921 361.12 29.2354 361.667 29.7835C362.215 30.3316 362.958 30.6395 363.732 30.6395C364.506 30.6395 365.249 30.3316 365.796 29.7835C366.344 29.2354 366.651 28.4921 366.651 27.717V22.7375C366.651 21.9624 366.959 21.2191 367.507 20.671C368.054 20.1229 368.797 19.815 369.571 19.815C370.345 19.815 371.088 20.1229 371.635 20.671C372.183 21.2191 372.491 21.9624 372.491 22.7375V49.3652C372.5 50.1339 372.812 50.868 373.358 51.4082C373.905 51.9485 374.642 52.2514 375.41 52.2514C376.178 52.2514 376.915 51.9485 377.462 51.4082C378.008 50.868 378.32 50.1339 378.329 49.3652V11.9139C378.329 11.1388 378.637 10.3954 379.184 9.84733C379.732 9.29924 380.475 8.99131 381.249 8.99131C382.023 8.99131 382.766 9.29924 383.313 9.84733C383.861 10.3954 384.168 11.1388 384.168 11.9139V40.7059C384.168 41.481 384.476 42.2244 385.024 42.7725C385.571 43.3206 386.314 43.6285 387.088 43.6285C387.862 43.6285 388.605 43.3206 389.153 42.7725C389.7 42.2244 390.008 41.481 390.008 40.7059V33.5621C390.008 32.787 390.315 32.0436 390.863 31.4955C391.41 30.9474 392.153 30.6395 392.927 30.6395H395.847" stroke="#C1C1C1" stroke-width="5"/>
<path d="M-71.2784 33.6044V49.4075C-71.2784 50.1826 -70.9708 50.926 -70.4233 51.4741C-69.8757 52.0222 -69.1331 52.3301 -68.3588 52.3301C-67.5845 52.3301 -66.8419 52.0222 -66.2943 51.4741C-65.7468 50.926 -65.4392 50.1826 -65.4392 49.4075V14.121C-65.4392 13.3459 -65.1316 12.6025 -64.5841 12.0544C-64.0366 11.5063 -63.294 11.1984 -62.5196 11.1984C-61.7453 11.1984 -61.0027 11.5063 -60.4552 12.0544C-59.9076 12.6025 -59.6001 13.3459 -59.6001 14.121V49.4075C-59.6001 50.1826 -59.2924 50.926 -58.7449 51.4741C-58.1974 52.0222 -57.4548 52.3301 -56.6805 52.3301C-55.9061 52.3301 -55.1635 52.0222 -54.616 51.4741C-54.0685 50.926 -53.7609 50.1826 -53.7609 49.4075V10.8736C-53.7609 10.0984 -53.4533 9.35507 -52.9058 8.80698C-52.3582 8.25889 -51.6156 7.95096 -50.8413 7.95096C-50.067 7.95096 -49.3244 8.25889 -48.7768 8.80698C-48.2293 9.35507 -47.9217 10.0984 -47.9217 10.8736V51.5723C-47.9265 51.9592 -47.8546 52.3431 -47.71 52.7019C-47.5654 53.0606 -47.3512 53.3871 -47.0796 53.6624C-46.808 53.9376 -46.4846 54.1561 -46.128 54.3053C-45.7714 54.4544 -45.3888 54.5313 -45.0024 54.5313C-44.6159 54.5313 -44.2333 54.4544 -43.8767 54.3053C-43.5201 54.1561 -43.1967 53.9376 -42.9251 53.6624C-42.6535 53.3871 -42.4393 53.0606 -42.2947 52.7019C-42.1502 52.3431 -42.0782 51.9592 -42.083 51.5723V13.0384C-42.083 12.2633 -41.7754 11.5199 -41.2279 10.9718C-40.6803 10.4237 -39.9377 10.1158 -39.1634 10.1158C-38.3891 10.1158 -37.6465 10.4237 -37.099 10.9718C-36.5514 11.5199 -36.2438 12.2633 -36.2438 13.0384V51.5723C-36.2438 52.3474 -35.9362 53.0908 -35.3887 53.6389C-34.8412 54.187 -34.0986 54.4949 -33.3242 54.4949C-32.5499 54.4949 -31.8073 54.187 -31.2598 53.6389C-30.7123 53.0908 -30.4047 52.3474 -30.4047 51.5723V8.70872C-30.4047 7.9336 -30.0971 7.19024 -29.5495 6.64215C-29.002 6.09406 -28.2594 5.78613 -27.4851 5.78613C-26.7108 5.78613 -25.9682 6.09406 -25.4206 6.64215C-24.8731 7.19024 -24.5655 7.9336 -24.5655 8.70872V51.5723C-24.5559 52.3411 -24.2442 53.0751 -23.6977 53.6154C-23.1513 54.1556 -22.4142 54.4586 -21.6461 54.4586C-20.8781 54.4586 -20.141 54.1556 -19.5946 53.6154C-19.0481 53.0751 -18.7363 52.3411 -18.7268 51.5723V8.70872C-18.7268 7.9336 -18.4192 7.19024 -17.8717 6.64215C-17.3241 6.09406 -16.5815 5.78613 -15.8072 5.78613C-15.0329 5.78613 -14.2903 6.09406 -13.7427 6.64215C-13.1952 7.19024 -12.8876 7.9336 -12.8876 8.70872V51.5723C-12.8876 52.3474 -12.58 53.0908 -12.0325 53.6389C-11.485 54.187 -10.7424 54.4949 -9.96804 54.4949C-9.19372 54.4949 -8.4511 54.187 -7.90358 53.6389C-7.35605 53.0908 -7.04845 52.3474 -7.04845 51.5723V16.2858C-7.04845 15.5107 -6.74085 14.7673 -6.19332 14.2193C-5.6458 13.6712 -4.90319 13.3633 -4.12887 13.3633C-3.35455 13.3633 -2.61194 13.6712 -2.06441 14.2193C-1.51689 14.7673 -1.20929 15.5107 -1.20929 16.2858V46.1605C-1.21409 46.5473 -1.14213 46.9312 -0.997573 47.29C-0.853017 47.6488 -0.638745 47.9753 -0.367181 48.2505C-0.0956163 48.5258 0.227836 48.7443 0.584417 48.8935C0.940998 49.0426 1.32361 49.1194 1.71007 49.1194C2.09653 49.1194 2.47915 49.0426 2.83573 48.8935C3.19231 48.7443 3.51576 48.5258 3.78732 48.2505C4.05889 47.9753 4.27316 47.6488 4.41772 47.29C4.56227 46.9312 4.63423 46.5473 4.62943 46.1605V9.79136C4.62943 9.40756 4.70495 9.02753 4.85167 8.67295C4.9984 8.31837 5.21345 7.99618 5.48456 7.72479C5.75567 7.4534 6.07752 7.23812 6.43174 7.09125C6.78596 6.94437 7.16561 6.8688 7.54901 6.8688C7.93242 6.8688 8.31207 6.94437 8.66629 7.09125C9.02051 7.23812 9.34236 7.4534 9.61347 7.72479C9.88458 7.99618 10.0996 8.31837 10.2464 8.67295C10.3931 9.02753 10.4686 9.40756 10.4686 9.79136V45.0774C10.4686 45.8525 10.7762 46.5959 11.3237 47.144C11.8712 47.6921 12.6139 48 13.3882 48C14.1625 48 14.9051 47.6921 15.4526 47.144C16.0002 46.5959 16.3078 45.8525 16.3078 45.0774V15.2027C16.3078 14.4276 16.6154 13.6843 17.1629 13.1362C17.7104 12.5881 18.453 12.2802 19.2274 12.2802C20.0017 12.2802 20.7443 12.5881 21.2918 13.1362C21.8393 13.6843 22.1469 14.4276 22.1469 15.2027V53.7367C22.1565 54.5055 22.4683 55.2395 23.0147 55.7798C23.5612 56.32 24.2983 56.623 25.0663 56.623C25.8343 56.623 26.5714 56.32 27.1179 55.7798C27.6643 55.2395 27.9761 54.5055 27.9856 53.7367V17.3676C27.9856 16.5925 28.2932 15.8491 28.8408 15.301C29.3883 14.7529 30.1309 14.445 30.9052 14.445C31.6796 14.445 32.4222 14.7529 32.9697 15.301C33.5172 15.8491 33.8248 16.5925 33.8248 17.3676V43.9952C33.8248 44.7703 34.1324 45.5137 34.6799 46.0618C35.2275 46.6099 35.9701 46.9178 36.7444 46.9178C37.5187 46.9178 38.2613 46.6099 38.8089 46.0618C39.3564 45.5137 39.664 44.7703 39.664 43.9952V33.604C39.664 32.8289 39.9716 32.0855 40.5191 31.5374C41.0666 30.9893 41.8092 30.6814 42.5836 30.6814C43.3579 30.6814 44.1005 30.9893 44.648 31.5374C45.1955 32.0855 45.5031 32.8289 45.5031 33.604V52.6541C45.5127 53.4228 45.8245 54.1569 46.3709 54.6971C46.9174 55.2374 47.6545 55.5403 48.4225 55.5403C49.1905 55.5403 49.9276 55.2374 50.4741 54.6971C51.0205 54.1569 51.3323 53.4228 51.3419 52.6541V10.874C51.3419 10.0989 51.6495 9.35552 52.197 8.80743C52.7445 8.25934 53.4871 7.95143 54.2614 7.95143C55.0358 7.95143 55.7784 8.25934 56.3259 8.80743C56.8734 9.35552 57.181 10.0989 57.181 10.874V27.7597C57.181 28.5348 57.4886 29.2782 58.0362 29.8263C58.5837 30.3744 59.3263 30.6823 60.1006 30.6823C60.8749 30.6823 61.6175 30.3744 62.1651 29.8263C62.7126 29.2782 63.0202 28.5348 63.0202 27.7597V9.79183C63.0202 9.01671 63.3278 8.27332 63.8753 7.72523C64.4228 7.17714 65.1655 6.86924 65.9398 6.86924C66.7141 6.86924 67.4567 7.17714 68.0042 7.72523C68.5518 8.27332 68.8594 9.01671 68.8594 9.79183V49.408C68.8594 50.1831 69.167 50.9264 69.7145 51.4745C70.262 52.0226 71.0046 52.3306 71.7789 52.3306C72.5533 52.3306 73.2959 52.0226 73.8434 51.4745C74.3909 50.9264 74.6985 50.1831 74.6985 49.408V20.6159C74.7081 19.8472 75.0199 19.1131 75.5663 18.5729C76.1127 18.0326 76.8498 17.7297 77.6179 17.7297C78.3859 17.7297 79.123 18.0326 79.6695 18.5729C80.2159 19.1131 80.5277 19.8472 80.5373 20.6159V27.7597C80.5373 28.5348 80.8448 29.2782 81.3924 29.8263C81.9399 30.3744 82.6825 30.6823 83.4568 30.6823C84.2312 30.6823 84.9738 30.3744 85.5213 29.8263C86.0688 29.2782 86.3764 28.5348 86.3764 27.7597V9.79183C86.3764 9.01671 86.684 8.27332 87.2315 7.72523C87.7791 7.17714 88.5217 6.86924 89.296 6.86924C90.0703 6.86924 90.8129 7.17714 91.3604 7.72523C91.908 8.27332 92.2156 9.01671 92.2156 9.79183V45.0774C92.2156 45.4612 92.2911 45.8412 92.4378 46.1958C92.5845 46.5504 92.7996 46.8726 93.0707 47.144C93.3418 47.4154 93.6637 47.6307 94.0179 47.7775C94.3721 47.9244 94.7517 48 95.1352 48C95.5186 48 95.8982 47.9244 96.2524 47.7775C96.6067 47.6307 96.9285 47.4154 97.1996 47.144C97.4707 46.8726 97.6858 46.5504 97.8325 46.1958C97.9792 45.8412 98.0547 45.4612 98.0547 45.0774V33.6049C98.0499 33.2181 98.1219 32.8341 98.2665 32.4753C98.411 32.1166 98.6253 31.7901 98.8969 31.5148C99.1684 31.2396 99.4919 31.0211 99.8485 30.8719C100.205 30.7228 100.588 30.6459 100.974 30.6459C101.361 30.6459 101.743 30.7228 102.1 30.8719C102.456 31.0211 102.78 31.2396 103.051 31.5148C103.323 31.7901 103.537 32.1166 103.682 32.4753C103.826 32.8341 103.898 33.2181 103.893 33.6049V43.9961C103.893 44.7713 104.201 45.5146 104.749 46.0627C105.296 46.6108 106.039 46.9187 106.813 46.9187C107.587 46.9187 108.33 46.6108 108.878 46.0627C109.425 45.5146 109.733 44.7713 109.733 43.9961V33.6049C109.733 32.8298 110.04 32.0864 110.588 31.5383C111.135 30.9902 111.878 30.6823 112.652 30.6823C113.427 30.6823 114.169 30.9902 114.717 31.5383C115.264 32.0864 115.572 32.8298 115.572 33.6049V48.3258C115.572 49.1009 115.879 49.8442 116.427 50.3923C116.974 50.9404 117.717 51.2484 118.491 51.2484C119.266 51.2484 120.008 50.9404 120.556 50.3923C121.103 49.8442 121.411 49.1009 121.411 48.3258V10.8736C121.406 10.4867 121.478 10.1028 121.623 9.744C121.767 9.38523 121.982 9.05876 122.253 8.78351C122.525 8.50827 122.848 8.28975 123.205 8.1406C123.561 7.99144 123.944 7.91464 124.33 7.91464C124.717 7.91464 125.099 7.99144 125.456 8.1406C125.813 8.28975 126.136 8.50827 126.408 8.78351C126.679 9.05876 126.893 9.38523 127.038 9.744C127.183 10.1028 127.254 10.4867 127.25 10.8736V33.1716C127.25 33.9467 127.557 34.69 128.105 35.2381C128.652 35.7862 129.395 36.0941 130.169 36.0941C130.944 36.0941 131.686 35.7862 132.234 35.2381C132.781 34.69 133.089 33.9467 133.089 33.1716V15.2032C133.089 14.4281 133.396 13.6847 133.944 13.1366C134.491 12.5885 135.234 12.2806 136.008 12.2806C136.783 12.2806 137.525 12.5885 138.073 13.1366C138.62 13.6847 138.928 14.4281 138.928 15.2032V50.4901C138.928 51.2652 139.236 52.0086 139.783 52.5567C140.331 53.1048 141.073 53.4127 141.848 53.4127C142.622 53.4127 143.365 53.1048 143.912 52.5567C144.46 52.0086 144.767 51.2652 144.767 50.4901V11.9562C144.762 11.5694 144.834 11.1854 144.979 10.8266C145.123 10.4679 145.338 10.1414 145.609 9.86615C145.881 9.59091 146.204 9.37239 146.561 9.22323C146.917 9.07408 147.3 8.99728 147.687 8.99728C148.073 8.99728 148.456 9.07408 148.812 9.22323C149.169 9.37239 149.492 9.59091 149.764 9.86615C150.035 10.1414 150.25 10.4679 150.394 10.8266C150.539 11.1854 150.611 11.5694 150.606 11.9562V45.0774C150.606 45.8525 150.913 46.5959 151.461 47.144C152.009 47.6921 152.751 48 153.525 48C154.3 48 155.042 47.6921 155.59 47.144C156.137 46.5959 156.445 45.8525 156.445 45.0774V33.6049C156.445 32.8298 156.753 32.0864 157.3 31.5383C157.848 30.9902 158.59 30.6823 159.365 30.6823C160.139 30.6823 160.882 30.9902 161.429 31.5383C161.977 32.0864 162.284 32.8298 162.284 33.6049V52.655" stroke="#308CE9" stroke-width="5"/>
</svg>
