<svg viewBox="0 0 59 115" fill="none">
<path d="M30.4294 33.6063C30.4294 32.8861 29.8461 32.3022 29.1267 32.3022C28.4072 32.3022 27.824 32.8861 27.824 33.6063V113.586C27.824 114.306 28.4072 114.89 29.1267 114.89C29.8461 114.89 30.4294 114.306 30.4294 113.586V33.6063Z" fill="#E6375A"/>
<path d="M50.0946 0.788574H8.15833C3.67101 0.788574 0.0333252 4.42999 0.0333252 8.9219V23.9514C0.0333252 28.4433 3.67101 32.0847 8.15833 32.0847H50.0946C54.5819 32.0847 58.2196 28.4433 58.2196 23.9514V8.9219C58.2196 4.42999 54.5819 0.788574 50.0946 0.788574Z" fill="#E6375A"/>
<path d="M15.1133 21.6904H13.6924V12.5685L11.5442 12.5974V11.5726L15.1129 11.1831V21.69L15.1133 21.6904ZM25.8415 13.9258C25.8415 14.4739 25.6876 14.9538 25.3802 15.3654C25.0723 15.7766 24.6566 16.0834 24.133 16.2854C24.7383 16.4969 25.2226 16.829 25.5856 17.2813C25.9485 17.7331 26.1299 18.2555 26.1299 18.8469C26.1299 19.8184 25.814 20.5608 25.182 21.0732C24.5501 21.5856 23.729 21.8418 22.7201 21.8418C21.6914 21.8418 20.8636 21.5856 20.2366 21.0737C19.6092 20.5608 19.2959 19.8189 19.2959 18.8469C19.2959 18.255 19.4737 17.7336 19.829 17.2813C20.1847 16.829 20.6654 16.4969 21.2712 16.2854C20.7471 16.0834 20.3363 15.7766 20.0384 15.3654C19.7405 14.9542 19.5916 14.4739 19.5916 13.9258C19.5916 13.0018 19.8759 12.2888 20.4456 11.7858C21.0152 11.2834 21.7682 11.0317 22.7057 11.0317C23.6283 11.0317 24.3817 11.2834 24.9653 11.7863C25.5494 12.2888 25.841 13.0018 25.841 13.9258H25.8415ZM24.7166 18.8176C24.7166 18.2406 24.527 17.7666 24.1474 17.396C23.7678 17.0255 23.2871 16.8403 22.7057 16.8403C22.1144 16.8403 21.635 17.0255 21.2676 17.396C20.8997 17.7666 20.716 18.2406 20.716 18.8176C20.716 19.414 20.8983 19.8821 21.264 20.2215C21.6291 20.5604 22.1144 20.7303 22.7201 20.7303C23.3115 20.7303 23.7917 20.5595 24.1619 20.2179C24.532 19.8763 24.7171 19.4095 24.7171 18.8176H24.7166ZM24.4214 13.9538C24.4214 13.4342 24.2589 13.004 23.9348 12.6624C23.6098 12.3208 23.2004 12.15 22.7057 12.15C22.201 12.15 21.7925 12.3145 21.4802 12.6444C21.1678 12.9742 21.0116 13.4103 21.0116 13.9538C21.0116 14.4879 21.1687 14.9163 21.4838 15.2384C21.7984 15.5606 22.2105 15.7219 22.7201 15.7219C23.2198 15.7219 23.6283 15.5606 23.9457 15.2384C24.2625 14.9163 24.4214 14.4884 24.4214 13.9538ZM29.4977 21.6895H28.0777V20.2323H29.4977V21.69V21.6895ZM29.4977 15.3681H28.0777V13.9109H29.4977V15.3686V15.3681ZM38.1856 17.6848C38.1856 19.0268 37.8891 20.0552 37.2955 20.7696C36.7019 21.4839 35.8885 21.8414 34.8553 21.8414C33.8221 21.8414 33.005 21.483 32.4042 20.766C31.8039 20.0493 31.5033 19.0218 31.5033 17.6848V15.1951C31.5033 13.8576 31.8025 12.8296 32.4006 12.1103C32.9992 11.3909 33.8126 11.0312 34.8408 11.0312C35.8745 11.0312 36.6902 11.3909 37.2883 12.1103C37.8868 12.8296 38.1856 13.8576 38.1856 15.1951V17.6848ZM36.7656 14.8923C36.7656 13.9827 36.6013 13.2986 36.2717 12.8391C35.9427 12.3796 35.4656 12.15 34.8408 12.15C34.2161 12.15 33.7404 12.3796 33.4135 12.8391C33.0867 13.2986 32.9233 13.9827 32.9233 14.8923V17.9735C32.9233 18.8826 33.089 19.5694 33.4208 20.034C33.7525 20.498 34.2306 20.7298 34.8553 20.7298C35.48 20.7298 35.9549 20.4994 36.279 20.0371C36.6035 19.5753 36.7656 18.8876 36.7656 17.9735V14.8919V14.8923ZM46.7083 21.69H39.9032V20.7158L43.3419 16.8909C43.9566 16.2032 44.3737 15.6573 44.5922 15.2529C44.8111 14.8489 44.9204 14.4351 44.9204 14.0117C44.9204 13.4875 44.7678 13.0461 44.4627 12.6877C44.1575 12.329 43.7526 12.15 43.248 12.15C42.5221 12.15 41.9877 12.3362 41.6442 12.7094C41.3002 13.0822 41.1287 13.605 41.1287 14.2787H39.7659L39.7515 14.2353C39.7276 13.3312 40.0282 12.5707 40.6529 11.9553C41.2776 11.3394 42.1425 11.0312 43.248 11.0312C44.19 11.0312 44.9407 11.3069 45.5004 11.8577C46.0606 12.4089 46.3404 13.1093 46.3404 13.9611C46.3404 14.5336 46.1712 15.1074 45.8322 15.6826C45.5216 16.2095 45.0969 16.7716 44.5583 17.3694L41.6478 20.5423L41.6618 20.5784H46.7083V21.69Z" fill="white"/>
<path d="M29.1262 27.167L34.0021 32.0845L29.1262 37.0024L24.2507 32.0845L29.1262 27.167Z" fill="#E6375A"/>
</svg>
