<svg viewBox="0 0 163 163" fill="none">
<path d="M81.5 0.147949C126.373 0.147949 162.75 36.5621 162.75 81.4813C162.75 126.4 126.373 162.815 81.5 162.815C36.6269 162.815 0.25 126.4 0.25 81.4813C0.25 36.5621 36.6269 0.147949 81.5 0.147949ZM81.5 9.94492C42.032 9.94492 10.0369 41.9728 10.0369 81.4813C10.0369 120.99 42.032 153.018 81.5 153.018C120.968 153.018 152.963 120.99 152.963 81.4813C152.963 41.9728 120.968 9.94492 81.5 9.94492ZM135.759 111.364C124.472 130.565 103.96 142.417 81.7388 142.625L81.0648 142.628L80.3915 142.625C58.4109 142.41 38.101 130.824 26.713 112.001L26.3706 111.429H38.0374C54.5317 133.441 84.9488 139.467 108.574 125.402C114.477 121.848 119.65 117.206 123.822 111.723L124.092 111.364H135.759ZM143.867 56.4969V61.8649C143.928 63.3403 143.904 64.8179 143.798 66.2904L143.754 66.8424L123.8 66.9563L123.507 67.8021C123.589 69.2812 123.589 70.7637 123.507 72.2429C123.426 73.5117 123.345 74.9756 123.247 76.6023C123.562 76.8606 123.961 76.9905 124.365 76.9688L124.466 76.9601H125.993C128.691 77.074 131.502 77.0903 134.41 77.074C136.996 77.0595 139.645 77.0837 142.348 77.1577L143.364 77.1879L143.672 77.5783C143.624 79.1073 143.542 80.6201 143.445 82.1003C143.358 83.5063 143.349 84.9159 143.416 86.3227L143.445 86.8502L123.166 87.3056L122.939 95.7316L123.247 96.7239C124.374 96.7944 125.671 96.8038 127.119 96.805L143.217 96.8052L143.055 106.988H126.952C121.834 106.972 116.731 107.037 111.678 107.151C111.689 98.6054 111.743 90.239 111.841 82.0515C111.931 74.4489 112.068 66.6733 112.252 58.7247L112.295 56.8873L112.523 56.4969H143.867ZM102.107 16.6766C103.622 17.0138 105.082 17.5613 106.446 18.3032C107.827 19.0389 109.088 19.9825 110.183 21.1011C111.275 22.2056 112.18 23.4801 112.864 24.8749C113.578 26.2869 114.019 27.8211 114.164 29.397C114.213 29.7423 114.213 30.0927 114.164 30.438C114.197 30.9798 114.197 31.5229 114.164 32.0647C114.113 32.6775 114.021 33.2861 113.888 33.8865C113.777 34.3914 113.629 34.8873 113.446 35.3703L113.352 35.6108L103.229 33.5124C103.255 32.8677 103.331 32.226 103.456 31.5929C103.602 30.823 103.552 30.0284 103.31 29.2831C103.061 28.6434 102.646 28.0818 102.107 27.6565C101.548 27.204 100.892 26.8867 100.19 26.7293C99.3186 26.5479 98.4222 26.5203 97.5414 26.6479C96.6018 26.7541 95.7399 27.2205 95.1365 27.9493C95.0398 28.0807 94.9581 28.2226 94.8928 28.3722C94.7953 28.5023 94.7303 28.6487 94.6328 28.7788C94.5341 28.9611 94.4681 29.1593 94.4378 29.3644C94.0316 31.1538 93.5766 33.0732 93.0729 35.1065C92.5692 37.1398 83.4535 78.0337 82.9497 80.1321C82.446 82.2305 81.9586 84.3451 81.5361 86.411C81.1136 88.4768 80.7236 90.4776 80.4149 92.397C80.5462 93.2893 80.9691 94.113 81.6173 94.7394C82.2415 95.3764 83.0377 95.8173 83.9084 96.0082C85.248 96.2359 86.6171 95.8272 87.6132 94.9021C88.5755 94.0586 89.2578 92.943 89.5714 91.7045L89.6118 91.5349L95.169 92.7711C97.0756 93.1941 98.8305 93.5357 100.434 93.7959C99.9497 97.9375 97.7506 101.685 94.3728 104.125C92.4735 105.389 90.3586 106.293 88.1332 106.793C85.9385 107.266 83.6645 107.227 81.4873 106.679C79.7966 106.293 78.1857 105.616 76.7264 104.678C74.4314 103.225 72.5153 101.246 71.1367 98.9036C69.7927 96.4938 69.151 93.7548 69.2843 90.9981C69.7718 89.0624 70.2755 87.0454 70.763 84.7355C71.2504 82.4257 71.7542 80.1809 72.2741 77.8711C72.7941 75.5612 81.9261 34.4558 82.446 32.1623C82.966 29.8687 83.4697 27.7215 83.9572 25.7533C84.5745 23.9669 85.5789 22.3394 86.8983 20.9872C88.1511 19.6746 89.6394 18.6096 91.2855 17.8478C92.9429 17.0808 94.7169 16.597 96.5339 16.4163C98.3939 16.2105 100.275 16.2983 102.107 16.6766ZM65.6445 57.1801V57.8633C65.547 61.5395 65.417 65.4435 65.417 69.5426C65.352 73.0748 65.3149 76.6468 65.3056 80.2586L65.3033 82.0678V106.809L64.9296 107.053L54.3027 106.907L54.7577 57.9446C54.7658 57.8146 54.7658 57.6842 54.7577 57.5542L54.7494 57.4892C54.7386 57.392 54.743 57.2963 54.8723 57.2089L54.9202 57.1801H65.6445ZM19.481 56.3505L28.9705 56.5783L33.244 67.1515C34.6847 70.6759 36.1905 74.1243 37.7612 77.4969C37.884 76.158 37.9409 74.8139 37.9317 73.4696L37.9237 72.8935V56.6271C39.5908 56.4807 41.1922 56.466 42.7869 56.4645L43.3184 56.4644H48.7293L49.0218 56.7734C48.9351 60.5906 48.8613 64.3179 48.846 68.0237L48.843 69.4125V81.71C48.843 85.7278 48.908 89.8269 48.843 93.861C48.7853 97.4469 48.7018 101.084 48.5813 104.796L48.5343 106.191L48.1443 106.419H38.0374C36.3584 102.385 34.831 98.2747 33.4552 94.0887C32.0795 89.9028 30.5466 85.7928 28.8567 81.7587C28.7484 85.5868 28.6455 89.5179 28.548 93.5519C28.458 97.2757 28.4972 101.064 28.6657 104.917L28.7105 105.882L28.483 106.354H18.0024C18.0024 102.059 17.9699 97.9114 18.0024 93.7797C18.0349 89.648 18.1161 85.6627 18.1161 81.5147C18.1161 77.8853 18.2156 74.3555 18.2405 70.7727L18.2461 69.2336V56.3505H19.481ZM106.348 36.9934C111.006 36.9934 114.782 40.7732 114.782 45.4357C114.782 50.0983 111.006 53.878 106.348 53.878C101.691 53.878 97.9151 50.0983 97.9151 45.4357C97.9151 40.7732 101.691 36.9934 106.348 36.9934ZM59.9736 36.9446C64.6312 36.9446 68.4069 40.7244 68.4069 45.3869C68.4069 50.0495 64.6312 53.8292 59.9736 53.8292C55.3161 53.8292 51.5404 50.0495 51.5404 45.3869C51.5404 40.7244 55.3161 36.9446 59.9736 36.9446Z" fill="white"/>
</svg>
