<svg width="26" height="19" viewBox="0 0 26 19" fill="none" xmlns="http://www.w3.org/2000/svg">
<path d="M10.3602 4.30293C10.6307 2.78082 10.6014 1.8907 9.55433 0.10105C13.1234 -0.293512 14.8086 0.42966 17.4073 2.93877C20.7874 3.47575 23.865 5.78904 26 9.77765C23.5517 13.5519 20.6313 15.68 17.4279 16.1333C14.7916 18.7461 12.9245 19.2302 9.30248 18.9151C10.3104 17.7164 10.5051 16.7461 10.3602 14.6192C8.56879 13.6476 6.73797 12.2336 4.893 10.3736C1.64631 13.1545 -1.34765 14.0595 1.04186 9.6074C-1.3507 6.17376 0.588543 5.12381 4.70733 9.26687C6.47552 7.01929 8.39756 5.37059 10.3602 4.30293Z" fill="#0D305A"/>
</svg>
