<svg width="138" height="138" fill="none" xmlns="http://www.w3.org/2000/svg"><path d="M0 0h113c13.807 0 25 11.193 25 25v113H25c-13.807 0-25-11.193-25-25V0z" fill="url(#paint0_linear)"/><path d="M59.193 35.62c-8.3-8.295-24.54-9.257-36.036-9.257-1.19 0-2.157.966-2.157 2.157 0 11.496.958 27.737 9.257 36.037 3.503 3.502 8.873 5.068 14.196 5.068 5.785 0 11.518-1.85 14.74-5.073 6.182-6.181 7.316-21.62 0-28.932zm-3.05 25.887c-4.615 4.61-17.431 5.4-22.832 0-6.699-6.7-7.86-20.31-7.985-30.817 10.509.125 24.118 1.285 30.817 7.984 5.401 5.401 4.612 18.221 0 22.833zm57.7-26.611c-11.496 0-27.737.957-36.036 9.257-7.316 7.312-6.182 22.75 0 28.932 3.222 3.218 8.95 5.068 14.735 5.068 5.323 0 10.69-1.561 14.201-5.064 8.295-8.3 9.257-24.54 9.257-36.036 0-1.19-.966-2.157-2.157-2.157zm-10.158 35.139c-5.401 5.4-18.221 4.611-22.833 0-4.61-4.611-5.4-17.432 0-22.832 6.7-6.7 20.309-7.86 30.817-7.985-.125 10.512-1.285 24.122-7.984 30.817z" fill="#533232"/><path d="M98.267 53.565c-.51-1.082-1.967-1.453-3.041-.953-16.543 7.777-24.67 21.34-28.363 35.281-4.568-29.643-17.78-38.68-23.384-42.515-.699-.479-1.242-.828-1.544-1.126a2.158 2.158 0 00-3.05 0 2.158 2.158 0 000 3.05c.427.423 1.165.953 2.16 1.635 6.316 4.318 23.092 15.796 23.092 61.543a2.157 2.157 0 004.314.004c0-18.484 4.965-42.852 28.612-53.964 0-.004.35-.168.35-.168 1.074-.51 1.363-1.708.854-2.787z" fill="#533232"/><defs><linearGradient id="paint0_linear" x1="69" y1="0" x2="69" y2="138" gradientUnits="userSpaceOnUse"><stop stop-color="#EFD9D1"/><stop offset=".482" stop-color="#FDF6F4"/><stop offset="1" stop-color="#EFD9D1"/></linearGradient></defs></svg>