<svg width="101" height="102" fill="none" xmlns="http://www.w3.org/2000/svg"><g clip-path="url(#clip0)" fill="#fff"><path d="M22.654 71.805c-1.846 0-3.356 1.53-3.356 3.4 0 1.87 1.51 3.401 3.356 3.401 1.846 0 3.356-1.53 3.356-3.4 0-1.871-1.51-3.401-3.356-3.401zm57.223 0c-1.846 0-3.357 1.53-3.357 3.4 0 1.87 1.51 3.401 3.357 3.401 1.846 0 3.356-1.53 3.356-3.4 0-1.871-1.51-3.401-3.356-3.401zm-5.035-11.903h-3.356c-1.007 0-1.678.68-1.678 1.7s.671 1.7 1.678 1.7h3.356c1.007 0 1.678-.68 1.678-1.7s-.67-1.7-1.678-1.7z"/><path d="M97.832 56.331l-6.544-2.72-4.196-17.004c-.503-2.38-2.517-3.91-4.866-3.91H73.41c2.202-6.861 3.041-12.813 3.11-13.433 0-.51-.168-.85-.336-1.36-.336-.34-.84-.51-1.343-.51H14.264c-.84 0-1.51.51-1.51 1.36l-.967 5.441H5.705c-1.006 0-1.678.68-1.678 1.7s.672 1.7 1.678 1.7h5.478l-.604 3.401H4.53c-1.007 0-1.678.68-1.678 1.7s.67 1.7 1.678 1.7h5.443l-.604 3.402H3.356c-1.007 0-1.678.68-1.678 1.7s.671 1.7 1.678 1.7h5.41l-.604 3.4H2.014c-1.007 0-1.678.68-1.678 1.701 0 1.02.67 1.7 1.678 1.7h5.544l-.846 4.761a1.303 1.303 0 00-.061.338L2.685 74.865c-.168.51-.168.85.168 1.36.335.51.839.68 1.342.68h8.534c.806 4.81 4.96 8.502 9.925 8.502 4.966 0 9.12-3.693 9.925-8.502h37.373c.805 4.81 4.959 8.502 9.925 8.502 4.966 0 9.12-3.693 9.925-8.502h6.855c1.846 0 3.357-1.53 3.357-3.4V59.562c0-1.53-.84-2.72-2.182-3.23zM29.534 44.6H11.597l.597-3.4h18.682c.84 0 1.678-.68 1.678-1.7 0-1.021-.67-1.701-1.678-1.701H12.791l.596-3.4h18.664c1.007 0 1.678-.681 1.678-1.701s-.67-1.7-1.678-1.7H13.984l.597-3.401h18.645c1.007 0 1.678-.68 1.678-1.7s-.671-1.7-1.678-1.7H15.177l.597-3.402h57.055c-.493 2.926-1.696 8.784-3.916 14.6-2.749 7.105-7.328 14.853-14.296 15.889a14.51 14.51 0 01-.429.056 9.937 9.937 0 01-.465.038c-.052.004-.104.006-.157.009-.178.008-.357.015-.539.015H10.404L11.001 48h18.7c.84 0 1.511-.68 1.511-1.7s-.671-1.7-1.678-1.7zm-6.88 37.407c-3.692 0-6.712-3.06-6.712-6.8 0-3.742 3.02-6.802 6.712-6.802 3.692 0 6.712 3.06 6.712 6.801 0 3.74-3.02 6.801-6.712 6.801zm57.223 0c-3.692 0-6.713-3.06-6.713-6.8 0-3.742 3.02-6.802 6.713-6.802 3.691 0 6.712 3.06 6.712 6.801 0 3.74-3.02 6.801-6.712 6.801zm16.78-8.501h-6.855c-.806-4.81-4.96-8.502-9.925-8.502l-.08.002-.088-.002c-5.034 0-9.062 3.74-9.9 8.502h-37.23a10.242 10.242 0 00-5.79-7.593c-.067-.031-.133-.063-.2-.092-.042-.019-.085-.035-.128-.053a9.163 9.163 0 00-.328-.132l-.091-.033a9.633 9.633 0 00-.372-.128l-.081-.025a9.496 9.496 0 00-.858-.225l-.098-.02a9.347 9.347 0 00-.377-.07l-.113-.018a9.686 9.686 0 00-.37-.048l-.125-.014a10.182 10.182 0 00-.374-.03l-.123-.008a9.992 9.992 0 00-.995 0l-.123.008c-.125.008-.25.017-.374.03l-.125.014c-.124.014-.247.03-.37.048l-.112.019c-.127.02-.253.043-.378.068l-.098.021a9.85 9.85 0 00-.857.225l-.082.025c-.125.04-.249.084-.372.129l-.09.032c-.111.042-.22.087-.33.132l-.126.053a10.242 10.242 0 00-5.99 7.685h-6.52L9.733 54.8h43.294c.238 0 .472-.007.705-.018l.048-.002c9.318-.475 15.061-9.732 18.445-18.684h10.001c.84 0 1.51.68 1.678 1.36L87.727 53.1H80.38c-1.175 0-2.181-1.02-2.181-2.21v-7.992c0-1.02-.672-1.7-1.678-1.7-1.007 0-1.678.68-1.678 1.7v7.992c0 3.06 2.517 5.61 5.537 5.61h8.894l7.384 2.891v14.113z"/></g><defs><clipPath id="clip0"><path fill="#fff" transform="translate(.336 .9)" d="M0 0h99.678v101H0z"/></clipPath></defs></svg>