<svg width="131" height="131" fill="none" xmlns="http://www.w3.org/2000/svg"><circle cx="65.5" cy="65.5" r="63.5" stroke="#fff" stroke-width="4"/><path d="M95.485 64.17c11.935-10.45 10.102-32.299 7.899-34.506-1.232-1.232-4.124 4.675-11.827 9.414-.669.662-1.513 4.228-1.472 9.37 0 0-1.45-3.733-1.33-7.732-1.785.964-3.75 1.875-5.854 2.734a20.164 20.164 0 00-12.38 16.15c-.089-3.91-2.441-6.813-.394-11.853-6.934 2.036-13.982 3.964-19.332 6.516a17.27 17.27 0 00-9.316 11.292c-.634 2.456-1.045 5.476-1.018 9.282-.54-.368-2.511-5.906-2.006-11.836-7.348 7.754-7.19 19.654-4.562 27.187v.001c-2.995-2.3-7.893-.953-7.893-.953 3.628.5 5.564 3.379 5.564 3.379-5.323 1.751-5.564 8.886-5.564 8.886 3.004-6.258 11.129-5.583 11.129-5.583.064.064.129.101.193.161-1.317-12.731 6.459-25.569 19.57-29.76 8.052-2.574 26.092-8.038 33.184-12.75-4.133 6.632-26.373 14.884-31.746 16.849-11.704 4.07-18.444 15.537-18.06 26.915 4.265-.06 9.61-6.916 20.236-12.283-1.25-1.383-6.412-3.73-12.079-2.245 6.25-3.462 11.384-3.774 15.529-3.134 3.634.56 7.359.024 10.682-1.548l.012-.005c6.195-2.966 13.017-6.75 18.48-11.653-.74-1.288-4.046-3.79-8.272-2.258 4.435-2.597 7.908-1.659 10.627-.037z" fill="#fff"/></svg>