<svg width="131" height="131" fill="none" xmlns="http://www.w3.org/2000/svg"><circle cx="65.5" cy="65.5" r="63.5" stroke="#fff" stroke-width="4"/><path d="M35.42 72.138c-.97-10.442 3.49-19.9 10.886-25.908 2.883-2.344 7.194-.337 7.194 3.368 0 1.36-.647 2.614-1.698 3.462-5.24 4.271-8.393 11.007-7.625 18.444.997 9.687 8.757 17.528 18.43 18.606 12.624 1.414 23.348-8.474 23.348-20.815 0-6.548-3.031-12.408-7.76-16.248-1.05-.849-1.684-2.102-1.684-3.449 0-3.664 4.244-5.74 7.1-3.449 6.763 5.456 11.101 13.796 11.101 23.146 0 17.096-14.523 30.879-31.89 29.626-14.36-1.01-26.068-12.449-27.402-26.784zM64.992 33a4.378 4.378 0 00-4.379 4.379v20.168a4.378 4.378 0 004.379 4.378 4.387 4.387 0 004.379-4.378V37.379A4.378 4.378 0 0064.992 33z" fill="#fff"/></svg>