<svg width="95" height="95" fill="none" xmlns="http://www.w3.org/2000/svg"><g clip-path="url(#clip0)" fill="#fff"><path d="M22.038 34.977h9.276a.88.88 0 100-1.759h-9.276a.88.88 0 100 1.76zm8.958 4.234h-3.664a.88.88 0 100 1.76h3.664a.88.88 0 100-1.76zM18.36 45.31h8.972a.88.88 0 100-1.759h-8.973a.88.88 0 100 1.76zm13.833 15.592a.88.88 0 00-.88-.88h-9.275a.88.88 0 100 1.76h9.276a.88.88 0 00.88-.88zm-1.197-6.872h-3.664a.88.88 0 100 1.759h3.664a.88.88 0 100-1.76zm-2.785-3.46a.88.88 0 00-.88-.88H18.36a.88.88 0 100 1.759h8.972a.88.88 0 00.88-.88zM54.95 36.926a.88.88 0 00.88-.88v-1.342a.88.88 0 10-1.76 0v1.343c0 .486.394.88.88.88zm9.67.904a.88.88 0 00-1.244 0l-.95.95a.88.88 0 001.244 1.243l.95-.95a.88.88 0 000-1.243zm1.783 8.79a.88.88 0 100 1.76h1.343a.88.88 0 100-1.76h-1.343zm-2.733 8.357a.88.88 0 00-1.244 1.244l.95.949a.88.88 0 001.244-1.244l-.95-.95zm-9.6 3.976v1.343a.88.88 0 101.76 0v-1.343a.88.88 0 10-1.76 0zm-7.84-3.976l-.95.949a.88.88 0 101.243 1.244l.95-.95a.88.88 0 10-1.244-1.243zm-4.076-8.357a.88.88 0 100 1.76h1.342a.88.88 0 100-1.76h-1.342zm5.319-7.84l-.95-.95a.88.88 0 00-1.243 1.244l.95.95a.88.88 0 101.243-1.245zM59.68 47.5a.88.88 0 00-.88-.88h-2.97v-6.53a.88.88 0 10-1.76 0v7.41c0 .486.394.88.88.88h3.85a.88.88 0 00.88-.88z"/><path d="M71.626 47.355a.88.88 0 00.825-.931c-.56-9.23-8.247-16.459-17.501-16.459-9.67 0-17.535 7.866-17.535 17.535S45.28 65.035 54.95 65.035c8.662 0 16.053-6.347 17.339-14.911a.88.88 0 10-1.74-.261c-1.155 7.694-7.798 13.413-15.6 13.413-8.698 0-15.776-7.077-15.776-15.776s7.078-15.776 15.776-15.776c8.327 0 15.243 6.504 15.746 14.806a.88.88 0 00.931.825z"/><path d="M54.95 24.93a22.56 22.56 0 00-8.915 1.842H30.518a.88.88 0 100 1.759h12.209a22.546 22.546 0 00-4.51 3.823.88.88 0 101.303 1.18 20.856 20.856 0 0115.43-6.845c11.475 0 20.811 9.336 20.811 20.811S66.425 68.311 54.95 68.311c-11.476 0-20.812-9.336-20.812-20.811 0-4.019 1.148-7.919 3.32-11.28a.88.88 0 10-1.478-.954 22.488 22.488 0 00-3.6 12.234c0 7.947 4.128 14.946 10.352 18.97H30.518a.88.88 0 100 1.758h15.505a22.44 22.44 0 008.927 1.842c12.445 0 22.57-10.125 22.57-22.57S67.395 24.93 54.95 24.93z"/></g><circle cx="47.5" cy="47.5" r="46.5" stroke="#fff" stroke-width="2"/><defs><clipPath id="clip0"><path fill="#fff" transform="translate(17.48 17.48)" d="M0 0h60.04v60.04H0z"/></clipPath></defs></svg>