<svg width="256" height="264" fill="none" xmlns="http://www.w3.org/2000/svg"><path d="M109.604 11.41c7.981-14.494 28.811-14.494 36.792 0l9.007 16.358a21 21 0 0024.079 10.088l17.397-4.891c15.573-4.379 30.041 9.756 26.027 25.427l-5.474 21.366a21 21 0 009.482 23.184l18.344 11.086c13.518 8.169 13.518 27.777 0 35.946l-18.344 11.085a21.001 21.001 0 00-9.482 23.184l5.474 21.366c4.014 15.671-10.454 29.806-26.027 25.428l-17.397-4.891a20.999 20.999 0 00-24.079 10.087l-9.007 16.358c-7.981 14.495-28.811 14.495-36.792 0l-9.007-16.358a21 21 0 00-24.08-10.087l-17.396 4.89c-15.573 4.379-30.041-9.756-26.027-25.427l5.474-21.366a21 21 0 00-9.482-23.184l-18.344-11.085c-13.518-8.169-13.518-27.777 0-35.946l18.344-11.086a21 21 0 009.482-23.184l-5.474-21.366C29.08 42.721 43.548 28.586 59.121 32.965l17.397 4.89a21 21 0 0024.079-10.086l9.007-16.359z" fill="#E76E29" fill-opacity=".47"/></svg>