<svg width="95" height="95" fill="none" xmlns="http://www.w3.org/2000/svg"><g clip-path="url(#clip0)" fill="#fff"><path d="M72.688 70.956H68.15v-1.33c0-.554-.462-1.003-1.031-1.003-.57 0-1.032.45-1.032 1.002v1.331H48.342v-1.33c0-.554-.462-1.003-1.032-1.003-.57 0-1.032.45-1.032 1.002v1.331H28.534v-1.33c0-.554-.462-1.003-1.031-1.003-.57 0-1.032.45-1.032 1.002v1.331h-4.54c-.57 0-1.031.449-1.031 1.002 0 .553.462 1.002 1.032 1.002h50.756c.57 0 1.032-.448 1.032-1.002 0-.553-.462-1.002-1.032-1.002z"/><path d="M25.027 65.546c0 .553.462 1.001 1.032 1.001h10.329v1.331c0 .554.462 1.002 1.032 1.002.569 0 1.031-.448 1.031-1.002v-1.33h17.744v1.33c0 .554.462 1.002 1.032 1.002.57 0 1.031-.448 1.031-1.002v-1.33h14.43c.57 0 1.032-.449 1.032-1.002 0-.553-.462-1.002-1.032-1.002h-46.63c-.57 0-1.031.448-1.031 1.002zm-3.095 1.001c.27 0 .537-.107.73-.293a.995.995 0 00.301-.709.995.995 0 00-.302-.708 1.056 1.056 0 00-1.459 0 .996.996 0 00-.302.709c0 .263.11.522.302.708.192.186.458.293.73.293zm1.85-21.372c2.38 1.191 6.675 2.751 12.836 2.751 2.806 0 5.999-.323 9.574-1.152.207-.048.41-.097.615-.147.18-.043.343-.133.475-.26l3.821-3.671.76 1.471c.241.466.81.675 1.307.48 3.434-1.34 6.28-2.958 8.46-4.81a.989.989 0 00.352-.743l.024-2.135.484.47a1.05 1.05 0 001.561-.115c2.199-2.91 2.54-5.975 1.023-8.48.49-.366.976-.737 1.456-1.115l5.437-4.279a.982.982 0 00.152-1.409 1.052 1.052 0 00-1.45-.147l-5.438 4.278c-.473.372-.951.738-1.432 1.098-2.013-1.986-4.192-3.044-6.651-3.232-3.1-.237-6.627.887-10.788 3.434-.704.432-1.093.66-1.798 1.077l-.519.305a.998.998 0 00-.495.816.991.991 0 00.426.852l.464.326-2.58-.417a1.06 1.06 0 00-.7.129c-6.046 3.513-13.55 7.695-17.485 9.875a2.681 2.681 0 00-1.401 2.401c.021.993.6 1.893 1.51 2.349zM63.05 35.139l-1.32-1.282a1.054 1.054 0 00-1.119-.22 1.003 1.003 0 00-.642.918l-.044 4.062c-1.768 1.43-4 2.71-6.647 3.817l-.968-1.87a1.05 1.05 0 00-1.647-.263l-4.63 4.448-.319.076c-3.415.791-6.449 1.099-9.104 1.099-5.727 0-9.688-1.432-11.881-2.53l-.003-.002a1.034 1.034 0 00.14.002 74.664 74.664 0 0022.1-4.662 73.512 73.512 0 0016.443-8.69c.825 1.515.705 3.265-.359 5.097zm-21.157-2.68l6.54 1.057c.474.077.937-.173 1.122-.602a.985.985 0 00-.347-1.198l-2.765-1.943c.313-.186.614-.368 1.018-.616 3.771-2.308 6.887-3.334 9.526-3.131 1.89.145 3.536.926 5.14 2.446-10.539 7.412-22.831 11.813-35.854 12.82 4.077-2.266 10.355-5.78 15.62-8.834zm-8.228 26.708c.57 0 1.032-.45 1.032-1.002 0-.554-.463-1.002-1.032-1.002h-.012c-.57 0-1.032.448-1.032 1.002 0 .553.462 1.002 1.032 1.002h.012zm-4.542-1.234c.167.1.352.146.535.146.348 0 .688-.17.882-.48a.986.986 0 00-.345-1.377c-2.009-1.188-3.208-3.26-3.208-5.545 0-.553-.462-1.002-1.032-1.002-.57 0-1.031.449-1.031 1.002 0 2.99 1.57 5.702 4.199 7.256zM68.15 45.95c0-.553-.463-1.002-1.032-1.002-.57 0-1.032.449-1.032 1.002 0 1.878-1.574 3.406-3.508 3.406-.57 0-1.031.45-1.031 1.002 0 .553.462 1.002 1.031 1.002 3.072 0 5.571-2.427 5.571-5.41z"/></g><circle cx="47.5" cy="47.5" r="46.5" stroke="#fff" stroke-width="2"/><defs><clipPath id="clip0"><path fill="#fff" transform="translate(20.9 21.66)" d="M0 0h52.82v51.3H0z"/></clipPath></defs></svg>