<svg width="133" height="133" viewBox="0 0 133 133" fill="none" xmlns="http://www.w3.org/2000/svg">
<path d="M132.5 66.5C132.5 75.4669 130.712 84.015 127.474 91.8081C117.545 115.701 93.984 132.5 66.5 132.5C30.0492 132.5 0.5 102.951 0.5 66.5C0.5 30.0492 30.0492 0.5 66.5 0.5C102.951 0.5 132.5 30.0492 132.5 66.5Z" stroke="black"/>
<path d="M68.271 104C67.48 98.8412 67.688 93.6676 68.8651 87.8381M84.2506 46.7259C76.1508 64.9465 70.9653 77.4365 68.8651 87.8381M48.9312 60.0576C53.129 64.7151 56.4644 68.4775 59.3404 72.1976M68.8651 87.8381C65.8813 81.5416 62.9784 76.9034 59.3404 72.1976M74.3941 57.8232C68.5503 47.2355 72.9317 40.8739 90.2243 29C96.0727 55.2074 92.8584 61.0864 78.8743 60.0576M62.0733 68.3992C65.8793 55.4205 57.7553 51.2451 39 45.0874C39.5093 71.6241 44.4828 76.4458 59.3404 72.1976" stroke="black" stroke-width="3"/>
</svg>
