<svg width="39" height="39" viewBox="0 0 39 39" fill="none" xmlns="http://www.w3.org/2000/svg">
<path fill-rule="evenodd" clip-rule="evenodd" d="M23.1324 0.213731C22.4599 0.41772 21.5816 0.473087 20.425 0.384936C18.7217 0.254702 18.7004 0.260022 16.1631 1.40998C14.7606 2.04565 13.4054 2.75684 13.1514 2.99051C12.8973 3.2244 12.5622 3.41554 12.4065 3.41554C12.2508 3.41554 11.5514 3.98853 10.8521 4.68909C10.153 5.38965 9.08165 6.31148 8.47135 6.73784C7.66308 7.30263 7.16353 7.89289 6.63064 8.91284C5.79284 10.516 4.46443 11.8511 2.93445 12.6274C2.17136 13.0145 1.74116 13.425 1.39553 14.0958C0.961523 14.9382 0.930655 15.2381 1.07025 17.25C1.23625 19.6419 1.77249 23.7307 1.99575 24.3068C2.07114 24.5011 2.01499 25.0134 1.87092 25.445C1.45034 26.7071 1.77741 27.5075 3.38837 29.1594C4.19217 29.984 4.91991 30.6584 5.00537 30.6584C5.09105 30.6584 5.63065 30.2489 6.20492 29.7485C7.25503 28.8336 12.4373 25.3256 12.5608 25.4461C12.5973 25.4818 12.2819 26.2455 11.8599 27.1432C11.1199 28.7186 10.8924 29.2141 9.585 32.0981C8.74138 33.9594 8.11789 35.7721 8.24899 35.982C8.42415 36.2627 10.4944 36.6385 11.8644 36.6385C13.5436 36.6385 14.6729 37.0051 15.7152 37.8884C16.7492 38.7646 17.6367 39.1338 18.2848 38.9568C18.5454 38.886 19.5136 38.4875 20.4364 38.0718C21.3593 37.656 23.0968 37.064 24.2975 36.7559C27.3886 35.9632 28.2111 35.5132 30.1 33.5825C31.451 32.2013 32.1487 31.6927 33.7648 30.9111C34.8626 30.3802 35.9478 29.7822 36.1765 29.5822C36.8471 28.9957 37.5805 27.3613 38.227 25.0116C38.7883 22.9721 38.8102 22.7323 38.5384 21.6111C38.2859 20.5688 38.2977 20.157 38.6255 18.5809C39.1697 15.9634 39.1192 14.4106 38.4431 12.9729C38.057 12.1516 37.8858 11.4039 37.8852 10.5366C37.8841 8.929 37.4044 8.14406 35.7192 6.99166C35.0038 6.5024 33.8145 5.53694 33.0762 4.84612C32.338 4.15531 31.3561 3.39893 30.8944 3.1657L30.055 2.74156L29.4879 3.90901C28.8742 5.17259 26.8259 7.84527 26.4711 7.84527C26.0968 7.84527 26.232 5.44192 26.7226 3.37257C26.981 2.28352 27.157 1.36989 27.1141 1.34264C24.8344 -0.105877 24.5 -0.20067 23.1324 0.213731ZM22.5959 2.18253C23.6664 2.21221 24.1704 2.35063 24.8637 2.80468L25.7548 3.38852L25.7814 5.45078C25.7959 6.58501 25.702 8.36023 25.5722 9.39568C25.4425 10.4311 25.2821 11.7767 25.2156 12.3857C25.1492 12.9948 25.0235 13.5676 24.9364 13.6586C24.7376 13.8662 22.0921 11.6613 22.1758 11.3576C22.2096 11.2349 22.134 11.1977 22.008 11.275C21.8819 11.3521 21.653 11.3383 21.4993 11.2442C21.3454 11.1501 20.9427 11.102 20.6045 11.137C20.2125 11.1778 19.9866 11.0943 19.9823 10.9073C19.9778 10.7215 19.8917 10.756 19.7474 11.0015C19.6219 11.2145 19.3937 11.3891 19.2402 11.3891C19.0868 11.3891 18.5633 11.7999 18.0769 12.302C17.5906 12.8044 16.664 13.4509 16.0181 13.739C15.2776 14.0693 14.8436 14.4002 14.8436 14.6347C14.8436 14.8394 14.7812 14.945 14.7051 14.8695C14.6291 14.7942 14.2147 15.1512 13.7848 15.6633C13.3548 16.1752 12.7089 16.7805 12.3494 17.0082C11.9901 17.2361 11.5071 17.8095 11.2763 18.2826C11.0454 18.7559 10.9342 19.0955 11.0291 19.0372C11.3823 18.8213 11.9872 20.6171 11.8208 21.3874C11.4939 22.8986 10.7586 23.1635 10.8311 21.7436C10.8863 20.6665 10.6219 19.1411 10.3803 19.1411C10.2908 19.1411 10.1002 18.8862 9.95681 18.5747C9.6859 17.9863 9.9331 17.1477 10.3772 17.1477C10.496 17.1477 10.568 17.0263 10.5371 16.8782C10.5065 16.73 10.8071 16.4443 11.2056 16.2432C12.2188 15.7315 12.6065 15.3787 12.6065 14.9678C12.6065 14.6216 11.3295 13.384 10.9714 13.3829C10.8718 13.3827 10.8432 13.2978 10.9078 13.1944C10.9725 13.091 10.7519 12.8666 10.4177 12.696C10.0834 12.5253 9.67851 12.2112 9.51766 11.9981C9.35704 11.7851 9.08612 11.6105 8.91565 11.6105C8.45548 11.6105 8.25301 11.1492 8.60693 10.9069C8.82841 10.7552 8.77852 10.7335 8.43064 10.8298C7.7 11.0322 7.63579 10.6555 8.25794 9.81628C8.99105 8.82734 9.69932 8.3084 10.1318 8.44284C10.3843 8.52147 10.404 8.49622 10.2033 8.35248C9.99865 8.20607 10.1662 7.92257 10.8374 7.2796C11.3391 6.79897 11.9436 6.03329 12.181 5.57791C12.7139 4.5562 13.5499 4.10038 18.423 2.17632C18.9266 1.97765 19.5653 1.91674 20.2127 2.00578C20.7664 2.08197 21.8389 2.16149 22.5959 2.18253ZM17.338 3.64301C15.5573 3.88554 15.1622 4.14556 13.4664 6.19121C12.7123 7.10086 12.0134 7.84527 11.9136 7.84527C11.8136 7.84527 11.4852 8.06942 11.1839 8.34362C10.2472 9.19523 10.0347 9.32148 9.69328 9.22956C9.42214 9.15647 9.41767 9.17862 9.66845 9.35249C9.91834 9.52569 9.87806 9.6938 9.4501 10.2668C9.02348 10.8382 8.98366 11.0041 9.23579 11.1585C9.40626 11.2628 9.67986 11.2971 9.84384 11.2349C10.0078 11.1727 10.2121 11.3064 10.2978 11.5321C10.4488 11.9297 13.0114 14.4188 13.6389 14.7778C13.9642 14.9636 14.0691 14.6828 13.781 14.3975C13.6886 14.3063 13.6118 14.1649 13.6101 14.0839C13.6069 13.9337 12.5101 12.8453 10.9776 11.4717L10.1318 10.7133L11.0353 9.7587C11.5324 9.23355 12.1899 8.67119 12.4966 8.50862C12.8031 8.34627 13.0539 8.09134 13.0539 7.94228C13.0539 7.79322 13.2058 7.61338 13.3915 7.54294C13.5772 7.47229 13.7031 7.32412 13.6711 7.21359C13.5606 6.83042 14.6237 5.64679 15.574 5.09551C16.3756 4.63039 16.8528 4.53339 18.5387 4.49285C20.5803 4.44368 24.6863 4.80249 25.1201 5.06805C25.2592 5.1531 25.3581 5.02132 25.3581 4.75066C25.3581 4.18034 25.2767 4.15243 22.7854 3.86538C19.315 3.4656 18.7959 3.44433 17.338 3.64301ZM31.5103 6.52012C32.9644 7.75202 33.4519 8.04815 35.6966 9.063C36.5977 9.47031 36.8319 9.91285 36.8689 11.2783C36.8818 11.7656 37.1413 12.6626 37.4454 13.2717C37.8606 14.1036 37.9923 14.7096 37.9758 15.708C37.9485 17.361 37.3583 20.2149 36.5333 22.6849C36.1874 23.7203 35.7908 25.0734 35.6519 25.6918C35.036 28.4331 34.7604 28.8646 32.9644 29.9003C31.4865 30.7525 29.6192 32.3523 29.6125 32.7718C29.6078 33.0617 27.8593 34.7413 27.2597 35.0316C27.0136 35.1508 26.5501 35.3103 26.2295 35.3858C25.6508 35.5225 25.6456 35.512 25.4648 33.8108C25.3646 32.8688 25.2897 31.7213 25.2984 31.2611C25.3138 30.4475 25.6577 29.7724 26.0566 29.7724C26.3282 29.7724 26.3047 30.8221 26.0293 30.9906C25.9062 31.0659 25.8056 31.3333 25.8056 31.5844C25.8056 31.9417 25.8711 31.9878 26.1058 31.7948C26.2709 31.6593 26.4673 31.609 26.5423 31.6832C26.7244 31.8633 26.8691 31.1045 27.0235 29.1634C27.0993 28.2088 27.0648 27.5576 26.9385 27.5576C26.8217 27.5576 26.6953 27.1693 26.6572 26.6949L26.5886 25.8322L25.4174 26.2661C24.466 26.6187 24.0883 26.925 23.404 27.8987C22.7745 28.7944 22.2879 29.2141 21.4778 29.5607L20.3939 30.0243L18.8385 29.5565C17.983 29.2994 17.2302 28.9527 17.1658 28.7864C17.1013 28.62 16.7539 28.3631 16.3935 28.2154C16.0333 28.0677 15.7353 27.8342 15.7318 27.6969C15.7279 27.5594 15.6224 27.6214 15.4969 27.8344C15.1696 28.3908 14.6781 28.3137 13.9488 27.5915C13.3432 26.9921 13.306 26.9833 13.1928 27.4116C13.1156 27.704 13.2273 27.9682 13.5114 28.1653C13.7519 28.3321 13.9503 28.6373 13.9521 28.8437C13.9548 29.1286 14.0004 29.149 14.1416 28.9284C14.2646 28.7361 14.6984 28.6612 15.4246 28.7069C16.3901 28.7676 16.5306 28.8398 16.5977 29.31C16.655 29.7109 16.7219 29.7676 16.8658 29.5368C17.0241 29.2834 17.1678 29.308 17.6845 29.6768C18.576 30.3133 20.0693 30.7421 20.8534 30.5869C21.2801 30.5025 21.5635 30.5516 21.6335 30.7224C21.6951 30.8724 21.7512 30.8199 21.761 30.603C21.7707 30.39 21.9047 30.2123 22.0584 30.2083C22.4857 30.1977 23.4223 29.2936 23.7445 28.5804C24.0975 27.7997 24.1411 27.8433 24.3138 29.1501L24.451 30.1888L23.247 30.772C22.5848 31.0927 21.7067 31.4077 21.2957 31.4717C20.8845 31.5357 20.3787 31.6781 20.1716 31.7878C19.2792 32.2602 18.5414 31.9917 17.0675 30.6584C16.7309 30.3538 16.3192 30.0675 16.153 30.0218C15.585 29.8664 14.0617 29.5129 13.506 29.4074C13.2011 29.3496 12.8872 29.1992 12.8085 29.0732C12.7297 28.947 12.5662 29.1275 12.4452 29.4743L12.225 30.1047L13.3624 30.1479C13.9879 30.1716 14.5318 30.2856 14.5707 30.4012C14.6096 30.5169 14.8262 30.5636 15.0519 30.5051C15.5485 30.3764 16.5919 30.8861 17.5812 31.7401C17.9825 32.0868 18.5228 32.4358 18.7812 32.5156C19.4293 32.7156 22.1132 32.0779 23.4058 31.4165C24.3141 30.9519 24.493 30.9206 24.6042 31.2072C24.7966 31.7038 24.5919 32.0657 23.9165 32.4236C23.3928 32.7012 23.2892 32.7007 23.1098 32.4201C22.9358 32.1474 22.9036 32.1534 22.9006 32.4589C22.8973 32.8179 21.6519 33.4859 21.4176 33.2542C21.3501 33.1871 20.9539 33.2735 20.5373 33.4458C19.0541 34.0593 18.232 33.8248 16.5331 32.3029C16.1083 31.9224 14.8266 31.2617 14.3962 31.2015C13.2302 31.0385 12.2416 30.78 12.1324 30.6099C12.0564 30.4914 11.8843 30.7062 11.7501 31.0876C11.5951 31.5279 11.5881 31.7306 11.7313 31.6431C11.8552 31.5672 12.4803 31.6332 13.1203 31.7897C14.3512 32.0905 14.51 32.1213 15.1074 32.1751C15.3138 32.1935 15.6188 32.3335 15.7852 32.4857C15.9517 32.638 16.3866 32.9306 16.7517 33.1359C17.117 33.3415 17.4662 33.6903 17.5279 33.9111C17.5901 34.1337 17.885 34.3399 18.1895 34.3738C18.4917 34.4073 18.8174 34.5568 18.9132 34.7061C19.0277 34.8846 19.0886 34.8928 19.0908 34.7298C19.0926 34.5935 19.4718 34.4186 19.9331 34.3413C20.3946 34.264 21.1244 34.1437 21.555 34.0742C21.9857 34.0048 22.8047 33.7061 23.3749 33.4106C24.6217 32.7645 24.687 32.7585 24.687 33.2892C24.687 33.8367 24.374 34.0704 22.8973 34.6254C21.4919 35.1537 20.8868 35.2093 20.8772 34.8113C20.8731 34.6496 20.7794 34.6886 20.6521 34.9047C20.3528 35.4126 19.098 35.6717 18.8458 35.2779C18.7045 35.0569 18.6528 35.0505 18.6501 35.2542C18.6452 35.6631 18.0454 35.5905 17.7087 35.1402C17.5479 34.9251 17.1295 34.6237 16.7787 34.4704C16.4282 34.3169 16.0895 33.9958 16.0262 33.7563C15.9631 33.5171 15.8311 33.3703 15.7329 33.4305C15.5333 33.5526 14.176 32.8445 14.1738 32.6172C14.1731 32.5373 13.9778 32.5222 13.7398 32.5838C13.5018 32.6453 12.93 32.5725 12.4691 32.4219C11.6895 32.1672 11.6011 32.1847 11.2024 32.6724L10.7738 33.1964L10.8895 32.4695C10.953 32.0697 11.0962 31.6232 11.2076 31.4774C11.3188 31.3315 11.8376 30.0659 12.3606 28.665C12.8834 27.2641 13.4233 25.8687 13.5602 25.5642C13.6971 25.2597 13.8432 24.6751 13.8848 24.2652C13.9548 23.575 13.9203 23.5298 13.4208 23.6539C12.5825 23.8623 12.3074 23.3524 12.5132 21.9717C12.7322 20.5015 12.6682 20.0638 12.1367 19.3949C11.9029 19.1006 11.7116 18.7161 11.7116 18.5404C11.7116 18.0416 15.6906 14.3333 16.3709 14.1979C16.6998 14.1326 17.519 13.57 18.1913 12.9479C18.8635 12.3257 19.6353 11.7616 19.906 11.6943C20.5854 11.5255 21.6555 12.0735 23.2957 13.4303C24.5678 14.4826 24.6886 14.658 24.7053 15.4768L24.7235 16.3725L25.0454 15.6429L25.3675 14.9133L26.0552 15.3107C27.5881 16.1964 28.2935 17.3774 27.8165 18.2598C27.6839 18.505 27.6702 18.6981 27.7857 18.6981C28.0841 18.6981 28.223 19.9375 27.974 20.3781C27.8248 20.6417 27.8369 20.7068 28.0145 20.598C28.4738 20.317 28.2807 21.1768 27.6754 22.1079C26.934 23.2479 25.444 24.3571 24.2132 24.6853C23.5387 24.8652 22.8921 25.3161 21.9481 26.2654C20.6132 27.6076 19.3875 28.3195 18.7975 28.0953C18.6206 28.0282 18.157 27.5806 17.7678 27.1009C17.1447 26.3334 16.9458 26.2287 16.1132 26.2287C15.102 26.2287 14.0673 25.6904 14.3152 25.2933C14.3986 25.1598 14.3624 25.1157 14.234 25.1943C14.1069 25.2721 13.9488 25.5401 13.883 25.7895C13.7284 26.3744 14.6698 27.0171 15.5472 26.9261C16.4087 26.8366 17.0807 27.0772 17.0807 27.4747C17.0807 27.6566 17.1653 27.7534 17.2689 27.69C17.3725 27.6267 17.6774 27.8701 17.9467 28.2307C18.3467 28.7664 18.5995 28.8865 19.3275 28.8865C20.1921 28.8865 21.0872 28.2947 22.3899 26.8612C22.572 26.6608 23.0044 26.1875 23.3512 25.8092C23.7082 25.4193 24.2071 25.1199 24.502 25.1179C24.7883 25.1161 25.2742 24.9693 25.5818 24.7917C25.8895 24.614 26.4599 24.3186 26.8496 24.1352C27.6633 23.7522 28.1738 23.0962 29.0559 21.3006C29.3997 20.6 29.7657 20.027 29.8686 20.027C29.9718 20.027 30.0561 20.472 30.0561 21.016C30.0561 21.787 29.9149 22.1653 29.4161 22.7325C29.0639 23.1327 28.6129 23.7752 28.4138 24.1604C28.2145 24.5456 27.7825 25.0701 27.4537 25.3263C26.5628 26.02 27.0044 26.16 28.0087 25.502C29.1013 24.7861 30.3977 22.5258 30.5859 21.0087C30.6604 20.4078 30.7801 19.1643 30.8516 18.2454L30.9821 16.5743L29.5908 14.9231C28.8257 14.0148 28.1006 13.2079 27.9798 13.1299C27.8541 13.0487 27.8253 12.6436 27.9125 12.1826L28.0653 11.3773L28.7487 12.0542C29.1248 12.4263 29.7228 12.8797 30.0776 13.0613C30.4326 13.2429 30.9369 13.8068 31.1982 14.314C31.8346 15.5492 32.0145 18.091 31.5443 19.2055C31.3232 19.7291 31.2818 20.0665 31.4277 20.1557C31.7118 20.3296 31.5071 21.7026 30.9342 23.4656C30.4416 24.9817 28.8391 26.9799 27.9358 27.2043C27.229 27.3799 27.1959 27.7791 27.8881 27.7791C28.5206 27.7791 28.8324 27.5421 30.1179 26.0831C31.2926 24.7502 32.0879 22.6671 32.1062 20.8753C32.1127 20.2261 32.2373 19.2463 32.3827 18.6981C32.5284 18.1499 32.5899 17.1763 32.5196 16.5346C32.4494 15.8928 32.4745 15.2217 32.5753 15.0429C32.7031 14.8172 32.6684 14.7528 32.4617 14.8312C32.2749 14.9023 31.9825 14.574 31.6756 13.9486C31.3716 13.3286 30.8537 12.7443 30.3038 12.4008C29.1771 11.6965 28.2664 10.5173 28.2664 9.76246C28.2664 8.91926 28.5481 9.02757 29.6047 10.2767C30.1174 10.8832 30.9429 11.6052 31.4391 11.8812C32.5311 12.489 33.4617 14.1415 33.4988 15.5384C33.5125 16.0567 33.5812 16.4813 33.6514 16.4819C33.7217 16.4826 33.6939 17.0066 33.5899 17.6461C33.4861 18.2855 33.3149 19.7557 33.2098 20.913C33.1047 22.0702 32.8158 23.5374 32.5682 24.173C32.0472 25.5106 30.4588 27.7571 30.3219 27.3505C30.2648 27.181 30.1313 27.2628 29.9749 27.5622C29.8351 27.8302 29.3279 28.1815 28.8481 28.3427C27.8702 28.671 27.6038 28.9724 27.5986 29.7556L27.5953 30.2927L28.1018 29.8216C28.3803 29.5625 28.959 29.2052 29.3881 29.0274C30.2313 28.6776 32.9883 25.803 33.2152 25.0368C33.6255 23.6503 33.919 22.051 33.9861 20.8381C34.0275 20.0875 34.1727 18.8284 34.3089 18.0399C34.6577 16.0181 34.5449 15.2781 33.5914 13.3326C32.9098 11.9414 32.6116 11.5631 31.9957 11.3082C31.5792 11.1359 30.8465 10.5268 30.3675 9.95471C29.8886 9.38261 29.1194 8.72169 28.6579 8.48603C27.8103 8.05325 27.6302 7.76554 28.0472 7.51038C28.5729 7.18879 29.8259 7.91438 30.9456 9.18881C31.5863 9.91817 32.5123 10.7177 33.0031 10.9656C34.7628 11.8544 35.8912 15.5654 35.2033 18.2013C35.0527 18.7792 34.9022 20.0064 34.8691 20.9289C34.7993 22.8758 34.2856 24.8258 33.4805 26.2008C33.0563 26.9246 32.8639 27.0925 32.7185 26.8652C32.576 26.6426 32.523 26.7015 32.5203 27.0849C32.5156 27.8114 30.9599 29.1647 29.7087 29.5306C28.953 29.7514 28.6074 30.0015 28.342 30.5191C28.1465 30.9003 27.5346 31.6334 26.9823 32.1483C26.0997 32.9712 25.9991 33.159 26.1514 33.6987C26.2599 34.0832 26.3597 34.1887 26.4185 33.9807C26.4702 33.798 26.9373 33.2996 27.4568 32.8733C27.9762 32.4469 28.5973 31.799 28.8371 31.4336C29.0769 31.0681 29.7472 30.545 30.3264 30.2708C31.5266 29.7029 33.6751 27.6229 34.3185 26.4058C35.206 24.7272 36.0579 21.1949 35.8055 20.2401C35.742 19.9996 35.8306 19.2802 36.0024 18.6414C36.6382 16.2773 36.3344 14.2163 34.9941 11.8023C34.4984 10.9098 34.095 10.4743 33.5769 10.2721C32.6953 9.92813 31.691 9.04816 31.2702 8.25103C31.0874 7.90463 30.4483 7.41293 29.7266 7.0632C28.9776 6.70041 28.551 6.36796 28.6382 6.21469C28.932 5.69929 29.4619 5.18743 29.6993 5.19031C29.834 5.19186 30.649 5.79032 31.5103 6.52012ZM16.9689 5.61424C16.1069 5.81956 14.6262 6.7684 14.6226 7.11769C14.6212 7.26564 14.4156 7.49488 14.1662 7.62711C13.9168 7.75934 13.766 7.95336 13.8315 8.05812C13.9875 8.30796 11.9738 10.0601 11.5311 10.0601C11.3432 10.0601 11.2559 10.1257 11.3369 10.2059C11.4179 10.2861 11.3794 10.4765 11.2514 10.6291C11.0895 10.8223 11.0937 10.9525 11.2653 11.0575C11.634 11.2832 13.47 9.76822 14.2915 8.56023C15.3926 6.94161 16.421 6.34691 18.423 6.1715C19.4939 6.07759 20.4611 6.12078 21.0964 6.29088C21.644 6.43728 22.6004 6.58058 23.2217 6.60916C23.8432 6.63773 24.578 6.78169 24.8548 6.92876C25.2991 7.16509 25.3581 7.14449 25.3581 6.75334C25.3581 6.12344 24.8622 5.93894 22.4118 5.65743C20.0313 5.38389 18.0027 5.36794 16.9689 5.61424ZM16.7208 7.70352C16.3385 7.87716 15.5523 8.62778 14.974 9.37176C14.3957 10.116 13.823 10.7246 13.7013 10.7246C13.3832 10.7246 12.3828 11.8413 12.3828 12.1966C12.3828 12.599 12.8696 12.5758 13.4027 12.1479C13.6414 11.9561 13.6859 11.871 13.5013 11.9587C13.3168 12.0464 13.5371 11.7299 13.991 11.2553C14.4449 10.7806 15.2503 9.91817 15.7807 9.33876C16.5662 8.4805 16.9423 8.24948 17.8065 8.094C19.0062 7.87805 20.8857 7.95025 21.0863 8.22002C21.1595 8.31836 21.8387 8.39965 22.5955 8.40032C23.5892 8.40121 24.0915 8.50885 24.4029 8.78792C24.9561 9.28361 25.1344 9.27563 25.1344 8.75536C25.1344 8.00762 23.5606 7.59167 20.3246 7.48447C18.1154 7.41138 17.2492 7.46387 16.7208 7.70352ZM19.6738 9.0743C19.1928 9.25171 18.4881 9.63134 18.1078 9.91817C17.7275 10.2048 16.9772 10.6606 16.4407 10.9312C15.2541 11.5295 13.6322 13.1889 14.0087 13.4192C14.1582 13.5107 14.7141 13.1629 15.3286 12.5937C15.9127 12.0531 16.5004 11.6105 16.6347 11.6105C16.7689 11.6105 17.4528 11.2116 18.1543 10.7239C19.3843 9.86922 20.4644 9.55005 21.351 9.77951C21.5834 9.83976 21.7192 9.97619 21.6528 10.0827C21.5861 10.1893 21.6868 10.2176 21.8763 10.1456C22.0781 10.069 22.6948 10.3518 23.364 10.8278C24.7957 11.8462 25.0917 11.6542 23.8382 10.5199C23.3208 10.0515 22.8973 9.71883 22.8973 9.78062C22.8973 9.84242 22.7474 9.76977 22.5642 9.61916C22.381 9.46855 22.2707 9.28205 22.3192 9.20453C22.3675 9.12701 22.1901 9.04993 21.9253 9.03354C21.6602 9.01715 21.2418 8.94716 20.9957 8.87784C20.7496 8.80851 20.1548 8.89711 19.6738 9.0743ZM27.8825 8.89733C27.932 8.98881 27.7941 9.91063 27.5762 10.9461C27.0358 13.5144 27.0299 14.2575 27.551 14.1224C27.825 14.0515 28.2912 14.3747 29.0051 15.1304C30.076 16.264 30.3107 17.0091 29.7765 17.5789C29.5505 17.8199 29.5563 17.8436 29.8067 17.7023C30.0608 17.559 30.0877 17.718 29.9559 18.5885C29.8031 19.596 29.4284 20.47 29.1487 20.47C28.9024 20.47 28.5821 17.3727 28.7903 17.0044C28.9228 16.7701 28.9149 16.6923 28.7682 16.7823C28.6438 16.8584 28.4143 16.615 28.2579 16.2416C28.07 15.7924 27.5648 15.3342 26.7649 14.8872C25.936 14.4241 25.5955 14.1096 25.6816 13.8872C25.751 13.7087 25.8666 13.3295 25.9389 13.0444C26.0221 12.7162 26.1859 12.5698 26.3854 12.6458C26.7521 12.7851 26.8355 11.9408 26.4767 11.7213C26.3537 11.646 26.253 11.285 26.253 10.9191C26.253 10.3638 26.3328 10.2652 26.7355 10.323C27.3749 10.415 27.5286 9.91794 26.9201 9.72657C26.4664 9.58416 26.4622 9.55714 26.8306 9.15403C27.2261 8.72147 27.7219 8.60054 27.8825 8.89733ZM7.80894 11.8455C8.2689 12.3488 8.09664 12.5838 7.06957 12.8546C6.79261 12.9277 6.56621 13.0746 6.56621 13.1813C6.56621 13.2879 6.06264 13.6276 5.44698 13.9366C4.83132 14.2453 4.20313 14.6954 4.05078 14.9368C3.89866 15.1782 3.6472 15.3758 3.49217 15.3758C3.33736 15.3758 3.21051 15.4724 3.21051 15.5904C3.21051 15.7083 3.36152 15.7475 3.54608 15.6775C3.79709 15.582 3.88165 15.7127 3.88165 16.1953C3.88165 16.6941 3.74206 16.8945 3.26644 17.0779L2.65123 17.3152L3.30962 17.2868C3.91476 17.2607 3.98434 17.3371 4.16778 18.2303C4.31991 18.9703 4.29619 19.247 4.06868 19.3896C3.83512 19.5362 3.85011 19.5781 4.13713 19.5807C4.44317 19.5834 4.95235 20.6239 4.73154 20.7958C4.69463 20.8244 4.46331 20.9608 4.21722 21.099C3.7953 21.336 3.80134 21.3473 4.31991 21.2977C4.94497 21.2381 5.25391 21.9467 4.7425 22.2674C4.51924 22.4076 4.51342 22.4574 4.72058 22.4601C5.07695 22.4643 5.08747 23.6614 4.73668 24.3053C4.36957 24.9788 4.50536 26.6464 4.99507 27.479C5.4114 28.1866 5.26756 28.665 4.6387 28.665C4.26063 28.665 2.9868 27.0273 2.9868 26.5412C2.9868 26.3217 3.26376 25.8473 3.60201 25.4867C3.94027 25.1261 4.0915 24.9024 3.93758 24.9892C3.45705 25.261 3.56734 22.9852 4.04944 22.6831C4.3123 22.5183 4.33065 22.4665 4.10537 22.5254C3.66778 22.6397 3.11029 20.0149 3.51678 19.7535C3.67695 19.6505 3.62617 19.5896 3.3783 19.5874C2.92528 19.5836 2.83557 18.8013 3.26644 18.6122C3.42036 18.5448 3.34877 18.5116 3.10738 18.5384C2.75884 18.5774 2.63512 18.4053 2.50514 17.7014C2.15816 15.8228 2.27114 14.941 2.94027 14.3067C3.28389 13.9811 3.86264 13.5381 4.22662 13.3222C4.5906 13.1065 5.37785 12.5831 5.97628 12.1594C6.57472 11.7357 7.1378 11.3891 7.22796 11.3891C7.31812 11.3891 7.57941 11.5944 7.80894 11.8455ZM9.40491 13.3038C9.36062 13.3477 8.72885 13.6281 8.00111 13.9273C7.2736 14.2263 6.82908 14.4757 7.01364 14.4812C7.1982 14.487 7.01118 14.6954 6.59821 14.9448C6.18523 15.1942 5.79597 15.5924 5.73333 15.8299C5.67047 16.0675 5.45481 16.2733 5.25369 16.2875C4.9651 16.3078 4.97517 16.3353 5.30224 16.4188C5.61633 16.4988 5.69306 16.6793 5.62058 17.1683C5.56801 17.5225 5.62013 17.8122 5.73624 17.8122C5.85235 17.8122 5.89977 18.0578 5.84183 18.3581C5.78389 18.6585 5.82684 18.934 5.93713 18.9703C6.04764 19.0069 6.16756 19.3094 6.20335 19.643C6.23937 19.9763 6.33556 20.3154 6.41744 20.3965C6.57919 20.5566 6.62505 21.356 6.4727 21.356C6.42125 21.356 6.23311 21.4113 6.05458 21.4793C5.69016 21.6178 5.35659 20.7734 5.69418 20.5668C5.80648 20.4981 5.73892 20.2837 5.54384 20.0906C5.34876 19.8975 5.23781 19.555 5.29731 19.3298C5.35704 19.1043 5.30559 18.8589 5.18344 18.784C5.0613 18.7094 5.00962 18.4649 5.0689 18.2407C5.12796 18.0168 5.09664 17.8038 4.99888 17.7674C4.83064 17.705 4.67762 16.3685 4.74518 15.5508C4.76487 15.3134 5.10648 15.0741 5.66062 14.9098C6.14697 14.7656 6.52438 14.5441 6.49955 14.4179C6.47471 14.2914 7.00022 13.8593 7.66733 13.4575C8.5982 12.8967 8.95055 12.7846 9.18277 12.9756C9.34921 13.1122 9.44898 13.26 9.40491 13.3038ZM19.0881 13.312C18.7839 13.5169 17.9018 14.2646 17.1277 14.9738C16.3539 15.683 15.4778 16.4206 15.1812 16.613C13.8463 17.479 13.4288 20.1927 14.2568 22.6215C14.7101 23.9511 16.0579 25.1212 17.1362 25.1212C17.6559 25.1212 17.8362 25.2672 18.106 25.9062C18.2881 26.3376 18.5751 26.7434 18.744 26.8074C19.3324 27.0311 20.8651 26.0134 21.7736 24.7959C22.504 23.8169 22.8557 23.5425 23.6253 23.3507C24.8716 23.0401 26.7004 22.2186 26.7004 21.9695C26.7004 21.8614 26.7942 21.8301 26.9087 21.9001C27.0232 21.9703 27.1897 21.911 27.2787 21.7684C27.3872 21.5945 27.3429 21.5688 27.1445 21.6904C26.919 21.8282 26.8919 21.7701 27.0311 21.4476C27.1317 21.2144 27.3176 20.5606 27.4443 19.9947C27.6559 19.0476 27.6299 18.9152 27.1199 18.3335C26.815 17.9858 26.4268 17.6706 26.2572 17.6328C25.7044 17.5096 24.6514 16.6576 24.2552 16.0126C23.8874 15.4137 22.2029 14.0469 21.8326 14.0469C21.7371 14.0469 21.2886 13.7977 20.8358 13.4932C19.8602 12.8369 19.8024 12.8309 19.0881 13.312ZM10.5716 13.9105C10.7803 14.1596 10.566 14.3233 9.42438 14.7856C8.65212 15.0983 8.17136 15.3621 8.35592 15.3718C8.63019 15.386 8.62258 15.429 8.31498 15.6066C7.86062 15.8691 7.17964 17.1477 7.49418 17.1477C7.61655 17.1477 7.69463 17.3719 7.66756 17.6461C7.64049 17.9203 7.7 18.3333 7.79977 18.5641C7.92841 18.8616 7.86331 19.0689 7.57628 19.2769C7.0264 19.6749 6.87426 19.5307 6.69887 18.4445C6.5935 17.7927 6.63467 17.4629 6.83713 17.3355C7.05011 17.2017 7.02304 17.1537 6.734 17.151C6.12639 17.1459 6.21677 16.0762 6.84586 15.8257C7.12281 15.7156 7.25861 15.619 7.14787 15.6113C6.77091 15.5851 9.71319 13.6418 10.1743 13.6128C10.2514 13.6079 10.4302 13.7419 10.5716 13.9105ZM20.2845 13.9576C20.2624 14.0768 20.4971 14.1951 20.8058 14.2203C21.602 14.2857 23.2214 15.5003 23.7103 16.3989C23.938 16.8175 24.5024 17.4077 24.9648 17.7107C25.4273 18.0135 25.8056 18.3597 25.8056 18.4797C25.8056 18.5998 25.9499 18.6981 26.1261 18.6981C26.7261 18.6981 26.7801 19.5799 26.2181 20.2104C25.7141 20.7763 25.7132 20.7827 26.1971 20.3788C26.6546 19.9967 26.7004 19.9929 26.7004 20.336C26.7004 20.5435 26.5516 20.9985 26.3695 21.3469C26.0396 21.9786 25.3342 22.3205 23.1845 22.8909C22.4854 23.0762 21.9942 23.4315 21.2854 24.2636C20.1362 25.6129 19.2143 26.16 18.7425 25.7724C18.5669 25.628 18.423 25.3777 18.423 25.2158C18.423 24.8273 17.7881 24.4889 17.2975 24.6158C16.8407 24.7341 15.1705 23.7024 14.9485 23.1648C14.8646 22.9617 14.7517 22.1478 14.6973 21.356C14.6429 20.5641 14.542 19.4904 14.4734 18.9697C14.3541 18.0686 14.3973 17.9776 15.3664 17.087C16.8273 15.7444 18.3843 14.4405 19.0653 13.9898C19.6691 13.59 20.3559 13.572 20.2845 13.9576ZM12.1148 14.976C12.1671 15.2476 11.9512 15.4141 11.3322 15.5791C10.7009 15.7475 10.3664 16.011 10.0526 16.588C9.81901 17.0177 9.56039 17.3692 9.47806 17.3692C9.39574 17.3692 9.37046 17.6542 9.42214 18.0024C9.49619 18.5017 9.41699 18.6613 9.04809 18.7568C8.49999 18.8988 8.46286 18.8512 8.26286 17.7539C8.1425 17.0948 8.18724 16.8914 8.47583 16.7818C8.70693 16.6941 8.75257 16.5891 8.60022 16.4959C8.26263 16.2894 11.0514 14.4724 11.5975 14.543C11.8423 14.5747 12.0752 14.7696 12.1148 14.976ZM18.5085 15.9357C17.1432 16.8033 16.566 17.5665 16.2199 18.9623C15.719 20.9827 15.8058 21.2395 17.5613 22.923C18.4407 23.7666 19.3199 24.4568 19.5147 24.4568C19.7096 24.4568 20.3928 23.8953 21.0329 23.2089C21.9212 22.2563 22.3058 21.9894 22.659 22.0809C22.9134 22.1467 23.0653 22.1101 22.9962 21.9998C22.9273 21.8893 23.0174 21.7989 23.1964 21.7989C23.6288 21.7989 25.0543 20.1852 24.7197 20.0746C24.5787 20.0281 24.4633 19.7615 24.4633 19.482C24.4633 19.1293 23.9481 18.5174 22.7794 17.4817C21.3188 16.1876 21.1333 15.9415 21.3812 15.6274C21.6358 15.3045 21.6241 15.2981 21.2754 15.569C21.0141 15.7718 20.7908 15.8017 20.6042 15.6589C19.9906 15.1887 19.604 15.2398 18.5085 15.9357ZM20.6197 16.157C20.8029 16.3151 20.1002 17.091 19.8575 16.9989C19.4704 16.8518 18.2577 17.5116 17.9839 18.0184C17.5935 18.7406 17.9673 21.1464 18.5615 21.7347C19.159 22.3263 19.8123 22.3874 20.2284 21.8911C20.3901 21.6979 20.9561 21.2448 21.4861 20.8837C22.1653 20.4211 22.4499 20.072 22.4499 19.7012C22.4499 19.1852 21.6579 18.0658 20.772 17.3295C20.4284 17.0438 20.3854 16.8963 20.5874 16.6928C20.7904 16.4881 21.1617 16.699 22.2183 17.6184C24.2633 19.3982 24.3259 20.2355 22.4866 21.2131C21.7228 21.6189 21.0152 22.2335 20.51 22.9296C20.0774 23.5259 19.6311 24.0138 19.5183 24.0138C19.4058 24.0138 19.1382 23.7976 18.9241 23.5336C18.71 23.2694 18.1069 22.6304 17.5841 22.1137C16.5655 21.107 16.5056 20.8454 16.8367 18.8523C16.9693 18.054 17.2262 17.5727 17.8646 16.9251C18.3329 16.4505 18.927 16.0221 19.1848 15.9734C19.6071 15.8934 20.4373 15.9995 20.6197 16.157ZM19.444 17.7444C19.3152 18.0768 19.3499 18.0737 19.7492 17.7158C20.189 17.3218 20.2183 17.3304 20.976 18.0806C21.7834 18.88 22.2599 20.0527 21.8347 20.1931C21.7033 20.2366 21.1322 20.5761 20.5653 20.9478C19.6015 21.5799 19.5007 21.6018 19.0125 21.2851C18.5915 21.012 18.4611 20.6749 18.3398 19.5453C18.2045 18.2846 18.2371 18.1056 18.6666 17.7568C19.272 17.2651 19.632 17.2593 19.444 17.7444ZM31.0771 17.7473C30.9559 18.0629 30.9814 18.0884 31.2024 17.8713C31.3554 17.7209 31.4241 17.5422 31.3552 17.4742C31.2863 17.406 31.1613 17.5289 31.0771 17.7473ZM19.4011 19.0649C19.2913 19.4981 19.3602 19.7313 19.6633 19.9508C20.6852 20.6906 21.6597 19.9256 20.9584 18.934C20.4794 18.2571 19.5868 18.332 19.4011 19.0649ZM20.8029 19.0303C20.8738 19.2131 20.8722 19.5163 20.7993 19.7043C20.6127 20.1854 19.7653 19.7174 19.7653 19.1333C19.7653 18.6086 20.6071 18.5251 20.8029 19.0303ZM9.63332 19.3626C9.56912 19.6062 9.60581 19.8055 9.71498 19.8055C10.0501 19.8055 10.1984 20.8445 9.9331 21.3354C9.76688 21.6428 9.76039 21.7989 9.91408 21.7989C10.0414 21.7989 10.1456 22.1362 10.1456 22.5487C10.1456 23.101 10.0004 23.3925 9.59417 23.6561C9.29104 23.8528 8.99149 24.0138 8.92863 24.0138C8.77471 24.0138 9.04048 22.6703 9.29015 22.1865C9.40088 21.9719 9.40357 21.7989 9.29596 21.7989C9.08142 21.7989 8.57046 19.3506 8.72974 19.0857C8.78478 18.9942 9.0369 18.9196 9.29015 18.9196C9.64026 18.9196 9.72236 19.0257 9.63332 19.3626ZM8.29172 20.7469C8.52125 22.0457 8.50671 22.1566 8.05548 22.5431C7.57516 22.9544 7.57427 22.9535 7.41163 22.0098C7.28031 21.2485 7.32371 21.0064 7.63444 20.7666C7.96062 20.515 7.9642 20.4882 7.65771 20.5929C7.12035 20.7768 6.89216 19.9982 7.37986 19.6452C7.59462 19.4897 7.83266 19.3626 7.90872 19.3626C7.98478 19.3626 8.15704 19.9856 8.29172 20.7469ZM6.62595 22.484C6.49753 24.3416 6.2783 25.6971 6.0642 25.9569C5.89083 26.1671 5.91811 26.2061 6.17136 26.1097C6.68008 25.9166 6.92169 27.0792 6.46643 27.5297C6.14966 27.8435 6.07181 27.8309 5.63288 27.3966C5.22819 26.9959 5.19619 26.8608 5.43758 26.5731C5.67829 26.2856 5.66622 26.2287 5.36309 26.2287C4.86309 26.2287 4.91186 25.8373 5.54922 24.7336C5.84832 24.216 6.01812 23.7923 5.92707 23.7923C5.76465 23.7923 5.83154 22.4189 6.02237 21.8359C6.217 21.2412 6.67762 21.7358 6.62595 22.484ZM11.2286 23.7551C10.7559 24.2855 10.7526 24.3031 11.1942 23.9352C11.4633 23.7108 11.7904 23.593 11.9212 23.6729C12.3459 23.9327 12.1731 24.4599 11.5752 24.7296C11.074 24.9558 10.9474 24.9334 10.6803 24.5717C10.2282 23.9595 10.2933 23.6195 10.9846 22.9841C11.511 22.4999 11.6107 22.4725 11.6761 22.7929C11.7179 22.9989 11.5165 23.4319 11.2286 23.7551ZM8.22416 23.7551C8.12416 24.3741 7.90223 24.7764 7.52617 25.0204C7.22303 25.2171 6.92394 25.3279 6.86174 25.2663C6.65906 25.0656 7.30939 23.47 7.75793 23.0669C8.32885 22.5542 8.40089 22.6607 8.22416 23.7551ZM9.92191 24.2732C9.92191 24.5376 9.74563 24.9613 9.53042 25.2145C9.14384 25.6692 9.14473 25.6701 9.61028 25.2818C10.0036 24.9536 10.1233 24.9385 10.3344 25.1903C10.5322 25.4264 10.4664 25.5564 10.0331 25.7859C9.55078 26.0417 9.42057 26.0275 9.0293 25.6769C8.43982 25.1489 8.4595 24.5936 9.08299 24.1631C9.768 23.69 9.92191 23.7104 9.92191 24.2732ZM8.41498 25.7527C8.43489 26.0145 8.53042 26.2287 8.62729 26.2287C8.96017 26.2287 8.80268 26.5655 8.33422 26.8552C7.74452 27.2198 7.52192 27.0289 7.93243 26.5108C8.2199 26.1485 8.21163 26.1432 7.8284 26.4417C7.45771 26.7305 7.37896 26.7199 7.10134 26.344C6.68143 25.7757 6.69664 25.723 7.40514 25.296C8.07695 24.8913 8.35905 25.0189 8.41498 25.7527ZM26.253 27.5277C26.253 28.022 26.0783 28.607 25.8396 28.912C25.6123 29.2026 25.3449 29.7392 25.2456 30.1047C25.0778 30.7209 25.038 30.6566 24.6955 29.2187C24.1805 27.0555 24.2993 26.7713 25.7496 26.6973C26.1892 26.675 26.253 26.7799 26.253 27.5277ZM7.23735 27.5042C7.23735 27.5968 7.03601 27.797 6.78993 27.9492C6.3 28.2519 6.18322 28.0254 6.61096 27.6019C6.91387 27.302 7.23735 27.2515 7.23735 27.5042ZM5.89507 28.638C5.89507 28.9171 5.23847 29.4176 5.07897 29.2599C4.84988 29.0331 5.19194 28.4435 5.55257 28.4435C5.74093 28.4435 5.89507 28.531 5.89507 28.638ZM17.9933 30.7875C18.004 31.0456 18.057 31.098 18.1284 30.9215C18.193 30.7616 18.185 30.5705 18.1107 30.4969C18.0364 30.4234 17.9837 30.5541 17.9933 30.7875ZM10.8201 33.3716C10.8228 33.5763 10.8736 33.5705 11.015 33.3492C11.172 33.104 11.4436 33.0976 12.5217 33.3129C13.2452 33.4573 14.066 33.6195 14.3458 33.6731C14.6259 33.7267 15.0537 33.9672 15.2966 34.2077C15.5396 34.4483 15.7977 34.633 15.8705 34.6181C16.2156 34.5477 17.2599 35.559 17.2058 35.9114C17.1722 36.1287 17.1863 36.192 17.2367 36.0523C17.3027 35.8698 17.5114 35.8888 17.9792 36.1198C18.6962 36.474 20.0541 36.4241 20.8132 36.0155C21.0821 35.8709 21.5479 35.7526 21.8485 35.7526C22.1492 35.7526 22.7644 35.6 23.2154 35.4133C23.6664 35.2268 24.1317 35.1329 24.2494 35.2048C24.3671 35.2768 24.4664 35.2053 24.47 35.0458C24.474 34.8764 24.5767 34.9258 24.717 35.1648C24.889 35.458 24.8872 35.643 24.7103 35.8181C24.5745 35.9526 24.4633 35.9984 24.4633 35.92C24.4633 35.8416 23.9975 35.9816 23.4282 36.2308C22.6617 36.5665 22.3503 36.6159 22.2288 36.4212C22.1062 36.2248 22.0358 36.2332 21.9499 36.4547C21.8868 36.6175 21.4449 36.8893 20.968 37.0585C20.491 37.2277 19.8608 37.5513 19.5673 37.7774C19.2738 38.0038 18.7704 38.1858 18.4487 38.1819C17.8899 38.1752 17.0807 37.7409 17.0807 37.4476C17.0807 37.1426 15.3488 35.7528 14.508 35.3831C14.0159 35.1667 13.5391 34.8872 13.4488 34.7621C13.3382 34.6088 13.2834 34.6124 13.281 34.773C13.2774 35.0237 11.9358 34.9264 11.9347 34.6755C11.9342 34.5978 11.5351 34.5298 11.0479 34.524C9.9492 34.5109 9.78008 34.3541 10.1045 33.6494C10.3718 33.0684 10.8143 32.8967 10.8201 33.3716Z" fill="#FF4F00" fill-opacity="0.37"/>
</svg>
