<svg width="38" height="40" viewBox="0 0 38 40" fill="none" xmlns="http://www.w3.org/2000/svg">
<path fill-rule="evenodd" clip-rule="evenodd" d="M19.2545 0.918255C18.2472 1.42335 16.6836 2.02536 15.7797 2.25599C12.0969 3.19616 11.9154 3.29126 10.0203 5.26715C8.59684 6.75149 7.8098 7.35169 5.97033 8.3551C3.21592 9.85752 2.83504 10.3895 1.79503 14.1865C1.10822 16.6939 1.10212 16.7595 1.44291 17.8645C1.7691 18.9217 1.76365 19.1013 1.35423 20.8459C0.807093 23.1775 0.891853 25.4554 1.5743 26.7649C1.88829 27.3676 2.04343 28.0658 2.04343 28.8768C2.04343 30.6374 2.51321 31.4513 4.30213 32.7906C5.15715 33.4306 6.33509 34.4455 6.91992 35.0457C7.69214 35.8384 8.97053 36.666 11.5888 38.0686L15.1943 40L16.2996 39.6605C16.9076 39.4737 17.6011 39.2921 17.8408 39.2566C18.1727 39.2078 18.3903 38.8152 18.754 37.6112C19.0164 36.7415 19.2929 35.7302 19.368 35.364C19.5683 34.3904 19.8552 35.0188 20.0302 36.8133C20.1799 38.3487 20.5843 39.3054 21.084 39.3054C21.5028 39.3054 25.9402 37.1235 26.1141 36.8321C26.194 36.6977 26.5814 36.4483 26.975 36.278C27.3683 36.1076 27.9073 35.652 28.1727 35.2657C28.4379 34.8795 29.2884 34.0949 30.0625 33.5223C31.449 32.4965 32.545 31.1439 32.8756 30.0503C33.0832 29.3638 34.8811 27.6568 36.2579 26.8388C37.4344 26.1397 37.9961 25.1365 37.9961 23.7346C37.9961 22.2252 37.3533 16.2101 37.1136 15.4762C36.9572 14.9975 36.9715 14.4831 37.1631 13.7085C37.4128 12.6988 37.3941 12.5395 36.9166 11.6064C36.6323 11.0511 36.0481 10.3093 35.6182 9.95804C34.4821 9.02962 33.8027 9.21553 31.7863 11.0062C30.8755 11.8151 30.0889 12.4341 30.0384 12.3816C29.9876 12.3292 30.2717 11.7835 30.6696 11.1693C31.0675 10.5548 31.7353 9.10168 32.1539 7.93991C32.9143 5.82939 32.9146 5.82668 32.5241 5.03267C31.6131 3.1799 30.7953 2.75635 27.6208 2.49295C25.2741 2.29824 24.8915 2.14531 22.7657 0.554115C22.3584 0.249386 21.8139 0 21.5557 0C21.2975 0 20.2621 0.413158 19.2545 0.918255ZM22.9062 2.17264C24.2977 3.62671 24.9313 3.95313 27.0194 4.29039C30.835 4.90662 32.4973 6.15242 31.2414 7.45447C31.0017 7.70295 30.8056 8.1466 30.8056 8.44049C30.8056 8.73438 30.616 9.22457 30.3844 9.52997C29.7276 10.3956 28.7166 13.1705 29.0199 13.2753C29.8719 13.5698 30.2562 14.2048 30.234 15.2826C30.2216 15.8846 30.1992 16.9872 30.1841 17.7326C30.149 19.465 30.2236 20.3112 30.4014 20.1971C30.6066 20.0656 30.8311 20.7826 30.6694 21.0537C30.5938 21.1806 30.6402 21.3539 30.7724 21.4386C31.1901 21.7063 30.2042 23.3969 29.2478 24.0531C28.2089 24.7658 28.2765 25.1098 29.3232 24.438C30.7265 23.5378 31.332 22.6774 31.3024 21.6259C31.2586 20.067 31.2244 19.8628 31.0278 19.9888C30.925 20.0548 30.7225 19.7374 30.5781 19.2838C30.3722 18.6371 30.3741 18.0344 30.587 16.4945C30.8034 14.9306 30.8036 14.4235 30.5883 14.0067C30.3504 13.5457 30.3798 13.4339 30.8341 13.0715C31.118 12.8452 31.4157 12.6577 31.4956 12.655C31.5756 12.6523 31.804 13.0921 32.0031 13.6326C32.3173 14.4854 32.3289 14.7912 32.0914 15.948C31.7682 17.5225 31.7955 19.4492 32.1441 19.6726C32.2798 19.7598 32.4021 20.1366 32.4154 20.5102C32.4289 20.8838 32.5062 21.1472 32.5875 21.0955C32.6688 21.0437 32.7995 21.2111 32.878 21.4675C33.1063 22.2136 32.1354 23.9553 31.0235 24.7938C30.4842 25.2006 29.6655 25.8835 29.204 26.3118L28.3651 27.0902L26.8187 26.2829C25.9683 25.8388 24.9015 25.2327 24.448 24.9359C23.9946 24.6393 23.4501 24.398 23.2381 24.3998C22.9256 24.4028 22.911 24.4418 23.1616 24.6063C23.4259 24.7798 23.4174 24.9539 23.1025 25.8087C22.8223 26.5695 22.5336 26.9113 21.893 27.24C21.4302 27.4776 20.5427 27.957 19.9206 28.3053C18.8948 28.8797 18.7154 28.9139 17.9883 28.6726C17.5477 28.5264 16.991 28.2237 16.7513 27.9999C16.5117 27.776 15.8055 27.3281 15.1821 27.0046C14.5584 26.6811 13.8427 26.1171 13.5912 25.7509C13.3095 25.3407 12.8077 24.9944 12.2834 24.848C11.2817 24.5683 10.6838 24.0226 10.8595 23.548C10.9283 23.3621 10.878 23.0765 10.7475 22.9135C10.5751 22.6982 10.5984 22.2595 10.8327 21.3058C11.1832 19.8786 11.1475 19.6527 10.5701 19.6527C10.3605 19.6527 10.0062 19.5142 9.78306 19.345C9.55993 19.1758 9.19801 19.0862 8.97881 19.1456C8.73673 19.2111 8.5794 19.1322 8.57788 18.945C8.57657 18.7751 8.51665 18.2668 8.44453 17.8155C8.3188 17.0278 8.33645 16.9996 8.88271 17.1078C9.36274 17.2029 9.45186 17.3402 9.45186 17.9849C9.45186 18.4051 9.54991 18.7491 9.66975 18.7491C9.78959 18.7491 9.88764 18.4442 9.88764 18.0714C9.88764 17.5591 9.98744 17.3938 10.2969 17.3938C10.8991 17.3938 11.2667 17.9705 11.1009 18.6554C10.9972 19.0834 11.0353 19.2187 11.2399 19.1487C11.4029 19.0932 11.5718 18.5354 11.6402 17.8277C11.7461 16.7321 11.9361 16.3594 13.4459 14.2877C14.3741 13.0141 15.213 11.9723 15.3104 11.9723C15.4078 11.9723 15.9188 11.6692 16.4463 11.2987C16.9736 10.9283 17.531 10.6233 17.6848 10.621C17.8386 10.6188 18.167 10.9728 18.4145 11.4076C19.2722 12.9148 19.5142 12.2655 19.0878 9.60045C18.929 8.60652 18.6573 7.33587 18.484 6.77679C18.1762 5.78286 18.1816 5.74898 18.7252 5.25201C19.4901 4.5531 20.4388 4.58631 20.9356 5.32927C22.0658 7.01962 22.3854 7.26585 23.5189 7.31871C24.2282 7.35169 24.8381 7.53963 25.2571 7.85385C25.8321 8.28508 26.8817 8.52769 28.3542 8.56993C28.624 8.57761 29.0406 8.78724 29.2803 9.03572C29.6041 9.3714 29.7161 9.4037 29.7161 9.16154C29.7161 8.76126 28.8872 8.13215 28.3601 8.13215C28.1472 8.13215 27.9729 8.0445 27.9729 7.93765C27.9729 7.83058 27.7444 7.78834 27.4652 7.84368C27.1859 7.89903 26.3766 7.69098 25.6669 7.38128C24.9008 7.04696 24.1445 6.86398 23.8059 6.93107C23.2134 7.04854 21.8719 6.47274 21.8719 6.10114C21.8719 5.71012 20.5238 4.29197 20.1522 4.29197C19.9503 4.29197 19.4066 4.49188 18.9442 4.73652C18.4816 4.98094 18.0197 5.12732 17.9175 5.06204C17.8153 4.99653 17.7319 5.10157 17.7319 5.29516C17.7319 5.56781 17.4826 5.64732 16.6282 5.64732C15.5058 5.64732 13.6226 6.31461 12.8554 6.98416C12.6303 7.18069 12.2705 7.76259 12.0564 8.27695C11.8419 8.79153 11.4072 9.40144 11.0902 9.6323C8.70709 11.3685 7.50693 12.5122 7.36791 13.18C7.28642 13.5719 7.01601 14.299 6.76695 14.796C6.5179 15.293 6.33465 15.8112 6.35971 15.9478C6.38477 16.0843 6.2573 16.6307 6.07645 17.162C5.70406 18.2562 5.65068 18.8024 5.96554 18.2973C6.37191 17.6456 6.19977 19.4553 5.70341 21.0525C5.28135 22.4115 5.25498 22.7196 5.48551 23.613C5.62976 24.1717 5.74851 25.2119 5.7496 25.9244C5.75135 27.113 5.80931 27.2669 6.44948 27.7848C8.57047 29.5014 9.73948 30.6105 9.83775 30.9995C9.91837 31.3196 9.9942 31.36 10.1195 31.15C10.3945 30.6887 12.0666 31.9962 12.0666 32.6723C12.0666 32.9659 11.9657 33.2063 11.8424 33.2063C11.3475 33.2063 8.84131 31.7393 7.81764 30.8507C7.21843 30.3302 6.3706 29.6799 5.93351 29.4054C4.5538 28.5386 4.36227 28.0143 4.3115 24.9612C4.27511 22.7772 4.35159 21.9719 4.7048 20.8174C5.00266 19.8436 5.09919 19.1002 5.00636 18.4975C4.91463 17.9027 4.97826 17.3924 5.19964 16.9485C5.61712 16.1116 5.61996 15.7341 5.2029 16.4902C4.89175 17.0542 4.89153 17.0545 4.88369 16.5392C4.87955 16.2555 5.13165 15.5006 5.4439 14.8615C5.75636 14.2224 6.14879 13.2215 6.31635 12.6371C6.63752 11.5158 7.1023 10.9328 7.48121 11.1756C7.60629 11.2558 7.7087 11.2332 7.7087 11.1257C7.7087 11.0182 8.35454 10.4385 9.14375 9.83764C10.3733 8.90154 10.6849 8.51323 11.321 7.12421C12.0509 5.52986 12.0866 5.49304 13.4855 4.89759C14.4708 4.4781 15.2991 4.29197 16.1809 4.29197C17.2695 4.29197 17.5741 4.19303 18.2827 3.60909C18.7385 3.23366 19.341 2.86658 19.6217 2.79362C20.3226 2.61132 21.118 3.20249 21.664 4.3123C22.1828 5.36677 23.1348 5.88948 24.4393 5.8364C25.0246 5.81268 25.4985 5.96719 25.9862 6.34104C26.5054 6.73907 27.0985 6.91775 28.2571 7.02527C29.1195 7.10524 29.9965 7.24552 30.2063 7.33678C30.4199 7.42985 30.5877 7.40477 30.5877 7.28008C30.5877 6.98845 29.6342 6.62318 28.4087 6.44518C27.8694 6.36702 26.9026 6.04557 26.2605 5.73091C25.4898 5.35344 24.908 5.20706 24.5498 5.30013C23.5712 5.55493 22.6099 5.03267 21.8767 3.84786C20.8833 2.24289 19.916 2.03914 18.4651 3.12862C17.7831 3.64094 17.2976 3.79749 16.09 3.89507C14.4822 4.02474 12.4525 4.81762 11.8165 5.56442C11.619 5.79641 11.2493 6.4497 10.9948 7.01601C10.6372 7.81273 10.1637 8.31173 8.90559 9.21847C8.0107 9.86339 7.19294 10.3911 7.08835 10.3911C6.81511 10.3911 5.56505 12.9362 5.67988 13.2588C5.81519 13.639 5.33386 14.498 5.07761 14.3338C4.96082 14.2588 4.88783 14.2814 4.9155 14.384C4.94317 14.4863 4.79849 14.8954 4.59411 15.293C4.19144 16.0764 4.12781 16.3515 4.3882 16.1848C4.72877 15.9666 4.26465 20.0155 3.81622 21.1754C3.34949 22.3831 3.35733 24.1509 3.83213 24.7778C3.94391 24.9255 4.01167 25.7283 3.98247 26.5619C3.92277 28.2701 3.86154 28.1833 6.80618 30.5584C7.91984 31.4565 8.14449 31.752 8.14449 32.3196V33.0014L7.6065 32.5957C7.31082 32.3725 7.06569 32.0459 7.06177 31.8697C7.05806 31.6937 6.9977 31.609 6.92798 31.6815C6.85803 31.754 6.32899 31.5676 5.75222 31.2674C5.17567 30.9672 4.60871 30.7214 4.49257 30.7214C4.37621 30.7214 4.02279 30.5107 3.70706 30.2532C3.20328 29.8425 3.1329 29.6225 3.1329 28.4594C3.1329 27.7304 3.03485 27.071 2.91501 26.9942C2.79517 26.9174 2.69711 26.6574 2.69711 26.4162C2.69711 26.1749 2.60364 25.9777 2.48946 25.9777C2.16022 25.9777 1.86693 24.5478 1.97414 23.4655C2.02796 22.9216 2.22472 21.8664 2.41123 21.121C2.59797 20.3755 2.74047 19.5467 2.72805 19.2793C2.71563 19.0118 2.90455 18.1986 3.14816 17.4721C3.39154 16.7457 3.68723 15.7956 3.80511 15.3607C3.92299 14.9259 4.17727 14.2755 4.37011 13.9155C4.56317 13.5554 4.60871 13.3327 4.47165 13.4205C4.33459 13.5084 4.22238 13.5416 4.22238 13.4942C4.22238 13.3076 4.92356 11.1541 5.12838 10.7116C5.34802 10.2375 6.56671 9.35784 6.74625 9.54398C6.87547 9.67793 8.26302 8.46014 9.22459 7.36931C11.8531 4.38752 12.198 4.10606 13.8481 3.59599C17.1303 2.58128 18.5239 2.0685 19.562 1.49428C21.1238 0.630016 21.5036 0.707045 22.9062 2.17264ZM17.8125 6.38148C18.1034 7.5071 18.0164 7.61124 16.6812 7.73684C14.8358 7.91032 13.6531 8.60855 13.1306 9.83357C12.8249 10.5499 12.3828 11.0509 11.5513 11.6231C10.0613 12.6484 9.73817 13.0347 9.25183 14.372C9.03132 14.9778 8.77965 15.6514 8.69227 15.869C8.60512 16.0865 8.62037 16.2643 8.72648 16.2643C8.8326 16.2643 9.09124 15.6648 9.30107 14.9318C9.65472 13.6966 9.79439 13.5147 11.2172 12.4386C12.3429 11.587 12.8619 11.0202 13.1641 10.312C13.6579 9.15477 14.0549 8.77436 15.2849 8.28011C16.8864 7.63654 18.1677 7.83148 18.1677 8.71857C18.1677 9.0504 16.6149 9.71182 15.8347 9.7125C15.0317 9.7134 14.8421 9.81754 14.3094 10.5526C13.3831 11.8296 12.0357 13.1709 11.2484 13.5994C10.7939 13.847 10.5413 14.1536 10.5413 14.4578C10.5413 14.7183 10.3871 15.2408 10.1984 15.6189C10.0099 15.9968 9.90508 16.3578 9.96587 16.4206C10.0267 16.4836 10.3315 16.0129 10.6435 15.3747C10.9555 14.7361 11.4489 14.1016 11.7402 13.964C12.0315 13.8265 12.9197 12.9154 13.7141 11.9396C14.8794 10.5081 15.2755 10.1652 15.7649 10.1652C16.0983 10.1652 16.7232 10.0127 17.1536 9.82635C17.5837 9.63998 17.9879 9.48751 18.0517 9.48751C18.1156 9.48751 18.1677 9.63998 18.1677 9.82635C18.1677 10.0127 18.0225 10.1652 17.8449 10.1652C17.6676 10.1652 16.7847 10.6789 15.8832 11.3068C14.7046 12.1275 14.0309 12.7934 13.4864 13.676C13.0698 14.3512 12.4329 15.2247 12.071 15.6176C11.4608 16.2792 11.3207 16.5625 11.3872 16.9984C11.4258 17.2519 10.8991 17.2063 9.22241 16.811C8.09437 16.5449 7.70782 16.3578 7.70543 16.0768C7.70281 15.7922 7.65793 15.7716 7.52261 15.9925C7.37946 16.2268 7.28707 16.2153 7.06351 15.9361C6.83668 15.6528 6.83624 15.5209 7.06155 15.2396C7.21451 15.0488 7.50605 14.3625 7.70979 13.7149C8.04338 12.6536 8.23949 12.4234 9.69198 11.3875C11.071 10.404 11.4184 10.0147 12.0964 8.69485C13.0367 6.86353 13.8396 6.32681 15.9887 6.09211C16.7677 6.00695 17.4671 5.92291 17.5429 5.90529C17.619 5.88767 17.7401 6.10205 17.8125 6.38148ZM19.2571 6.78718C19.0135 6.95796 19.0802 6.98032 19.5186 6.87505C20.3924 6.66475 21.2182 7.59339 21.2182 8.78633C21.2182 9.90676 20.8425 10.1887 20.3113 9.46695C19.5271 8.40096 19.3927 8.27536 19.3105 8.53107C19.2665 8.66751 19.3861 9.09106 19.5763 9.47214C19.8208 9.96233 20.0799 10.1652 20.4612 10.1652C20.9489 10.1652 21.0003 10.2553 21.0003 11.1115V12.0575L20.556 11.5632C20.1392 11.0993 19.6929 10.9097 19.6929 11.1964C19.6929 11.2664 19.9818 11.5759 20.3351 11.8838C20.688 12.1919 21.0419 12.6563 21.1214 12.9157C21.3942 13.8068 21.5862 12.8888 21.6291 10.4873C21.6694 8.24577 21.6422 8.08584 21.0922 7.33836C20.5028 6.53734 19.8799 6.3503 19.2571 6.78718ZM22.0898 8.83761C22.0898 8.94649 22.4423 9.03572 22.8733 9.03572C23.3041 9.03572 23.9268 9.23518 24.2569 9.47892C24.5984 9.73079 25.4584 9.9987 26.2516 10.1001C27.6289 10.2759 27.6522 10.2906 28.1477 11.2946L28.6495 12.3112L28.5292 11.5205C28.3704 10.4742 27.5964 9.80782 26.3073 9.60745C25.7284 9.51732 25.0085 9.3147 24.7073 9.15702C24.0321 8.8035 22.0898 8.56631 22.0898 8.83761ZM22.0898 10.7082C22.0898 11.3331 23.0932 11.8185 24.0547 11.659C25.1067 11.4846 26.3004 11.9427 26.6725 12.6636C26.8155 12.9405 27.3201 13.6031 27.794 14.1359C28.4564 14.8809 28.6506 15.2783 28.6342 15.8541C28.4357 22.7971 28.5329 21.95 27.837 22.8075C27.1454 23.6594 27.3238 24.0054 28.0764 23.2724C28.8648 22.5046 29.1223 21.5028 28.8526 20.2549C28.6946 19.5237 28.6996 18.8702 28.8698 18.0479C29.2862 16.0343 29.048 14.6501 28.0697 13.3986C26.4725 11.3561 25.7857 10.9517 24.2674 11.1605C23.4298 11.2757 23.1418 11.216 22.6678 10.8298C22.1961 10.4451 22.0898 10.4227 22.0898 10.7082ZM35.3587 11.4155C36.13 12.3261 36.1773 12.6954 35.6805 13.9213C35.2068 15.0903 35.3966 18.4252 36.0318 20.0959C36.2782 20.7438 36.5406 22.0207 36.6151 22.9336C36.7478 24.5632 36.7384 24.6047 36.0967 25.2291C35.7372 25.5788 35.1105 26.0906 34.7041 26.3669C32.3256 27.9829 31.683 28.5249 31.2291 29.2979L30.7247 30.1567L30.5731 29.479C30.4343 28.8594 30.4192 28.884 30.3955 29.7684C30.377 30.4664 30.2637 30.7766 29.9885 30.8832C29.7786 30.9643 29.4601 31.2406 29.2803 31.4972C28.963 31.9501 28.9495 31.9406 28.8188 31.1732L28.6839 30.3826L28.6554 31.2622C28.6342 31.9101 28.4534 32.3266 27.9692 32.8435C27.6077 33.2293 27.1421 33.8948 26.9342 34.3222C26.4971 35.2219 26.0925 35.4406 25.9465 34.8564C25.8657 34.5336 25.8393 34.5542 25.8193 34.9558C25.8005 35.3324 25.5275 35.5861 24.759 35.9416C24.1896 36.205 23.2028 36.6649 22.5656 36.9636C21.9285 37.2622 21.3158 37.4479 21.2038 37.376C21.0918 37.3044 21.0003 36.896 21.0003 36.4684C21.0003 35.7772 21.0646 35.6911 21.5803 35.6911C22.2007 35.6911 23.349 35.0572 25.315 33.6294C25.9872 33.1412 26.6547 32.7884 26.7978 32.8455C26.9412 32.9024 27.1105 32.7425 27.1741 32.4902C27.2377 32.2379 27.3826 32.0908 27.496 32.1633C27.6093 32.2361 27.7607 32.0174 27.8324 31.6779C27.9041 31.3381 28.2819 30.552 28.6719 29.9308L29.3812 28.8014L29.5178 29.7049L29.6542 30.6085L29.6851 29.4632C29.7213 28.1239 29.9185 27.8908 32.6361 25.9777C34.0446 24.986 34.5061 24.5153 34.9225 23.6447C35.5019 22.4332 35.4973 22.4005 34.3921 19.6642L33.8038 18.2074L34.1568 16.0036C34.6174 13.1284 34.6061 12.8603 33.9866 11.9138C33.6057 11.3319 33.5286 11.0468 33.7033 10.8657C34.1313 10.422 34.6684 10.6005 35.3587 11.4155ZM27.3365 11.6522C27.3469 11.9154 27.3986 11.9689 27.4681 11.7889C27.531 11.6258 27.5232 11.4309 27.4508 11.3559C27.3785 11.2809 27.3271 11.4141 27.3365 11.6522ZM33.3114 12.1488C33.787 12.8192 33.8232 13.6792 33.5547 17.9585C33.473 19.2623 33.4933 20.0911 33.6029 19.9186C33.7369 19.7076 33.9367 19.9881 34.2832 20.8732C34.6952 21.9254 34.7351 22.2419 34.532 22.8461C34.1535 23.972 33.2545 25.0452 31.9848 25.8873C31.3433 26.3127 30.5678 26.9391 30.2617 27.2793C29.7865 27.8074 29.6712 27.8483 29.4723 27.5589C29.2812 27.2811 29.2635 27.2971 29.374 27.6482C29.5516 28.2122 28.8611 29.0593 28.5676 28.6374C28.4296 28.4388 28.4089 28.4813 28.5013 28.7747C28.7227 29.4788 26.8427 32.1568 25.9938 32.3465C25.824 32.3845 25.636 32.4723 25.5761 32.5415C25.5162 32.6106 24.6311 33.246 23.6094 33.9533C21.7721 35.2251 20.5645 35.6082 20.5645 34.919C20.5645 34.7428 20.505 34.4378 20.4322 34.2413C20.3294 33.9635 20.4484 33.8839 20.9667 33.8839C21.8357 33.8839 22.6012 33.5246 23.9617 32.4782C24.5718 32.009 25.1601 31.6219 25.2691 31.6178C25.6704 31.6033 26.6405 30.5236 27.1589 29.5143C27.9664 27.9416 29.4655 26.2644 30.8413 25.394C31.5203 24.9646 32.3805 24.2532 32.7531 23.8132C33.3484 23.1102 33.4257 22.8656 33.392 21.7928C33.3708 21.1217 33.2706 20.6256 33.1691 20.6907C32.9993 20.7993 32.9015 20.4056 32.9257 19.7116C32.9309 19.5576 32.8586 19.4808 32.7649 19.5409C32.2842 19.8488 32.2064 18.1078 32.5855 15.5259C32.8128 13.9789 32.7991 13.6747 32.4707 12.9606C32.1842 12.3378 32.1563 12.0774 32.35 11.8354C32.6954 11.404 32.8091 11.441 33.3114 12.1488ZM15.478 12.7894C15.1642 13.1147 14.3913 14.4614 13.7603 15.7825C12.7292 17.9413 12.6181 18.3172 12.6614 19.4977C12.6998 20.5362 12.5922 21.0444 12.1472 21.9265C11.8378 22.5403 11.6365 23.1823 11.6997 23.3533C11.7631 23.5243 12.2769 23.8274 12.8414 24.0269C13.5537 24.2785 14.2089 24.7689 14.9827 25.6296C16.323 27.1203 18.0903 27.882 19.2345 27.4623C20.3054 27.0694 21.654 25.616 21.654 24.8546C21.654 24.375 21.8422 24.063 22.3621 23.6808C24.7439 21.9306 25.4639 21.1348 25.7371 19.9511C26.2468 17.7425 26.2152 17.3086 25.6621 18.9251C25.3451 19.8519 24.8472 20.8122 24.5208 21.126C21.959 23.5896 21.2182 24.4385 21.2182 24.9099C21.2182 25.4861 20.0405 26.7554 19.1979 27.0875C18.547 27.3441 16.9217 26.8444 16.4204 26.2339C16.2382 26.012 15.8216 25.6486 15.4943 25.4263C15.167 25.204 14.8992 24.9002 14.8992 24.7511C14.8992 24.464 13.5683 23.7188 13.0554 23.7188C12.8881 23.7188 12.5985 23.5602 12.4113 23.3661C12.1032 23.0467 12.1169 22.9247 12.5593 22.0673C12.8619 21.4804 13.0975 20.5206 13.1798 19.5397C13.3295 17.755 14.6802 14.1086 15.5311 13.1922C16.4095 12.2461 18.8277 12.6758 20.2377 14.0282C21.0206 14.7793 21.8594 15.1348 22.8489 15.1348C23.2509 15.1348 23.9064 15.3045 24.3055 15.5118C24.7047 15.719 25.1762 15.9573 25.3532 16.0413C25.5303 16.1254 25.741 16.4387 25.8219 16.7375C25.9591 17.2467 25.9698 17.2501 25.9901 16.7911C26.028 15.9361 25.767 15.5801 24.6845 15.0115C23.9639 14.6329 23.2679 14.4572 22.4887 14.4572C21.5245 14.4572 21.245 14.3548 20.6839 13.7969C19.9786 13.0957 17.7306 12.1982 16.679 12.1982C16.289 12.1982 15.8303 12.4241 15.478 12.7894ZM6.75519 12.7718C6.54492 13.3397 6.6068 13.4863 6.8637 13.0284C6.99095 12.8016 7.04913 12.5685 6.99291 12.5104C6.93691 12.4521 6.82971 12.5698 6.75519 12.7718ZM21.8719 12.8154C21.8719 13.0706 24.138 13.6424 24.9398 13.5893C25.3545 13.5619 25.6811 13.7831 26.184 14.4319C26.8364 15.2735 26.8678 15.4088 26.9085 17.5623C26.9641 20.4935 26.4459 21.9636 25.0294 22.8924C23.9785 23.5816 23.2396 24.3585 23.8658 24.1157C24.8834 23.7208 26.5074 22.2265 26.9885 21.2421C27.4877 20.2208 27.4999 20.0819 27.3009 17.7134C27.031 14.5014 27 14.3835 26.2295 13.6299C25.668 13.0803 25.3959 12.9884 24.3223 12.9852C23.6338 12.9832 22.8005 12.8958 22.4711 12.7912C22.1094 12.6764 21.8719 12.6859 21.8719 12.8154ZM19.0392 13.9057C19.0392 14.0993 19.1373 14.1951 19.2571 14.1183C19.377 14.0415 19.475 13.8832 19.475 13.7661C19.475 13.6491 19.377 13.5536 19.2571 13.5536C19.1373 13.5536 19.0392 13.7122 19.0392 13.9057ZM5.88361 14.8048C5.67334 15.3727 5.73522 15.5193 5.99212 15.0614C6.11937 14.8346 6.17755 14.6015 6.12133 14.5434C6.06533 14.4852 5.95813 14.6029 5.88361 14.8048ZM15.905 15.3614C15.3294 16.0221 15.1171 16.4699 15.1171 17.024C15.1171 17.4475 14.8912 18.1277 14.6055 18.5641C14.2011 19.1819 14.0695 19.7537 13.9767 21.294L13.8594 23.2424L14.5428 23.3899C15.6514 23.6291 16.2456 24.1224 16.1105 24.6915C16.0458 24.9641 16.0497 25.0579 16.1192 24.9002C16.2073 24.7007 16.3776 24.7868 16.6779 25.1826C16.9544 25.5469 17.3277 25.7518 17.7155 25.7518C18.4032 25.7518 19.6432 24.9564 19.9993 24.2871C20.8672 22.6555 21.542 21.8676 22.4696 21.4022C23.7575 20.7562 24.3766 19.6274 24.1626 18.3147C23.983 17.2126 23.1771 16.2643 22.4201 16.2643C21.6941 16.2643 20.449 15.7212 19.5559 15.0149C19.0253 14.5954 18.583 14.4572 17.7717 14.4572C16.7897 14.4572 16.6226 14.538 15.905 15.3614ZM18.7357 14.9688C18.988 15.1222 19.6156 15.5783 20.1302 15.9819C20.8159 16.52 21.2934 16.7161 21.9189 16.7161C23.0969 16.7161 23.5582 17.0317 23.8207 18.0168C24.1262 19.1639 23.3893 20.7731 22.4166 21.083C21.569 21.3532 20.9351 21.9652 20.0161 23.4005C19.239 24.6142 17.9715 25.4701 17.4379 25.1414C17.2769 25.0423 16.8285 24.583 16.4415 24.1211C15.9878 23.5798 15.4721 23.2295 14.9916 23.136C14.2625 22.9941 14.0076 22.5425 14.4844 22.2371C14.6362 22.1398 14.6707 21.7216 14.5791 21.0882C14.4647 20.2978 14.5277 19.9369 14.8851 19.3378C15.1897 18.8266 15.335 18.2011 15.335 17.401C15.335 16.358 15.4222 16.1288 16.0759 15.4511C16.8792 14.6182 17.8648 14.4395 18.7357 14.9688ZM8.17717 17.5485C8.19526 17.9603 8.21966 18.4245 8.23164 18.5797C8.25888 18.9321 6.79484 18.9965 6.56802 18.6529C6.37583 18.3615 6.35818 17.2449 6.53511 16.5611C6.6591 16.0813 6.68394 16.0777 7.40364 16.4335C8.01135 16.7339 8.15037 16.9343 8.17717 17.5485ZM16.9108 16.4902C16.7496 16.7581 16.7282 16.942 16.8585 16.942C16.9793 16.942 17.0782 16.8403 17.0782 16.7161C17.0782 16.3454 18.2489 16.4601 18.8091 16.8855C19.0954 17.103 19.9263 17.5858 20.6554 17.9585C21.7257 18.5056 21.9937 18.7521 22.0479 19.238C22.0998 19.7022 22.0002 19.8761 21.6121 19.9983C20.6835 20.2911 19.6591 21.2784 19.2451 22.2796C18.4925 24.0994 17.142 24.0386 16.2092 22.1429L15.7706 21.2513L16.2064 20.1049C16.4463 19.4742 16.638 18.6825 16.6328 18.3454C16.6243 17.7938 16.5936 17.8187 16.3267 18.5946C16.1637 19.0688 15.8737 19.636 15.6826 19.8549C14.9777 20.6622 15.293 21.8441 16.6075 23.3235C17.6547 24.5017 19.0355 23.9792 19.567 22.2039C19.7744 21.5113 20.9277 20.5563 21.5568 20.5563C22.2181 20.5563 22.8376 19.6382 22.631 18.9637C22.5386 18.6617 22.0403 18.2759 21.3106 17.9413C20.6658 17.6459 19.7293 17.0967 19.2292 16.7213C18.1722 15.9273 17.3022 15.8405 16.9108 16.4902ZM18.2834 17.8596C19.6367 18.2677 20.3231 19.4686 19.572 20.1146C19.3857 20.275 19.1273 20.6179 18.9978 20.8766C18.7926 21.2861 18.8388 21.2742 19.3565 20.7822C20.1281 20.0491 20.4004 19.5063 20.2475 19.0066C20.1015 18.5298 18.6098 17.6108 18.0291 17.64C17.7898 17.652 17.8942 17.7423 18.2834 17.8596ZM17.1006 19.2427C17.0884 19.8248 16.9801 20.5685 16.8603 20.8951C16.5511 21.7384 16.9222 22.3634 17.7319 22.3634C18.1546 22.3634 18.4518 22.2053 18.6117 21.8956C18.8488 21.4366 18.8425 21.435 18.2794 21.8174C17.7621 22.1689 17.6726 22.173 17.3693 21.8583C17.0843 21.5631 17.0743 21.39 17.3037 20.7325C17.5031 20.1607 17.5151 19.7211 17.349 19.0699L17.1233 18.1844L17.1006 19.2427ZM18.3311 18.8987C18.481 18.9615 18.7261 18.9615 18.8758 18.8987C19.0257 18.8361 18.903 18.7848 18.6034 18.7848C18.3038 18.7848 18.1814 18.8361 18.3311 18.8987ZM7.90698 19.7923C7.95623 19.8381 7.87539 20.2947 7.72744 20.8066C7.48034 21.6616 7.53416 24.2078 7.83094 25.6876C7.93117 26.1882 10.3337 28.3737 11.7857 29.285C12.2095 29.5511 12.6177 29.8667 12.6928 29.9864C12.7678 30.1061 13.3419 30.3302 13.9688 30.4843C14.7674 30.6806 15.2888 30.9776 15.712 31.4771C16.3066 32.1791 16.3365 32.1873 17.7221 32.0289C18.4956 31.9406 19.1654 31.9065 19.2105 31.9532C19.2556 31.9998 19.1772 32.2614 19.0364 32.5342C18.6756 33.2329 17.9498 36.0238 17.9498 36.7119C17.9498 37.3297 17.8449 37.3961 16.5751 37.58C15.7523 37.6991 15.7455 37.6936 15.8124 36.978C15.8726 36.3326 15.9538 36.2549 16.5772 36.2481C17.339 36.2396 17.8449 35.9335 17.169 35.8903C16.9394 35.8754 16.6215 35.8817 16.4628 35.9039C15.9782 35.9721 15.5353 35.4333 15.6582 34.9251C15.7654 34.4805 15.7564 34.4823 15.5222 34.9536L15.2714 35.4582L14.3772 34.6597C13.1535 33.567 12.965 33.4193 12.8281 33.4444C12.4394 33.5153 12.2553 33.2232 12.3198 32.6381C12.386 32.0375 12.4257 32.0061 12.7137 32.3282C12.89 32.525 13.2088 32.6388 13.4219 32.581C13.6886 32.5087 13.8098 32.604 13.8098 32.8862C13.8098 33.1902 13.8734 33.2307 14.0549 33.0425C14.2364 32.8543 14.4482 32.9352 14.872 33.3538C15.1866 33.6646 15.671 34.0129 15.9484 34.1275C16.6208 34.4051 17.9498 34.3936 17.9498 34.1098C17.9498 33.9856 17.5161 33.8839 16.986 33.8839C16.267 33.8839 15.8519 33.7353 15.3518 33.2991C14.9831 32.9774 14.6813 32.574 14.6813 32.4025C14.6813 32.2184 14.5478 32.1441 14.3545 32.2209C14.1242 32.3126 14.0202 32.1938 14.0024 31.8186C13.9852 31.4567 13.9459 31.4088 13.8797 31.6691C13.7596 32.1416 13.1628 31.9503 13.1389 31.4314C13.128 31.197 13.0811 31.1644 13.0118 31.3427C12.7663 31.9736 12.2841 31.6164 12.2496 30.7779C12.2165 29.9724 12.2104 29.9661 12.1283 30.6453L12.0418 31.3596L11.0743 30.8712C10.428 30.5448 10.101 30.2326 10.089 29.9308C10.0787 29.6738 10.0225 29.6046 9.95824 29.7707C9.87893 29.9755 9.57627 29.8396 8.94046 29.313C8.44278 28.901 7.66926 28.3123 7.2217 28.0049C6.18452 27.2924 5.96554 26.6131 5.96554 24.1062C5.96554 22.5423 6.07819 21.7734 6.4558 20.7573C6.87133 19.6398 7.01252 19.4593 7.38185 19.5739C7.62154 19.6479 7.85796 19.7464 7.90698 19.7923ZM8.94656 21.4088C8.85678 22.3006 8.9191 23.0255 9.14375 23.7014C9.32439 24.2451 9.41285 24.9698 9.34051 25.3118C9.23788 25.7961 9.3185 26.0136 9.70549 26.2946C9.97894 26.493 10.4372 26.6554 10.7237 26.6554C11.1931 26.6554 12.3862 27.4347 14.5972 29.1854C15.0557 29.5484 15.78 29.8522 16.3861 29.9362C16.9466 30.0137 17.6894 30.1714 18.0367 30.2864C19.0625 30.6261 20.0032 30.5288 20.9306 29.9873C24.9594 27.6346 25.1076 27.5294 25.3329 26.8591C25.5338 26.2619 25.616 26.2097 26.0106 26.4288C26.435 26.6642 26.4405 26.7109 26.1106 27.2879C25.4835 28.3846 25.2721 28.5822 23.2882 29.9265C21.299 31.2744 21.0415 31.3625 17.9498 31.7524C16.7853 31.8993 16.7213 31.8778 15.7026 31.0052C15.1258 30.5109 14.2924 29.9905 13.8505 29.8481C12.2461 29.3315 8.56742 26.7139 8.15843 25.7977C7.8549 25.1182 7.85992 21.7255 8.16584 20.8158C8.29745 20.4246 8.55653 20.1045 8.74152 20.1045C9.02129 20.1045 9.05594 20.3245 8.94656 21.4088ZM10.6764 20.6127C10.3744 21.7607 10.2984 23.4183 10.5202 24.012C10.6701 24.4129 11.0536 24.7728 11.5685 24.996C12.0152 25.1893 12.8737 25.8085 13.4764 26.3717C14.6999 27.5147 17.8053 29.1402 18.7653 29.1402C19.1085 29.1402 19.8744 28.894 20.4673 28.5931C21.06 28.2922 21.9059 27.8935 22.3471 27.7076C22.9857 27.4381 23.1962 27.193 23.3808 26.504C23.5083 26.0281 23.6131 25.5119 23.6137 25.3565C23.6155 24.9637 23.9205 25.0041 24.4655 25.4694C24.918 25.8557 24.92 25.8824 24.5441 26.6407C23.8763 27.9886 20.7024 30.0438 19.2887 30.0438C18.1524 30.0438 15.7364 29.2556 14.7539 28.5644C14.3209 28.2599 13.871 28.0107 13.754 28.0107C13.637 28.0107 13.05 27.6369 12.4497 27.1799C11.8491 26.7229 11.0026 26.2897 10.5683 26.2169C9.7885 26.0864 9.77652 26.0678 9.6022 24.7323C9.22285 21.826 9.4987 20.1045 10.3435 20.1045C10.7217 20.1045 10.7847 20.2007 10.6764 20.6127ZM2.29575 23.7188C2.29575 24.0294 2.34521 24.1565 2.40557 24.0011C2.46614 23.8459 2.46614 23.5918 2.40557 23.4364C2.34521 23.2812 2.29575 23.4082 2.29575 23.7188ZM26.2768 24.2772C25.8907 24.6138 25.6345 24.9894 25.7075 25.1116C25.7837 25.2395 26.0446 25.1347 26.3213 24.8652C26.8941 24.3072 27.1715 24.2788 27.5406 24.7396C27.7653 25.0204 27.7441 25.1638 27.4245 25.5302C27.0144 25.9998 27.2661 26.1683 27.7023 25.7161C27.8932 25.5182 28.0372 25.5259 28.2958 25.7484C28.9981 26.3527 28.7831 25.8207 27.8967 24.7615L26.9789 23.6648L26.2768 24.2772ZM4.94143 25.5259C4.94143 26.2092 4.98218 26.4887 5.03207 26.1471C5.08197 25.8056 5.08197 25.2463 5.03207 24.9047C4.98218 24.5632 4.94143 24.8426 4.94143 25.5259ZM27.755 27.6134C27.755 28.0369 26.1474 30.3146 25.599 30.6679C25.2867 30.8692 24.236 31.5733 23.264 32.2329C21.3868 33.5065 20.1318 33.8282 20.1257 33.0368C20.1241 32.8193 20.0636 32.4129 19.9914 32.1333C19.8698 31.6634 19.9313 31.625 20.8057 31.625C21.5927 31.625 22.0558 31.4129 23.5623 30.363C24.5581 29.6688 25.5166 28.8556 25.6924 28.5558C26.7346 26.7774 26.63 26.8743 27.2118 27.149C27.5106 27.2901 27.755 27.4991 27.755 27.6134ZM8.97249 32.3479C9.1163 32.497 9.24529 32.8272 9.25924 33.082C9.27994 33.4631 9.30216 33.4751 9.38409 33.1498C9.50829 32.6574 9.80506 32.6415 10.0598 33.1137C10.1663 33.3111 10.2938 33.457 10.343 33.4378C10.7239 33.2894 11.195 33.7992 11.195 34.3599C11.195 34.7193 11.1493 35.0134 11.0935 35.0134C10.7076 35.0134 9.45186 34.1936 9.45186 33.9418C9.45186 33.771 9.34945 33.6969 9.22437 33.7771C8.85025 34.0168 8.36238 33.4225 8.36238 32.7269C8.36238 32.0307 8.5526 31.9126 8.97249 32.3479ZM12.0962 34.5052C12.1217 35.0378 12.1394 35.0538 12.2204 34.6181C12.3259 34.0502 12.6723 33.9434 12.8501 34.4236C12.914 34.5964 13.1317 34.6992 13.3337 34.652C13.5402 34.6039 14.1126 34.9556 14.6423 35.4562C15.3583 36.1325 15.5673 36.4824 15.5139 36.9159L15.444 37.4863L14.3545 36.7096C13.7553 36.2825 13.0992 35.9294 12.8966 35.9249C12.6939 35.9206 12.4675 35.8153 12.3934 35.6911C12.3194 35.5669 12.0686 35.4652 11.8358 35.4652C11.4977 35.4652 11.4129 35.3066 11.4129 34.6746C11.4129 33.6919 12.0498 33.534 12.0962 34.5052Z" fill="#FF4F00" fill-opacity="0.37"/>
</svg>
