<svg width="37" height="35" viewBox="0 0 37 35" fill="none" xmlns="http://www.w3.org/2000/svg">
<path fill-rule="evenodd" clip-rule="evenodd" d="M13.7241 0.208152C11.4702 0.647992 9.24662 1.62697 7.10756 3.12139C4.46161 4.96967 3.53761 6.35915 3.2769 8.88197C3.19924 9.63256 2.69764 11.8934 2.16216 13.9057C1.6269 15.9183 1.12266 18.1644 1.04192 18.8972C0.761417 21.4403 1.78948 23.8399 3.55521 24.7641C4.93659 25.4871 5.69515 26.272 6.31973 27.6254C7.04112 29.188 9.07678 31.4228 10.4076 32.1129C12.2151 33.0502 15.4403 33.808 17.6227 33.808C19.0259 33.808 20.0174 33.9438 21.003 34.2713C21.7699 34.5261 23.2145 34.7944 24.2126 34.8673L26.0276 35V33.1989C26.0276 31.651 25.6431 29.4719 25.0396 27.6019C24.9595 27.3537 25.1379 27.5568 25.4362 28.0533C25.7344 28.5498 26.2236 29.2606 26.5231 29.633C26.8227 30.0054 27.2706 30.7162 27.5183 31.2127C28.0771 32.3316 29.4876 34.0337 29.8558 34.0337C30.548 34.0337 32.563 31.5332 33.8761 29.0447C35.4157 26.1276 36.1712 23.997 36.708 21.0574C37.2485 18.0979 37.0635 16.2893 35.8537 12.7074C35.3086 11.0938 34.6415 9.03249 34.3714 8.12686C34.101 7.221 33.6095 6.04275 33.2791 5.50835C32.2888 3.90651 29.3474 1.80548 27.5676 1.4286C27.1441 1.33878 25.9561 0.977928 24.9276 0.626327C23.128 0.0113627 22.9003 -0.0121078 18.8776 0.00278677C16.5786 0.0111367 14.2596 0.103664 13.7241 0.208152ZM17.4918 1.1781C18.1331 1.35323 19.0171 1.65428 19.4564 1.84678C20.0999 2.1291 20.5151 2.15415 21.5935 1.97609C22.9604 1.75019 24.7567 2.00046 27.2147 2.75941C28.2426 3.07671 30.4912 4.51674 31.6033 5.57019C33.259 7.13818 35.2676 13.4875 35.2676 17.1536C35.2676 18.79 34.3577 22.7562 33.5175 24.781C33.1829 25.5878 32.8487 26.4257 32.7753 26.6428C32.574 27.2372 32.2275 27.1176 32.1221 26.4171C32.0706 26.0759 32.0715 26.33 32.1241 26.9822C32.1991 27.9143 32.1456 28.1968 31.8735 28.304C31.6834 28.3787 31.5276 28.6831 31.5276 28.9801C31.5276 29.2771 31.4286 29.5202 31.3076 29.5202C31.1866 29.5202 31.0876 29.6761 31.0876 29.8666C31.0876 30.3592 30.4175 31.3456 30.1836 31.1974C30.0758 31.1292 29.9876 31.2317 29.9876 31.4251C29.9876 31.6185 29.8886 31.7769 29.7676 31.7769C29.6466 31.7769 29.4834 31.8024 29.4046 31.8333C29.3261 31.8642 28.9054 31.1856 28.4696 30.3249C27.9592 29.3166 27.5289 28.7402 27.2596 28.7039C26.7822 28.6394 26.476 28.2334 26.4709 27.6583C26.4692 27.4412 26.3211 27.2634 26.142 27.2634C25.9632 27.2634 25.6248 26.8827 25.3903 26.4171C25.156 25.9518 24.758 25.4431 24.5059 25.287C24.0918 25.0304 24.0476 25.0552 24.0476 25.5449C24.0476 26.393 22.6348 26.6683 21.4516 26.0506C20.684 25.6498 18.1835 25.3966 17.3519 25.6356C16.3898 25.9121 16.3007 26.4616 17.2566 26.2244C18.5438 25.9048 20.5155 26.1125 21.2127 26.641C21.6879 27.0016 22.1307 27.1097 23.0301 27.0856C24.1244 27.056 24.2273 27.0971 24.3211 27.5997C24.4768 28.4356 24.2843 28.441 20.8576 27.6992C20.1316 27.5421 19.4648 27.3036 19.3759 27.1691C19.2652 27.0016 19.2133 27.0113 19.2109 27.1998C19.2087 27.3907 18.77 27.4643 17.7732 27.441C16.7986 27.4184 16.4107 27.334 16.5632 27.1777C17.1594 26.5661 16.5128 26.3632 15.87 26.9599C15.4951 27.3079 15.4676 27.307 15.4676 26.9466C15.4676 26.7338 15.3703 26.6214 15.2515 26.6967C15.1325 26.7721 14.6795 26.5857 14.2448 26.2826C13.8099 25.9795 13.5523 25.6695 13.6722 25.5934C13.7918 25.5174 13.9401 25.5828 14.0015 25.7388C14.0686 25.9098 14.1196 25.8656 14.1302 25.6273C14.1515 25.1425 14.1685 25.1423 15.1323 25.6137C15.7014 25.8922 15.9775 25.9279 16.1551 25.7457C16.3324 25.5639 16.2184 25.4011 15.7327 25.1434C15.3668 24.9493 15.026 24.6634 14.9757 24.5081C14.9068 24.2967 14.641 24.3378 13.9153 24.6727C13.3824 24.9184 12.8703 25.0942 12.777 25.0631C12.6839 25.0322 12.6076 25.092 12.6076 25.196C12.6076 25.3969 11.6411 25.9094 11.2625 25.9094C11.1336 25.9094 11.1012 25.7049 11.1864 25.4298C11.2684 25.1646 11.2464 25.006 11.1375 25.0753C11.0288 25.1441 10.7486 24.9078 10.5143 24.5501C10.28 24.1927 9.86197 23.7758 9.5852 23.6239C9.22286 23.4249 9.11792 23.2171 9.20944 22.8797C9.31262 22.4992 9.29172 22.4748 9.09746 22.7499C8.89242 23.0406 8.79496 23.0106 8.40842 22.5371C8.16092 22.234 8.00318 21.81 8.05818 21.5949C8.11692 21.3645 8.05488 21.2444 7.90726 21.3027C7.42194 21.4936 7.10382 20.4914 7.09502 18.7442C7.09018 17.7824 7.19952 16.6398 7.3379 16.2053C7.47628 15.7709 7.66614 14.603 7.75986 13.6101C7.8538 12.6171 8.04806 11.503 8.19194 11.1342L8.45352 10.4639L8.85942 11.1342C9.28138 11.8306 9.25058 12.3953 8.63502 15.2494C8.52084 15.7788 8.42756 16.8264 8.42756 17.5774C8.42756 18.3285 8.31866 19.1518 8.18556 19.4068C8.00978 19.7442 8.00978 19.8288 8.18556 19.7173C8.32702 19.6275 8.42954 19.7333 8.4324 19.9721C8.43504 20.1966 8.63084 20.6342 8.86756 20.9445C9.10428 21.2548 9.30426 21.661 9.31196 21.8472C9.31988 22.0334 9.80784 22.5664 10.3963 23.0318C11.2455 23.7034 11.4409 23.9785 11.3423 24.3648C11.2623 24.6788 11.3021 24.7984 11.4541 24.702C11.5839 24.6199 11.7291 24.6727 11.7768 24.8196C11.9238 25.2723 12.3535 24.809 12.2314 24.3296C12.0976 23.8054 10.5015 22.0517 10.324 22.2338C10.258 22.3015 10.0767 22.0659 9.92071 21.7102C9.76495 21.3546 9.4664 20.8865 9.25718 20.6703C8.86096 20.2607 8.8372 18.5424 9.1859 15.5283C9.53944 12.4713 9.62062 12.3664 10.408 13.9493C10.8412 14.8204 10.8412 14.8253 10.39 16.3234C9.84392 18.1369 9.95591 18.6009 11.3687 20.3799C11.9095 21.0607 12.4028 21.898 12.4648 22.2403C12.5271 22.5827 12.6467 23.269 12.731 23.7655C12.815 24.2619 12.9272 24.547 12.98 24.3987C13.0328 24.2507 13.2082 24.1814 13.3694 24.2448C13.9265 24.4641 13.9333 23.9079 13.3811 23.2967C13.0766 22.9598 12.8276 22.4513 12.8276 22.167C12.8276 21.8826 12.3847 20.9865 11.8433 20.1754C10.624 18.3484 10.5314 17.9782 10.9129 16.4511C11.2453 15.1194 11.3769 15.1453 11.6096 16.5885C11.6937 17.1096 12.0442 17.9728 12.3885 18.5068C12.733 19.0407 13.1356 19.9854 13.2832 20.606C13.7133 22.4123 14.0585 22.8957 15.5897 23.8365L17.0338 24.7237L18.1483 24.3885C19.2149 24.0679 19.3108 24.0764 20.3723 24.5865C22.0236 25.3797 23.174 25.3075 24.1369 24.3502C24.5624 23.927 25.0783 23.2162 25.2833 22.7705C25.4886 22.3247 25.8844 21.5877 26.1631 21.1325C26.4419 20.6773 26.7369 20.0172 26.8183 19.6656C26.8999 19.314 27.1267 18.825 27.3221 18.5788C27.6552 18.1597 27.6532 18.1507 27.2926 18.4373C26.9488 18.7103 26.9048 18.6799 26.8801 18.1511C26.8649 17.8257 26.8339 17.4326 26.8108 17.2773C26.7879 17.1223 26.8993 16.721 27.0583 16.3859C27.4323 15.598 27.429 15.3279 27.0519 15.8569C26.7855 16.2304 26.7417 16.1627 26.6095 15.1736C26.4859 14.2478 26.2978 13.9138 25.4103 13.0457C24.7296 12.3797 23.951 11.8812 23.2059 11.6343C22.5723 11.4244 21.7088 10.9828 21.287 10.6526C20.5269 10.058 20.51 10.0557 19.3689 10.3956C18.7357 10.584 17.6852 10.7503 17.0346 10.765C15.9547 10.7894 15.8781 10.7589 16.1546 10.4157C16.4307 10.0729 16.4158 10.0663 15.9841 10.3421C15.5776 10.6016 15.4273 10.5883 14.9189 10.2466C14.4169 9.90924 14.2285 9.89074 13.677 10.1252C13.3195 10.2771 12.883 10.6867 12.7072 11.0354C12.2468 11.9487 12.3145 12.3813 12.7926 11.579C13.0144 11.2066 13.4599 10.7578 13.7824 10.5813C14.3179 10.2888 14.4136 10.3035 14.8775 10.7506C15.1572 11.02 15.5965 11.2405 15.8537 11.2405C16.5055 11.2405 16.6314 11.5628 16.1531 12.0067C15.8552 12.2831 15.611 12.3291 15.2234 12.182C14.5079 11.9103 14.2006 12.0606 13.785 12.8848L13.4317 13.5855L14.1282 12.9843L14.8247 12.3833L15.8062 12.8723C16.9323 13.4336 17.0566 13.7229 16.1716 13.7229C14.9633 13.7229 14.674 14.8355 15.4676 16.431C15.7611 17.0212 15.9076 17.7611 15.9076 18.6537C15.9076 20.3941 16.3771 21.0935 17.3035 20.7322C17.8374 20.5239 18.1525 20.6015 19.5647 21.2889C21.1691 22.07 21.2193 22.0792 21.8377 21.7044C22.7186 21.1706 22.9476 20.5135 22.9476 18.5187C22.9476 16.8788 22.9117 16.7531 22.2396 16.0417C21.7488 15.5222 21.0767 15.1535 20.0484 14.8393C19.2327 14.5902 18.506 14.2878 18.4334 14.1675C18.361 14.047 18.0106 13.9486 17.6546 13.9486C16.781 13.9486 16.8102 13.3862 17.7004 13.068C18.0814 12.9317 18.8712 12.8202 19.4553 12.8202C20.3397 12.8202 20.5767 12.9127 20.8706 13.3729C21.0648 13.6771 21.5475 14.0355 21.9433 14.1695C23.1553 14.5798 24.4341 16.4403 24.1453 17.3732C24.0485 17.6867 24.081 17.7905 24.2441 17.6871C24.6878 17.4057 24.5048 18.4926 23.8054 20.2905C23.0299 22.2837 22.6598 22.7163 21.5757 22.8968C20.9663 22.9982 20.7153 22.9212 20.3518 22.5209C19.9585 22.088 19.7556 22.0388 18.9016 22.1702C18.1958 22.2787 17.7622 22.2279 17.4029 21.9944C17.1251 21.8138 16.5803 21.5981 16.1925 21.5152C15.4638 21.3595 15.3851 21.2237 15.1411 19.7033C15.0615 19.2068 14.7081 18.1694 14.3557 17.3978C14.0035 16.6262 13.6493 15.5599 13.5685 15.0282C13.4816 14.4539 13.1692 13.7624 12.799 13.3251C12.4562 12.92 12.0171 12.2734 11.823 11.8886C11.5784 11.4032 11.3998 11.2608 11.2409 11.4237C10.9668 11.7049 11.7091 13.0463 12.4859 13.6733C12.7649 13.8983 13.059 14.4331 13.14 14.8617C13.2207 15.2905 13.6994 16.9887 14.2037 18.6354L15.1202 21.6297L15.989 21.8698C16.4668 22.0018 17.0844 22.262 17.3613 22.4482C17.6383 22.6341 18.2094 22.756 18.6307 22.7188C19.1511 22.6727 19.5482 22.7919 19.8696 23.0902C20.497 23.6727 21.8663 23.6693 22.631 23.0832C22.9513 22.8379 23.3949 22.2816 23.6168 21.8472C24.3794 20.3541 25.1296 18.5743 25.1861 18.1236C25.2891 17.3039 24.03 15.0571 23.1128 14.4241C22.6442 14.1005 21.815 13.455 21.2708 12.9895C20.1481 12.0297 19.9563 12.0019 17.974 12.5126C16.9205 12.7841 16.475 12.8155 16.295 12.6309C15.8898 12.2152 16.7282 11.4662 17.5987 11.4662C18.0075 11.4662 18.6972 11.3138 19.1315 11.1277C20.2128 10.6641 20.5421 10.6982 21.4199 11.3637C21.8366 11.6797 22.607 12.0493 23.132 12.1852C23.8756 12.3779 24.2768 12.6796 24.9481 13.5507C25.858 14.7315 26.177 15.5491 25.9044 16.0018C25.7995 16.1756 25.832 16.2166 25.9935 16.1139C26.1713 16.0016 26.2476 16.2584 26.2476 16.9686C26.2476 17.5271 26.1486 18.0468 26.0276 18.1236C25.9066 18.2003 25.8076 18.3646 25.8076 18.4887C25.8076 18.6128 25.9066 18.6517 26.0276 18.5749C26.4496 18.3075 26.2441 19.488 25.6791 20.5764C25.3665 21.179 24.9727 22.0733 24.8037 22.5642C24.635 23.055 24.29 23.7546 24.0373 24.1189C23.4404 24.9787 22.4808 24.9965 20.7087 24.1807C19.4998 23.6242 19.3233 23.5998 18.2834 23.846C17.3041 24.078 17.0892 24.0615 16.5896 23.7167C16.275 23.4994 15.6528 23.1503 15.2071 22.9406C14.2921 22.5105 13.8341 21.7499 13.5974 20.2675C13.5083 19.7089 13.1877 18.8164 12.8854 18.2838C12.5172 17.6354 12.2983 16.8406 12.2228 15.8765C12.1322 14.7175 12.0301 14.4157 11.699 14.3268C11.4726 14.2661 11.2876 14.0655 11.2876 13.8807C11.2876 13.6961 11.0035 13.2332 10.6566 12.852C10.3097 12.4711 9.96426 11.8444 9.88924 11.4592C9.81422 11.0742 9.66022 10.818 9.54692 10.8896C9.33616 11.0234 8.42756 9.88126 8.42756 9.48271C8.42756 9.36085 8.18006 9.09501 7.87756 8.89167C7.57506 8.68834 7.32756 8.32116 7.32756 8.07585C7.32756 7.83055 7.22614 7.6297 7.10206 7.6297C6.82573 7.6297 6.44755 8.60032 6.44755 9.30939C6.44755 9.59645 6.31137 9.94715 6.14505 10.0886C5.71979 10.4506 5.50375 11.939 5.55853 14.1276C5.58449 15.1571 5.50969 16.1218 5.39265 16.2715C5.27561 16.4213 5.13349 16.8993 5.07717 17.3337C5.02085 17.7681 4.90073 18.3267 4.81031 18.5749C4.67985 18.9331 4.69437 18.9565 4.88071 18.6878C5.05319 18.4388 5.10225 18.8392 5.06639 20.2002C5.03559 21.3701 5.09455 21.972 5.22677 21.8362C5.43049 21.6267 6.66755 23.3793 6.66755 23.8776C6.66755 24.0022 6.79889 24.104 6.95928 24.104C7.37706 24.104 8.23484 25.1033 8.1398 25.4795C8.0958 25.6539 8.1013 25.7205 8.1519 25.6273C8.52612 24.941 9.43362 26.2623 9.1771 27.1201C9.09768 27.385 9.10956 27.5272 9.2035 27.4363C9.45496 27.1919 9.95216 27.9811 9.8767 28.5046C9.84106 28.7529 9.85404 28.8291 9.90575 28.6739C10.0208 28.3286 10.0311 28.3284 10.7358 28.6576C11.1175 28.8361 11.2614 29.0402 11.1729 29.2782C11.0737 29.5459 11.1041 29.5694 11.2959 29.3739C11.6039 29.0607 12.8241 29.6824 12.8263 30.1541C12.8269 30.3166 12.931 30.384 13.0573 30.3039C13.1835 30.2238 13.5171 30.313 13.7987 30.5021C14.08 30.6914 14.6448 30.9345 15.054 31.0428C15.5802 31.1818 15.8185 31.3865 15.8689 31.7424C15.9324 32.1892 15.8711 32.2283 15.3189 32.0926C14.9772 32.0089 14.5308 31.8527 14.3271 31.7458C14.1232 31.6388 13.7635 31.5512 13.5274 31.5512C12.7488 31.5512 10.8476 30.8115 10.8476 30.5084C10.8476 30.345 10.7175 30.2626 10.5585 30.3251C10.2313 30.4538 8.59806 28.7075 8.07468 27.6696C7.88504 27.293 7.77658 26.8015 7.83378 26.5769C7.89714 26.3284 7.83796 26.2082 7.68264 26.2693C7.38366 26.3869 6.53841 25.0344 6.63257 24.5892C6.66799 24.4215 6.60463 24.343 6.49177 24.4145C6.25087 24.5673 3.80315 22.3044 3.80579 21.9312C3.80667 21.7912 3.96155 21.5457 4.14965 21.3857C4.33775 21.2255 4.59405 20.8829 4.71901 20.6245C4.85717 20.3395 4.73683 20.4131 4.41343 20.8116C4.12039 21.1731 3.77807 21.4038 3.65289 21.3243C3.31386 21.1095 3.10706 19.4126 3.36073 18.9263C3.48217 18.6936 3.62297 18.0114 3.67313 17.4107C3.72351 16.8097 3.91425 15.3026 4.09685 14.0614C4.27945 12.8202 4.49703 10.8907 4.58041 9.77361C4.66401 8.65652 4.85563 7.43787 5.00633 7.06551C5.33501 6.25331 6.68208 4.96944 8.3631 3.86634L9.59356 3.0591L9.97857 3.58267C10.3578 4.09834 10.3473 4.12564 9.26686 5.3998C8.66362 6.11135 8.03002 6.74866 7.85886 6.81592C7.52556 6.94703 7.42194 7.6297 7.73522 7.6297C7.8384 7.6297 8.48036 7.02037 9.16192 6.27565C10.434 4.88594 10.9175 4.6465 11.1575 5.28832C11.2526 5.54175 10.8575 6.11226 9.87582 7.1393C9.09526 7.9558 8.5116 8.71497 8.57892 8.82645C8.64602 8.93816 9.31592 8.40421 10.0672 7.64008C11.479 6.20501 11.6462 6.17387 12.0318 7.27584C12.1493 7.61097 11.8976 8.00928 10.9441 8.99774C10.2619 9.70478 9.80344 10.3466 9.9251 10.4238C10.0468 10.501 10.6126 10.0307 11.1824 9.37891C11.7522 8.72716 12.4076 8.11986 12.639 8.02959C13.0458 7.87072 13.0423 7.82919 12.5337 6.78838C12.2444 6.19598 11.8811 5.30525 11.7263 4.80876C11.5716 4.31228 11.3104 3.70566 11.1463 3.4608C10.5717 2.60459 10.7747 2.32024 12.3326 1.79893C13.646 1.35932 15.2883 0.95649 16.0618 0.884274C16.2072 0.870508 16.8507 1.00275 17.4918 1.1781ZM12.8276 2.89526C12.8276 3.02209 12.588 3.23784 12.295 3.37482C11.6651 3.6691 11.7711 4.33236 12.4146 4.12293C12.9682 3.94262 13.2601 4.66884 12.7515 4.96064C12.2226 5.2644 12.306 5.59862 12.9107 5.59862C13.6757 5.59862 14.0888 6.1847 13.7342 6.76739C13.3767 7.35437 13.5705 7.54056 14.2224 7.2359C14.8025 6.96463 17.8876 6.87368 17.8878 7.12757C17.8878 7.21761 19.2382 7.30992 20.8886 7.33293C23.3874 7.36769 24.0403 7.45028 24.7934 7.82671C25.2906 8.07518 26.0168 8.39767 26.4071 8.54346C26.7974 8.68902 27.5014 9.23627 27.9715 9.75961C28.6707 10.5377 28.8949 11.0261 29.2016 12.4402C29.4077 13.3912 29.5146 14.272 29.4392 14.3975C29.3635 14.5229 29.4088 14.6256 29.5397 14.6256C29.7012 14.6256 29.7549 15.5134 29.7067 17.3901C29.6435 19.8486 29.572 20.2806 29.061 21.2927C28.7451 21.9185 28.3244 23.0024 28.1262 23.7016C27.9282 24.4005 27.4726 25.351 27.114 25.8141C26.7554 26.277 26.5138 26.7089 26.5772 26.7739C26.8231 27.0262 28.0182 25.5546 28.3642 24.5734C28.5647 24.0049 28.9778 22.9812 29.2821 22.2986C29.5866 21.6159 29.9225 20.3465 30.0285 19.4776C30.2573 17.605 30.3302 14.7877 30.1572 14.4945C30.0899 14.3805 29.9205 13.5257 29.7808 12.595C29.4013 10.0674 28.8291 9.3692 25.8776 7.83167C24.1008 6.90641 24.0439 6.89332 21.4776 6.836C18.3324 6.76581 18.486 6.78612 18.6785 6.46634C18.7852 6.28964 18.7377 6.26797 18.5311 6.39886C18.2803 6.55796 14.588 6.57038 14.4294 6.41286C14.4028 6.38645 14.359 6.01477 14.3317 5.58689C14.3044 5.15878 14.1443 4.58467 13.976 4.31092C13.8075 4.03718 13.7375 3.70025 13.8207 3.56236C13.9036 3.4247 13.7885 3.16946 13.5646 2.99546C13.0768 2.61655 12.8276 2.5827 12.8276 2.89526ZM14.4765 3.118C14.4012 3.24303 14.502 3.51203 14.7007 3.71582C14.8993 3.9196 15.0161 4.26533 14.9603 4.48446C14.8949 4.74038 15.0067 4.9225 15.2729 4.99382C15.7305 5.11658 16.0449 4.80967 15.6911 4.58534C15.5681 4.50749 15.4676 4.15588 15.4676 3.80406C15.4676 3.42899 15.3237 3.10785 15.1195 3.02751C14.6628 2.84764 14.6371 2.85126 14.4765 3.118ZM15.9076 3.30712C15.9076 3.4186 16.3036 3.57477 16.7876 3.65421C17.2716 3.73365 17.6676 3.87853 17.6676 3.97647C17.6676 4.29309 17.1501 4.69592 16.7436 4.69592C16.5258 4.69592 16.3476 4.79748 16.3476 4.9216C16.3476 5.04572 16.4587 5.14727 16.5944 5.14727C16.7577 5.14727 16.7403 5.28132 16.5434 5.5422C16.2594 5.9184 16.2668 5.9184 16.6987 5.5422C17.1706 5.13125 17.6676 5.01909 17.6676 5.3233C17.6676 5.42011 19.2362 5.52009 21.1533 5.54514C24.3805 5.58756 24.7109 5.63157 25.6083 6.13663C26.1414 6.43678 26.8867 6.74844 27.2647 6.82923C27.6563 6.91273 28.4738 7.48075 29.165 8.1492C30.3352 9.28074 30.3957 9.39809 30.8755 11.4662C31.4849 14.0933 31.6939 18.2421 31.307 20.0305C31.1578 20.7195 30.8091 21.6892 30.5317 22.1857C30.2543 22.6822 29.8556 23.7282 29.6453 24.5104C29.3954 25.4411 29.169 25.8951 28.9904 25.825C28.8124 25.7548 28.7554 25.8667 28.8267 26.1463C28.8927 26.4052 28.7085 26.8525 28.3618 27.2751C27.7595 28.0093 27.6382 28.3918 28.0076 28.3918C28.1286 28.3918 28.2276 28.288 28.2276 28.1614C28.2276 28.0345 28.4511 27.8262 28.7246 27.6985C28.9981 27.5708 29.4035 27.0149 29.6262 26.4625C29.8488 25.9105 30.0954 25.4993 30.1742 25.5487C30.2532 25.5984 30.3258 25.2739 30.3359 24.8275C30.346 24.3813 30.4703 23.9765 30.6122 23.9279C30.7543 23.8794 30.8087 23.7372 30.733 23.612C30.6575 23.4865 30.8128 23.083 31.0779 22.7152C31.923 21.5428 32.434 15.8179 31.8904 13.6153C31.7058 12.8676 31.4959 11.7228 31.4236 11.0708C31.3514 10.419 31.0929 9.53891 30.8489 9.11486C30.3607 8.2661 28.4199 6.66042 27.5628 6.39638C27.2629 6.30408 26.5721 5.96602 26.0276 5.64557C25.1133 5.1071 24.8103 5.05858 22.0676 5.01119C18.3637 4.9471 18.4996 4.95816 18.6329 4.73677C18.6943 4.63499 18.4281 4.59956 18.0416 4.65778C17.439 4.7485 17.3776 4.71578 17.6108 4.4276C17.8359 4.14934 18.5119 4.10353 21.546 4.16108C24.9137 4.22472 25.291 4.27414 26.2234 4.77265C26.7813 5.07099 27.5601 5.38717 27.9544 5.47518C28.7459 5.65188 30.8073 7.26997 31.3767 8.16138C31.5767 8.4744 31.9905 9.91759 32.2961 11.3682C33.2553 15.9187 33.0542 21.1632 31.8691 22.513C31.7001 22.7055 31.4937 23.143 31.4104 23.4854C31.327 23.828 31.1708 24.164 31.0632 24.2321C30.9556 24.3005 30.8676 24.6056 30.8676 24.9103C30.8676 25.215 30.7746 25.6406 30.6608 25.8561C30.5473 26.0716 30.3962 26.5297 30.3253 26.8741C30.2545 27.2187 30.0076 27.6942 29.7766 27.9312C29.0718 28.6542 28.6269 29.4678 28.8568 29.6136C28.9741 29.6878 29.1204 29.621 29.182 29.4651C29.2671 29.2498 29.356 29.2631 29.5516 29.5202C29.7775 29.8171 29.7956 29.8149 29.699 29.5008C29.6369 29.2981 29.8668 28.8377 30.2283 28.441C30.5799 28.0551 30.8676 27.5875 30.8676 27.4018C30.8676 26.9985 31.2388 26.7132 31.3439 27.0357C31.3844 27.1603 31.4275 26.7852 31.4398 26.2021C31.452 25.6191 31.5756 25.103 31.7148 25.0554C31.8539 25.008 31.9676 24.7295 31.9676 24.4371C31.9676 24.1444 32.0682 23.8413 32.1909 23.7634C32.6325 23.4834 33.1081 21.9251 33.327 20.0418C33.7545 16.3651 33.7646 15.4448 33.3972 13.7229C33.1985 12.792 32.9581 11.3673 32.8626 10.5569C32.7673 9.74653 32.5245 8.75672 32.3229 8.35705C31.8156 7.35054 29.3003 5.27704 28.1717 4.93514C27.658 4.77942 26.912 4.39984 26.514 4.09157C25.8182 3.55266 25.6565 3.53009 22.279 3.50323C20.3479 3.48788 18.7667 3.41996 18.7658 3.35226C18.7649 3.28455 18.1214 3.20105 17.3358 3.16653C16.5502 3.13222 15.9076 3.19541 15.9076 3.30712ZM14.4776 8.51525C13.098 8.93252 11.2392 10.3667 11.6996 10.6587C11.8211 10.7357 12.0008 10.6605 12.0992 10.4915C12.1973 10.3227 12.7319 9.91421 13.2869 9.58404C14.6681 8.76259 16.0818 8.78628 15.4106 9.61992C15.1697 9.91917 15.1957 9.92188 15.6326 9.64272C16.0222 9.3938 16.2165 9.38342 16.5449 9.59397C16.8833 9.81062 17.1231 9.77519 17.8099 9.40621C19.1101 8.7082 21.6126 8.89416 22.9271 9.78647C23.6525 10.2789 24.1589 10.4454 24.9388 10.4477C25.669 10.4497 26.1266 10.5858 26.4676 10.902C27.2158 11.5957 27.8233 12.9967 27.7735 13.9138C27.7489 14.3674 27.783 14.8908 27.8492 15.077C28.1632 15.9598 28.2107 16.9706 27.9535 17.2965C27.7812 17.5149 27.7722 17.5878 27.9295 17.4912C28.2036 17.3227 28.4476 17.7909 28.4476 18.4856C28.4476 19.1867 27.2867 21.5945 26.0672 23.4224C25.3082 24.5605 25.0136 25.1852 25.1635 25.3389C25.4149 25.5968 25.3447 25.6882 26.8953 23.0871C27.4875 22.0934 28.0435 20.9763 28.1304 20.6046C28.2173 20.233 28.3889 19.729 28.5116 19.4844C28.6344 19.24 28.7134 18.3614 28.6872 17.5321C28.6595 16.6565 28.7376 15.9618 28.8735 15.8756C29.0022 15.7942 29.1061 15.6064 29.1043 15.4586C29.1021 15.2826 29.0346 15.2972 28.9083 15.5017C28.6696 15.8885 28.5015 15.4004 28.4129 14.0614C28.3563 13.2109 27.495 11.3773 26.7455 10.5116C26.5594 10.2967 26.0496 10.0607 25.6125 9.9871C25.1753 9.91353 24.2731 9.61383 23.6076 9.32136C22.9421 9.02888 21.5634 8.67367 20.5437 8.53194C18.9306 8.30785 18.5845 8.32274 17.8819 8.64794C17.1614 8.98126 16.9579 8.98713 15.9958 8.70188C15.4029 8.52608 14.7196 8.44213 14.4776 8.51525ZM7.73368 9.66822C7.80078 10.1403 7.48376 11.6065 6.89328 13.5552C6.78042 13.9274 6.7857 14.126 6.90604 14.0497C7.19666 13.8655 7.1542 15.0176 6.84906 15.5996C6.51531 16.236 6.23107 17.8094 6.47813 17.6528C6.74939 17.4809 6.71221 18.4063 6.42555 18.9554C6.24977 19.2928 6.24977 19.3774 6.42555 19.2659C6.58747 19.1633 6.66755 19.4384 6.66755 20.0962C6.66755 20.6371 6.78218 21.1975 6.92232 21.3412C7.11504 21.5389 7.1091 21.6863 6.89723 21.9481C6.65105 22.2523 6.56283 22.2227 6.16463 21.7037C5.78359 21.2068 5.74993 21.0104 5.95123 20.4632C6.08279 20.1057 6.09973 19.8705 5.98907 19.9407C5.69977 20.124 5.74025 18.9748 6.04363 18.3908C6.27507 17.9453 6.26451 17.9277 5.93363 18.2075C5.60825 18.4829 5.56755 18.4506 5.56755 17.9182C5.56755 17.5887 5.69779 16.9925 5.85707 16.593C6.01613 16.1936 6.16881 15.1259 6.19609 14.2205C6.22359 13.3151 6.43853 11.9441 6.67393 11.1739C6.90934 10.4037 7.10316 9.58743 7.1047 9.35995C7.10888 8.76597 7.64282 9.02775 7.73368 9.66822ZM17.7776 10.1121C17.7028 10.2362 17.7406 10.3378 17.8616 10.3378C17.9826 10.3378 18.1428 10.2362 18.2176 10.1121C18.2924 9.988 18.2545 9.88645 18.1335 9.88645C18.0125 9.88645 17.8524 9.988 17.7776 10.1121ZM18.4433 14.8156C18.7399 15.0549 19.4333 15.32 19.9842 15.4046C20.6367 15.5051 21.2516 15.7978 21.7468 16.2439C22.4717 16.8968 22.5076 16.9999 22.5076 18.4352C22.5076 19.9989 22.2161 20.7263 21.4124 21.1675C21.0978 21.3401 20.7221 21.2503 19.8289 20.7881C19.1847 20.455 18.2972 20.1637 17.8568 20.1407C16.75 20.0831 16.5676 19.9152 16.5676 18.9532C16.5676 18.4765 16.2739 17.4994 15.8849 16.6813C15.3019 15.4557 15.239 15.1632 15.4537 14.6798C15.6867 14.1549 15.7855 14.1233 16.8047 14.2472C17.4095 14.3205 18.147 14.5764 18.4433 14.8156ZM17.3242 15.3701C17.2579 15.5471 17.2835 16.4358 17.3807 17.345C17.5565 18.989 17.562 18.9996 18.315 19.1994C18.7317 19.3099 19.2736 19.5447 19.5191 19.7211C20.5773 20.4814 21.4076 19.7934 21.4076 18.1561C21.4076 17.1354 21.0879 16.8 19.3176 15.9641C18.4706 15.564 17.7026 15.1943 17.611 15.1426C17.5195 15.0907 17.3904 15.1932 17.3242 15.3701ZM19.2767 16.4021C20.8961 17.2148 21.3141 17.8094 21.0692 18.9527C20.9676 19.4269 20.803 19.5905 20.4271 19.5905C20.149 19.5905 19.8025 19.4433 19.6568 19.2635C19.5114 19.0836 19.0644 18.8254 18.6635 18.6898C18.0112 18.4691 17.9195 18.3314 17.7886 17.3807C17.7083 16.7964 17.5882 16.1284 17.5219 15.8966C17.4557 15.6646 17.4861 15.5143 17.5895 15.5624C17.6929 15.6107 18.4521 15.9885 19.2767 16.4021ZM20.0036 17.8862C20.1602 18.3046 20.0027 18.326 19.3581 17.9737C18.9238 17.7363 18.9066 17.7472 19.1794 18.0866C19.5504 18.5476 20.3076 18.5815 20.3076 18.1369C20.3076 17.9579 20.2097 17.7496 20.09 17.6738C19.9655 17.5948 19.9285 17.6853 20.0036 17.8862ZM7.29126 22.5938C7.12472 22.9131 7.00064 22.9853 6.93992 22.7982C6.8022 22.3742 7.06884 21.796 7.32668 21.9594C7.47298 22.0524 7.4611 22.2686 7.29126 22.5938ZM9.00572 24.0958C9.37026 24.1078 9.79508 24.7083 9.71082 25.0924C9.65912 25.3269 9.2849 25.1071 8.4456 24.3495C7.54602 23.5375 7.2906 23.174 7.405 22.8684C7.53546 22.5195 7.63974 22.5759 8.15696 23.2755C8.4874 23.7221 8.8691 24.0913 9.00572 24.0958ZM10.7213 25.7471C10.8207 25.6503 10.8282 25.8171 10.7378 26.1181C10.6023 26.5697 10.7032 26.7744 11.3155 27.2878C11.9617 27.8296 12.0068 27.9301 11.6644 28.0655C11.1604 28.2645 10.3882 27.578 10.5697 27.0924C10.6518 26.8732 10.6124 26.7951 10.4663 26.8877C10.1717 27.0743 9.71588 25.8056 9.90024 25.3122C10.0131 25.011 10.0747 25.031 10.2874 25.4386C10.4265 25.7054 10.6218 25.8441 10.7213 25.7471ZM13.5824 26.6162C13.8343 26.9448 14.2277 27.0978 14.8782 27.1206C15.215 27.1323 15.2559 27.2593 15.1354 27.9188C15.0071 28.6202 15.0291 28.6714 15.3446 28.4028C15.9342 27.9009 19.9116 27.9366 21.6256 28.4593C22.411 28.6989 23.4257 28.8896 23.8806 28.8831C24.6134 28.8727 24.7076 28.9341 24.7076 29.4215C24.7076 29.9828 24.0639 30.2374 24.0302 29.6894C24.0164 29.4637 23.9906 29.4637 23.902 29.6894C23.7752 30.0115 22.8149 30.0735 22.633 29.7713C22.4304 29.4349 20.4121 29.0903 18.6576 29.0925C18.0526 29.0932 17.1616 29.0909 16.6776 29.0873C15.4403 29.0783 13.7085 28.2234 13.7043 27.6198C13.7016 27.2745 13.6515 27.2305 13.5138 27.4534C13.3576 27.7062 13.2487 27.7064 12.8571 27.4557C12.5988 27.2903 12.386 27.0016 12.3843 26.8141C12.3816 26.5489 12.3407 26.5383 12.1997 26.7662C12.0541 27.0021 11.9665 26.9946 11.7516 26.7288C11.5349 26.4611 11.5595 26.381 11.8809 26.3063C12.5532 26.1502 13.3338 26.2923 13.5824 26.6162ZM13.0282 28.3719C13.2597 28.6093 14.0503 29.041 14.7851 29.331C15.5199 29.6213 16.1225 29.9857 16.1243 30.1408C16.1287 30.5273 15.351 30.4967 14.9594 30.0952C14.7838 29.9149 14.5775 29.8314 14.5011 29.9099C14.4248 29.9882 14.0704 29.8309 13.7137 29.5606C13.3571 29.2902 13.0084 29.0688 12.9387 29.0688C12.6203 29.0688 11.7443 28.3209 11.8525 28.1415C12.0523 27.8095 12.5812 27.9134 13.0282 28.3719ZM19.2076 30.1058C19.2076 30.2662 18.6717 30.4109 17.8326 30.477C16.302 30.5978 16.2411 30.582 16.4178 30.1094C16.5744 29.6903 19.2076 29.6872 19.2076 30.1058ZM21.9294 30.2782C22.398 30.482 23.011 30.6485 23.2915 30.6485C23.8089 30.6485 24.2031 31.0155 23.957 31.268C23.8828 31.3441 23.3038 31.2423 22.67 31.0419C22.0361 30.8415 21.0472 30.6088 20.4726 30.5246C19.764 30.4208 19.4276 30.2642 19.4276 30.0376C19.4276 29.617 20.6864 29.7382 21.9294 30.2782ZM24.7406 31.2127C24.7406 31.3305 24.6341 31.4634 24.5041 31.5079C24.3741 31.5524 24.2676 31.4197 24.2676 31.2127C24.2676 31.0058 24.3741 30.8731 24.5041 30.9175C24.6341 30.962 24.7406 31.0949 24.7406 31.2127ZM21.227 31.382C21.3867 31.5372 21.7156 31.6839 21.9576 31.7085C22.3492 31.7478 24.7754 32.2601 24.8453 32.3181C24.8605 32.3307 24.9434 32.576 25.0295 32.8633C25.1824 33.3729 25.1579 33.3826 24.012 33.2686C22.2084 33.0894 20.5307 32.5056 20.5102 32.0502C20.4997 31.815 20.4495 31.7742 20.382 31.9462C20.3208 32.1014 20.0317 32.2283 19.7393 32.2283C19.447 32.2283 19.1997 32.1014 19.1902 31.9462C19.1764 31.7205 19.1506 31.7205 19.062 31.9462C18.9894 32.1308 18.4627 32.2283 17.5393 32.2283C16.2743 32.2283 16.1276 32.1813 16.1276 31.7769C16.1276 31.4115 16.2743 31.3256 16.8976 31.3256C17.3651 31.3256 17.6689 31.4364 17.6709 31.6077C17.6735 31.815 17.7173 31.8205 17.8368 31.628C18.1393 31.1401 20.7802 30.9485 21.227 31.382Z" fill="#FF4F00" fill-opacity="0.37"/>
</svg>
