<svg xmlns="http://www.w3.org/2000/svg" width="88" height="83" viewBox="0 0 88 83"><g><g><path fill="#fff" d="M86.292 35.963L64.132 51.828l8.537 25.813c.134.402.207.831.207 1.277 0 2.255-1.847 4.082-4.125 4.082-.903 0-1.737-.29-2.417-.776v.001L44 66.24 21.668 82.225l-.001-.001A4.132 4.132 0 0 1 19.25 83c-2.278 0-4.125-1.827-4.125-4.082 0-.446.073-.875.207-1.277l8.537-25.813L1.707 35.963A4.063 4.063 0 0 1 0 32.656c0-2.255 1.847-4.082 4.125-4.082H31.56l8.496-25.69A4.121 4.121 0 0 1 44 0a4.12 4.12 0 0 1 3.944 2.884l8.496 25.69h27.435c2.278 0 4.125 1.827 4.125 4.082 0 1.36-.673 2.565-1.708 3.307z"/></g></g></svg>