<svg width="1440" height="122" viewBox="0 0 1440 122" fill="none" xmlns="http://www.w3.org/2000/svg">
<path fill-rule="evenodd" clip-rule="evenodd" d="M1440 40.8498L1380 51.2998C1320 61.7498 1200 82.1748 1080 99.2748C960 116.375 840 130.15 720 116.375C600 102.6 480 61.7499 360 51.2999C240 40.8499 120 61.7499 60 71.7249L-3.48163e-06 82.1749L-1.06656e-05 -3.81091e-06L60 -9.05628e-06C120 -1.43016e-05 240 -2.47924e-05 360 -3.52831e-05C480 -4.57738e-05 600 -5.62646e-05 720 -6.67553e-05C840 -7.7246e-05 960 -8.77368e-05 1080 -9.82275e-05C1200 -0.000108718 1320 -0.000119209 1380 -0.000124454L1440 -0.0001297L1440 40.8498Z" fill="#ECEFF4"/>
</svg>
