<svg width="30" height="28" viewBox="0 0 30 28" fill="none" xmlns="http://www.w3.org/2000/svg">
<g clip-path="url(#clip0)">
<path d="M23.5066 14.8595C23.5191 14.5362 23.4595 14.2142 23.3318 13.9168C23.2042 13.6196 23.0119 13.3544 22.7689 13.1409C22.5303 12.9271 22.2679 12.7415 21.9868 12.5877C21.6696 12.4254 21.3302 12.2704 20.9761 12.1156C20.6886 12.0121 20.4251 11.8515 20.2014 11.6435C20.1177 11.5523 20.053 11.4453 20.0112 11.3288C19.9694 11.2122 19.9513 11.0886 19.958 10.9649C19.9417 10.7279 20.0155 10.4935 20.1645 10.3085C20.2391 10.2276 20.3308 10.1645 20.4329 10.1236C20.535 10.0828 20.645 10.0653 20.7547 10.0724C20.8823 10.0639 21.0098 10.0886 21.125 10.1442C21.2401 10.1998 21.3388 10.2844 21.4114 10.3896C21.5813 10.6658 21.6613 10.988 21.64 11.3116H23.5878C23.6114 10.6581 23.3964 10.0184 22.9828 9.5118C22.6416 9.11764 22.1846 8.84139 21.677 8.72261V7.40967H19.9948V8.68572C19.4862 8.77135 19.0141 9.0048 18.6373 9.35696C18.4213 9.56248 18.2512 9.8113 18.138 10.0871C18.0248 10.363 17.9713 10.6596 17.9807 10.9575C17.9742 11.2961 18.0369 11.6325 18.1652 11.9459C18.2905 12.2252 18.4713 12.4761 18.6964 12.6835C18.9439 12.9046 19.2222 13.0884 19.5227 13.2294C19.8374 13.3867 20.1842 13.5416 20.5629 13.6941C20.8555 13.7982 21.1223 13.9644 21.345 14.1809C21.5131 14.3883 21.5949 14.6524 21.5736 14.9185C21.5811 15.0354 21.5646 15.1526 21.5254 15.2629C21.486 15.3732 21.4247 15.4743 21.345 15.5602C21.2646 15.639 21.1686 15.7002 21.0631 15.7396C20.9576 15.7789 20.845 15.7957 20.7326 15.7888C20.5782 15.7983 20.4236 15.7727 20.2806 15.7139C20.1375 15.6551 20.0095 15.5647 19.9063 15.4496C19.6821 15.1461 19.5795 14.7699 19.6186 14.3948H17.6782C17.6633 14.9083 17.7829 15.4168 18.025 15.87L21.6622 17.0575C21.6622 17.0575 21.7065 17.0575 21.7286 17.0575C22.1639 16.9603 22.5644 16.7461 22.8869 16.438C23.0889 16.2285 23.2476 15.9813 23.354 15.7104C23.4604 15.4396 23.5122 15.1504 23.5066 14.8595Z" fill="#1673FF"/>
<path d="M12.3138 12.4914C12.3513 11.3907 12.6074 10.3084 13.0672 9.30763C13.527 8.3068 14.1812 7.40738 14.992 6.66173C15.8027 5.91609 16.7537 5.3391 17.7896 4.96435C18.8254 4.58959 19.9256 4.42456 21.0258 4.47884C22.1261 4.53314 23.2046 4.80567 24.1985 5.28059C25.1925 5.7555 26.082 6.4233 26.8153 7.24514C27.5487 8.06699 28.1112 9.02644 28.4702 10.0676C28.8291 11.1089 28.9774 12.2111 28.9063 13.3102C28.8452 14.5578 28.4968 15.7745 27.8882 16.8655" stroke="#040F1F" stroke-width="2"/>
<path d="M6.72177 9.74013C9.15431 9.74013 11.1263 7.76859 11.1263 5.33661C11.1263 2.90462 9.15431 0.933105 6.72177 0.933105C4.28923 0.933105 2.31726 2.90462 2.31726 5.33661C2.31726 7.76859 4.28923 9.74013 6.72177 9.74013Z" stroke="#040F1F" stroke-width="2"/>
<path d="M0.9375 19.0931L6.27159 15.3462C7.2703 14.6435 8.41894 14.183 9.62653 14.0012C10.8341 13.8194 12.0674 13.9213 13.2288 14.2987L21.6615 17.05C21.9248 17.1275 22.1481 17.3032 22.2854 17.5407C22.4227 17.7781 22.4634 18.0594 22.3993 18.326L22.3329 18.5915C22.2735 18.8311 22.1332 19.0428 21.9354 19.1907C21.7378 19.3386 21.495 19.4136 21.2483 19.403L15.4126 19.1522C15.4126 19.1522 20.3188 23.5041 27.3866 18.7022C27.5452 18.5942 27.7309 18.5327 27.9226 18.5249C28.1143 18.5171 28.3043 18.5632 28.4712 18.658C28.6357 18.7437 28.7758 18.8696 28.8785 19.024C28.9812 19.1783 29.0432 19.3562 29.0587 19.541C29.0741 19.7258 29.0426 19.9115 28.967 20.0808C28.8913 20.2501 28.774 20.3975 28.6261 20.5094L24.7307 23.4229C23.9707 23.9861 23.0502 24.2912 22.1042 24.2933H16.7258C16.1836 24.2917 15.6461 24.1917 15.1396 23.9983L8.13816 21.2912L0.9375 27.0667" stroke="#040F1F" stroke-width="2"/>
</g>
<defs>
<clipPath id="clip0">
<rect width="30" height="28" fill="white"/>
</clipPath>
</defs>
</svg>
