<svg width="27" height="28" viewBox="0 0 27 28" fill="none" xmlns="http://www.w3.org/2000/svg">
<g clip-path="url(#clip0)">
<path d="M8.86437 8.43814C8.67219 8.27681 8.45912 8.13968 8.23038 8.03012C7.98106 7.90772 7.72462 7.79211 7.44681 7.6765C7.22298 7.597 7.01739 7.47692 6.84132 7.32289C6.77741 7.25607 6.7281 7.17774 6.6963 7.0925C6.6645 7.00726 6.65083 6.91682 6.65612 6.82647C6.64153 6.64908 6.70034 6.4733 6.81995 6.33685C6.87662 6.27593 6.94721 6.2283 7.02628 6.19763C7.10534 6.16698 7.19073 6.1541 7.27585 6.16004C7.37463 6.15373 7.47341 6.17242 7.56221 6.21421C7.651 6.256 7.72668 6.31941 7.78161 6.39805C7.91415 6.60131 7.97644 6.83918 7.9597 7.07808H9.46981C9.49924 6.58539 9.334 6.1001 9.00685 5.71802C8.74059 5.43259 8.38647 5.23499 7.99531 5.15359V4.18115H6.70598V5.15359C6.31286 5.22173 5.94762 5.39371 5.65172 5.65001C5.48562 5.80266 5.35482 5.98678 5.26771 6.19057C5.18061 6.39434 5.13914 6.61327 5.14595 6.83327C5.13962 7.08486 5.18813 7.33496 5.28842 7.5677C5.3832 7.77158 5.52433 7.95278 5.70158 8.09813C5.89191 8.26172 6.10532 8.39906 6.33556 8.50614C6.58726 8.62401 6.85794 8.73962 7.14762 8.85295C7.37668 8.92947 7.58568 9.05242 7.76024 9.21338C7.88206 9.36485 7.94275 9.55317 7.9312 9.74384C7.94007 9.91753 7.87889 10.0879 7.76024 10.2198C7.69707 10.2778 7.62214 10.3228 7.54005 10.352C7.45796 10.3812 7.37047 10.3942 7.28298 10.3898C7.16311 10.3971 7.04308 10.3783 6.93199 10.3346C6.82092 10.2911 6.72169 10.2239 6.64187 10.1382C6.47287 9.92638 6.3917 9.66246 6.41392 9.397H4.91088C4.88362 9.91735 5.0702 10.4273 5.43089 10.8182C5.77094 11.1532 6.22097 11.3668 6.70598 11.4235V12.2939H7.99531V11.3827C8.35554 11.3128 8.68699 11.1452 8.94985 10.8999C9.11206 10.7454 9.23896 10.5605 9.3223 10.3569C9.40573 10.1531 9.4438 9.93514 9.43426 9.71656C9.442 9.46203 9.39088 9.20895 9.28468 8.97537C9.18298 8.77162 9.04015 8.58905 8.86437 8.43814Z" fill="#1673FF"/>
<path d="M7.18997 14.2452C10.6639 14.2452 13.48 11.5568 13.48 8.2405C13.48 4.92422 10.6639 2.23584 7.18997 2.23584C3.71613 2.23584 0.900024 4.92422 0.900024 8.2405C0.900024 11.5568 3.71613 14.2452 7.18997 14.2452Z" stroke="#040F1F" stroke-width="2"/>
<path d="M12.1334 0.90332H23.2173L20.8311 17.7829L24.3001 17.8713L13.8857 26.1936L6.32068 17.4156L9.78977 17.5041" stroke="#040F1F" stroke-width="2"/>
</g>
<defs>
<clipPath id="clip0">
<rect width="27" height="28" fill="white"/>
</clipPath>
</defs>
</svg>
