<svg width="28" height="28" viewBox="0 0 28 28" fill="none" xmlns="http://www.w3.org/2000/svg">
<path fill-rule="evenodd" clip-rule="evenodd" d="M6.44349 6.44361C1.87571 11.0114 1.34905 17.2979 4.57756 20.5265C7.80609 23.755 14.0926 23.2283 18.6604 18.6605C23.2282 14.0928 23.7549 7.80621 20.5264 4.57769C17.2978 1.34917 11.0113 1.87583 6.44349 6.44361ZM3.21212 21.8919C-1.06068 17.6191 0.0834661 10.0727 5.07805 5.07817C10.0726 0.0835882 17.619 -1.06056 21.8918 3.21224C26.1646 7.48504 25.0205 15.0313 20.0258 20.026C15.0312 25.0206 7.48492 26.1647 3.21212 21.8919Z" fill="#040F1F"/>
<path fill-rule="evenodd" clip-rule="evenodd" d="M21.869 3.1875L24.9577 6.2762C24.9577 6.27624 24.9576 6.27616 24.9577 6.2762C29.2356 10.5461 28.0888 18.0921 23.0918 23.0891C19.1567 27.0243 13.7229 28.5747 9.46277 26.9791L10.1401 25.1708C13.5175 26.4357 18.1814 25.2686 21.7264 21.7236C26.2978 17.1522 26.8243 10.8676 23.5935 7.64295L20.5036 4.55294L21.869 3.1875Z" fill="#040F1F"/>
<path d="M9.05578 5.67871C8.39006 6.12465 7.76969 6.63483 7.2036 7.20193C3.35621 11.0494 2.68399 16.613 5.70183 19.6237L12.9246 12.4009L9.05578 5.67871Z" fill="#1673FF"/>
<path fill-rule="evenodd" clip-rule="evenodd" d="M17.922 7.41991C16.6848 5.79633 14.4573 5.27002 12.0721 6.13241L11.4155 4.31642C14.3819 3.24391 17.5851 3.79111 19.4584 6.25024L19.4595 6.25153C20.7745 7.9839 21.0898 10.2456 20.6443 12.4364C20.1979 14.6319 18.9783 16.8302 17.1066 18.5394L17.1057 18.5401C14.1571 21.2265 10.2481 22.0709 7.35913 20.4616L8.29888 18.7747C10.2462 19.8594 13.2637 19.4276 15.8044 17.1135L17.922 7.41991ZM17.922 7.41991C18.8228 8.60717 19.1154 10.2651 18.752 12.0517C18.3897 13.8339 17.3837 15.6713 15.8045 17.1134" fill="#040F1F"/>
<path fill-rule="evenodd" clip-rule="evenodd" d="M25.5409 16.6326L22.7396 13.8313L24.1051 12.4658L26.9063 15.2671L25.5409 16.6326Z" fill="#040F1F"/>
<path fill-rule="evenodd" clip-rule="evenodd" d="M18.2224 22.4736L19.9601 24.2114L18.936 25.2355L17.1982 23.4977L18.2224 22.4736Z" fill="#040F1F"/>
</svg>
