<svg width="75" height="75" viewBox="0 0 75 75" fill="none" xmlns="http://www.w3.org/2000/svg">
<path d="M72.0873 65.7919L66.7292 62.5772L64.888 45.085C64.7347 43.6192 64.1242 42.2387 63.143 41.139C62.1618 40.0392 60.8595 39.276 59.4206 38.9573L43.3594 35.3881V30.9541L44.117 30.1967C45.1326 29.181 45.7031 27.8035 45.7031 26.3672C45.7031 24.9309 45.1326 23.5534 44.117 22.5377L41.283 19.7037C41.9335 19.1548 42.4564 18.4704 42.815 17.6985C43.1736 16.9265 43.3594 16.0856 43.3594 15.2344V10.5469C43.3601 9.32794 42.9804 8.13915 42.2733 7.14628C41.5662 6.15342 40.5668 5.40596 39.4146 5.00815C38.2624 4.61033 37.0148 4.58197 35.8457 4.92704C34.6767 5.27211 33.6444 5.9734 32.8929 6.93312L31.5933 6.28324C30.981 5.97715 30.3006 5.83264 29.6167 5.86344C28.9329 5.89425 28.2683 6.09933 27.686 6.45923C27.1037 6.81912 26.623 7.32189 26.2896 7.91978C25.9563 8.51767 25.7813 9.19085 25.7812 9.87539V12.6062C25.7852 14.0292 25.5068 15.4388 24.9622 16.7534C24.4177 18.0681 23.6178 19.2616 22.6088 20.2651C22.4449 20.429 22.3334 20.6378 22.2882 20.8651C22.243 21.0924 22.2662 21.328 22.3549 21.5422C22.4436 21.7563 22.5938 21.9393 22.7865 22.0681C22.9792 22.1969 23.2057 22.2656 23.4375 22.2656H26.9531C28.1549 22.265 29.3365 21.9563 30.385 21.3692C31.4336 20.7821 32.3143 19.9361 32.943 18.9118C33.2473 19.2887 33.5969 19.6266 33.9838 19.9182C33.5478 20.2445 33.1603 20.6311 32.833 21.0664L28.9453 26.25C27.6521 27.9742 26.9531 30.0713 26.9531 32.2266C26.9531 34.3818 27.6521 36.4789 28.9453 38.2031L29.2969 38.6719V43.169L24.9367 56.25H3.51562C3.20483 56.25 2.90677 56.3735 2.687 56.5933C2.46724 56.813 2.34377 57.1111 2.34375 57.4219V69.1406C2.34377 69.4514 2.46724 69.7495 2.687 69.9692C2.90677 70.189 3.20483 70.3125 3.51562 70.3125H5.85938C6.06174 70.3125 6.26066 70.2601 6.43677 70.1604C6.61287 70.0607 6.76017 69.9171 6.86431 69.7436L9.99541 64.5249L27.7146 66.39C29.0719 66.5328 30.4415 66.2775 31.6562 65.6553C32.8709 65.0331 33.8784 64.0708 34.5556 62.8859L41.6957 50.3906H55.2893L58.5938 66.9129V69.1406C58.5938 69.4514 58.7172 69.7495 58.937 69.9692C59.1568 70.189 59.4548 70.3125 59.7656 70.3125H71.4844C71.7952 70.3125 72.0932 70.189 72.313 69.9692C72.5328 69.7495 72.6562 69.4514 72.6562 69.1406V66.7969C72.6562 66.5945 72.6038 66.3956 72.5041 66.2195C72.4044 66.0434 72.2608 65.8961 72.0873 65.7919ZM43.3594 26.3672C43.3605 26.7708 43.2815 27.1705 43.1271 27.5434C42.9726 27.9162 42.7457 28.2547 42.4596 28.5393L41.3588 29.6401C41.1391 29.8599 41.0156 30.1579 41.0156 30.4688V35.1563H37.6384L36.52 32.9195L41.308 26.2163V26.2161C41.7956 25.5351 42.0919 24.736 42.1662 23.9017L42.4596 24.1951C42.7457 24.4797 42.9726 24.8182 43.1271 25.191C43.2815 25.5639 43.3605 25.9636 43.3594 26.3672ZM37.5 7.03125C38.2267 7.03218 38.9354 7.25794 39.5287 7.67756C40.122 8.09719 40.571 8.69011 40.814 9.375H37.5C37.1892 9.37501 36.8911 9.49845 36.6713 9.71818L34.6709 11.7188H33.9844V10.5469C33.9854 9.6148 34.3562 8.72121 35.0153 8.06213C35.6743 7.40306 36.5679 7.03232 37.5 7.03125ZM26.9531 19.9219H25.9121C27.3615 17.7579 28.132 15.2107 28.125 12.6062V9.87539C28.125 9.59034 28.1979 9.31003 28.3367 9.06106C28.4755 8.8121 28.6756 8.60275 28.9181 8.45289C29.1606 8.30303 29.4374 8.21763 29.7221 8.20482C30.0069 8.192 30.2902 8.25218 30.5451 8.37965L31.8415 9.02781C31.7082 9.52316 31.6406 10.0339 31.6406 10.5469V15.2344C31.6392 16.4771 31.1449 17.6686 30.2661 18.5474C29.3874 19.4261 28.1959 19.9205 26.9531 19.9219ZM33.9844 14.0625H35.1562C35.4671 14.0625 35.7651 13.9391 35.9849 13.7193L37.9854 11.7188H41.0156V15.2344C41.0156 16.1668 40.6452 17.061 39.9859 17.7203C39.3266 18.3796 38.4324 18.75 37.5 18.75C36.5676 18.75 35.6734 18.3796 35.0141 17.7203C34.3548 17.061 33.9844 16.1668 33.9844 15.2344V14.0625ZM30.8204 27.6562L34.7081 22.4726C35.03 22.0454 35.4466 21.6986 35.925 21.4594C36.4035 21.2201 36.9309 21.095 37.4658 21.0938C37.9027 21.0938 38.3312 21.2141 38.7042 21.4417C39.0772 21.6692 39.3803 21.9951 39.5802 22.3836C39.7801 22.7721 39.8691 23.2081 39.8375 23.6439C39.8059 24.0797 39.6548 24.4983 39.4009 24.8539L34.2027 32.1313C34.0789 32.3046 34.0046 32.5085 33.988 32.7208C33.9713 32.9332 34.0129 33.1461 34.1081 33.3366L37.6237 40.3679C37.7627 40.6459 38.0064 40.8572 38.3012 40.9555L41.5545 42.0399L41.9334 42.419L41.4632 43.3594H35.7422L30.8204 36.7969C29.8315 35.4784 29.2969 33.8747 29.2969 32.2266C29.2969 30.5784 29.8315 28.9747 30.8204 27.6562ZM34.2187 45.2343C34.3279 45.3799 34.4694 45.498 34.6321 45.5794C34.7949 45.6608 34.9743 45.7031 35.1562 45.7031H42.1875C42.4051 45.7031 42.6184 45.6425 42.8036 45.5281C42.9887 45.4137 43.1383 45.25 43.2356 45.0554L44.4075 42.7116C44.5175 42.4916 44.5555 42.2426 44.5161 41.9998C44.4767 41.757 44.362 41.5328 44.1881 41.3588L43.0162 40.1869C42.8875 40.0584 42.7307 39.9615 42.5581 39.9038L39.503 38.8855L38.8103 37.5H42.0588L50.3906 39.3515V48.0469H36.3281C35.0854 48.0455 33.8939 47.5511 33.0151 46.6724C32.1364 45.7936 31.642 44.6021 31.6406 43.3594V41.7969L34.2187 45.2343ZM5.1959 67.9688H4.6875V58.5938H7.24239L8.137 63.0667L5.1959 67.9688ZM32.5205 61.7231C32.0689 62.5129 31.3973 63.1543 30.5876 63.5691C29.7778 63.9839 28.8649 64.1542 27.9601 64.0592L10.3551 62.206L9.6326 58.5938H25.7812C26.0272 58.5938 26.2669 58.5164 26.4665 58.3726C26.666 58.2288 26.8152 58.0258 26.893 57.7925L27.9725 54.5543L34.696 57.916L32.5205 61.7231ZM35.8606 55.8779L28.7212 52.3082L30.4304 47.1804C31.0677 48.165 31.9411 48.9745 32.9712 49.5352C34.0013 50.0959 35.1553 50.39 36.3281 50.3906H38.9962L35.8606 55.8779ZM57.3991 48.9889C57.346 48.7232 57.2025 48.4842 56.993 48.3125C56.7834 48.1407 56.5209 48.0469 56.25 48.0469H52.7344V39.8724L58.9122 41.2452C59.8715 41.4577 60.7397 41.9665 61.3938 42.6997C62.048 43.4329 62.455 44.3532 62.5571 45.3305L64.3813 62.6607L60.5886 64.9364L57.3991 48.9889ZM70.3125 67.9688H60.9375V67.4604L65.625 64.648L70.3125 67.4603V67.9688Z" fill="#661B36"/>
</svg>
