<svg width="74" height="74" viewBox="0 0 74 74" fill="none" xmlns="http://www.w3.org/2000/svg">
<g clip-path="url(#clip0)">
<path d="M12.2956 65.7518C12.0269 65.4829 11.654 65.3284 11.2739 65.3284C10.8938 65.3284 10.5209 65.4829 10.2521 65.7518C9.98326 66.0208 9.82861 66.3936 9.82861 66.7737C9.82861 67.1538 9.98312 67.5267 10.2521 67.7954C10.5209 68.0642 10.8938 68.219 11.2739 68.219C11.654 68.219 12.0269 68.0643 12.2956 67.7954C12.5644 67.5267 12.7192 67.1538 12.7192 66.7737C12.7192 66.3936 12.5646 66.0207 12.2956 65.7518Z" fill="#661B36"/>
<path d="M67.8607 26.4401C67.5919 26.1711 67.2204 26.0166 66.8389 26.0166C66.4588 26.0166 66.0859 26.1711 65.817 26.4401C65.5483 26.7089 65.3936 27.0818 65.3936 27.4619C65.3936 27.842 65.5482 28.2149 65.817 28.4836C66.0859 28.7524 66.4588 28.9072 66.8389 28.9072C67.2204 28.9072 67.5919 28.7526 67.8607 28.4836C68.1308 28.2149 68.2855 27.842 68.2855 27.4619C68.2855 27.0818 68.1308 26.7089 67.8607 26.4401Z" fill="#661B36"/>
<path d="M73.5763 0.423332C73.3051 0.152336 72.9374 0 72.554 0L37.0002 0.00187891C36.2021 0.00187891 35.555 0.64909 35.555 1.44719V5.58035L21.855 9.2513C21.084 9.45798 20.6264 10.2504 20.833 11.0214L27.9334 37.52L21.791 43.6625C21.0092 42.5209 19.6966 41.7703 18.2118 41.7703H4.33726C1.94642 41.7703 0.00146484 43.7154 0.00146484 46.106V69.6641C0.00146484 72.0549 1.94642 74 4.33726 74H18.212C20.2431 74 21.9517 72.5957 22.42 70.7076L24.1385 72.2062C25.4651 73.3631 27.1648 74.0001 28.9251 74.0001H72.5543C73.3524 74.0001 73.9996 73.3529 73.9996 72.5548V1.44531C73.9993 1.06202 73.8473 0.694328 73.5763 0.423332ZM19.657 69.6642C19.657 70.461 19.0086 71.1095 18.2117 71.1095H4.33711C3.54017 71.1095 2.8918 70.4612 2.8918 69.6642V46.1062C2.8918 45.3092 3.54017 44.6609 4.33711 44.6609H9.82915V61.3102C9.82915 62.1083 10.4764 62.7555 11.2745 62.7555C12.0726 62.7555 12.7198 62.1083 12.7198 61.3102V44.6609H18.2118C19.0088 44.6609 19.6571 45.3092 19.6571 46.1062V69.6642H19.657ZM23.9991 11.6693L35.555 8.57287V13.9285L34.5863 14.1881C34.2159 14.2873 33.9004 14.5294 33.7088 14.8614C33.5171 15.1934 33.4651 15.5878 33.5644 15.9581C34.1198 18.0309 32.8854 20.1689 30.8126 20.7243C30.4419 20.8238 30.1258 21.0663 29.9343 21.399C29.7428 21.7316 29.6912 22.1267 29.7914 22.4973L35.4251 43.3587H32.5243L31.0294 37.5103C30.9819 37.3242 30.8986 37.1526 30.7872 37.0035L23.9991 11.6693ZM35.555 20.5565V32.7522L32.9189 22.9913C34.0201 22.4227 34.9212 21.572 35.555 20.5565ZM56.3189 71.1094H28.9248C27.8632 71.1094 26.838 70.7252 26.0379 70.0276L22.5476 66.9836V46.9939L28.8576 40.684L30.002 45.1615C30.1656 45.8014 30.7418 46.2488 31.4022 46.2488L59.8176 46.2506C60.9334 46.2506 61.841 47.1582 61.841 48.274C61.841 49.3898 60.9334 50.2975 59.8176 50.2975H45.2575C44.4594 50.2975 43.8122 50.9447 43.8122 51.7428C43.8122 52.5409 44.4594 53.1881 45.2575 53.1881H64.3414C65.4572 53.1881 66.3649 54.0957 66.3649 55.2115C66.3649 56.3273 65.4572 57.235 64.3414 57.235H45.2575C44.4594 57.235 43.8122 57.8822 43.8122 58.6803C43.8122 59.4784 44.4594 60.1256 45.2575 60.1256H61.2489C62.3647 60.1256 63.2723 61.0332 63.2723 62.149C63.2723 63.2648 62.3647 64.1725 61.2489 64.1725H45.2575C44.4594 64.1725 43.8122 64.8197 43.8122 65.6178C43.8122 66.4159 44.4594 67.0631 45.2575 67.0631H56.3189C57.4347 67.0631 58.3424 67.9707 58.3424 69.0865C58.3422 70.2017 57.4346 71.1094 56.3189 71.1094ZM71.109 71.1094H71.1088H60.7952C61.0755 70.4918 61.2329 69.8072 61.2329 69.0859C61.2329 68.3647 61.0755 67.6801 60.7952 67.0625H61.2489C63.9584 67.0625 66.1628 64.8581 66.1628 62.1486C66.1628 61.3583 65.9742 60.6115 65.6412 59.9492C67.7219 59.3778 69.2552 57.4707 69.2552 55.2112C69.2552 54.1151 68.8942 53.1018 68.2853 52.2837V33.9659C68.2853 33.1678 67.638 32.5205 66.8399 32.5205C66.0418 32.5205 65.3946 33.1678 65.3946 33.9659V50.4124C65.055 50.3379 64.7028 50.2975 64.3411 50.2975H64.2937C64.574 49.6799 64.7314 48.9952 64.7314 48.274C64.7314 45.5643 62.527 43.3601 59.8175 43.3601H57.4941C59.9611 42.3021 61.6938 39.85 61.6938 37C61.6938 33.186 58.591 30.083 54.7769 30.083C50.963 30.083 47.8601 33.186 47.8601 37C47.8601 39.85 49.5929 42.3021 52.0597 43.3601H44.1592V15.8786C46.7411 15.316 48.7785 13.2788 49.341 10.6968H60.2128C60.7753 13.2788 62.8126 15.316 65.3945 15.8786V20.3721C65.3945 21.1702 66.0417 21.8174 66.8398 21.8174C67.6379 21.8174 68.2851 21.1702 68.2851 20.3721V14.5883C68.2851 13.7902 67.6379 13.1429 66.8398 13.1429C64.6939 13.1429 62.9484 11.3972 62.9484 9.25145C62.9484 8.45334 62.3012 7.80613 61.5031 7.80613H48.0507C47.2526 7.80613 46.6054 8.45334 46.6054 9.25145C46.6054 11.3973 44.8598 13.1429 42.7141 13.1429C41.916 13.1429 41.2688 13.7902 41.2688 14.5883V43.36H38.4458V2.89221L71.109 2.89062V71.1094ZM54.7772 41.0264C52.5571 41.0264 50.751 39.2201 50.751 37.0001C50.751 34.7801 52.5572 32.9738 54.7772 32.9738C56.9972 32.9738 58.8034 34.78 58.8034 37C58.8034 39.22 56.9974 41.0264 54.7772 41.0264Z" fill="#661B36"/>
</g>
<defs>
<clipPath id="clip0">
<rect width="74" height="74" fill="white"/>
</clipPath>
</defs>
</svg>
