<svg width="199" height="201" viewBox="0 0 199 201" fill="none" xmlns="http://www.w3.org/2000/svg">
<path d="M169.341 29.4246C130.697 -9.81715 68.0525 -9.80772 29.4205 29.4462C-9.2115 68.7 -9.20222 132.333 29.4418 171.575C68.0857 210.816 130.73 210.807 169.362 171.553C187.915 152.701 198.336 127.135 198.33 100.478C198.324 73.8259 187.897 48.2675 169.341 29.4246ZM150.292 139.995C150.287 139.999 150.283 140.004 150.278 140.008V139.975L145.265 145.033C138.782 151.702 129.34 154.446 120.366 152.269C111.324 149.811 102.729 145.898 94.9058 140.678C87.6377 135.96 80.9021 130.444 74.8213 124.23C69.2262 118.588 64.1997 112.393 59.8155 105.738C55.0201 98.5764 51.2244 90.7751 48.5365 82.5557C45.4551 72.8998 48.0086 62.3046 55.1325 55.1863L61.0027 49.2235C62.6348 47.5581 65.2868 47.5522 66.9259 49.2101C66.9302 49.2144 66.9348 49.2187 66.939 49.2235L85.4734 68.0503C87.1128 69.7082 87.1186 72.4021 85.4865 74.067C85.4823 74.0713 85.478 74.0756 85.4734 74.0803L74.5902 85.1353C71.4674 88.2728 71.0748 93.2586 73.6669 96.8605C77.6031 102.348 81.9591 107.511 86.6939 112.304C91.9728 117.689 97.7116 122.588 103.843 126.944C107.386 129.454 112.189 129.031 115.254 125.939L125.774 115.085C127.406 113.419 130.058 113.414 131.697 115.071C131.702 115.076 131.706 115.08 131.711 115.085L150.278 133.979C151.918 135.636 151.924 138.33 150.292 139.995Z" fill="white"/>
</svg>
