<svg width="94" height="60" viewBox="0 0 94 60" fill="none" xmlns="http://www.w3.org/2000/svg">
<path d="M87.4196 25.4768L84.9854 15.7399C85.6509 15.5985 86.1503 15.0081 86.1503 14.3007V12.7308C86.1503 9.32218 83.3771 6.54917 79.9687 6.54917H68.8811V3.31095C68.8811 1.63363 67.5166 0.269165 65.8393 0.269165H9.32142C7.64411 0.269165 6.27964 1.63363 6.27964 3.31095V30C6.27964 30.8127 6.93856 31.4718 7.75151 31.4718C8.56428 31.4718 9.22338 30.8129 9.22338 30V3.31095C9.22338 3.25679 9.26726 3.21291 9.32142 3.21291H65.8391C65.8933 3.21291 65.9371 3.25679 65.9371 3.31095V30.0003C65.9371 30.8131 66.5961 31.4722 67.409 31.4722C68.2218 31.4722 68.8809 30.8133 68.8809 30.0003V28.3318H86.2432C86.2446 28.3318 86.2457 28.3322 86.247 28.3322C86.2485 28.3322 86.2498 28.332 86.2511 28.332C88.3875 28.3335 90.2016 29.7358 90.8247 31.6681H86.2481C85.4354 31.6681 84.7763 32.327 84.7763 33.14V36.2798C84.7763 38.8228 86.845 40.8915 89.3879 40.8915H91.0561V47.3674H87.2076C85.9434 43.717 82.4733 41.0876 78.3984 41.0876C74.3235 41.0876 70.8532 43.717 69.5892 47.3674H68.8805V36.2796C68.8805 35.4668 68.2216 34.8077 67.4086 34.8077C66.5959 34.8077 65.9368 35.4667 65.9368 36.2796V47.367H35.4C34.1358 43.7166 30.6657 41.0872 26.5908 41.0872C22.5159 41.0872 19.0456 43.7166 17.7816 47.367H9.32142C9.26726 47.367 9.22338 47.3231 9.22338 47.269V44.0309H15.6012C16.414 44.0309 17.0731 43.372 17.0731 42.5591C17.0731 41.7461 16.4142 41.0872 15.6012 41.0872H1.47187C0.659102 41.0872 0 41.7461 0 42.5591C0 43.372 0.658918 44.0309 1.47187 44.0309H6.27982V47.269C6.27982 48.9463 7.64429 50.3108 9.32161 50.3108H17.2719C17.2716 50.3434 17.2694 50.3759 17.2694 50.4088C17.2694 55.5487 21.4511 59.7302 26.5908 59.7302C31.7305 59.7302 35.9122 55.5487 35.9122 50.4088C35.9122 50.3758 35.91 50.3434 35.9097 50.3108H69.0795C69.0792 50.3434 69.077 50.3759 69.077 50.4088C69.077 55.5487 73.2587 59.7302 78.3984 59.7302C83.5381 59.7302 87.7198 55.5487 87.7198 50.4088C87.7198 50.3758 87.7176 50.3434 87.7172 50.3108H92.5279C93.3407 50.3108 93.9998 49.6518 93.9998 48.8389V33.1396C94 29.2636 91.1402 26.0432 87.4196 25.4768ZM68.8811 9.49273H79.9687C81.7541 9.49273 83.2067 10.9453 83.2067 12.7308V12.8288H68.8811V9.49273ZM68.8811 25.3883V15.7724H81.9594L84.3633 25.3883H68.8811ZM26.5908 56.787C23.0741 56.787 20.2129 53.9261 20.2129 50.4092C20.2129 46.8923 23.0741 44.0313 26.5908 44.0313C30.1075 44.0313 32.9687 46.8923 32.9687 50.4092C32.9687 53.9261 30.1075 56.787 26.5908 56.787ZM78.3988 56.787C74.882 56.787 72.0209 53.9261 72.0209 50.4092C72.0209 46.8923 74.882 44.0313 78.3988 44.0313C81.9155 44.0313 84.7766 46.8923 84.7766 50.4092C84.7766 53.9261 81.9155 56.787 78.3988 56.787ZM91.0564 37.9478H89.3883C88.4685 37.9478 87.7202 37.1994 87.7202 36.2796V34.6115H91.0563V37.9478H91.0564Z" fill="#923053"/>
<path d="M26.5906 47.3674C24.9133 47.3674 23.5488 48.7319 23.5488 50.4092C23.5488 52.0865 24.9133 53.451 26.5906 53.451C28.2679 53.451 29.6324 52.0865 29.6324 50.4092C29.6324 48.7319 28.2679 47.3674 26.5906 47.3674Z" fill="#923053"/>
<path d="M78.3987 47.3674C76.7214 47.3674 75.3569 48.7319 75.3569 50.4092C75.3569 52.0865 76.7214 53.451 78.3987 53.451C80.076 53.451 81.4405 52.0865 81.4405 50.4092C81.4405 48.7319 80.076 47.3674 78.3987 47.3674Z" fill="#923053"/>
<path d="M61.1292 41.0877H39.1501C38.3373 41.0877 37.6782 41.7466 37.6782 42.5596C37.6782 43.3725 38.3371 44.0314 39.1501 44.0314H61.1292C61.942 44.0314 62.6011 43.3725 62.6011 42.5596C62.6011 41.7466 61.9421 41.0877 61.1292 41.0877Z" fill="#923053"/>
<path d="M23.4508 34.808H4.61152C3.79875 34.808 3.13965 35.4669 3.13965 36.2799C3.13965 37.0928 3.79857 37.7517 4.61152 37.7517H23.4508C24.2636 37.7517 24.9227 37.0928 24.9227 36.2799C24.9227 35.4669 24.2636 34.808 23.4508 34.808Z" fill="#923053"/>
<path d="M51.1806 14.8297C50.606 14.2551 49.6739 14.2551 49.0992 14.8299L36.0104 27.9185L29.2015 21.1095C28.6267 20.5347 27.6947 20.5347 27.1201 21.1095C26.5453 21.6844 26.5453 22.6161 27.1201 23.1909L34.9698 31.0407C35.2572 31.3282 35.6339 31.4717 36.0104 31.4717C36.387 31.4717 36.7639 31.3282 37.051 31.0407L51.1804 16.9113C51.7553 16.3363 51.7553 15.4045 51.1806 14.8297Z" fill="#923053"/>
</svg>
