<svg width="81" height="83" viewBox="0 0 81 83" fill="none" xmlns="http://www.w3.org/2000/svg">
<path d="M25.6209 20.361C25.3267 20.0594 24.9185 19.886 24.5024 19.886C24.0864 19.886 23.6782 20.0594 23.3839 20.361C23.0898 20.6625 22.9204 21.0807 22.9204 21.5071C22.9204 21.9334 23.0897 22.3517 23.3839 22.6532C23.6782 22.9549 24.0864 23.1282 24.5024 23.1282C24.9185 23.1282 25.3267 22.9547 25.6209 22.6532C25.915 22.3517 26.0845 21.9334 26.0845 21.5071C26.0845 21.0807 25.9152 20.6625 25.6209 20.361Z" fill="#923053"/>
<path d="M80.5373 6.78516L78.5811 4.7784L80.5366 2.77457C81.1544 2.14153 81.1544 1.11506 80.5366 0.481858C79.9187 -0.151179 78.9173 -0.151179 78.2992 0.481858L76.3447 2.4844L74.4173 0.506985C74.1207 0.202868 73.7185 0.0316802 73.299 0.0315181L46.5225 0.0162798C46.5209 0.0162798 46.5195 0.0162798 46.518 0.0162798C44.4037 0.0162798 42.4158 0.859897 40.9207 2.39199L27.5588 16.0837C26.941 16.7168 26.941 17.7433 27.5588 18.3765C28.1768 19.0095 29.1782 19.0095 29.7963 18.3765L43.1581 4.68471C44.0558 3.7649 45.2488 3.25863 46.518 3.25863C46.519 3.25863 46.5199 3.25863 46.5207 3.25863L72.6418 3.27354L74.1077 4.77727L68.2378 10.7922C65.7486 9.26446 62.467 9.59759 60.3243 11.7929C59.1003 13.0473 58.4262 14.7149 58.4262 16.4887C58.4262 18.2625 59.1003 19.9301 60.3243 21.1845C61.5877 22.4791 63.2474 23.1264 64.9071 23.1264C66.5667 23.1264 68.2262 22.4791 69.4898 21.1845C71.629 18.9923 71.9563 15.6363 70.4732 13.087L76.3439 7.07128L77.8358 8.60175L77.8212 35.3315C77.8204 36.631 77.3262 37.8528 76.4294 38.7718L37.8242 78.3299C36.9267 79.2495 35.7333 79.7559 34.4642 79.7559C33.1951 79.7559 32.0018 79.2495 31.1043 78.3299L4.55593 51.1258C3.65829 50.2062 3.16406 48.9834 3.16406 47.6829C3.16406 46.3825 3.65829 45.1597 4.55593 44.24L21.6093 26.7656C22.2271 26.1326 22.2271 25.1061 21.6093 24.4729C20.9913 23.8399 19.9899 23.8399 19.3718 24.4729L2.31847 41.9473C0.823447 43.4793 0 45.5163 0 47.6829C0 49.8495 0.823447 51.8866 2.31847 53.4185L28.8668 80.6226C30.4101 82.2038 32.437 82.9946 34.4642 82.9946C36.4915 82.9946 38.5183 82.2038 40.0616 80.6226L78.6667 41.0642C80.1606 39.5334 80.9839 37.4979 80.9851 35.3329L81 7.93159C81.0003 7.50168 80.8337 7.08927 80.5373 6.78516ZM67.2523 18.8916C66.6258 19.5336 65.7929 19.8872 64.9071 19.8872C64.021 19.8872 63.1882 19.5336 62.5617 18.8916C61.2684 17.5666 61.2684 15.4103 62.5617 14.0853C63.2085 13.4226 64.0576 13.0914 64.9071 13.0914C65.227 13.0914 65.5467 13.1385 65.8558 13.2326L64.0299 15.1036C63.4121 15.7367 63.4121 16.7631 64.0299 17.3963C64.3388 17.7129 64.7437 17.8712 65.1485 17.8712C65.5534 17.8712 65.9582 17.7129 66.2672 17.3963L68.0881 15.5305C68.417 16.6845 68.1387 17.9833 67.2523 18.8916Z" fill="#923053"/>
<path d="M67.5777 32.6428L49.1409 13.7506C46.6985 11.2479 42.7243 11.2483 40.2823 13.7506L11.1063 43.6471C9.92312 44.8594 9.27148 46.4712 9.27148 48.1857C9.27148 49.9002 9.92297 51.5122 11.1062 52.7244L29.5432 71.6163C30.7264 72.8288 32.2992 73.4965 33.9724 73.4965C35.6455 73.4965 37.2187 72.8289 38.4016 71.6165L67.5777 41.72C68.7609 40.5075 69.4124 38.8959 69.4124 37.1814C69.4124 35.4669 68.7609 33.8551 67.5777 32.6428ZM65.3403 39.4272L36.1643 69.3241C35.5789 69.9239 34.8004 70.2543 33.9725 70.2543C33.1447 70.2543 32.3661 69.9239 31.7808 69.3239L13.3436 50.4319C12.7581 49.8319 12.4357 49.0343 12.4357 48.1859C12.4355 47.3374 12.7581 46.5396 13.3436 45.9398L42.5198 16.0433C43.1241 15.424 43.9178 15.1144 44.7117 15.1144C45.5054 15.1144 46.2992 15.4242 46.9034 16.0433L65.3403 34.9354C65.9258 35.5353 66.2482 36.3329 66.2482 37.1814C66.2482 38.0297 65.9258 38.8274 65.3403 39.4272Z" fill="#923053"/>
<path d="M51.5865 32.4352C52.2042 31.8021 52.2042 30.7756 51.5865 30.1424C50.9685 29.5094 49.9671 29.5094 49.349 30.1424L48.4381 31.0759C46.0057 29.5363 42.8847 29.743 40.9117 31.7643C39.7614 32.943 39.1729 34.5437 39.2545 36.2713C39.3335 37.9397 40.0346 39.5325 41.2286 40.7559C41.2287 40.7561 41.2289 40.7561 41.2289 40.7562C42.5013 42.0607 42.6434 44.0372 41.5455 45.1622C40.4471 46.2874 38.5179 46.1417 37.245 44.8377C35.9721 43.5332 35.8301 41.5564 36.9281 40.431C37.5459 39.798 37.5459 38.7715 36.9281 38.1383C36.3102 37.5053 35.3088 37.5053 34.6907 38.1383C32.7179 40.1598 32.5163 43.3579 34.0188 45.8505L32.9379 46.9579C32.3202 47.5909 32.3202 48.6174 32.9379 49.2506C33.2477 49.5675 33.6525 49.7257 34.0574 49.7257C34.4624 49.7257 34.8671 49.5674 35.176 49.2509L36.2575 48.1427C37.3203 48.8153 38.5141 49.1561 39.6867 49.1561C41.1974 49.1559 42.6723 48.5929 43.7831 47.4549C46.1144 45.0659 45.9726 41.0334 43.4675 38.4648C43.467 38.4643 43.4667 38.4638 43.4662 38.4634C42.8293 37.8107 42.4559 36.9766 42.4151 36.1144C42.3773 35.3116 42.6379 34.581 43.1493 34.0571C44.2473 32.9319 46.1761 33.0774 47.4491 34.3813C47.4493 34.3814 47.4493 34.3816 47.4494 34.3818C47.4496 34.3819 47.4498 34.3819 47.4498 34.3819C48.7223 35.6864 48.8643 37.6629 47.7662 38.7881C47.1484 39.4211 47.1484 40.4476 47.7662 41.0808C48.0751 41.3974 48.48 41.5556 48.8848 41.5556C49.2897 41.5556 49.6945 41.3974 50.0035 41.0808C51.9763 39.0591 52.178 35.861 50.6755 33.3686L51.5865 32.4352Z" fill="#923053"/>
<path d="M35.5748 59.3104L27.4493 50.9842C26.8316 50.3516 25.8301 50.3513 25.2119 50.9842C24.5941 51.6172 24.5941 52.6437 25.2119 53.2769L33.3375 61.6032C33.6465 61.9196 34.0513 62.078 34.4562 62.078C34.861 62.078 35.2658 61.9196 35.5748 61.6032C36.1926 60.9701 36.1926 59.9436 35.5748 59.3104Z" fill="#923053"/>
<path d="M23.1149 46.5433C22.8208 46.2419 22.4141 46.0683 21.9966 46.0683C21.5805 46.0683 21.1739 46.2418 20.8781 46.5433C20.5838 46.8448 20.4146 47.263 20.4146 47.691C20.4146 48.1174 20.5837 48.5356 20.8781 48.8371C21.1723 49.1387 21.5805 49.3121 21.9966 49.3121C22.4142 49.3121 22.8208 49.1387 23.1149 48.8371C23.4108 48.534 23.58 48.1174 23.58 47.691C23.58 47.263 23.4108 46.8464 23.1149 46.5433Z" fill="#923053"/>
</svg>
