<svg width="107" height="106" fill="none" xmlns="http://www.w3.org/2000/svg"><path d="M105.606 53c0 28.713-23.411 52-52.303 52C24.412 105 1 81.713 1 53S24.412 1 53.303 1c28.892 0 52.303 23.287 52.303 52z" stroke="url(#paint0_linear_2_126)" stroke-width="2"/><path d="M48.437 34.654h-5.324m14.613 0h4.727m-30.206 0H26v5.466h3.042m3.206-5.466V30h10.865v4.654m-10.865 0h10.865m19.34 0V30h10.865v4.654m-10.865 0h10.865m0 0H80v5.466h-3.585m0 0v29.44m0-29.44H29.042m47.373 29.44H29.042m47.373 0H80V76H26v-6.44h3.042m0 0V40.12m5.759 15.045h6.084m27.163-2.923v5.953m-3.314-3.03h6.574m-20.481-20.51h2.825m0 10.39l-6.845 11.58h5.215v8.768l7.117-11.527h-5.487v-8.821z" stroke="#F96F0D" stroke-width="2"/><defs><linearGradient id="paint0_linear_2_126" x1="15.589" y1="-25" x2="102.802" y2="143.407" gradientUnits="userSpaceOnUse"><stop stop-opacity=".43"/><stop offset=".493" stop-opacity=".625"/><stop offset="1" stop-opacity=".81"/></linearGradient></defs></svg>