<svg width="107" height="106" fill="none" xmlns="http://www.w3.org/2000/svg"><path d="M105.606 53c0 28.713-23.411 52-52.303 52C24.412 105 1 81.713 1 53S24.412 1 53.303 1c28.892 0 52.303 23.287 52.303 52z" stroke="url(#paint0_linear_103_4)" stroke-width="2"/><path fill-rule="evenodd" clip-rule="evenodd" d="M50.809 27.146c-10.272 1.258-18.984 8.373-22.35 18.254-1.996 5.857-1.941 12.555.15 18.305 1.226 3.374 3.804 7.493 6.093 9.739.495.485.98.646 1.528.509.192-.048 1.105-.889 2.596-2.39 2.486-2.504 2.646-2.736 2.402-3.484-.222-.68-.81-1.008-1.557-.866-.323.061-.69.374-2.112 1.795-1.038 1.04-1.758 1.682-1.814 1.62-.822-.89-2.172-2.802-2.937-4.16-1.664-2.954-2.819-6.676-3.047-9.82l-.075-1.027h2.417c2.211 0 2.446-.018 2.755-.209.372-.23.665-.712.665-1.096 0-.399-.358-.96-.746-1.17-.317-.173-.636-.196-2.724-.196h-2.365l.075-.988c.349-4.63 2.412-9.641 5.534-13.438.266-.323.499-.61.517-.636.018-.026.78.702 1.693 1.618.913.917 1.763 1.72 1.89 1.785.127.065.422.119.656.119.52 0 1.112-.471 1.21-.961.142-.726.007-.937-1.786-2.78l-1.716-1.763.83-.675c2.465-2.01 4.933-3.378 7.843-4.347 1.51-.502 3.516-.95 4.77-1.064a22.68 22.68 0 001.082-.12l.343-.055v2.236c0 1.23.031 2.391.069 2.582.038.19.23.509.426.708.31.313.427.361.878.361s.57-.048.879-.361c.196-.2.388-.518.425-.708.038-.19.069-1.352.069-2.582v-2.236l.343.054c.189.03.676.084 1.082.121 1.254.114 3.26.562 4.77 1.064 2.91.97 5.378 2.337 7.844 4.346l.83.676-1.716 1.764c-1.793 1.842-1.929 2.053-1.786 2.779.097.49.69.96 1.21.96.234 0 .529-.053.656-.118.126-.065.977-.868 1.89-1.785.912-.916 1.674-1.644 1.692-1.618.019.027.252.313.517.636 3.122 3.797 5.186 8.807 5.535 13.438l.074.988h-2.365c-2.656 0-2.907.058-3.277.755-.247.467-.243.816.014 1.243.38.632.579.673 3.234.673h2.396l-.075 1.028c-.228 3.143-1.383 6.865-3.047 9.819-.765 1.358-2.115 3.27-2.937 4.16-.056.062-.775-.58-1.814-1.62-1.817-1.818-2.046-1.965-2.8-1.797-.6.133-1.028.858-.908 1.54.057.325.43.757 2.299 2.667 1.227 1.253 2.36 2.347 2.516 2.43.365.195.86.195 1.233 0 .638-.335 2.675-2.784 3.915-4.709.877-1.362 2.144-3.917 2.696-5.434 2.359-6.487 2.102-14.206-.68-20.455-3.973-8.925-12.108-14.98-21.639-16.109-1.607-.19-4.696-.188-6.268.005zm8.502 11.667c-.636.124-.84.527-2.828 5.588l-1.91 4.862-.84.068c-2.456.197-4.258 1.893-4.608 4.336-.102.706-.092.957.062 1.656.23 1.04.717 2.035 1.27 2.592 1.154 1.158 3.364 1.653 5.043 1.129 2.356-.737 3.864-3.341 3.327-5.747-.228-1.023-.715-1.997-1.3-2.6l-.474-.49 1.965-4.98c1.882-4.77 1.96-4.997 1.855-5.394-.06-.228-.218-.516-.35-.64-.227-.217-.751-.471-.905-.44l-.307.06zm-4.103 13.492c.654.32 1.01 1.014 1.01 1.974.004 1.8-1.673 2.831-3.333 2.05-.722-.34-1.008-.83-1.075-1.84-.059-.876.09-1.3.652-1.85.7-.686 1.763-.816 2.746-.334z" fill="#F96F0D"/><defs><linearGradient id="paint0_linear_103_4" x1="15.589" y1="-25" x2="102.802" y2="143.407" gradientUnits="userSpaceOnUse"><stop stop-opacity=".43"/><stop offset=".493" stop-opacity=".625"/><stop offset="1" stop-opacity=".81"/></linearGradient></defs></svg>