<svg width="107" height="106" fill="none" xmlns="http://www.w3.org/2000/svg"><path d="M105.606 53c0 28.713-23.411 52-52.303 52C24.412 105 1 81.713 1 53S24.412 1 53.303 1c28.892 0 52.303 23.287 52.303 52z" stroke="url(#paint0_linear_2_139)" stroke-width="2"/><path fill-rule="evenodd" clip-rule="evenodd" d="M51.05 26.115c-1.451.136-2.415.303-4.086.709-8.596 2.09-15.751 8.355-19.073 16.703-1.503 3.776-2.158 8.276-1.792 12.312.152 1.675.287 2.471.717 4.247 1.211 4.993 3.95 9.715 7.713 13.294 2.149 2.044 4.393 3.607 7.004 4.879a27.915 27.915 0 008.28 2.543c1.945.284 5.743.258 7.744-.052 2.937-.456 5.365-1.222 8.069-2.547 4.568-2.237 8.523-5.815 11.293-10.214.795-1.263 1.965-3.673 2.505-5.161.536-1.475 1.134-3.898 1.38-5.592.261-1.786.261-5.632 0-7.419a27.738 27.738 0 00-2.603-8.398c-4.991-10.186-15.926-16.35-27.15-15.304zm6.023 3.381c2.555.39 4.72 1.066 7.045 2.198 4.902 2.387 8.837 6.302 11.19 11.134 1.181 2.427 1.86 4.595 2.27 7.258.264 1.707.264 5.174 0 6.882-1.252 8.11-6.201 14.87-13.46 18.388-3.549 1.72-6.588 2.411-10.594 2.411-4.21 0-7.656-.84-11.292-2.757A24.18 24.18 0 0131.69 64.118c-1.72-3.545-2.412-6.585-2.412-10.591 0-4.005.69-7.037 2.413-10.597 3.193-6.598 9.113-11.328 16.352-13.065.735-.176 2.501-.457 3.598-.572.882-.093 4.341.037 5.431.203zm-4.345 9.77c-.822.498-.808.397-.813 5.636-.004 4.458.005 4.673.212 5.08.244.476.863.857 1.397.857s1.153-.38 1.397-.858c.207-.406.216-.626.216-5.064 0-4.608-.001-4.643-.24-5.07-.45-.797-1.393-1.05-2.17-.58zm-6.786 5.101c-.177.114-.665.564-1.083 1-3.048 3.182-4.05 7.845-2.594 12.085 1.173 3.418 4.112 6.298 7.549 7.398 1.422.456 2.073.552 3.71.552 1.577 0 2.275-.097 3.55-.493 3.57-1.11 6.482-3.944 7.719-7.511.494-1.427.616-2.245.603-4.032-.01-1.357-.056-1.777-.285-2.643-.593-2.243-1.518-3.902-3.03-5.435-.837-.85-1.038-1-1.425-1.061-.975-.154-1.86.577-1.862 1.538 0 .6.097.77 1.012 1.758 2.294 2.478 2.986 5.618 1.94 8.804-1.188 3.621-4.892 6.122-8.7 5.875-1.292-.084-2.17-.317-3.34-.888a8.656 8.656 0 01-4.084-11.408c.458-1.003.858-1.574 1.827-2.61.919-.982 1.048-1.342.756-2.105-.236-.62-.685-.938-1.393-.99-.407-.03-.63.012-.87.166z" fill="#F96F0D"/><defs><linearGradient id="paint0_linear_2_139" x1="15.589" y1="-25" x2="102.802" y2="143.407" gradientUnits="userSpaceOnUse"><stop stop-opacity=".43"/><stop offset=".493" stop-opacity=".625"/><stop offset="1" stop-opacity=".81"/></linearGradient></defs></svg>