<svg width="107" height="106" fill="none" xmlns="http://www.w3.org/2000/svg"><path d="M105.606 53c0 28.713-23.411 52-52.303 52C24.412 105 1 81.713 1 53S24.412 1 53.303 1c28.892 0 52.303 23.287 52.303 52z" stroke="url(#paint0_linear_2_131)" stroke-width="2"/><path d="M28.263 72.915c-3.661 1.482-4.299 2.956-4.262 6.085 1.746-2.907 3.524-3.771 8.07-4 .78-9.575 2.553-14.184 10.739-19.55 8.185-5.364 29.15-8.675 29.15-8.675C41.3 58.502 34.654 63.602 34.74 75.9c4.305-4.128 6.838-6.395 14.547-9.183l-8.58-1.52c4.632-2.68 8.58-2.835 16.365-2.367 6.869-1.843 10.383-4.214 16.422-9.352-2.155-1.205-3.456-1.706-6.08-2.028 2.897-.99 4.603-1.05 7.841 0 5.94-6.836 8.454-11.252 5.512-24.451-8.349 5.132-10.609 7.982-9.774 13.014-1.566-1.478-1.847-2.556-1.08-5.014-8.229 3.403-11.391 4.412-12.841 11.775-1.904-3.527-1.924-3.623-.796-6.76-17.112 4.294-22.335 8.39-21.535 19.605-1.604-2.632-1.983-4.458-1.989-8.17-4.004 5.996-4.981 10.06-3.182 19.268-1.661-1.306-3.012-1.169-5.569-.62 1.833.79 2.834 1.28 4.262 2.817z" stroke="#F96F0D" stroke-width="2"/><defs><linearGradient id="paint0_linear_2_131" x1="15.589" y1="-25" x2="102.802" y2="143.407" gradientUnits="userSpaceOnUse"><stop stop-opacity=".43"/><stop offset=".493" stop-opacity=".625"/><stop offset="1" stop-opacity=".81"/></linearGradient></defs></svg>