<svg width="107" height="106" fill="none" xmlns="http://www.w3.org/2000/svg"><path d="M105.606 53c0 28.713-23.411 52-52.303 52C24.412 105 1 81.713 1 53S24.412 1 53.303 1c28.892 0 52.303 23.287 52.303 52z" stroke="url(#paint0_linear_2_135)" stroke-width="2"/><path fill-rule="evenodd" clip-rule="evenodd" d="M59.223 29.108a3.363 3.363 0 00-1.396 1.084c-.62.833-.655 1.012-1.339 6.738a654.17 654.17 0 01-.676 5.547l-.047.28h-1.173c-1.454 0-1.733.092-2.28.756-.783.952-.837 2.213-.137 3.206l.29.413-.866 1.056-.866 1.056h-1.326c-1.622 0-1.876.08-2.434.757-.784.952-.838 2.213-.138 3.206l.29.413-.865 1.057-.867 1.056h-1.326c-1.622 0-1.876.079-2.434.757-.784.951-.838 2.213-.138 3.206l.29.413-.865 1.056-.867 1.056h-1.326c-1.622 0-1.876.08-2.434.757-.782.95-.838 2.213-.142 3.2l.286.407-.358 1.062c-.281.831-.395 1.062-.52 1.062-.414 0-.869.272-1.269.757-.745.906-.834 2.085-.23 3.072.24.392.268.249-.488 2.448-.315.916-.572 1.773-.572 1.906 0 .309.352.739.605.739.107 0 2.006-.913 4.22-2.028l4.025-2.027h1.385c1.685 0 1.93-.075 2.492-.757.783-.952.838-2.213.138-3.207l-.29-.413.865-1.056.866-1.056h1.327c1.622 0 1.876-.079 2.434-.757.783-.951.838-2.213.138-3.206l-.29-.413.865-1.056.866-1.056h1.327c1.622 0 1.876-.08 2.434-.757.783-.952.838-2.213.138-3.206l-.291-.413.866-1.056.866-1.056h1.327c1.622 0 1.876-.08 2.434-.757.744-.904.834-2.085.233-3.068l-.2-.327.19-.051c.106-.028 2.144-.395 4.53-.815 3.971-.698 4.382-.789 4.85-1.066.61-.363 1.132-1.018 1.436-1.806.21-.543.221-.656.212-1.995a17.14 17.14 0 00-2.311-8.436c-.662-1.142-2.312-3.146-3.251-3.95-1.453-1.244-3.164-2.141-4.9-2.57-1.118-.276-2.82-.36-3.313-.162zm3.027 1.738c2.209.548 4.086 1.763 5.775 3.74 2.263 2.649 3.488 5.774 3.66 9.34.047.991.034 1.17-.115 1.571-.22.59-.462.888-.929 1.139-.334.179-.49.196-1.272.142-2.072-.144-4.073-.978-5.822-2.426-.915-.757-2.62-2.862-3.244-4.003-1.172-2.145-1.804-4.452-1.91-6.964-.045-1.094-.04-1.136.195-1.676.197-.451.326-.608.697-.847.445-.286.48-.292 1.38-.237a11.01 11.01 0 011.585.221zm-1.678 2.427c-.367.446-.3.642 1.093 3.18l1.298 2.365-.297 1.082c-.351 1.283-.36 1.469-.091 1.796.269.328.422.316 1.478-.112l.89-.36L66.89 42.8c2.089 1.693 2.25 1.775 2.617 1.328.368-.446.3-.642-1.093-3.18l-1.298-2.365.297-1.082c.352-1.283.361-1.47.092-1.796-.27-.328-.422-.316-1.478.111l-.891.361L63.19 34.6c-2.09-1.694-2.25-1.775-2.618-1.328zm3.84 4.279c.468.38.62.404 1.13.185.197-.085.371-.137.388-.118.016.02-.027.232-.097.47-.18.622-.16.806.153 1.373.153.279.35.643.438.81l.16.304-.251-.194a46.722 46.722 0 01-.666-.532c-.467-.38-.619-.404-1.13-.185-.197.084-.371.137-.387.117-.017-.02.027-.231.096-.47.18-.621.16-.805-.152-1.373-.153-.278-.35-.642-.438-.81l-.16-.304.25.194c.138.107.438.347.667.533zm-6.034 1.963c.262.642.713 1.577 1.003 2.077.677 1.167 2.32 3.162 3.28 3.984.713.611 2.442 1.737 2.876 1.873.112.035.188.084.167.11-.021.024-1.146.24-2.5.48l-2.461.434-.294.386-.294.385H52.57l.663-.81.664-.812h5.393l.205-.249a.902.902 0 00.205-.575c0-.287-.161-.525-1.294-1.91-.71-.87-1.294-1.649-1.295-1.73-.002-.082.138-1.334.31-2.784.263-2.204.328-2.586.397-2.332.046.167.298.83.56 1.473zm-1.64 5.674L57.4 46h-3.967l-.204-.249a.907.907 0 01-.205-.562c0-.197.075-.405.205-.562.2-.243.234-.249 1.524-.249h1.32l.664.811zm4.092 5.926a.879.879 0 010 1.125l-.205.248H48.094l-.204-.248a.907.907 0 01-.205-.563.91.91 0 01.205-.562l.204-.249h12.531l.205.25zm-5.344 3.807l-.663.81H47.23l.664-.81.663-.811h7.593l-.664.81zm.004 2.682a.879.879 0 010 1.124l-.205.249H42.754l-.204-.25a.907.907 0 01-.205-.561c0-.198.076-.405.205-.562l.205-.25h12.53l.205.25zm-5.344 3.806l-.663.811H41.89l.663-.811.664-.811h7.593l-.664.811zm.004 2.682a.879.879 0 010 1.124l-.205.25h-12.53l-.205-.25a.907.907 0 01-.205-.562.91.91 0 01.205-.562l.205-.249h12.53l.205.249zm-5.344 3.806l-.663.811h-3.486c-1.917 0-3.485-.017-3.485-.038 0-.02.097-.306.216-.633.378-1.045-.044-.95 4.28-.95h3.802l-.664.81zm.004 2.682a.879.879 0 010 1.125l-.205.249h-9.193l-.205-.25a.908.908 0 01-.205-.562.91.91 0 01.205-.562l.205-.249h9.193l.205.25zm-6.56 3.035c-.027.03-1.717.896-3.23 1.654-.102.052-.027-.234.35-1.334l.125-.36h1.395c.767 0 1.379.018 1.36.04z" fill="#F96F0D"/><defs><linearGradient id="paint0_linear_2_135" x1="15.589" y1="-25" x2="102.802" y2="143.407" gradientUnits="userSpaceOnUse"><stop stop-opacity=".43"/><stop offset=".493" stop-opacity=".625"/><stop offset="1" stop-opacity=".81"/></linearGradient></defs></svg>