<svg width="26" height="28" fill="none" xmlns="http://www.w3.org/2000/svg"><g clip-path="url(#clip0)"><path d="M20.558 3.889c.426 3.362.638 6.75.634 10.14a81.52 81.52 0 01-1.055 13.038h2.736C23.471 9.212 25.43 6.953 26 3.889h-5.442z" fill="#1673FF"/><path d="M1.857.933h18.159a81.474 81.474 0 011.061 13.074 81.58 81.58 0 01-1.061 13.038H1.857a72.25 72.25 0 001.19-13.762 70.68 70.68 0 00-.542-8.12" stroke="#040F1F" stroke-width="2"/><path d="M6.21 9.067l1.553 1.586 2.95-2.998m2.457 1.499h4.737M6.21 17.288l1.553 1.58 2.95-3m2.457 1.5h4.737" stroke="#040F1F" stroke-width="2"/></g><defs><clipPath id="clip0"><path fill="#fff" d="M0 0h26v28H0z"/></clipPath></defs></svg>