<svg width="27" height="28" fill="none" xmlns="http://www.w3.org/2000/svg"><g clip-path="url(#clip0)"><path d="M8.864 8.438a3.004 3.004 0 00-.634-.408 13.435 13.435 0 00-.783-.353 1.87 1.87 0 01-.606-.354.675.675 0 01-.185-.497.66.66 0 01.164-.49.58.58 0 01.456-.177.586.586 0 01.286.055.556.556 0 01.22.184c.132.203.194.441.178.68h1.51a1.914 1.914 0 00-.463-1.36 1.916 1.916 0 00-1.012-.564V4.18H6.706v.973a2.18 2.18 0 00-1.054.496 1.577 1.577 0 00-.384.54 1.515 1.515 0 00-.122.643c-.006.252.042.502.142.735.095.204.236.385.414.53.19.164.403.301.634.408.251.118.522.234.812.347.229.076.438.2.612.36.122.152.183.34.171.53a.66.66 0 01-.17.477.645.645 0 01-.478.17.823.823 0 01-.641-.252 1.047 1.047 0 01-.228-.741H4.91c-.027.52.16 1.03.52 1.421.34.335.79.549 1.275.606v.87h1.29v-.911c.36-.07.691-.238.954-.483.162-.155.289-.34.372-.543.084-.204.122-.422.112-.64a1.667 1.667 0 00-.15-.742 1.723 1.723 0 00-.42-.537z" fill="#1673FF"/><path d="M7.19 14.245c3.474 0 6.29-2.688 6.29-6.004 0-3.317-2.816-6.005-6.29-6.005S.9 4.924.9 8.24c0 3.316 2.816 6.004 6.29 6.004z" stroke="#040F1F" stroke-width="2"/><path d="M12.133.903h11.084l-2.386 16.88 3.47.088-10.415 8.323-7.565-8.778 3.469.088" stroke="#040F1F" stroke-width="2"/></g><defs><clipPath id="clip0"><path fill="#fff" d="M0 0h27v28H0z"/></clipPath></defs></svg>