<svg xmlns="http://www.w3.org/2000/svg" width="40" height="40" fill="none"><g clip-path="url(#clip0)"><path d="M24.002 17.69l3.17-11.832a2.449 2.449 0 00-1.732-3l-1.578-.423a2.449 2.449 0 00-3 1.732L17.692 16 5.858 12.828a2.449 2.449 0 00-3 1.732l-.424 1.578a2.45 2.45 0 001.732 3l11.835 3.172-3.17 11.832a2.449 2.449 0 001.732 3l1.577.423a2.449 2.449 0 003-1.732l3.17-11.832 11.833 3.17a2.45 2.45 0 003-1.732l.423-1.578a2.45 2.45 0 00-1.732-3l-11.833-3.17z" fill="#47B749"/></g><defs><clipPath id="clip0"><path fill="#fff" transform="rotate(-30 28.196 5.804)" d="M0 0h28v28H0z"/></clipPath></defs></svg>