<svg xmlns="http://www.w3.org/2000/svg" width="34" height="34" fill="none"><g clip-path="url(#clip0)" fill="#FF5F5F"><path d="M3.094 26.687c.435.618.911 1.207 1.425 1.761l1.558-1.442c-.45-.485-.866-.999-1.246-1.54l-1.737 1.221zm-.969-9.771a14.89 14.89 0 0112.884-14.73L14.73.08C5.429 1.33-1.097 9.885.154 19.186a16.994 16.994 0 001.764 5.573l1.883-.98a14.703 14.703 0 01-1.676-6.863zm4.035 13.09c.582.482 1.195.924 1.835 1.326l1.127-1.806a14.912 14.912 0 01-1.607-1.162L6.16 30.006zM24.014 1.443A16.992 16.992 0 0019.257.08l-.278 2.106c8.135 1.12 13.822 8.623 12.701 16.759a14.87 14.87 0 01-14.686 12.84 14.727 14.727 0 01-6.126-1.318l-.877 1.935c8.549 3.873 18.618.082 22.49-8.468 3.873-8.549.082-18.618-8.467-22.49z"/></g><defs><clipPath id="clip0"><path fill="#fff" d="M0 0h34v34H0z"/></clipPath></defs></svg>