<svg xmlns="http://www.w3.org/2000/svg" width="39" height="39" fill="none"><g clip-path="url(#clip0)"><path d="M23.126 16.815l3.17-11.833a2.449 2.449 0 00-1.732-3l-1.577-.422a2.449 2.449 0 00-3 1.732l-3.171 11.832-11.834-3.172a2.449 2.449 0 00-3 1.732l-.424 1.579a2.45 2.45 0 001.732 3l11.835 3.171-3.17 11.833a2.449 2.449 0 001.732 3l1.577.423a2.449 2.449 0 003-1.732l3.171-11.833 11.833 3.17a2.45 2.45 0 003-1.732l.423-1.577a2.45 2.45 0 00-1.733-3l-11.832-3.17z" fill="#47B749"/></g><defs><clipPath id="clip0"><path fill="#fff" transform="rotate(-30 26.124 7)" d="M0 0h28v28H0z"/></clipPath></defs></svg>