<svg xmlns="http://www.w3.org/2000/svg" width="90" height="59" fill="none"><g clip-path="url(#clip0)"><path d="M24.002 36.69l3.17-11.832a2.449 2.449 0 00-1.732-3l-1.578-.423a2.449 2.449 0 00-3 1.733L17.692 35 5.858 31.828a2.449 2.449 0 00-3 1.732l-.424 1.578a2.45 2.45 0 001.732 3l11.835 3.172-3.17 11.832a2.449 2.449 0 001.732 3l1.577.423a2.449 2.449 0 003-1.732l3.17-11.832 11.833 3.17a2.45 2.45 0 003-1.732l.423-1.578a2.45 2.45 0 00-1.732-3l-11.833-3.17z" fill="#FFBB3C"/></g><g clip-path="url(#clip1)"><path d="M62.25 17.505l1.942-7.246a1.5 1.5 0 00-1.06-1.837l-.966-.26a1.5 1.5 0 00-1.838 1.062l-1.941 7.245-7.247-1.942a1.5 1.5 0 00-1.837 1.06l-.26.967a1.5 1.5 0 001.061 1.838l7.247 1.942-1.941 7.246a1.5 1.5 0 001.06 1.837l.967.259a1.5 1.5 0 001.837-1.06l1.942-7.247 7.245 1.942A1.5 1.5 0 0070.3 22.25l.259-.966a1.5 1.5 0 00-1.061-1.838l-7.246-1.941z" fill="#FFBB3C"/></g><g clip-path="url(#clip2)"><path d="M84.503 5.563l.987-3.684a.763.763 0 00-.539-.935L84.46.813a.763.763 0 00-.934.54l-.987 3.683-3.685-.987a.763.763 0 00-.934.54l-.132.49a.763.763 0 00.539.935L82.012 7l-.987 3.684a.763.763 0 00.54.935l.49.131a.762.762 0 00.934-.539l.988-3.684 3.684.987a.763.763 0 00.934-.54l.132-.49a.763.763 0 00-.54-.935l-3.684-.987z" fill="#47B749"/></g><defs><clipPath id="clip0"><path fill="#fff" transform="rotate(-30 63.65 15.304)" d="M0 0h28v28H0z"/></clipPath><clipPath id="clip1"><path fill="#fff" transform="rotate(-30 53.492 -81.845)" d="M0 0h17.147v17.147H0z"/></clipPath><clipPath id="clip2"><path fill="#fff" transform="rotate(-30 47.396 -141.905)" d="M0 0h8.718v8.718H0z"/></clipPath></defs></svg>