<svg xmlns="http://www.w3.org/2000/svg" width="200" height="157"><g fill="none" fill-rule="evenodd"><g transform="translate(6 22)" fill-rule="nonzero"><path d="M126.075 2.843H17.85a3.008 3.008 0 00-3.007 3.008v63.184h9.019a6.015 6.015 0 016.012 6.017 6.015 6.015 0 01-6.012 6.017h-9.019v9.027a3.008 3.008 0 003.007 3.008h111.23V5.851a3.008 3.008 0 00-3.006-3.008z" fill="#ED1C24"/><path d="M165.157 50.983H129.08v42.122h48.1V63.017c0-6.646-5.383-12.034-12.024-12.034z" fill="#ED1C24"/><path d="M129.081 60.009h32.568a6.015 6.015 0 016.013 6.017v27.079h-38.58V60.009zm24.05-45.131h-24.05v12.035h33.07v-3.009c0-4.985-4.039-9.026-9.02-9.026z" fill="#ED1C24"/><path fill="#B4E6FF" d="M165.157 50.983l-6.013-24.07H129.08v24.07z"/><path d="M165.157 63.017h12.025v12.035h-6.013a6.015 6.015 0 01-6.012-6.017v-6.018z" fill="#F1F4FB"/><path d="M150.125 72.044c-9.06 0-16.943 5.019-21.044 12.426v8.635h44.887c-1.483-11.87-11.58-21.061-23.843-21.061z" fill="#C4151B"/><path d="M167.662 79.663v13.442h6.306a24.02 24.02 0 00-6.306-13.442z" fill="#C4151B"/><ellipse fill="#885951" cx="150.125" cy="96.114" rx="15.031" ry="15.044"/><path d="M141.107 35.939h20.292l-2.255-9.026h-30.062v24.07h9.018V38.948a3.007 3.007 0 013.007-3.01z" fill="#9BD6FF"/><path d="M50.919 72.044c-7.592 0-14.35 3.528-18.758 9.026H14.843v9.026a3.008 3.008 0 003.007 3.009h111.23V81.069H69.676c-4.407-5.497-11.166-9.025-18.757-9.025z" fill="#C4151B"/><ellipse fill="#885951" cx="50.919" cy="96.114" rx="15.031" ry="15.044"/><path d="M167.4 48.331l-4.662-18.66a2.82 2.82 0 002.23-2.758v-3.009c0-6.532-5.31-11.847-11.837-11.847H131.9V5.851a5.834 5.834 0 00-5.825-5.83H17.85a5.834 5.834 0 00-5.825 5.83V57a2.82 2.82 0 105.637 0V5.851c0-.104.084-.188.188-.188h108.225c.104 0 .188.084.188.188v51.15a2.82 2.82 0 105.637 0v-3.198h33.262c4.09.003 7.565 2.69 8.758 6.394h-8.764a2.82 2.82 0 00-2.819 2.82v6.018c0 4.874 3.962 8.838 8.831 8.838h3.195v12.411h-7.37c-2.42-6.995-9.065-12.035-16.868-12.035-7.803 0-14.449 5.04-16.87 12.035H131.9V69.035a2.82 2.82 0 10-5.637 0v21.249H67.787c-2.42-6.996-9.066-12.035-16.868-12.035-7.803 0-14.449 5.039-16.87 12.035h-16.2a.188.188 0 01-.187-.188V83.89h12.213a2.82 2.82 0 002.818-2.82 2.82 2.82 0 00-2.818-2.821H2.818A2.82 2.82 0 000 81.069a2.82 2.82 0 002.818 2.821h9.207v6.206a5.834 5.834 0 005.825 5.83h15.224c0 .062-.005.124-.005.187 0 9.85 8.008 17.864 17.85 17.864 9.842 0 17.85-8.013 17.85-17.864 0-.063-.005-.125-.006-.188h63.517c0 .063-.005.125-.005.188 0 9.85 8.008 17.864 17.85 17.864 9.842 0 17.85-8.013 17.85-17.864 0-.063-.005-.125-.006-.188h9.212a2.82 2.82 0 002.819-2.82V63.017c0-7.428-5.476-13.6-12.6-14.686zm-35.5-18.598h25.043l4.604 18.429H131.9V29.733zm21.231-12.035c3.42 0 6.201 2.784 6.201 6.206v.188H131.9v-6.393h21.231zM50.92 108.337c-6.735 0-12.213-5.483-12.213-12.223 0-6.74 5.478-12.223 12.213-12.223 6.734 0 12.212 5.483 12.212 12.223 0 6.74-5.478 12.223-12.212 12.223zm99.206 0c-6.734 0-12.213-5.483-12.213-12.223 0-6.74 5.48-12.223 12.213-12.223 6.734 0 12.213 5.483 12.213 12.223 0 6.74-5.479 12.223-12.213 12.223zm21.044-36.105a3.2 3.2 0 01-3.194-3.197v-3.197h6.388v6.393h-3.194z" fill="#000"/><path d="M50.919 90.284a5.834 5.834 0 00-5.825 5.83 5.834 5.834 0 005.825 5.83 5.834 5.834 0 005.824-5.83 5.834 5.834 0 00-5.824-5.83zm99.206 0a5.834 5.834 0 00-5.824 5.83 5.834 5.834 0 005.824 5.83 5.834 5.834 0 005.825-5.83 5.834 5.834 0 00-5.825-5.83zM72.15 81.07a2.82 2.82 0 002.819 2.82h42.087a2.82 2.82 0 002.819-2.82 2.82 2.82 0 00-2.819-2.821H74.97a2.82 2.82 0 00-2.819 2.82zM8.83 71.856h36.076a2.82 2.82 0 002.819-2.821 2.82 2.82 0 00-2.819-2.821H8.831a2.82 2.82 0 00-2.819 2.82 2.82 2.82 0 002.819 2.822z" fill="#000"/></g><path d="M99.415 52.635c.172-.055.4.055.626.357l10.25 10.126c.598.605.598 1.52 0 1.969l-10.25 10.282c-.227.302-.454.376-.626.284-.172-.091-.281-.357-.281-.741V53.294c0-.375.109-.604.281-.66zM81.882 35.76h.725l.699.293 10.549 10.584c.453.605.3 1.063-.454 1.063H89.03a1.35 1.35 0 00-1.351 1.364v7.856c0 .76-.608 1.364-1.515 1.364H78.48c-.753 0-1.36-.604-1.36-1.364v-7.856c0-.76-.599-1.364-1.36-1.364h-4.672c-.753 0-.907-.458-.454-1.063l10.558-10.584.69-.293zM65.355 52.406c.19.091.309.357.309.741v22.067c0 .384-.118.613-.309.686-.181.074-.444 0-.753-.229L54.2 65.087c-.6-.449-.6-1.364 0-1.969L64.602 52.69c.309-.303.572-.376.753-.284zM78.48 69.775h7.683c.907 0 1.515.604 1.515 1.364v8.314c0 .906.598 1.51 1.351 1.51h4.073c.753 0 1.052.45.453.907L83.305 92.3c-.308.302-.68.458-1.06.458a1.49 1.49 0 01-1.053-.458l-10.25-10.43c-.607-.458-.308-.906.445-.906h4.372c.762 0 1.36-.605 1.36-1.511v-8.314c0-.76.608-1.364 1.361-1.364z" fill="#FFF"/></g></svg>