<svg width="133" height="133" viewBox="0 0 133 133" fill="none" xmlns="http://www.w3.org/2000/svg">
<path d="M132.5 66.5C132.5 75.4669 130.712 84.015 127.474 91.8081C117.545 115.701 93.984 132.5 66.5 132.5C30.0492 132.5 0.5 102.951 0.5 66.5C0.5 30.0492 30.0492 0.5 66.5 0.5C102.951 0.5 132.5 30.0492 132.5 66.5Z" stroke="black"/>
<path d="M32 74.3342V91.0336H45.8855V86.9272M32 69.8856V57.5664H45.8855V63.6575M45.8855 86.9272L59.2237 91.9918H64.4222M45.8855 86.9272V63.6575M68.3895 91.9918C68.3895 91.9918 89.2761 92.0103 91.9195 91.9918C94.5629 91.9732 96.4879 83.1463 91.9195 83.163M91.9195 83.163H81.9329M91.9195 83.163C91.9195 83.163 92.2615 83.163 95.8868 83.163C99.5121 83.163 99.3069 74.3342 95.5448 74.3342M95.5448 74.3342H81.9329M95.5448 74.3342C103.616 74.3342 101.975 65.3001 95.5448 65.3001M81.1121 65.3001H95.5448M95.5448 65.3001C101.906 65.3001 100.743 55.4447 95.8868 55.4447C91.0303 55.4447 79.6757 55.4447 79.6757 55.4447M76.0504 55.4447H70.6467C70.6467 55.4447 73.3144 40.3194 73.3144 35.5286C73.3144 30.7378 64.4222 29.3006 64.4222 33.407C64.4222 37.5134 55.9018 53.7925 45.8855 63.6575" stroke="black" stroke-width="3"/>
</svg>
