<svg width="103" height="94" fill="none" xmlns="http://www.w3.org/2000/svg"><path d="M29.568 39.368c10.258-10.081 30.245-11.143 43.245 0m-43.245 0s.113 16.843 1.793 22.06m-1.793-22.06c-1.028-.574-2.013-.57-2.918-.318m46.163.318l-1.945 21.358m1.945-21.358c1.193-.416 2.173-.59 3.007-.536M30.894 53.783s-2.291 1.103-5.394-1.769c-3.103-2.871-2.741-10.913-1.326-11.761.714-.429 1.553-.945 2.476-1.203m44.925 14.733s3.184 0 5.66-1.769c2.476-1.768 2.653-10.258 1.326-11.761-.76-.863-1.62-1.348-2.741-1.42M58.068 77.788c1.348.822-5.364 2.742-8.283 1.769-2.918-.973-4.084-2.265-6.248-4.334m27.33-14.498c3.048 2.963 1.135 14.937 1.78 14.94.646.005 5.915-6.951 7.34-2.918 1.436 4.062-9.354 12.517-9.12 13.188.235.671 0 7.064 0 7.064m0-32.274c-4.498-1.68-7.653 1.08-8.843 2.074-3.841 3.208-2.01 27.282-2.276 30.2M26.65 39.05a22.216 22.216 0 011.81-5.43m47.36 5.212c0-2.565-.763-4.905-2.034-6.98M32.22 19.115c-3.532 5.21-4.34 8.383-3.761 14.504m0 0c8.465-17.314 37.437-14.648 45.326-1.769M35.493 14.695a24.549 24.549 0 014.688-3.337m33.605 20.493c1.729-8.207-3.822-16.39-11.905-20.493m-21.7 0c7.243-3.942 15.272-3.262 21.7 0m-21.7 0c2.034-13.643 22.55-11.255 21.7 0m-29.925 80.58v-5.836c1.506-1.277-9.717-8.755-9.186-13.354.53-4.598 6.063 1.723 6.798 2.83 1.092-5.876-.133-14.863 3.582-15.741 4.085-.966 9.566 2.296 10.137 5.394.571 3.099 0 26.708 0 26.708M86.62 52.015s2.531-7.678 5.925-6.77c2.362.632 3.81 2.597 3.714 5.04-.15 3.822-9.639 1.73-9.639 1.73zM90.069 62.8s5.473-5.885 8.49-3.848c2.145 1.45 2.948 3.826 2.122 6.28C99.325 69.26 90.069 62.8 90.069 62.8zm-3.449 7.295s-.21 8.586 3.449 8.715c2.62.093 4.762-1.64 5.218-4.222.662-3.754-8.667-4.493-8.667-4.493zm-70.483-18.08s-2.232-7.121-5.66-6.77c-2.697.276-4.645 2.332-4.775 5.04-.199 4.127 10.435 1.73 10.435 1.73zM11.804 62.8s-4.735-5.619-7.517-3.848c-2.149 1.369-2.887 3.99-1.769 6.28 1.646 3.367 9.286-2.432 9.286-2.432zm4.333 7.295s-9.277.286-8.932 4.11c.214 2.368 1.669 4.051 3.98 4.605 3.807.913 4.952-8.715 4.952-8.715z" stroke="#022F38" stroke-width="3"/></svg>