<svg width="23" height="28" viewBox="0 0 23 28" fill="none" xmlns="http://www.w3.org/2000/svg">
<g clip-path="url(#clip0)">
<path d="M11.9962 6.47119L12.5995 8.11001C12.6466 8.23682 12.7381 8.34718 12.8607 8.42521C12.9834 8.50324 13.1311 8.54491 13.2823 8.54422H15.2274C15.3788 8.54369 15.5264 8.58557 15.6491 8.66382C15.7717 8.74207 15.863 8.85265 15.9098 8.97963C15.9566 9.1066 15.9565 9.24341 15.9095 9.37032C15.8625 9.49724 15.771 9.6077 15.6482 9.68579L14.0604 10.6943C13.9388 10.772 13.8481 10.8815 13.8011 11.0072C13.7541 11.1329 13.7531 11.2684 13.7984 11.3947L14.4017 13.0335C14.4478 13.1603 14.4472 13.2968 14.3999 13.4233C14.3527 13.5498 14.2612 13.6598 14.1386 13.7376C14.016 13.8154 13.8687 13.8569 13.7177 13.8562C13.5667 13.8556 13.4199 13.8127 13.2982 13.7338L11.7103 12.7253C11.5881 12.6468 11.4408 12.6044 11.2896 12.6044C11.1383 12.6044 10.991 12.6468 10.8688 12.7253L9.28093 13.7338C9.15926 13.8127 9.0124 13.8556 8.86141 13.8562C8.71042 13.8569 8.56307 13.8154 8.4405 13.7376C8.31793 13.6598 8.22645 13.5498 8.17918 13.4233C8.13191 13.2968 8.13127 13.1603 8.17737 13.0335L8.78076 11.3947C8.82598 11.2684 8.82502 11.1329 8.77799 11.0072C8.73096 10.8815 8.64027 10.772 8.51876 10.6943L6.93091 9.68579C6.80869 9.60805 6.71745 9.49822 6.67025 9.37199C6.62304 9.24575 6.62228 9.10959 6.66808 8.98295C6.71387 8.85632 6.80388 8.7457 6.92523 8.6669C7.04659 8.5881 7.19307 8.54516 7.34375 8.54422H9.29681C9.44806 8.54491 9.59567 8.50324 9.71837 8.42521C9.84106 8.34718 9.93252 8.23682 9.97958 8.11001L10.583 6.47119C10.6084 6.32193 10.6937 6.18568 10.8234 6.08721C10.953 5.98873 11.1185 5.93457 11.2896 5.93457C11.4607 5.93457 11.6261 5.98873 11.7557 6.08721C11.8854 6.18568 11.9707 6.32193 11.9962 6.47119Z" fill="#1673FF"/>
<path d="M6.94701 17.8936C6.94701 17.8936 5.89903 25.5275 2.62012 25.4644L8.51104 27.4744C8.51104 27.4744 11.2898 27.0682 12.1472 19.6165" stroke="#040F1F" stroke-width="2"/>
<path d="M15.3145 17.8936C15.3145 17.8936 16.3545 25.5275 19.6335 25.4644L13.7505 27.4744C13.251 27.2402 12.8295 26.895 12.5278 26.4729" stroke="#040F1F" stroke-width="2"/>
<path d="M20.4833 12.6061L21.7615 11.4716C21.965 11.2938 22.1266 11.0822 22.2369 10.849C22.3472 10.6158 22.404 10.3656 22.404 10.1129C22.404 9.86017 22.3472 9.61 22.2369 9.37679C22.1266 9.14358 21.965 8.93196 21.7615 8.75418L20.4833 7.65463C20.0782 7.29532 19.85 6.80967 19.8481 6.30295V4.69915C19.8419 4.19386 19.6099 3.71115 19.2026 3.3558C18.7953 3.00046 18.2456 2.80117 17.6728 2.8012H15.8785C15.583 2.80455 15.2897 2.75474 15.0167 2.6548C14.7437 2.55485 14.4967 2.40688 14.2907 2.21991L13.0363 1.08535C12.6271 0.726095 12.0733 0.524414 11.496 0.524414C10.9188 0.524414 10.365 0.726095 9.95583 1.08535L8.67761 2.21991C8.27419 2.58493 7.72318 2.79396 7.14534 2.8012H5.32725C4.75855 2.80667 4.21489 3.00838 3.81273 3.36314C3.41058 3.7179 3.18191 4.19748 3.17571 4.69915V6.30295C3.17591 6.8121 2.94755 7.3006 2.54058 7.66163L1.2306 8.78219C0.823355 9.14312 0.594727 9.63163 0.594727 10.1409C0.594727 10.6502 0.823355 11.1387 1.2306 11.4996L2.51676 12.6061C2.72871 12.7879 2.89645 13.0058 3.00975 13.2466C3.12304 13.4875 3.17951 13.7461 3.17571 14.0068V15.6107C3.18191 16.1123 3.41058 16.5919 3.81273 16.9467C4.21489 17.3014 4.75855 17.5031 5.32725 17.5086H7.14534C7.72251 17.5084 8.27628 17.7099 8.68555 18.0689L9.96377 19.1964C10.1653 19.376 10.4052 19.5186 10.6696 19.6158C10.9339 19.7131 11.2175 19.7632 11.504 19.7632C11.7904 19.7632 12.074 19.7131 12.3384 19.6158C12.6028 19.5186 12.8427 19.376 13.0442 19.1964L14.2907 18.0689C14.4987 17.8857 14.7466 17.7416 15.0196 17.6453C15.2925 17.549 15.5847 17.5025 15.8785 17.5086H17.6966C18.2694 17.5031 18.8166 17.2985 19.2194 16.9392C19.6223 16.5799 19.8482 16.095 19.8481 15.5896V14.0068C19.8412 13.7476 19.894 13.4899 20.0031 13.2491C20.1123 13.0084 20.2756 12.7897 20.4833 12.6061Z" stroke="#040F1F" stroke-width="2"/>
<path d="M17.6095 7.32517V6.15558C17.6095 5.78409 17.4422 5.42782 17.1444 5.16514C16.8467 4.90245 16.4428 4.75488 16.0217 4.75488H14.6958" stroke="#040F1F" stroke-width="1.5" stroke-linejoin="round"/>
<path d="M5.04128 8.31982L4.10445 9.14623C3.95562 9.27645 3.8375 9.43137 3.75688 9.60205C3.67627 9.77274 3.63477 9.95582 3.63477 10.1407C3.63477 10.3256 3.67627 10.5087 3.75688 10.6794C3.8375 10.8501 3.95562 11.005 4.10445 11.1352L5.04128 11.9686" stroke="#040F1F" stroke-width="1.5" stroke-linejoin="round"/>
</g>
<defs>
<clipPath id="clip0">
<rect width="23" height="28" fill="white"/>
</clipPath>
</defs>
</svg>
