<svg width="29" height="28" viewBox="0 0 29 28" fill="none" xmlns="http://www.w3.org/2000/svg">
<g clip-path="url(#clip0)">
<path d="M0.966675 27.9922V20.3116C0.974418 17.9863 1.89136 15.7587 3.51722 14.1152C5.14309 12.4717 7.34574 11.5459 9.64407 11.54C11.9424 11.5459 14.145 12.4717 15.7709 14.1152C17.3968 15.7587 18.3137 17.9863 18.3214 20.3116" stroke="#040F1F" stroke-width="2"/>
<path d="M9.6445 9.26191C11.9091 9.26191 13.7449 7.40466 13.7449 5.11362C13.7449 2.82258 11.9091 0.965332 9.6445 0.965332C7.37997 0.965332 5.54419 2.82258 5.54419 5.11362C5.54419 7.40466 7.37997 9.26191 9.6445 9.26191Z" stroke="#040F1F" stroke-width="2"/>
<path d="M19.6642 16.9651C20.5681 16.2732 21.6702 15.8981 22.8037 15.8965C24.1901 15.8985 25.5192 16.4566 26.4996 17.4485C27.48 18.4402 28.0316 19.7849 28.0335 21.1876V28" stroke="#040F1F" stroke-width="2"/>
<path d="M22.8036 13.8108C24.1688 13.8108 25.2754 12.6911 25.2754 11.31C25.2754 9.92879 24.1688 8.80908 22.8036 8.80908C21.4383 8.80908 20.3316 9.92879 20.3316 11.31C20.3316 12.6911 21.4383 13.8108 22.8036 13.8108Z" stroke="#040F1F" stroke-width="2"/>
<path d="M25.0843 24.5415L20.3386 21.0981V22.293H13.8397V26.79H20.3386V27.9922L25.0843 24.5415Z" fill="#1673FF"/>
</g>
<defs>
<clipPath id="clip0">
<rect width="29" height="28" fill="white"/>
</clipPath>
</defs>
</svg>
