<svg width="138" height="138" viewBox="0 0 138 138" fill="none" xmlns="http://www.w3.org/2000/svg">
<path d="M0 0H113C126.807 0 138 11.1929 138 25V138H25C11.1929 138 0 126.807 0 113V0Z" fill="url(#paint0_linear)"/>
<path d="M68.9999 107.216C67.7756 107.216 66.5952 106.772 65.6753 105.966C62.2011 102.928 58.8516 100.074 55.8964 97.5553L55.8813 97.5422C47.2172 90.1588 39.7354 83.7826 34.5296 77.5014C28.7105 70.4796 26 63.8218 26 56.5487C26 49.4822 28.4231 42.9629 32.8224 38.1909C37.2742 33.3624 43.3828 30.7031 50.0247 30.7031C54.989 30.7031 59.5353 32.2726 63.537 35.3675C65.5566 36.9298 67.3872 38.8417 68.9999 41.0719C70.6133 38.8417 72.4433 36.9298 74.4635 35.3675C78.4652 32.2726 83.0115 30.7031 87.9758 30.7031C94.6171 30.7031 100.726 33.3624 105.178 38.1909C109.577 42.9629 112 49.4822 112 56.5487C112 63.8218 109.29 70.4796 103.471 77.5008C98.2651 83.7826 90.784 90.1582 82.1211 97.5409C79.1607 100.063 75.8059 102.922 72.3239 105.968C71.4046 106.772 70.2236 107.216 68.9999 107.216ZM50.0247 35.7409C44.8066 35.7409 40.0129 37.8234 36.5256 41.6053C32.9864 45.4444 31.0371 50.7511 31.0371 56.5487C31.0371 62.6657 33.3106 68.1365 38.408 74.2871C43.3349 80.2323 50.6631 86.4773 59.1482 93.7085L59.1639 93.7216C62.1303 96.2496 65.4929 99.1156 68.9927 102.176C72.5135 99.1097 75.8814 96.2392 78.8536 93.7072C87.338 86.476 94.6656 80.2323 99.5925 74.2871C104.689 68.1365 106.963 62.6657 106.963 56.5487C106.963 50.7511 105.013 45.4444 101.474 41.6053C97.9876 37.8234 93.1933 35.7409 87.9758 35.7409C84.1532 35.7409 80.6435 36.956 77.5447 39.3522C74.783 41.4886 72.8593 44.1892 71.7314 46.0788C71.1514 47.0506 70.1304 47.6306 68.9999 47.6306C67.8694 47.6306 66.8485 47.0506 66.2685 46.0788C65.1412 44.1892 63.2175 41.4886 60.4552 39.3522C57.3563 36.956 53.8467 35.7409 50.0247 35.7409Z" fill="#533232"/>
<defs>
<linearGradient id="paint0_linear" x1="69" y1="0" x2="69" y2="138" gradientUnits="userSpaceOnUse">
<stop stop-color="#EFD9D1"/>
<stop offset="0.482292" stop-color="#FDF6F4"/>
<stop offset="1" stop-color="#EFD9D1"/>
</linearGradient>
</defs>
</svg>
