<svg width="138" height="138" viewBox="0 0 138 138" fill="none" xmlns="http://www.w3.org/2000/svg">
<path d="M0 0H113C126.807 0 138 11.1929 138 25V138H25C11.1929 138 0 126.807 0 113V0Z" fill="url(#paint0_linear)"/>
<path d="M59.1932 35.6204C50.8937 27.3252 34.6528 26.3633 23.1569 26.3633C21.9663 26.3633 21 27.3294 21 28.52C21 40.0159 21.9576 56.2568 30.2571 64.5565C33.7598 68.0592 39.1304 69.6251 44.4534 69.6251C50.238 69.6251 55.9709 67.7745 59.1932 64.5522C65.3747 58.3707 66.5093 42.932 59.1932 35.6204ZM56.1436 61.5066C51.5279 66.1179 38.712 66.9073 33.3114 61.5066C26.6122 54.8076 25.4517 41.1979 25.3265 30.6898C35.8347 30.815 49.4444 31.9752 56.1434 38.6744C61.5442 44.0751 60.7548 56.8954 56.1436 61.5066Z" fill="#533232"/>
<path d="M113.843 34.8958C102.347 34.8958 86.1064 35.8534 77.8068 44.1528C70.4909 51.4645 71.6252 66.9031 77.8068 73.0847C81.0291 76.3028 86.7577 78.1533 92.5424 78.1533C97.8654 78.1533 103.232 76.5917 106.743 73.0891C115.038 64.7897 116 48.5487 116 37.0527C116 35.8621 115.034 34.8958 113.843 34.8958ZM103.685 70.0349C98.2839 75.4355 85.4636 74.6461 80.8524 70.0349C76.2411 65.4236 75.4517 52.6033 80.8524 47.2027C87.5516 40.5035 101.161 39.3432 111.669 39.2181C111.544 49.7304 110.384 63.3401 103.685 70.0349Z" fill="#533232"/>
<path d="M98.2668 53.5653C97.7579 52.4825 96.2998 52.1116 95.2257 52.6119C78.6828 60.3894 70.5559 73.9516 66.8633 87.8933C62.2951 58.2497 49.0823 49.2126 43.4788 45.3778C42.78 44.899 42.2365 44.5496 41.9346 44.252C41.0934 43.4108 39.7259 43.4108 38.8848 44.252C38.0436 45.0931 38.0436 46.4606 38.8848 47.3018C39.3118 47.7246 40.0495 48.2552 41.0459 48.9366C47.3611 53.2547 64.1369 64.7334 64.1369 110.48C64.1369 111.67 65.1033 112.637 66.2938 112.637C67.4844 112.637 68.4508 111.67 68.4508 110.484C68.4508 92.0003 73.4159 67.6323 97.0633 56.5203C97.0633 56.516 97.4127 56.352 97.4127 56.352C98.4868 55.8429 98.7758 54.6436 98.2668 53.5653Z" fill="#533232"/>
<defs>
<linearGradient id="paint0_linear" x1="69" y1="0" x2="69" y2="138" gradientUnits="userSpaceOnUse">
<stop stop-color="#EFD9D1"/>
<stop offset="0.482292" stop-color="#FDF6F4"/>
<stop offset="1" stop-color="#EFD9D1"/>
</linearGradient>
</defs>
</svg>
