<svg width="65" height="65" viewBox="0 0 65 65" fill="none" xmlns="http://www.w3.org/2000/svg">
<path d="M42.6562 6.09375H44.6875V8.125H42.6562V6.09375Z" fill="#75FF37"/>
<path d="M32.1777 11.2765L33.614 9.84017L35.0504 11.2765L33.614 12.7128L32.1777 11.2765Z" fill="#75FF37"/>
<path d="M56.8242 39.0345L47.1951 44.5951C46.7081 44.1155 46.1063 43.7686 45.4472 43.5876L31.6123 39.8805C30.8873 39.687 30.1286 39.6558 29.3902 39.7891L20.3125 41.4375V39.6094C20.3125 39.34 20.2055 39.0817 20.015 38.8912C19.8246 38.7007 19.5662 38.5937 19.2969 38.5937H9.14062C8.87126 38.5937 8.61294 38.7007 8.42247 38.8912C8.232 39.0817 8.125 39.34 8.125 39.6094V40.625H3.04687C2.77751 40.625 2.51919 40.732 2.32872 40.9225C2.13825 41.1129 2.03125 41.3713 2.03125 41.6406V59.9219C2.03125 60.1912 2.13825 60.4496 2.32872 60.64C2.51919 60.8305 2.77751 60.9375 3.04687 60.9375H8.125V61.9531C8.125 62.2225 8.232 62.4808 8.42247 62.6713C8.61294 62.8617 8.87126 62.9687 9.14062 62.9687H19.2969C19.5662 62.9687 19.8246 62.8617 20.015 62.6713C20.2055 62.4808 20.3125 62.2225 20.3125 61.9531V59.0251L36.0283 60.7719C37.1906 60.8996 38.3615 60.6235 39.3443 59.9899L60.8867 46.0759C61.5072 45.7222 62.0224 45.2097 62.3794 44.5911C62.7364 43.9724 62.9223 43.2699 62.918 42.5557C62.9183 41.8424 62.7308 41.1416 62.3744 40.5238C62.018 39.9059 61.5052 39.3928 60.8875 39.036C60.2699 38.6792 59.5692 38.4914 58.8559 38.4913C58.1427 38.4912 57.4419 38.6789 56.8242 39.0355V39.0345ZM4.0625 58.9062V42.6562H8.125V58.9062H4.0625ZM18.2812 60.9375H10.1562V40.625H18.2812V60.9375ZM59.8274 44.3422L38.2413 58.2837C37.6513 58.6629 36.9491 58.8285 36.2517 58.7529L20.3125 56.9816V43.5043L29.7578 41.7879C30.2005 41.7066 30.6557 41.725 31.0903 41.8417L44.9252 45.5487C45.4456 45.6883 45.8892 46.0288 46.1585 46.4955C46.4279 46.9621 46.5008 47.5166 46.3612 48.037C46.2217 48.5574 45.8812 49.0011 45.4145 49.2704C44.9479 49.5397 44.3934 49.6126 43.873 49.4731L33.7787 46.7695C33.6486 46.7308 33.5121 46.7186 33.3773 46.7336C33.2424 46.7485 33.1119 46.7903 32.9935 46.8565C32.8751 46.9227 32.7711 47.012 32.6878 47.1191C32.6044 47.2261 32.5434 47.3488 32.5082 47.4799C32.473 47.6109 32.4645 47.7477 32.4831 47.8821C32.5017 48.0165 32.547 48.1458 32.6164 48.2624C32.6858 48.379 32.7778 48.4805 32.8871 48.5609C32.9963 48.6414 33.1206 48.6991 33.2526 48.7307L43.3438 51.4353C43.8592 51.5735 44.3969 51.6089 44.9259 51.5393C45.455 51.4697 45.9652 51.2965 46.4273 51.0297C46.8895 50.7629 47.2945 50.4076 47.6193 49.9842C47.9442 49.5608 48.1824 49.0776 48.3204 48.5621C48.5154 47.8254 48.4974 47.0485 48.2686 46.3216L57.8358 40.7966C58.0686 40.6658 58.3249 40.5821 58.59 40.5503C58.8552 40.5185 59.124 40.5393 59.3811 40.6114C59.6383 40.6835 59.8787 40.8055 60.0887 40.9705C60.2986 41.1355 60.474 41.3403 60.6049 41.5731C60.7357 41.8059 60.8194 42.0622 60.8512 42.3273C60.883 42.5925 60.8623 42.8613 60.7902 43.1184C60.7181 43.3756 60.596 43.616 60.431 43.826C60.266 44.0359 60.0612 44.2113 59.8284 44.3422H59.8274Z" fill="#75FF37"/>
<path d="M61.9531 16.25H56.9552C56.8638 16.0113 56.7653 15.7716 56.6566 15.5289L60.193 11.9915C60.3834 11.801 60.4904 11.5427 60.4904 11.2734C60.4904 11.0041 60.3834 10.7458 60.193 10.5554L54.4446 4.80695C54.2542 4.61655 53.9959 4.50959 53.7266 4.50959C53.4573 4.50959 53.199 4.61655 53.0085 4.80695L49.4721 8.34336C49.2294 8.23469 48.9887 8.14023 48.75 8.04477V3.04688C48.75 2.77751 48.643 2.51919 48.4525 2.32872C48.2621 2.13825 48.0037 2.03125 47.7344 2.03125H39.6094C39.34 2.03125 39.0817 2.13825 38.8912 2.32872C38.7008 2.51919 38.5938 2.77751 38.5938 3.04688V8.04477C38.3551 8.13617 38.1144 8.23469 37.8716 8.34336L34.3352 4.80695C34.1448 4.61655 33.8865 4.50959 33.6172 4.50959C33.3479 4.50959 33.0896 4.61655 32.8991 4.80695L27.1507 10.5554C26.9603 10.7458 26.8533 11.0041 26.8533 11.2734C26.8533 11.5427 26.9603 11.801 27.1507 11.9915L30.6871 15.5279C30.5784 15.7706 30.484 16.0113 30.3885 16.25H25.3906C25.1213 16.25 24.8629 16.357 24.6725 16.5475C24.482 16.7379 24.375 16.9963 24.375 17.2656V25.3906C24.375 25.66 24.482 25.9183 24.6725 26.1088C24.8629 26.2992 25.1213 26.4062 25.3906 26.4062H30.3885C30.4799 26.6449 30.5784 26.8856 30.6871 27.1284L27.1507 30.6648C26.9603 30.8552 26.8533 31.1135 26.8533 31.3828C26.8533 31.6521 26.9603 31.9104 27.1507 32.1009L32.8991 37.8493C33.0896 38.0397 33.3479 38.1467 33.6172 38.1467C33.8865 38.1467 34.1448 38.0397 34.3352 37.8493L37.8716 34.3129C38.1144 34.4216 38.3551 34.516 38.5938 34.6115V39.6094C38.5938 39.8787 38.7008 40.1371 38.8912 40.3275C39.0817 40.518 39.34 40.625 39.6094 40.625H47.7344C48.0037 40.625 48.2621 40.518 48.4525 40.3275C48.643 40.1371 48.75 39.8787 48.75 39.6094V34.6115C48.9887 34.5201 49.2294 34.4216 49.4721 34.3129L53.0085 37.8493C53.2026 38.0328 53.4595 38.135 53.7266 38.135C53.9936 38.135 54.2506 38.0328 54.4446 37.8493L60.193 32.1009C60.3834 31.9104 60.4904 31.6521 60.4904 31.3828C60.4904 31.1135 60.3834 30.8552 60.193 30.6648L56.6566 27.1273C56.7653 26.8846 56.8598 26.6449 56.9552 26.4062H61.9531C62.2225 26.4062 62.4808 26.2992 62.6713 26.1088C62.8617 25.9183 62.9688 25.66 62.9688 25.3906V17.2656C62.9688 16.9963 62.8617 16.7379 62.6713 16.5475C62.4808 16.357 62.2225 16.25 61.9531 16.25ZM60.9375 24.375H56.2352C56.0192 24.3752 55.8089 24.4442 55.6349 24.5721C55.4608 24.6999 55.3321 24.8799 55.2673 25.0859C55.0671 25.7056 54.8188 26.3087 54.5248 26.8897C54.4296 27.0803 54.3966 27.296 54.4307 27.5063C54.4648 27.7167 54.5642 27.911 54.7148 28.0617L58.0389 31.3828L53.7266 35.6952L50.4024 32.371C50.2517 32.2204 50.0574 32.121 49.8471 32.0869C49.6367 32.0529 49.421 32.0858 49.2304 32.1811C48.6494 32.4751 48.0463 32.7233 47.4266 32.9235C47.2206 32.9883 47.0406 33.1171 46.9128 33.2911C46.7849 33.4652 46.7159 33.6754 46.7157 33.8914V38.5938H40.625V33.8914C40.6248 33.6754 40.5558 33.4652 40.4279 33.2911C40.3001 33.1171 40.1201 32.9883 39.9141 32.9235C39.2944 32.7233 38.6913 32.4751 38.1103 32.1811C37.9197 32.0858 37.704 32.0529 37.4937 32.0869C37.2833 32.121 37.089 32.2204 36.9383 32.371L33.6172 35.6952L29.3048 31.3828L32.629 28.0587C32.7796 27.9079 32.879 27.7136 32.9131 27.5033C32.9471 27.293 32.9142 27.0772 32.8189 26.8866C32.5249 26.3056 32.2767 25.7025 32.0765 25.0829C32.0117 24.8769 31.8829 24.6969 31.7089 24.569C31.5348 24.4412 31.3246 24.3722 31.1086 24.372H26.4062V18.2812H31.1086C31.3246 18.281 31.5348 18.212 31.7089 18.0842C31.8829 17.9563 32.0117 17.7763 32.0765 17.5703C32.2767 16.9507 32.5249 16.3476 32.8189 15.7666C32.9142 15.576 32.9471 15.3602 32.9131 15.1499C32.879 14.9396 32.7796 14.7453 32.629 14.5945L29.3048 11.2734L33.6172 6.96109L36.9413 10.2852C37.0921 10.4358 37.2864 10.5352 37.4967 10.5693C37.707 10.6034 37.9228 10.5704 38.1134 10.4752C38.6934 10.1813 39.2955 9.93306 39.9141 9.73273C40.1201 9.66795 40.3001 9.53918 40.4279 9.36513C40.5558 9.19107 40.6248 8.9808 40.625 8.76484V4.0625H46.7188V8.76484C46.719 8.9808 46.788 9.19107 46.9158 9.36513C47.0437 9.53918 47.2237 9.66795 47.4297 9.73273C48.0493 9.93291 48.6524 10.1811 49.2334 10.4752C49.424 10.5704 49.6398 10.6034 49.8501 10.5693C50.0604 10.5352 50.2547 10.4358 50.4055 10.2852L53.7266 6.96109L58.0389 11.2734L54.7148 14.5976C54.5642 14.7483 54.4648 14.9426 54.4307 15.1529C54.3966 15.3633 54.4296 15.579 54.5248 15.7696C54.8188 16.3506 55.0671 16.9537 55.2673 17.5734C55.3321 17.7794 55.4608 17.9594 55.6349 18.0872C55.8089 18.2151 56.0192 18.2841 56.2352 18.2843H60.9375V24.375Z" fill="#75FF37"/>
<path d="M43.6719 13.2031C42.0649 13.2031 40.494 13.6796 39.1579 14.5724C37.8217 15.4652 36.7803 16.7342 36.1654 18.2188C35.5504 19.7035 35.3895 21.3371 35.703 22.9132C36.0165 24.4893 36.7903 25.9371 37.9266 27.0734C39.0629 28.2097 40.5107 28.9835 42.0868 29.297C43.6629 29.6105 45.2965 29.4496 46.7812 28.8346C48.2658 28.2197 49.5348 27.1783 50.4276 25.8421C51.3204 24.506 51.7969 22.9351 51.7969 21.3281C51.7945 19.174 50.9377 17.1088 49.4145 15.5856C47.8912 14.0623 45.826 13.2055 43.6719 13.2031ZM43.6719 27.4219C42.4667 27.4219 41.2885 27.0645 40.2864 26.3949C39.2843 25.7253 38.5032 24.7736 38.042 23.6601C37.5808 22.5466 37.4601 21.3214 37.6952 20.1393C37.9303 18.9572 38.5107 17.8714 39.3629 17.0192C40.2152 16.167 41.301 15.5866 42.483 15.3515C43.6651 15.1163 44.8904 15.237 46.0039 15.6982C47.1173 16.1595 48.0691 16.9405 48.7386 17.9426C49.4082 18.9447 49.7656 20.1229 49.7656 21.3281C49.764 22.9438 49.1215 24.4928 47.979 25.6353C46.8366 26.7777 45.2875 27.4203 43.6719 27.4219Z" fill="#75FF37"/>
<path d="M14.2187 59.9219C14.8214 59.9219 15.4104 59.7432 15.9115 59.4084C16.4126 59.0736 16.8031 58.5977 17.0337 58.041C17.2643 57.4843 17.3246 56.8716 17.2071 56.2806C17.0895 55.6896 16.7993 55.1467 16.3732 54.7205C15.9471 54.2944 15.4042 54.0042 14.8132 53.8867C14.2221 53.7691 13.6095 53.8294 13.0528 54.0601C12.496 54.2907 12.0202 54.6812 11.6854 55.1823C11.3506 55.6833 11.1719 56.2724 11.1719 56.875C11.1719 57.6831 11.4929 58.4581 12.0643 59.0295C12.6357 59.6009 13.4107 59.9219 14.2187 59.9219ZM14.2187 55.8594C14.4196 55.8594 14.616 55.9189 14.783 56.0305C14.95 56.1421 15.0802 56.3008 15.1571 56.4863C15.2339 56.6719 15.254 56.8761 15.2149 57.0731C15.1757 57.2702 15.0789 57.4511 14.9369 57.5932C14.7949 57.7352 14.6139 57.8319 14.4169 57.8711C14.2199 57.9103 14.0157 57.8902 13.8301 57.8133C13.6445 57.7365 13.4859 57.6063 13.3743 57.4393C13.2627 57.2722 13.2031 57.0759 13.2031 56.875C13.2031 56.6056 13.3101 56.3473 13.5006 56.1568C13.6911 55.9664 13.9494 55.8594 14.2187 55.8594Z" fill="#75FF37"/>
<path d="M28.4375 20.3125H30.4688V22.3438H28.4375V20.3125Z" fill="#75FF37"/>
<path d="M32.1758 31.3828L33.6121 29.9464L35.0484 31.3828L33.6121 32.8191L32.1758 31.3828Z" fill="#75FF37"/>
<path d="M42.6562 34.5312H44.6875V36.5625H42.6562V34.5312Z" fill="#75FF37"/>
<path d="M52.2822 31.3848L53.7185 29.9485L55.1549 31.3848L53.7185 32.8211L52.2822 31.3848Z" fill="#75FF37"/>
<path d="M56.875 20.3125H58.9062V22.3438H56.875V20.3125Z" fill="#75FF37"/>
<path d="M52.2842 11.2786L53.7205 9.84231L55.1568 11.2786L53.7205 12.7149L52.2842 11.2786Z" fill="#75FF37"/>
</svg>
