<svg width="66" height="66" viewBox="0 0 66 66" fill="none" xmlns="http://www.w3.org/2000/svg">
<path d="M57.75 42.5481V14.4375C57.75 14.246 57.6967 14.0582 57.5961 13.8952C57.4954 13.7322 57.3515 13.6004 57.1802 13.5146L32.4302 1.13955C32.2918 1.07072 32.1396 1.03383 31.985 1.0316C31.8304 1.02937 31.6773 1.06186 31.5369 1.12666L4.72442 13.5017C4.54535 13.5839 4.39367 13.7157 4.28741 13.8817C4.18114 14.0476 4.12477 14.2405 4.125 14.4375V47.4375C4.12477 47.6345 4.18114 47.8275 4.28741 47.9934C4.39367 48.1593 4.54535 48.2912 4.72442 48.3734L31.5369 60.7484C31.6773 60.8134 31.8304 60.8459 31.985 60.8437C32.1397 60.8415 32.2918 60.8045 32.4302 60.7355L39.1231 57.3878C39.8631 59.1509 41.0017 60.7184 42.4494 61.9675C43.8971 63.2165 45.6146 64.1131 47.4671 64.5868C49.3196 65.0604 51.2566 65.0984 53.1262 64.6975C54.9958 64.2967 56.7471 63.4681 58.2426 62.2766C59.7381 61.0852 60.9371 59.5634 61.7456 57.8307C62.5541 56.0979 62.95 54.2014 62.9023 52.2899C62.8545 50.3784 62.3645 48.504 61.4705 46.8137C60.5766 45.1235 59.3031 43.6634 57.75 42.5481ZM42.717 8.58905L20.6688 20.4613L15.0202 17.8548L37.6806 6.07151L42.717 8.58905ZM19.5938 22.2364V38.6551L14.4375 36.4444V19.8567L19.5938 22.2364ZM31.9507 3.20721L35.4015 4.93198L12.9306 16.616C12.8456 16.6605 12.7671 16.7165 12.6973 16.7823L7.61707 14.4375L31.9507 3.20721ZM30.9375 58.2012L6.1875 46.7775V16.0489L12.375 18.9054V37.125C12.3751 37.3268 12.4344 37.5241 12.5455 37.6925C12.6566 37.8609 12.8147 37.993 13.0002 38.0725L20.2189 41.1662C20.3471 41.2218 20.4853 41.2504 20.625 41.25C20.8985 41.25 21.1608 41.1414 21.3542 40.948C21.5476 40.7546 21.6563 40.4923 21.6563 40.2188V23.189L30.9375 27.4725V58.2012ZM31.9507 25.6678L23.0111 21.5428L44.9728 9.71698L54.4126 14.4375L31.9507 25.6678ZM38.4785 55.4052L33 58.1445V27.4493L55.6875 16.1056V41.3454C53.5836 40.3819 51.2517 40.0276 48.9565 40.3225C46.6613 40.6174 44.4947 41.5498 42.7027 43.0139C40.9107 44.478 39.565 46.4151 38.8183 48.6054C38.0717 50.7957 37.9539 53.1514 38.4785 55.4052ZM50.5313 62.9063C48.4916 62.9063 46.4978 62.3015 44.8019 61.1683C43.1061 60.0352 41.7843 58.4246 41.0037 56.5402C40.2232 54.6558 40.019 52.5823 40.4169 50.5819C40.8148 48.5815 41.797 46.744 43.2392 45.3017C44.6814 43.8595 46.519 42.8773 48.5194 42.4794C50.5198 42.0815 52.5933 42.2857 54.4777 43.0663C56.362 43.8468 57.9726 45.1686 59.1058 46.8645C60.2389 48.5603 60.8438 50.5542 60.8438 52.5938C60.8406 55.3278 59.7531 57.949 57.8198 59.8823C55.8865 61.8156 53.2653 62.9031 50.5313 62.9063Z" fill="#75FF37"/>
<path d="M54.6568 51.5625H53.4476C53.2933 51.1281 53.044 50.7335 52.718 50.4075C52.392 50.0815 51.9974 49.8323 51.563 49.6779V45.375C51.563 45.1015 51.4544 44.8392 51.261 44.6458C51.0676 44.4524 50.8053 44.3438 50.5318 44.3438C50.2582 44.3438 49.9959 44.4524 49.8025 44.6458C49.6092 44.8392 49.5005 45.1015 49.5005 45.375V49.6779C49.0076 49.8519 48.5668 50.148 48.2192 50.5384C47.8717 50.9289 47.6288 51.4011 47.5132 51.9109C47.3975 52.4207 47.413 52.9515 47.558 53.4537C47.7031 53.9559 47.973 54.4132 48.3427 54.7828C48.7123 55.1525 49.1696 55.4224 49.6718 55.5675C50.174 55.7125 50.7048 55.728 51.2146 55.6124C51.7244 55.4967 52.1966 55.2538 52.5871 54.9063C52.9775 54.5587 53.2736 54.1179 53.4476 53.625H54.6568C54.9303 53.625 55.1926 53.5164 55.386 53.323C55.5794 53.1296 55.688 52.8673 55.688 52.5938C55.688 52.3202 55.5794 52.0579 55.386 51.8645C55.1926 51.6711 54.9303 51.5625 54.6568 51.5625ZM50.5318 53.625C50.3278 53.625 50.1284 53.5645 49.9588 53.4512C49.7892 53.3379 49.6571 53.1768 49.579 52.9884C49.501 52.8 49.4805 52.5926 49.5203 52.3926C49.5601 52.1925 49.6583 52.0088 49.8025 51.8645C49.9468 51.7203 50.1305 51.6221 50.3306 51.5823C50.5306 51.5425 50.738 51.5629 50.9264 51.641C51.1148 51.7191 51.2759 51.8512 51.3892 52.0208C51.5025 52.1904 51.563 52.3898 51.563 52.5938C51.5626 52.8671 51.4539 53.1292 51.2605 53.3225C51.0672 53.5159 50.8051 53.6246 50.5318 53.625Z" fill="#75FF37"/>
</svg>
