<svg width="147" height="147" fill="none" xmlns="http://www.w3.org/2000/svg"><path d="M46.31 41.997v6.17m6.657 0v6.172m-4.688 1.59v6.17m54.475-18.606v7.947m-6.188-1.496v5.89m4.782 4.676v6.451m-38.817-8.695c-63.946 65.544 59.913 87.236 37.785 18.606-6.787 5.709-11.064 4.769-11.813 1.496-.749-3.272 8.282-12.899.75-20.85-1.314 4.046-2.62 5.69-6.845 6.545.887-6.679.779-10.511-4.876-18.14C71.878 38.297 75.096 29 75.096 29c-5.019 5.066-11.716 5.136-11.251 12.997 1.838 7.785 2.811 12.04-1.314 16.269zm11.345 2.244c6.98 11.32 14.251 19.463 7.22 25.058-8.814 7.013 2.156 17.557 10.782 4.093 8.18 31.018-45.62 30.969-34.692 2.265 2.996-5.094 8.673-10.752 12.775-14.212 4.102-3.46 4.984-9.484 3.915-17.204z" stroke="#fff" stroke-width="2"/><circle cx="73.5" cy="73.5" r="72.5" stroke="#fff" stroke-width="2"/></svg>