<svg width="147" height="147" fill="none" xmlns="http://www.w3.org/2000/svg"><path d="M44.525 99.283c-3.17 6.373-5.462 12.767-6.416 18.717 0 0 3.897-7.42 9.127-16.176m-2.71-2.541c10.643-21.395 31.193-42.562 44.287-45.95 0 0-18.774 16.596-28.641 29.104-4.342 5.504-9.014 12.822-12.936 19.387m-2.71-2.541c-2.565-2.041-3.848-9.71-2.704-18.29m5.414 20.831c7.923 2.001 13.08 1.06 22.944-2.541-2.67-1.036-3.457-1.953-4.532-3.743 11.803-2.296 17.596-4.863 24.55-14.694-5.21.276-7.769.112-10.953-1.403 10.81-2.793 16.32-5.242 23.605-13.664-2.655.626-4.143.754-6.798 0 3.68-6.722 7.161-11.653 12.093-16.123M44.309 38.265l.85-3.837m.566-1.685L46.67 29m-.283 4.867l3.588 1.403m-5.665-2.059l-3.305-1.31m50.043 70.938l.85-3.837m.472-1.404l.85-3.556m-.283 4.399l3.588 1.123m-5.005-1.591l-3.116-1.123m19.742-47.194c1.397.996 2.041 2.118 2.636 3.864.813-3.636 2.31-4.427 5.477-5.241-1.679-.768-2.767-1.486-3.557-2.325m-4.556 3.702c-.66-.47-1.487-.912-2.557-1.377 2.605-1.441 3.816-2.605 5.193-5.803.536 1.464 1.044 2.545 1.92 3.478m0 0c3.138-2.302 6.82-4.58 11.299-7.034-15.013-6.55-28.987-5.24-40.318 3.088-.843-1.9-.785-2.966 0-4.866C69.708 39.2 60.89 44.575 54.13 65.779c-1.843-2.248-2.052-3.946-1.983-7.206-4.737 4.452-7.688 10.675-9.272 16.94m-1.052 5.48c.648.272 1.248.648 1.732 1.164-.554-3.552.308-4.742 2.171-6.645-2.619.281-4.122-.011-6.987-3.088C38.79 76.588 36 80.472 36 80.472s3.284-.54 5.822.522z" stroke="#fff" stroke-width="2"/><circle cx="73.5" cy="73.5" r="72.5" stroke="#fff" stroke-width="2"/></svg>