<svg width="137" height="96" viewBox="0 0 137 96" fill="none" xmlns="http://www.w3.org/2000/svg">
<path d="M125.282 38.4H89.0945V11.16M125.282 38.4L134 49.2V77.64H119.239M125.282 38.4C125.282 38.4 122.769 16.6377 112.383 11.16C104.332 6.91331 89.0945 11.16 89.0945 11.16M8.71836 56.04H33.7986M0 38.4H44.1889M7.64349 20.64H51.1159M89.0945 11.16V3H14.3316V77.64H29.5398M104.74 63.12C83.9694 63.1151 85.5255 92.993 104.143 93M104.74 63.12C114.935 63.12 119.468 70.3126 119.239 77.64M104.74 63.12C94.5441 63.12 89.7245 70.3126 89.6602 77.64M104.143 93C113.633 93 119.002 85.2473 119.239 77.64M104.143 93C94.6525 93 89.5935 85.2473 89.6602 77.64M29.5398 77.64C29.5584 70.3126 34.2863 63.12 44.1889 63.12C54.0916 63.12 58.8195 70.3126 58.8381 77.64M29.5398 77.64C29.5205 85.2473 34.5772 93 44.1889 93C53.8007 93 58.8574 85.2473 58.8381 77.64M89.6602 77.64H58.8381" stroke="white" stroke-width="6"/>
</svg>
