<svg width="88" height="121" viewBox="0 0 88 121" fill="none" xmlns="http://www.w3.org/2000/svg">
<path d="M39.4543 17.2011C40.8336 16.9804 42.2484 16.8657 43.6899 16.8657C58.3823 16.8657 70.2928 28.7763 70.2928 43.4687C70.2928 58.1611 58.3823 70.0716 43.6899 70.0716C28.9975 70.0716 17.0869 58.1611 17.0869 43.4687C17.0869 32.4219 23.8201 22.9477 33.4064 18.9262" stroke="white" stroke-width="6"/>
<path d="M26.6995 74.2852C27.577 74.3692 28.4711 74.5458 29.3822 74.8781C35.6728 77.1724 37.1071 84.3021 43.8014 84.1556C44.5322 84.1396 45.1982 84.0439 45.8134 83.8827M26.6995 74.2852C22.4932 73.8828 18.6696 75.6102 15.1865 72.5308C10.4721 68.3628 14.1927 62.6038 11.8332 56.7702C9.41287 50.7863 2.84539 49.251 3.00278 42.7981C3.16017 36.3452 10.0757 35.2538 12.5038 29.2731C14.7392 23.7672 10.9421 18.4539 15.1865 14.2949C19.4462 10.121 24.746 14.1798 30.2764 11.9476C35.8808 9.68558 36.8674 3.22088 42.9072 3.00545C49.2715 2.77845 50.5845 9.70265 56.544 11.9476C62.125 14.05 67.3402 10.1559 71.6339 14.2949C75.9237 18.4302 72.2556 23.77 74.5401 29.2731C77.0149 35.2346 83.8619 36.3458 84.0412 42.7981C84.2192 49.2043 77.3796 50.664 75.4343 56.7702C73.8219 61.8319 77.0965 65.9923 73.9812 70.2953C70.7919 74.7006 65.8849 73.096 60.9033 73.8861M26.6995 74.2852L13.8452 106.511L26.6995 103.493L33.1826 114.224L45.8134 83.8827M45.8134 83.8827C50.6498 82.615 52.339 77.3001 57.55 74.8781C58.6591 74.3626 59.7831 74.0638 60.9033 73.8861M47.1547 98.5749L53.9731 114.224L60.9033 103.493L73.9812 106.511L60.9033 73.8861M34.971 43.4688L42.9072 54.0876L55.2027 34.9737" stroke="white" stroke-width="6"/>
</svg>
