<svg width="68" height="93" fill="none" xmlns="http://www.w3.org/2000/svg"><path d="M12.133 39.511c10.31-10.12 30.4-11.185 43.467 0m-43.467 0s.711 18.643 2.4 23.88c1.056 3.273 5.27 8.017 8.89 11.474m-11.29-35.354c-1.033-.576-2.023-.573-2.933-.319m46.4.32l-2.222 23.88m2.221-23.88c1.2-.419 2.185-.593 3.023-.539M13.466 53.981s-2.303 1.108-5.422-1.775C4.925 49.323 5.288 41.25 6.71 40.399c.718-.43 1.562-.949 2.489-1.207m45.156 14.79s3.2 0 5.688-1.776c2.49-1.776 2.667-10.298 1.334-11.807-.765-.866-1.628-1.353-2.756-1.426M49.467 69.34c-3.452 3.847-5.535 5.997-10.845 9.765 1.355.825-7.648 1.466-10.133 0-.933-.55-2.893-2.162-5.067-4.239M9.2 39.192c.4-2 1.018-3.815 1.82-5.451m47.602 5.232c0-2.575-.766-4.924-2.044-7.008M14.8 19.182c-3.55 5.229-4.363 8.415-3.78 14.559m0 0c8.508-17.38 37.628-14.704 45.558-1.776m-38.49-17.222a24.68 24.68 0 014.712-3.349m33.778 20.571c1.737-8.238-3.842-16.453-11.966-20.57m-21.812 0c7.28-3.958 15.35-3.275 21.812 0m-21.812 0c2.044-13.696 22.667-11.3 21.812 0M17.378 91c2.59-2.882 3.136-3.998 3.555-5.681m1.956-4.972c.787-1.731.928-2.916.533-5.481m21.067-.384c.128 5.482 2.248 12.346 6.044 16.518m.8-11.896c6.971-5.888 9.306-10.232 11.823-19.264m0 0l-5.245 3.285m5.245-3.285L66 65.256m-48.622 14.47c-6.845-4.86-11.29-15.18-12.445-19.797m0 0L2 65.433m2.933-5.504l5.6 3.107" stroke="#022F38" stroke-width="3"/></svg>