<svg width="61" height="93" fill="none" xmlns="http://www.w3.org/2000/svg"><path d="M8.886 39.511c10.32-10.12 30.428-11.185 43.506 0m-43.506 0s1.434 19.81 3.125 25.048M8.886 39.511c-1.033-.576-2.025-.573-2.935-.319m46.441.32l-2.223 23.88m2.223-23.88c1.2-.419 2.187-.593 3.026-.539M10.22 53.981s-2.306 1.108-5.427-1.775C1.672 49.323 2.036 41.25 3.46 40.399c.718-.43 1.563-.949 2.49-1.207m45.197 14.79s3.203 0 5.694-1.776 2.67-10.298 1.335-11.807c-.766-.866-1.63-1.353-2.758-1.426M46.254 69.34c-3.455 3.847-5.54 5.997-10.854 9.765 1.355.825-7.656 1.466-10.143 0-.933-.55-3.952-3.476-6.129-5.552.396 2.565 1.312 5.064.524 6.795M5.951 39.192c.4-2 1.019-3.815 1.82-5.451m47.647 5.232c0-2.575-.767-4.924-2.047-7.008M11.556 19.182c-3.554 5.229-4.367 8.415-3.784 14.559m0 0c8.516-17.38 37.663-14.704 45.6-1.776M14.847 14.743a24.7 24.7 0 014.715-3.349M53.37 31.965c1.74-8.238-3.845-16.453-11.977-20.57m-21.83 0c7.286-3.958 15.364-3.275 21.83 0m-21.83 0c2.045-13.696 22.686-11.3 21.83 0M14.137 91c2.592-2.882 3.14-3.998 3.559-5.681m23.577-10.837c.127 5.482 2.25 12.346 6.05 16.518M6.05 73.907v4.616m0 2.752v4.527M0 79.943h4.804m2.58 0h4.627m3.826-21.039c-.267-.533-3.324 7.41-8.453 9.232 6.291 2.927 8.453 11.275 8.453 10.653 1.225-5.48 2.79-7.872 8.185-10.12-5.268-2.61-6.584-5.278-8.185-9.765z" stroke="#022F38" stroke-width="3"/></svg>