<svg width="78" height="50" viewBox="0 0 78 50" fill="none" xmlns="http://www.w3.org/2000/svg">
<mask id="mask0" mask-type="alpha" maskUnits="userSpaceOnUse" x="0" y="0" width="51" height="44">
<path fill-rule="evenodd" clip-rule="evenodd" d="M50.4741 0.562256H0.957699V43.535H50.4741V0.562256Z" fill="white"/>
</mask>
<g mask="url(#mask0)">
<path fill-rule="evenodd" clip-rule="evenodd" d="M17.1129 12.8213H18.295C20.3965 5.70317 27.095 0.562256 35.2383 0.562256C41.6741 0.562256 47.4532 3.98953 50.4741 9.13044H37.4711V43.535H16.1935C6.7368 43.535 0.957699 36.6804 0.957699 28.1123C0.957699 19.5441 8.18158 12.8213 17.1129 12.8213Z" fill="#72BF00"/>
</g>
<path fill-rule="evenodd" clip-rule="evenodd" d="M69.4001 28.1954C69.4001 19.7591 62.1762 12.7727 53.1135 12.7727H51.9314C51.5374 11.4545 51.012 10.2682 50.3553 9.08179H77.5433V49.2863H37.4836V43.4863H54.1642C63.6209 43.4863 69.4001 36.6318 69.4001 28.1954Z" fill="#BDCCD4"/>
<path fill-rule="evenodd" clip-rule="evenodd" d="M50.4866 9.08179C51.1433 10.2682 51.6687 11.4545 52.0627 12.7727H53.2448C62.1761 12.7727 69.5314 19.6272 69.5314 28.1954C69.5314 36.7636 63.7523 43.6182 54.2956 43.6182H37.4836V9.08179H50.4866Z" fill="#03755F"/>
</svg>
