<svg width="63" height="63" fill="none" xmlns="http://www.w3.org/2000/svg"><path fill-rule="evenodd" clip-rule="evenodd" d="M12.136 19.07h7.443v-7.444h-7.444v7.444z" fill="#03755F"/><path fill-rule="evenodd" clip-rule="evenodd" d="M24.232 19.07h7.444v-7.444h-7.444v7.444zm12.096 0h7.444v-7.444h-7.444v7.444zM12.136 31.166h7.443v-7.444h-7.444v7.444zm12.096 0h7.444v-7.444h-7.444v7.444z" fill="#72BF00"/><path fill-rule="evenodd" clip-rule="evenodd" d="M36.328 31.166h7.444v-7.444h-7.444v7.444zM12.136 43.262h7.443v-7.444h-7.444v7.444zm12.096 0h7.444v-7.444h-7.444v7.444z" fill="#03755F"/><mask id="a" maskUnits="userSpaceOnUse" x="35" y="33" width="16" height="18"><path fill-rule="evenodd" clip-rule="evenodd" d="M35.904 33.957h14.96v16.749h-14.96V33.957z" fill="#fff"/></mask><g mask="url(#a)"><path fill-rule="evenodd" clip-rule="evenodd" d="M48.511 39.3v-2.765c0-1.422-1.143-2.578-2.55-2.578h-5.379c-1.405 0-2.549 1.156-2.549 2.578v.33h1.595v-.33a.96.96 0 01.954-.966h5.38a.96.96 0 01.954.966V39.3H35.904v11.406h14.96V39.3h-2.352z" fill="#BDCCD4"/></g></svg>