<svg width="133" height="133" viewBox="0 0 133 133" fill="none" xmlns="http://www.w3.org/2000/svg">
<path d="M132.5 66.5C132.5 75.4669 130.712 84.015 127.474 91.8081C117.545 115.701 93.984 132.5 66.5 132.5C30.0492 132.5 0.5 102.951 0.5 66.5C0.5 30.0492 30.0492 0.5 66.5 0.5C102.951 0.5 132.5 30.0492 132.5 66.5Z" stroke="black"/>
<path d="M98.0262 63.3438C98.0262 45.4808 83.4696 31 65.5131 31M98.0262 63.3438L89.8272 57.0859M98.0262 63.3438L104.529 57.0859M65.5131 95.6875C47.5566 95.6875 33 81.2067 33 63.3438M33 63.3438C33 45.4808 47.5566 31 65.5131 31M33 63.3438H41.623M65.5131 31V37.75M56.2539 54.3438L63.9581 61.5156M67.9869 61.5156L81.9817 47.4531M65.5131 81.9766C67.4215 67.2109 84.2591 73.9836 82.3351 81.9766C80.411 89.9695 65.2667 101.193 65.5131 101.875H83.678M105.377 97.0234H82.9712L99.8639 72.4844V96.5312M99.8639 97.5156V103" stroke="black" stroke-width="3"/>
<path d="M67.8298 63.4141C67.8298 64.4811 66.9581 65.3594 65.8664 65.3594C64.7747 65.3594 63.9031 64.4811 63.9031 63.4141C63.9031 62.3471 64.7747 61.4688 65.8664 61.4688C66.9581 61.4688 67.8298 62.3471 67.8298 63.4141Z" stroke="black" stroke-width="3"/>
</svg>
