<svg width="135" height="135" fill="none" xmlns="http://www.w3.org/2000/svg"><g filter="url(#filter0_d_38_414)"><circle cx="67.5" cy="63.5" r="63.5" fill="url(#paint0_linear_38_414)"/></g><path d="M57.133 58.716v-2.515H40.511c-7.316 0-7.38 31.799 0 31.799h16.622v-4.064m0-25.22c4.523-5.813 9.755-9.482 9.755-18.512v-9.998c0-2.644 4.365-4.644 7.445-1.87s5.053 11.94 2.439 21.866h18.932c6.867 0 7.252 10.707 0 10.707m-38.57-2.193v25.22m0 0l4.941 2.451c4.942 2.451 25.03 0 29.715 0 4.684 0 6.353-8.578 0-8.578m3.914-16.9h-6.097m6.097 0c4.878 0 6.546 8.773 0 8.773m0 0h-5.39m5.39 0c4.814 0 3.08 8.127 0 8.127H91.79m-2.183 0h2.183" stroke="#fff" stroke-width="2"/><defs><linearGradient id="paint0_linear_38_414" x1="38.5" y1="12" x2="90" y2="120" gradientUnits="userSpaceOnUse"><stop stop-color="#00132A"/><stop offset="1" stop-color="#0D305A"/></linearGradient><filter id="filter0_d_38_414" x="0" y="0" width="135" height="135" filterUnits="userSpaceOnUse" color-interpolation-filters="sRGB"><feFlood flood-opacity="0" result="BackgroundImageFix"/><feColorMatrix in="SourceAlpha" values="0 0 0 0 0 0 0 0 0 0 0 0 0 0 0 0 0 0 127 0" result="hardAlpha"/><feOffset dy="4"/><feGaussianBlur stdDeviation="2"/><feComposite in2="hardAlpha" operator="out"/><feColorMatrix values="0 0 0 0 0 0 0 0 0 0 0 0 0 0 0 0 0 0 0.25 0"/><feBlend in2="BackgroundImageFix" result="effect1_dropShadow_38_414"/><feBlend in="SourceGraphic" in2="effect1_dropShadow_38_414" result="shape"/></filter></defs></svg>