<svg width="135" height="135" fill="none" xmlns="http://www.w3.org/2000/svg"><g filter="url(#filter0_d_38_419)"><circle cx="67.5" cy="63.5" r="63.5" fill="url(#paint0_linear_38_419)"/></g><path d="M71.3 36.18c0 20.837 0 27.764 8.526 27.764 0 0-.749 18.891-.749 23.3 0 4.407 6.511 4.293 6.511 0v-23.3c7.548 0 8.412-4.866 8.412-27.764m-14.923 0v21.18m7.663-21.18v21.18m-37.162 4.924c-28.75-33.718 35.604-36.348 7.432 0v24.96c0 5.037-7.432 4.98-7.432 0v-24.96z" stroke="#fff" stroke-width="2"/><defs><linearGradient id="paint0_linear_38_419" x1="38.5" y1="12" x2="90" y2="120" gradientUnits="userSpaceOnUse"><stop stop-color="#00132A"/><stop offset="1" stop-color="#0D305A"/></linearGradient><filter id="filter0_d_38_419" x="0" y="0" width="135" height="135" filterUnits="userSpaceOnUse" color-interpolation-filters="sRGB"><feFlood flood-opacity="0" result="BackgroundImageFix"/><feColorMatrix in="SourceAlpha" values="0 0 0 0 0 0 0 0 0 0 0 0 0 0 0 0 0 0 127 0" result="hardAlpha"/><feOffset dy="4"/><feGaussianBlur stdDeviation="2"/><feComposite in2="hardAlpha" operator="out"/><feColorMatrix values="0 0 0 0 0 0 0 0 0 0 0 0 0 0 0 0 0 0 0.25 0"/><feBlend in2="BackgroundImageFix" result="effect1_dropShadow_38_419"/><feBlend in="SourceGraphic" in2="effect1_dropShadow_38_419" result="shape"/></filter></defs></svg>