<svg width="74" height="74" viewBox="0 0 74 74" fill="none" xmlns="http://www.w3.org/2000/svg">
<path d="M72.6398 26.3424C71.7941 25.3932 70.6383 24.7758 69.3791 24.6005V24.5979L49.7123 21.8812L41.9297 3.28464C40.7933 0.562631 37.6654 -0.722732 34.9436 0.413671C33.646 0.955472 32.6143 1.98705 32.0726 3.28464L24.29 21.8812L4.62319 24.5979C1.69306 25.0058 -0.351657 27.712 0.0562033 30.6421C0.231487 31.9013 0.848852 33.057 1.79805 33.9028L16.6156 47.1162L13.571 67.8504C13.2412 69.9559 14.2082 72.0535 16.0235 73.1701C17.8131 74.3146 20.1152 74.2718 21.8611 73.0617L37.001 62.7658L52.1409 73.0723C54.5839 74.7303 57.9086 74.0941 59.5668 71.6511C60.3203 70.5409 60.6289 69.188 60.4311 67.861L57.3867 47.1186L72.2043 33.9053C74.413 31.9372 74.6081 28.5511 72.6398 26.3424ZM52.8043 44.1325C52.1414 44.7247 51.8207 45.6104 51.9506 46.4898L55.1218 68.6883L38.4942 57.383C37.5978 56.7738 36.4202 56.7738 35.5238 57.383L18.7983 68.6196L22.0514 46.4793C22.1777 45.6035 21.8572 44.7226 21.1977 44.1326L5.34166 29.8409L26.5043 26.9207C27.4308 26.793 28.2207 26.1849 28.5813 25.3219L37.0326 5.28523C37.0422 5.297 37.0493 5.31047 37.0538 5.32487L45.4179 25.3114C45.7785 26.1744 46.5685 26.7824 47.495 26.9102L68.684 29.9598L52.8043 44.1325Z" fill="#661B36"/>
</svg>
