<svg width="30" height="28" fill="none" xmlns="http://www.w3.org/2000/svg"><g clip-path="url(#clip0)"><path d="M23.507 14.86a2.176 2.176 0 00-.738-1.72 4.174 4.174 0 00-.782-.552 18.505 18.505 0 00-1.01-.472 2.264 2.264 0 01-.776-.473.93.93 0 01-.243-.678.943.943 0 01.207-.656.739.739 0 01.59-.237.739.739 0 01.656.318c.17.276.25.598.229.922h1.948a2.692 2.692 0 00-.605-1.8 2.472 2.472 0 00-1.306-.79V7.41h-1.682v1.276c-.509.085-.98.319-1.358.671a2.118 2.118 0 00-.656 1.6c-.007.34.056.675.184.989.126.28.306.53.531.738.248.22.526.404.827.545.314.158.661.313 1.04.465.293.104.56.27.782.487.168.207.25.471.229.738a.864.864 0 01-.229.641.805.805 0 01-.612.229 1.023 1.023 0 01-.827-.34 1.511 1.511 0 01-.287-1.054h-1.94a2.95 2.95 0 00.346 1.475l3.637 1.188h.067a2.45 2.45 0 001.158-.62 2.215 2.215 0 00.62-1.578z" fill="#1673FF"/><path d="M12.314 12.491a8.303 8.303 0 018.712-8.012 8.309 8.309 0 017.88 8.831 8.112 8.112 0 01-1.018 3.556M6.722 9.74a4.404 4.404 0 100-8.808 4.404 4.404 0 000 8.808zM.938 19.093l5.334-3.747a7.865 7.865 0 016.957-1.047l8.433 2.751a1.07 1.07 0 01.737 1.276l-.066.265a1.07 1.07 0 01-1.085.812l-5.835-.25s4.906 4.351 11.974-.45a1.027 1.027 0 011.084-.045 1.099 1.099 0 01.155 1.851l-3.895 2.914c-.76.563-1.68.868-2.627.87h-5.378a4.484 4.484 0 01-1.586-.295l-7.002-2.707-7.2 5.776" stroke="#040F1F" stroke-width="2"/></g><defs><clipPath id="clip0"><path fill="#fff" d="M0 0h30v28H0z"/></clipPath></defs></svg>