<svg width="68" height="93" viewBox="0 0 68 93" fill="none" xmlns="http://www.w3.org/2000/svg">
<path d="M12.1328 39.5112C22.4439 29.391 42.5328 28.3257 55.5995 39.5112M12.1328 39.5112C12.1328 39.5112 12.8444 58.1537 14.5333 63.3914C15.5885 66.6636 19.8023 71.4081 23.4222 74.8655M12.1328 39.5112C11.1001 38.9352 10.1096 38.9385 9.2 39.192M55.5995 39.5112L53.3778 63.3914M55.5995 39.5112C56.799 39.0933 57.7838 38.9189 58.6222 38.9732M13.4661 53.9813C13.4661 53.9813 11.1627 55.0886 8.0439 52.2059C4.92508 49.3232 5.2885 41.2507 6.71114 40.3989C7.42933 39.9689 8.27263 39.4504 9.2 39.192M54.3555 53.9813C54.3555 53.9813 57.5555 53.9813 60.0444 52.2059C62.5333 50.4304 62.7111 41.9081 61.3777 40.3989C60.613 39.5333 59.75 39.0463 58.6222 38.9732M49.4667 69.3392C46.0149 73.1858 43.9318 75.3362 38.6222 79.1043C39.9768 79.9292 30.9739 80.5699 28.4889 79.1043C27.5564 78.5543 25.5965 76.9421 23.4222 74.8655M9.2 39.192C9.60004 37.1917 10.2181 35.3774 11.0193 33.7409M58.6222 38.9732C58.6222 36.3984 57.8556 34.0488 56.5778 31.9654M14.8 19.182C11.2492 24.4105 10.4375 27.5968 11.0193 33.7409M11.0193 33.7409C19.5281 16.3604 48.648 19.0368 56.5778 31.9654M18.0889 14.7433C19.6027 13.3827 21.1818 12.2738 22.8 11.3942M56.5778 31.9654C58.3154 23.7272 52.7361 15.5118 44.6116 11.3942M22.8 11.3942C30.0804 7.43665 38.1508 8.11973 44.6116 11.3942M22.8 11.3942C24.8444 -2.30124 45.4667 0.0956559 44.6116 11.3942M17.3778 91C19.9674 88.1181 20.5144 87.0021 20.9333 85.3185M22.8889 80.3471C23.6758 78.6158 23.8172 77.4307 23.4222 74.8655M44.4889 74.4819C44.6165 79.9636 46.7368 86.8277 50.5333 91M51.3333 79.1043C58.304 73.2158 60.6388 68.872 63.1556 59.8404M63.1556 59.8404L57.9111 63.125M63.1556 59.8404L66 65.2556M17.3778 79.7257C10.5333 74.8655 6.08889 64.5454 4.93333 59.9292M4.93333 59.9292L2 65.4332M4.93333 59.9292L10.5333 63.0363" stroke="#022F38" stroke-width="3"/>
</svg>
