<svg width="103" height="94" viewBox="0 0 103 94" fill="none" xmlns="http://www.w3.org/2000/svg">
<path d="M29.5678 39.3682C39.8263 29.2866 59.8126 28.2253 72.8126 39.3682M29.5678 39.3682C29.5678 39.3682 29.6808 56.2109 31.3611 61.4286M29.5678 39.3682C28.5404 38.7944 27.555 38.7977 26.65 39.0502M72.8126 39.3682C72.8126 39.3682 71.7307 51.2477 70.8676 60.7262M72.8126 39.3682C74.006 38.9519 74.9858 38.7781 75.8199 38.8323M30.8943 53.7832C30.8943 53.7832 28.6027 54.8862 25.4998 52.0145C22.3969 49.1428 22.7585 41.1011 24.1738 40.2526C24.8884 39.8242 25.7274 39.3076 26.65 39.0502M71.575 53.7832C71.575 53.7832 74.7586 53.7832 77.2348 52.0145C79.711 50.2458 79.8879 41.756 78.5613 40.2526C77.8005 39.3902 76.9419 38.9051 75.8199 38.8323M58.0678 77.7891C59.4155 78.6108 52.7037 80.5306 49.7854 79.5578C46.867 78.585 45.7005 77.2932 43.5374 75.2245M70.8676 60.7262C73.9152 63.6894 72.0018 75.6628 72.6475 75.6667C73.2933 75.6705 78.5618 68.7149 79.9874 72.7483C81.423 76.8104 70.6331 85.2649 70.8676 85.936C71.102 86.6071 70.8676 93 70.8676 93M70.8676 60.7262C66.3687 59.0459 63.2142 61.8061 62.024 62.8001C58.1829 66.008 60.0134 90.0816 59.7481 93M26.65 39.0502C27.048 37.0575 27.6629 35.2501 28.46 33.6199M75.8199 38.8323C75.8199 36.2673 75.0572 33.9266 73.7859 31.8512M32.2214 19.1165C28.6887 24.3251 27.8811 27.4992 28.46 33.6199M28.46 33.6199C36.9254 16.3057 65.8966 18.9718 73.7859 31.8512M35.4935 14.6947C36.9995 13.3393 38.5706 12.2346 40.1806 11.3584M73.7859 31.8512C75.5147 23.6444 69.9639 15.4603 61.8808 11.3584M40.1806 11.3584C47.4238 7.41592 55.453 8.0964 61.8808 11.3584M40.1806 11.3584C42.2146 -2.28484 62.7315 0.102915 61.8808 11.3584M31.9561 91.9388V86.102C33.4621 84.8254 22.239 77.3469 22.7698 72.7483C23.3007 68.1497 28.8334 74.4711 29.5678 75.5782C30.6601 69.7022 29.4354 60.7151 33.1505 59.8367C37.2353 58.871 42.7159 62.1326 43.2871 65.2313C43.8582 68.33 43.2871 91.9388 43.2871 91.9388M86.62 52.0145C86.62 52.0145 89.1512 44.3369 92.5451 45.2449C94.9073 45.8769 96.3556 47.8424 96.2594 50.2857C96.109 54.1073 86.62 52.0145 86.62 52.0145ZM90.069 62.8001C90.069 62.8001 95.5424 56.9148 98.5587 58.9524C100.704 60.4012 101.507 62.7782 100.681 65.2313C99.3245 69.2607 90.069 62.8001 90.069 62.8001ZM86.62 70.0952C86.62 70.0952 86.4109 78.681 90.069 78.8104C92.6886 78.903 94.8311 77.1692 95.2866 74.5877C95.9492 70.8335 86.62 70.0952 86.62 70.0952ZM16.1372 52.0145C16.1372 52.0145 13.9054 44.8935 10.4774 45.2449C7.77985 45.5214 5.83231 47.5772 5.70191 50.2857C5.50326 54.4117 16.1372 52.0145 16.1372 52.0145ZM11.8039 62.8001C11.8039 62.8001 7.0686 57.181 4.28695 58.9524C2.13817 60.3208 1.39965 62.9425 2.51825 65.2313C4.16421 68.5991 11.8039 62.8001 11.8039 62.8001ZM16.1372 70.0952C16.1372 70.0952 6.86044 70.3813 7.2053 74.2056C7.41877 76.5728 8.87361 78.2562 11.1849 78.8104C14.9916 79.7232 16.1372 70.0952 16.1372 70.0952Z" stroke="#022F38" stroke-width="3"/>
</svg>
