<svg width="125" height="30" fill="none" xmlns="http://www.w3.org/2000/svg"><path fill-rule="evenodd" clip-rule="evenodd" d="M14.77 0c-.663 0-1.2.542-1.2 1.21 0 .669.537 1.21 1.2 1.21.662 0 1.199-.541 1.199-1.21 0-.668-.537-1.21-1.2-1.21zm0 27.344c-.663 0-1.2.542-1.2 1.21 0 .668.537 1.21 1.2 1.21.662 0 1.199-.542 1.199-1.21 0-.668-.537-1.21-1.2-1.21zm9.59-20.901c.662 0 1.199-.542 1.199-1.21 0-.668-.537-1.21-1.2-1.21-.662 0-1.2.542-1.2 1.21 0 .668.538 1.21 1.2 1.21zm0 16.891c-.663 0-1.2.542-1.2 1.21 0 .669.537 1.21 1.2 1.21.662 0 1.199-.541 1.199-1.21 0-.668-.537-1.21-1.2-1.21zm-19.175 0c-.663 0-1.2.542-1.2 1.21 0 .669.537 1.21 1.2 1.21.662 0 1.199-.541 1.199-1.21 0-.668-.537-1.21-1.2-1.21z" fill="#6FC100"/><mask id="a" maskUnits="userSpaceOnUse" x="0" y="13" width="3" height="4"><path d="M0 13.694h2.399v2.42H0v-2.42z" fill="#fff"/></mask><g mask="url(#a)"><path fill-rule="evenodd" clip-rule="evenodd" d="M2.399 14.904c0-.668-.537-1.21-1.2-1.21-.662 0-1.2.541-1.2 1.21 0 .668.538 1.21 1.2 1.21.663 0 1.2-.542 1.2-1.21z" fill="#6FC100"/></g><path fill-rule="evenodd" clip-rule="evenodd" d="M28.341 13.693c-.663 0-1.2.542-1.2 1.21 0 .669.538 1.21 1.2 1.21.662 0 1.2-.541 1.2-1.21 0-.668-.538-1.21-1.2-1.21zM5.185 6.41c.662 0 1.199-.541 1.199-1.21 0-.668-.537-1.21-1.2-1.21-.662 0-1.199.542-1.199 1.21 0 .669.537 1.21 1.2 1.21zm9.585-2.387c-.663 0-1.2.542-1.2 1.21v4.804h.001l-.001.032c0 .668.537 1.21 1.2 1.21.662 0 1.199-.542 1.199-1.21l-.002-.032h.002V5.233c0-.668-.537-1.21-1.2-1.21zm0 14.507c-.663 0-1.2.542-1.2 1.21v4.804h.001l-.001.032c0 .669.537 1.21 1.2 1.21.662 0 1.199-.541 1.199-1.21l-.002-.032h.002v-4.803c0-.669-.537-1.21-1.2-1.21zm-2.395-4.835H5.217v.001l-.032-.001c-.663 0-1.2.542-1.2 1.21 0 .668.537 1.21 1.2 1.21l.032-.002v.002h7.158c.662 0 1.199-.542 1.199-1.21 0-.668-.537-1.21-1.2-1.21zm11.985 2.42c.662 0 1.199-.542 1.199-1.21 0-.669-.537-1.21-1.2-1.21h-7.158v.001l-.032-.001c-.662 0-1.2.541-1.2 1.21 0 .668.538 1.21 1.2 1.21l.032-.002v.002h7.158zm-4.795-4.835c.662 0 1.2-.542 1.2-1.21l-.002-.033h.001v-7.96c0-.668-.537-1.21-1.2-1.21-.662 0-1.199.542-1.199 1.21v7.96h.002l-.002.032c0 .669.537 1.21 1.2 1.21zm-9.619 7.25c-.663 0-1.2.542-1.2 1.21v7.96h.002l-.001.033c0 .668.536 1.21 1.199 1.21s1.2-.542 1.2-1.21l-.002-.033h.001v-7.96c0-.668-.536-1.21-1.2-1.21zm-7.89-7.283h7.89v-.002l.032.002c.662 0 1.2-.542 1.2-1.21 0-.669-.538-1.21-1.2-1.21l-.032.001v-.001h-7.89c-.662 0-1.2.541-1.2 1.21 0 .668.538 1.21 1.2 1.21zm25.431 7.283l-.032.002v-.002h-7.89c-.663 0-1.2.542-1.2 1.21 0 .669.537 1.21 1.2 1.21h7.89v-.001l.032.002c.662 0 1.2-.542 1.2-1.21 0-.669-.538-1.21-1.2-1.21zM9.978 6.443c.662 0 1.2-.542 1.2-1.21l-.002-.032h.001V2.077c0-.669-.537-1.21-1.199-1.21s-1.2.541-1.2 1.21V5.2h.002l-.001.032c0 .668.537 1.21 1.199 1.21zM5.182 20.948c.663 0 1.2-.541 1.2-1.21 0-.668-.537-1.21-1.2-1.21H2.086v.002l-.032-.002c-.663 0-1.2.542-1.2 1.21 0 .669.537 1.21 1.2 1.21l.032-.001v.002h3.096zm19.176-9.668l.032-.002v.001h3.097c.662 0 1.2-.541 1.2-1.21 0-.668-.538-1.21-1.2-1.21H24.39v.002l-.032-.002c-.663 0-1.2.542-1.2 1.21 0 .668.537 1.21 1.2 1.21zm-4.793 12.054c-.663 0-1.2.542-1.2 1.21l.002.032h-.002V27.7c0 .669.537 1.21 1.2 1.21.662 0 1.2-.541 1.2-1.21v-3.124h-.002l.001-.032c0-.668-.537-1.21-1.2-1.21z" fill="#6FC100"/><path fill-rule="evenodd" clip-rule="evenodd" d="M49.115 8.404c2.486 0 4.695 1.708 5.252 4.06l.051.217 2.481-.337-.062-.265c-.812-3.463-4.06-5.977-7.722-5.977-4.88 0-8.422 3.688-8.422 8.768-.011 2.505.859 4.772 2.45 6.385 1.531 1.552 3.652 2.407 5.972 2.407 3.648 0 6.886-2.399 7.7-5.703l.06-.252-2.423-.478-.06.22c-.627 2.266-2.846 3.91-5.277 3.91-3.415 0-5.894-2.728-5.894-6.489 0-3.746 2.479-6.466 5.894-6.466zM65.1 21.366c-2.336 0-3.967-1.74-3.967-4.23 0-2.436 1.668-4.205 3.967-4.205 2.3 0 3.967 1.769 3.967 4.206 0 2.45-1.668 4.229-3.967 4.229zm0-10.624c-3.719 0-6.317 2.63-6.317 6.395 0 3.779 2.598 6.418 6.317 6.418 3.66 0 6.317-2.7 6.317-6.418 0-3.706-2.657-6.395-6.317-6.395zm21.86-4.46c-.815 0-1.406.58-1.406 1.378 0 .821.591 1.418 1.405 1.418.803 0 1.385-.597 1.385-1.418 0-.798-.582-1.378-1.385-1.378zm-1.195 16.99h2.369l.01-12.018h-2.369l-.01 12.018zm11.51-10.259c2.268 0 3.978 1.824 3.978 4.242 0 2.471-1.673 4.265-3.978 4.265-2.281 0-4.002-1.834-4.002-4.265 0-2.418 1.72-4.242 4.002-4.242zm.226-2.207c-1.758 0-3.248.689-4.16 1.907V6.466h-2.369v16.806h2.37v-1.51c.923 1.271 2.374 1.965 4.136 1.965 3.503 0 6.144-2.782 6.144-6.472 0-3.677-2.631-6.45-6.121-6.45zM73.3 21.006V6.466h2.366v13.95c0 .701.425.818.983.818h.751v2.038h-1.283c-1.488 0-2.816-.514-2.816-2.266zm6 0V6.466h2.365v13.95c0 .701.425.818.983.818h.752v2.038h-1.283c-1.488 0-2.816-.514-2.816-2.266zm31.34-9.871c-1.185 0-2.139.49-2.793 1.382v-1.255h-2.324v12.01h2.369v-6.45c0-2.142.858-3.398 2.639-3.398 1.151 0 1.687.286 1.687.286v-2.28s-.474-.295-1.578-.295z" fill="#fff"/><mask id="b" maskUnits="userSpaceOnUse" x="113" y="10" width="12" height="14"><path d="M113.086 10.854h11.876v12.808h-11.876V10.854z" fill="#fff"/></mask><g mask="url(#b)"><path fill-rule="evenodd" clip-rule="evenodd" d="M117.694 21.59c-1.401 0-2.238-.563-2.238-1.506 0-1.362 1.639-1.857 3.012-2.032l2.889-.333v.747c0 1.84-1.506 3.124-3.663 3.124zm7.011-.33c-.543 0-.955-.115-.979-.764v-5.085c0-2.769-1.995-4.557-5.083-4.557-3.032 0-4.992 1.663-4.992 4.238v.249h2.396l-.004-.253c-.008-.535.157-.979.49-1.32.444-.456 1.185-.707 2.088-.707 1.713 0 2.736.862 2.736 2.304v.236l-2.945.36c-3.384.387-5.326 1.907-5.326 4.169 0 2.112 1.744 3.532 4.337 3.532 1.696 0 3.046-.62 3.934-1.798l.125.003c.364 1.085 1.473 1.43 2.691 1.43h.789v-2.038h-.257z" fill="#fff"/></g></svg>