<svg width="75" height="75" fill="none" xmlns="http://www.w3.org/2000/svg"><path d="M72.087 65.792l-5.358-3.215-1.841-17.492a7.025 7.025 0 00-5.467-6.128l-16.062-3.569v-4.434l.758-.757a5.416 5.416 0 000-7.66l-2.834-2.833a5.847 5.847 0 002.076-4.47v-4.687a5.856 5.856 0 00-10.466-3.614l-1.3-.65a4.016 4.016 0 00-5.812 3.592v2.731a10.757 10.757 0 01-3.172 7.66 1.172 1.172 0 00.828 2h3.516a7.032 7.032 0 005.99-3.354c.304.377.654.715 1.04 1.006a5.751 5.751 0 00-1.15 1.148l-3.888 5.184a9.96 9.96 0 000 11.953l.352.469v4.497l-4.36 13.081H3.516a1.172 1.172 0 00-1.172 1.172V69.14a1.172 1.172 0 001.172 1.171h2.343a1.172 1.172 0 001.005-.568l3.131-5.22 17.72 1.866a7.032 7.032 0 006.84-3.504l7.14-12.495H55.29l3.305 16.522v2.228a1.171 1.171 0 001.172 1.171h11.718a1.172 1.172 0 001.172-1.171v-2.344a1.172 1.172 0 00-.569-1.005zM43.36 26.367a3.053 3.053 0 01-.9 2.172l-1.1 1.101c-.22.22-.343.518-.343.829v4.687h-3.378L36.52 32.92l4.788-6.704a4.69 4.69 0 00.858-2.314l.294.293a3.054 3.054 0 01.9 2.172zM37.5 7.031a3.521 3.521 0 013.314 2.344H37.5c-.31 0-.609.123-.829.343l-2 2h-.687v-1.171A3.52 3.52 0 0137.5 7.03zm-10.547 12.89h-1.04a13.083 13.083 0 002.212-7.315v-2.73a1.672 1.672 0 012.42-1.496l1.296.648a5.846 5.846 0 00-.2 1.519v4.687a4.693 4.693 0 01-4.688 4.688zm7.031-5.858h1.172c.311 0 .61-.124.829-.344l2-2h3.03v3.515a3.516 3.516 0 01-7.03 0v-1.171zM30.82 27.655l3.888-5.183a3.463 3.463 0 012.758-1.38 2.377 2.377 0 011.935 3.76l-5.198 7.278a1.172 1.172 0 00-.095 1.206l3.516 7.03c.139.279.382.49.677.589l3.253 1.084.38.379-.47.94h-5.722l-4.922-6.562a7.617 7.617 0 010-9.14zm3.399 17.578a1.172 1.172 0 00.937.47h7.032a1.172 1.172 0 001.048-.649l1.172-2.343a1.172 1.172 0 00-.22-1.353l-1.172-1.172a1.176 1.176 0 00-.458-.283l-3.055-1.019-.693-1.385h3.249l8.332 1.852v8.695H36.328a4.693 4.693 0 01-4.687-4.688v-1.562l2.578 3.437zM5.196 67.97h-.508v-9.375h2.554l.895 4.473-2.941 4.902zm27.325-6.246a4.69 4.69 0 01-4.56 2.336l-17.606-1.853-.722-3.612H25.78a1.172 1.172 0 001.112-.802l1.08-3.238 6.723 3.362-2.175 3.807zm3.34-5.845l-7.14-3.57 1.71-5.128a7.03 7.03 0 005.897 3.21h2.668l-3.135 5.488zm21.538-6.89a1.171 1.171 0 00-1.149-.941h-3.516v-8.175l6.178 1.373a4.683 4.683 0 013.645 4.086l1.824 17.33-3.792 2.275-3.19-15.947zm12.913 18.98h-9.374v-.508l4.687-2.812 4.688 2.812v.509z" fill="#661B36"/></svg>