<svg width="74" height="74" fill="none" xmlns="http://www.w3.org/2000/svg"><g clip-path="url(#clip0)" fill="#661B36"><path d="M12.296 65.752a1.455 1.455 0 00-1.022-.424c-.38 0-.753.155-1.022.424a1.457 1.457 0 00-.423 1.022c0 .38.154.753.423 1.021.269.27.642.424 1.022.424s.753-.155 1.022-.424c.268-.268.423-.641.423-1.021 0-.38-.154-.753-.423-1.022zM67.86 26.44a1.453 1.453 0 00-1.021-.423c-.38 0-.753.154-1.022.423a1.457 1.457 0 00-.423 1.022c0 .38.154.753.423 1.022a1.46 1.46 0 001.022.423c.381 0 .753-.154 1.022-.423.27-.27.424-.642.424-1.022s-.154-.753-.424-1.022z"/><path d="M73.576.423A1.446 1.446 0 0072.554 0L37 .002c-.798 0-1.445.647-1.445 1.445V5.58l-13.7 3.671c-.771.207-1.229 1-1.022 1.77l7.1 26.499-6.142 6.142a4.334 4.334 0 00-3.58-1.892H4.338a4.34 4.34 0 00-4.336 4.336v23.558A4.34 4.34 0 004.337 74h13.875a4.343 4.343 0 004.208-3.292l1.718 1.498A7.281 7.281 0 0028.925 74h43.63c.797 0 1.445-.647 1.445-1.445V1.445c0-.383-.153-.75-.424-1.022zM19.657 69.664c0 .797-.648 1.445-1.445 1.445H4.337a1.447 1.447 0 01-1.445-1.445V46.106c0-.797.648-1.445 1.445-1.445H9.83v16.65a1.445 1.445 0 002.89 0V44.66h5.493c.797 0 1.445.648 1.445 1.445v23.558zm4.342-57.995l11.556-3.096v5.355l-.969.26a1.444 1.444 0 00-1.022 1.77 3.896 3.896 0 01-2.751 4.766 1.445 1.445 0 00-1.022 1.773l5.634 20.862h-2.9l-1.496-5.849a1.442 1.442 0 00-.242-.506L24 11.669zm11.556 8.887v12.196l-2.636-9.76a6.771 6.771 0 002.636-2.436zM56.319 71.11H28.925a4.392 4.392 0 01-2.887-1.081l-3.49-3.044v-19.99l6.31-6.31 1.144 4.477c.164.64.74 1.088 1.4 1.088l28.416.002c1.115 0 2.023.907 2.023 2.023a2.026 2.026 0 01-2.023 2.023h-14.56a1.445 1.445 0 000 2.891H64.34c1.116 0 2.024.908 2.024 2.023a2.026 2.026 0 01-2.024 2.024H45.258a1.445 1.445 0 000 2.89h15.99c1.117 0 2.024.908 2.024 2.024a2.026 2.026 0 01-2.023 2.023H45.257a1.445 1.445 0 000 2.891H56.32c1.116 0 2.023.908 2.023 2.023a2.026 2.026 0 01-2.023 2.023zm14.79 0H60.795a4.883 4.883 0 000-4.046h.454a4.92 4.92 0 004.914-4.914c0-.79-.189-1.538-.522-2.2a4.921 4.921 0 003.614-4.738c0-1.096-.36-2.11-.97-2.927V33.966a1.446 1.446 0 00-2.89 0v16.446a4.91 4.91 0 00-1.054-.114h-.047c.28-.618.437-1.303.437-2.024a4.92 4.92 0 00-4.913-4.914h-2.324a6.927 6.927 0 004.2-6.36 6.925 6.925 0 00-6.917-6.917A6.925 6.925 0 0047.86 37a6.927 6.927 0 004.2 6.36h-7.9V15.88a6.804 6.804 0 005.181-5.182h10.872a6.803 6.803 0 005.181 5.182v4.493a1.445 1.445 0 002.891 0v-5.784c0-.798-.647-1.445-1.445-1.445a3.896 3.896 0 01-3.892-3.892c0-.798-.647-1.445-1.445-1.445H48.051c-.798 0-1.446.647-1.446 1.445a3.896 3.896 0 01-3.89 3.892c-.799 0-1.446.647-1.446 1.445V43.36h-2.823V2.892l32.663-.001v68.218zM54.777 41.026A4.03 4.03 0 0150.751 37a4.03 4.03 0 014.026-4.026A4.03 4.03 0 0158.803 37a4.03 4.03 0 01-4.026 4.026z"/></g><defs><clipPath id="clip0"><path fill="#fff" d="M0 0h74v74H0z"/></clipPath></defs></svg>