<svg width="199" height="201" fill="none" xmlns="http://www.w3.org/2000/svg"><path d="M169.341 29.425a97.855 97.855 0 00-139.92.021C-9.212 68.7-9.202 132.333 29.44 171.575a97.855 97.855 0 00139.921-.022c18.553-18.852 28.974-44.418 28.968-71.075-.006-26.652-10.433-52.21-28.989-71.053zm-19.049 110.57l-.014.013v-.033l-5.013 5.058c-6.483 6.669-15.925 9.413-24.899 7.236a86.978 86.978 0 01-25.46-11.591A117.992 117.992 0 0174.82 124.23a120.051 120.051 0 01-15.005-18.492 94.401 94.401 0 01-11.28-23.182c-3.08-9.656-.527-20.251 6.596-27.37l5.87-5.962a4.142 4.142 0 015.924-.014l.013.014L85.473 68.05a4.302 4.302 0 01.014 6.017l-.014.013L74.59 85.135c-3.123 3.138-3.515 8.124-.923 11.725a128.78 128.78 0 0013.027 15.444 127.091 127.091 0 0017.149 14.64 8.834 8.834 0 0011.411-1.005l10.52-10.854a4.142 4.142 0 015.923-.014l.014.014 18.567 18.894a4.3 4.3 0 01.014 6.016z" fill="#fff"/></svg>