<svg width="94" height="60" fill="none" xmlns="http://www.w3.org/2000/svg"><path d="M87.42 25.477l-2.435-9.737a1.472 1.472 0 001.165-1.44v-1.57a6.189 6.189 0 00-6.181-6.18H68.88V3.31A3.045 3.045 0 0065.84.269H9.321A3.045 3.045 0 006.28 3.311V30a1.472 1.472 0 002.943 0V3.31c0-.053.044-.097.098-.097H65.84c.054 0 .098.044.098.098v26.69a1.472 1.472 0 002.944 0v-1.67h17.362l.004.001h.004a4.816 4.816 0 014.574 3.336h-4.577c-.813 0-1.472.659-1.472 1.472v3.14a4.617 4.617 0 004.612 4.611h1.668v6.476h-3.848c-1.265-3.65-4.735-6.28-8.81-6.28s-7.545 2.63-8.809 6.28h-.709V36.28a1.472 1.472 0 00-2.943 0v11.087H35.4c-1.264-3.65-4.734-6.28-8.81-6.28-4.074 0-7.544 2.63-8.808 6.28h-8.46a.098.098 0 01-.099-.098v-3.238h6.378a1.472 1.472 0 100-2.944H1.471a1.472 1.472 0 000 2.944H6.28v3.238a3.045 3.045 0 003.042 3.042h7.95c0 .032-.003.065-.003.098 0 5.14 4.182 9.321 9.322 9.321 5.14 0 9.321-4.181 9.321-9.321l-.002-.098h33.17c0 .032-.003.065-.003.098 0 5.14 4.182 9.321 9.321 9.321 5.14 0 9.322-4.181 9.322-9.321 0-.033-.002-.066-.003-.098h4.81c.814 0 1.473-.66 1.473-1.472v-15.7c0-3.875-2.86-7.096-6.58-7.662zM68.88 9.493h11.09a3.242 3.242 0 013.238 3.238v.098H68.88V9.493zm0 15.895v-9.616h13.08l2.404 9.616H68.881zM26.59 56.787a6.385 6.385 0 01-6.378-6.378 6.385 6.385 0 016.378-6.378 6.385 6.385 0 016.378 6.378 6.385 6.385 0 01-6.378 6.378zm51.808 0a6.385 6.385 0 01-6.378-6.378 6.385 6.385 0 016.378-6.378 6.385 6.385 0 016.378 6.378 6.385 6.385 0 01-6.378 6.378zm12.657-18.84h-1.668a1.67 1.67 0 01-1.668-1.667v-1.67h3.336v3.337z" fill="#923053"/><path d="M26.59 47.367a3.045 3.045 0 00-3.041 3.042 3.045 3.045 0 003.042 3.042 3.045 3.045 0 003.041-3.042 3.045 3.045 0 00-3.041-3.042zm51.809 0a3.045 3.045 0 00-3.042 3.042 3.045 3.045 0 003.042 3.042 3.045 3.045 0 003.041-3.042 3.045 3.045 0 00-3.041-3.042zM61.13 41.088H39.15a1.472 1.472 0 000 2.943h21.98a1.472 1.472 0 100-2.943zm-37.68-6.28H4.613a1.472 1.472 0 000 2.944H23.45a1.472 1.472 0 100-2.944zM51.18 14.83a1.472 1.472 0 00-2.08 0L36.01 27.919l-6.808-6.81a1.472 1.472 0 10-2.082 2.082l7.85 7.85c.287.287.664.43 1.04.43.377 0 .754-.143 1.041-.43l14.13-14.13a1.472 1.472 0 000-2.081z" fill="#923053"/></svg>