<svg width="81" height="83" fill="none" xmlns="http://www.w3.org/2000/svg"><path d="M25.62 20.361a1.574 1.574 0 00-1.118-.475c-.416 0-.824.173-1.118.475-.294.302-.464.72-.464 1.146 0 .426.17.845.464 1.146.294.302.702.475 1.118.475.417 0 .825-.173 1.119-.475a1.654 1.654 0 000-2.292z" fill="#923053"/><path d="M80.537 6.785l-1.956-2.007 1.956-2.003a1.65 1.65 0 000-2.293 1.555 1.555 0 00-2.238 0l-1.954 2.002L74.417.507A1.563 1.563 0 0073.3.032L46.522.016h-.004c-2.114 0-4.102.844-5.597 2.376L27.559 16.084a1.65 1.65 0 000 2.293c.618.633 1.62.633 2.237 0L43.158 4.684a4.663 4.663 0 013.36-1.426h.003l26.12.015 1.467 1.503-5.87 6.015a6.375 6.375 0 00-7.914 1 6.681 6.681 0 00-1.898 4.697 6.68 6.68 0 001.898 4.695 6.382 6.382 0 004.583 1.942 6.38 6.38 0 004.583-1.942c2.139-2.192 2.466-5.548.983-8.097l5.87-6.016 1.493 1.53-.015 26.73a4.9 4.9 0 01-1.392 3.44L37.824 78.33a4.664 4.664 0 01-3.36 1.426 4.664 4.664 0 01-3.36-1.426L4.556 51.126a4.898 4.898 0 01-1.392-3.443c0-1.3.494-2.523 1.392-3.443l17.053-17.474a1.65 1.65 0 000-2.293 1.556 1.556 0 00-2.237 0L2.318 41.947A8.16 8.16 0 000 47.683a8.16 8.16 0 002.318 5.736l26.549 27.204a7.796 7.796 0 005.597 2.372 7.798 7.798 0 005.598-2.372l38.605-39.559a8.161 8.161 0 002.318-5.731L81 7.932c0-.43-.166-.843-.463-1.147zM67.252 18.892a3.255 3.255 0 01-2.345.995 3.255 3.255 0 01-2.345-.995 3.462 3.462 0 010-4.807 3.266 3.266 0 013.294-.852l-1.826 1.87a1.65 1.65 0 000 2.293 1.558 1.558 0 002.237 0l1.821-1.866a3.46 3.46 0 01-.836 3.362z" fill="#923053"/><path d="M67.578 32.643L49.14 13.75a6.165 6.165 0 00-8.859 0L11.106 43.647a6.457 6.457 0 00-1.835 4.539c0 1.714.652 3.326 1.835 4.538l18.437 18.892a6.147 6.147 0 004.43 1.88 6.147 6.147 0 004.429-1.88L67.578 41.72a6.457 6.457 0 001.834-4.539 6.457 6.457 0 00-1.834-4.538zm-2.238 6.784L36.164 69.324c-.585.6-1.364.93-2.192.93a3.04 3.04 0 01-2.191-.93L13.344 50.432a3.195 3.195 0 01-.908-2.246c0-.849.322-1.646.908-2.246L42.52 16.043a3.052 3.052 0 014.383 0L65.34 34.935c.586.6.908 1.398.908 2.246 0 .849-.322 1.646-.908 2.246z" fill="#923053"/><path d="M51.587 32.435a1.65 1.65 0 000-2.293 1.556 1.556 0 00-2.238 0l-.91.934c-2.433-1.54-5.554-1.333-7.527.688-1.15 1.179-1.74 2.78-1.657 4.507a6.895 6.895 0 001.974 4.485c1.272 1.305 1.414 3.281.316 4.406-1.098 1.125-3.027.98-4.3-.324-1.273-1.305-1.415-3.282-.317-4.407a1.65 1.65 0 000-2.293 1.555 1.555 0 00-2.237 0c-1.973 2.022-2.175 5.22-.672 7.712l-1.081 1.108a1.65 1.65 0 000 2.293 1.558 1.558 0 002.238 0l1.081-1.108a6.428 6.428 0 003.43 1.013c1.51 0 2.985-.563 4.096-1.701 2.331-2.39 2.19-6.422-.316-8.99v-.002c-.638-.652-1.011-1.486-1.052-2.349-.038-.802.223-1.533.734-2.057 1.098-1.125 3.027-.98 4.3.324 1.273 1.305 1.415 3.282.317 4.407a1.65 1.65 0 000 2.293 1.558 1.558 0 002.238 0c1.972-2.022 2.174-5.22.672-7.712l.91-.934zM35.575 59.31l-8.126-8.326a1.556 1.556 0 00-2.237 0 1.65 1.65 0 000 2.293l8.125 8.326a1.559 1.559 0 002.238 0 1.65 1.65 0 000-2.293zm-12.46-12.767a1.572 1.572 0 00-1.118-.475c-.416 0-.823.174-1.119.475a1.655 1.655 0 000 2.294c.294.302.703.475 1.119.475a1.57 1.57 0 001.118-.475 1.651 1.651 0 000-2.294z" fill="#923053"/></svg>