<svg width="81" height="88" viewBox="0 0 81 88" fill="none" xmlns="http://www.w3.org/2000/svg">
<path d="M33.1573 17.3304L38.4895 22.3783L47.8427 10.6288M5.18531 4.10122L14.6259 8.97512M5.18531 16.8082H14.6259M5.18531 29.254L14.6259 24.119M66.4615 8.97512L75.6399 4.10122M66.4615 16.8082H75.6399M66.4615 24.119L75.028 28.7318M40.5 43.9627L46.7063 53.1883H74.2413M40.5 43.9627L34.2063 53.1883H6.23427M40.5 43.9627V59.1066M6.23427 53.1883H3L9.03147 41.2646H72.2308L78 53.1883H74.2413M6.23427 53.1883V86H40.2378M74.2413 53.1883V86H40.2378M40.5 74.3375L40.2378 86M26.0769 76.3393H14.6259M40.0627 2.00035C21.3355 1.88327 20.832 30.8206 40.5 30.8206C60.168 30.8206 58.7899 2.11744 40.0627 2.00035Z" stroke="black" stroke-width="3"/>
</svg>
