<svg width="66" height="65" viewBox="0 0 66 65" fill="none" xmlns="http://www.w3.org/2000/svg">
<path fill-rule="evenodd" clip-rule="evenodd" d="M28.4158 0.208761C20.3958 1.26776 12.8967 5.48641 7.68329 11.8717C3.97309 16.4161 1.39324 22.0003 0.405111 27.6265C0.0479692 29.6593 -0.113392 32.3842 0.0874835 32.9887C0.404973 33.9443 1.4987 34.3879 2.39885 33.9261C3.0392 33.5977 3.18377 33.1397 3.34898 30.9167C3.62902 27.1512 4.63134 23.5357 6.37602 19.9979C8.0016 16.7016 9.81733 14.1802 12.4327 11.5875C16.9624 7.09703 22.6784 4.28387 28.9232 3.47194C30.9815 3.20425 34.7802 3.20753 36.659 3.47863C41.739 4.21162 46.3658 6.14934 50.6399 9.33371C52.2256 10.5152 54.7624 12.8127 55.2849 13.5405L55.578 13.9488L51.4531 13.8486L47.3281 13.7483L46.8363 14.1768C46.2245 14.7097 46.0676 15.3586 46.3886 16.0296C46.8375 16.9681 46.8123 16.9633 52.3033 17.1456C55.0294 17.2361 57.773 17.347 58.4002 17.3919C59.2798 17.4548 59.6338 17.4258 59.9478 17.2647C60.8072 16.8239 60.786 17.0688 60.5512 10.3048C60.3208 3.66765 60.3109 3.59909 59.536 3.20152C58.6731 2.75888 57.6633 3.05784 57.2742 3.87101C57.0717 4.29452 57.0561 4.71886 57.1405 7.5267L57.2361 10.7034L55.8023 9.3796C52.884 6.68499 50.2674 4.88016 46.9338 3.26243C43.6441 1.66588 40.7807 0.77937 37.2565 0.266123C34.9917 -0.0637048 30.6902 -0.0917026 28.4158 0.208761ZM63.5102 31.1676C62.9282 31.5558 62.716 32.141 62.7058 33.3857C62.6849 35.9809 61.8562 39.8225 60.7107 42.6354C57.9805 49.3399 53.5895 54.4909 47.6585 57.9463C44.4155 59.8358 40.6022 61.0974 36.6802 61.5784C34.9962 61.7848 31.0677 61.7506 29.3957 61.5149C22.9121 60.6007 17.0553 57.6521 12.1007 52.808L10.3109 51.0579L14.5396 51.1501L18.7683 51.2423L19.2552 50.7594C19.669 50.3488 19.742 50.1838 19.742 49.6587C19.742 48.8871 19.2624 48.2632 18.5272 48.0785C18.2488 48.0085 16.4411 47.9111 14.5101 47.8621C12.5792 47.813 9.9813 47.7174 8.73709 47.6497C6.19235 47.5111 5.98556 47.5544 5.45177 48.3371C5.19045 48.7204 5.14295 48.9219 5.21179 49.3546C5.25902 49.6512 5.38265 52.3246 5.4866 55.2956C5.59069 58.2663 5.73567 60.8507 5.80905 61.0385C6.02548 61.5927 6.47157 61.8931 7.17731 61.9596C7.70972 62.0098 7.90688 61.9634 8.22795 61.7118C8.86486 61.2132 9.01383 60.6781 8.93728 59.1629C8.9001 58.4293 8.83718 57.0063 8.79726 56.0007L8.72456 54.1724L10.1586 55.5425C15.5975 60.739 22.4265 64.0049 29.6332 64.8559C31.2409 65.0457 35.3979 65.0486 36.952 64.861C48.1159 63.513 57.4931 56.7882 62.5643 46.4933C63.7438 44.0989 64.6696 41.5783 65.2228 39.2549C65.9489 36.2058 66.2276 32.5029 65.7936 31.6705C65.3726 30.863 64.3159 30.6302 63.5102 31.1676Z" fill="black"/>
</svg>
