<svg width="75" height="90" viewBox="0 0 75 90" fill="none" xmlns="http://www.w3.org/2000/svg">
<path fill-rule="evenodd" clip-rule="evenodd" d="M36.8873 0.192082C36.1175 0.633041 36.1066 0.716908 36.1008 6.23206C36.0955 11.2484 36.1128 11.5364 36.4413 11.8886C36.6317 12.0927 36.9544 12.3126 37.1584 12.3774C37.6785 12.5421 38.4766 12.1695 38.7129 11.6516C38.8461 11.3595 38.9118 9.53063 38.9118 6.11162V1.00754L38.3972 0.493615C37.8489 -0.054067 37.4545 -0.132835 36.8873 0.192082ZM14.3463 6.91671C13.8502 7.41199 13.8036 7.87141 14.1763 8.59122C14.8014 9.79858 19.2605 16.6312 19.6578 16.9904C20.1975 17.4786 20.7702 17.4944 21.3523 17.0371C21.9558 16.5629 22.0868 15.9307 21.7259 15.2336C21.2416 14.2984 16.7269 7.30738 16.3317 6.88066C15.8254 6.33403 14.913 6.35056 14.3463 6.91671ZM59.8049 6.96013C59.4069 7.06299 53.5231 15.8597 53.5231 16.352C53.5231 16.7992 54.441 17.7376 54.8788 17.7376C55.0582 17.7376 55.3881 17.6096 55.6118 17.4531C56.2169 17.0297 61.621 8.83245 61.621 8.33769C61.621 7.68276 61.4416 7.37155 60.9041 7.09393C60.3892 6.82792 60.3397 6.82194 59.8049 6.96013ZM35.7431 19.5021C29.684 20.005 23.9808 22.8846 20.1405 27.3798C12.2215 36.6491 12.5736 49.9202 20.9691 58.616C21.8093 59.4863 22.8195 60.6606 23.2134 61.2255C24.5513 63.1428 25.5294 67.0919 25.5317 70.5852C25.5326 72.0249 25.5726 72.2182 25.9401 72.5631L26.3477 72.9454H37.5281H48.7086L49.1209 72.507C49.4974 72.1067 49.5448 71.8518 49.6661 69.562C49.8416 66.2512 50.3648 63.9163 51.3735 61.9413C51.5707 61.5553 52.66 60.2154 53.7942 58.9637C54.9283 57.7119 56.2318 56.132 56.6908 55.4528C58.4301 52.8786 59.8743 49.3611 60.4095 46.3964C60.7494 44.513 60.7075 40.1739 60.3309 38.2717C58.0287 26.6389 47.411 18.5337 35.7431 19.5021ZM0.903192 21.6231C-0.037389 21.9951 -0.309195 23.1958 0.403063 23.8326C1.18785 24.5343 9.31456 28.8143 9.86204 28.8143C10.9368 28.8143 11.5168 27.4055 10.7894 26.5621C10.4794 26.2029 2.33633 21.721 1.67935 21.548C1.48571 21.4972 1.13645 21.5309 0.903192 21.6231ZM73.2396 21.5601C72.5113 21.8332 64.4788 26.2466 64.1823 26.5367C63.3629 27.3383 63.9912 28.8143 65.1516 28.8143C65.6771 28.8143 73.8832 24.4948 74.6039 23.8389C74.8819 23.5858 75 23.2791 75 22.8099C75 22.3075 74.9014 22.0791 74.6039 21.8917C74.0825 21.5633 73.566 21.4378 73.2396 21.5601ZM40.6674 22.4046C48.4065 23.6582 54.8094 29.2574 56.9533 36.6463C57.6463 39.035 57.8002 40.4129 57.6983 43.3195C57.603 46.0344 57.3018 47.6212 56.4802 49.737C55.456 52.3747 53.8858 54.8277 52.0555 56.6498C48.7771 59.913 47.3049 63.2705 46.8762 68.4619L46.7456 70.0443L37.5699 70.0899L28.3941 70.1354L28.2837 69.5844C28.223 69.2813 28.1734 68.7371 28.1734 68.3751C28.1734 67.2583 27.6586 64.6971 27.0902 62.9846C26.3205 60.6664 25.3099 59.0604 23.2307 56.8521C22.2399 55.7997 20.9781 54.2523 20.4267 53.4136C16.4146 47.3109 16.1081 39.1779 19.6467 32.7068C23.7264 25.2462 32.2924 21.0481 40.6674 22.4046ZM36.8873 25.4971C35.9943 26.042 35.8454 26.9346 36.533 27.6212C36.9046 27.9924 37.1907 28.0745 38.4254 28.1647C45.4661 28.6788 51.0308 33.6202 52.3903 40.5658C52.5292 41.2755 52.6429 42.2091 52.6429 42.6405C52.6429 44.4357 53.9565 45.2763 55.0522 44.1819C55.4965 43.738 55.5064 43.68 55.4133 42.0281C54.9851 34.4274 49.465 27.7961 41.9946 25.9084C39.9075 25.3809 37.4079 25.1796 36.8873 25.4971ZM27.5572 74.6879C25.8162 75.125 24.8286 76.3385 24.8286 78.041C24.8286 78.5324 24.9356 79.1904 25.0664 79.5031C25.3782 80.2481 26.4146 81.1439 27.2462 81.3869C27.7048 81.5207 30.9872 81.5639 37.8846 81.5267L47.8599 81.4727L48.6215 80.9378C50.7598 79.4367 50.7014 76.5014 48.5063 75.1431L47.6539 74.6157L37.8696 74.5856C32.4883 74.5691 27.8477 74.6151 27.5572 74.6879ZM47.1505 77.5519C47.4374 77.8385 47.4159 78.1409 47.0852 78.4712C46.8406 78.7153 45.7337 78.7475 37.5674 78.7475C31.534 78.7475 28.208 78.6843 27.9857 78.5655C27.6583 78.3904 27.5194 77.701 27.7627 77.4582C27.8271 77.3936 32.1682 77.3409 37.4097 77.3409C44.5868 77.3409 46.9913 77.3929 47.1505 77.5519ZM30.5499 83.0489C30.4531 83.0837 30.154 83.1607 29.8854 83.22C29.161 83.3798 28.0591 84.4639 27.7202 85.3504C27.1129 86.9386 27.8577 88.7571 29.4377 89.5434L30.355 90H37.4556C45.1919 90 45.3031 89.9873 46.3652 88.9797C47.1198 88.2638 47.4186 87.5559 47.4186 86.4836C47.4186 85.4074 47.1158 84.6934 46.3652 83.9996C45.3228 83.0361 45.5096 83.0577 37.8556 83.0203C33.9343 83.0011 30.6467 83.0141 30.5499 83.0489ZM44.5511 86.1432C44.6956 86.4131 44.6914 86.5713 44.534 86.7605C44.3548 86.9762 43.2741 87.0081 37.4554 86.969C31.2692 86.9277 30.5698 86.8941 30.4033 86.6302C30.2689 86.4176 30.2818 86.2608 30.4496 86.0588C30.6534 85.8134 31.4947 85.7803 37.5188 85.7803C44.2471 85.7803 44.3597 85.7861 44.5511 86.1432Z" fill="black"/>
</svg>
