<svg width="151" height="105" viewBox="0 0 151 105" fill="none" xmlns="http://www.w3.org/2000/svg">
<path d="M138.371 41.94H98.4029V11.976M138.371 41.94L148 53.82V85.104H131.697M138.371 41.94L124.125 11.976H98.4029M9.62923 61.344H37.3298M0 41.94H48.8057M8.44207 22.404H56.4563M98.4029 11.976V3H15.8289V85.104H32.6261M115.683 69.132C92.7423 69.1266 94.461 101.992 115.023 102M115.683 69.132C126.944 69.132 131.949 77.0439 131.697 85.104M115.683 69.132C104.422 69.132 99.0987 77.0439 99.0277 85.104M115.023 102C125.505 102 131.435 93.4721 131.697 85.104M115.023 102C104.542 102 98.9541 93.4721 99.0277 85.104M32.6261 85.104C32.6466 77.0439 37.8685 69.132 48.8057 69.132C59.7429 69.132 64.9648 77.0439 64.9853 85.104M32.6261 85.104C32.6047 93.4721 38.1897 102 48.8057 102C59.4217 102 65.0067 93.4721 64.9853 85.104M99.0277 85.104H64.9853" stroke="#022F38" stroke-width="6"/>
</svg>
