<svg width="28" height="28" viewBox="0 0 28 28" fill="none" xmlns="http://www.w3.org/2000/svg">
<path d="M27.9598 10.7877C27.8633 10.4907 27.6067 10.2742 27.2977 10.2294L18.6176 8.96801L14.7356 1.1025C14.5975 0.822505 14.3123 0.645264 14 0.645264C13.6878 0.645264 13.4026 0.822505 13.2644 1.1025L9.38231 8.96801L0.702342 10.2294C0.393413 10.2742 0.136656 10.4907 0.0401879 10.7876C-0.0563351 11.0846 0.0241646 11.4106 0.247781 11.6285L6.52851 17.751L5.04604 26.3961C4.99322 26.7039 5.11976 27.0149 5.37236 27.1985C5.51526 27.3023 5.68452 27.3551 5.8546 27.3551C5.98519 27.3551 6.11622 27.324 6.2362 27.2609L14 23.1791L21.7635 27.2608C22.0399 27.4061 22.3748 27.3819 22.6274 27.1984C22.88 27.0149 23.0066 26.7038 22.9538 26.396L21.4708 17.751L27.7523 11.6285C27.9758 11.4106 28.0564 11.0846 27.9598 10.7877Z" fill="#3B3C3C"/>
</svg>
