<svg width="25" height="34" viewBox="0 0 25 34" fill="none" xmlns="http://www.w3.org/2000/svg">
<path d="M15.2855 0C9.48995 3.66887 7.67262 7.17518 7.49366 16.5252C5.57263 15.755 3.30555 11.915 3.30555 11.0709C-3.09035 16.5252 -0.200977 33.1154 11.9414 33.1154C24.0838 33.1154 27.3303 23.2782 22.5578 13.8955C17.7853 4.51278 15.8474 4.57697 15.2855 0Z" fill="white"/>
<path d="M13.5774 16C11.4627 17.4403 10.7996 18.8167 10.7343 22.4873C10.0334 22.1849 9.20613 20.6775 9.20613 20.3461C6.87239 22.4873 7.92667 29 12.3572 29C16.7877 29 17.9723 25.1382 16.2309 21.4549C14.4895 17.7716 13.7824 17.7968 13.5774 16Z" fill="black"/>
</svg>
