<svg width="23" height="24" fill="none" xmlns="http://www.w3.org/2000/svg"><path d="M8.27 13.038l1.153-1.189-1.153 1.19zm1.927 1.988l-8.05 8.297-1.928-1.987 8.05-8.298 1.928 1.988z" fill="#BDCCD4"/><path d="M9.422 11.85l1.928 1.986-1.572 1.62-1.927-1.987 1.571-1.62z" fill="#03755F"/><path d="M11.683 14.178l-.004.005-2.592-2.671.004-.005 2.592 2.671z" fill="#BDCCD4"/><path d="M12.454 2.991l7.463 7.693-5.816 5.996-7.464-7.693 5.817-5.996z" fill="#BDCCD4"/><path d="M11.236.302l1.916 1.973-7.14 7.36-1.915-1.974 7.14-7.36zm11.291 11.637l-7.14 7.36-1.917-1.974 7.142-7.36 1.915 1.974z" fill="#72BF00"/></svg>