<svg viewBox="0 0 124 124" fill="none" >
<path d="M96.9167 1.08765H27.5834C13.224 1.08765 1.58337 12.7754 1.58337 27.1929V96.8069C1.58337 111.224 13.224 122.912 27.5834 122.912H96.9167C111.276 122.912 122.917 111.224 122.917 96.8069V27.1929C122.917 12.7754 111.276 1.08765 96.9167 1.08765Z" stroke="#B4B4B4" stroke-width="2"/>
<path d="M35.1667 104.421C44.7396 104.421 52.5 96.6292 52.5 87.0175C52.5 77.4058 44.7396 69.614 35.1667 69.614C25.5938 69.614 17.8334 77.4058 17.8334 87.0175C17.8334 96.6292 25.5938 104.421 35.1667 104.421Z" stroke="#D1D292" stroke-width="2"/>
<path d="M42.7048 88.1663L32.0241 94.3578C31.3921 94.7241 30.584 94.5067 30.2191 93.8722C30.1032 93.6705 30.0421 93.4417 30.0421 93.2088V80.8259C30.0421 80.0932 30.6337 79.4993 31.3634 79.4993C31.5954 79.4993 31.8232 79.5606 32.0241 79.677L42.7048 85.8685C43.3368 86.2348 43.5533 87.0462 43.1884 87.6807C43.0724 87.8824 42.9056 88.0499 42.7048 88.1663V88.1663Z" stroke="#D1D292" stroke-width="2"/>
<path d="M84.439 70.1774V103.858C84.439 104.77 85.1752 105.509 86.0834 105.509C86.9915 105.509 87.7277 104.77 87.7277 103.858V70.1774C87.7277 69.2655 86.9915 68.5264 86.0834 68.5264C85.1752 68.5264 84.439 69.2655 84.439 70.1774Z" fill="#096634"/>
<path d="M90.0298 76.7811V97.2536C90.0298 98.1654 90.766 98.9046 91.6741 98.9046C92.5823 98.9046 93.3185 98.1654 93.3185 97.2536V76.7811C93.3185 75.8693 92.5823 75.1301 91.6741 75.1301C90.766 75.1301 90.0298 75.8693 90.0298 76.7811ZM73.2575 76.7811V97.2536C73.2575 98.1654 73.9937 98.9046 74.9019 98.9046C75.81 98.9046 76.5462 98.1654 76.5462 97.2536V76.7811C76.5462 75.8693 75.81 75.1301 74.9019 75.1301C73.9937 75.1301 73.2575 75.8693 73.2575 76.7811Z" fill="white"/>
<path d="M67.6667 81.7343V92.3007C67.6667 93.2125 68.4029 93.9517 69.311 93.9517C70.2192 93.9517 70.9554 93.2125 70.9554 92.3007V81.7343C70.9554 80.8224 70.2192 80.0833 69.311 80.0833C68.4029 80.0833 67.6667 80.8224 67.6667 81.7343Z" fill="#096634"/>
<path d="M78.8483 81.7343V92.3007C78.8483 93.2125 79.5845 93.9517 80.4926 93.9517C81.4008 93.9517 82.137 93.2125 82.137 92.3007V81.7343C82.137 80.8224 81.4008 80.0833 80.4926 80.0833C79.5845 80.0833 78.8483 80.8224 78.8483 81.7343ZM95.6206 84.3759V89.6591C95.6206 90.5709 96.3568 91.3101 97.265 91.3101C98.1731 91.3101 98.9093 90.5709 98.9093 89.6591V84.3759C98.9093 83.464 98.1731 82.7249 97.265 82.7249C96.3568 82.7249 95.6206 83.464 95.6206 84.3759Z" fill="white"/>
<path d="M101.211 86.6874V87.0176C101.211 87.9294 101.948 88.6686 102.856 88.6686C103.764 88.6686 104.5 87.9294 104.5 87.0176V86.6874C104.5 85.7756 103.764 85.0364 102.856 85.0364C101.948 85.0364 101.211 85.7756 101.211 86.6874Z" fill="#096634"/>
<path d="M93.2157 28.3293C100.173 28.3293 105.814 33.8352 105.814 40.627C105.814 47.4188 100.173 52.9247 93.2157 52.9247C87.1209 52.9247 82.037 48.6998 80.8697 43.0866L91.3216 43.0865C91.7602 43.0865 92.1911 42.9738 92.571 42.7597C93.7661 42.0862 94.1756 40.5944 93.4856 39.4278L87.6638 29.5848C89.3387 28.7809 91.2232 28.3293 93.2157 28.3293V28.3293Z" stroke="#B80000" stroke-width="2"/>
<path d="M80.9096 18.8184C81.2894 19.0325 81.6049 19.3404 81.8242 19.7112L87.6638 29.5848C83.4901 31.5882 80.6177 35.7802 80.6177 40.627C80.6177 41.4693 80.7044 42.2919 80.8697 43.0866H67.9988C66.6188 43.0866 65.5001 41.9945 65.5001 40.6474C65.5001 40.2192 65.6155 39.7986 65.8348 39.4278L77.4962 19.7112C78.1862 18.5446 79.7144 18.1448 80.9096 18.8184Z" stroke="#B80000" stroke-width="2"/>
<path d="M87.6638 29.5847L93.4856 39.4277C94.1756 40.5943 93.7661 42.0861 92.5709 42.7596C92.1911 42.9737 91.7602 43.0864 91.3216 43.0864L80.8697 43.0866C80.7044 42.2918 80.6177 41.4692 80.6177 40.6269C80.6177 35.7801 83.4901 31.5881 87.6638 29.5847Z" fill="#1C1C1E" stroke="#B80000" stroke-width="2"/>
<path d="M20 20.6665H26.5C27.6967 20.6665 28.6667 21.6405 28.6667 22.8419C28.6667 24.0434 27.6967 25.0174 26.5 25.0174H20C18.8034 25.0174 17.8334 24.0434 17.8334 22.8419C17.8334 21.6405 18.8034 20.6665 20 20.6665ZM33 20.6665H50.3334C51.53 20.6665 52.5 21.6405 52.5 22.8419C52.5 24.0434 51.53 25.0174 50.3334 25.0174H33C31.8034 25.0174 30.8334 24.0434 30.8334 22.8419C30.8334 21.6405 31.8034 20.6665 33 20.6665Z" fill="#096634"/>
<path d="M41.6667 29.3682H20C18.8034 29.3682 17.8334 30.3421 17.8334 31.5436C17.8334 32.7451 18.8034 33.719 20 33.719H41.6667C42.8633 33.719 43.8334 32.7451 43.8334 31.5436C43.8334 30.3421 42.8633 29.3682 41.6667 29.3682Z" fill="white"/>
<path d="M41.6667 46.7717H20C18.8034 46.7717 17.8334 47.7457 17.8334 48.9472C17.8334 50.1486 18.8034 51.1226 20 51.1226H41.6667C42.8633 51.1226 43.8334 50.1486 43.8334 48.9472C43.8334 47.7457 42.8633 46.7717 41.6667 46.7717Z" fill="white"/>
<path d="M50.3334 38.0701H20C18.8034 38.0701 17.8334 39.044 17.8334 40.2455C17.8334 41.447 18.8034 42.4209 20 42.4209H50.3334C51.53 42.4209 52.5 41.447 52.5 40.2455C52.5 39.044 51.53 38.0701 50.3334 38.0701Z" fill="#096634"/>
</svg>
