<svg viewBox="0 0 142 151" fill="none">
<path d="M80.7226 80.9625L135.518 109.061C140.959 111.851 140.959 116.374 135.518 119.164L80.7226 147.263C75.2821 150.052 66.4613 150.052 61.0208 147.263L6.22521 119.164C0.784712 116.374 0.784712 111.851 6.22521 109.061L61.0208 80.9625C66.4613 78.1727 75.2821 78.1727 80.7226 80.9625V80.9625Z" stroke="#096634" stroke-width="3"/>
<path d="M80.7226 42.5965L135.518 70.6951C140.959 73.485 140.959 78.0082 135.518 80.798L80.7226 108.897C75.2821 111.686 66.4613 111.686 61.0208 108.897L6.22521 80.798C0.784712 78.0082 0.784712 73.485 6.22521 70.6951L61.0208 42.5965C66.4613 39.8067 75.2821 39.8067 80.7226 42.5965Z" stroke="#B80000" stroke-width="3" stroke-linecap="round" stroke-linejoin="round"/>
<path d="M80.7226 4.23056L135.518 32.3292C140.959 35.119 140.959 39.6422 135.518 42.4321L80.7226 70.5307C75.2821 73.3205 66.4613 73.3205 61.0208 70.5307L6.22521 42.4321C0.784712 39.6422 0.784712 35.119 6.22521 32.3292L61.0208 4.23056C66.4613 1.44073 75.2821 1.44073 80.7226 4.23056V4.23056Z" stroke="#D1D292" stroke-width="3"/>
</svg>
