<svg viewBox="0 0 124 124" fill="none" >
<path d="M96.4167 1.08765H27.0833C12.7239 1.08765 1.08334 12.7754 1.08334 27.1929V96.8069C1.08334 111.224 12.7239 122.912 27.0833 122.912H96.4167C110.776 122.912 122.417 111.224 122.417 96.8069V27.1929C122.417 12.7754 110.776 1.08765 96.4167 1.08765Z" stroke="#B4B4B4" stroke-width="2"/>
<path d="M85.4322 104.421C95.6869 104.421 104 96.0743 104 85.778C104 75.4818 95.6869 67.135 85.4322 67.135C75.1774 67.135 66.8643 75.4818 66.8643 85.778C66.8643 96.0743 75.1774 104.421 85.4322 104.421Z" stroke="white" stroke-width="2"/>
<path d="M75.6066 75.9126H95.1066V95.4916H75.6066V75.9126Z" fill="white"/>
<path d="M38.0678 104.421C48.3226 104.421 56.6357 96.0743 56.6357 85.778C56.6357 75.4818 48.3226 67.135 38.0678 67.135C27.8131 67.135 19.5 75.4818 19.5 85.778C19.5 96.0743 27.8131 104.421 38.0678 104.421Z" fill="#B80000" stroke="black" stroke-opacity="0.15" stroke-width="2"/>
<path d="M38.0678 56.8649C48.3226 56.8649 56.6357 48.5181 56.6357 38.2219C56.6357 27.9256 48.3226 19.5789 38.0678 19.5789C27.8131 19.5789 19.5 27.9256 19.5 38.2219C19.5 48.5181 27.8131 56.8649 38.0678 56.8649Z" fill="#D1D292" stroke="black" stroke-opacity="0.15" stroke-width="2"/>
<path d="M85.4322 56.8649C95.6869 56.8649 104 48.5181 104 38.2219C104 27.9256 95.6869 19.5789 85.4322 19.5789C75.1774 19.5789 66.8643 27.9256 66.8643 38.2219C66.8643 48.5181 75.1774 56.8649 85.4322 56.8649Z" fill="#096634" stroke="black" stroke-opacity="0.15" stroke-width="2"/>
</svg>
