<svg width="135" height="135" viewBox="0 0 135 135" fill="none" xmlns="http://www.w3.org/2000/svg">
<g filter="url(#filter0_d_38_419)">
<circle cx="67.5" cy="63.5" r="63.5" fill="url(#paint0_linear_38_419)"/>
</g>
<path d="M71.2991 36.1797C71.2991 57.0173 71.2991 63.9441 79.8264 63.9441C79.8264 63.9441 79.0773 82.8353 79.0773 87.2432C79.0773 91.6511 85.588 91.5367 85.588 87.2432C85.588 82.9497 85.588 63.9441 85.588 63.9441C93.1358 63.9441 94 59.0781 94 36.1797M79.0773 36.1797V57.3608M86.7403 36.1797V57.3608M49.5779 62.2839C20.8272 28.566 85.1824 25.936 57.0103 62.2839C57.0103 62.2839 57.0103 82.2055 57.0103 87.2432C57.0103 92.2808 49.5779 92.2236 49.5779 87.2432C49.5779 82.2628 49.5779 62.2839 49.5779 62.2839Z" stroke="white" stroke-width="2"/>
<defs>
<filter id="filter0_d_38_419" x="0" y="0" width="135" height="135" filterUnits="userSpaceOnUse" color-interpolation-filters="sRGB">
<feFlood flood-opacity="0" result="BackgroundImageFix"/>
<feColorMatrix in="SourceAlpha" type="matrix" values="0 0 0 0 0 0 0 0 0 0 0 0 0 0 0 0 0 0 127 0" result="hardAlpha"/>
<feOffset dy="4"/>
<feGaussianBlur stdDeviation="2"/>
<feComposite in2="hardAlpha" operator="out"/>
<feColorMatrix type="matrix" values="0 0 0 0 0 0 0 0 0 0 0 0 0 0 0 0 0 0 0.25 0"/>
<feBlend mode="normal" in2="BackgroundImageFix" result="effect1_dropShadow_38_419"/>
<feBlend mode="normal" in="SourceGraphic" in2="effect1_dropShadow_38_419" result="shape"/>
</filter>
<linearGradient id="paint0_linear_38_419" x1="38.5" y1="12" x2="90" y2="120" gradientUnits="userSpaceOnUse">
<stop stop-color="#00132A"/>
<stop offset="1" stop-color="#0D305A"/>
</linearGradient>
</defs>
</svg>
