<svg width="122" height="122" viewBox="0 0 122 122" fill="none" xmlns="http://www.w3.org/2000/svg">
<g filter="url(#filter0_d)">
<circle cx="61" cy="57" r="57" fill="url(#paint0_linear)"/>
</g>
<g clip-path="url(#clip0)">
<path d="M64.8464 53.1152C65.903 54.1877 67.1623 55.0393 68.5512 55.6204C69.94 56.2015 71.4306 56.5005 72.9361 56.5H72.9397C74.445 56.5003 75.9353 56.2013 77.3239 55.6202C78.7126 55.0391 79.9717 54.1875 81.0281 53.1152C83.1772 50.9442 84.3803 48.0112 84.3748 44.9564C84.3512 44.0214 84.184 43.0956 83.8792 42.2114C83.5389 41.1946 83.1231 40.2045 82.6353 39.2496C81.3867 36.7584 79.496 33.8263 77.0155 30.5333C75.2415 28.1802 73.8177 26.5159 73.6616 26.3336L73.6593 26.33C73.5697 26.2262 73.4588 26.143 73.3342 26.086C73.2095 26.029 73.0741 25.9996 72.937 25.9997C72.7999 25.9998 72.6645 26.0295 72.54 26.0867C72.4154 26.1439 72.3047 26.2273 72.2153 26.3312L72.2117 26.3348C71.9282 26.666 69.3595 29.6755 66.7884 33.3962C66.6448 33.6043 66.5897 33.8609 66.6353 34.1096C66.6809 34.3583 66.8234 34.5786 67.0315 34.7223C67.2395 34.8659 67.4962 34.9209 67.7448 34.8754C67.9935 34.8298 68.2139 34.6873 68.3575 34.4792C69.7157 32.5134 71.087 30.7382 71.9984 29.5956C72.3166 29.1953 72.6335 28.8057 72.9373 28.4364C73.9667 29.685 75.9718 32.1941 77.8816 35.0106C79.2529 37.0336 80.3371 38.866 81.1056 40.4577C81.9932 42.2805 82.4781 43.8782 82.4685 44.9564C82.4771 47.5098 81.4718 49.9622 79.6735 51.7749C78.7935 52.6677 77.7448 53.3767 76.5884 53.8606C75.432 54.3445 74.1909 54.5937 72.9373 54.5937C71.6837 54.5937 70.4426 54.3445 69.2862 53.8606C68.1297 53.3767 67.081 52.6677 66.2011 51.7749C64.4025 49.9624 63.3971 47.5099 63.406 44.9564C63.3989 43.9664 63.8087 42.5272 64.5593 40.9021C64.6642 40.6723 64.6738 40.4103 64.5858 40.1736C64.4977 39.9368 64.3194 39.7446 64.0899 39.6392C63.9656 39.5815 63.8302 39.5518 63.6932 39.5522C63.5107 39.5523 63.332 39.6048 63.1785 39.7034C63.025 39.802 62.903 39.9427 62.827 40.1086C61.9275 42.0828 61.5057 43.6233 61.4998 44.9564C61.4942 48.0112 62.6973 50.9442 64.8464 53.1152Z" fill="white"/>
<path d="M65.0052 37.9582C65.1667 38.0552 65.3534 38.1022 65.5416 38.0932C65.7298 38.0842 65.9111 38.0196 66.0627 37.9076C66.2142 37.7955 66.3291 37.6411 66.3929 37.4638C66.4567 37.2865 66.4665 37.0942 66.421 36.9114C66.3756 36.7285 66.277 36.5632 66.1377 36.4363C65.9983 36.3095 65.8245 36.2268 65.6382 36.1987C65.4518 36.1706 65.2613 36.1983 65.0908 36.2785C64.9202 36.3586 64.7773 36.4874 64.6799 36.6488C64.6799 36.6491 64.6798 36.6494 64.6796 36.6496C64.6793 36.6499 64.679 36.65 64.6787 36.65C64.5489 36.8669 64.5104 37.1263 64.5716 37.3715C64.6328 37.6167 64.7887 37.8277 65.0052 37.9582Z" fill="white"/>
<path d="M76.7509 51.4692C76.9484 51.4693 77.141 51.4078 77.3019 51.2932C78.311 50.5733 79.1335 49.6226 79.7007 48.5203C80.2679 47.4181 80.5634 46.1962 80.5626 44.9566C80.5626 44.7038 80.4622 44.4614 80.2834 44.2826C80.1047 44.1039 79.8623 44.0034 79.6095 44.0034C79.3567 44.0034 79.1143 44.1039 78.9355 44.2826C78.7568 44.4614 78.6564 44.7038 78.6564 44.9566C78.6575 45.8919 78.4349 46.8139 78.0074 47.6458C77.5798 48.4776 76.9596 49.1953 76.1984 49.7388C76.0334 49.8558 75.91 50.0223 75.8459 50.2142C75.7819 50.406 75.7805 50.6133 75.842 50.806C75.9036 50.9987 76.0248 51.1668 76.1882 51.286C76.3516 51.4052 76.5487 51.4694 76.7509 51.4692Z" fill="white"/>
<path d="M72.9375 52.6875C73.4639 52.6875 73.8906 52.2608 73.8906 51.7344C73.8906 51.208 73.4639 50.7812 72.9375 50.7812C72.4111 50.7812 71.9844 51.208 71.9844 51.7344C71.9844 52.2608 72.4111 52.6875 72.9375 52.6875Z" fill="white"/>
<path d="M68.6856 69.9182L60.3402 71.7726C60.218 71.7998 60.1023 71.8507 59.9998 71.9226C59.8973 71.9944 59.81 72.0857 59.7428 72.1913C59.6755 72.2969 59.6298 72.4147 59.6081 72.538C59.5864 72.6613 59.5892 72.7876 59.6164 72.9098C59.6435 73.032 59.6945 73.1477 59.7663 73.2502C59.8382 73.3527 59.9295 73.44 60.0351 73.5072C60.1407 73.5745 60.2585 73.6202 60.3818 73.6419C60.505 73.6636 60.6314 73.6608 60.7536 73.6336L69.3317 71.7274C69.4845 71.6933 69.6265 71.6223 69.7454 71.5205L76.4172 65.8018C76.4357 65.7859 76.4536 65.7693 76.4709 65.7521L80.2834 61.9396C80.3719 61.8511 80.4421 61.746 80.49 61.6304C80.5379 61.5147 80.5625 61.3908 80.5625 61.2656C80.5625 61.1405 80.5379 61.0165 80.49 60.9009C80.4421 60.7852 80.3719 60.6802 80.2834 60.5917C79.3557 59.6661 78.1019 59.1415 76.7915 59.1306C75.4811 59.1197 74.2188 59.6234 73.2759 60.5334L66.8443 65.1275L61.6575 65.9918C59.8578 65.0622 50.4566 60.3125 46.25 60.3125C45.9972 60.3125 45.7548 60.4129 45.576 60.5917C45.3973 60.7704 45.2969 61.0129 45.2969 61.2656C45.2969 61.5184 45.3973 61.7609 45.576 61.9396C45.7548 62.1183 45.9972 62.2188 46.25 62.2188C49.6487 62.2188 58.0903 66.2677 61.0562 67.8279C61.2404 67.9249 61.4513 67.9588 61.6567 67.9245L67.3754 66.9714C67.5187 66.9475 67.6546 66.8913 67.7728 66.8069L74.4446 62.0412C74.4873 62.0107 74.5274 61.9767 74.5646 61.9396C75.0268 61.4786 75.623 61.1754 76.2678 61.0734C76.9127 60.9715 77.5732 61.0759 78.1551 61.3719L75.1489 64.3782L68.6856 69.9182Z" fill="white"/>
<path d="M90.9461 74.1831C90.3063 72.9028 89.259 71.8715 87.9689 71.2515C86.6789 70.6315 85.2193 70.4579 83.8199 70.758C83.6964 70.7831 83.5791 70.8324 83.4748 70.9032C83.3704 70.9739 83.2812 71.0646 83.2122 71.17C83.1431 71.2755 83.0957 71.3935 83.0726 71.5174C83.0495 71.6413 83.0512 71.7686 83.0776 71.8918C83.104 72.015 83.1546 72.1318 83.2264 72.2353C83.2982 72.3389 83.3899 72.4272 83.4961 72.4951C83.6022 72.563 83.7208 72.6091 83.8449 72.6309C83.9691 72.6527 84.0963 72.6496 84.2192 72.6219C84.9952 72.4555 85.8012 72.495 86.5572 72.7366C87.3131 72.9781 87.9927 73.4131 88.5286 73.9985L73.6717 77.4941C73.5492 77.5221 73.4334 77.5741 73.331 77.647C73.2287 77.7199 73.1417 77.8124 73.0752 77.919C73.0087 78.0257 72.964 78.1445 72.9436 78.2685C72.9231 78.3925 72.9275 78.5193 72.9563 78.6417C72.9851 78.764 73.0378 78.8795 73.1114 78.9814C73.185 79.0833 73.278 79.1696 73.3851 79.2354C73.4922 79.3012 73.6112 79.3452 73.7354 79.3648C73.8595 79.3844 73.9863 79.3792 74.1085 79.3496L90.3116 75.5371C90.4516 75.5042 90.5823 75.4399 90.694 75.3493C90.8057 75.2586 90.8954 75.1438 90.9564 75.0136C91.0174 74.8833 91.0481 74.7409 91.0462 74.5971C91.0444 74.4533 91.01 74.3117 90.9457 74.1831H90.9461Z" fill="white"/>
<path d="M48.9188 57.5949C51.6781 58.2323 54.1038 59.3951 56.1316 61.05C56.8298 61.6207 58.0879 62.5821 59.9787 63.988C60.1421 64.1109 60.3413 64.177 60.5458 64.1762C60.7463 64.1767 60.9419 64.1138 61.1047 63.9966C61.2674 63.8795 61.3891 63.7139 61.4523 63.5236C61.5155 63.3333 61.5171 63.1278 61.4568 62.9366C61.3965 62.7453 61.2774 62.5779 61.1164 62.4582C59.8488 61.5158 58.1641 60.2506 57.3373 59.5738C55.082 57.7307 52.393 56.4404 49.3477 55.7375C49.2771 55.7208 49.2047 55.7124 49.1321 55.7125C48.8976 55.7121 48.6713 55.7982 48.4963 55.9542C48.3213 56.1103 48.2099 56.3254 48.1836 56.5583C48.1572 56.7913 48.2176 57.0258 48.3532 57.2171C48.4889 57.4083 48.6902 57.5428 48.9188 57.5949Z" fill="white"/>
<path d="M31.9532 59.3594C32.054 59.3596 32.1541 59.3435 32.2498 59.3117L35.0997 58.3801C37.2235 57.7207 39.4133 57.2968 41.6298 57.116C41.8819 57.0959 42.1158 56.9765 42.2799 56.784C42.444 56.5915 42.5249 56.3417 42.5048 56.0896C42.4848 55.8374 42.3654 55.6036 42.1729 55.4395C41.9804 55.2754 41.7306 55.1944 41.4784 55.2145C39.1211 55.4085 36.7919 55.8595 34.5325 56.5596L31.6565 57.5008C31.4412 57.5715 31.2582 57.7167 31.1403 57.9101C31.0223 58.1036 30.9772 58.3328 31.0129 58.5565C31.0486 58.7802 31.1629 58.984 31.3352 59.1311C31.5075 59.2782 31.7266 59.3592 31.9532 59.3594Z" fill="white"/>
<path d="M45.3039 57.0778C45.323 57.079 45.3432 57.0802 45.3647 57.0802C45.6171 57.0821 45.8602 56.9847 46.0415 56.809C46.2227 56.6333 46.3276 56.3933 46.3335 56.1409C46.3394 55.8885 46.2459 55.644 46.073 55.4599C45.9002 55.2759 45.6619 55.1672 45.4097 55.1574C45.1574 55.1475 44.9114 55.2371 44.7246 55.4071C44.5379 55.577 44.4255 55.8135 44.4116 56.0656C44.3977 56.3176 44.4835 56.5651 44.6505 56.7544C44.8174 56.9438 45.0521 57.06 45.3039 57.0778Z" fill="white"/>
<path d="M82.5389 79.9826L79.9108 79.1066C79.671 79.0266 79.4092 79.0452 79.1831 79.1583C78.957 79.2713 78.7851 79.4696 78.7052 79.7094C78.6252 79.9492 78.6438 80.2109 78.7569 80.437C78.8699 80.6631 79.0681 80.8351 79.3079 80.915L81.9361 81.7911C82.5575 81.9982 83.0844 82.4209 83.4213 82.9827C83.7583 83.5444 83.8832 84.2082 83.7735 84.854L64.8687 78.8041L74.2851 74.524C74.3033 74.5156 74.3214 74.5067 74.3392 74.4973L88.6361 66.8723C88.7574 66.8076 88.8633 66.7174 88.9464 66.6079C89.0296 66.4984 89.0881 66.3722 89.118 66.238C89.1478 66.1038 89.1482 65.9647 89.1192 65.8303C89.0902 65.6959 89.0325 65.5694 88.95 65.4594C88.0141 64.2105 86.6694 63.3299 85.1505 62.9713C83.6316 62.6128 82.0351 62.799 80.6395 63.4975C80.4139 63.6109 80.2426 63.8091 80.163 64.0486C80.0835 64.2882 80.1022 64.5495 80.2151 64.7753C80.3279 65.0011 80.5258 65.1728 80.7651 65.2529C81.0045 65.333 81.2659 65.3149 81.4919 65.2025C82.3134 64.7914 83.2364 64.627 84.1493 64.7292C85.0622 64.8314 85.926 65.1958 86.6363 65.7783L73.4689 72.801L63.1998 77.4688H57.9029L38.0816 68.0301C37.9536 67.9692 37.8136 67.9375 37.6719 67.9375H31.9531C31.7003 67.9375 31.4579 68.0379 31.2792 68.2167C31.1004 68.3954 31 68.6379 31 68.8906C31 69.1434 31.1004 69.3859 31.2792 69.5646C31.4579 69.7433 31.7003 69.8438 31.9531 69.8438H37.4565L57.2778 79.2824C57.4058 79.3434 57.5457 79.375 57.6875 79.375H60.3981L84.0845 86.9547C84.3012 87.024 84.5354 87.0136 84.745 86.9253C84.9546 86.837 85.1257 86.6766 85.2275 86.4732C85.5253 85.8773 85.6917 85.2244 85.7153 84.5587C85.7389 83.8929 85.6192 83.2299 85.3643 82.6144C85.1093 81.9989 84.7251 81.4454 84.2377 80.9914C83.7502 80.5373 83.1709 80.1933 82.5389 79.9826Z" fill="white"/>
</g>
<defs>
<filter id="filter0_d" x="0" y="0" width="122" height="122" filterUnits="userSpaceOnUse" color-interpolation-filters="sRGB">
<feFlood flood-opacity="0" result="BackgroundImageFix"/>
<feColorMatrix in="SourceAlpha" type="matrix" values="0 0 0 0 0 0 0 0 0 0 0 0 0 0 0 0 0 0 127 0"/>
<feOffset dy="4"/>
<feGaussianBlur stdDeviation="2"/>
<feColorMatrix type="matrix" values="0 0 0 0 0 0 0 0 0 0 0 0 0 0 0 0 0 0 0.43 0"/>
<feBlend mode="normal" in2="BackgroundImageFix" result="effect1_dropShadow"/>
<feBlend mode="normal" in="SourceGraphic" in2="effect1_dropShadow" result="shape"/>
</filter>
<linearGradient id="paint0_linear" x1="61" y1="0" x2="61" y2="114" gradientUnits="userSpaceOnUse">
<stop stop-color="#20395D"/>
<stop offset="0.409375" stop-color="#216477"/>
<stop offset="1" stop-color="#113263"/>
</linearGradient>
<clipPath id="clip0">
<rect width="61" height="61" fill="white" transform="translate(31 26)"/>
</clipPath>
</defs>
</svg>
