<svg width="122" height="122" viewBox="0 0 122 122" fill="none" xmlns="http://www.w3.org/2000/svg">
<g filter="url(#filter0_d)">
<circle cx="61" cy="57" r="57" fill="url(#paint0_linear)"/>
</g>
<g clip-path="url(#clip0)">
<path d="M62.2118 67.0976C62.109 67.0262 61.9932 66.9757 61.8709 66.9491C61.7486 66.9224 61.6222 66.9201 61.499 66.9423C61.3758 66.9645 61.2582 67.0107 61.1529 67.0784C61.0476 67.146 60.9566 67.2338 60.8852 67.3366C57.562 72.1206 52.4561 76.6493 46.5082 80.0886C41.1679 83.1764 35.7268 85.0199 31.9531 85.0199C31.7003 85.0199 31.4579 85.1203 31.2792 85.2991C31.1004 85.4778 31 85.7202 31 85.973C31 86.2258 31.1004 86.4682 31.2792 86.647C31.4579 86.8257 31.7003 86.9261 31.9531 86.9261C36.047 86.9261 41.8449 84.987 47.4624 81.7388C53.648 78.1622 58.9713 73.4336 62.4502 68.4241C62.5945 68.2166 62.6504 67.9602 62.6057 67.7115C62.561 67.4627 62.4193 67.2419 62.2118 67.0976Z" fill="white"/>
<path d="M66.2659 54.7308C66.5187 54.7308 66.7611 54.6304 66.9398 54.4516C67.1186 54.2729 67.219 54.0305 67.219 53.7777V26.9532C67.219 26.7004 67.1186 26.458 66.9398 26.2792C66.7611 26.1005 66.5187 26.0001 66.2659 26.0001C66.0131 26.0001 65.7707 26.1005 65.5919 26.2792C65.4132 26.458 65.3127 26.7004 65.3127 26.9532V53.7777C65.3127 54.0305 65.4132 54.2729 65.5919 54.4516C65.7707 54.6304 66.0131 54.7308 66.2659 54.7308Z" fill="white"/>
<path d="M91.5998 80.819C91.3609 80.228 91.0051 79.6915 90.5536 79.2416L84.9672 73.6551C84.7885 73.4761 84.546 73.3754 84.2931 73.3752C84.0402 73.3749 83.7975 73.4752 83.6185 73.6539C83.4395 73.8326 83.3388 74.0751 83.3386 74.328C83.3384 74.5809 83.4387 74.8236 83.6173 75.0026H83.6184L89.2061 80.5902C89.4743 80.8552 89.6874 81.1705 89.8332 81.5181C89.9791 81.8657 90.0547 82.2387 90.0559 82.6157C90.057 82.9927 89.9836 83.3661 89.8399 83.7146C89.6961 84.0631 89.4849 84.3797 89.2183 84.6462C88.9518 84.9128 88.6352 85.124 88.2867 85.2677C87.9382 85.4114 87.5647 85.4848 87.1878 85.4837C86.8108 85.4825 86.4378 85.4069 86.0902 85.261C85.7426 85.1152 85.4273 84.902 85.1624 84.6339L65.7415 65.214L69.7852 61.1704L78.2274 69.6115C78.4075 69.7832 78.6476 69.8777 78.8965 69.8747C79.1453 69.8718 79.3831 69.7716 79.5591 69.5957C79.7351 69.4197 79.8353 69.1819 79.8382 68.9331C79.8412 68.6842 79.7467 68.4441 79.575 68.264L70.4595 59.1485C70.3711 59.0598 70.2661 58.9894 70.1505 58.9413C70.0349 58.8933 69.9109 58.8686 69.7857 58.8686C69.6605 58.8686 69.5365 58.8933 69.4209 58.9413C69.3053 58.9894 69.2003 59.0598 69.112 59.1485L69.009 59.2514L65.0124 56.3966L59.6762 51.0604C59.5613 50.9456 59.419 50.862 59.2627 50.8176C59.1064 50.7732 58.9414 50.7695 58.7833 50.8068C58.6251 50.8441 58.4792 50.9213 58.3593 51.0309C58.2393 51.1404 58.1494 51.2789 58.098 51.433L56.7501 55.4767C56.6941 55.6447 56.686 55.8249 56.7267 55.9972C56.7674 56.1694 56.8552 56.327 56.9804 56.4522L60.9684 60.4401L63.8233 64.4365L63.7202 64.5396C63.5415 64.7184 63.4412 64.9607 63.4412 65.2134C63.4412 65.4661 63.5415 65.7084 63.7202 65.8871L83.8139 85.9814C84.2556 86.4239 84.7802 86.775 85.3578 87.0146C85.9353 87.2542 86.5544 87.3776 87.1796 87.3777H87.1879C87.9683 87.3765 88.7364 87.1838 89.425 86.8165C90.1135 86.4491 90.7013 85.9184 91.1369 85.2709C91.5725 84.6234 91.8425 83.8788 91.9232 83.1026C92.0039 82.3264 91.8928 81.5423 91.5998 80.819ZM61.6981 58.474L58.7449 55.5207L59.4188 53.4989L63.0459 57.1261L62.3721 57.8001L61.6981 58.474ZM65.1895 63.0702L62.943 59.9249L63.72 59.1478L64.497 58.3709L67.6423 60.6174L65.3374 62.9217L65.1895 63.0702Z" fill="white"/>
<path d="M81.5967 72.5864C81.7534 72.5863 81.9076 72.5475 82.0458 72.4736C82.1839 72.3996 82.3017 72.2928 82.3887 72.1624C82.4757 72.0321 82.5292 71.8824 82.5445 71.7264C82.5598 71.5705 82.5365 71.4132 82.4765 71.2684C82.4165 71.1237 82.3218 70.9959 82.2006 70.8965C82.0795 70.7971 81.9358 70.7291 81.7821 70.6985C81.6284 70.6679 81.4696 70.6757 81.3196 70.7211C81.1697 70.7665 81.0332 70.8482 80.9224 70.9589C80.7889 71.0922 80.698 71.2621 80.6612 71.4471C80.6243 71.6321 80.6432 71.8239 80.7154 71.9981C80.7876 72.1724 80.9099 72.3213 81.0668 72.426C81.2237 72.5307 81.4081 72.5865 81.5967 72.5864Z" fill="white"/>
<path d="M31.9532 75.5625C31.7004 75.5625 31.458 75.6629 31.2792 75.8417C31.1005 76.0204 31 76.2629 31 76.5156C31 76.7684 31.1005 77.0109 31.2792 77.1896C31.458 77.3684 31.7004 77.4688 31.9532 77.4688C36.5986 77.4688 40.0465 76.1779 42.2012 73.6324C43.5472 72.0359 44.3036 70.0253 44.3438 67.9375V67.9357C44.3435 67.8934 44.3404 67.8512 44.3345 67.8093C44.3332 67.8002 44.3316 67.7911 44.3301 67.782C44.3243 67.7471 44.3166 67.7126 44.307 67.6785C44.3051 67.6715 44.3036 67.6645 44.3015 67.6574C44.2911 67.6238 44.279 67.5907 44.2652 67.5583C44.2631 67.5538 44.2606 67.5497 44.2586 67.5452C44.2542 67.5353 44.2491 67.5259 44.2443 67.5161C44.23 67.4873 44.2146 67.4595 44.1978 67.4327C44.1925 67.4242 44.1874 67.4155 44.1818 67.407C44.1593 67.3732 44.1347 67.3409 44.1081 67.3103C44.1053 67.3069 44.1019 67.3039 44.0989 67.3006C44.0744 67.2734 44.0482 67.2477 44.0207 67.2235C44.0132 67.2168 44.0055 67.2103 43.9978 67.2037C43.9669 67.1779 43.9345 67.1541 43.9007 67.1323C43.8957 67.1292 43.8903 67.1265 43.8853 67.1236C43.8545 67.1051 43.8227 67.0883 43.79 67.0734C43.7841 67.0707 43.7788 67.067 43.7729 67.0643C43.087 66.7636 36.992 64.125 34.3793 64.125C32.9506 64.125 32.2934 65.0151 31.8138 65.6649C31.658 65.8898 31.4837 66.1012 31.2928 66.2971C31.1105 66.4722 31.0052 66.7126 31.0002 66.9654C30.9951 67.2181 31.0907 67.4625 31.2658 67.6448C31.441 67.8271 31.6814 67.9323 31.9341 67.9374C32.1869 67.9424 32.4313 67.8469 32.6136 67.6717C32.8831 67.4021 33.1286 67.1094 33.3474 66.7971C33.8056 66.1764 33.9558 66.0313 34.3793 66.0313C35.7131 66.0313 38.62 67.0453 40.8232 67.9094C38.5347 68.7274 34.8765 69.8438 31.9532 69.8438C31.7004 69.8438 31.458 69.9442 31.2792 70.1229C31.1005 70.3017 31 70.5441 31 70.7969C31 71.0497 31.1005 71.2921 31.2792 71.4709C31.458 71.6496 31.7004 71.75 31.9532 71.75C35.549 71.75 39.9558 70.2863 42.2406 69.4237C41.6929 71.6729 39.6352 75.5625 31.9532 75.5625Z" fill="white"/>
<path d="M59.8729 42.8772C60.0516 43.0559 60.2941 43.1563 60.5468 43.1563C60.7996 43.1563 61.0421 43.0559 61.2208 42.8772C61.3996 42.6984 61.5 42.456 61.5 42.2032C61.5 41.9504 61.3996 41.708 61.2208 41.5292L58.3615 38.6698C58.2729 38.5813 58.1679 38.5111 58.0522 38.4632C57.9366 38.4153 57.8126 38.3907 57.6875 38.3907C57.5623 38.3907 57.4384 38.4153 57.3227 38.4632C57.2071 38.5111 57.102 38.5813 57.0135 38.6698C56.9778 38.7056 53.4084 42.2032 47.2031 42.2032H38.625C38.3722 42.2032 38.1298 42.3036 37.951 42.4823C37.7723 42.6611 37.6719 42.9035 37.6719 43.1563C37.6719 43.4091 37.7723 43.6515 37.951 43.8303C38.1298 44.009 38.3722 44.1094 38.625 44.1094H47.2031C49.5458 44.1185 51.8663 43.6555 54.0261 42.7481C54.0291 42.7514 54.0319 42.7548 54.035 42.758L56.0604 44.7834C56.1489 44.8719 56.254 44.9421 56.3696 44.99C56.4852 45.0379 56.6092 45.0626 56.7344 45.0626C56.8595 45.0626 56.9835 45.0379 57.0991 44.99C57.2147 44.9421 57.3198 44.8719 57.4083 44.7834C57.4968 44.6949 57.567 44.5898 57.6149 44.4742C57.6628 44.3585 57.6875 44.2346 57.6875 44.1094C57.6875 43.9843 57.6628 43.8603 57.6149 43.7447C57.567 43.629 57.4968 43.524 57.4083 43.4355L55.8289 41.8561C56.4608 41.496 57.0656 41.0903 57.6386 40.6424L59.8729 42.8772Z" fill="white"/>
<path d="M35.4097 38.3217C35.5998 38.3982 35.8094 38.4115 36.0075 38.3595C36.2057 38.3076 36.3818 38.1932 36.5099 38.0333C40.2342 33.3775 45.9527 31.7188 50.0625 31.7188C54.0129 31.7188 56.9974 32.5306 60.0417 34.4333C60.186 34.5235 60.3517 34.5734 60.5218 34.5779C60.6919 34.5823 60.8601 34.5412 61.0089 34.4587C61.1577 34.3762 61.2817 34.2554 61.3681 34.1088C61.4544 33.9622 61.5 33.7952 61.5 33.6251C61.4385 32.2559 61.0164 30.9272 60.2763 29.7737C59.1696 28.0523 56.8296 26.0001 51.9687 26.0001C43.7178 26.0001 39.4979 29.0409 37.4108 31.5918C35.1076 34.4067 34.8273 37.2324 34.8164 37.3513C34.7979 37.5553 34.8456 37.7599 34.9525 37.9347C35.0593 38.1095 35.2197 38.2452 35.4097 38.3217ZM38.886 32.7989C41.5048 29.5981 46.0288 27.9063 51.9687 27.9063C56.695 27.9063 58.492 30.0985 59.175 31.7706C56.4291 30.4249 53.539 29.8126 50.0625 29.8126C46.5519 29.8126 41.9771 30.9107 38.1657 33.7898C38.3866 33.446 38.6271 33.1152 38.886 32.7989Z" fill="white"/>
<path d="M35.7828 53.0271C38.1171 54.9026 41.7253 55.9491 47.1378 56.3207C47.1601 56.3222 47.1822 56.323 47.2041 56.323C47.4514 56.3231 47.689 56.2271 47.8668 56.0553C48.0447 55.8834 48.1487 55.6492 48.1571 55.4021C48.1654 55.1549 48.0774 54.9142 47.9116 54.7307C47.7458 54.5473 47.5151 54.4355 47.2684 54.4189C42.3316 54.0801 38.9652 53.1387 36.9767 51.5411C36.8962 51.4775 36.8311 51.3964 36.7864 51.304C36.7417 51.2116 36.7186 51.1103 36.7188 51.0077C36.7176 50.8959 36.7454 50.7857 36.7996 50.688C36.8538 50.5902 36.9324 50.5082 37.0278 50.45C37.1271 50.3879 37.2408 50.3528 37.3577 50.3479C37.4747 50.3431 37.5909 50.3687 37.695 50.4223C42.1947 52.6618 50.6582 52.6875 51.0156 52.6875C51.2684 52.6875 51.5108 52.5871 51.6896 52.4084C51.8683 52.2296 51.9687 51.9872 51.9687 51.7344C51.9687 51.4816 51.8683 51.2392 51.6896 51.0605C51.5108 50.8817 51.2684 50.7813 51.0156 50.7813C50.9322 50.7813 42.6472 50.7575 38.5446 48.716C38.15 48.5172 37.7109 48.4232 37.2695 48.4431C36.8281 48.463 36.3993 48.5961 36.0242 48.8295C35.6747 49.0476 35.3826 49.3463 35.1725 49.7006C34.9624 50.055 34.8404 50.4546 34.8167 50.8658C34.7931 51.2771 34.8685 51.688 35.0366 52.0641C35.2047 52.4402 35.4606 52.7704 35.7828 53.0271Z" fill="white"/>
<path d="M53.8752 56.5C54.4016 56.5 54.8284 56.0733 54.8284 55.5469C54.8284 55.0205 54.4016 54.5938 53.8752 54.5938C53.3488 54.5938 52.9221 55.0205 52.9221 55.5469C52.9221 56.0733 53.3488 56.5 53.8752 56.5Z" fill="white"/>
<path d="M54.8284 52.6876C55.3548 52.6876 55.7815 52.2608 55.7815 51.7344C55.7815 51.208 55.3548 50.7813 54.8284 50.7813C54.302 50.7813 53.8752 51.208 53.8752 51.7344C53.8752 52.2608 54.302 52.6876 54.8284 52.6876Z" fill="white"/>
<path d="M50.0625 56.5C50.5889 56.5 51.0156 56.0733 51.0156 55.5469C51.0156 55.0205 50.5889 54.5938 50.0625 54.5938C49.5361 54.5938 49.1094 55.0205 49.1094 55.5469C49.1094 56.0733 49.5361 56.5 50.0625 56.5Z" fill="white"/>
</g>
<defs>
<filter id="filter0_d" x="0" y="0" width="122" height="122" filterUnits="userSpaceOnUse" color-interpolation-filters="sRGB">
<feFlood flood-opacity="0" result="BackgroundImageFix"/>
<feColorMatrix in="SourceAlpha" type="matrix" values="0 0 0 0 0 0 0 0 0 0 0 0 0 0 0 0 0 0 127 0"/>
<feOffset dy="4"/>
<feGaussianBlur stdDeviation="2"/>
<feColorMatrix type="matrix" values="0 0 0 0 0 0 0 0 0 0 0 0 0 0 0 0 0 0 0.43 0"/>
<feBlend mode="normal" in2="BackgroundImageFix" result="effect1_dropShadow"/>
<feBlend mode="normal" in="SourceGraphic" in2="effect1_dropShadow" result="shape"/>
</filter>
<linearGradient id="paint0_linear" x1="61" y1="0" x2="61" y2="114" gradientUnits="userSpaceOnUse">
<stop stop-color="#20395D"/>
<stop offset="0.409375" stop-color="#216477"/>
<stop offset="1" stop-color="#113263"/>
</linearGradient>
<clipPath id="clip0">
<rect width="61" height="61" fill="white" transform="translate(31 26)"/>
</clipPath>
</defs>
</svg>
