<svg width="1440" height="112" viewBox="0 0 1440 112" fill="none" xmlns="http://www.w3.org/2000/svg">
<path fill-rule="evenodd" clip-rule="evenodd" d="M1440 37.5015L1380 47.0949C1320 56.6884 1200 75.4392 1080 91.1375C960 106.836 840 119.482 720 106.836C600 94.19 480 56.6884 360 47.095C240 37.5016 120 56.6885 60 65.8458L-3.19625e-06 75.4393L-9.79136e-06 -3.81091e-06L60 -9.05628e-06C120 -1.43016e-05 240 -2.47924e-05 360 -3.52831e-05C480 -4.57738e-05 600 -5.62646e-05 720 -6.67553e-05C840 -7.7246e-05 960 -8.77368e-05 1080 -9.82275e-05C1200 -0.000108718 1320 -0.000119209 1380 -0.000124454L1440 -0.0001297L1440 37.5015Z" fill="#ECEFF4"/>
</svg>
