<svg width="135" height="134" viewBox="0 0 135 134" fill="none" xmlns="http://www.w3.org/2000/svg">
<path d="M37.4626 83.7444L54.2677 69.1095M37.4626 83.7444C37.4626 83.7444 36.6684 121.189 37.4626 122.243C38.2568 123.298 40.5061 124.683 40.5061 124.683M37.4626 83.7444C37.7288 80.1171 37.3553 78.7626 34.9485 78.6024H20.9884M54.2677 69.1095L40.3737 18.0852L67.897 11.0974M54.2677 69.1095L57.5758 80.8438H67.897M67.897 11.0974V2H133V132H104.021M67.897 11.0974V28.2373M67.897 80.8438V28.2373M67.897 80.8438L57.5758 40.6308C61.9145 38.5526 63.7914 36.4271 64.5889 28.2373H67.897M67.897 80.8438H78.3505M113.416 92.9736C119.371 94.2921 122.943 80.8438 113.416 80.8438C103.889 80.8438 78.3505 80.8438 78.3505 80.8438M113.416 92.9736C116.517 92.9736 121.356 92.9736 121.356 92.9736M113.416 92.9736C101.479 92.9736 82.8495 92.9736 82.8495 92.9736M121.356 92.9736C129.692 92.9736 129.03 105.763 121.356 105.763C113.681 105.763 113.416 105.763 113.416 105.763M121.356 92.9736C121.614 80.1529 122.017 60.144 122.017 60.144M113.416 105.763C121.356 104.84 123.076 119.475 113.416 119.475C103.757 119.475 107.69 119.475 104.021 119.475C95.7531 119.475 82.8495 119.475 82.8495 119.475M113.416 105.763H82.8495M104.021 132C104.021 132 51.7533 132 49.6364 132C47.5195 132 42.3589 128.968 40.5061 124.683M104.021 132C112.755 132 114.342 120.661 104.021 120.002M121.356 37.8621V25.9959C116.3 25.0019 114.224 23.6309 113.416 18.0852H88.4071C86.4062 22.9944 84.6225 25.1231 78.3505 25.9959V80.8438M122.017 47.4868V51.9696M40.5061 124.683C39.5796 129.399 38.4536 131.143 34.9485 132H7.02828C4.29155 131.819 3.13674 130.959 2 127.649V83.7444C2.2885 79.7107 3.59424 78.8311 7.02828 78.6024H20.9884M20.9884 78.6024V111.959M100.978 55.6613C114.21 55.6613 114.739 76.0974 100.978 76.7566C87.2162 77.4158 85.9339 55.9491 100.978 55.6613Z" stroke="#022F38" stroke-width="4"/>
</svg>
