<svg width="150" height="103" viewBox="0 0 150 103" fill="none" xmlns="http://www.w3.org/2000/svg">
<path d="M138.371 40.94H98.4029V10.976M138.371 40.94L148 52.82V84.104H131.697M138.371 40.94L124.125 10.976H98.4029M9.62923 60.344H37.3298M0 40.94H48.8057M8.44207 21.404H56.4563M98.4029 10.976V2H15.8289V84.104H32.6261M115.683 68.132C92.7423 68.1266 94.461 100.992 115.023 101M115.683 68.132C126.944 68.132 131.949 76.0439 131.697 84.104M115.683 68.132C104.422 68.132 99.0987 76.0439 99.0277 84.104M115.023 101C125.505 101 131.435 92.4721 131.697 84.104M115.023 101C104.542 101 98.9541 92.4721 99.0277 84.104M32.6261 84.104C32.6466 76.0439 37.8685 68.132 48.8057 68.132C59.7429 68.132 64.9648 76.0439 64.9853 84.104M32.6261 84.104C32.6047 92.4721 38.1897 101 48.8057 101C59.4217 101 65.0067 92.4721 64.9853 84.104M99.0277 84.104H64.9853" stroke="#022F38" stroke-width="4"/>
</svg>
