<svg width="106" height="106" viewBox="0 0 106 106" fill="none" xmlns="http://www.w3.org/2000/svg">
<circle cx="53" cy="53" r="53" fill="url(#paint0_linear)"/>
<path d="M70 48.8689V31.082H60.2774M70 57.7623V81H36V31.082H44.3836M44.3836 31.082H60.2774M44.3836 31.082V28.3852V25H60.2774V31.082M65.75 67.1721V76.0656H40.774V67.1721M65.75 67.1721H40.774M65.75 67.1721V57.7623M40.774 67.1721V57.7623M40.774 57.7623V41.0656M40.774 57.7623L51.3975 58M65.75 57.7623V48.8689M65.75 57.7623H53.8879M65.75 48.8689V41.0656V35.9016H40.774V41.0656M65.75 48.8689H56.0403M40.774 41.0656V48.8689H49.554M49.554 48.8689C50.9897 46.0642 52.3408 43.4968 52.5342 43.3607H58.9384L56.0403 48.8689M49.554 48.8689C48.5703 50.7906 47.5468 52.8236 46.8288 54.2623L52 54.5L51.3975 58M56.0403 48.8689L54.6245 51.7469H60.0389L53.8879 57.7623M51.3975 58L51.0788 60.6885L53.8879 57.7623" stroke="white" stroke-width="2" stroke-linecap="round"/>
<defs>
<linearGradient id="paint0_linear" x1="53" y1="0" x2="53" y2="106" gradientUnits="userSpaceOnUse">
<stop stop-color="#FDAE39"/>
<stop offset="1" stop-color="#C04A1E"/>
</linearGradient>
</defs>
</svg>
