<svg width="51" height="44" viewBox="0 0 51 44" fill="none" xmlns="http://www.w3.org/2000/svg">
<path fill-rule="evenodd" clip-rule="evenodd" d="M12.8524 0.190005C12.5511 0.324673 12.3351 0.527019 12.0949 0.899983C11.91 1.1869 9.11313 5.93023 5.87947 11.4407C0.0532955 21.3689 0 21.4647 0 22C0 22.5353 0.0532955 22.6311 5.87947 32.5593C9.11313 38.0698 11.91 42.8131 12.0949 43.1C12.7266 44.0807 11.4974 43.9983 25.5 43.9983C39.5026 43.9983 38.2734 44.0807 38.9051 43.1C39.09 42.8131 41.8869 38.0698 45.1205 32.5593C50.9467 22.6311 51 22.5353 51 22C51 21.4647 50.9467 21.3689 45.1205 11.4407C41.8869 5.93023 39.09 1.1869 38.9051 0.899983C38.2734 -0.0807053 39.5026 0.00170618 25.5 0.00170618C13.6628 0.00170618 13.2606 0.00769795 12.8524 0.190005ZM27.4729 10.9083C29.574 11.2264 31.9712 12.4563 33.5841 14.0437C34.8815 15.3205 36.0219 17.2308 36.5184 18.9591C37.0513 20.8143 37.0513 23.1857 36.5184 25.0409C36.0219 26.7692 34.8815 28.6795 33.5841 29.9563C32.2868 31.2331 30.3458 32.3555 28.5897 32.8441C26.7047 33.3686 24.2953 33.3686 22.4103 32.8441C21.3092 32.5377 19.5486 31.6834 18.6746 31.0314C17.1722 29.9106 16.0936 28.6238 15.2626 26.9604C14.2789 24.9918 13.9122 23.0313 14.1288 20.8991C14.274 19.4692 14.5957 18.3744 15.2626 17.0396C16.4186 14.7258 18.1075 13.0635 20.4599 11.924C22.6998 10.839 24.9049 10.5196 27.4729 10.9083Z" fill="black"/>
</svg>
