<svg width="147" height="147" viewBox="0 0 147 147" fill="none" xmlns="http://www.w3.org/2000/svg">
<path d="M44.5254 99.2829C41.3547 105.656 39.0631 112.05 38.1095 118C38.1095 118 42.0058 110.58 47.2361 101.824M44.5254 99.2829C55.169 77.888 75.7186 56.7212 88.8134 53.3322C88.8134 53.3322 70.0387 69.9292 60.1717 82.4374C55.83 87.9413 51.158 95.2586 47.2361 101.824M44.5254 99.2829C41.9614 97.2417 40.678 89.5727 41.8216 80.9938M47.2361 101.824C55.159 103.825 60.3158 102.884 70.1803 99.2829C67.5105 98.2473 66.7234 97.3305 65.6481 95.5395C77.4515 93.2437 83.2442 90.6767 90.1974 80.8465C84.9874 81.1219 82.429 80.9579 79.2446 79.4427C90.0544 76.6503 95.5641 74.2013 102.85 65.7792C100.195 66.4049 98.7069 66.5325 96.0515 65.7792C99.7323 59.0573 103.213 54.1259 108.145 49.6559M44.309 38.265L45.1588 34.428M45.7253 32.7434L46.6695 29M46.3863 33.8665L49.9742 35.2702M44.309 33.2114L41.0043 31.9012M91.0472 102.839L91.897 99.0021M92.3691 97.5983L93.2189 94.0421M92.9356 98.4406L96.5236 99.5636M91.5193 97.9727L88.4034 96.8497M108.145 49.6559C109.542 50.6516 110.186 51.7738 110.781 53.5195C111.594 49.8837 113.091 49.0928 116.258 48.2787C114.579 47.5112 113.491 46.7929 112.701 45.9537M108.145 49.6559C107.485 49.1861 106.658 48.7444 105.588 48.2787C108.193 46.8377 109.404 45.6741 110.781 42.4763C111.317 43.94 111.825 45.0214 112.701 45.9537M112.701 45.9537C115.839 43.6518 119.521 41.3745 124 38.92C108.987 32.3691 95.0129 33.6793 83.6824 42.0084C82.8388 40.1079 82.8965 39.0424 83.6824 37.1419C69.7082 39.2008 60.8892 44.5751 54.1288 65.7792C52.2858 63.5307 52.0774 61.8331 52.1459 58.5731C47.4086 63.025 44.458 69.2478 42.8738 75.5121M41.8216 80.9938C42.4702 81.265 43.07 81.6407 43.5536 82.1567C42.9996 78.6054 43.8618 77.4148 45.7253 75.5121C43.106 75.7932 41.6031 75.5007 38.7382 72.4238C38.7894 76.5882 36 80.4722 36 80.4722C36 80.4722 39.2842 79.9329 41.8216 80.9938Z" stroke="white" stroke-width="2"/>
<circle cx="73.5" cy="73.5" r="72.5" stroke="white" stroke-width="2"/>
</svg>
