<svg width="147" height="147" viewBox="0 0 147 147" fill="none" xmlns="http://www.w3.org/2000/svg">
<path d="M46.31 41.9966V48.1677M52.967 48.1677V54.3387M48.2789 55.9282V62.0993M102.754 43.4926V51.4402M96.5659 49.9442V55.8347M101.348 60.5098V66.9613M62.5306 58.2658C-1.41469 123.81 122.444 145.502 100.316 76.8724C93.5292 82.5805 89.2525 81.641 88.5033 78.3684C87.7541 75.0959 96.7851 65.4693 89.2525 57.5178C87.9389 61.5643 86.6329 63.2077 82.408 64.0628C83.2949 57.3841 83.1869 53.5517 77.5324 45.9236C71.8779 38.2956 75.0959 29 75.0959 29C70.0772 34.0659 63.3804 34.1361 63.845 41.9966C65.6829 49.7815 66.6561 54.0371 62.5306 58.2658ZM73.8757 60.5098C80.8563 71.8295 88.1274 79.9733 81.0953 85.5684C72.2818 92.581 83.2518 103.125 91.8778 89.6614C100.058 120.679 46.2587 120.63 57.1862 91.9261C60.1822 86.8325 65.8593 81.1735 69.9612 77.7139C74.0632 74.2544 74.9455 68.2303 73.8757 60.5098Z" stroke="white" stroke-width="2"/>
<circle cx="73.5" cy="73.5" r="72.5" stroke="white" stroke-width="2"/>
</svg>
