<svg width="122" height="122" fill="none" xmlns="http://www.w3.org/2000/svg"><g filter="url(#filter0_d)"><circle cx="61" cy="57" r="57" fill="url(#paint0_linear)"/></g><g clip-path="url(#clip0)" fill="#fff"><path d="M61.297 85.654c-2.125 0-4.25-.428-6.216-1.283l-9.405-4.089c-3.402-1.48-7-2.417-10.692-2.786l-3.089-.309a.994.994 0 01-.895-.99V66.51c0-.215.07-.424.2-.596.23-.309 5.765-7.54 14.22-5.659 4.756 1.057 8.585 3.034 10.96 4.508 1.724 1.069 3.745 1.634 5.844 1.634h9.405c1.621 0 3.046.857 3.843 2.144l8.1-9.332c1.57-2.097 4.14-3.381 6.829-3.381h.605a.993.993 0 01.91 1.394l-7.326 16.65a13.052 13.052 0 01-8.723 7.356l-1.289.322-7.498 3a15.596 15.596 0 01-5.783 1.104zm-28.31-10.356l2.194.22a37.71 37.71 0 0111.288 2.941l9.404 4.089a13.677 13.677 0 0010.469.154l7.559-3.023c.042-.017.085-.03.128-.041l1.355-.34a11.049 11.049 0 007.385-6.228l6.682-15.186a6.646 6.646 0 00-4.334 2.572l-8.973 10.342.002.116a4.523 4.523 0 01-4.518 4.517h-13.12a15.82 15.82 0 00-5.01.813l-.365-.927-.309-.945.05-.016a17.794 17.794 0 015.634-.913h13.121a2.533 2.533 0 002.53-2.53 2.532 2.532 0 00-2.53-2.529h-9.404c-2.47 0-4.854-.668-6.892-1.933-2.243-1.391-5.86-3.259-10.342-4.256-6.404-1.42-11.011 3.494-12.002 4.666v8.437zm37.162-19.695c-1.529 0-3.243-.472-5.13-1.416a1 1 0 01-.492-.554c-.077-.216-1.853-5.325.97-9.104 2.051-2.746 5.909-3.983 11.472-3.673a.993.993 0 01.936.943c.02.395.43 9.712-4.32 12.814-1.01.66-2.159.99-3.436.99zm-3.863-3.011c2.611 1.224 4.699 1.345 6.212.357 2.817-1.84 3.426-7.302 3.441-10.145-4.358-.107-7.326.876-8.85 2.915-1.813 2.428-1.108 5.768-.803 6.873zM54.947 42.579c-1.763 0-3.796-.378-5.57-1.678-3.01-2.206-4.394-6.405-4.113-12.48a.995.995 0 01.934-.947c.43-.024 10.608-.568 14.033 4.573 1.595 2.393 1.464 5.527-.388 9.317a.993.993 0 01-.55.496c-.133.05-2 .719-4.346.719zm4.003-1.652h.01-.01zM47.22 29.43c-.085 4.867 1.033 8.184 3.33 9.867 2.751 2.016 6.507 1.159 7.688.815 1.35-2.932 1.465-5.272.339-6.963-2.093-3.142-8.232-3.756-11.356-3.719z"/><path d="M62.71 68.035a.994.994 0 01-.994-1.044c.06-1.17.16-2.279.295-3.33.414-7.035.2-23.417-10.157-27.949a.994.994 0 01.797-1.82c6.103 2.67 9.943 9.318 11.102 19.225.104.888.182 1.764.24 2.616 2.728-6.893 6.9-9.328 7.15-9.468a.994.994 0 01.976 1.731c-.105.062-6.504 3.902-8.11 15.745a47.655 47.655 0 01-.316 3.436.994.994 0 01-.983.858z"/></g><defs><linearGradient id="paint0_linear" x1="61" y1="0" x2="61" y2="114" gradientUnits="userSpaceOnUse"><stop stop-color="#20395D"/><stop offset=".409" stop-color="#216477"/><stop offset="1" stop-color="#113263"/></linearGradient><clipPath id="clip0"><path fill="#fff" transform="translate(31 26)" d="M0 0h61v61H0z"/></clipPath><filter id="filter0_d" x="0" y="0" width="122" height="122" filterUnits="userSpaceOnUse" color-interpolation-filters="sRGB"><feFlood flood-opacity="0" result="BackgroundImageFix"/><feColorMatrix in="SourceAlpha" values="0 0 0 0 0 0 0 0 0 0 0 0 0 0 0 0 0 0 127 0"/><feOffset dy="4"/><feGaussianBlur stdDeviation="2"/><feColorMatrix values="0 0 0 0 0 0 0 0 0 0 0 0 0 0 0 0 0 0 0.43 0"/><feBlend in2="BackgroundImageFix" result="effect1_dropShadow"/><feBlend in="SourceGraphic" in2="effect1_dropShadow" result="shape"/></filter></defs></svg>