<svg width="64" height="64" fill="none" xmlns="http://www.w3.org/2000/svg"><path d="M52.352 19.632c-6.752-6.784-17.68-6.784-24.416 0-6.736 6.784-6.736 17.792 0 24.576 6.736 6.784 17.68 6.784 24.416 0 6.752-6.8 6.752-17.792 0-24.576z" fill="#72BF00"/><path d="M22.864 31.904c0-5.824 2.88-10.976 7.296-14.096l-4.736-4.736L6.592 31.904l18.832 18.832L30.16 46a17.223 17.223 0 01-7.296-14.096z" fill="#BDCCD4"/><path d="M30.112 17.76c-4.432 3.136-7.328 8.304-7.328 14.144a17.254 17.254 0 007.328 14.144l14.16-14.144-14.16-14.144z" fill="#03755F"/></svg>