<svg width="100" height="101" viewBox="0 0 100 101" fill="none" xmlns="http://www.w3.org/2000/svg">
<g clip-path="url(#clip0)">
<path d="M58.4687 37.5669C54.5727 37.5669 50.9749 38.7987 48.0303 40.9003H28.8613C27.8744 40.9003 27.2166 41.5669 27.2166 42.5669C27.2166 43.5669 27.8744 44.2335 28.8613 44.2335H44.484C42.9181 46.1616 41.7351 48.4228 41.0497 50.9001H28.8613C27.8744 50.9001 27.2166 51.5667 27.2166 52.5667C27.2166 53.5667 27.8744 54.2333 28.8613 54.2333H40.4496C40.4015 54.7821 40.3754 55.3378 40.3754 55.8999C40.3754 57.6351 40.6106 59.3118 41.0499 60.8999H28.8615C27.8746 60.8999 27.2167 61.5665 27.2167 62.5665C27.2167 63.5665 27.8746 64.2331 28.8615 64.2331H42.3321C45.3142 70.1813 51.4018 74.2331 58.4689 74.2331C68.5024 74.2331 76.5623 66.0665 76.5623 55.8997C76.5619 45.7337 68.5022 37.5669 58.4687 37.5669ZM58.4687 70.9003C50.2443 70.9003 43.665 64.2337 43.665 55.9003C43.665 54.9458 43.7552 54.0147 43.9204 53.1114C43.9503 53.0067 43.9709 52.896 43.9825 52.78C44.7146 49.2241 46.6759 46.1478 49.4014 44.0161C49.5319 43.9421 49.6532 43.8509 49.7611 43.7433C52.1991 41.9542 55.2032 40.9003 58.4687 40.9003C66.693 40.9003 73.2723 47.5669 73.2723 55.9003C73.2723 64.2337 66.6928 70.9003 58.4687 70.9003Z" fill="white"/>
<path d="M67.5152 47.7339C66.6927 47.2339 65.7058 47.4005 65.2124 48.2339L56.4946 61.5673L51.3956 56.4007C50.7377 55.7341 49.7508 55.7341 49.0928 56.4007C48.4349 57.0673 48.4349 58.0673 49.0928 58.7341L55.6721 65.4007C56.0011 65.7341 56.33 65.9007 56.8234 65.9007C57.4813 65.9007 57.9748 65.5673 58.1394 65.0673L68.0085 50.0673C68.5021 49.2339 68.3377 48.2339 67.5152 47.7339Z" fill="white"/>
<path d="M89.7207 0.900391H25.5715C20.9659 0.900391 17.3471 4.56699 17.3471 9.23379V77.5672H5.83324C3.03692 77.5672 0.898682 79.7338 0.898682 82.5672V90.9004C0.898682 96.4004 5.33978 100.9 10.7678 100.9H72.2853H73.2722C75.7395 100.9 78.0424 99.9004 79.8516 98.2338C81.9898 96.4004 83.1413 93.7338 83.1413 90.9004V24.2338H94.6552C97.4515 24.2338 99.5898 22.0672 99.5898 19.2338V10.9004C99.5898 5.40039 95.1487 0.900391 89.7207 0.900391ZM10.7678 97.567C7.14918 97.567 4.18845 94.567 4.18845 90.9004V82.567C4.18845 81.7336 4.84633 80.9004 5.83324 80.9004H18.9921H63.4031V90.567V90.9004C63.4031 93.4004 64.2256 95.7338 65.8704 97.567H10.7678ZM79.8516 10.9004V90.9004C79.8516 92.9004 79.0291 94.567 77.7133 95.9004C76.4754 96.876 75.0074 97.4998 73.5018 97.5813C73.4272 97.5729 73.3512 97.5672 73.2722 97.5672C72.1567 97.5672 71.1043 97.2812 70.1814 96.7797C68.1183 95.6002 66.6929 93.265 66.6929 90.5672V79.2338C66.6929 78.2338 66.035 77.5672 65.0481 77.5672H20.6369V9.23379C20.6369 6.40039 22.7751 4.23379 25.5715 4.23379H82.3188C82.0021 4.62598 81.7099 5.04219 81.4433 5.47676C80.5187 6.91758 79.9483 8.61035 79.8635 10.4271C79.8556 10.5842 79.8516 10.742 79.8516 10.9004ZM96.3 19.2338C96.3 20.0672 95.6421 20.9004 94.6552 20.9004H83.1413V10.9004C83.1413 7.23379 86.1021 4.23379 89.7207 4.23379C93.3393 4.23379 96.3 7.23379 96.3 10.9004V19.2338Z" fill="white"/>
<path d="M40.3753 14.2338H60.1135C61.1004 14.2338 61.7583 13.5672 61.7583 12.5672C61.7583 11.5672 61.1004 10.9004 60.1135 10.9004H40.3753C39.3883 10.9004 38.7305 11.567 38.7305 12.567C38.7305 13.567 39.3883 14.2338 40.3753 14.2338Z" fill="white"/>
<path d="M28.8613 24.2336H71.6275C72.6145 24.2336 73.2723 23.567 73.2723 22.567C73.2723 21.567 72.6145 20.9004 71.6275 20.9004H28.8613C27.8744 20.9004 27.2166 21.567 27.2166 22.567C27.2166 23.567 27.8744 24.2336 28.8613 24.2336Z" fill="white"/>
<path d="M28.8613 34.2336H71.6275C72.6145 34.2336 73.2723 33.567 73.2723 32.567C73.2723 31.567 72.6145 30.9004 71.6275 30.9004H28.8613C27.8744 30.9004 27.2166 31.567 27.2166 32.567C27.2166 33.567 27.8744 34.2336 28.8613 34.2336Z" fill="white"/>
</g>
<defs>
<clipPath id="clip0">
<rect width="98.6911" height="100" fill="white" transform="translate(0.898682 0.900391)"/>
</clipPath>
</defs>
</svg>
