<svg width="131" height="131" viewBox="0 0 131 131" fill="none" xmlns="http://www.w3.org/2000/svg">
<circle cx="65.5" cy="65.5" r="63.5" stroke="white" stroke-width="4"/>
<path d="M95.4848 64.1702C107.42 53.7206 105.587 31.8712 103.384 29.6639C102.152 28.4322 99.2598 34.3394 91.5573 39.0782C90.8883 39.7396 90.0438 43.3063 90.0847 48.4483C90.0847 48.4483 88.6358 44.7145 88.7558 40.7164C86.9696 41.68 85.0044 42.5907 82.9012 43.4503C76.1608 46.2043 71.4296 52.3758 70.5204 59.6003C70.4324 55.6903 68.08 52.7867 70.1273 47.7472C63.1932 49.7831 56.1446 51.7113 50.7946 54.2631C46.1659 56.4603 42.7605 60.5933 41.4786 65.5547C40.8451 68.0114 40.4342 71.0312 40.4607 74.837C39.9212 74.4688 37.9499 68.931 38.4547 63.0013C31.1067 70.7553 31.265 82.6553 33.8931 90.1878V90.1893C30.8982 87.8882 26 89.2359 26 89.2359C29.6284 89.736 31.5642 92.615 31.5642 92.615C26.2406 94.366 26 101.501 26 101.501C29.0036 95.243 37.1286 95.9178 37.1286 95.9178C37.1929 95.9824 37.2576 96.019 37.322 96.079C36.0051 83.3477 43.781 70.5103 56.8924 66.3186C64.9442 63.7448 82.9835 58.2815 90.0759 53.5694C85.9429 60.2013 63.7034 68.4526 58.3299 70.4179C46.6263 74.4876 39.8858 85.9551 40.2701 97.333C44.5348 97.273 49.8793 90.4167 60.5063 85.05C59.2568 83.6671 54.0942 81.3207 48.4272 82.8048C54.6777 79.3435 59.8109 79.0312 63.9556 79.6706C67.59 80.2311 71.315 79.6955 74.6382 78.1234C74.6412 78.1205 74.6473 78.119 74.6503 78.1175C80.8452 75.1521 87.6675 71.3684 93.1294 66.4654C92.3902 65.1766 89.0844 62.6742 84.8578 64.207C89.2929 61.6097 92.7656 62.5482 95.4848 64.1702Z" fill="white"/>
</svg>
