<svg width="131" height="131" viewBox="0 0 131 131" fill="none" xmlns="http://www.w3.org/2000/svg">
<circle cx="65.5" cy="65.5" r="63.5" stroke="white" stroke-width="4"/>
<path d="M35.4199 72.1375C34.4499 61.6964 38.9093 52.2387 46.3056 46.23C49.1888 43.8858 53.4999 45.8932 53.4999 49.5981C53.4999 50.9588 52.8533 52.2117 51.8024 53.0605C46.5616 57.3313 43.4091 64.0675 44.177 71.5043C45.174 81.191 52.9341 89.032 62.6073 90.1098C75.231 91.5244 85.9551 81.6356 85.9551 69.2948C85.9551 62.7472 82.9238 56.8867 78.195 53.047C77.1441 52.1983 76.5109 50.9453 76.5109 49.5981C76.5109 45.9336 80.7547 43.8588 83.6109 46.1491C90.3741 51.6055 94.7122 59.9449 94.7122 69.2948C94.7122 86.3914 80.1889 100.174 62.8229 98.9208C48.4612 97.9103 36.7537 86.4722 35.4199 72.1375ZM64.992 33C62.5669 33 60.6134 34.967 60.6134 37.3786V57.5468C60.6134 59.9719 62.5804 61.9254 64.992 61.9254C67.4035 61.9254 69.3705 59.9584 69.3705 57.5468V37.3786C69.3705 34.967 67.417 33 64.992 33Z" fill="white"/>
</svg>
