<svg width="100" height="101" viewBox="0 0 100 101" fill="none" xmlns="http://www.w3.org/2000/svg">
<g clip-path="url(#clip0)">
<path d="M94.5505 83.9004C84.7334 78.6254 77.2032 75.6676 70.4999 74.5336L71.1937 73.5672C71.5227 73.2338 71.6871 72.7338 71.5227 72.2338L69.9812 65.9863C70.5398 65.1861 71.0668 64.3588 71.5605 63.5082C77.6901 61.3943 80.7898 57.8211 81.3107 52.5602C84.0031 52.418 86.3262 49.983 86.3262 47.2338V34.7338C86.3262 31.9971 84.1775 29.5719 81.3627 29.4096C81.0005 19.7814 76.8108 0.900391 50.1395 0.900391C23.4676 0.900391 19.2783 19.7822 18.9161 29.4102C16.2458 29.5699 13.9528 31.8416 13.9528 34.7336V47.2336C13.9528 50.067 16.4201 52.567 19.3808 52.567H21.8481C22.7548 52.567 23.6263 52.3029 24.3854 51.851C25.3181 56.8676 27.3765 61.8018 30.298 65.9861L28.7565 72.2336C28.7565 72.567 28.7565 73.067 29.0855 73.567L29.7792 74.5334C23.076 75.6676 15.5458 78.6252 5.72869 83.9002C2.60335 85.4004 0.793945 88.567 0.793945 92.067V99.2336C0.793945 100.234 1.45182 100.9 2.43873 100.9H41.9152H42.573H57.7057H58.3636H97.8401C98.827 100.9 99.4848 100.234 99.4848 99.2338V92.0672C99.485 88.7338 97.5112 85.567 94.5505 83.9004ZM50.1486 80.0881L54.0871 89.2338H46.1369L50.1486 80.0881ZM44.9418 92.567H55.3308L56.2936 97.567H43.9547L44.9418 92.567ZM67.4104 69.2338L68.0683 72.2338L66.3881 74.5715C66.2809 74.6604 66.1816 74.768 66.0945 74.9004L59.2526 84.4994L57.0818 87.5197L52.6474 77.4102C58.0558 76.7418 62.872 73.9488 66.7335 69.9469C66.9617 69.7137 67.1876 69.4768 67.4104 69.2338ZM73.8333 58.866C74.761 56.5787 75.4603 54.2012 75.9025 51.8047C76.5288 52.1891 77.2418 52.4459 78.0105 52.533C77.7254 54.8889 76.6924 57.1131 73.8333 58.866ZM82.872 34.567V47.067C82.872 48.067 82.0495 49.067 80.8982 49.067H78.4309C77.444 49.067 76.4571 48.2336 76.4571 47.067V45.9004V34.567C76.4571 33.567 77.2795 32.567 78.4309 32.567H80.8982C81.8851 32.567 82.872 33.4004 82.872 34.567ZM50.1395 4.23379C60.2779 4.23379 77.3408 7.58731 78.0745 29.4275C77.3852 29.4992 76.725 29.7115 76.1278 30.0377C74.1263 17.3461 63.2058 7.56699 50.1395 7.56699C37.0749 7.56699 26.1556 17.3434 24.1519 30.0322C23.5636 29.7104 22.9067 29.4977 22.2043 29.427C22.9383 7.5873 40.0013 4.23379 50.1395 4.23379ZM23.6573 47.067C23.6573 48.067 22.8348 49.067 21.6835 49.067H19.2162C18.2293 49.067 17.2424 48.2336 17.2424 47.067V34.567C17.2424 33.567 18.0649 32.567 19.2162 32.567H21.6835C22.6704 32.567 23.6573 33.4004 23.6573 34.567V47.067ZM27.1115 34.2338C27.1115 21.4004 37.4741 10.9004 50.1395 10.9004C62.8049 10.9004 73.1675 21.4004 73.1675 34.2338V45.9004C73.1675 51.4145 71.7507 56.4627 69.4538 60.7221C65.5278 61.876 59.8798 62.567 51.7845 62.567C50.7976 62.567 50.1397 63.2336 50.1397 64.2336C50.1397 65.2336 50.7976 65.9002 51.7845 65.9002C57.7108 65.9002 62.6671 65.5314 66.726 64.7605C66.6251 64.8627 66.5243 64.9648 66.4235 65.067C65.596 66.185 64.7226 67.2043 63.8101 68.1234C59.9371 71.7795 55.3177 73.9941 50.8662 74.2135C50.6422 74.116 50.391 74.067 50.1395 74.067C49.8866 74.067 49.6588 74.1172 49.4544 74.2156C46.7296 74.0891 43.941 73.2139 41.2978 71.717C38.6198 70.158 36.1007 67.9105 33.8555 65.067C33.691 64.9004 33.5264 64.7336 33.362 64.567L33.266 64.5346C29.572 59.6256 27.1115 53.1676 27.1115 45.9004V34.2338ZM47.6314 77.4102L43.197 87.5197L41.0262 84.4994L34.1843 74.9004C34.1319 74.8473 34.074 74.7947 34.0139 74.743L32.2105 72.2338L32.8684 69.2338C33.091 69.4768 33.3169 69.7135 33.5447 69.9465C37.4064 73.9484 42.223 76.7416 47.6314 77.4102ZM4.08371 92.067C4.08371 89.9004 5.23504 87.9004 7.20887 86.9004C17.6934 81.2566 25.2408 78.424 31.9641 77.5779L41.7797 91.2533L40.5335 97.567H4.08371V92.067ZM96.1953 97.567H59.7455L58.4993 91.2533L68.4212 77.4297C75.1209 78.4541 82.8037 81.2846 93.0703 86.7336C95.0441 87.9002 96.1955 89.9002 96.1955 92.067V97.567H96.1953Z" fill="white"/>
</g>
<defs>
<clipPath id="clip0">
<rect width="98.6911" height="100" fill="white" transform="translate(0.793945 0.900391)"/>
</clipPath>
</defs>
</svg>
