<svg width="95" height="95" viewBox="0 0 95 95" fill="none" xmlns="http://www.w3.org/2000/svg">
<g clip-path="url(#clip0)">
<path d="M47.5 26.1251C46.8445 26.1251 46.3125 25.5931 46.3125 24.9376V20.1876C46.3125 19.5321 46.8445 19.0001 47.5 19.0001C48.1555 19.0001 48.6875 19.5321 48.6875 20.1876V24.9376C48.6875 25.5931 48.1555 26.1251 47.5 26.1251Z" fill="white"/>
<path d="M63.4554 32.7323C63.1514 32.7323 62.8474 32.6159 62.6147 32.3856C62.1516 31.9224 62.1516 31.1696 62.6147 30.7064L65.9729 27.3482C66.436 26.8851 67.1889 26.8851 67.652 27.3482C68.1152 27.8113 68.1152 28.5642 67.652 29.0273L64.2938 32.3856C64.0634 32.6159 63.7594 32.7323 63.4554 32.7323Z" fill="white"/>
<path d="M74.8125 48.6876H70.0625C69.407 48.6876 68.875 48.1556 68.875 47.5001C68.875 46.8446 69.407 46.3126 70.0625 46.3126H74.8125C75.468 46.3126 76 46.8446 76 47.5001C76 48.1556 75.468 48.6876 74.8125 48.6876Z" fill="white"/>
<path d="M66.8137 68.0011C66.5097 68.0011 66.2057 67.8847 65.9729 67.6543L62.6147 64.2961C62.1516 63.8329 62.1516 63.0801 62.6147 62.6169C63.0778 62.1538 63.8307 62.1538 64.2938 62.6169L67.652 65.9752C68.1152 66.4383 68.1152 67.1912 67.652 67.6543C67.4217 67.8847 67.1177 68.0011 66.8137 68.0011Z" fill="white"/>
<path d="M47.5 76.0001C46.8445 76.0001 46.3125 75.4681 46.3125 74.8126V70.0626C46.3125 69.4071 46.8445 68.8751 47.5 68.8751C48.1555 68.8751 48.6875 69.4071 48.6875 70.0626V74.8126C48.6875 75.4681 48.1555 76.0001 47.5 76.0001Z" fill="white"/>
<path d="M28.1866 68.0011C27.8826 68.0011 27.5786 67.8847 27.3459 67.6543C26.8828 67.1912 26.8828 66.4383 27.3459 65.9752L30.7041 62.6169C31.1673 62.1538 31.9201 62.1538 32.3833 62.6169C32.8464 63.0801 32.8464 63.8329 32.3833 64.2961L29.025 67.6543C28.7946 67.8847 28.4906 68.0011 28.1866 68.0011Z" fill="white"/>
<path d="M24.9375 48.6876H20.1875C19.532 48.6876 19 48.1556 19 47.5001C19 46.8446 19.532 46.3126 20.1875 46.3126H24.9375C25.593 46.3126 26.125 46.8446 26.125 47.5001C26.125 48.1556 25.593 48.6876 24.9375 48.6876Z" fill="white"/>
<path d="M31.5447 32.7323C31.2407 32.7323 30.9367 32.6159 30.704 32.3856L27.3481 29.0273C26.885 28.5642 26.885 27.8113 27.3481 27.3482C27.8112 26.8851 28.5641 26.8851 29.0272 27.3482L32.3855 30.7064C32.8486 31.1696 32.8486 31.9224 32.3855 32.3856C32.1527 32.6159 31.8487 32.7323 31.5447 32.7323Z" fill="white"/>
<path d="M44.1109 66.5001C43.9708 66.5001 43.833 66.4763 43.6953 66.4265C43.1751 66.2317 42.8593 65.7045 42.9329 65.1582L44.9588 49.8751H36.8125C36.3636 49.8751 35.9528 49.621 35.7509 49.2196C35.549 48.8182 35.5918 48.3361 35.8625 47.9751L50.1125 28.9751C50.4426 28.5333 51.0293 28.3766 51.5304 28.5951C52.0339 28.8112 52.326 29.3408 52.2358 29.8823L50.0888 42.7501H58.1875C58.6245 42.7501 59.0259 42.99 59.2325 43.3747C59.4391 43.7595 59.4178 44.225 59.1803 44.5931L45.1036 65.9681C44.878 66.3077 44.5004 66.5001 44.1109 66.5001ZM39.1875 47.5001H46.3125C46.6569 47.5001 46.9799 47.6497 47.2055 47.9062C47.4311 48.1603 47.5356 48.5047 47.4905 48.8443L45.9681 60.3346L55.9835 45.1251H48.6875C48.3384 45.1251 48.0083 44.9731 47.7803 44.7047C47.5546 44.4387 47.4573 44.0848 47.5166 43.7428L49.0913 34.2951L39.1875 47.5001Z" fill="white"/>
</g>
<circle cx="47.5" cy="47.5" r="46.5" stroke="white" stroke-width="2"/>
<defs>
<clipPath id="clip0">
<rect width="57" height="57" fill="white" transform="translate(19 19.0001)"/>
</clipPath>
</defs>
</svg>
