<svg width="131" height="131" viewBox="0 0 131 131" fill="none" xmlns="http://www.w3.org/2000/svg">
<circle cx="65.5" cy="65.5" r="63.5" stroke="white" stroke-width="4"/>
<g clip-path="url(#clip0)">
<path d="M54.4148 105.932L53.86 55.7517C50.3942 54.995 47.6472 51.6464 47.6044 47.7711C47.5604 43.7965 50.1403 40.4884 53.6821 39.6542L53.5337 26.2397C53.5228 25.246 54.2614 24.4428 55.1958 24.4325C56.1301 24.4222 56.8864 25.2089 56.8974 26.2025L57.0457 39.617C60.5116 40.3738 63.2585 43.7223 63.3013 47.5976C63.3453 51.5723 60.7654 54.8803 57.2237 55.7145L57.7785 105.895C57.7894 106.888 57.0508 107.692 56.1164 107.702C55.1821 107.712 54.4258 106.926 54.4148 105.932ZM59.9377 47.6348C59.9091 45.0512 57.9229 42.8869 55.4001 42.9147C52.9708 42.9416 50.9394 45.1504 50.968 47.7339C50.9966 50.3175 52.9829 52.4819 55.5056 52.454C57.9349 52.4271 59.9674 50.3177 59.9377 47.6348Z" fill="white"/>
<path d="M77.3986 105.578L77.2261 89.9775C73.7602 89.2208 71.0133 85.8723 70.9704 81.997C70.9265 78.0223 73.5064 74.7143 77.0481 73.8801L76.5186 25.9853C76.5076 24.9916 77.2463 24.1884 78.1807 24.1781C79.115 24.1678 79.8713 24.9545 79.8822 25.9481L80.4107 73.7436C83.8765 74.5003 86.6235 77.8488 86.6663 81.7241C86.7103 85.6988 84.1304 89.0068 80.5886 89.841L80.7622 105.541C80.7732 106.535 80.0345 107.338 79.1002 107.348C78.1658 107.358 77.4096 106.572 77.3986 105.578ZM83.3961 81.7602C83.3676 79.1767 81.3813 77.0123 78.8585 77.0402C76.3358 77.0681 74.3979 79.2759 74.4264 81.8594C74.455 84.443 76.4413 86.6073 78.964 86.5794C81.4867 86.5515 83.4258 84.4432 83.3961 81.7602Z" fill="white"/>
</g>
<defs>
<clipPath id="clip0">
<rect width="83.2745" height="78.3029" fill="white" transform="matrix(0.0110553 0.999939 0.999939 -0.0110553 16 24.8657)"/>
</clipPath>
</defs>
</svg>
