<svg width="95" height="95" viewBox="0 0 95 95" fill="none" xmlns="http://www.w3.org/2000/svg">
<g clip-path="url(#clip0)">
<path d="M22.0384 34.9772H31.3139C31.7996 34.9772 32.1934 34.5835 32.1934 34.0977C32.1934 33.6119 31.7996 33.2182 31.3139 33.2182H22.0384C21.5527 33.2182 21.1589 33.6119 21.1589 34.0977C21.1589 34.5835 21.5526 34.9772 22.0384 34.9772Z" fill="white"/>
<path d="M30.9957 39.2113H27.3316C26.8459 39.2113 26.4521 39.605 26.4521 40.0908C26.4521 40.5766 26.8459 40.9703 27.3316 40.9703H30.9957C31.4814 40.9703 31.8752 40.5766 31.8752 40.0908C31.8752 39.605 31.4814 39.2113 30.9957 39.2113Z" fill="white"/>
<path d="M18.3595 45.3103H27.3317C27.8174 45.3103 28.2112 44.9167 28.2112 44.4308C28.2112 43.945 27.8174 43.5513 27.3317 43.5513H18.3595C17.8738 43.5513 17.48 43.945 17.48 44.4308C17.48 44.9167 17.8738 45.3103 18.3595 45.3103Z" fill="white"/>
<path d="M32.1934 60.9021C32.1934 60.4163 31.7996 60.0226 31.3139 60.0226H22.0384C21.5527 60.0226 21.1589 60.4163 21.1589 60.9021C21.1589 61.388 21.5527 61.7816 22.0384 61.7816H31.3139C31.7996 61.7816 32.1934 61.388 32.1934 60.9021Z" fill="white"/>
<path d="M30.9957 54.0297H27.3316C26.8459 54.0297 26.4521 54.4233 26.4521 54.9092C26.4521 55.395 26.8459 55.7886 27.3316 55.7886H30.9957C31.4814 55.7886 31.8752 55.395 31.8752 54.9092C31.8752 54.4233 31.4814 54.0297 30.9957 54.0297Z" fill="white"/>
<path d="M28.2112 50.5692C28.2112 50.0834 27.8174 49.6897 27.3317 49.6897H18.3595C17.8738 49.6897 17.48 50.0834 17.48 50.5692C17.48 51.055 17.8738 51.4487 18.3595 51.4487H27.3317C27.8174 51.4487 28.2112 51.055 28.2112 50.5692Z" fill="white"/>
<path d="M54.9498 36.9262C55.4356 36.9262 55.8293 36.5325 55.8293 36.0467V34.7043C55.8293 34.2184 55.4356 33.8248 54.9498 33.8248C54.464 33.8248 54.0703 34.2184 54.0703 34.7043V36.0467C54.0703 36.5325 54.464 36.9262 54.9498 36.9262Z" fill="white"/>
<path d="M64.6196 37.83C64.2761 37.4867 63.7193 37.4867 63.3758 37.83L62.4265 38.7793C62.0831 39.1229 62.0831 39.6797 62.4265 40.0231C62.7703 40.3666 63.3269 40.3665 63.6704 40.0231L64.6196 39.0739C64.963 38.7304 64.963 38.1736 64.6196 37.83Z" fill="white"/>
<path d="M66.4032 46.6205C65.9173 46.6205 65.5237 47.0141 65.5237 47.5C65.5237 47.9858 65.9173 48.3795 66.4032 48.3795H67.7455C68.2313 48.3795 68.625 47.9858 68.625 47.5C68.625 47.0141 68.2313 46.6205 67.7455 46.6205H66.4032Z" fill="white"/>
<path d="M63.6704 54.9767C63.3268 54.6333 62.77 54.6333 62.4265 54.9767C62.0831 55.3203 62.0831 55.8771 62.4265 56.2205L63.3758 57.1698C63.7195 57.5133 64.2762 57.5132 64.6196 57.1698C64.9631 56.8262 64.9631 56.2694 64.6196 55.926L63.6704 54.9767Z" fill="white"/>
<path d="M54.0703 58.9533V60.2956C54.0703 60.7815 54.464 61.1751 54.9498 61.1751C55.4356 61.1751 55.8293 60.7815 55.8293 60.2956V58.9533C55.8293 58.4675 55.4356 58.0738 54.9498 58.0738C54.464 58.0738 54.0703 58.4676 54.0703 58.9533Z" fill="white"/>
<path d="M46.2291 54.9767L45.2798 55.926C44.9363 56.2695 44.9363 56.8263 45.2798 57.1698C45.6234 57.5133 46.1802 57.5132 46.5235 57.1698L47.4728 56.2205C47.8163 55.8769 47.8163 55.3202 47.4728 54.9767C47.1295 54.6333 46.5726 54.6333 46.2291 54.9767Z" fill="white"/>
<path d="M42.1539 46.6205C41.6682 46.6205 41.2744 47.0141 41.2744 47.5C41.2744 47.9858 41.6682 48.3795 42.1539 48.3795H43.4964C43.9821 48.3795 44.3759 47.9858 44.3759 47.5C44.3759 47.0141 43.9821 46.6205 43.4964 46.6205H42.1539Z" fill="white"/>
<path d="M47.4728 38.7793L46.5235 37.83C46.1801 37.4867 45.6232 37.4867 45.2798 37.83C44.9363 38.1736 44.9363 38.7304 45.2798 39.0739L46.2291 40.0231C46.5727 40.3666 47.1295 40.3665 47.4728 40.0231C47.8163 39.6797 47.8163 39.1229 47.4728 38.7793Z" fill="white"/>
<path d="M59.6791 47.4999C59.6791 47.0141 59.2855 46.6204 58.7996 46.6204H55.8293V40.0906C55.8293 39.6048 55.4356 39.2111 54.9498 39.2111C54.464 39.2111 54.0703 39.6048 54.0703 40.0906V47.4999C54.0703 47.9858 54.464 48.3794 54.9498 48.3794H58.7996C59.2853 48.3794 59.6791 47.9858 59.6791 47.4999Z" fill="white"/>
<path d="M71.6262 47.3548C72.1111 47.3254 72.4803 46.9085 72.4508 46.4237C71.8914 37.1946 64.2039 29.965 54.9495 29.965C45.2807 29.965 37.4146 37.8312 37.4146 47.5001C37.4146 57.1689 45.2807 65.0351 54.9495 65.0351C63.6118 65.0351 71.0032 58.6884 72.289 50.1239C72.3611 49.6436 72.0302 49.1958 71.5498 49.1237C71.0706 49.0518 70.6216 49.3823 70.5495 49.8629C69.3944 57.5572 62.7506 63.2762 54.9495 63.2762C46.2506 63.2762 39.1735 56.1991 39.1735 47.5002C39.1735 38.8013 46.2506 31.7241 54.9495 31.7241C63.2755 31.7241 70.1917 38.2278 70.695 46.5304C70.7243 47.015 71.1409 47.383 71.6262 47.3548Z" fill="white"/>
<path d="M54.9496 24.9297C51.856 24.9297 48.8251 25.5715 46.0353 26.7718H30.5177C30.032 26.7718 29.6382 27.1654 29.6382 27.6512C29.6382 28.1371 30.032 28.5307 30.5177 28.5307H42.7266C41.0758 29.5932 39.5562 30.8746 38.2163 32.3541C37.8903 32.714 37.9177 33.2702 38.2777 33.5963C38.6379 33.9224 39.1938 33.8948 39.52 33.5348C43.4604 29.184 49.0843 26.6887 54.9496 26.6887C66.425 26.6887 75.761 36.0246 75.761 47.5C75.761 58.9753 66.4251 68.3112 54.9496 68.3112C43.4742 68.3112 34.1384 58.9754 34.1384 47.5C34.1384 43.4815 35.2863 39.5813 37.4578 36.2207C37.7214 35.8127 37.6044 35.2684 37.1964 35.0047C36.7885 34.7412 36.2441 34.858 35.9804 35.2661C33.6245 38.9117 32.3794 43.142 32.3794 47.5C32.3794 55.4466 36.5078 62.4464 42.7322 66.4692H30.5178C30.0321 66.4692 29.6383 66.8629 29.6383 67.3487C29.6383 67.8346 30.0321 68.2282 30.5178 68.2282H46.0232C48.7626 69.4125 51.7806 70.0702 54.9497 70.0702C67.3949 70.0702 77.52 59.9453 77.52 47.5C77.52 35.0547 67.3949 24.9297 54.9496 24.9297Z" fill="white"/>
</g>
<circle cx="47.5" cy="47.5" r="46.5" stroke="white" stroke-width="2"/>
<defs>
<clipPath id="clip0">
<rect width="60.04" height="60.04" fill="white" transform="translate(17.48 17.48)"/>
</clipPath>
</defs>
</svg>
