<svg width="256" height="264" viewBox="0 0 256 264" fill="none" xmlns="http://www.w3.org/2000/svg">
<path d="M109.604 11.4103C117.585 -3.08444 138.415 -3.08443 146.396 11.4103L155.403 27.7685C160.11 36.3178 170.087 40.4972 179.482 37.8558L196.879 32.9648C212.452 28.5864 226.92 42.7209 222.906 58.3923L217.432 79.758C215.134 88.7316 218.986 98.1515 226.914 102.942L245.258 114.028C258.776 122.197 258.776 141.805 245.258 149.974L226.914 161.059C218.986 165.85 215.134 175.27 217.432 184.243L222.906 205.609C226.92 221.28 212.452 235.415 196.879 231.037L179.482 226.146C170.087 223.504 160.11 227.684 155.403 236.233L146.396 252.591C138.415 267.086 117.585 267.086 109.604 252.591L100.597 236.233C95.8899 227.684 85.9131 223.504 76.5177 226.146L59.1213 231.036C43.5476 235.415 29.0799 221.28 33.0944 205.609L38.5676 184.243C40.8664 175.27 37.0139 165.85 29.0857 161.059L10.7421 149.974C-2.77633 141.805 -2.77633 122.197 10.7421 114.028L29.0857 102.942C37.0138 98.1515 40.8664 88.7316 38.5676 79.758L33.0944 58.3923C29.0799 42.7209 43.5476 28.5864 59.1213 32.9648L76.5178 37.8558C85.9131 40.4972 95.8899 36.3178 100.597 27.7685L109.604 11.4103Z" fill="#E76E29" fill-opacity="0.47"/>
</svg>
