<svg width="101" height="102" viewBox="0 0 101 102" fill="none" xmlns="http://www.w3.org/2000/svg">
<g clip-path="url(#clip0)">
<path d="M95.751 60.0591H94.2594V46.4448C94.2594 44.2895 93.2007 42.3812 91.5838 41.2216V39.3679C91.5838 36.679 89.425 34.4915 86.7713 34.4915H85.6575L89.9189 28.1553C91.3473 26.0316 90.8041 23.1261 88.7082 21.6785L59.7916 1.7113C58.7763 1.01002 57.5526 0.751208 56.3447 0.983389C55.1375 1.21518 54.0915 1.90935 53.3996 2.93829L28.4409 40.0485H21.4956L23.1712 22.8607C23.1901 22.667 23.3143 22.4991 23.4876 22.4331C25.6464 21.6083 27.5173 20.068 28.7555 18.0962C28.8531 17.9409 29.0371 17.8522 29.2275 17.8717L40.121 18.9622C40.902 19.0389 41.5969 18.4625 41.674 17.6715C41.7511 16.8804 41.1808 16.176 40.4002 16.0979L29.5066 15.0074C28.2422 14.8819 27.0363 15.4724 26.3588 16.551C25.4484 18.0009 24.0728 19.1332 22.4856 19.7396C21.2908 20.1961 20.4704 21.2834 20.3442 22.5777L18.6411 40.0483H16.83L19.48 12.8643C19.5754 11.8859 20.4373 11.167 21.4041 11.2651L43.4177 13.4685C44.1984 13.5449 44.8936 12.9689 44.9707 12.1778C45.0478 11.3868 44.4776 10.6823 43.6969 10.6042L21.6833 8.40077C19.1594 8.14847 16.9024 10.0235 16.653 12.5812L14.517 34.4915H10.8793C8.22576 34.4915 6.06672 36.679 6.06672 39.3679V40.6324C3.8958 41.6452 2.38428 43.8687 2.38428 46.4448V95.5038C2.38428 99.0309 5.21615 101.9 8.69728 101.9H87.9466C91.4275 101.9 94.2594 99.0309 94.2594 95.5038V81.8897H95.751C97.5118 81.8897 98.944 80.4384 98.944 78.6546V63.2945C98.9442 61.5104 97.5118 60.0591 95.751 60.0591ZM86.7713 37.37C87.8588 37.3698 88.7432 38.2662 88.7432 39.3681V40.1014C88.4819 40.0678 88.2166 40.0487 87.9466 40.0487H81.9201L83.7215 37.37H86.7713ZM55.7469 4.55903C56.0116 4.16548 56.4117 3.89996 56.8735 3.81119C56.9839 3.79008 57.0947 3.77943 57.2047 3.77943C57.5545 3.77943 57.8964 3.88556 58.1919 4.08953L87.1085 24.0568C87.9102 24.6105 88.1181 25.7219 87.5718 26.5342L78.4828 40.0481H76.3016L80.7577 33.4225C81.4803 32.348 81.5399 30.9806 80.9126 29.8536C80.079 28.3564 79.741 26.5934 79.961 24.8892C80.1246 23.6214 79.574 22.3837 78.5243 21.659L63.534 11.3081C62.4841 10.5831 61.1458 10.5166 60.0412 11.1347C58.5567 11.9652 56.8137 12.2912 55.1336 12.0529C53.8876 11.8758 52.6239 12.4459 51.912 13.5042L34.0597 40.0483H31.8785L55.7469 4.55903ZM56.3724 28.9985C50.1871 28.9985 45.1097 33.8853 44.696 40.0483H37.4968L54.2589 15.1252C54.2591 15.1252 54.2591 15.1252 54.2591 15.1252C54.3543 14.9833 54.5122 14.8989 54.6744 14.8989C54.696 14.8989 54.7176 14.9005 54.7392 14.9034C57.0244 15.2273 59.3947 14.7843 61.4139 13.6545C61.5728 13.5654 61.7768 13.5782 61.9341 13.6867L76.9245 24.0378C77.0815 24.1463 77.1677 24.3341 77.1443 24.5164C76.8451 26.8341 77.305 29.2316 78.4386 31.2678C78.5295 31.4313 78.5184 31.6408 78.4106 31.8016L72.8644 40.0481H68.0493C67.6352 33.8853 62.5581 28.9985 56.3724 28.9985ZM65.2009 40.0485H47.5441C47.951 35.4741 51.7539 31.877 56.3724 31.877C60.9911 31.8768 64.7942 35.4741 65.2009 40.0485ZM8.90735 39.3679C8.90735 38.266 9.7918 37.3696 10.8793 37.3696H14.2364L13.9754 40.0483H8.90735V39.3679ZM5.22491 46.4448C5.22491 44.5049 6.78257 42.9266 8.69728 42.9266H87.9466C89.8613 42.9266 91.4187 44.5049 91.4187 46.4448V50.4383H5.22491V46.4448ZM91.4187 95.5038C91.4187 97.4437 89.8613 99.022 87.9466 99.022H8.69728C6.78257 99.022 5.22491 97.4437 5.22491 95.5038V91.5104H12.8841C13.6687 91.5104 14.3044 90.8661 14.3044 90.0713C14.3044 89.2765 13.6685 88.6322 12.8841 88.6322H5.22491V53.3166H91.4187V60.0591H77.9143H77.9141C73.6591 60.0591 69.9734 62.5723 68.2241 66.2101C68.2183 66.2223 68.2117 66.2341 68.2056 66.2464C68.1908 66.2773 68.178 66.3095 68.1636 66.3406C67.9553 66.789 67.7742 67.2532 67.6268 67.7322C67.6265 67.7335 67.6261 67.7347 67.6257 67.7361C67.3113 68.7597 67.1417 69.8472 67.1417 70.9744C67.1417 76.9932 71.9741 81.8897 77.9139 81.8897H77.9141H91.4185V88.6322H21.9786C21.194 88.6322 20.5584 89.2765 20.5584 90.0713C20.5584 90.8661 21.1942 91.5104 21.9786 91.5104H91.4187V95.5038ZM96.1036 78.6544C96.1036 78.8512 95.9455 79.0114 95.751 79.0114H77.9145C74.9076 79.0114 72.286 77.3072 70.9413 74.8022C70.8802 74.6883 70.8218 74.5727 70.7659 74.4558C70.6544 74.2216 70.5537 73.9811 70.4648 73.7349C70.1529 72.8737 69.9827 71.9438 69.9827 70.9744C69.9827 70.0051 70.1531 69.0751 70.4648 68.2139C70.5539 67.9679 70.6546 67.7274 70.7659 67.4931C70.8218 67.3761 70.8802 67.2605 70.9413 67.1467C72.286 64.6416 74.9076 62.9374 77.9145 62.9374H95.751C95.9453 62.9374 96.1036 63.0976 96.1036 63.2945V78.6544Z" fill="white"/>
<path d="M78.2471 65.1353C75.0695 65.1353 72.4845 67.7547 72.4845 70.9743C72.4845 74.1939 75.0695 76.8132 78.2471 76.8132C81.4248 76.8132 84.0098 74.1939 84.0098 70.9743C84.0098 67.7547 81.4248 65.1353 78.2471 65.1353ZM78.2471 73.9349C76.6359 73.9349 75.3251 72.6067 75.3251 70.9743C75.3251 69.3419 76.6359 68.0136 78.2471 68.0136C79.8583 68.0136 81.1691 69.3417 81.1691 70.9743C81.1691 72.6069 79.8583 73.9349 78.2471 73.9349Z" fill="white"/>
</g>
<defs>
<clipPath id="clip0">
<rect width="99.678" height="101" fill="white" transform="translate(0.825195 0.900391)"/>
</clipPath>
</defs>
</svg>
