<svg width="122" height="122" viewBox="0 0 122 122" fill="none" xmlns="http://www.w3.org/2000/svg">
<g filter="url(#filter0_d)">
<circle cx="61" cy="57" r="57" fill="url(#paint0_linear)"/>
</g>
<g clip-path="url(#clip0)">
<path d="M61.2965 85.6544C59.1716 85.6544 57.0478 85.2261 55.0809 84.3707L45.6762 80.2823C42.2738 78.8024 38.6762 77.865 34.9837 77.4959L31.8953 77.187C31.3868 77.1364 31 76.7087 31 76.1979V66.5099C31 66.2949 31.07 66.0856 31.1991 65.9138C31.43 65.605 36.9653 58.3735 45.4208 60.2551C50.1764 61.3119 54.0054 63.2895 56.38 64.7626C58.104 65.8319 60.1249 66.3967 62.2242 66.3967H71.629C73.25 66.3967 74.6748 67.2545 75.4716 68.541L83.5716 59.2091C85.142 57.112 87.7112 55.8277 90.4009 55.8277H91.0061C91.3423 55.8277 91.6551 55.9972 91.8382 56.2782C92.0219 56.5591 92.051 56.9146 91.9162 57.2218L84.5903 73.8711C82.9886 77.5124 79.7272 80.263 75.8669 81.2282L74.5781 81.5501L67.0805 84.5493C65.2353 85.287 63.2657 85.6544 61.2965 85.6544ZM32.9884 75.2981L35.1817 75.5177C39.0795 75.9073 42.8772 76.8975 46.4696 78.4594L55.8738 82.5478C59.1807 83.9856 62.9943 84.0419 66.3427 82.7025L73.9018 79.6788C73.9439 79.6624 73.9866 79.6487 74.0304 79.6379L75.3846 79.2989C78.6534 78.4816 81.4148 76.153 82.7702 73.0702L89.4522 57.8844C87.7413 58.1364 86.1669 59.0584 85.1181 60.4564L76.1451 70.7979C76.1462 70.8366 76.1468 70.8747 76.1468 70.914C76.1468 73.4047 74.1202 75.4312 71.6295 75.4312H58.5078C56.8021 75.4312 55.1162 75.7048 53.498 76.244L53.1329 75.3169L52.824 74.3721L52.8746 74.3557C54.6908 73.7505 56.5876 73.4428 58.5078 73.4428H71.6295C73.0236 73.4428 74.1589 72.3081 74.1589 70.9134C74.1589 69.5188 73.0242 68.384 71.6295 68.384H62.2248C59.7546 68.384 57.3714 67.7157 55.3329 66.4513C53.0896 65.0595 49.4734 63.1922 44.9908 62.1952C38.5875 60.7749 33.9798 65.6892 32.989 66.8614V75.2981H32.9884Z" fill="white"/>
<path d="M70.1488 55.603C68.62 55.603 66.9057 55.1309 65.0185 54.1873C64.7898 54.0724 64.6135 53.8734 64.527 53.6328C64.4503 53.4172 62.674 48.3079 65.4968 44.5295C67.5484 41.7828 71.4058 40.5457 76.9685 40.8557C77.4758 40.8836 77.8802 41.2903 77.9053 41.7988C77.9252 42.1935 78.3353 51.5107 73.5843 54.6128C72.5741 55.2731 71.4263 55.603 70.1488 55.603ZM66.2863 52.5919C68.8975 53.8165 70.9849 53.9365 72.4979 52.9485C75.315 51.1085 75.9242 45.6466 75.939 42.8038C71.5805 42.6974 68.6131 43.6797 67.0894 45.7188C65.2761 48.1469 65.9808 51.4868 66.2863 52.5919Z" fill="white"/>
<path d="M54.9468 42.5786C53.1841 42.5786 51.1507 42.2009 49.3761 40.9012C46.3662 38.6955 44.9829 34.4962 45.2639 28.4205C45.2878 27.9126 45.6905 27.5042 46.1984 27.4741C46.6284 27.4496 56.8061 26.9064 60.2307 32.0471C61.8256 34.4399 61.6947 37.5739 59.8434 41.3636C59.7307 41.594 59.534 41.772 59.2934 41.8602C59.1597 41.9097 57.2935 42.5786 54.9468 42.5786ZM58.9504 40.9274H58.9601H58.9504ZM47.2205 29.4301C47.1346 34.2966 48.2534 37.6137 50.5507 39.2973C53.3013 41.3125 57.0569 40.4559 58.2377 40.1118C59.5886 37.1803 59.7029 34.8398 58.5767 33.1494C56.4836 30.0074 50.3453 29.3931 47.2205 29.4301Z" fill="white"/>
<path d="M62.7101 68.0348C62.6788 68.0348 62.6476 68.0331 62.6157 68.0303C62.0862 67.9802 61.6897 67.5224 61.7165 66.9906C61.7751 65.8212 61.8752 64.712 62.0111 63.6609C62.4246 56.6263 62.2113 40.2443 51.8538 35.7123C51.351 35.4922 51.1213 34.9063 51.3414 34.403C51.5609 33.9007 52.1485 33.6715 52.6507 33.8911C58.7543 36.5615 62.5941 43.2099 63.7527 53.1175C63.8568 54.0054 63.9347 54.8807 63.9927 55.7333C66.7206 48.8403 70.8937 46.4048 71.1423 46.2654C71.62 45.9952 72.2264 46.167 72.496 46.6442C72.7639 47.122 72.5955 47.7266 72.1194 47.9962C72.0142 48.0576 65.6149 51.898 64.0086 63.7411C63.8864 65.7671 63.71 67.0588 63.6935 67.1771C63.6247 67.6731 63.201 68.0348 62.7101 68.0348Z" fill="white"/>
</g>
<defs>
<filter id="filter0_d" x="0" y="0" width="122" height="122" filterUnits="userSpaceOnUse" color-interpolation-filters="sRGB">
<feFlood flood-opacity="0" result="BackgroundImageFix"/>
<feColorMatrix in="SourceAlpha" type="matrix" values="0 0 0 0 0 0 0 0 0 0 0 0 0 0 0 0 0 0 127 0"/>
<feOffset dy="4"/>
<feGaussianBlur stdDeviation="2"/>
<feColorMatrix type="matrix" values="0 0 0 0 0 0 0 0 0 0 0 0 0 0 0 0 0 0 0.43 0"/>
<feBlend mode="normal" in2="BackgroundImageFix" result="effect1_dropShadow"/>
<feBlend mode="normal" in="SourceGraphic" in2="effect1_dropShadow" result="shape"/>
</filter>
<linearGradient id="paint0_linear" x1="61" y1="0" x2="61" y2="114" gradientUnits="userSpaceOnUse">
<stop stop-color="#20395D"/>
<stop offset="0.409375" stop-color="#216477"/>
<stop offset="1" stop-color="#113263"/>
</linearGradient>
<clipPath id="clip0">
<rect width="61" height="61" fill="white" transform="translate(31 26)"/>
</clipPath>
</defs>
</svg>
