<svg width="75" height="75" viewBox="0 0 75 75" fill="none" xmlns="http://www.w3.org/2000/svg">
<g clip-path="url(#clip0)">
<path d="M74.5294 36.3959L52.3369 15.085C50.5282 13.3473 47.5865 13.3478 45.7778 15.0845C44.881 15.9451 44.3877 17.0941 44.3877 18.3195C44.3877 19.5448 44.881 20.6934 45.7778 21.5542V21.5537L62.3832 37.4997L45.7767 53.4449C44.8812 54.3064 44.3881 55.4561 44.3881 56.6819C44.3881 57.9068 44.8814 59.0552 45.7783 59.9157C46.6825 60.7838 47.8706 61.2184 49.0576 61.2179C50.2446 61.2179 51.4327 60.7836 52.3353 59.915L74.5294 38.6039C74.8299 38.3153 75 37.9167 75 37.4999C75 37.0833 74.8299 36.6844 74.5294 36.3959ZM50.2147 57.7088C49.5883 58.313 48.5273 58.3103 47.8977 57.7083C47.6092 57.4301 47.4493 57.0655 47.4493 56.6812C47.4493 56.2967 47.6092 55.9312 47.8977 55.6525L65.6522 38.6048C65.9526 38.3158 66.1228 37.9171 66.1228 37.5006C66.1228 37.084 65.9526 36.6851 65.6522 36.3965L47.8977 19.3466V19.3461C47.6092 19.0683 47.4493 18.704 47.4493 18.3199C47.4493 17.9354 47.6092 17.5706 47.8977 17.2928C48.2114 16.9908 48.6347 16.8397 49.0576 16.8397C49.4793 16.8397 49.9022 16.9903 50.2159 17.2923L71.2609 37.5003L50.2147 57.7088Z" fill="white" fill-opacity="0.91"/>
<path d="M51.5702 36.3959L29.3777 15.0843C27.569 13.3482 24.6273 13.3478 22.8186 15.0847C21.9217 15.9453 21.4285 17.0944 21.4285 18.3197C21.4285 19.545 21.9217 20.6936 22.8186 21.5544V21.5539L39.4239 37.4999L22.8175 53.4452C21.922 54.3066 21.4289 55.4563 21.4289 56.6821C21.4289 57.907 21.9222 59.0554 22.819 59.9159C23.7233 60.7838 24.9103 61.2177 26.0984 61.2177C27.2869 61.2177 28.4734 60.7838 29.3777 59.915L51.5702 38.6039C51.8706 38.3153 52.0408 37.9167 52.0408 37.4999C52.0408 37.0833 51.8706 36.6844 51.5702 36.3959ZM27.2582 57.7079C26.6306 58.3117 25.5665 58.3112 24.9385 57.7083C24.6499 57.4301 24.4901 57.0655 24.4901 56.6812C24.4901 56.2967 24.6499 55.9312 24.9385 55.6525L42.6929 38.6048C42.9934 38.3158 43.1636 37.9171 43.1636 37.5006C43.1636 37.084 42.9934 36.6851 42.6929 36.3965L24.9385 19.3466V19.3461C24.6499 19.0683 24.4901 18.704 24.4901 18.3199C24.4901 17.9354 24.6499 17.5706 24.9385 17.2928C25.2522 16.9908 25.6755 16.8397 26.0984 16.8397C26.5217 16.8397 26.9443 16.9903 27.2586 17.2919L48.3016 37.4994L27.2582 57.7079Z" fill="white" fill-opacity="0.91"/>
<path d="M30.1417 36.3959L7.94921 15.0839C6.14049 13.3489 3.19592 13.3505 1.39011 15.0845C0.493266 15.9453 0 17.0944 0 18.3197C0 19.545 0.493266 20.6936 1.38989 21.5544V21.5539L17.9952 37.4999L1.38877 53.4452C0.493266 54.3066 0 55.4563 0 56.6821C0 57.907 0.493266 59.0554 1.39011 59.9159C2.29279 60.7834 3.48089 61.2172 4.66787 61.217C5.85641 61.217 7.04451 60.7832 7.94921 59.9152L30.1417 38.6041C30.4421 38.3156 30.6123 37.9169 30.6123 37.5001C30.6123 37.0833 30.4421 36.6844 30.1417 36.3959ZM5.82929 57.7072C5.18983 58.3209 4.14949 58.3209 3.50959 57.7079C3.22103 57.4296 3.06117 57.0651 3.06117 56.6808C3.06117 56.2962 3.22103 55.9308 3.50959 55.6521L21.264 38.6043C21.5645 38.3153 21.7347 37.9167 21.7347 37.5001C21.7347 37.0833 21.5645 36.6846 21.264 36.3961L3.50981 19.3463V19.3459C3.22125 19.0681 3.06139 18.7038 3.06139 18.3197C3.06139 17.9352 3.22125 17.5704 3.50981 17.2926C3.82976 16.9856 4.24949 16.8327 4.66966 16.8327C5.08983 16.8327 5.50956 16.9861 5.82951 17.2926L26.8729 37.4999L5.82929 57.7072Z" fill="white" fill-opacity="0.91"/>
</g>
<defs>
<clipPath id="clip0">
<rect width="75" height="75" fill="white"/>
</clipPath>
</defs>
</svg>
