<svg width="151" height="105" fill="none" xmlns="http://www.w3.org/2000/svg"><path d="M138.371 41.94H98.403V11.976M138.37 41.94L148 53.82v31.284h-16.303m6.674-43.164l-14.246-29.964H98.403M9.629 61.344h27.7M0 41.94h48.806M8.442 22.404h48.014m41.947-10.428V3H15.829v82.104h16.797m83.057-15.972c-22.94-.005-21.222 32.86-.66 32.868m.66-32.868c11.261 0 16.266 7.912 16.014 15.972m-16.014-15.972c-11.261 0-16.584 7.912-16.655 15.972M115.023 102c10.482 0 16.412-8.528 16.674-16.896M115.023 102c-10.481 0-16.069-8.528-15.995-16.896m-66.402 0c.02-8.06 5.242-15.972 16.18-15.972 10.937 0 16.159 7.912 16.18 15.972m-32.36 0C32.605 93.472 38.19 102 48.806 102s16.2-8.528 16.18-16.896m34.042 0H64.985" stroke="#0C565F" stroke-width="6"/></svg>