<svg width="28" height="28" fill="none" xmlns="http://www.w3.org/2000/svg"><g clip-path="url(#clip0)"><path d="M23.525 27.066H3.595c-.705 0-1.383-.32-1.882-.888-.5-.57-.78-1.341-.78-2.146h19.93c0 .805.28 1.577.78 2.146.498.569 1.176.888 1.882.888z" stroke="#040F1F" stroke-width="2"/><path d="M6.635 21.213a78.095 78.095 0 01-.37 2.82h14.597c0 .804.28 1.576.78 2.145s1.176.888 1.883.888c3.845 0 3.525-10.053 3.54-14.393a77.15 77.15 0 00-.87-11.74H6.264c.218 1.447.407 3.018.559 4.696" stroke="#040F1F" stroke-width="2"/><path d="M11.336 6.836h-1.8c-.909 0-1.646.839-1.646 1.873s.737 1.873 1.647 1.873h1.8c.909 0 1.646-.839 1.646-1.873s-.737-1.873-1.647-1.873z" stroke="#040F1F" stroke-width="2"/><path d="M15.776 8.713H5.097c-.91 0-1.647.84-1.647 1.877v7.267c0 1.036.738 1.876 1.647 1.876h10.68c.909 0 1.646-.84 1.646-1.876V10.59c0-1.037-.737-1.877-1.647-1.877z" fill="#1673FF"/></g><defs><clipPath id="clip0"><path fill="#fff" d="M0 0h28v28H0z"/></clipPath></defs></svg>