<svg width="170" height="170" fill="none" xmlns="http://www.w3.org/2000/svg"><ellipse cx="85" cy="84.63" rx="85" ry="84.557" fill="#0A0909"/><path d="M61.327 113.85H57.2l4.126 28.478H77.24l3.89-28.478h-3.89m-15.914 0v-7.905h7.957m-7.957 7.905H77.24m0 0v-7.905h-7.957m0 0V71.074M72.952 45.5c.011-.97.026-1.8.046-2.441.141-4.772-7.747-3.9-7.899 0-.152 3.9-.215 20.976-.063 24.875 0 4.766 7.898 4.766 7.898 0V66.89m.018-21.388c3.631-3.87 5.94-5.347 10.066-3.603M72.952 45.5a723.156 723.156 0 00-.039 7.556m0 0c3.128-3.481 6.097-5.696 10.105-3.836m-10.105 3.836c-.002 2.401.001 4.904.006 7.206m0 0c3.097-3.409 5.62-5.23 10.099-3.603m-10.1 3.604c.006 2.611.013 4.966.015 6.625m0 0c3.211-3.398 5.605-5.347 10.085-3.487m-26.76-21.504c-3.655-18.831 32.772-23.597 32.772 0m0 0l-6.012-4.883m6.012 4.883l5.894-4.883m-2.261 30.769V50.348h13.674v17.587m0 0H85.236l6.366 74.393h16.857l1.059-14.216m-3.181-60.177H114l-.751 10.078m-14.103 42.659h10.926m0 0l-.554 7.44m.554-7.44l.598-8.02m-6.572 15.46h5.42M89.03 56.66h20.488M89.03 63.402h21.042m3.177 14.61H99.146v34.64h11.524m2.579-34.64l-2.579 34.64" stroke="#fff" stroke-width="2"/></svg>