<svg width="170" height="170" fill="none" xmlns="http://www.w3.org/2000/svg"><ellipse cx="85" cy="84.63" rx="85" ry="84.557" fill="#0A0909"/><path d="M131.219 78.77c0-28.63-23.33-51.838-52.11-51.838m52.11 51.838l-13.141-10.03m13.141 10.03l10.422-10.03m-62.532 61.868C50.33 130.608 27 107.4 27 78.77m0 0c0-28.63 23.33-51.838 52.11-51.838M27 78.77h13.82m38.29-51.838v10.819M64.27 64.346L76.616 75.84m6.457 0l22.43-22.538m-26.395 55.331c3.059-23.665 30.045-12.81 26.961 0-3.083 12.811-27.355 30.799-26.96 31.892h29.113M143 132.749h-35.91l27.074-39.329v38.54m0 1.578v8.79M84.227 78.883c0 2.492-2.033 4.522-4.551 4.522-2.519 0-4.551-2.03-4.551-4.522 0-2.492 2.032-4.522 4.55-4.522 2.519 0 4.552 2.03 4.552 4.522z" stroke="#fff" stroke-width="2"/></svg>