<svg width="108" height="108" viewBox="0 0 108 108" fill="none" xmlns="http://www.w3.org/2000/svg">
<path fill-rule="evenodd" clip-rule="evenodd" d="M35.7736 0.181754C34.7436 0.600549 34.6528 1.03263 34.6528 5.51832V9.70521L35.2644 10.3216C36.4067 11.473 38.1679 10.9335 38.6196 9.29422C38.8987 8.28119 38.8987 2.62936 38.6196 1.61633C38.2508 0.277491 37.0394 -0.333198 35.7736 0.181754ZM11.8709 10.178C10.8846 10.7288 10.5503 11.9476 11.0955 13.0045C11.6282 14.037 16.5045 18.6724 17.2261 18.8322C18.5986 19.1359 19.9815 17.742 19.6802 16.3587C19.5796 15.8973 18.7622 14.8994 16.9993 13.0853C13.8361 9.83047 13.1693 9.45259 11.8709 10.178ZM59.006 10.4867C57.6442 11.493 53.7732 15.6432 53.6192 16.2619C53.2453 17.7631 54.8174 19.2358 56.2759 18.7506C56.9596 18.5233 61.8078 13.7749 62.2472 12.9025C62.933 11.54 61.8779 9.88361 60.3241 9.88361C60.0479 9.88361 59.4547 10.155 59.006 10.4867ZM32.6652 16.523C25.3769 18.1469 19.871 23.3692 17.6554 30.7601C17.0549 32.7634 16.9097 37.4907 17.3776 39.8173C17.7433 41.6365 18.7034 44.3047 19.4074 45.4577L19.8191 46.1323L18.536 47.6719C17.0054 49.5086 15.3678 52.735 14.7577 55.1159C13.0978 61.5937 14.9125 68.5064 19.5599 73.4092C22.8417 76.8713 27.1994 79.0115 31.7455 79.3936L33.4228 79.5346L30.2718 82.7344C27.3368 85.7149 27.1209 85.9882 27.1209 86.7233C27.1209 87.7441 27.3994 88.2445 28.1986 88.6612C29.4824 89.3303 29.8048 89.1066 34.7574 84.111L39.3567 79.4718H47.3062H55.2555L52.2994 82.4767C50.6736 84.1293 49.239 85.689 49.1116 85.9422C48.6921 86.7758 48.8404 87.4875 49.5911 88.2441C50.374 89.0332 51.055 89.1515 51.9762 88.6589C52.2869 88.4927 54.5174 86.3576 56.9328 83.9143L61.3245 79.4718H69.2743H77.224L74.016 82.7102C71.097 85.6569 70.8062 86.0175 70.7865 86.7159C70.7474 88.1085 72.0157 89.1848 73.3151 88.8614C73.67 88.773 75.6036 86.9926 78.4904 84.096L83.0991 79.4718L86.7545 79.4701C90.9417 79.4684 92.3579 79.2822 95.0637 78.3784C98.5363 77.2184 102.262 74.4231 104.445 71.339C105.654 69.632 106.935 66.8881 107.491 64.8161C108.161 62.3219 108.165 57.7181 107.5 55.2214C105.732 48.5858 100.905 43.4586 94.5137 41.4281C91.2563 40.3934 87.7584 40.2546 84.188 41.0184C83.8033 41.1009 83.5853 41.0467 83.5238 40.8533C83.4734 40.6952 83.2227 39.8291 82.9668 38.9287C82.3948 36.9163 81.8105 36.2428 80.6365 36.2428C80.0043 36.2428 79.6695 36.3864 79.2005 36.8592C78.4885 37.5768 78.4081 38.4181 78.914 39.8538C79.0929 40.3613 79.3775 41.7255 79.5461 42.8853C79.8195 44.7631 79.9216 45.0575 80.4796 45.5739C81.2489 46.286 81.7998 46.2991 83.5903 45.6481C89.7083 43.4239 96.8092 45.4923 100.666 50.6224C104.705 55.9934 104.948 62.9585 101.292 68.502C99.4814 71.2473 96.8232 73.2888 93.4981 74.4878L91.6651 75.1489H61.1191H30.573L28.8993 74.5745C26.4742 73.7419 24.7314 72.6351 22.8319 70.7206C20.0054 67.8714 18.6132 64.7899 18.3912 60.8901C18.1335 56.3582 19.639 52.398 22.8317 49.2115C25.2239 46.8236 27.8498 45.4908 31.2798 44.9236C33.6414 44.533 36.1387 44.7709 38.6186 45.6224C39.9348 46.0745 40.2869 46.1218 40.875 45.9263C41.8196 45.6121 42.1341 45.0484 42.3935 43.2045C43.4557 35.6557 48.1148 29.9054 55.1124 27.5067C58.3591 26.3935 62.3286 26.2636 65.7717 27.1573C67.3465 27.566 67.5595 27.5778 68.2376 27.292C68.7361 27.0822 69.077 26.7455 69.2753 26.2672C69.8699 24.8324 69.1255 23.7753 67.091 23.1661C63.0234 21.9477 57.8586 22.0693 53.8397 23.478L52.4097 23.9792L50.8125 22.2943C48.0577 19.3881 44.3849 17.3034 40.6767 16.5413C38.7121 16.1375 34.4394 16.1278 32.6652 16.523ZM41.3464 21.058C42.0937 21.3151 43.0823 21.717 43.5432 21.951C45.6017 22.9959 48.7657 25.7177 48.3464 26.0827C48.237 26.178 47.5219 26.7478 46.7574 27.3486C43.0298 30.2784 40.004 34.9117 38.8475 39.4609C38.5349 40.6903 38.3842 40.9815 38.0729 40.9575C37.8604 40.941 36.7308 40.8061 35.5625 40.6576C31.9712 40.2011 27.891 40.9687 24.54 42.7316C22.9217 43.5826 23.0054 43.6198 22.2971 41.736C21.4437 39.4666 21.2167 37.974 21.3172 35.2938C21.4289 32.3119 21.9819 30.3238 23.3409 28.0179C25.4528 24.4351 28.7279 21.9544 32.8203 20.8385C34.9461 20.2588 39.3531 20.3722 41.3464 21.058ZM74.3811 28.5459C73.2791 29.1494 73.1026 30.7514 74.0279 31.7507C74.9347 32.73 76.6461 32.5289 77.2388 31.3735C78.2625 29.3784 76.3377 27.474 74.3811 28.5459ZM1.69948 34.3981C0.443119 35.4872 0.94671 37.4587 2.59934 37.9213C3.60443 38.2026 9.21193 38.2026 10.217 37.9213C11.8435 37.466 12.3787 35.6909 11.2363 34.5396L10.6248 33.9232H6.436C2.39284 33.9232 2.22818 33.9396 1.69948 34.3981ZM37.0588 94.4318C36.8287 94.5353 34.3358 96.9513 31.5193 99.8006C26.492 104.886 26.3981 104.997 26.3981 105.849C26.3981 106.562 26.5194 106.827 27.0768 107.329C27.8256 108.003 28.5225 108.096 29.3805 107.637C30.0594 107.274 39.322 97.9087 39.6519 97.2518C40.0337 96.4918 39.9166 95.7525 39.3079 95.0792C38.6931 94.3991 37.7411 94.125 37.0588 94.4318ZM58.6084 94.6321C58.2632 94.8508 55.7919 97.2511 53.1164 99.9661C48.34 104.813 48.2521 104.919 48.2521 105.777C48.2521 106.976 48.9025 107.716 50.101 107.877L51.0075 108L56.3248 102.641C61.4063 97.519 61.6421 97.2459 61.6421 96.4812C61.6421 95.4615 61.3664 94.9507 60.6002 94.5513C59.7979 94.1332 59.3685 94.1507 58.6084 94.6321ZM80.1581 94.8244C78.5902 95.9979 70.2567 104.644 70.1078 105.251C69.7113 106.868 71.0742 108.241 72.6785 107.842C73.3963 107.664 82.83 98.2515 83.3074 97.2374C83.9202 95.9359 83.1593 94.5473 81.7048 94.3124C81.1376 94.2209 80.8267 94.3238 80.1581 94.8244Z" fill="black"/>
</svg>
