<svg width="98" height="66" viewBox="0 0 98 66" fill="none" xmlns="http://www.w3.org/2000/svg">
<path fill-rule="evenodd" clip-rule="evenodd" d="M45.0529 0.299489C42.3978 0.876859 40.5066 2.21082 40.2239 3.70498C40.1332 4.18575 40.5792 5.75625 42.0424 10.1065C43.1085 13.2768 43.981 15.9411 43.981 16.0268C43.981 16.1126 37.7417 16.1827 30.116 16.1827C20.906 16.1827 15.8879 16.2568 15.1697 16.4035C13.5541 16.7334 10.9988 18.0365 9.45175 19.3195C6.85915 21.4698 4.3188 25.4038 2.90334 29.4598C-0.925971 40.4343 1.1561 53.8794 7.84693 61.3816C8.89266 62.5539 10.8568 64.0361 12.369 64.7937C14.924 66.0738 12.7026 66.0015 49.4176 65.9983C86.0049 65.9951 84.0915 66.0562 86.5788 64.8102C90.8479 62.6712 94.1579 58.3611 96.2179 52.2583C99.4669 42.6332 98.1839 31.0155 93.0212 23.3147C90.9124 20.169 88.3142 17.9975 85.2475 16.8168L83.8718 16.2872L74.8614 16.1843L65.851 16.0815L61.0163 9.29722C58.3572 5.56588 56.0037 2.32099 55.7862 2.08607C54.2228 0.398114 48.7716 -0.509355 45.0529 0.299489ZM51.1636 3.04417C52.3985 3.304 53.7752 3.93949 53.7752 4.24994C53.7752 4.63087 51.9694 5.2609 50.2058 5.49521C48.9081 5.66755 48.0319 5.66755 46.7342 5.49521C44.9727 5.2613 43.1648 4.63108 43.1648 4.25096C43.1648 3.9567 44.3081 3.39655 45.5114 3.10148C46.8181 2.7809 49.77 2.75113 51.1636 3.04417ZM59.6294 12.2489C61.7831 15.2479 63.5506 17.7633 63.5573 17.8387C63.601 18.3363 58.7867 19.7676 57.6649 19.5906C57.3356 19.5386 56.6438 18.2982 54.4801 13.8799C52.96 10.7756 51.7433 8.21903 51.7766 8.19898C51.8096 8.17893 52.3418 8.00862 52.959 7.82048C53.5762 7.63234 54.3567 7.30245 54.6934 7.08718C55.0301 6.87211 55.3973 6.7186 55.5096 6.74614C55.6218 6.77368 57.4757 9.25003 59.6294 12.2489ZM46.7607 8.35431L48.7169 8.59814L51.3464 13.9599C52.7927 16.9089 53.9766 19.4019 53.9776 19.4997C53.98 19.7626 51.6919 19.4592 50.1832 18.9967C47.8695 18.2875 47.6985 18.0375 45.9335 12.7817C45.0841 10.2525 44.3891 8.10947 44.3891 8.01955C44.3891 7.92943 44.4826 7.91303 44.5968 7.9831C44.7111 8.05317 45.6848 8.22024 46.7607 8.35431ZM19.9639 19.4248C25.1487 21.0143 29.3324 27.5013 30.6136 35.9368C31.0285 38.6693 31.0181 44.1091 30.5932 46.5749C29.674 51.909 27.5052 56.765 24.7518 59.6545C20.4365 64.1832 14.7808 64.3156 10.4632 59.9891C8.83451 58.357 8.15912 57.4054 6.93506 55.0186C2.82396 47.0014 2.80825 35.3876 6.89731 27.2198C7.99466 25.0276 9.19363 23.3967 10.8127 21.8934C13.6173 19.2895 16.7586 18.4422 19.9639 19.4248ZM45.9629 19.8462C46.9866 20.7826 48.3653 21.4653 50.3064 21.9965C52.1991 22.5143 58.711 22.517 60.9255 22.0006C62.9215 21.5352 64.7171 20.6708 65.5988 19.7514L66.3019 19.0179H74.5043C82.1099 19.0179 82.802 19.0471 84.0181 19.4199C85.7649 19.9554 87.473 21.0866 89.0166 22.73C91.2756 25.1351 92.134 24.8909 81.4212 24.8909H72.1206L71.6199 25.388C70.9919 26.0112 70.9804 26.7163 71.5891 27.2838C72.0568 27.7198 72.117 27.7226 82.2453 27.7749L92.4313 27.8273L93.0063 29.3134C93.6241 30.9096 94.5827 34.2839 94.5835 34.8647C94.5841 35.1908 94.2487 35.2191 90.392 35.2191C86.213 35.2191 86.1981 35.2207 85.699 35.7163C85.0924 36.3184 85.0546 37.1019 85.6062 37.6493C85.9894 38.0296 86.2862 38.0543 90.4869 38.0543H94.9598L95.1051 39.4014C95.5246 43.2889 94.4691 49.496 92.6824 53.6479L92.0289 55.1668L86.3901 55.2681C81.2135 55.361 80.716 55.4009 80.322 55.7551C79.8025 56.2221 79.7566 57.2132 80.2306 57.7329C80.5393 58.0715 80.9762 58.1033 85.3317 58.1033C87.9517 58.1033 90.0952 58.1786 90.0952 58.2709C90.0952 58.3631 89.4298 59.0988 88.6166 59.9058C87.5124 61.0019 86.7031 61.5871 85.4184 62.219L83.6988 63.0649L54.4161 63.1189L25.1334 63.1728L26.5562 61.7013C27.3389 60.8919 28.3279 59.7511 28.754 59.1665L29.5285 58.1033H39.8155C49.8304 58.1033 50.1132 58.0925 50.5105 57.6982C51.062 57.1508 51.0242 56.3673 50.4176 55.7652L49.9169 55.2681H40.4476H30.9783L31.6563 53.4961C32.0291 52.5216 32.5445 50.8358 32.8014 49.7501L33.2687 47.7764L37.7158 47.7756L42.1632 47.775L42.6639 47.2778C42.9394 47.0045 43.1648 46.5903 43.1648 46.3574C43.1648 46.1245 42.9394 45.7104 42.6639 45.437C42.1648 44.9414 42.1499 44.9398 37.9709 44.9398H33.7788V41.4971V38.0543H53.7752C73.4996 38.0543 73.7771 38.0488 74.1797 37.6493C74.7669 37.0664 74.7079 36.1523 74.0501 35.6389C73.5145 35.2207 73.4373 35.2191 53.4763 35.2191H33.4403L33.0844 33.5484C32.3017 29.8727 30.6638 25.8882 28.8178 23.1695C28.3643 22.5012 27.351 21.2938 26.5664 20.4862L25.1399 19.0179H35.0988H45.0576L45.9629 19.8462ZM15.1919 24.4635C12.8562 25.3706 11.1229 27.1663 9.5856 30.2719C7.67125 34.1393 6.87017 39.5039 7.47557 44.4029C7.99732 48.6258 8.63496 49.799 10.0841 49.2032C10.9498 48.8471 11.0537 48.2799 10.6423 46.1573C9.62988 40.9345 10.2326 35.3671 12.2574 31.2407C13.51 28.6878 15.5443 26.916 17.2228 26.916C17.971 26.916 18.8835 26.1572 18.8835 25.5348C18.8835 25.322 18.6931 24.9079 18.4605 24.6144C18.1088 24.1703 17.8776 24.0824 17.0832 24.0903C16.5584 24.0956 15.7071 24.2635 15.1919 24.4635ZM36.3569 25.3107C35.6748 25.8431 35.6468 26.6847 36.2914 27.2858C36.7564 27.7192 36.8672 27.7261 43.3975 27.7261H50.0312L50.475 27.2574C51.0561 26.6432 51.0365 26.0021 50.4176 25.388L49.9169 24.8909H43.4056C37.1274 24.8909 36.8752 24.9058 36.3569 25.3107ZM57.9489 25.388C57.337 25.9952 57.3156 26.4917 57.871 27.1924C58.2937 27.7261 58.294 27.7261 61.3171 27.7261C63.9511 27.7261 64.4002 27.6781 64.805 27.3526C65.1193 27.1001 65.2696 26.7621 65.2696 26.3085C65.2696 25.0723 64.7738 24.8909 61.395 24.8909C58.5398 24.8909 58.4343 24.906 57.9489 25.388ZM21.2208 27.0081C20.5279 27.6957 20.5891 28.1645 21.5559 29.5777C22.0156 30.2496 22.6983 31.4669 23.073 32.2826C23.7851 33.8335 24.1824 34.1512 25.1191 33.9177C25.3901 33.8503 25.759 33.5721 25.9388 33.2997C26.215 32.8813 26.2275 32.6852 26.0186 32.0372C25.5821 30.6842 24.1311 28.088 23.3637 27.2874C22.4971 26.3834 21.9254 26.3087 21.2208 27.0081ZM16.5374 31.4878C16.2009 31.6619 15.7635 31.9501 15.5651 32.1283C14.9144 32.7128 13.8299 35.1606 13.5616 36.6507L13.2986 38.1118L13.8579 38.5894C15.0324 39.592 15.8298 39.0235 16.4982 36.7068C16.9916 34.9959 17.5515 33.9139 17.8486 34.0962C18.5205 34.5085 19.4956 38.1495 19.4956 40.2461C19.4956 41.7678 19.9982 42.5096 21.0292 42.5096C22.0144 42.5096 22.3523 41.9351 22.3523 40.2593C22.3523 38.6649 21.866 35.9575 21.327 34.549C20.2782 31.8096 18.3263 30.5621 16.5374 31.4878ZM25.2089 40.0795C24.9845 40.3022 24.8 40.5527 24.799 40.6364C24.7837 41.9716 24.2893 45.8473 23.9661 47.1675C23.0942 50.7271 20.8915 54.1868 18.9974 54.9724C16.8149 55.8774 14.598 54.7877 12.7667 51.91C11.9788 50.672 11.9017 50.6102 11.1382 50.6102C10.2818 50.6102 9.7015 51.1297 9.7015 51.8964C9.7015 53.1664 12.4661 56.4115 14.4055 57.4176C15.3846 57.9257 15.7351 57.9947 17.3532 57.9982C18.9435 58.0014 19.341 57.9281 20.3202 57.451C23.2584 56.0186 25.719 52.2486 26.846 47.4516C27.3381 45.3564 27.6966 41.2204 27.4432 40.5592C27.0975 39.6568 25.8949 39.3986 25.2089 40.0795ZM14.0358 41.7083C13.2349 42.0244 13.0697 42.7202 13.3553 44.5729C13.8542 47.8066 15.0083 50.0782 16.5221 50.8056C17.5976 51.3223 17.8798 51.3213 18.5499 50.798C19.4746 50.0762 19.1008 48.3826 18.0169 48.3826C17.3216 48.3826 16.3807 46.0751 16.1108 43.7085C15.9159 41.9987 15.156 41.2662 14.0358 41.7083ZM54.3873 45.3448C54.1606 45.5698 53.9792 46.0198 53.9792 46.3574C53.9792 46.695 54.1606 47.145 54.3873 47.37C54.7889 47.7685 55.0674 47.775 71.9444 47.775H89.0935L89.5942 47.2778C89.8697 47.0045 90.0952 46.5903 90.0952 46.3574C90.0952 46.1245 89.8697 45.7104 89.5942 45.437L89.0935 44.9398H71.9444C55.0674 44.9398 54.7889 44.9463 54.3873 45.3448ZM66.9269 55.7652C66.3149 56.3724 66.2935 56.8689 66.8489 57.5696L67.2717 58.1033H70.5217C73.4996 58.1033 73.8056 58.0694 74.1797 57.6982C74.7669 57.1154 74.7079 56.2012 74.0501 55.6879C73.5608 55.3057 73.239 55.2681 70.4701 55.2681C67.5119 55.2681 67.4137 55.2818 66.9269 55.7652Z" fill="black"/>
</svg>
