<svg width="106" height="84" fill="none" xmlns="http://www.w3.org/2000/svg"><path d="M48.088 10.933a11.87 11.87 0 00-.625-1.018m.625 1.018l-.625-1.018m.625 1.018C64.496-7.16 91.124 7.27 91.124 23.854m-25.13 42.629L48.05 81.947S5.217 57.733 3.284 27.72C1.398-1.565 38.39-3.34 47.464 9.915M2 40.641h27.063l5.494-18.11 11.801 36.626 6.919-18.516h10.377m6.511 22.382l2.95-2.849M87.36 49.797v-9.055m0-9.054v9.054m0 0l-9.258-.101h17.804" stroke="#25691E" stroke-width="3" stroke-linecap="round"/><circle cx="87.359" cy="40.844" r="16.406" stroke="#25691E" stroke-width="3"/></svg>