<svg width="107" height="126" fill="none" xmlns="http://www.w3.org/2000/svg"><path d="M2 124v-18.279a5 5 0 015-5h25.276a5 5 0 005-5v-17.67m0 0L16.83 57.365a5 5 0 01.173-7.196l.823-.757m19.45 28.64H59.4M105 53.677H75.585a5 5 0 00-5 5v14.376a5 5 0 01-5 5H59.4M46.37 2l-9.5 19.866m-8.568 17.916l-10.477 9.629m10.477-9.629L40.21 53.676M28.303 39.782l4.78-9.994M59.4 78.052v-8.775m-4.794 0H59.4m0 0v-3.41a5 5 0 00-5-5h-5.73a5 5 0 01-3.797-1.746l-4.665-5.445m9.358 15.6h-8.82a5 5 0 01-3.444-1.373L17.827 49.41M74.886 2l-21.51 32.054M40.209 53.676l8.015-11.944M33.082 29.788l15.142 11.944M33.082 29.788l3.789-7.922m11.353 19.866l5.153-7.678M36.87 21.866l16.506 12.188" stroke="#25691E" stroke-width="3" stroke-linecap="round"/></svg>