<svg width="103" height="124" fill="none" xmlns="http://www.w3.org/2000/svg"><path d="M20.561 57.538V7a5 5 0 015-5H96a5 5 0 015 5v103.165a5 5 0 01-5 5H54.913M37.309 34.569l-.86-.02a5 5 0 01-4.885-4.998V16.338a5 5 0 015-5h13.214M37.31 34.57l12.47-23.23M37.31 34.57l13.447.307m-.978-23.538h13.448m-12.47 23.538l34.984.797a5 5 0 005.114-4.999V16.338a5 5 0 00-5-5h-22.63m-12.47 23.538l12.47-23.538m-31.662 46.2v-6.427a5 5 0 015-5h25.818a5 5 0 015 5v1.427a5 5 0 01-5 5H44.4m18.703 34.65h1.113a5 5 0 015 5v3.516a5 5 0 01-5 5h-3.069m-6.846-34.773l.49-.492a5 5 0 013.545-1.474h6.246a5 5 0 015 5v3.148a5 5 0 01-5 5h-1.968M39.265 61.224c-4.624 2.765-7.367 5.52-8.825 9.584m-1.321 7.704c-36.71-24.022-35.603 52.738.002 42.551m-.002-42.55V84.2c-.207-5.834.123-10.055 1.32-13.393m-1.32 7.704c40.353-23.977 32.642 51.644-.243 42.551m1.564-50.255c-7.21 2.568-11.974 2.753-17.776-1.056-3.088-2.028-2.117-6.623 1.5-7.376 9.347-1.946 12.469 1.59 16.276 8.432zm56.27 21.38h-4.426a5 5 0 00-5 5v3.516a5 5 0 005 5h4.425a5 5 0 005-5v-3.516a5 5 0 00-5-5zm0-23.223h-4.426a5 5 0 00-5 5v3.148a5 5 0 005 5h4.425a5 5 0 005-5v-3.148a5 5 0 00-5-5zm-4.426-9.584h4.425a5 5 0 005-5v-3.27a5 5 0 00-5-5h-4.425a5 5 0 00-5 5v3.27a5 5 0 005 5z" stroke="#25691E" stroke-width="3" stroke-linecap="round"/></svg>