<svg width="38" height="39" viewBox="0 0 38 39" fill="none" xmlns="http://www.w3.org/2000/svg">
<path fill-rule="evenodd" clip-rule="evenodd" d="M17.2043 0.221923C16.9924 0.4356 16.1494 0.597325 14.758 0.690836C10.3848 0.984698 6.94578 2.88542 5.48091 5.81839C5.20185 6.37742 4.7111 7.86977 4.39065 9.13466C4.07019 10.3993 3.33305 12.483 2.75257 13.7651C1.73973 16.0014 1.69095 16.2049 1.54259 18.8061C1.45733 20.2969 1.2727 22.152 1.13217 22.9283C0.778596 24.8807 1.10621 26.7227 2.20699 28.9704C3.53625 31.6847 4.46628 32.7405 7.01873 34.4334C11.0528 37.1088 13.2828 37.8648 17.6698 38.0435C19.6257 38.1232 20.8231 38.2877 21.6504 38.5897C23.1697 39.1444 24.8858 39.1374 27.8288 38.5641C30.9051 37.9649 31.5841 37.707 34.1441 36.1649C37.6203 34.0711 38.1375 32.7798 37.5357 27.6951C37.3395 26.0361 37.1952 24.3384 37.2148 23.9221C37.2489 23.205 37.1884 23.1422 36.0509 22.7112C34.868 22.2633 34.8573 22.2509 35.2809 21.8233C35.5172 21.5848 36.208 21.0615 36.8163 20.6605L37.922 19.9314L37.9898 18.4738C38.0272 17.6722 37.8945 16.2759 37.6951 15.371C37.4955 14.4659 37.2952 13.0161 37.2497 12.1487C37.1439 10.1319 35.7088 6.75328 34.2589 5.10802C32.7229 3.3645 28.6626 1.52521 27.8509 2.20509C27.6654 2.36049 27.0207 3.51674 26.4183 4.77417C25.8161 6.03184 25.0465 7.3148 24.7082 7.62537L24.0932 8.19006L24.236 7.62537C24.3145 7.3148 24.705 5.77095 25.1036 4.19481C25.5021 2.61867 25.7801 1.28149 25.7212 1.22322C25.6621 1.16517 24.7581 1.01045 23.7119 0.879666C22.6657 0.74866 21.3062 0.547407 20.6909 0.432211C17.9014 -0.0900078 17.5353 -0.112143 17.2043 0.221923ZM20.0195 1.43012C20.5118 1.51731 21.2671 1.83082 21.6979 2.12717C22.1286 2.42351 22.8609 2.72799 23.3252 2.80366C23.7895 2.87932 24.2232 3.02953 24.2893 3.13705C24.3553 3.24479 24.1442 4.12095 23.8204 5.08385C23.4966 6.04697 23.1746 7.36833 23.1048 8.02065C23.035 8.67297 22.8913 9.20649 22.7854 9.20649C22.4307 9.20649 22.5883 9.86559 22.9956 10.0856C23.2169 10.2053 24.0478 10.3733 24.8418 10.4592C26.6327 10.653 27.5403 11.0634 28.4238 12.0787C29.2223 12.9966 29.5888 12.9203 28.8723 11.9854C28.1609 11.0568 26.8399 10.11 26.2561 10.11C25.8492 10.11 24.8272 9.78088 24.4213 9.5191C24.3808 9.4929 24.507 9.22591 24.7019 8.92573C25.0105 8.45026 25.2101 8.38521 26.2518 8.42203C27.5974 8.46946 28.3945 8.94312 29.5318 10.3715C30.2286 11.2468 30.6621 11.4772 30.6337 10.957C30.6252 10.8018 29.9489 10.0901 29.1308 9.37589C27.8192 8.23049 27.5303 8.07712 26.6848 8.07712C26.1574 8.07712 25.7259 8.01952 25.7259 7.94928C25.7259 7.50363 26.2681 6.96266 26.843 6.83527C28.0324 6.57145 28.8398 6.92856 30.2324 8.33416C30.9628 9.07141 31.6651 9.60945 31.7931 9.52971C32.0766 9.35285 31.3923 8.57111 29.9017 7.36923C29.013 6.65276 28.6416 6.49601 27.8317 6.49601C27.289 6.49601 26.8448 6.39775 26.8448 6.27781C26.8448 6.09598 27.4745 4.56434 27.6748 4.25873C27.765 4.12117 30.6444 5.37726 31.5762 5.96069C32.0245 6.24145 32.5909 6.75621 32.835 7.10474C33.7518 8.41412 35.3485 11.7338 35.3485 12.3305C35.3485 12.6714 35.6441 13.8107 36.0055 14.8619C36.3669 15.9131 36.7308 17.3955 36.8145 18.1563L36.9664 19.5393L35.8777 20.2788C35.2789 20.6856 34.5122 21.2765 34.1737 21.592C33.5726 22.1524 33.3573 22.7589 33.7594 22.7589C33.8702 22.7589 34.0255 24.0039 34.1045 25.5258C34.2258 27.8605 34.1835 28.5042 33.8349 29.6451C33.4562 30.8838 33.3454 31.0263 32.5181 31.3391C30.1642 32.2298 28.2889 33.0099 28.1875 33.1407C28.126 33.2202 27.5721 33.4743 26.9567 33.7054C26.3413 33.9365 25.6286 34.2619 25.3728 34.4284C24.8541 34.7661 22.6516 34.6728 21.9288 34.2823C21.695 34.156 21.2955 34.0526 21.0413 34.0526C20.7871 34.0526 20.579 33.9762 20.579 33.8827C20.579 33.7894 19.9828 33.7395 19.2542 33.7718C18.4239 33.8088 17.8166 33.7246 17.6266 33.5464C17.2003 33.1466 16.7959 33.0508 15.7677 33.1068C13.1183 33.2512 12.9805 33.2277 11.2882 32.349C10.3672 31.8708 9.61369 31.3918 9.61369 31.2845C9.61369 31.1774 9.53716 31.1374 9.4434 31.1957C9.16815 31.3676 8.43593 30.7175 8.60086 30.4481C8.68388 30.3125 8.66889 30.2229 8.56729 30.2488C8.26832 30.3259 6.57385 28.5819 6.16635 27.778C5.96002 27.3705 5.85149 26.9384 5.92534 26.8181C5.99918 26.6974 5.9457 26.5987 5.80651 26.5987C5.63509 26.5987 5.59257 26.2166 5.6747 25.4129C5.74139 24.7608 5.85753 23.5411 5.93249 22.7024C6.04752 21.4156 6.13367 21.1778 6.48546 21.1778C7.10376 21.1778 7.16978 21.4197 7.17336 23.699C7.17717 26.0038 7.73684 27.8241 8.51918 28.0748C8.75191 28.1494 8.94235 28.4127 8.94235 28.6601C8.94235 28.9076 9.03432 29.0526 9.14689 28.9824C9.25922 28.9124 9.48211 29.1531 9.64189 29.5175C9.80167 29.882 9.99703 30.14 10.0758 30.0907C10.1546 30.0415 10.4101 30.1479 10.6438 30.3268C11.4413 30.9382 13.838 32.0204 14.5796 32.1042C14.9869 32.15 15.5466 32.1015 15.8236 31.9962C16.2484 31.8349 16.3318 31.8837 16.3576 32.3077L16.388 32.8102L16.4851 32.302C16.6006 31.696 16.5415 31.7032 17.668 32.1582C18.1644 32.3587 18.7706 32.4699 19.0152 32.4053C19.3256 32.3233 19.4621 32.401 19.4668 32.6621C19.473 32.9961 19.4981 32.9939 19.7026 32.6393C19.8685 32.3517 20.0361 32.2991 20.3111 32.4477C20.5201 32.5604 20.7412 32.6478 20.8027 32.642C21.0758 32.6153 21.9216 32.9686 21.9216 33.1091C21.9216 33.1947 22.4717 33.295 23.1442 33.3322C24.1548 33.3883 24.6495 33.2658 25.9974 32.6268C26.8943 32.2015 28.484 31.4738 29.5302 31.0091C30.5764 30.5447 31.5834 30.0898 31.768 29.9986C32.5342 29.6189 32.7647 28.59 32.7936 25.4192C32.814 23.1869 32.9062 22.217 33.1235 21.953C33.3893 21.6295 33.36 21.5954 32.8762 21.6643L32.3275 21.7425L32.3865 24.2946C32.4514 27.1036 32.0267 29.2358 31.3562 29.4673C31.1519 29.5378 29.4239 30.2832 27.5162 31.1234C24.7156 32.3569 23.8967 32.6277 23.2643 32.5302C22.8336 32.4635 22.407 32.2959 22.3166 32.1579C22.202 31.9826 22.1513 31.993 22.1488 32.192C22.1461 32.419 21.9962 32.4159 21.4181 32.1767C21.018 32.0113 20.1406 31.8487 19.4679 31.8155C18.7952 31.7823 17.9585 31.6057 17.6083 31.4229C17.1374 31.1772 16.5968 31.1293 15.5307 31.2391C14.2249 31.3737 14.0891 31.3484 14.086 30.9696C14.0833 30.657 14.0352 30.627 13.8946 30.8506C13.7438 31.0907 13.5023 31.0525 12.6674 30.6561C12.0954 30.3848 11.6277 30.0666 11.6277 29.9487C11.6277 29.8308 11.5389 29.7896 11.4303 29.8574C11.2263 29.9848 10.0169 29.143 9.86164 28.7655C9.81353 28.6483 9.43758 28.2131 9.02649 27.7979C7.74781 26.5073 7.58445 25.9812 7.74647 23.6764C7.85164 22.1802 7.97181 21.6295 8.19268 21.6295C8.35873 21.6295 8.49814 21.7059 8.50217 21.7989C8.56796 23.3247 9.00255 25.1947 9.4839 26.0234C9.95138 26.8287 10.3587 27.1706 11.5114 27.7261C12.4309 28.169 13.0948 28.6614 13.3423 29.0845C13.8738 29.9927 14.5897 30.1933 16.283 29.9082C17.6461 29.679 17.7414 29.6955 19.1031 30.3936C20.0267 30.8671 20.8374 31.1162 21.4555 31.1162C21.9742 31.1162 22.5872 31.2181 22.8179 31.3428C23.4507 31.6845 25.4766 31.1812 26.3973 30.4535C27.4667 29.608 28.0635 29.3092 28.6825 29.3092C29.4299 29.3092 30.0807 28.7798 30.5466 27.7925C30.972 26.8908 31.0588 25.7221 31.162 19.5009C31.2206 15.9768 31.4867 15.1135 31.9533 16.9343C32.669 19.727 32.8627 20.7529 32.7368 21.084C32.6338 21.3549 32.7077 21.4276 33.0221 21.3648C33.6057 21.2485 33.5529 20.2713 32.8113 17.461C32.4181 15.97 32.293 15.1366 32.4405 14.9877C32.7497 14.6756 32.7184 14.4016 32.3738 14.4016C32.2144 14.4016 31.6149 14.9035 31.0414 15.5169L29.9983 16.6325L30.3705 17.3804C30.8026 18.2489 30.8483 20.9119 30.4893 24.34C30.1626 27.462 29.6705 28.4696 28.3321 28.7574C27.9449 28.8405 27.0514 29.2943 26.3467 29.7657C24.9895 30.6735 23.5662 31.0633 22.8895 30.7128C22.6648 30.5965 22.0277 30.4417 21.4734 30.369C20.9191 30.2961 19.9736 30.0169 19.3721 29.7483C18.4074 29.3176 18.0388 29.2778 16.2401 29.409L14.2012 29.5579L13.268 28.326C12.624 27.4758 12.1238 27.0475 11.6528 26.9432C11.1891 26.8404 10.7176 26.4438 10.1803 25.7052C9.4848 24.7488 9.38991 24.4568 9.38991 23.2746C9.38991 21.7702 9.45481 21.6297 10.0742 21.7933C10.4092 21.8818 10.5088 22.1066 10.5088 22.774C10.5088 23.5244 10.6438 23.7539 11.5212 24.494C12.1805 25.0501 12.6088 25.6304 12.7495 26.1576C13.1423 27.6305 13.7413 27.9637 16.3589 28.1663C17.6338 28.265 18.9789 28.4728 19.3482 28.628C20.0533 28.9243 22.8253 29.3526 24.1595 29.3711C24.7243 29.379 25.3361 29.1125 26.3536 28.4152C28.4502 26.9784 28.5232 26.8074 28.5232 23.3333C28.5232 21.7131 28.5883 20.2856 28.6682 20.1613C28.7479 20.0371 28.6866 19.1241 28.5317 18.1323L28.2504 16.329L28.9224 15.4849C29.5797 14.6595 29.9778 14.554 29.9778 15.2055C29.9778 15.5605 30.328 15.6468 30.5168 15.3383C30.582 15.2321 30.5227 14.845 30.3853 14.4777C30.1801 13.9286 30.2056 13.702 30.5287 13.2042C31 12.478 31.3204 12.6025 31.3204 13.5114C31.3204 13.9514 31.4339 14.1757 31.6561 14.1757C32.0909 14.1757 32.1037 13.082 31.676 12.4658C31.3985 12.066 31.4109 11.9436 31.7767 11.4557C32.1887 10.9064 32.1968 10.9053 32.5266 11.3523C32.7101 11.6007 32.9236 12.2106 33.0013 12.7075C33.3231 14.7666 34.5362 20.2072 34.7134 20.3863C34.7622 20.4353 34.9423 20.3879 35.1142 20.2808C35.3767 20.1171 35.3498 19.7871 34.9457 18.2039C34.2043 15.2996 33.782 13.2986 33.782 12.6901C33.782 12.0066 32.4727 9.6108 32.1943 9.7845C32.0829 9.85384 31.9918 10.0424 31.9918 10.2033C31.9918 10.3641 31.7177 10.7901 31.3827 11.1499C30.5773 12.0148 28.4113 14.8886 28.4113 15.0923C28.4113 15.1804 28.1969 15.3089 27.9346 15.3783C27.5804 15.4718 27.4998 15.6089 27.6207 15.9127C27.7102 16.1376 27.9181 17.0838 28.0826 18.0155C28.3435 19.4932 28.337 19.8476 28.0329 20.789C27.7464 21.6758 27.7288 22.0989 27.9342 23.1607C28.1251 24.1478 28.1186 24.7172 27.9062 25.5719C27.6404 26.6414 27.5486 26.7395 25.8385 27.7848C24.4085 28.6587 23.9363 28.8439 23.4888 28.7068C23.1806 28.6124 22.4457 28.5564 21.8556 28.5821C21.2653 28.6081 20.4225 28.4773 19.9826 28.2919C19.5429 28.1062 18.2129 27.797 17.0278 27.6043C15.8424 27.4119 14.6633 27.2109 14.4075 27.1578C14.1318 27.1006 13.6968 26.6055 13.3385 25.9412C13.0062 25.325 12.3948 24.609 11.9795 24.3502C11.5644 24.0911 11.1643 23.7204 11.0904 23.5264C10.859 22.9174 10.9445 21.8554 11.2249 21.8554C11.3943 21.8554 11.4149 21.7768 11.2809 21.6424C11.0945 21.4556 10.0089 21.1319 8.60668 20.8448C8.20611 20.7628 6.46733 20.2074 5.58564 19.8801C5.40102 19.8115 5.03983 19.7756 4.78316 19.8002C4.52648 19.825 4.21117 19.713 4.0825 19.5515C3.42055 18.721 3.76249 15.1031 4.78092 12.1616C5.0725 11.3189 5.38513 10.1877 5.47553 9.64807C6.16612 5.52159 7.96958 3.4108 11.8412 2.19673C15.2225 1.13648 17.2744 0.94404 20.0195 1.43012ZM15.3201 2.65277C14.4205 2.89536 13.409 3.02366 12.9442 2.95454C12.0359 2.81924 11.6058 3.00694 9.87574 4.29419C8.43884 5.36325 7.44794 6.86215 7.24385 8.27589C7.16105 8.84983 6.88939 9.726 6.64032 10.2229C6.09384 11.3132 4.91161 14.8818 5.14501 14.7361C5.40079 14.5766 5.5467 15.4022 5.47262 16.5887C5.43592 17.1789 5.29517 17.6991 5.16 17.7447C5.02484 17.7901 4.91429 17.9774 4.91429 18.1606C4.91429 18.344 5.01499 18.4312 5.13807 18.3544C5.26854 18.2728 5.36185 18.5025 5.36185 18.9057C5.36185 19.3692 5.4724 19.5967 5.69753 19.5967C5.88214 19.5967 6.0332 19.4374 6.0332 19.2427C6.0332 18.7589 6.91266 19.0331 7.4269 19.6771C7.6395 19.9434 7.81584 20.0414 7.81852 19.8948C7.82121 19.748 8.04991 19.5879 8.32695 19.5388C8.72842 19.4675 8.55834 19.3227 7.48777 18.8244C5.78704 18.0329 5.46345 17.7795 5.84791 17.5399C6.0464 17.4159 6.11846 16.7875 6.08825 15.4388C6.05043 13.7346 6.12517 13.3262 6.74102 11.8686C7.15725 10.8836 7.49158 9.62684 7.57393 8.73803C7.75318 6.8041 8.5062 5.63904 10.3528 4.4383C11.5986 3.62854 11.8535 3.54678 12.8585 3.63374C13.4739 3.68705 14.5109 3.5906 15.1632 3.41939C15.8153 3.24795 16.9231 3.10813 17.6248 3.10836C18.7372 3.10881 19.0642 3.22107 20.1784 3.9852C21.5969 4.95781 22.9927 5.35874 23.2869 4.87808C23.4998 4.53023 23.235 4.35473 22.1454 4.1214C21.7147 4.02924 20.9594 3.66604 20.4671 3.31413C19.655 2.73363 18.0793 2.20374 17.2222 2.22294C17.0376 2.227 16.1817 2.42057 15.3201 2.65277ZM15.891 4.82364C15.2203 5.00569 14.5353 5.10192 14.369 5.03732C14.2028 4.97294 13.3607 5.04251 12.498 5.19181C10.977 5.45496 10.9051 5.49742 10.1185 6.60081C9.49957 7.46907 9.23953 8.13291 9.01955 9.40571C8.86112 10.3228 8.59281 11.2884 8.42363 11.5515C7.76884 12.5697 7.40117 14.2977 7.42086 16.265C7.4316 17.3522 7.52045 18.2414 7.61824 18.2414C7.88633 18.2414 8.11302 16.3472 7.94003 15.5524C7.79413 14.882 8.35649 12.7798 8.99919 11.5942C9.13861 11.3369 9.3221 10.5489 9.40692 9.84322C9.5978 8.25556 10.1964 7.36969 11.7604 6.35981C12.9205 5.61081 14.5369 5.29572 14.5369 5.81839C14.5369 5.94262 14.4265 6.04426 14.2916 6.04426C14.1569 6.04426 13.7288 6.27284 13.3405 6.55202C12.9523 6.83143 12.5381 7.06024 12.4199 7.06024C12.0536 7.06092 11.2753 8.41977 10.8483 9.80415C10.6241 10.5315 10.2546 11.3688 10.0272 11.6651C9.74057 12.0385 9.61123 12.593 9.60586 13.4721C9.60138 14.1696 9.45391 14.9945 9.27802 15.3051C8.9325 15.9149 8.86582 16.9542 9.08602 18.2979C9.31987 19.7256 9.56379 19.2409 9.54052 17.3944C9.51747 15.5402 10.1367 12.8686 10.8165 11.8887C11.0166 11.6005 11.1817 10.9554 11.1837 10.4549C11.1887 9.29051 11.9723 7.89462 12.9207 7.36178C13.3242 7.13523 13.9034 6.78512 14.2075 6.58387C14.9381 6.10073 14.9099 6.41673 14.1457 7.27414C13.5885 7.89958 13.608 7.89258 14.3534 7.20164C15.0225 6.58116 15.2892 6.46755 15.782 6.59246L16.388 6.74582L15.7422 7.43248C15.387 7.81014 14.6197 8.36488 14.0369 8.66484C12.8536 9.27425 12.0753 10.4867 12.0753 11.7209C12.0753 12.1198 11.8016 13.1148 11.4668 13.9322C10.9215 15.2642 10.8577 15.7024 10.8499 18.1644C10.8449 19.675 10.9145 20.8649 11.0045 20.8089C11.3178 20.6135 11.6277 18.9753 11.4863 18.262C11.2659 17.1491 11.841 14.2033 12.3772 13.6991C12.6267 13.4642 12.9127 13.2722 13.0127 13.2722C13.3618 13.2722 13.1906 14.3815 12.8026 14.6333C12.4295 14.8752 12.4295 14.8816 12.8026 14.7646C13.1143 14.6667 13.1942 14.777 13.1942 15.3042C13.1942 15.6687 13.0519 16.4024 12.8778 16.9347C12.5356 17.9805 12.2973 21.4036 12.5665 21.4036C12.9142 21.4036 13.1942 20.4803 13.1955 19.3292C13.1964 18.6688 13.3475 17.8373 13.5312 17.4816C13.7152 17.1256 13.8655 16.5081 13.8655 16.1092C13.8655 15.6353 14.0519 15.207 14.4033 14.8739L14.9408 14.3641L15.0364 15.6816C15.1145 16.7577 15.0364 17.1721 14.6107 17.9428C14.2238 18.643 14.0893 19.2423 14.0893 20.2652C14.0893 22.8501 14.9788 23.9488 17.8379 24.8954C19.5297 25.4554 19.7828 25.4843 20.8589 25.2385C21.505 25.0908 22.2502 24.9401 22.5147 24.9033C23.9549 24.7032 24.3013 24.2207 24.6222 21.9683C24.8704 20.2262 24.5777 19.1029 23.6985 18.4237C23.3277 18.1371 22.7006 17.6406 22.305 17.3201C21.9096 16.9998 21.1098 16.509 20.5275 16.2293C19.9454 15.9497 18.9783 15.236 18.3785 14.643C17.7788 14.0503 16.9712 13.4238 16.5838 13.2507C16.1964 13.0777 15.8796 12.7906 15.8796 12.6131C15.8796 12.3841 15.7238 12.4378 15.3452 12.7967C15.0466 13.0798 14.8546 13.4735 14.9104 13.688C15.0352 14.1703 13.9855 15.2319 13.7554 14.856C13.6688 14.7146 13.7841 14.3846 14.0114 14.1226C14.2388 13.8606 14.2878 13.7276 14.1202 13.827C13.9358 13.9363 13.7384 13.8848 13.6203 13.6964C13.3271 13.2295 13.364 13.1184 14.0334 12.4507C14.3717 12.113 14.4702 11.971 14.2518 12.1349C13.6905 12.5564 13.4813 12.2246 13.8716 11.5312C14.2981 10.7729 14.8233 10.451 15.3201 10.6435C15.6961 10.789 15.6947 10.8231 15.2946 11.3006L14.8725 11.804L15.3734 11.3762C15.8688 10.9529 15.8838 10.955 16.7854 11.5856C17.2865 11.9362 17.7938 12.4062 17.9126 12.6303C18.3228 13.4043 19.732 14.1757 20.7354 14.1757C21.5276 14.1757 21.8644 14.3331 22.7886 15.1357C23.3968 15.6638 24.2776 16.4089 24.746 16.7918L25.5975 17.4881L25.7543 20.6316C25.9083 23.7195 25.7479 25.2896 25.2459 25.6026C24.7317 25.9234 23.4881 26.1014 23.4881 25.8543C23.4881 25.7192 23.3624 25.7779 23.2084 25.9846C22.9743 26.299 22.5822 26.3478 20.8027 26.2841C18.8986 26.2159 17.5572 26.0749 16.2152 25.8021C15.5331 25.6634 13.7606 23.8752 13.4227 22.9848C13.0832 22.0908 12.8111 21.7151 12.6329 21.8949C12.4208 22.1091 13.4233 24.2029 14.0477 24.8498C14.3782 25.1924 14.8764 25.7122 15.1543 26.0049C15.5381 26.4088 16.0237 26.5804 17.1683 26.716C19.6525 27.0105 22.7611 27.0324 23.4747 26.7607C24.2765 26.4551 24.5074 26.6202 24.1698 27.2569C24.0324 27.516 23.9713 27.7281 24.0339 27.7281C24.0966 27.7281 24.3042 27.4232 24.4951 27.0505C24.686 26.6778 24.9785 26.3729 25.1448 26.3729C25.883 26.3729 26.6179 24.614 26.6076 22.8718C26.604 22.2507 26.4138 20.7294 26.1851 19.491C25.7946 17.3784 25.7161 17.1929 24.9082 16.483C24.4349 16.0667 23.6351 15.327 23.1312 14.8389C22.4419 14.1714 21.9295 13.8967 21.0626 13.731C19.7179 13.4735 18.9796 13.038 18.5661 12.258C18.4029 11.9504 18.1093 11.6443 17.9137 11.5782C17.7179 11.512 17.3089 11.264 17.0043 11.027C16.4598 10.6035 16.4576 10.5886 16.8711 10.1274C17.512 9.41249 18.0319 9.55478 19.1913 10.7625C20.2686 11.8849 21.323 12.3649 22.717 12.3674C23.7144 12.3694 25.6125 13.4055 26.4693 14.416C27.018 15.0627 27.2799 15.2274 27.464 15.0415C28.1043 14.3952 24.8424 11.917 23.3514 11.917C23.0694 11.917 22.3218 11.8049 21.6896 11.6683C20.7875 11.4729 20.3431 11.2077 19.6223 10.4346C19.0978 9.87191 18.4101 9.38583 18.0189 9.30135C17.6423 9.21981 17.1484 9.0547 16.9215 8.93454C16.5296 8.72718 16.5352 8.68585 17.0334 8.11439L17.5579 7.51244L16.9924 8.01275C16.6149 8.34659 16.2616 8.46924 15.9295 8.3816C15.2975 8.2149 15.3051 8.12252 16.0125 7.37737C16.5091 6.85424 16.6905 6.79393 17.2663 6.96063C17.6367 7.06769 18.2651 7.40605 18.6627 7.71211C19.0606 8.01839 20.0135 8.52638 20.7801 8.8408C21.9216 9.30881 22.1618 9.34879 22.104 9.06035C22.0653 8.86655 21.5522 8.5239 20.9641 8.29893C20.376 8.07396 19.4193 7.58811 18.8382 7.21925C18.2046 6.81697 17.177 6.43728 16.2712 6.27081C15.4405 6.11812 14.7607 5.91935 14.7607 5.829C14.7607 5.55299 17.8696 5.08588 18.6826 5.23993C19.1031 5.31943 19.7485 5.64085 20.1171 5.95391C20.7385 6.48178 21.8726 6.94775 22.5355 6.94775C23.1435 6.94775 22.7785 6.29792 22.0895 6.15381C21.6894 6.07024 21.001 5.75492 20.5595 5.45315C19.0595 4.42791 17.9173 4.27387 15.891 4.82364ZM15.7319 9.03912C15.6506 9.1717 15.6932 9.20988 15.8283 9.12562C15.961 9.04273 16.3307 9.09491 16.6498 9.2415L17.2296 9.50825L16.7724 9.99953C16.3719 10.4298 16.2213 10.461 15.5553 10.2505C15.1373 10.1183 14.8551 9.91279 14.928 9.79331C15.0012 9.67405 14.6662 9.86852 14.1835 10.2259C13.0145 11.0916 12.7509 11.3505 13.362 11.0331C13.9738 10.7155 13.9734 10.7099 13.4182 11.977C12.7659 13.4656 12.2991 13.548 12.2991 12.1751C12.2991 11.3157 12.4132 10.9841 12.8516 10.5683C13.1555 10.2801 13.3414 9.9417 13.2647 9.81634C13.1879 9.69098 13.2278 9.65259 13.3535 9.73096C13.4791 9.80934 13.7715 9.66049 14.0034 9.40029C14.4908 8.85345 15.1973 8.54106 15.5985 8.69511C15.7518 8.75406 15.8118 8.90879 15.7319 9.03912ZM16.9743 14.0734C17.448 14.3898 18.1489 15.0424 18.5318 15.5233C18.9149 16.0041 19.7586 16.6549 20.4071 16.9691C22.2549 17.8647 23.7925 18.9787 24.1129 19.6536C24.3338 20.1189 24.3524 20.565 24.1879 21.4588C23.7925 23.6082 23.6781 23.7609 22.1434 24.1916C19.6474 24.892 19.0485 24.8963 17.3899 24.2253C15.2847 23.3737 14.7607 22.6936 14.7607 20.8125C14.7607 19.7699 14.8965 19.0839 15.2362 18.4122C15.6585 17.5767 15.6835 17.3485 15.46 16.371C15.1192 14.8811 15.1424 14.3975 15.5786 13.9112C16.0384 13.3982 15.9476 13.3876 16.9743 14.0734ZM16.6129 17.5708C16.7093 18.2963 16.6321 18.6062 16.2329 19.0954C15.4844 20.0132 15.4331 20.3409 15.8811 21.351C16.3522 22.4131 16.9204 22.8456 18.4665 23.3191C19.979 23.7821 21.2221 23.7469 22.0834 23.2167C23.2916 22.4732 23.3512 20.8568 22.1978 20.1092C21.8612 19.8912 20.7486 19.0259 19.725 18.1865C18.3302 17.0427 17.692 16.6603 17.1779 16.6603C16.5059 16.6603 16.4945 16.6788 16.6129 17.5708ZM19.0843 18.3851C19.8336 19.0853 20.7719 19.7954 21.1691 19.963C22.4939 20.5216 23.0012 21.8644 22.1732 22.6207C21.5003 23.2353 20.2596 23.3213 18.7444 22.8583C17.6432 22.5217 17.2619 22.2726 16.7436 21.5505C15.9836 20.4913 15.9449 19.9843 16.563 19.191C16.8159 18.8666 17.0065 18.3424 16.9868 18.0259C16.9342 17.1821 16.9629 17.1121 17.3601 17.1121C17.559 17.1121 18.3349 17.6849 19.0843 18.3851ZM17.7146 19.6418C17.2102 20.151 17.4268 20.8606 18.304 21.5721C19.3352 22.4086 20.634 22.6385 20.76 22.007C20.9312 21.1489 20.5646 20.5108 19.5596 19.9163C19.0015 19.586 18.4879 19.373 18.4188 19.4431C18.3494 19.5131 18.648 19.72 19.0821 19.9032C19.8741 20.237 20.3552 20.8412 20.3552 21.5017C20.3552 22.0225 19.4055 21.9444 18.4781 21.3472C17.662 20.8218 17.4458 20.139 17.9383 19.6418C18.086 19.4928 18.1565 19.3708 18.095 19.3708C18.0335 19.3708 17.8623 19.4928 17.7146 19.6418ZM8.98196 19.9732C9.09072 20.5399 9.61369 20.6176 9.61369 20.0672C9.61369 19.7898 9.46913 19.5967 9.26169 19.5967C9.05312 19.5967 8.93899 19.7503 8.98196 19.9732ZM4.92167 20.9519C5.02864 20.9519 5.096 21.7653 5.07116 22.7591C5.04632 23.7532 5.07653 24.5666 5.13807 24.5668C5.19961 24.567 5.24996 25.2022 5.24996 25.9783C5.24996 27.4431 5.89222 29.2918 6.4049 29.3033C6.72222 29.3106 7.74311 30.5048 7.92415 31.0807C7.99665 31.3109 8.30368 31.6133 8.60668 31.7527C8.99113 31.9296 9.11846 32.1272 9.02873 32.4082C8.92444 32.7344 8.94369 32.7481 9.13055 32.4818C9.32792 32.2006 9.44295 32.1979 9.93482 32.4635C10.2506 32.6341 10.5088 32.8581 10.5088 32.9614C10.5088 33.0646 10.6639 33.1491 10.8534 33.1491C11.3968 33.1491 12.97 34.0322 12.9738 34.3394C12.9762 34.5334 13.0268 34.542 13.1416 34.3681C13.232 34.2312 13.691 34.1334 14.1614 34.151C14.6318 34.1684 15.0646 34.1043 15.1234 34.0083C15.2348 33.8265 16.1532 33.8136 16.8306 33.9843C17.0459 34.0385 17.2303 34.254 17.2399 34.463C17.2509 34.7004 17.3001 34.7365 17.3708 34.5594C17.4333 34.4033 17.5875 34.3399 17.7134 34.4185C17.8394 34.4971 18.5808 34.5474 19.3611 34.5305C20.4436 34.5068 21.0077 34.6204 21.7422 35.01C22.7114 35.5241 25.2484 35.7755 25.5084 35.3829C25.5733 35.2849 26.0746 35.0023 26.6222 34.7548C27.3642 34.4196 27.661 34.3735 27.7874 34.5741C27.9183 34.7819 27.9577 34.7814 27.9604 34.5727C27.9633 34.346 29.5559 33.3871 30.3134 33.1561C30.8015 33.0072 31.6624 32.5853 31.768 32.443C31.8295 32.3601 32.3062 32.1767 32.8272 32.0355C33.8812 31.7495 34.115 31.4295 34.5769 29.6397C34.8054 28.7538 34.8528 27.7403 34.7501 25.9288C34.6725 24.558 34.6595 23.4365 34.7215 23.4365C34.7835 23.4365 35.1261 23.5393 35.483 23.6649L36.1317 23.893L36.0742 26.6577C35.9715 31.5799 35.5649 32.5387 33.0794 33.7169C32.2966 34.0878 31.6225 34.4677 31.5816 34.5608C31.5404 34.6538 31.3571 34.7302 31.1739 34.7302C30.9908 34.7302 30.6825 34.8901 30.4887 35.0857C30.2347 35.3423 30.0919 35.3683 29.9764 35.1797C29.8663 34.9999 29.7708 35.0378 29.6705 35.3016C29.5761 35.5499 29.3682 35.6436 29.0799 35.5675C28.8354 35.5029 28.6351 35.5304 28.6351 35.6285C28.6351 35.7265 28.3833 35.8555 28.0756 35.9149C27.7514 35.9774 27.5148 35.9174 27.5128 35.7717C27.5108 35.6298 27.4253 35.6544 27.3161 35.8284C27.0339 36.2781 25.2784 36.5708 25.2784 36.1681C25.2784 35.9497 25.1542 35.9849 24.8532 36.2887C24.1776 36.9706 21.2563 36.7461 21.2469 36.0113C21.2447 35.8442 21.1829 35.8297 21.0791 35.9725C20.9887 36.0967 19.7313 36.2257 18.2852 36.2593C15.9019 36.3144 15.6542 36.2828 15.6381 35.9205C15.6276 35.684 15.5743 35.6362 15.5076 35.8031C15.372 36.1421 14.6203 36.1787 14.4227 35.8559C14.3453 35.7297 14.1931 35.6818 14.0842 35.7498C13.9752 35.8178 13.6268 35.8076 13.3094 35.7274C12.8536 35.6118 12.7601 35.4803 12.8623 35.0993C12.9762 34.6748 12.9623 34.6644 12.7462 35.0125C12.4906 35.4238 11.8515 35.56 11.8515 35.2032C11.8515 35.0904 11.6595 35.0491 11.4245 35.111C11.1795 35.1758 10.8163 35.0405 10.5715 34.7934C10.337 34.5567 10.0319 34.4013 9.89342 34.4478C9.7549 34.4944 9.44385 34.3329 9.20216 34.0889C8.96048 33.845 8.5514 33.5778 8.29316 33.4949C8.03469 33.4122 7.82344 33.1929 7.82344 33.0077C7.82344 32.8222 7.73192 32.7278 7.6198 32.7976C7.24766 33.0298 6.70454 32.6558 6.70118 32.1649C6.69827 31.7694 6.65799 31.7428 6.48031 32.0197C6.29882 32.3027 6.17262 32.2469 5.7123 31.6809C5.07631 30.8989 4.81918 29.9927 5.02417 29.2577C5.13248 28.8692 5.11234 28.8252 4.94114 29.0768C4.67373 29.4694 4.67104 29.4664 4.1465 28.2485C3.92205 27.7272 3.80031 27.1374 3.87617 26.938C3.95203 26.7386 3.92585 26.6304 3.81799 26.6977C3.50671 26.8917 3.29076 24.8697 3.56713 24.3486C3.71058 24.0778 3.72311 23.8883 3.59756 23.8883C3.46777 23.8883 3.45659 23.6003 3.56915 23.1542C3.67119 22.7505 3.82023 22.0304 3.90056 21.5541C4.01022 20.9038 4.13106 20.7211 4.38684 20.82C4.57392 20.8925 4.81471 20.9519 4.92167 20.9519ZM4.12189 22.9999C4.04065 23.1323 4.0223 23.2892 4.08093 23.3484C4.13956 23.4076 4.2472 23.2992 4.32015 23.1074C4.47143 22.7094 4.34254 22.6394 4.12189 22.9999Z" fill="#FF4F00" fill-opacity="0.37"/>
</svg>
