<svg width="39" height="39" viewBox="0 0 39 39" fill="none" xmlns="http://www.w3.org/2000/svg">
<path fill-rule="evenodd" clip-rule="evenodd" d="M10.8685 0.535578C9.54258 0.823469 8.16963 1.16993 7.81767 1.3054C6.44725 1.83188 2.83189 4.08933 2.42414 4.67257C1.26954 6.32506 1.08724 7.75457 1.57236 11.3497C1.97047 14.3005 1.96955 14.3591 1.48558 16.6385C1.21627 17.9063 0.996094 19.6162 0.996094 20.4385C0.996094 21.894 1.56777 25.012 1.89907 25.3643C1.98999 25.4609 2.72789 25.3352 3.53903 25.0846C4.42387 24.8114 5.65677 24.6284 6.62105 24.6275L8.22818 24.6255L7.53941 25.261C7.16058 25.6106 6.43485 26.1952 5.92677 26.5604C3.25985 28.4764 1.97139 29.8853 2.55225 30.2508C2.6744 30.3275 3.14046 31.1086 3.5877 31.9863C4.44316 33.6648 5.67031 34.941 7.12729 35.6676C9.38623 36.794 12.5311 37.7484 15.0452 38.0704C16.4732 38.2534 18.2096 38.5101 18.9041 38.6406C20.9263 39.021 24.2083 39.1227 25.103 38.8328C25.545 38.6896 26.2165 38.5377 26.5954 38.4952C27.7256 38.3681 27.9167 37.8952 27.7452 35.6484C27.5808 33.4963 27.739 33.2306 28.5317 34.327C29.0286 35.0142 30.9537 36.3834 31.4234 36.3834C31.9056 36.3834 34.0045 34.1261 34.513 33.0605C34.7841 32.492 35.2098 31.2009 35.4585 30.1911C35.989 28.0384 36.1279 27.6575 37.3661 24.9627C38.2301 23.082 38.3123 22.7297 38.4484 20.3266C38.5294 18.8962 38.7156 17.0135 38.8621 16.1428C39.2118 14.0667 38.8823 12.1562 37.8106 10.045C36.4161 7.29797 35.4596 6.26242 32.6216 4.42765C28.5636 1.80406 25.5918 0.877518 21.2347 0.877518C19.4531 0.877518 18.7354 0.779595 17.9534 0.430191C16.5919 -0.178384 13.9753 -0.139485 10.8685 0.535578ZM17.5991 2.50061C17.9077 2.66434 19.425 2.78375 21.5444 2.81066C26.2363 2.87037 28.3345 3.43756 31.6783 5.54982C32.9798 6.37188 34.1953 7.27106 34.3796 7.54786C35.0808 8.60196 36.3858 12.3552 36.5116 13.68C36.5993 14.6018 36.5097 15.6509 36.2432 16.8316C35.8981 18.3597 35.8816 18.8218 36.1233 20.2135C36.4374 22.0216 36.2106 23.4617 34.966 27.5634C34.6074 28.7451 34.0949 30.4604 33.8272 31.3757C33.5581 32.2948 33.1045 33.2715 32.8136 33.558C32.5241 33.8432 32.2226 34.2417 32.1441 34.4436C31.9388 34.9701 31.4792 35.0819 30.7101 34.7919L30.0392 34.5391L30.5439 34.134C30.8214 33.9115 31.1208 33.4454 31.2092 33.0983C31.3612 32.5017 31.3871 32.4904 31.6845 32.8911C31.9696 33.2753 31.9859 33.2496 31.8571 32.6152C31.7733 32.2032 31.8383 31.695 32.0151 31.3791C32.4155 30.6628 33.1231 28.6661 33.1265 28.2419C33.1281 28.0553 33.458 26.8617 33.8598 25.5891L34.5901 23.2758L34.1627 22.342C33.7409 21.4205 33.742 21.3829 34.2464 19.4541C34.7949 17.3574 34.9444 13.6334 34.5236 12.5433C34.2901 11.9384 33.5979 11.9422 33.5979 12.5485C33.5979 12.7218 33.3834 12.8636 33.1212 12.8636C32.8593 12.8636 31.9372 13.2706 31.0724 13.7682C30.2075 14.2657 29.4072 14.6728 29.294 14.6728C29.1805 14.6728 28.6821 14.9751 28.186 15.3449C27.6901 15.7147 27.1034 16.02 26.8824 16.0234C26.5504 16.0286 26.4806 16.2407 26.4806 17.2448C26.4806 17.9841 26.2902 18.8916 25.9945 19.5629C25.5209 20.6375 24.5167 21.9096 24.1417 21.9096C23.8111 21.9096 23.9427 20.9474 24.4026 20.0023C24.6484 19.4966 24.9178 18.5667 25.0006 17.9357C25.1327 16.9302 25.0833 16.7106 24.5989 16.1561C24.0931 15.5769 23.8531 15.5059 21.7639 15.3166C19.3355 15.0968 17.4529 14.6454 16.8571 14.1404C16.6571 13.971 16.1796 13.7288 15.7957 13.6024C15.2107 13.4097 14.9988 13.4507 14.4824 13.8561C13.7556 14.4272 13.6945 14.7524 13.9422 16.7319C14.0951 17.954 14.0577 18.3613 13.7363 18.9735C13.2064 19.983 13.3905 21.1161 14.3387 22.6774C15.0543 23.8561 15.2082 23.9735 16.7728 24.5357C17.9019 24.9412 18.8566 25.4921 19.7201 26.2364C20.8187 27.1835 21.1334 27.3373 21.973 27.3373C23.2709 27.3373 23.6337 27.0256 24.2037 25.4213C24.6232 24.2408 24.6475 23.9629 24.3966 23.2139C24.1316 22.4228 24.1507 22.3135 24.6464 21.7941C24.9414 21.4845 25.2683 21.2312 25.3726 21.2312C25.671 21.2312 25.5937 22.466 25.2752 22.7851C25.0452 23.0155 25.0528 23.0583 25.3136 22.9999C25.5466 22.9479 25.6527 23.1838 25.6873 23.8319C25.7509 25.0161 24.8183 27.1111 24.2278 27.1111C23.9955 27.1111 23.5629 27.3655 23.2663 27.6765C22.3771 28.6089 21.2852 28.4617 20.0739 27.2461C19.0749 26.2434 17.7562 25.7386 17.7562 26.3587C17.7562 26.5249 18.0025 26.6588 18.3079 26.6588C18.6702 26.6588 19.2372 27.0469 19.9598 27.7896C20.9507 28.8079 21.1594 28.9203 22.0612 28.9203C22.8643 28.9203 23.185 28.7928 23.681 28.276C24.0212 27.9217 24.4829 27.5675 24.7072 27.4893C25.1708 27.3276 25.8701 25.8537 26.121 24.5104C26.2138 24.0128 26.4592 23.4022 26.6661 23.1535C26.8729 22.9047 26.8952 22.8285 26.7154 22.9839C25.8109 23.7666 25.7569 22.5628 26.6528 21.5835L27.2841 20.8935L26.6243 21.4582L25.9645 22.0227L26.1288 21.4573C26.2193 21.1464 26.4904 20.5073 26.7313 20.0369C26.9997 19.5131 27.1693 18.7128 27.1693 17.971C27.1693 16.9445 27.2527 16.7063 27.7169 16.4067C28.0181 16.2122 28.3244 16.112 28.3972 16.1839C28.633 16.416 28.2645 18.3799 27.8221 19.2501C27.5036 19.8763 27.4189 20.4179 27.4958 21.3361C27.5532 22.0182 27.5103 22.8841 27.4008 23.2607C27.2697 23.7105 27.2834 23.945 27.4409 23.945C28.0815 23.945 26.554 27.779 25.4828 28.8604C24.7733 29.5764 24.712 29.5927 22.5665 29.6318C20.5505 29.6687 20.2885 29.6219 19.2951 29.0483C18.4603 28.5666 18.2153 28.5024 18.2153 28.7656C18.2153 29.1976 19.4528 30.2341 20.1845 30.415C20.4931 30.4912 20.7392 30.7178 20.7374 30.9236C20.7342 31.2461 20.7045 31.2502 20.5112 30.9557C20.3211 30.6658 20.2881 30.6739 20.2851 31.0122C20.2807 31.5218 19.9324 31.5163 19.4064 30.9982C19.1775 30.7727 18.8749 30.626 18.7342 30.6723C18.3919 30.7847 18.8265 32.0351 19.2039 32.0236C20.1216 31.9956 20.2816 32.1064 20.2816 32.7708C20.2816 33.4542 20.2807 33.4545 19.6108 33.1134C19.0972 32.8515 18.9163 32.8371 18.8387 33.051C18.7829 33.2046 18.6658 33.2652 18.5783 33.1858C18.4031 33.0264 17.555 28.7548 17.361 27.0546L17.2387 25.9804L16.2921 25.977C15.157 25.9727 15.0128 25.8854 14.3389 24.7931C14.051 24.3267 13.7454 23.945 13.6598 23.945C13.5742 23.945 13.2211 23.6865 12.8751 23.3706C12.3732 22.9122 12.246 22.5949 12.246 21.8022C12.246 21.2556 12.1408 20.5358 12.0123 20.2026C11.8444 19.7682 11.8692 19.1653 12.0997 18.0682C12.3394 16.928 12.3624 16.2477 12.1909 15.3924C11.8562 13.7254 12.1128 12.7107 13.0046 12.1752C13.8901 11.6435 15.4159 11.5822 15.6063 12.0707C15.6788 12.2566 15.8297 12.3529 15.9415 12.2846C16.0535 12.2165 16.4043 12.416 16.7212 12.7281C17.0378 13.04 17.297 13.2455 17.297 13.1845C17.297 13.1236 17.4979 13.1797 17.7435 13.3091C18.5278 13.7225 21.4526 13.8987 23.2691 13.6418C24.1068 13.5233 24.4127 13.5814 24.8686 13.945C25.3779 14.3512 25.3999 14.4358 25.0957 14.8164C24.783 15.2079 24.7887 15.2149 25.1763 14.9148C25.5512 14.6246 25.6474 14.6574 26.1148 15.235C26.4218 15.6142 26.6971 15.7811 26.7848 15.6416C26.8665 15.5111 26.7092 15.1235 26.4351 14.7804L25.9369 14.1565L26.4638 13.7361C27.1705 13.1725 27.2763 13.1967 27.8317 14.0509C28.363 14.8682 28.4523 14.6698 28.0567 13.5515C27.8476 12.9604 27.8588 12.7758 28.1141 12.6166C28.6128 12.3054 28.7719 12.3699 29.0061 12.9766C29.1261 13.2876 29.3819 13.542 29.5743 13.542C30.0004 13.542 30.0034 13.3717 29.5897 12.6374C29.3128 12.1462 29.3185 12.02 29.6333 11.6763C30.1439 11.1184 30.5801 11.1848 30.7484 11.8459C30.8276 12.1568 30.9879 12.4113 31.1045 12.4113C31.4755 12.4113 31.5765 11.7857 31.2905 11.2595C31.0579 10.8314 31.0802 10.7034 31.4317 10.4503C32.024 10.0236 32.308 10.0756 32.5677 10.6586C32.7573 11.0842 33.8274 11.5465 33.8274 11.2027C33.8274 11.1428 33.4296 10.3978 32.9433 9.5475C32.1551 8.16888 31.8525 7.87262 30.1515 6.814C28.7269 5.92749 28.0257 5.62671 27.3835 5.62671C26.9104 5.62671 25.8458 5.32728 25.0176 4.96114C23.5414 4.30869 23.4479 4.29739 20.2323 4.3736C17.3594 4.44167 16.8197 4.39531 15.8804 4.00113C15.2906 3.75372 14.6278 3.58569 14.4071 3.62775C13.8437 3.7354 13.7312 4.24334 14.2359 4.40187C14.4673 4.47469 15.0532 4.6979 15.5379 4.89759C16.5731 5.32457 21.1027 5.47564 22.3108 5.12352C22.974 4.93016 23.2601 4.99439 24.4379 5.60251C25.2766 6.03582 26.1383 6.30516 26.6847 6.30516C27.6549 6.30516 29.2423 7.063 30.734 8.23808C31.2425 8.6386 31.8622 9.00496 32.1115 9.05223C32.4584 9.11804 32.2685 9.30371 31.302 9.84444C29.7391 10.7185 27.8723 12.0282 26.591 13.1496C25.9617 13.7006 25.4867 13.9516 25.2458 13.8604C25.041 13.7831 24.8734 13.6388 24.8734 13.54C24.8734 13.1447 23.5023 12.9416 21.4978 13.0402C19.0173 13.1621 17.6634 12.9757 17.8347 12.5361C17.9125 12.336 17.8136 12.2717 17.5362 12.3432C17.2995 12.4043 16.9863 12.272 16.8073 12.0349C16.6346 11.8065 16.2868 11.5872 16.0342 11.5471C15.7817 11.5073 15.2943 11.42 14.951 11.3529C14.6078 11.2859 14.0136 11.3388 13.6309 11.4702C13.0372 11.6742 12.9297 11.6527 12.8999 11.3253C12.8806 11.1141 12.8535 10.818 12.8397 10.6672C12.8259 10.5166 12.6868 10.2673 12.5302 10.1131C12.3739 9.9591 12.246 9.76076 12.246 9.67211C12.246 9.58346 11.8226 8.78786 11.3054 7.90383C10.7879 7.0198 10.1758 5.68234 9.94505 4.93174L9.52559 3.56714L10.0247 3.38147C10.2993 3.27925 10.963 3.1232 11.4998 3.03433C12.468 2.87444 12.4756 2.87851 12.4756 3.55402C12.4756 4.14157 12.3578 4.27183 11.6146 4.50567C10.553 4.83992 10.2187 5.11651 10.6701 5.28725C10.8556 5.35736 11.3786 5.26193 11.832 5.07535L12.6567 4.7359L12.8124 5.55366C12.9766 6.41575 12.741 6.74728 11.959 6.75407C11.7379 6.75588 11.5572 6.9169 11.5572 7.11184C11.5572 7.37847 11.6856 7.42484 12.0738 7.29888C12.3578 7.20683 12.797 7.1236 13.0496 7.11411C13.7645 7.08697 14.4606 6.07901 13.7643 6.07901C13.3944 6.07901 13.112 4.6789 13.4401 4.4722C13.5634 4.39463 13.5009 4.18137 13.2961 3.97964C12.6184 3.31204 12.8457 2.77199 13.9105 2.51983C15.2809 2.1953 17.0068 2.18626 17.5991 2.50061ZM9.14309 5.40598C9.07169 5.51996 8.26835 5.82934 7.35803 6.09394C5.09381 6.75181 4.73864 7.11184 4.80338 8.68337C4.86445 10.1685 4.53384 11.4191 3.88273 12.165C3.621 12.4649 3.53444 12.6381 3.69033 12.5497C3.90178 12.4296 3.93737 12.5784 3.83015 13.1349C3.75117 13.5454 3.59276 13.9993 3.47819 14.1438C3.35031 14.3048 3.36271 14.4629 3.51033 14.5529C3.94839 14.8196 3.76059 15.716 3.15034 16.273L2.54973 16.8212L2.71779 16.0297C2.81008 15.5943 2.95633 15.1364 3.0422 15.012C3.12829 14.8876 3.17674 14.1244 3.14988 13.3161C3.12301 12.5076 3.20842 11.719 3.33952 11.5634C3.50781 11.3635 3.49656 11.2805 3.30118 11.2805C3.10832 11.2805 3.05827 10.9548 3.13633 10.2063C3.48416 6.87416 3.73556 6.49581 6.62105 4.96386L8.68736 3.86679L8.98008 4.53304C9.14125 4.8994 9.21449 5.29222 9.14309 5.40598ZM16.8417 5.96119C16.6371 6.20407 16.4452 6.23506 16.1401 6.07426C15.5581 5.7676 14.4831 5.79248 14.5908 6.11022C14.7164 6.48179 16.5896 7.1824 17.4972 7.1971C18.1995 7.20864 18.2427 7.24663 17.9605 7.60553C17.6689 7.97642 17.6779 7.97823 18.1044 7.63494C18.4236 7.37803 19.22 7.23171 20.7695 7.14577C22.8126 7.03247 23.0464 7.0639 23.869 7.56166C24.3874 7.87556 25.1246 8.10329 25.6361 8.10736C26.5219 8.11438 28.177 8.89415 29.1812 9.77727C29.5839 10.1314 29.7626 10.1735 29.9749 9.9643C30.3306 9.61399 30.011 9.30077 28.216 8.24125C27.3794 7.74733 26.5554 7.43592 26.0854 7.43592C25.6637 7.43592 24.7279 7.19529 24.0056 6.90152C22.8379 6.42615 22.387 6.373 19.9373 6.42276C18.422 6.45351 17.0998 6.43068 16.9987 6.37188C16.8979 6.31308 16.9365 6.1213 17.0844 5.94581C17.2322 5.77031 17.3016 5.62671 17.2384 5.62671C17.1753 5.62671 16.9969 5.77732 16.8417 5.96119ZM9.9501 7.35722C9.9501 7.5153 9.44156 7.79324 8.82029 7.97507C6.8162 8.56125 6.73584 8.64425 6.73584 10.1292C6.73584 10.8556 6.57696 11.8936 6.3825 12.4361C6.04661 13.3738 5.02677 14.6728 4.6266 14.6728C4.35798 14.6728 4.39609 13.3692 4.66953 13.2028C4.79581 13.1259 4.89912 12.8095 4.89912 12.4997C4.89912 12.1899 5.04399 11.6604 5.22124 11.3228C5.51534 10.7628 5.84985 9.14857 5.90863 8.00695C5.92723 7.64579 6.29595 7.42665 7.6542 6.96982C9.17179 6.4594 9.4101 6.4309 9.66311 6.73033C9.82107 6.91713 9.9501 7.19937 9.9501 7.35722ZM15.1579 7.89772C14.9772 8.15169 14.7389 8.33442 14.6282 8.30367C14.2905 8.20981 12.7052 8.81409 12.7052 9.03662C12.7052 9.31547 12.8099 9.30258 13.7737 8.90591C14.2271 8.71933 14.808 8.56668 15.0647 8.56668C15.5248 8.56668 15.5252 8.57392 15.0957 9.07552C14.6739 9.56808 14.6794 9.5674 15.2681 9.05607C15.7507 8.63679 15.9679 8.57618 16.321 8.76253C16.9069 9.07145 20.7029 9.23247 21.405 8.97828C21.8222 8.82721 22.2224 8.91722 23.0654 9.35143C23.6764 9.66623 24.4836 9.92359 24.8592 9.92359C25.2348 9.92359 26.0779 10.2348 26.7327 10.6152C27.4699 11.0433 28.005 11.2262 28.1378 11.0955C28.473 10.7653 25.8368 9.24514 24.9288 9.24514C24.5095 9.24514 23.7634 9.0425 23.2707 8.79487C22.5068 8.41131 22.0171 8.35613 19.9506 8.42126C18.6173 8.46355 17.5266 8.41493 17.5266 8.31316C17.5266 8.21162 17.3725 8.18675 17.184 8.25799C16.9958 8.32922 16.7841 8.23944 16.7134 8.05829C16.6291 7.84187 16.3809 7.76769 15.9885 7.84141C15.578 7.91876 15.4426 7.87307 15.5544 7.69486C15.8377 7.24324 15.5007 7.41579 15.1579 7.89772ZM10.6308 8.7779C10.9679 9.39846 10.9259 9.69744 10.5013 9.69744C10.2995 9.69744 9.78296 9.86163 9.3534 10.0625C8.62651 10.4021 8.57256 10.5019 8.57256 11.5039C8.57256 12.096 8.40381 13.0259 8.19764 13.5701C7.99124 14.1144 7.73387 15.5774 7.6255 16.8212C7.38535 19.5764 7.3865 19.2754 7.60828 20.7789C7.82065 22.2177 8.21601 23.0404 8.69539 23.0404C9.12725 23.0404 9.11875 22.9296 8.62996 22.1926C8.28488 21.672 8.23644 21.1077 8.28718 18.1894C8.32897 15.7931 8.45065 14.5231 8.70067 13.8781C8.89582 13.3753 9.12748 12.468 9.21564 11.8622C9.36556 10.8334 9.43536 10.7402 10.2713 10.4553C10.9493 10.2241 11.2434 10.2131 11.4842 10.41C11.7508 10.6281 11.7287 10.747 11.3462 11.148C10.7013 11.8242 10.261 12.9909 10.0741 14.5192C9.98546 15.2434 9.75472 16.2086 9.56163 16.6643C9.30587 17.2674 9.25697 17.8014 9.38186 18.627C9.47646 19.2508 9.61719 20.4657 9.69457 21.3264C9.85964 23.1616 10.3096 23.5789 10.3916 21.973C10.4219 21.3784 10.4332 20.6375 10.4166 20.3266C10.4001 20.0156 10.3879 18.4002 10.3898 16.7369C10.3932 13.4658 10.7509 11.9316 11.6172 11.475C12.3479 11.0899 12.6574 11.5946 12.1794 12.3918C11.8894 12.8753 11.7868 13.5644 11.7868 15.0269C11.7868 16.2606 11.6399 17.4667 11.3972 18.2252C11.0308 19.3702 11.0308 19.5283 11.3972 20.8829C11.6114 21.6749 11.7868 22.5268 11.7868 22.7758C11.7868 23.0345 12.184 23.5384 12.7139 23.9518C13.2238 24.3496 13.8391 25.0579 14.0816 25.526C14.5706 26.47 14.8991 26.6588 16.0531 26.6588C16.5774 26.6588 16.8378 26.7653 16.8378 26.9795C16.8378 27.1559 16.9005 27.4612 16.9772 27.658C17.0853 27.9357 16.9611 28.0157 16.4222 28.0157C15.3351 28.0157 13.7188 27.2269 13.2691 26.4768C13.048 26.1079 12.5171 25.6418 12.0896 25.441C11.6619 25.2402 11.0889 24.7031 10.8159 24.2471C10.5429 23.7914 10.2819 23.5302 10.2357 23.6664C10.0954 24.0807 10.8343 25.2635 11.566 25.7963C11.9455 26.0726 12.4457 26.6156 12.6776 27.0028C13.0027 27.5456 13.4396 27.8201 14.583 28.2005C15.399 28.4721 16.2918 28.6942 16.5669 28.6942C16.8422 28.6942 17.0688 28.7704 17.0706 28.8638C17.0722 28.9572 17.1351 29.2589 17.21 29.5346C17.3411 30.016 17.2988 30.031 16.1164 29.9156C14.2021 29.7293 13.8545 29.6201 13.835 29.1987C13.824 28.9604 13.7714 28.9183 13.7007 29.0913C13.5131 29.5497 12.3932 28.7672 10.9782 27.1898C9.594 25.6463 9.1571 24.8166 9.53362 24.4457C10.1161 23.872 9.43283 23.7008 7.00331 23.8113C5.65654 23.8726 4.2425 23.9812 3.86092 24.0524C3.25204 24.1662 3.1361 24.101 2.91317 23.5192C2.70585 22.9782 2.72789 22.7817 3.03302 22.4517C3.37924 22.0774 3.37855 22.0682 3.02544 22.3287C2.34723 22.8289 2.26022 22.1448 2.91937 21.4956L3.52158 20.9021L3.56245 21.5756C3.58495 21.9458 3.60332 22.4219 3.60286 22.6333C3.60263 22.8448 3.68826 22.9655 3.79319 22.9018C3.89811 22.8378 4.0416 22.9334 4.11209 23.1141C4.18785 23.3088 4.42112 23.3961 4.68446 23.3283C5.1767 23.2014 5.26187 22.9221 4.87915 22.689C4.74185 22.6055 4.68055 22.3447 4.743 22.11C4.80522 21.875 4.76252 21.7398 4.64818 21.8097C4.33777 21.9985 4.39655 21.1382 4.71545 20.8241C4.92966 20.6131 4.92966 20.5527 4.71545 20.5527C4.2379 20.5527 4.41652 19.5224 4.98522 18.9961L5.53049 18.4916L5.53394 19.1264C5.53577 19.4756 5.4196 19.908 5.27565 20.0873C5.0743 20.3381 5.08027 20.3741 5.3009 20.2436C5.4894 20.1321 5.58789 20.218 5.58789 20.4942C5.58789 20.7253 5.45886 21.0516 5.3009 21.2192C5.07131 21.4628 5.07131 21.4917 5.3009 21.3642C5.57251 21.2131 5.62532 21.297 5.67973 21.9662C5.71394 22.3864 6.33291 23.0404 6.69658 23.0404C6.90964 23.0404 6.95969 22.9097 6.84857 22.6446C6.33406 21.4175 6.27138 20.3496 6.51957 17.0474C6.52875 16.923 6.52232 16.1597 6.5051 15.3512C6.47617 13.9921 6.90023 12.3914 7.36377 12.1091C7.46043 12.0503 7.52471 11.4361 7.50703 10.7441C7.4703 9.32044 7.60185 9.14743 9.06411 8.69491C10.4003 8.2815 10.3599 8.27924 10.6308 8.7779ZM16.0179 9.72322C15.9119 9.89238 15.4026 9.9245 14.4707 9.82047C13.2725 9.68704 13.1194 9.71078 13.3577 9.99347C13.7103 10.4123 14.8376 10.6622 16.1235 10.6073C16.9549 10.5715 17.1071 10.6262 16.993 10.9189C16.8773 11.2163 16.9253 11.2305 17.2885 11.0071C17.6221 10.802 17.8611 10.8026 18.3239 11.0105C19.1289 11.3716 19.7352 11.3508 20.874 10.9223C21.8181 10.5672 21.8378 10.5704 23.2672 11.318C24.06 11.7328 24.9265 12.1978 25.1928 12.3513C25.7698 12.6842 26.4025 12.7186 26.5855 12.4271C26.658 12.3115 26.0701 11.9173 25.2789 11.5514C22.3581 10.1999 21.954 10.0778 21.0356 10.2676C19.9483 10.4921 18.5113 10.5166 18.3056 10.3142C18.2199 10.2298 18.292 9.98013 18.4656 9.7594C18.767 9.3763 18.7599 9.37608 18.3081 9.75398C17.6978 10.2644 16.0377 10.3096 16.2321 9.81051C16.3864 9.4143 16.2475 9.35776 16.0179 9.72322ZM34.057 15.1486C34.057 16.7391 33.9193 17.6426 33.4514 19.121C32.8494 21.0227 32.848 21.043 33.2408 22.3208C33.6217 23.5599 33.6199 23.6478 33.1892 24.737C32.9435 25.3587 32.671 26.2744 32.584 26.7719C32.3147 28.3088 32.2003 28.5725 31.9586 28.2152C31.8174 28.0062 31.7953 28.1069 31.8922 28.5187C31.9864 28.9181 31.8764 29.4749 31.5795 30.1018C31.3274 30.6337 31.0568 31.3485 30.9778 31.6907C30.8986 32.0329 30.7266 32.3126 30.5953 32.3126C30.464 32.3126 30.4137 32.4038 30.4837 32.5153C30.5535 32.6267 30.4105 32.9574 30.1657 33.2502L29.7205 33.7826L29.176 33.2197C28.6667 32.6932 28.6562 32.6306 29.0116 32.2547C29.3697 31.8759 29.5192 31.6041 30.2844 29.938C30.9036 28.5899 31.5313 26.7622 31.5313 26.3069C31.5315 26.0511 31.7531 25.1959 32.0238 24.4059C32.4348 23.2075 32.4729 22.8513 32.2534 22.2541C31.8647 21.1952 31.9308 20.4523 32.4981 19.5052C32.7773 19.0393 32.9063 18.7184 32.7851 18.7924C32.649 18.8754 32.5647 17.9011 32.5647 16.2441C32.5647 13.7854 32.603 13.5427 33.0239 13.3407C33.9909 12.8765 34.057 12.992 34.057 15.1486ZM5.51603 15.3343C5.26578 15.8286 5.25453 15.968 5.47195 15.8859C6.01699 15.6798 5.71256 18.0182 5.11241 18.6476C4.42318 19.3702 4.12104 19.3424 4.30862 18.5739C4.56323 17.5307 4.67986 16.6326 4.66494 15.828C4.6491 14.969 5.63496 13.6268 5.77684 14.3136C5.81771 14.5111 5.70039 14.9704 5.51603 15.3343ZM15.5548 14.1311C15.7539 14.2062 15.8499 14.3747 15.7679 14.5052C15.6846 14.638 15.7282 14.6762 15.8664 14.592C16.0023 14.5093 16.4576 14.6389 16.8775 14.8802C17.6893 15.3463 19.3392 15.6785 22.0718 15.9259C24.3174 16.1294 24.5268 16.4191 24.0274 18.6304C23.5483 20.7511 23.4801 22.8307 23.8763 23.2213C24.046 23.3884 24.1847 23.7483 24.1847 24.021C24.1847 24.5699 23.3559 26.2248 22.9506 26.4858C22.3218 26.8904 21.4259 26.6222 20.2454 25.6757C19.3637 24.9688 18.5189 24.5463 17.24 24.1727C16.2618 23.8871 15.3788 23.5409 15.2782 23.4034C15.1774 23.2659 14.8507 22.5524 14.552 21.8178C14.0742 20.6421 14.0441 20.3983 14.3017 19.7825C14.8 18.5913 14.8349 17.897 14.4519 16.79C13.9535 15.349 13.9872 14.7644 14.5931 14.3464C15.1852 13.9378 15.0961 13.9577 15.5548 14.1311ZM32.0943 15.5208C32.26 17.2041 31.8796 18.8828 31.1456 19.7083C30.916 19.9668 30.8572 20.1038 31.015 20.0129C31.3577 19.8155 31.3805 20.0939 31.0839 20.8621C30.9286 21.2644 30.9452 21.4533 31.1412 21.5177C31.5357 21.6471 31.45 23.7799 30.9849 25.415C30.1485 28.3541 29.8661 29.1716 29.5954 29.4385C29.4404 29.5911 29.3562 29.8421 29.4083 29.9962C29.4606 30.1504 29.2829 30.6276 29.0136 31.0568C28.5159 31.8501 27.8292 32.2353 27.3895 31.9675C27.2557 31.8861 26.777 31.9922 26.3254 32.2032C25.6453 32.5211 25.4708 32.5343 25.3074 32.2801C25.1698 32.0663 25.109 32.0566 25.1065 32.2482C25.1026 32.5614 24.4436 32.9549 23.7487 33.0594C23.4899 33.0983 23.2066 33.2007 23.1191 33.2869C22.8519 33.5501 21.9331 33.461 21.8318 33.162C21.7795 33.0071 21.7832 33.516 21.8403 34.2928C21.9618 35.9466 21.8204 36.0179 20.0107 35.2123C19.0481 34.7838 18.9041 34.632 18.9041 34.0465C18.9041 33.4024 18.9227 33.39 19.3348 33.7573C19.5718 33.9685 20.1207 34.1978 20.5546 34.2673L21.3437 34.3934L21.2411 32.2825C21.155 30.5075 21.1892 30.2112 21.4565 30.4191C21.6663 30.5826 22.3059 30.6097 23.3432 30.4991C24.7444 30.3496 25.008 30.2395 25.8076 29.4706C26.3001 28.9968 26.8211 28.2469 26.9655 27.8036C27.1096 27.3606 27.4729 26.4159 27.7725 25.7045C28.0721 24.993 28.3173 24.0836 28.3173 23.6838C28.3173 23.2548 28.5278 22.7186 28.8304 22.3764C29.1126 22.0575 29.1952 21.9239 29.0141 22.0793C28.1876 22.7885 28.0223 21.809 28.8408 21.0518L29.3642 20.5674L29.6062 21.5948C29.8147 22.4795 29.7896 22.696 29.426 23.1514C29.1936 23.4423 29.091 23.7143 29.1978 23.7562C29.6168 23.9197 27.941 29.2587 27.2603 29.9292C27.0759 30.1108 26.541 30.3155 26.0714 30.3838C25.6019 30.4521 24.5979 30.7106 23.8403 30.958C23.0826 31.2056 22.2821 31.408 22.061 31.408C21.7749 31.408 21.6601 31.5871 21.6626 32.0299C21.6647 32.3721 21.7421 32.5451 21.8348 32.4146C21.974 32.219 22.5091 32.0143 24.1847 31.5161C24.2478 31.4973 24.4544 31.4254 24.6439 31.3562C24.8333 31.287 25.568 31.1136 26.2765 30.9706L27.5649 30.7112L28.3878 28.9676C28.8403 28.0087 29.4097 26.4609 29.6528 25.5281C29.896 24.5952 30.253 23.3486 30.4463 22.7582C30.6396 22.1675 30.7036 21.7414 30.5891 21.8113C30.236 22.0261 30.0647 21.1979 30.3643 20.7253C30.5882 20.3723 30.5882 20.315 30.3643 20.4514C30.1545 20.5792 30.1274 20.4835 30.2592 20.0792C30.357 19.78 30.4874 18.4009 30.5489 17.0148C30.6513 14.7185 30.705 14.4738 31.1539 14.2598C31.9246 13.8923 31.9356 13.907 32.0943 15.5208ZM30.154 16.6679C30.154 18.4735 29.6661 20.062 28.8913 20.7789L28.3407 21.2884L28.1885 20.6916C28.1001 20.344 28.1502 19.9598 28.3083 19.7718C28.4578 19.5943 28.6378 18.6544 28.7083 17.6829C28.8359 15.9239 29.1909 15.1251 29.8452 15.1251C30.0737 15.1251 30.154 15.5263 30.154 16.6679ZM15.9706 15.7034C15.3457 16.1344 15.3351 16.4962 15.9038 17.9701C16.3414 19.1042 16.3414 19.1275 15.9052 19.7793C15.0008 21.1308 15.4586 22.1123 17.4159 23.0187C17.9506 23.2661 19.0609 23.9321 19.8835 24.4984C21.5547 25.6491 22.1553 25.7624 22.6793 25.0253C23.1481 24.3661 23.1304 23.6243 22.6111 22.1717C22.271 21.2206 22.227 20.7556 22.3925 19.8591C22.5608 18.9466 22.5261 18.6144 22.2063 18.0811C21.7614 17.3391 21.0145 16.9343 20.0909 16.9343C19.7453 16.9343 18.9014 16.5781 18.2153 16.1428C16.7976 15.2431 16.673 15.2187 15.9706 15.7034ZM3.67633 16.8493C3.60194 17.3 3.36179 17.8642 3.14253 18.1028C2.77519 18.5027 2.7745 18.5253 3.13266 18.3898C3.65865 18.191 3.62237 18.5563 3.04404 19.2806C2.59312 19.8451 1.95119 19.912 2.29879 19.3584C2.38787 19.2162 2.43723 18.7546 2.40853 18.3326C2.37203 17.7989 2.5371 17.3314 2.95036 16.7975C3.27753 16.3752 3.60492 16.0297 3.67816 16.0297C3.7514 16.0297 3.75048 16.3985 3.67633 16.8493ZM17.871 16.6984C18.6525 17.3947 19.676 17.7885 20.4169 17.6779C21.5678 17.5062 21.971 18.0915 21.8213 19.7175C21.7411 20.5867 21.8121 21.3748 22.0231 21.9639C22.4866 23.2586 22.4396 24.1069 21.8879 24.3978C21.414 24.6477 21.4702 24.6685 18.2153 23.0338C16.8743 22.3604 16.149 21.7097 16.149 21.1801C16.149 20.9465 16.3743 20.3698 16.6498 19.8985L17.1505 19.0413L16.6353 18.3285C16.3518 17.9366 16.1943 17.4976 16.2847 17.3531C16.3807 17.2002 16.3499 17.1512 16.2106 17.236C15.8735 17.4413 15.688 16.5743 16.0025 16.2644C16.3288 15.9431 17.268 16.1613 17.871 16.6984ZM4.99211 16.9908L4.55474 17.4997L5.07131 17.0689C5.55667 16.664 5.69235 16.482 5.50868 16.482C5.46506 16.482 5.23272 16.7109 4.99211 16.9908ZM17.8934 19.1065C17.6464 19.7406 18.2479 21.3182 18.984 21.9662C19.7658 22.6546 20.6798 22.7817 20.894 22.2319C21.1008 21.7007 20.579 20.2144 19.9106 19.4321C19.2529 18.6619 18.1368 18.4819 17.8934 19.1065ZM19.1479 19.2033C19.9703 19.6368 20.9456 22.1358 20.2924 22.1358C19.2432 22.1358 18.2153 20.9103 18.2153 19.6594C18.2153 18.9285 18.4286 18.8242 19.1479 19.2033ZM3.52158 20.0611C3.52158 20.4503 3.29727 20.9076 2.94761 21.2312L2.37363 21.7624V21.0057C2.37363 20.2933 2.89848 19.422 3.32758 19.422C3.43434 19.422 3.52158 19.7096 3.52158 20.0611ZM9.59929 26.7072C9.74944 26.8099 9.6886 27.0132 9.43215 27.266C9.04735 27.6451 8.9996 27.6342 8.39899 27.0347L7.769 26.4062L8.33631 25.9469L8.9034 25.4878L9.13345 26.0168C9.25995 26.3076 9.46957 26.6183 9.59929 26.7072ZM8.74062 28.6705C10.8721 31.0385 11.2087 31.2897 12.9417 31.806C13.8848 32.0872 14.9407 32.316 15.2881 32.3149C15.6354 32.3135 15.9277 32.4399 15.9376 32.5953C15.9493 32.7771 15.9931 32.7889 16.0604 32.6281C16.2443 32.1889 17.3188 32.5659 17.5436 33.1485C17.8338 33.8997 17.8439 33.8889 17.0561 33.6664C16.6711 33.5576 15.612 33.4056 14.7028 33.3287C12.4262 33.136 11.0214 32.6258 11.175 32.0473C11.2739 31.6744 11.2383 31.6518 10.9389 31.8965C10.6462 32.1358 10.5225 32.1073 10.2107 31.7289C10.0043 31.4781 9.64268 31.2004 9.40758 31.1115C9.1199 31.0032 9.01888 30.8026 9.09901 30.5002C9.16812 30.2406 9.12403 30.1081 8.995 30.1866C8.70297 30.3643 8.09547 29.5719 8.23208 29.1913C8.29613 29.0126 8.23323 28.9604 8.07183 29.0587C7.90055 29.163 7.85234 29.101 7.93637 28.8853C8.02614 28.6551 7.9219 28.5549 7.60392 28.5655C7.3493 28.5741 6.92663 28.3014 6.66444 27.9597C6.2009 27.3554 6.19952 27.3296 6.61714 27.0288C6.99964 26.7534 7.11053 26.7941 7.62849 27.4004C7.94853 27.7749 8.44881 28.3464 8.74062 28.6705ZM10.401 27.4404C10.5535 27.6216 10.6019 27.8918 10.5085 28.0408C10.3976 28.2175 10.4359 28.2523 10.6189 28.141C10.7973 28.0325 10.9451 28.1424 11.0248 28.4427C11.0939 28.7026 11.228 28.8679 11.323 28.81C11.4181 28.7521 11.6566 28.8805 11.8532 29.0954C12.148 29.4172 12.161 29.5766 11.928 30.0041L11.6456 30.5224L10.8951 29.8161C10.4825 29.4276 10.1992 28.9705 10.2653 28.8005C10.3354 28.6209 10.2701 28.5348 10.1101 28.5954C9.66587 28.7632 9.17707 27.8228 9.50584 27.4327C9.84885 27.0254 10.0527 27.0272 10.401 27.4404ZM5.66251 28.1645C5.74562 28.2464 5.69649 28.4522 5.55345 28.6221C5.3482 28.8656 5.37185 28.9011 5.66526 28.7901C5.90473 28.6996 6.29388 28.9025 6.75788 29.3595C7.47053 30.0615 7.47374 30.0753 7.04992 30.5692C6.62334 31.0661 6.62357 31.0667 7.09492 30.6762C7.46043 30.3731 7.63101 30.3449 7.84109 30.5518C8.21119 30.9164 8.18341 31.3101 7.73617 32.0378C7.37318 32.6288 7.38076 32.6268 7.93384 31.9861C8.49588 31.335 8.51424 31.3304 8.7622 31.7866C8.90156 32.0433 8.94174 32.3336 8.85151 32.4323C8.76128 32.5306 8.81363 32.5399 8.96791 32.4526C9.3038 32.2624 10.4591 32.9549 10.2805 33.2394C10.2121 33.3486 10.3181 33.3769 10.5163 33.302C11.0967 33.0827 12.2354 33.6487 12.094 34.0863C12.0015 34.3735 12.0244 34.3903 12.193 34.1587C12.4783 33.7659 13.4844 33.9074 13.5705 34.3523C13.607 34.5413 13.4966 34.8849 13.3251 35.116C13.0514 35.4846 12.9451 35.4993 12.4574 35.2356C12.1516 35.0703 11.7983 34.915 11.672 34.8903C11.5457 34.8657 10.7332 34.5291 9.8663 34.1422C8.45708 33.5135 8.32346 33.3995 8.60356 33.0657C8.88733 32.7274 8.87149 32.7201 8.43572 32.9872C7.70678 33.4343 6.63092 32.5358 5.68455 30.6897C5.25889 29.8595 4.79787 29.1117 4.66035 29.0278C4.49206 28.9253 4.53958 28.7344 4.80499 28.4457C5.22491 27.9886 5.41914 27.9248 5.66251 28.1645ZM13.061 29.7867C13.351 30.0369 15.0429 30.5034 15.6591 30.5034C15.9286 30.5034 16.1573 30.6307 16.1672 30.7861C16.1796 30.9808 16.2188 30.9883 16.293 30.8101C16.4096 30.5301 17.297 30.6658 17.297 30.9636C17.297 31.0634 17.3642 31.3173 17.4462 31.5283C17.5762 31.8614 17.4788 31.8929 16.7 31.7692C16.2076 31.6907 15.2364 31.5763 14.5419 31.515C13.8474 31.4535 13.2445 31.3019 13.2022 31.178C13.1598 31.0543 13.0459 31.0012 12.949 31.0602C12.5647 31.294 11.9588 30.5864 12.1186 30.0905C12.2816 29.5841 12.6779 29.4565 13.061 29.7867ZM32.7158 32.3126C32.7158 32.6236 32.7679 32.7509 32.8315 32.5953C32.8953 32.4399 32.8953 32.1855 32.8315 32.0299C32.7679 31.8746 32.7158 32.0017 32.7158 32.3126ZM26.7102 33.6334C26.7102 34.1906 26.5811 34.3157 25.7344 34.5787C25.1976 34.7453 24.645 34.9652 24.5059 35.0669C24.367 35.1687 23.7728 35.3168 23.1857 35.3962L22.1184 35.5403V34.8053C22.1184 34.1175 22.1624 34.0768 22.8071 34.17C23.186 34.2247 23.4959 34.1965 23.4959 34.1069C23.4959 33.7894 24.2655 33.6585 24.4499 33.9445C24.5874 34.158 24.6377 34.1302 24.6404 33.8391C24.6422 33.6216 24.7215 33.4357 24.816 33.426C25.3246 33.3751 25.8494 33.2358 25.9658 33.1211C26.318 32.7742 26.7102 33.0442 26.7102 33.6334ZM17.3181 34.6978C17.6613 34.8729 18.0813 35.1454 18.2509 35.3039C18.9131 35.9215 20.3691 36.3949 21.661 36.413C22.3982 36.4231 23.1127 36.3637 23.2486 36.2809C23.4071 36.1846 23.4959 36.4107 23.4959 36.9089C23.4959 37.4976 23.3839 37.7163 23.0363 37.8058C22.752 37.8791 22.4917 37.7812 22.3544 37.5496C22.151 37.2063 22.1317 37.2081 22.1253 37.5706C22.1165 38.0655 21.6541 38.0716 19.7945 37.6023C18.5512 37.2886 17.4767 36.8103 17.0674 36.3886C17.0042 36.3234 16.7976 36.2538 16.6082 36.2334C15.9245 36.1606 13.8132 35.7074 13.6261 35.5934C13.5207 35.5292 13.5547 35.1619 13.7011 34.777L13.9679 34.0773L15.3308 34.2286C16.0806 34.3118 16.9746 34.523 17.3181 34.6978ZM17.0855 35.3844C17.0965 35.6479 17.151 35.7015 17.2242 35.5213C17.2905 35.358 17.2823 35.1628 17.2061 35.0877C17.1298 35.0126 17.0757 35.1461 17.0855 35.3844ZM26.9398 36.2563C26.9398 37.0625 26.8608 37.2592 26.538 37.257C26.3169 37.2552 25.7229 37.361 25.2178 37.4917C23.8228 37.8529 23.7255 37.8187 23.7255 36.9675C23.7255 36.2303 23.7859 36.1742 25.0456 35.7415C26.9177 35.0988 26.9398 35.1049 26.9398 36.2563Z" fill="#FF4F00" fill-opacity="0.37"/>
</svg>
