<svg width="38" height="40" viewBox="0 0 38 40" fill="none" xmlns="http://www.w3.org/2000/svg">
<path fill-rule="evenodd" clip-rule="evenodd" d="M11.4385 0.0725654C9.25227 0.287387 7.49252 1.07356 5.5392 2.70819C3.70294 4.24467 3.03372 4.92546 2.22233 6.08194C1.57575 7.00328 1.50783 7.2964 1.20877 10.4569C0.901327 13.7065 0.907215 13.9254 1.35842 15.8408C1.76321 17.5593 1.80848 18.2537 1.68351 20.8304C1.5522 23.5355 1.59567 24.0918 2.13426 26.6101C2.46208 28.1427 2.82906 29.5806 2.94973 29.8053C3.14352 30.1659 3.46296 30.2095 5.66259 30.1743C7.98107 30.1372 8.5088 30.2365 7.92018 30.5989C7.79045 30.6788 7.38136 31.3833 7.01121 32.1645C6.35195 33.555 6.3189 34.1719 6.89167 34.3908C7.04879 34.4511 7.44135 35.0563 7.76441 35.7359C8.08725 36.4156 8.63852 37.1751 8.98943 37.4236C9.9559 38.1082 12.3 38.7498 15.7524 39.2746C17.4644 39.535 18.9609 39.8072 19.0782 39.8794C19.4288 40.0953 21.0025 40.0046 21.4987 39.7399C21.753 39.6043 22.1218 39.1837 22.3181 38.8053C22.769 37.936 23.515 37.6292 26.5917 37.0479C29.3994 36.5174 31.1139 35.6574 32.0224 34.3238C32.321 33.8853 33.2918 32.7652 34.1794 31.8344C35.0671 30.9036 35.9464 29.8597 36.1337 29.5147C36.3207 29.1694 36.5652 27.8493 36.677 26.5812C36.828 24.8691 37.0374 23.9338 37.4891 22.9506C38.3555 21.0649 38.1972 20.0578 36.3428 15.662C35.514 13.6973 34.4842 11.216 34.054 10.1482C33.0898 7.75335 32.1032 6.56325 30.5221 5.8872C29.8628 5.60536 28.6924 4.78714 27.9208 4.06888C27.1493 3.35086 26.2833 2.69511 25.9965 2.61184C25.7096 2.5288 24.3918 1.95722 23.0679 1.34186C20.202 0.00983376 19.4632 -0.136615 17.4755 0.231877C16.2408 0.460915 15.7194 0.455725 14.608 0.203219C13.6391 -0.0170184 12.7303 -0.0544774 11.4385 0.0725654ZM14.7932 1.20557C16.0019 1.62574 16.2392 1.63928 17.67 1.37007C19.3697 1.05055 20.2495 1.24145 22.3054 2.37649C22.8034 2.65156 23.8573 3.11234 24.6474 3.4005C25.6596 3.76967 26.4287 4.26024 27.2509 5.06131C27.8927 5.68682 28.9783 6.47232 29.6631 6.80741C31.8503 7.87701 32.3289 8.63137 33.8 13.3308C34.7898 16.4918 35.5774 19.4763 35.7169 20.5941C35.7739 21.0518 35.6533 22.0911 35.4488 22.9037C35.1762 23.9873 35.1176 24.8283 35.2294 26.0574C35.3132 26.9792 35.3125 28.0091 35.2276 28.3458C35.0271 29.1426 30.0543 34.1261 28.8671 34.7198C28.3711 34.968 27.6876 35.2339 27.3487 35.3108C26.8294 35.4284 26.7538 35.3877 26.8697 35.0527C27.0003 34.6751 26.9915 34.6751 26.694 35.0486C26.5181 35.2693 25.5353 35.6531 24.4561 35.9228C23.3977 36.1872 22.2329 36.6142 21.8678 36.8716C21.2271 37.3232 21.2092 37.3241 21.3588 36.9001C21.5123 36.465 21.5105 36.465 21.1739 36.8983C20.9869 37.1393 20.8338 37.4692 20.8338 37.6316C20.8338 38.0116 20.7747 38.0074 19.003 37.5023C17.5344 37.0838 14.5315 36.6658 13.7591 36.7724C13.5082 36.8071 13.3615 36.6771 13.3595 36.4181C13.3568 36.0972 13.3133 36.0762 13.158 36.3204C12.9436 36.6579 11.1433 36.5077 10.3532 36.0861C9.88911 35.8388 7.92946 32.8855 7.92946 32.4337C7.92946 31.833 8.22694 31.8705 8.91925 32.5578C10.1286 33.759 10.6577 34.5977 10.5189 35.0951C10.4243 35.4349 10.4476 35.4748 10.6068 35.2456C10.7895 34.9822 10.9013 34.9879 11.3229 35.2824C11.6935 35.541 12.182 35.6021 13.2153 35.5191C14.7099 35.399 18.5699 35.865 18.5699 36.1656C18.5699 36.2655 18.8755 36.3475 19.2491 36.3475C19.6235 36.3475 19.9283 36.4679 19.9283 36.6162C19.9283 36.7753 20.0437 36.7378 20.2112 36.5246C20.7664 35.8174 23.1186 34.7679 24.1484 34.7679C24.7611 34.7679 25.1353 34.8699 25.1353 35.0366C25.1353 35.1844 25.2627 35.1316 25.4187 34.9191C25.5745 34.7067 26.0327 34.5095 26.437 34.4811C26.8412 34.4526 27.1721 34.3423 27.1724 34.236C27.1726 34.1297 27.3057 34.0934 27.468 34.1555C27.6319 34.2182 27.9973 33.9278 28.2896 33.5026C28.8545 32.681 29.2683 32.4874 29.082 33.1319C29.019 33.3492 29.1311 33.2222 29.3308 32.8498C29.5305 32.4775 30.5024 31.6211 31.4908 30.9469C33.9204 29.2892 33.9911 29.1575 33.9515 26.3555C33.9333 25.0871 34.0169 23.7436 34.1369 23.3697C34.4011 22.5456 34.291 21.555 33.7359 19.7619C33.5055 19.0173 33.2116 17.5812 33.0828 16.5705C32.8775 14.9582 32.4199 13.4664 31.3556 10.9387C30.976 10.037 29.9638 9.05356 29.0842 8.73223C28.7035 8.59301 27.725 7.7626 26.9095 6.88684L25.4271 5.29463L24.7006 8.9008C24.0728 12.0177 24.0198 12.5322 24.3099 12.694C25.0708 13.1185 26.6861 15.6041 26.926 16.7195C27.061 17.3461 27.3754 18.2575 27.6249 18.7449C28.0121 19.5013 28.0779 20.0704 28.075 22.63C28.0729 24.2795 27.9967 25.7445 27.9052 25.8857C27.8137 26.027 27.265 26.4331 26.6861 26.7883C26.107 27.1435 25.27 27.7228 24.826 28.0757C24.2419 28.5398 23.6255 28.7705 22.5961 28.9101C21.8137 29.0164 20.4981 29.3563 19.6729 29.6654L18.1724 30.2275L17.353 29.7897C16.8301 29.5104 16.0886 29.3522 15.3015 29.3522C13.9714 29.3522 13.8972 29.2965 13.3588 27.8922C13.1462 27.3376 12.659 26.7355 12.0804 26.3124C11.3045 25.7454 10.6462 24.9134 10.6462 24.5002C10.6462 24.4497 11.0095 24.3404 11.4535 24.2574C12.6072 24.0417 13.4944 24.9113 13.7093 26.4686C13.9259 28.0384 14.4097 28.4652 15.7884 28.3025C16.651 28.2005 17.0447 28.274 17.7008 28.6599C18.7008 29.2479 19.3747 29.1347 20.8338 28.1334C21.6504 27.5729 22.0998 27.4294 23.0978 27.4098C23.7826 27.3962 24.4525 27.371 24.5863 27.3534C24.901 27.3121 27.1728 24.5253 27.1728 24.1807C27.1728 24.0365 26.9568 23.4963 26.6926 22.9804C26.2989 22.2112 26.2335 21.7793 26.33 20.5829C26.4207 19.456 26.3288 18.7339 25.9268 17.412C25.4366 15.8015 25.279 15.57 23.2605 13.5001C21.9599 12.1662 20.9373 11.2999 20.6634 11.2999C20.415 11.2999 19.7707 11.1449 19.2316 10.9554C18.4929 10.6954 18.0877 10.6677 17.5846 10.8425C16.3773 11.262 15.2718 11.126 14.4557 10.4574C14.0414 10.118 13.6486 9.76753 13.5825 9.67817C13.5166 9.58904 13.0466 9.44958 12.5384 9.36858C11.7559 9.24402 11.5397 9.30088 11.1302 9.7391C10.4732 10.4418 10.5083 11.5646 11.2429 13.3484C11.837 14.7906 11.8383 14.8098 11.5556 17.2798C11.3994 18.645 11.2305 20.1681 11.1802 20.6646L11.0892 21.5672L11.5499 20.4389C11.8938 19.5968 12.0242 18.7095 12.0641 16.9413C12.1127 14.7949 12.055 14.407 11.4523 12.8204C10.6152 10.6162 10.7591 9.87178 12.0432 9.76437C12.6869 9.71067 13.0314 9.83884 13.6239 10.352C14.8913 11.4493 15.3336 11.5946 16.9154 11.4333C17.7085 11.3523 18.7363 11.3861 19.1995 11.5084C19.6625 11.6307 20.3066 11.7844 20.6308 11.8499C20.9753 11.9194 22.0081 12.7717 23.1165 13.9006C24.8115 15.6273 25.0447 15.9689 25.3148 17.1202C25.4812 17.8285 25.6467 19.1696 25.6832 20.1004C25.7278 21.2456 25.9166 22.1794 26.267 22.9881C26.7243 24.0433 26.749 24.2506 26.4785 24.7545C26.3098 25.0684 25.9641 25.434 25.7103 25.5669C25.4563 25.6996 24.9972 26.0552 24.6902 26.3571C24.2141 26.8251 23.9556 26.8951 22.9377 26.8317C22.2547 26.789 21.7054 26.8569 21.6543 26.9903C21.6051 27.1187 21.1469 27.4233 20.636 27.6672C20.125 27.9114 19.7059 28.1874 19.7044 28.2803C19.6996 28.6001 18.2656 28.4494 17.8636 28.0867C17.5801 27.8308 17.0528 27.7295 16.0775 27.7433C14.7079 27.7625 14.6907 27.7548 14.3681 26.9851C14.1888 26.5575 14.0421 26.017 14.0421 25.7842C14.0421 25.5513 13.7869 25.0657 13.4749 24.7051C12.9517 24.1001 12.9377 24.0275 13.2918 23.7673C13.9422 23.2896 14.268 23.4469 14.6977 24.446C14.925 24.9743 15.5328 25.7867 16.0486 26.2513C17.1957 27.2841 18.0761 27.3599 19.0863 26.5128C19.5393 26.1328 19.9645 25.9649 20.3075 26.0301C20.597 26.0854 20.8338 26.0538 20.8338 25.9602C20.8338 25.6064 21.5692 25.5328 22.6968 25.774C23.8222 26.0146 23.8838 26.0017 24.3803 25.4265C24.8428 24.8906 24.8878 24.639 24.8204 22.9728C24.7219 20.5395 24.2562 18.976 22.9092 16.5572C21.4664 13.9663 20.3899 13.246 17.6152 13.0154C16.26 12.9028 15.479 12.7046 14.6787 12.2705C13.7566 11.7702 13.5014 11.7188 13.0228 11.9361C12.259 12.2829 12.2694 13.3651 13.0509 14.8204C13.4349 15.5355 13.6857 16.4245 13.7611 17.338C13.87 18.6544 13.8365 18.7882 13.266 19.3154C12.8483 19.7012 12.6769 20.0607 12.7256 20.4488C12.8198 21.1991 13.2033 21.2727 13.2352 20.5465C13.2488 20.2333 13.4978 19.7403 13.788 19.451C14.2746 18.9661 14.3033 18.8067 14.1552 17.4282C14.0531 16.4771 13.7509 15.4511 13.326 14.6119C12.1879 12.365 12.6882 11.73 14.7889 12.7543C15.5553 13.1282 16.5566 13.3884 17.5622 13.4752C20.6763 13.7442 22.8338 15.8979 23.9128 19.8145C24.2494 21.0364 24.3635 24.0475 24.1045 24.8721C24.0135 25.1614 23.5773 25.2733 22.1279 25.3793C19.6095 25.5635 19.4116 25.6025 18.7836 26.0412C18.269 26.4004 18.2285 26.3995 18.08 26.0256C17.943 25.6806 17.9204 25.6772 17.9066 25.9997C17.8756 26.7224 17.2143 26.6455 16.2881 25.8117C15.3784 24.9924 14.6114 23.6193 14.8494 23.2356C15.1269 22.7877 15.8088 23.0592 16.0868 23.7282C16.2455 24.1103 16.6048 24.5726 16.8853 24.7556C17.3363 25.0503 17.4923 25.0483 18.2364 24.7383C19.1391 24.3623 20.8338 24.2612 20.8338 24.5832C20.8338 24.7924 22.3907 24.5711 22.8322 24.2991C23.0049 24.1926 23.0978 23.3918 23.0978 22.0063V19.8772L20.8279 17.419C19.0836 15.5298 18.2937 14.8474 17.4155 14.471C15.9451 13.8406 15.0835 13.9166 14.9981 14.6847C14.9438 15.1728 14.9682 15.1956 15.1792 14.854C15.3132 14.6367 15.6913 14.4591 16.0194 14.4591C17.231 14.4591 18.5656 15.3786 20.5047 17.5494C22.5845 19.8779 22.9415 20.6618 22.8263 22.6492L22.7582 23.8237L20.8338 23.8246C19.7754 23.825 18.8346 23.7235 18.7431 23.5989C18.6491 23.471 18.5753 23.5468 18.5733 23.7729C18.5715 23.9954 18.3064 24.2732 17.9763 24.3982C17.2561 24.6713 16.9048 24.4293 16.2976 23.2433L15.8697 22.407L14.3699 22.9495C13.5449 23.2481 11.6056 23.8079 10.0603 24.1935C8.51468 24.5794 7.25028 24.9745 7.25028 25.0716C7.25028 25.1688 7.45403 25.195 7.70306 25.1302C7.9607 25.063 8.15585 25.1232 8.15585 25.2699C8.15585 25.4116 8.76394 26.2104 9.50718 27.0449C11.2678 29.0218 12.1179 29.9998 12.7417 30.7655C13.2212 31.3537 13.3703 31.3932 15.4004 31.4695C16.5833 31.5137 18.0456 31.6886 18.6496 31.8581C19.7062 32.1541 19.7906 32.1424 20.8571 31.5489C21.467 31.2096 22.2157 30.9318 22.5207 30.9318C23.954 30.9318 25.4506 30.4083 26.3569 29.59C26.8679 29.1286 27.7445 28.4401 28.3048 28.0601C30.2146 26.7649 30.4279 26.4074 30.2735 24.759C30.1988 23.9632 30.2402 22.9427 30.3652 22.4914C30.539 21.8637 30.5031 21.3406 30.2119 20.2651C30.0027 19.4918 29.744 18.1993 29.6369 17.3926C29.5298 16.5859 29.2371 15.4502 28.9867 14.8686C28.4234 13.561 28.4184 13.2065 28.9538 12.5279C29.4037 11.9579 29.6631 12.0168 29.6631 12.6888C29.6631 12.9149 30.0197 13.9584 30.4555 15.0079C30.902 16.0831 31.2479 17.3028 31.2479 17.8028C31.2479 18.2907 31.4007 19.1215 31.5875 19.6491C31.985 20.7722 32.0181 21.9081 31.6878 23.0937C31.522 23.6888 31.5243 24.4664 31.6952 25.6887L31.9391 27.4341L31.1974 28.0563C30.7894 28.3984 29.7915 29.1214 28.9797 29.6627C28.168 30.204 27.3605 30.8192 27.185 31.0299C26.6225 31.7055 25.5944 32.0858 23.961 32.2223C22.6674 32.3304 22.1693 32.4915 21.3124 33.0789C19.9946 33.9826 19.386 34.1798 18.8312 33.884C18.3012 33.6012 15.8043 33.2149 13.8394 33.1118C12.2619 33.029 11.7781 32.6837 11.7781 31.6408C11.7781 31.3337 11.7084 31.1518 11.6233 31.2366C11.3591 31.5 9.96699 29.9739 9.96699 29.4208C9.96699 28.9433 9.63578 28.7635 8.97698 28.8833C8.86831 28.9031 8.84182 28.7576 8.91788 28.5599C8.99395 28.3623 8.9609 28.2591 8.8443 28.3311C8.72771 28.4029 8.22422 27.9229 7.72548 27.2642L6.81854 26.0671L6.90548 23.8172C6.95325 22.5797 7.06079 20.6799 7.14433 19.5954C7.24304 18.3169 7.20591 17.365 7.03883 16.8876C6.74203 16.0393 6.22359 12.6712 5.9929 10.0931L5.83464 8.32245L7.73091 6.46532C9.30682 4.92208 9.81576 4.56149 10.7422 4.33064C11.986 4.02059 13.8 4.30627 14.285 4.88868C14.431 5.06401 14.6907 5.2073 14.862 5.2073C15.0337 5.2073 15.174 5.28741 15.174 5.38535C15.174 5.56993 17.883 5.34856 18.6894 5.09786C18.967 5.01166 19.8483 5.23461 20.9183 5.66154C21.8918 6.04989 22.7247 6.33151 22.7693 6.28706C22.8139 6.24238 22.0817 5.81702 21.1422 5.34134C19.7145 4.61858 19.2887 4.49943 18.5491 4.61632C15.6897 5.06785 15.7755 5.06401 15.9752 4.73388C16.1371 4.46603 16.1086 4.46423 15.7891 4.72238C15.4676 4.98233 15.2673 4.95773 14.433 4.55517C12.0179 3.38989 9.84202 3.78388 7.95979 5.72766C7.3354 6.37235 6.50205 7.30588 6.1079 7.80232C5.41786 8.67131 5.3968 8.75976 5.5469 10.1717C5.79639 12.5164 5.82672 12.7362 5.98225 13.3308C6.31052 14.5845 6.75878 19.2874 6.66007 20.4389C6.32818 24.3057 6.31686 25.3649 6.59713 26.3111C6.76172 26.8666 6.9691 27.3213 7.05807 27.3213C7.14704 27.3213 7.28446 27.5242 7.36325 27.7722C7.44226 28.0199 7.75468 28.2849 8.05782 28.3607C8.36073 28.4365 8.60863 28.5823 8.60863 28.6845C8.60863 29.0108 7.65756 29.1927 7.47667 28.9009C7.35532 28.7053 7.26273 28.6983 7.15203 28.8767C7.0669 29.0142 6.83847 29.1265 6.64445 29.1265C6.39406 29.1265 6.32207 28.969 6.3961 28.5829C6.47058 28.1953 6.41376 28.0725 6.198 28.1551C6.03183 28.2187 5.82582 28.0824 5.74047 27.8525C5.65512 27.6223 5.47808 27.3631 5.34722 27.276C5.21116 27.1859 5.10702 26.2671 5.1043 25.1365C5.10068 23.6526 5.20188 22.9649 5.50706 22.3973C5.73119 21.9803 5.79684 21.712 5.65263 21.8007C5.47491 21.9104 5.43484 21.8233 5.52811 21.5304C5.71398 20.9466 5.75269 17.3781 5.5786 16.8849C5.26278 15.9906 5.17132 15.6483 4.96009 14.5719C4.83829 13.9514 4.69046 12.6313 4.6316 11.6384C4.57273 10.6455 4.40815 9.36113 4.26575 8.78413C3.91099 7.34672 4.1967 6.75709 6.24736 4.69304C8.2661 2.66126 9.0793 2.23523 10.9228 2.24403C12.0165 2.24922 12.5882 2.39815 13.704 2.9686C15.1731 3.71957 15.7128 3.75229 18.6374 3.26714C19.291 3.15882 19.8069 3.2624 20.7881 3.69881C22.9705 4.67002 23.6028 4.64994 21.7887 3.667C20.882 3.17597 19.9142 2.7109 19.638 2.63373C19.3618 2.55656 18.2663 2.66442 17.2034 2.87337L15.2707 3.2536L13.9207 2.63035C10.9479 1.25792 8.57196 1.69592 6.30871 4.03301C4.50595 5.89487 3.66535 7.06285 3.51457 7.9165C3.44168 8.32922 3.31965 8.76744 3.24358 8.88997C3.16752 9.01272 3.21529 9.04521 3.34999 8.9624C3.652 8.77646 4.16568 11.0723 4.02939 11.9986C3.97709 12.3528 4.00947 12.6708 4.10093 12.7049C4.35653 12.7996 4.94968 16.6897 4.89557 17.9138C4.86908 18.5109 4.92953 19.05 5.03005 19.1118C5.25304 19.2493 5.27319 20.4161 5.05631 20.6325C4.87248 20.8155 4.74479 22.4283 4.714 24.952C4.68955 26.9679 5.08936 28.3647 5.73956 28.5342C6.27204 28.673 6.02142 29.1265 5.41243 29.1265C5.12785 29.1265 5.01963 29.0297 5.12106 28.8659C5.22203 28.7032 5.18309 28.6669 5.0176 28.7689C4.8718 28.8587 4.81656 29.0352 4.89466 29.1611C4.97911 29.2976 4.82403 29.3596 4.51048 29.3147C3.86141 29.2218 3.68007 28.4938 3.5834 25.5969C3.54582 24.4623 3.4256 23.5877 3.31671 23.6531C3.20759 23.7188 3.1768 23.3778 3.24834 22.8954C3.31965 22.4131 3.42923 21.4839 3.49194 20.8304C3.55442 20.1769 3.68075 19.5209 3.77267 19.3727C3.91778 19.1387 3.90533 18.227 3.73486 16.6028C3.70882 16.3546 3.56506 15.8471 3.41564 15.4752C3.26622 15.1031 3.18721 14.573 3.23996 14.2973C3.29294 14.0215 3.24902 13.8494 3.14261 13.915C3.03598 13.9807 2.94882 13.4861 2.94882 12.8161C2.94882 12.1459 2.74507 10.8037 2.49604 9.8332C1.97941 7.81992 1.93911 7.37312 2.29387 7.59156C2.46026 7.69423 2.49604 7.59381 2.40027 7.29324C2.0317 6.13519 6.67615 2.15625 9.6274 1.10177C11.0894 0.579383 13.1082 0.62 14.7932 1.20557ZM24.4561 4.98165C24.8994 5.26733 25.1991 5.26733 25.0221 4.98165C24.9451 4.85754 24.7099 4.75758 24.4993 4.75938C24.1695 4.76254 24.1634 4.79323 24.4561 4.98165ZM10.1472 6.81034C9.01795 7.39727 8.75375 7.67144 8.04198 8.9958L7.22787 10.5102L7.56904 12.4282C8.46487 17.4648 8.71617 20.102 8.40239 21.1723C8.28104 21.5866 8.2747 21.9056 8.38767 21.9056C9.10443 21.9056 8.90362 17.7821 7.89754 11.8302C7.72231 10.7936 7.73204 10.3082 7.93625 9.91217C8.30029 9.20543 9.76708 7.68949 10.0867 7.68949C10.2264 7.68949 10.5683 7.44827 10.8463 7.15334C11.377 6.59033 12.6298 6.30172 13.6771 6.5012C14.1951 6.59981 14.2386 6.66683 13.9904 6.98342C13.736 7.30836 13.7473 7.31603 14.0878 7.05021C14.4874 6.73836 15.4004 6.87962 15.4004 7.2533C15.4004 7.52657 17.3395 7.52521 18.2969 7.2515C18.8921 7.08135 19.3317 7.14882 20.508 7.58998C22.4392 8.31455 22.5709 8.27957 21.0602 7.44353C19.7247 6.70474 19.0879 6.61132 17.346 6.8997C16.4192 7.05315 16.267 7.03103 16.4273 6.76589C16.5858 6.50391 16.5577 6.49827 16.2666 6.73295C15.9782 6.96582 15.7332 6.93581 14.9214 6.56867C13.4326 5.89532 11.7428 5.98084 10.1472 6.81034ZM23.6637 6.58131C23.9128 6.7352 24.1915 6.97146 24.2829 7.10618C24.3841 7.25533 24.4504 7.19666 24.4527 6.95612C24.4545 6.73904 24.3626 6.56122 24.2483 6.56122C24.1339 6.56122 23.8537 6.50278 23.6257 6.43125C23.2782 6.32248 23.2843 6.34685 23.6637 6.58131ZM26.9265 7.78201C27.4653 8.32922 28.327 8.9439 28.8413 9.14766C30.0518 9.6274 30.7684 10.5551 31.2606 12.2797C31.4786 13.044 31.9191 14.2786 32.2395 15.0232C32.5598 15.7679 32.8243 16.8084 32.8272 17.3353C32.8301 17.8622 33.0493 18.9171 33.3139 19.6793C33.7097 20.8191 33.7617 21.2905 33.6073 22.3317C33.5039 23.0283 33.4147 24.7599 33.409 26.18L33.3986 28.7617L31.9271 29.9549C31.1177 30.6111 30.3548 31.1166 30.2314 31.0782C30.1082 31.0399 29.8139 31.2538 29.5773 31.5532C29.2715 31.9409 29.0983 32.0187 28.9772 31.8236C28.8585 31.6322 28.7637 31.6857 28.6634 32.0005C28.5844 32.2487 28.3184 32.6332 28.0725 32.855C27.6424 33.2431 27.6247 33.242 27.603 32.8284C27.5862 32.5093 27.5403 32.5441 27.425 32.9627C27.2967 33.4286 27.0365 33.5823 25.9315 33.8452C24.8577 34.1006 24.5745 34.1067 24.4975 33.8761C24.4339 33.6861 24.3511 33.6696 24.2533 33.8274C24.1718 33.9587 23.6325 34.097 23.0545 34.1349C22.4768 34.1728 22.0437 34.2435 22.0921 34.292C22.2687 34.4682 20.7127 35.6628 20.4376 35.5624C20.2821 35.5055 20.1546 35.5466 20.1546 35.6533C20.1546 36.0036 19.3811 36.1552 19.1418 35.8519C19.0141 35.6901 18.451 35.5304 17.8907 35.497C17.3304 35.4633 16.7191 35.3726 16.5324 35.2952C16.3456 35.2178 15.9125 35.1765 15.5702 35.2038C15.1056 35.2406 14.9431 35.1488 14.9297 34.8412C14.9195 34.6043 14.8634 34.5492 14.7978 34.7115C14.7221 34.8979 14.1675 34.9935 13.163 34.9935C11.6593 34.9935 11.0989 34.7643 11.0989 34.1491C11.0989 33.7924 10.8083 33.4115 9.76708 32.4042C9.33105 31.9822 9.07002 31.5516 9.16126 31.4047C9.24933 31.2626 9.23755 31.1741 9.13477 31.2082C8.74764 31.3368 8.73881 30.8575 9.1239 30.6179C9.46077 30.4083 9.67041 30.5233 10.418 31.3282C10.9604 31.9122 11.2588 32.4218 11.1793 32.6282C11.089 32.8625 11.1533 32.9277 11.386 32.8388C11.5821 32.7639 11.9013 32.9284 12.1471 33.231C12.4428 33.5952 12.7582 33.731 13.1931 33.6811C13.5909 33.6353 13.8181 33.7168 13.8225 33.9068C13.8268 34.0902 13.9187 34.051 14.0627 33.8043C14.3669 33.2838 15.8985 33.4049 19.2993 34.2193C19.7578 34.329 20.2377 34.1855 21.1727 33.6597C22.6031 32.855 24.4538 32.477 24.4595 32.9884C24.4624 33.2483 24.4957 33.2497 24.6565 32.9969C24.7626 32.8297 25.1348 32.6774 25.483 32.6585C25.8665 32.6377 26.5258 32.2647 27.154 31.713C27.7248 31.2118 29.0347 30.2036 30.0652 29.4725C31.1499 28.7028 31.978 27.9462 32.0319 27.6758C32.0833 27.4188 32.1842 25.8286 32.2565 24.1421C32.369 21.5141 32.3253 20.869 31.952 19.629C31.7122 18.8334 31.4494 17.5129 31.3676 16.6944C31.2861 15.876 31.0747 14.9282 30.8977 14.5882C30.7208 14.2483 30.4625 13.5502 30.3237 13.0366C30.185 12.523 29.9457 11.9236 29.7917 11.7045C29.5379 11.3435 29.4225 11.4155 28.559 12.4733C27.7648 13.4466 27.6645 13.6731 27.9557 13.8354C28.1477 13.9426 28.3048 14.1648 28.3048 14.3293C28.3048 14.4938 28.5595 15.2026 28.8708 15.9042C29.182 16.6057 29.4367 17.5142 29.4367 17.9229C29.4367 18.3317 29.6004 19.1452 29.8008 19.7308C30.0725 20.5255 30.1159 21.0646 29.9724 21.8583C29.8669 22.4427 29.7795 23.728 29.7784 24.7146L29.7763 26.5078L27.852 27.929C26.7936 28.7107 25.6811 29.526 25.3796 29.7408C25.0631 29.9664 24.191 30.1901 23.3162 30.2699C22.0862 30.3823 21.6015 30.5511 20.7426 31.166C19.703 31.91 19.6659 31.9183 18.6179 31.6351C18.0311 31.4767 16.7871 31.298 15.8532 31.2382C13.506 31.0879 13.1888 31.0001 13.014 30.4511C12.93 30.1876 12.5245 29.6038 12.1132 29.1543C8.97358 25.7237 8.3673 24.8391 9.15605 24.8391C9.33264 24.8391 9.62921 24.7809 9.81485 24.7101C10.0351 24.6257 10.2088 24.7631 10.3143 25.105C10.4035 25.3931 10.9984 26.1985 11.6366 26.8944C12.2748 27.5905 13.0056 28.5044 13.2605 28.9253C13.7079 29.6636 13.7686 29.6884 14.9707 29.6255C15.9981 29.572 16.366 29.6611 17.0639 30.1332C18.2627 30.9442 19.2364 30.8544 20.8338 29.7852C21.1451 29.577 22.0516 29.3319 22.848 29.2405C24.0814 29.0992 24.4344 28.9505 25.2252 28.2391C25.7361 27.7796 26.6392 27.2238 27.2319 27.0043C27.8248 26.7847 28.4057 26.4266 28.523 26.2084C28.8502 25.5989 28.3772 19.0031 27.9607 18.3694C27.7764 18.0892 27.6254 17.5769 27.6251 17.2312C27.6251 16.8855 27.4467 16.2815 27.229 15.8888C27.0114 15.4962 26.5901 14.7346 26.2928 14.1964C25.9958 13.6582 25.5118 12.931 25.2175 12.5801C24.7667 12.0428 24.4534 10.623 24.7857 10.623C24.9302 10.623 26.4807 11.6296 27.2407 12.217C27.5891 12.4864 27.9247 12.6568 27.986 12.5956C28.1409 12.4411 26.749 11.2999 26.4056 11.2999C25.979 11.2999 25.0237 9.89232 25.1036 9.38189C25.2299 8.57698 25.4844 8.57676 26.2668 9.38144C26.6895 9.81605 27.1538 10.1717 27.2989 10.1717C27.4438 10.1717 27.9333 10.4224 28.3863 10.729C28.8395 11.0355 29.2103 11.1952 29.2103 11.0838C29.2103 10.8168 28.092 9.94602 27.749 9.94602C27.2865 9.94602 25.5881 7.87949 25.5881 7.31671C25.5881 6.5707 25.8095 6.64765 26.9265 7.78201ZM11.4385 8.00992C10.5187 8.41474 9.85854 9.17181 9.27173 10.4937C8.70824 11.7634 8.76597 13.1489 9.437 14.4591C9.91333 15.3888 10.128 18.251 9.77116 18.9153C9.52462 19.3743 9.68309 21.8136 9.94254 21.5525C10.0182 21.4764 10.1008 20.9915 10.1261 20.4752C10.1515 19.9587 10.2391 18.5105 10.3208 17.2565C10.4675 15.0115 10.4589 14.9562 9.76618 13.6461C9.37905 12.9143 9.06323 12.1631 9.06413 11.9769C9.06504 11.7907 9.30774 11.1205 9.6034 10.4878C10.41 8.76112 11.7609 7.97923 12.8938 8.5833C13.1172 8.70267 13.6454 8.84213 14.0674 8.89357C14.4892 8.9448 15.2929 9.15037 15.8532 9.3503C17.1411 9.80973 17.4633 9.8086 18.4472 9.34105C19.2104 8.9782 19.2876 8.98203 20.2094 9.42724C20.7396 9.68336 21.4458 9.95573 21.7786 10.0322C22.1114 10.1089 22.6973 10.4346 23.0803 10.7559C23.6268 11.2142 23.7769 11.262 23.7769 10.9782C23.7769 10.5839 22.5234 9.72262 21.9475 9.72127C21.7507 9.72082 21.0885 9.46696 20.4759 9.15714C19.2244 8.52418 18.8436 8.47747 18.0123 8.85499C17.5505 9.06462 17.0793 9.03596 15.6811 8.71328C14.7174 8.49078 13.7251 8.22654 13.4761 8.12613C12.5307 7.74477 12.0969 7.71995 11.4385 8.00992ZM23.4833 8.9096C23.707 9.20859 23.9252 9.35729 23.9682 9.24063C24.062 8.98474 23.5793 8.36645 23.2859 8.36645C23.1709 8.36645 23.2596 8.61083 23.4833 8.9096ZM15.0597 16.2643C15.4848 19.0042 15.4787 19.1985 14.9497 19.7597C14.4247 20.3168 14.443 21.1867 14.9936 21.8479C15.45 22.396 15.6343 22.1234 15.2752 21.4313C14.9313 20.7681 14.937 20.7049 15.3827 20.2322C15.9951 19.5823 15.9951 17.8865 15.3825 16.49C14.9506 15.5052 14.9408 15.4982 15.0597 16.2643ZM16.8298 16.4053C16.7015 16.7384 16.8412 18.0095 17.1004 18.8679C17.1952 19.1818 17.0551 19.5257 16.6594 19.9513C16.3406 20.2943 16.0796 20.7332 16.0796 20.9268C16.0796 21.2269 17.3997 23.4852 17.5751 23.4852C17.9985 23.4852 20.789 22.7133 21.0016 22.5375C21.3518 22.2477 21.3643 21.4033 21.0355 20.2236C20.8698 19.6286 20.2991 18.8275 19.3233 17.82C17.8045 16.2519 17.0531 15.8256 16.8298 16.4053ZM18.677 17.653C20.0804 18.6991 20.7061 19.5812 20.928 20.8252C21.1306 21.9612 20.6034 22.4668 19.0204 22.6537C17.8427 22.7927 17.7977 22.7767 17.0698 21.956C16.1674 20.9385 16.1414 20.711 16.872 20.234C17.4939 19.8278 17.576 19.2718 17.1765 18.1704C16.9421 17.5248 17.0155 16.7156 17.3082 16.7156C17.3693 16.7156 17.9851 17.1374 18.677 17.653ZM17.9294 19.9928C17.7006 20.9735 17.6947 21.3318 17.9034 21.5823C18.3279 22.0923 19.195 21.972 19.6063 21.3462C19.9294 20.8548 19.9369 20.6695 19.6681 19.8231C19.4266 19.0622 19.2425 18.8453 18.7934 18.793C18.2742 18.7327 18.1988 18.8372 17.9294 19.9928ZM19.1166 19.4022C19.9269 20.2947 19.0813 22.3071 18.2559 21.4505C17.9921 21.1766 17.9801 20.9211 18.19 20.044C18.3311 19.4546 18.5095 18.9722 18.5862 18.9722C18.6632 18.9722 18.9018 19.1658 19.1166 19.4022ZM13.1365 21.6807C12.9497 21.8007 12.3269 21.9002 11.7523 21.9023C10.8341 21.9052 8.37499 22.2665 8.2618 22.4149C8.2387 22.4452 8.16106 22.8507 8.08884 23.316C7.98674 23.9758 8.03269 24.1622 8.29757 24.1622C8.48525 24.1622 8.61905 23.9857 8.59686 23.7673C8.50608 22.8778 8.62176 22.5826 9.06142 22.5826C9.41776 22.5826 9.51805 22.739 9.53209 23.316C9.55065 24.0805 9.60838 24.0169 9.8384 22.9775C9.94865 22.479 10.1017 22.3569 10.6158 22.3569C11.0562 22.3569 11.3328 22.5156 11.5019 22.8647L11.7476 23.3724L11.7627 22.8748C11.7747 22.4842 11.9579 22.3439 12.6158 22.2207C13.1718 22.1169 13.4829 22.1514 13.5404 22.3233C13.6386 22.6174 14.0421 22.679 14.0421 22.4C14.0421 22.2996 13.9148 22.0478 13.7591 21.8402C13.5571 21.571 13.3787 21.5252 13.1365 21.6807ZM27.6435 31.9659C27.6544 32.2288 27.708 32.2823 27.7802 32.1025C27.8457 31.9395 27.8375 31.7448 27.7623 31.6699C27.6872 31.595 27.6338 31.7281 27.6435 31.9659Z" fill="#FF4F00" fill-opacity="0.37"/>
</svg>
