<svg width="107" height="81" viewBox="0 0 107 81" fill="none" xmlns="http://www.w3.org/2000/svg">
<g clip-path="url(#clip0)">
<path d="M6.35002 28.1789V13.3211C6.35002 10.2936 7.55606 7.39007 9.70284 5.24931C11.8496 3.10855 14.7612 1.90588 17.7972 1.90588H72.3079C75.3439 1.90588 78.2556 3.10855 80.4023 5.24931C82.5491 7.39007 83.7551 10.2936 83.7551 13.3211V67.6789C83.7551 69.178 83.459 70.6624 82.8837 72.0473C82.3084 73.4323 81.4653 74.6907 80.4023 75.7507C79.3393 76.8107 78.0774 77.6516 76.6885 78.2252C75.2997 78.7989 73.8112 79.0941 72.3079 79.0941H17.7972C16.294 79.0941 14.8055 78.7989 13.4166 78.2252C12.0278 77.6516 10.7658 76.8107 9.70284 75.7507C8.63986 74.6907 7.79667 73.4323 7.22138 72.0473C6.64611 70.6624 6.35002 69.178 6.35002 67.6789V65.3638" stroke="#040F1F" stroke-width="4" stroke-linejoin="round"/>
<path d="M67.7037 79.0136H94.4947C96.8616 79.0136 99.1312 78.0761 100.804 76.4073C102.478 74.7384 103.418 72.4751 103.418 70.115V10.8044C103.418 8.44442 102.478 6.18104 100.804 4.51223C99.1312 2.84342 96.8616 1.90588 94.4947 1.90588H92.4758" stroke="#040F1F" stroke-width="4" stroke-linejoin="round"/>
<path d="M43.922 59.122C54.2582 59.122 62.6373 50.7663 62.6373 40.4591C62.6373 30.1518 54.2582 21.7963 43.922 21.7963C33.5858 21.7963 25.2067 30.1518 25.2067 40.4591C25.2067 50.7663 33.5858 59.122 43.922 59.122Z" stroke="#040F1F" stroke-width="4" stroke-linejoin="round"/>
<path d="M43.9215 50.5463C49.5078 50.5463 54.0363 46.0305 54.0363 40.4599C54.0363 34.8894 49.5078 30.3735 43.9215 30.3735C38.3353 30.3735 33.8068 34.8894 33.8068 40.4599C33.8068 46.0305 38.3353 50.5463 43.9215 50.5463Z" fill="#1673FF"/>
<path d="M62.7178 21.7157L57.1657 27.2723" stroke="#040F1F" stroke-width="4" stroke-linejoin="round"/>
<path d="M30.6977 53.6472L25.1255 59.2038" stroke="#040F1F" stroke-width="4" stroke-linejoin="round"/>
<path d="M62.7178 59.2038L57.1657 53.6472" stroke="#040F1F" stroke-width="4" stroke-linejoin="round"/>
<path d="M30.6977 27.2723L25.1255 21.7157" stroke="#040F1F" stroke-width="4" stroke-linejoin="round"/>
<path d="M12.528 40.6608C12.5453 39.5478 12.2598 38.4508 11.7019 37.4866C11.144 36.5224 10.3345 35.727 9.35948 35.1848C8.38446 34.6427 7.28037 34.3742 6.16454 34.4077C5.04873 34.4413 3.96287 34.7758 3.02242 35.3755C2.08197 35.9753 1.32206 36.818 0.823466 37.814C0.324874 38.81 0.106232 39.9221 0.190782 41.0321C0.275332 42.1422 0.659913 43.2085 1.30365 44.118C1.94738 45.0275 2.82621 45.746 3.84672 46.1973L6.35017 59.6458L8.85363 46.1973C9.94146 45.7332 10.8691 44.9615 11.5222 43.9776C12.1751 42.9937 12.5248 41.8406 12.528 40.6608Z" fill="#1673FF"/>
</g>
<defs>
<clipPath id="clip0">
<rect width="106.074" height="81" fill="white" transform="translate(0.173035)"/>
</clipPath>
</defs>
</svg>
