<svg width="98" height="81" viewBox="0 0 98 81" fill="none" xmlns="http://www.w3.org/2000/svg">
<g clip-path="url(#clip0)">
<path d="M24.8045 26.9812H44.5945V25.4771C44.6244 23.2793 45.5234 21.1821 47.0967 19.6402C48.6699 18.0984 50.7903 17.2366 52.9978 17.2418H76.2813C73.3166 -0.300502 62.4584 0.000330805 62.4584 0.000330805H10.3018C11.2649 0.000330805 24.8045 0.56439 24.8045 26.9812Z" fill="#1673FF"/>
<path d="M44.5941 26.9817H3.23895L12.4164 78.8376H90.5758L89.2539 71.3167L81.3984 26.944L81.1151 25.3647C80.711 23.0787 79.5108 21.0076 77.7253 19.5153C75.9399 18.023 73.6833 17.2049 71.3523 17.2046H54.508C51.895 17.2045 49.3876 18.2315 47.531 20.0624C45.6745 21.8933 44.619 24.38 44.5941 26.9817Z" stroke="#040F1F" stroke-width="4"/>
<path d="M90.5762 78.8373L95.6564 24.3115C95.7405 23.417 95.636 22.5149 95.3494 21.6629C95.0629 20.8109 94.6006 20.028 93.9923 19.3642C93.385 18.7003 92.6441 18.1703 91.8184 17.8081C90.9927 17.4459 90.1 17.2595 89.1977 17.2607H87.1772" stroke="#040F1F" stroke-width="4"/>
<path d="M30.1663 39.0897L44.3668 52.5331" stroke="#040F1F" stroke-width="4"/>
<path d="M54.6218 38.4506L34.1141 66.616" stroke="#040F1F" stroke-width="4"/>
<path d="M49.787 57.6669L58.5867 65.9774" stroke="#040F1F" stroke-width="4"/>
</g>
<defs>
<clipPath id="clip0">
<rect width="97.0674" height="81" fill="white" transform="translate(0.465576)"/>
</clipPath>
</defs>
</svg>
