<svg width="14" height="10" viewBox="0 0 14 10" fill="none" xmlns="http://www.w3.org/2000/svg">
<path d="M5.57608 9.27955C5.44481 9.27981 5.31478 9.25416 5.19346 9.20405C5.07213 9.15394 4.9619 9.08036 4.86908 8.98755L0.627076 4.74455C0.531503 4.65237 0.455244 4.54208 0.402751 4.42011C0.350257 4.29814 0.32258 4.16694 0.321333 4.03417C0.320086 3.90139 0.345295 3.76969 0.395489 3.64676C0.445683 3.52383 0.519857 3.41213 0.613682 3.31817C0.707508 3.22421 0.819106 3.14988 0.941965 3.09951C1.06482 3.04915 1.19649 3.02375 1.32926 3.02481C1.46204 3.02587 1.59328 3.05336 1.71532 3.10568C1.83736 3.158 1.94776 3.2341 2.04008 3.32955L5.57508 6.86455L11.9401 0.501546C12.1276 0.313906 12.382 0.208437 12.6472 0.208344C12.9125 0.20825 13.1669 0.313538 13.3546 0.501046C13.5422 0.688554 13.6477 0.942923 13.6478 1.20819C13.6479 1.47346 13.5426 1.72791 13.3551 1.91555L6.28308 8.98755C6.19025 9.08036 6.08002 9.15394 5.95869 9.20405C5.83737 9.25416 5.70734 9.27981 5.57608 9.27955Z" fill="#2FAB73"/>
</svg>
