<svg width="1920" height="98" viewBox="0 0 1920 98" fill="none" xmlns="http://www.w3.org/2000/svg">
<path fill-rule="evenodd" clip-rule="evenodd" d="M1929 32.8139L1847.58 41.2082C1766.17 49.6024 1603.33 66.0094 1440.5 79.7455C1277.67 93.4816 1114.83 104.547 952 93.4816C789.167 82.4164 626.333 49.6025 463.5 41.2083C300.667 32.814 137.833 49.6026 56.4166 57.6153L-25 66.0095L-25 0.000125048L56.4166 0.00011793C137.833 0.000110812 300.667 9.65771e-05 463.5 8.23417e-05C626.333 6.81064e-05 789.167 5.3871e-05 952 3.96357e-05C1114.83 2.54003e-05 1277.67 1.1165e-05 1440.5 -3.07034e-06C1603.33 -1.73057e-05 1766.17 -3.1541e-05 1847.58 -3.86587e-05L1929 -4.57764e-05L1929 32.8139Z" fill="white"/>
</svg>
