<svg width="151" height="105" viewBox="0 0 151 105" fill="none" xmlns="http://www.w3.org/2000/svg">
<path d="M138.371 41.94H103.403C100.641 41.94 98.4029 39.7014 98.4029 36.94V11.976M138.371 41.94L146.884 52.4435C147.606 53.334 148 54.4456 148 55.5919V80.104C148 82.8654 145.761 85.104 143 85.104H131.697M138.371 41.94L125.481 14.8291C124.653 13.0864 122.895 11.976 120.966 11.976H98.4029M9.62923 61.344H37.3298M0 41.94H48.8057M8.44207 22.404H56.4563M98.4029 11.976V8C98.4029 5.23858 96.1643 3 93.4029 3H20.8289C18.0675 3 15.8289 5.23858 15.8289 8V80.104C15.8289 82.8654 18.0675 85.104 20.8289 85.104H32.6261M115.683 69.132C92.7423 69.1266 94.461 101.992 115.023 102M115.683 69.132C126.944 69.132 131.949 77.0439 131.697 85.104M115.683 69.132C104.422 69.132 99.0987 77.0439 99.0277 85.104M115.023 102C125.505 102 131.435 93.4721 131.697 85.104M115.023 102C104.542 102 98.9541 93.4721 99.0277 85.104M32.6261 85.104C32.6466 77.0439 37.8685 69.132 48.8057 69.132C59.7429 69.132 64.9648 77.0439 64.9853 85.104M32.6261 85.104C32.6047 93.4721 38.1897 102 48.8057 102C59.4217 102 65.0067 93.4721 64.9853 85.104M99.0277 85.104H64.9853" stroke="#154911" stroke-width="5"/>
</svg>
