<svg width="40" height="40" fill="none" xmlns="http://www.w3.org/2000/svg"><path fill-rule="evenodd" clip-rule="evenodd" d="M20 40c11.046 0 20-8.954 20-20S31.046 0 20 0 0 8.954 0 20s8.954 20 20 20z" fill="#1DA1F2"/><path fill-rule="evenodd" clip-rule="evenodd" d="M28.979 14.363a.088.088 0 00-.105-.024 7.153 7.153 0 01-1.687.516 3.777 3.777 0 001.317-1.867.09.09 0 00-.03-.098.089.089 0 00-.101-.008 7.177 7.177 0 01-2.245.875 3.745 3.745 0 00-2.7-1.157c-2.066 0-3.746 1.696-3.746 3.78 0 .253.024.503.072.745A10.297 10.297 0 0112.4 13.31a.09.09 0 00-.147.012 3.806 3.806 0 00-.506 1.9c0 1.16.521 2.243 1.41 2.958a3.556 3.556 0 01-1.307-.426.088.088 0 00-.088 0 .09.09 0 00-.045.077v.048a3.79 3.79 0 002.633 3.612 3.57 3.57 0 01-1.245-.018.09.09 0 00-.102.116 3.752 3.752 0 003.251 2.613 7.154 7.154 0 01-4.292 1.412c-.287 0-.577-.017-.861-.051a.09.09 0 00-.095.059.09.09 0 00.036.106 10.38 10.38 0 005.653 1.673c6.568 0 10.492-5.385 10.492-10.591 0-.145-.002-.29-.008-.433a7.512 7.512 0 001.807-1.905.091.091 0 00-.006-.108z" fill="#fff"/></svg>