<svg width="29" height="28" fill="none" xmlns="http://www.w3.org/2000/svg"><g clip-path="url(#clip0)"><path d="M.967 27.992v-7.68a8.853 8.853 0 012.55-6.197 8.65 8.65 0 016.127-2.575 8.65 8.65 0 016.127 2.575 8.853 8.853 0 012.55 6.197M9.645 9.262c2.264 0 4.1-1.857 4.1-4.148 0-2.291-1.836-4.149-4.1-4.149-2.265 0-4.1 1.858-4.1 4.149 0 2.29 1.835 4.148 4.1 4.148zm10.019 7.703a5.176 5.176 0 013.14-1.069 5.207 5.207 0 013.696 1.552 5.33 5.33 0 011.534 3.74V28m-5.23-14.19c1.365 0 2.471-1.119 2.471-2.5s-1.106-2.5-2.471-2.5c-1.366 0-2.472 1.119-2.472 2.5s1.106 2.5 2.472 2.5z" stroke="#040F1F" stroke-width="2"/><path d="M25.084 24.541l-4.745-3.443v1.195h-6.5v4.497h6.5v1.202l4.745-3.45z" fill="#1673FF"/></g><defs><clipPath id="clip0"><path fill="#fff" d="M0 0h29v28H0z"/></clipPath></defs></svg>