<svg width="28" height="28" fill="none" xmlns="http://www.w3.org/2000/svg"><g clip-path="url(#clip0)"><path d="M10.632 20.021L5.685 25.03a1.74 1.74 0 00-.585 1.25 1.76 1.76 0 00.503 1.288 1.72 1.72 0 001.272.51 1.705 1.705 0 001.238-.592l4.947-5.007-2.429-2.459zm-5.177-5.089L.5 19.939a1.754 1.754 0 00.044 2.421c.316.32.743.502 1.189.509a1.71 1.71 0 001.204-.472l4.947-5.007-2.429-2.458z" fill="#1673FF"/><path d="M15.059 24.591l3.956-4.004a7.072 7.072 0 002.023-4.958 7.072 7.072 0 00-2.023-4.958l-1.818-1.848a6.916 6.916 0 00-4.899-2.04A6.917 6.917 0 007.4 8.822L3.436 12.82l9.812 9.947" stroke="#040F1F" stroke-width="2"/><path d="M18.136 9.803l1.542-1.56a2.454 2.454 0 00.71-1.735 2.477 2.477 0 00-.71-1.735 2.478 2.478 0 01-.55-2.691c.184-.453.498-.84.902-1.11a2.4 2.4 0 011.362-.406H28" stroke="#040F1F" stroke-width="2" stroke-linejoin="round"/><path d="M9.313 12.822c.384-.39.84-.698 1.342-.908a4.092 4.092 0 014.507.908" stroke="#040F1F" stroke-width="2"/></g><defs><clipPath id="clip0"><path fill="#fff" d="M0 0h28v28H0z"/></clipPath></defs></svg>