<svg width="28" height="28" fill="none" xmlns="http://www.w3.org/2000/svg"><g clip-path="url(#clip0)"><path d="M22.852 17.134c1.088-1.03-.889-4.568-4.416-7.905-3.527-3.337-7.268-5.207-8.356-4.178-1.088 1.03.89 4.569 4.416 7.905 3.527 3.337 7.268 5.207 8.356 4.178z" stroke="#040F1F" stroke-width="2" stroke-linejoin="round"/><path d="M22.852 17.128L3.484 25.735a2.108 2.108 0 01-1.201.147 2.043 2.043 0 01-1.072-.534 1.862 1.862 0 01-.55-1.02 1.805 1.805 0 01.17-1.135L8.316 8.505M12.25 22.17a3.57 3.57 0 01.06 2.868c-.19.46-.474.878-.834 1.233-.36.355-.792.639-1.268.836a4.154 4.154 0 01-3.032.057 3.996 3.996 0 01-1.303-.789 3.753 3.753 0 01-.884-1.2" stroke="#040F1F" stroke-width="2" stroke-linejoin="round"/><path d="M16.465 7.262h-.307c-.96.073-1.86.47-2.536 1.118a3.71 3.71 0 00-1.148 2.414c.637.758 1.32 1.48 2.045 2.164a29.03 29.03 0 002.279 1.935 4.129 4.129 0 002.536-1.107 3.722 3.722 0 001.165-2.402v-.29a3.73 3.73 0 00-1.18-2.705 4.169 4.169 0 00-2.854-1.127z" fill="#1673FF"/><path d="M22.852 17.127c-1.089 1.031-4.823-.833-8.316-4.17-3.492-3.335-5.505-6.875-4.415-7.867M21.33 6.467l3.825-3.627m-1.388 6.978h4.232M17.73 4.005V0" stroke="#040F1F" stroke-width="2" stroke-linejoin="round"/></g><defs><clipPath id="clip0"><path fill="#fff" d="M0 0h28v28H0z"/></clipPath></defs></svg>