<svg width="59" height="59" viewBox="0 0 59 59" fill="none" xmlns="http://www.w3.org/2000/svg">
<g clip-path="url(#clip0_302_463)">
<path d="M41.138 18.1245C40.9241 18.1246 40.719 18.2097 40.5678 18.361L26.5194 32.4094L18.4345 24.3241C18.2805 24.1784 18.0764 24.0972 17.8644 24.0972C17.6523 24.0972 17.4482 24.1784 17.2942 24.3241L14.0349 27.5839C13.8837 27.7351 13.7988 27.9402 13.7988 28.1541C13.7988 28.3679 13.8837 28.573 14.0349 28.7242L25.9506 40.639C26.0254 40.714 26.1143 40.7734 26.2121 40.814C26.31 40.8546 26.4148 40.8754 26.5208 40.8754C26.6267 40.8754 26.7316 40.8546 26.8294 40.814C26.9272 40.7734 27.0161 40.714 27.0909 40.639L44.9675 22.7611C45.1187 22.6097 45.2036 22.4046 45.2036 22.1907C45.2036 21.9768 45.1187 21.7716 44.9675 21.6203L41.7082 18.361C41.557 18.2097 41.3519 18.1246 41.138 18.1245ZM26.5194 38.928L15.7459 28.1541L17.8662 26.0337L25.9506 34.12C26.0254 34.1949 26.1143 34.2544 26.2121 34.295C26.31 34.3355 26.4148 34.3564 26.5208 34.3564C26.6267 34.3564 26.7316 34.3355 26.8294 34.295C26.9272 34.2544 27.0161 34.1949 27.0909 34.12L41.138 20.072L43.2583 22.1923L26.5194 38.928Z" fill="#75FF37"/>
<path d="M29.5003 7.52802C25.1547 7.52802 20.9066 8.81665 17.2933 11.231C13.6801 13.6453 10.8639 17.0768 9.20085 21.0917C7.53784 25.1065 7.10272 29.5244 7.95052 33.7865C8.79831 38.0487 10.8909 41.9637 13.9638 45.0365C17.0366 48.1093 20.9516 50.202 25.2138 51.0498C29.4759 51.8976 33.8938 51.4624 37.9086 49.7994C41.9235 48.1364 45.355 45.3202 47.7693 41.707C50.1836 38.0937 51.4723 33.8456 51.4723 29.5C51.4657 23.6747 49.1487 18.0898 45.0295 13.9707C40.9104 9.85162 35.3256 7.5346 29.5003 7.52802ZM29.5003 49.8587C25.4737 49.8587 21.5376 48.6647 18.1896 46.4276C14.8416 44.1906 12.2322 41.011 10.6913 37.2909C9.15042 33.5709 8.74725 29.4774 9.5328 25.5282C10.3183 21.579 12.2573 17.9514 15.1045 15.1042C17.9517 12.257 21.5793 10.318 25.5285 9.53248C29.4777 8.74694 33.5712 9.15011 37.2912 10.691C41.0113 12.2319 44.1909 14.8413 46.4279 18.1893C48.665 21.5373 49.859 25.4734 49.859 29.5C49.8529 34.8976 47.706 40.0723 43.8893 43.889C40.0727 47.7057 34.8979 49.8526 29.5003 49.8587Z" fill="#75FF37"/>
<path d="M58.0906 32.0866C58.6829 31.3543 59.0061 30.4411 59.0061 29.4993C59.0061 28.5575 58.6829 27.6443 58.0906 26.9121L56.7687 25.2619C56.5153 24.9452 56.3418 24.5722 56.263 24.1744C56.1841 23.7765 56.2021 23.3655 56.3156 22.9761L56.9056 20.9522C57.1647 20.0471 57.1095 19.081 56.749 18.2114C56.3886 17.3417 55.7441 16.6198 54.9208 16.1635L53.0738 15.1494C52.718 14.9546 52.4144 14.6769 52.1885 14.34C51.9627 14.003 51.8213 13.6166 51.7763 13.2135L51.5458 11.1139C51.4472 10.1768 51.0299 9.30205 50.3636 8.63579C49.6973 7.96953 48.8225 7.55221 47.8855 7.45359L45.7859 7.22312C45.3828 7.17828 44.9964 7.03699 44.6594 6.81122C44.3224 6.58544 44.0448 6.28182 43.85 5.92605L42.8359 4.07861C42.3866 3.2485 41.6654 2.5982 40.7934 2.23681C39.9214 1.87542 38.9516 1.82493 38.0468 2.09381L36.0233 2.68335C35.6337 2.79656 35.2225 2.81446 34.8246 2.73552C34.4266 2.65659 34.0535 2.48313 33.7366 2.22979L32.0864 0.90782C31.3541 0.315773 30.4409 -0.00720215 29.4992 -0.00720215C28.5574 -0.00720215 27.6442 0.315773 26.9119 0.90782L25.2618 2.22979C24.9447 2.4826 24.5717 2.65569 24.174 2.73453C23.7763 2.81337 23.3654 2.79566 22.976 2.68289L20.952 2.09289C20.047 1.83362 19.0808 1.88871 18.2111 2.24918C17.3414 2.60964 16.6196 3.2542 16.1633 4.07769L15.1492 5.92466C14.9544 6.28045 14.6768 6.58411 14.3398 6.80995C14.0028 7.0358 13.6165 7.1772 13.2133 7.2222L11.1137 7.45267C10.1767 7.55129 9.30189 7.96861 8.63563 8.63487C7.96937 9.30113 7.55205 10.1759 7.45343 11.113L7.22296 13.2125C7.17812 13.6157 7.03683 14.0021 6.81106 14.3391C6.58528 14.676 6.28166 14.9537 5.92589 15.1485L4.07845 16.1625C3.24852 16.6121 2.59838 17.3333 2.23701 18.2052C1.87565 19.0772 1.82503 20.0469 2.09365 20.9517L2.68411 22.9747C2.79733 23.3643 2.81522 23.7755 2.73628 24.1734C2.65735 24.5714 2.4839 24.9446 2.23055 25.2615L0.908581 26.9116C0.316294 27.6438 -0.00683594 28.5571 -0.00683594 29.4989C-0.00683594 30.4406 0.316294 31.3539 0.908581 32.0861L2.23055 33.7363C2.48395 34.0529 2.6574 34.426 2.73626 34.8238C2.81513 35.2217 2.79708 35.6326 2.68365 36.022L2.09365 38.046C1.83436 38.951 1.88934 39.9171 2.24962 40.7869C2.6099 41.6566 3.25423 42.3786 4.07753 42.8352L5.9245 43.8492C6.28029 44.0441 6.58394 44.3217 6.80979 44.6587C7.03564 44.9956 7.17704 45.382 7.22204 45.7852L7.45251 47.8847C7.55113 48.8218 7.96845 49.6966 8.63471 50.3628C9.30097 51.0291 10.1758 51.4464 11.1128 51.545L13.2124 51.7755C13.6155 51.8203 14.0019 51.9616 14.3389 52.1874C14.6759 52.4132 14.9535 52.7168 15.1483 53.0726L16.1624 54.92C16.6117 55.7501 17.3329 56.4004 18.2049 56.7618C19.0769 57.1232 20.0467 57.1737 20.9515 56.9048L22.9746 56.3144C23.3642 56.2015 23.7753 56.1838 24.1732 56.2627C24.5711 56.3416 24.9442 56.5149 25.2613 56.7679L26.9114 58.0899C27.6437 58.6822 28.5569 59.0053 29.4987 59.0053C30.4405 59.0053 31.3537 58.6822 32.0859 58.0899L33.7361 56.7679C34.0528 56.5146 34.4259 56.3412 34.8237 56.2624C35.2215 56.1835 35.6325 56.2015 36.0219 56.3148L38.0459 56.9048C38.9506 57.1734 39.9202 57.1228 40.7921 56.7614C41.6639 56.4 42.3851 55.7499 42.8345 54.92L43.8486 53.073C44.0434 52.7173 44.3211 52.4136 44.658 52.1878C44.995 51.9619 45.3814 51.8205 45.7845 51.7755L47.8841 51.545C48.8212 51.4464 49.696 51.0291 50.3622 50.3628C51.0285 49.6966 51.4458 48.8218 51.5444 47.8847L51.7749 45.7852C51.8197 45.382 51.961 44.9956 52.1868 44.6586C52.4126 44.3217 52.7162 44.044 53.072 43.8492L54.9194 42.8352C55.7493 42.3856 56.3995 41.6644 56.7608 40.7925C57.1222 39.9205 57.1728 38.9508 56.9042 38.046L56.3137 36.023C56.2005 35.6334 56.1826 35.2222 56.2616 34.8243C56.3405 34.4263 56.5139 34.0532 56.7673 33.7363L58.0906 32.0866ZM55.5094 32.7286C55.0942 33.2478 54.81 33.8592 54.6807 34.5112C54.5513 35.1633 54.5807 35.8368 54.7664 36.4751L55.3573 38.4982C55.5211 39.0503 55.4901 39.6419 55.2696 40.1739C55.049 40.7058 54.6523 41.1458 54.1459 41.4201L52.298 42.4341C51.7147 42.7539 51.217 43.2095 50.8471 43.7624C50.4772 44.3153 50.246 44.9492 50.1731 45.6105L49.9426 47.71C49.8821 48.2817 49.6273 48.8154 49.2208 49.2219C48.8143 49.6284 48.2807 49.8832 47.709 49.9437L45.6089 50.1742C44.9478 50.2474 44.314 50.4787 43.7612 50.8487C43.2084 51.2186 42.7528 51.7163 42.4331 52.2996L41.419 54.147C41.1446 54.6531 40.7046 55.0496 40.1728 55.2701C39.641 55.4906 39.0496 55.5218 38.4976 55.3584L36.4741 54.7679C35.8359 54.5819 35.1623 54.5523 34.5103 54.6816C33.8583 54.8108 33.247 55.0951 32.728 55.5105L31.0779 56.8324C30.631 57.1941 30.0736 57.3914 29.4987 57.3914C28.9238 57.3914 28.3664 57.1941 27.9195 56.8324L26.2694 55.5105C25.7503 55.0952 25.1389 54.811 24.4868 54.6816C23.8348 54.5523 23.1612 54.5817 22.5229 54.7674L20.5003 55.3579C19.9482 55.5212 19.3567 55.49 18.8249 55.2695C18.293 55.049 17.853 54.6526 17.5784 54.1466L16.5643 52.2987C16.2446 51.7153 15.789 51.2176 15.2361 50.8477C14.6832 50.4778 14.0492 50.2466 13.388 50.1737L11.2884 49.9433C10.7167 49.8828 10.1831 49.628 9.77655 49.2215C9.37003 48.8149 9.11525 48.2813 9.05473 47.7096L8.82426 45.6095C8.75111 44.9484 8.51977 44.3146 8.14981 43.7618C7.77985 43.209 7.28217 42.7534 6.69888 42.4337L4.85144 41.4196C4.34913 41.1412 3.95596 40.7008 3.73606 40.1703C3.51616 39.6397 3.4825 39.0503 3.64056 38.4982L4.23102 36.4747C4.41682 35.8365 4.44635 35.163 4.31711 34.511C4.18787 33.859 3.90365 33.2477 3.48845 32.7286L2.16556 31.0785C1.80408 30.6316 1.60688 30.0741 1.60688 29.4993C1.60688 28.9245 1.80408 28.3671 2.16556 27.9201L3.48753 26.27C3.90271 25.7508 4.18694 25.1395 4.31626 24.4874C4.44558 23.8354 4.41618 23.1618 4.23056 22.5235L3.64056 20.5004C3.47676 19.9483 3.50772 19.3567 3.72827 18.8248C3.94881 18.2928 4.34552 17.8528 4.8519 17.5785L6.6998 16.5645C7.28316 16.2448 7.78087 15.7891 8.15077 15.2362C8.52066 14.6833 8.75184 14.0494 8.82472 13.3882L9.05519 11.2886C9.11614 10.7166 9.37152 10.1829 9.77866 9.77662C10.1858 9.37032 10.72 9.11604 11.2921 9.05627L13.3922 8.8258C14.0533 8.75265 14.6871 8.52131 15.2399 8.15135C15.7927 7.7814 16.2483 7.28371 16.568 6.70042L17.5821 4.85298C17.8604 4.35133 18.3002 3.95854 18.83 3.73845C19.3598 3.51837 19.9484 3.48392 20.5003 3.64072L22.5238 4.23118C23.162 4.41706 23.8355 4.44663 24.4875 4.31738C25.1395 4.18814 25.7508 3.90388 26.2698 3.48861L27.92 2.16572C28.3669 1.80416 28.9243 1.6069 29.4992 1.6069C30.074 1.6069 30.6314 1.80416 31.0783 2.16572L32.7285 3.48769C33.2478 3.90263 33.8591 4.18671 34.5111 4.31602C35.1631 4.44533 35.8367 4.41607 36.475 4.23072L38.498 3.64072C39.0501 3.47754 39.6415 3.5088 40.1734 3.72928C40.7052 3.94976 41.1452 4.34611 41.4199 4.85206L42.434 6.69996C42.7537 7.28332 43.2093 7.78103 43.7622 8.15093C44.3151 8.52082 44.9491 8.752 45.6103 8.82488L47.7099 9.05535C48.2816 9.11587 48.8152 9.37066 49.2218 9.77717C49.6283 10.1837 49.8831 10.7173 49.9436 11.2891L50.174 13.3891C50.2472 14.0502 50.4785 14.684 50.8485 15.2368C51.2185 15.7896 51.7161 16.2452 52.2994 16.5649L54.1469 17.579C54.6492 17.8574 55.0424 18.2978 55.2624 18.8283C55.4824 19.3588 55.5161 19.9482 55.3582 20.5004L54.7677 22.5239C54.5819 23.1621 54.5524 23.8356 54.6817 24.4876C54.8109 25.1396 55.0951 25.7509 55.5103 26.27L56.8323 27.9201C57.1938 28.3671 57.391 28.9245 57.391 29.4993C57.391 30.0741 57.1938 30.6316 56.8323 31.0785L55.5094 32.7286Z" fill="#75FF37"/>
</g>
<defs>
<clipPath id="clip0_302_463">
<rect width="59" height="59" fill="white"/>
</clipPath>
</defs>
</svg>
