<svg width="66" height="66" viewBox="0 0 66 66" fill="none" xmlns="http://www.w3.org/2000/svg">
<g clip-path="url(#clip0_302_583)">
<path d="M51.6868 35.1941C55.762 34.935 59.4929 33.1044 62.1938 30.0376C67.7632 23.7119 67.1482 14.0305 60.8234 8.45638C58.0787 6.03797 54.554 4.68316 50.9017 4.64191C50.8424 4.64062 50.7844 4.64063 50.7264 4.64063C47.1734 4.64063 43.7247 5.87555 40.9968 8.12896C40.5856 8.46927 40.5276 9.079 40.8666 9.49021C41.2069 9.90271 41.8168 9.96071 42.228 9.6204C47.3087 5.42425 54.5915 5.54426 59.5459 9.90657C65.0702 14.7756 65.6065 23.2335 60.7423 28.76C58.3831 31.4388 55.1239 33.0387 51.5644 33.2643C49.8022 33.3751 48.0707 33.1444 46.4463 32.5952C45.5361 32.2884 44.6594 31.8811 43.8306 31.3796C43.1498 30.9684 42.5014 30.4928 41.8929 29.9565C40.623 28.8389 39.611 27.5291 38.8683 26.106C38.4172 25.2449 38.0651 24.3424 37.815 23.4156C36.8855 19.9788 37.3419 16.2054 39.3169 12.9762C39.5954 12.5199 39.451 11.9256 38.9959 11.6472C38.5409 11.3688 37.9452 11.5118 37.6668 11.9669C35.635 15.2902 35.0072 19.1151 35.6724 22.7117C34.4618 22.4127 33.2229 22.2631 31.9853 22.2631C27.7437 22.2631 23.5204 24.0138 20.5023 27.4403C17.5177 30.8306 16.3084 35.1828 16.8023 39.3504L10.7666 41.213C10.3593 40.3514 9.48415 39.7525 8.46966 39.7525H2.53842C1.13863 39.7524 0 40.8928 0 42.2945V56.8496C0 58.2494 1.13863 59.3881 2.53842 59.3881H8.46966C9.58057 59.3881 10.5248 58.6717 10.8698 57.6781L18.6431 59.0273C18.6985 59.0364 18.7539 59.0415 18.8094 59.0415C19.2708 59.0415 19.6796 58.7102 19.7608 58.2397C19.8523 57.7138 19.4991 57.2123 18.9731 57.122L11.0114 55.74V43.1619L17.1527 41.2659L18.6545 40.8018C18.7718 40.7657 18.8879 40.7296 19.0026 40.6948C24.1877 39.1169 26.6386 38.8462 30.0781 38.8462H33.2122C33.6002 38.9158 33.9458 39.0331 34.2513 39.1865C35.195 39.6557 35.7442 40.4665 35.9027 41.2994C35.9491 41.5404 35.962 41.7841 35.9427 42.0212C35.8499 43.1659 34.9616 44.3907 32.7493 44.3907H30.3088C28.3711 44.2656 27.1361 45.6346 26.9169 47.0605C26.7055 48.4359 27.4519 50.1453 29.5933 50.6519C29.6139 50.6571 29.6345 50.6609 29.6551 50.6648L30.7652 50.8504L37.1906 51.9255L37.4291 51.9655C37.4575 51.9706 37.4858 51.9745 37.5142 51.9758C37.9731 52.0119 38.4166 52.0647 38.8459 52.1163C40.1725 52.2735 41.4256 52.4231 42.9315 52.0712L56.8123 48.829C56.8162 48.8278 56.8214 48.8265 56.8265 48.8252C58.4483 48.4191 59.2721 49.1681 59.5016 50.0034C59.7452 50.8915 59.3611 52.0415 57.9417 52.4656L36.167 58.9756C33.7458 59.6988 31.7411 59.3791 30.9922 59.2077C30.9754 59.2038 30.9586 59.1999 30.9419 59.1974L23.3729 57.8851C22.847 57.7949 22.3467 58.1468 22.2551 58.6727C22.1636 59.1986 22.5168 59.6988 23.0429 59.7903L30.5874 61.0987C31.0669 61.207 31.9475 61.3591 33.0833 61.3591C34.1198 61.3591 35.369 61.2328 36.7214 60.828L58.4948 54.318C61.0139 53.5652 61.8545 51.2692 61.3672 49.4915C60.898 47.7834 59.133 46.2584 56.3652 46.9468L42.492 50.1876C41.7597 50.359 41.0791 50.3758 40.379 50.3281C41.5032 49.5869 42.5345 48.6896 43.4486 47.6519C46.1482 44.5876 47.4928 40.6546 47.2337 36.577C47.195 35.9686 47.1216 35.3679 47.0133 34.7761C48.2071 35.0726 49.4421 35.2247 50.6978 35.2247C51.0255 35.225 51.3555 35.2147 51.6868 35.1941ZM9.07784 56.8497C9.07784 57.1777 8.7994 57.4547 8.46966 57.4547H2.53842C2.21074 57.4547 1.93385 57.1777 1.93385 56.8497V42.2945C1.93385 41.959 2.20507 41.686 2.53842 41.686H8.46966C8.79927 41.686 9.07784 41.9647 9.07784 42.2945V56.8497ZM41.9971 46.3747C40.6035 47.9578 38.8953 49.1643 36.9951 49.9326L30.0089 48.7634C29.1657 48.5546 28.7248 48.03 28.8279 47.3556C28.9143 46.7962 29.3734 46.2625 30.2048 46.3218C30.2293 46.3231 30.2525 46.3244 30.2757 46.3244H32.7497C36.0539 46.3244 37.7028 44.2411 37.8703 42.1772C38.0044 40.5413 37.2463 38.743 35.5807 37.7065C35.0058 37.0181 34.1433 36.5799 33.1815 36.5799H30.7875C30.1144 36.5799 29.5653 36.0307 29.5653 35.3565C29.5653 34.6824 30.1144 34.1345 30.7875 34.1345H35.3525C35.8862 34.1345 36.3195 33.7014 36.3195 33.1677C36.3195 32.634 35.8863 32.2009 35.3525 32.2009H32.9424V30.5651C32.9424 30.031 32.5095 29.5983 31.9755 29.5983C31.4414 29.5983 31.0085 30.0312 31.0085 30.5651V32.2009H30.7875C29.0471 32.2009 27.6314 33.6163 27.6314 35.3567C27.6314 35.938 27.79 36.4846 28.0659 36.9525C25.3908 37.0698 22.9091 37.4965 18.6843 38.7715C18.3582 35.2394 19.4295 31.5846 21.9538 28.7189H21.9525C25.6125 24.5641 31.3005 23.2298 36.2459 24.8928C37.0852 27.337 38.5548 29.593 40.615 31.4067C41.9003 32.5398 43.3378 33.4333 44.8746 34.0688C45.1015 34.9208 45.2471 35.8001 45.3038 36.6999C45.5308 40.2617 44.3564 43.6972 41.9971 46.3747Z" fill="#75FF37"/>
<path d="M51.9073 23.3477H47.3429C46.8088 23.3477 46.376 23.7806 46.376 24.3145C46.376 24.8484 46.8088 25.2813 47.3429 25.2813H49.7491V26.9134C49.7491 27.4474 50.1819 27.8802 50.716 27.8802C51.25 27.8802 51.6829 27.4473 51.6829 26.9134V25.2813H51.9073C53.6477 25.2813 55.0634 23.8637 55.0634 22.1213C55.0634 20.3808 53.6541 18.965 51.9219 18.965H49.5319C48.8581 18.965 48.3097 18.4165 48.3097 17.7423C48.3097 17.0681 48.8579 16.5198 49.5319 16.5198H54.0964C54.6305 16.5198 55.0634 16.0869 55.0634 15.553C55.0634 15.0191 54.6305 14.5862 54.0964 14.5862H51.6865V12.9541C51.6865 12.42 51.2537 11.9873 50.7196 11.9873C50.1855 11.9873 49.7527 12.4202 49.7527 12.9541V14.5862H49.5319C47.7916 14.5862 46.376 16.0021 46.376 17.7425C46.376 19.4829 47.7918 20.8987 49.5319 20.8987H51.9219C52.5765 20.8987 53.1295 21.4587 53.1295 22.1214C53.1295 22.7975 52.5813 23.3477 51.9073 23.3477Z" fill="#75FF37"/>
</g>
<defs>
<clipPath id="clip0_302_583">
<rect width="66" height="66" fill="white"/>
</clipPath>
</defs>
</svg>
