<svg width="52" height="52" viewBox="0 0 52 52" fill="none" xmlns="http://www.w3.org/2000/svg">
<g clip-path="url(#clip0_302_499)">
<path d="M7.79961 0C4.9327 0 2.59961 2.33218 2.59961 5.2C2.59961 8.06782 4.9327 10.4 7.79961 10.4C10.6665 10.4 12.9996 8.06782 12.9996 5.2C12.9996 2.33218 10.6665 0 7.79961 0ZM7.79961 8.66663C5.8877 8.66663 4.33298 7.11181 4.33298 5.2C4.33298 3.28819 5.8877 1.73337 7.79961 1.73337C9.71152 1.73337 11.2662 3.28819 11.2662 5.2C11.2662 7.11181 9.71152 8.66663 7.79961 8.66663Z" fill="#75FF37"/>
<path d="M11.2684 6.93333H11.2467C10.9755 6.93333 10.7189 7.06069 10.5551 7.27742C9.88863 8.16051 8.88418 8.66659 7.8 8.66659C6.71582 8.66659 5.71137 8.16051 5.04491 7.27732C4.88109 7.06069 4.60291 6.93323 4.33164 6.93323C1.94309 6.93333 0 8.87632 0 11.2649V14.7332C0 15.2116 0.388273 15.5999 0.866633 15.5999H14.7333C15.2116 15.5999 15.5999 15.2116 15.5999 14.7332V11.2649C15.6 8.87632 13.6569 6.93333 11.2684 6.93333ZM13.8666 13.8666H1.73337V11.2649C1.73337 9.9605 2.69882 8.87805 3.96937 8.69432C4.95564 9.78378 6.32755 10.4 7.8 10.4C9.27337 10.4 10.6461 9.78287 11.6324 8.69178C12.8934 8.86941 13.8666 9.95623 13.8666 11.2649V13.8666Z" fill="#75FF37"/>
<path d="M44.2 0C41.3331 0 39 2.33218 39 5.2C39 8.06782 41.3331 10.4 44.2 10.4C47.0669 10.4 49.4 8.06782 49.4 5.2C49.4 2.33218 47.0669 0 44.2 0ZM44.2 8.66663C42.2881 8.66663 40.7334 7.11181 40.7334 5.2C40.7334 3.28819 42.2882 1.73337 44.2 1.73337C46.1119 1.73337 47.6666 3.28819 47.6666 5.2C47.6666 7.11181 46.1119 8.66663 44.2 8.66663Z" fill="#75FF37"/>
<path d="M47.6679 6.93335H47.6462C47.375 6.93335 47.1184 7.06071 46.9546 7.27744C46.2881 8.16053 45.2837 8.66672 44.1994 8.66672C43.1152 8.66672 42.1108 8.16063 41.4443 7.27744C41.2805 7.06081 41.0023 6.93335 40.7311 6.93335C38.3425 6.93335 36.3994 8.87644 36.3994 11.265V14.7333C36.3994 15.2117 36.7877 15.6 37.266 15.6H51.1327C51.611 15.6 51.9993 15.2117 51.9993 14.7333V11.265C51.9995 8.87634 50.0564 6.93335 47.6679 6.93335ZM50.2662 13.8666H38.1329V11.2649C38.1329 9.96052 39.0983 8.87807 40.3689 8.69434C41.3552 9.7837 42.7271 10.4 44.1995 10.4C45.6729 10.4 47.0456 9.78289 48.0319 8.6918C49.2929 8.86944 50.2662 9.95626 50.2662 11.2649V13.8666Z" fill="#75FF37"/>
<path d="M7.79961 36.4C4.9327 36.4 2.59961 38.7322 2.59961 41.6C2.59961 44.4678 4.9327 46.8 7.79961 46.8C10.6665 46.8 12.9996 44.4678 12.9996 41.6C12.9996 38.7322 10.6665 36.4 7.79961 36.4ZM7.79961 45.0667C5.8877 45.0667 4.33298 43.5118 4.33298 41.6C4.33298 39.6881 5.8878 38.1334 7.79961 38.1334C9.71142 38.1334 11.2662 39.6882 11.2662 41.6C11.2662 43.5119 9.71152 45.0667 7.79961 45.0667Z" fill="#75FF37"/>
<path d="M11.2685 43.3334H11.2468C10.9756 43.3334 10.719 43.4607 10.5552 43.6775C9.88873 44.5606 8.88428 45.0667 7.8 45.0667C6.71582 45.0667 5.71137 44.5607 5.04491 43.6775C4.88109 43.4608 4.60291 43.3334 4.33164 43.3334C1.94309 43.3334 0 45.2765 0 47.665V51.1334C0.000101563 51.6117 0.388375 52 0.866734 52H14.7334C15.2117 52 15.6 51.6117 15.6 51.1334V47.665C15.6001 45.2764 13.657 43.3334 11.2685 43.3334ZM13.8667 50.2666H1.73347V47.6649C1.73347 46.3605 2.69892 45.2781 3.96947 45.0944C4.95574 46.1838 6.32765 46.8 7.8001 46.8C9.27347 46.8 10.6462 46.1829 11.6325 45.0918C12.8935 45.2695 13.8667 46.3563 13.8667 47.6649V50.2666Z" fill="#75FF37"/>
<path d="M44.2 36.4C41.3331 36.4 39 38.7322 39 41.6C39 44.4678 41.3331 46.8 44.2 46.8C47.0669 46.8 49.4 44.4678 49.4 41.6C49.4 38.7322 47.0669 36.4 44.2 36.4ZM44.2 45.0667C42.2881 45.0667 40.7334 43.5118 40.7334 41.6C40.7334 39.6881 42.2882 38.1334 44.2 38.1334C46.1119 38.1334 47.6666 39.6882 47.6666 41.6C47.6666 43.5119 46.1119 45.0667 44.2 45.0667Z" fill="#75FF37"/>
<path d="M47.6679 43.3334H47.6462C47.375 43.3334 47.1184 43.4607 46.9546 43.6775C46.2881 44.5606 45.2837 45.0667 44.1994 45.0667C43.1152 45.0667 42.1108 44.5607 41.4443 43.6775C41.2805 43.4608 41.0023 43.3334 40.7311 43.3334C38.3425 43.3334 36.3994 45.2765 36.3994 47.665V51.1334C36.3994 51.6117 36.7877 52 37.266 52H51.1327C51.611 52 51.9993 51.6117 51.9993 51.1334V47.665C51.9995 45.2764 50.0564 43.3334 47.6679 43.3334ZM50.2662 50.2666H38.1329V47.6649C38.1329 46.3605 39.0983 45.2781 40.3689 45.0944C41.3552 46.1837 42.7271 46.8 44.1995 46.8C45.6729 46.8 47.0456 46.1829 48.0319 45.0918C49.2929 45.2695 50.2662 46.3563 50.2662 47.6649V50.2666Z" fill="#75FF37"/>
<path d="M40.3614 4.32814C39.6152 3.83323 38.8369 3.37223 38.0483 2.95877C37.6245 2.73686 37.101 2.89987 36.8783 3.32369C36.6564 3.74751 36.8202 4.27177 37.244 4.49369C37.9806 4.88023 38.7069 5.31005 39.4029 5.77205C39.5503 5.86996 39.7166 5.91678 39.8813 5.91678C40.1612 5.91678 40.4368 5.78069 40.6041 5.52942C40.8684 5.13069 40.76 4.59251 40.3614 4.32814Z" fill="#75FF37"/>
<path d="M33.4159 1.07458C31.8203 0.600484 30.1685 0.278937 28.5062 0.119484C28.0313 0.0770311 27.6058 0.423664 27.5607 0.899484C27.5148 1.3753 27.8641 1.79912 28.3407 1.84503C29.8921 1.99412 31.4338 2.29394 32.9219 2.73594C33.0042 2.76021 33.0874 2.7723 33.1689 2.7723C33.5415 2.7723 33.8865 2.52794 34 2.15266C34.1361 1.6934 33.8743 1.21067 33.4159 1.07458Z" fill="#75FF37"/>
<path d="M23.5052 0.118766C21.843 0.277407 20.1912 0.598039 18.5947 1.07213C18.1362 1.20823 17.8745 1.69095 18.0106 2.14941C18.1224 2.52641 18.4673 2.76995 18.8409 2.76995C18.9223 2.76995 19.0055 2.75787 19.0888 2.73359C20.5777 2.29159 22.1187 1.99168 23.67 1.84441C24.1458 1.79932 24.4951 1.37641 24.45 0.899782C24.4049 0.423149 23.9819 0.0745864 23.5052 0.118766Z" fill="#75FF37"/>
<path d="M15.1217 3.32364C14.8998 2.89982 14.3755 2.73692 13.9517 2.95873C13.1631 3.37209 12.3848 3.83318 11.6385 4.3281C11.2399 4.59246 11.1307 5.13064 11.3959 5.52928C11.5622 5.78064 11.8379 5.91664 12.1187 5.91664C12.2833 5.91664 12.4498 5.86981 12.5971 5.77191C13.293 5.30909 14.0202 4.87928 14.756 4.49354C15.1806 4.27183 15.3435 3.74746 15.1217 3.32364Z" fill="#75FF37"/>
<path d="M49.1529 35.8246C48.7196 35.6209 48.2039 35.8098 48.0011 36.2432C47.6492 36.9972 47.2532 37.7426 46.8242 38.4584C46.5789 38.8692 46.7116 39.4013 47.1223 39.6475C47.2618 39.7316 47.4152 39.7714 47.5669 39.7714C47.8616 39.7714 48.1493 39.6206 48.3097 39.3502C48.7698 38.5832 49.1946 37.785 49.5716 36.9764C49.7743 36.543 49.5863 36.0274 49.1529 35.8246Z" fill="#75FF37"/>
<path d="M51.8826 23.5205C51.8375 23.0439 51.4163 22.6989 50.9379 22.7396C50.4613 22.7847 50.112 23.2076 50.157 23.6842C50.2306 24.4495 50.2671 25.2286 50.2671 25.9999C50.2671 27.3779 50.1501 28.7603 49.9205 30.1089C49.8407 30.5803 50.1579 31.0284 50.6294 31.109C50.6779 31.1176 50.7273 31.121 50.7758 31.121C51.1901 31.121 51.5567 30.823 51.6287 30.4009C51.8756 28.9562 52.0004 27.476 52.0004 26.0001C52.0004 25.1741 51.9605 24.3395 51.8826 23.5205Z" fill="#75FF37"/>
<path d="M50.3223 16.8055C50.0069 15.9726 49.6429 15.1442 49.2407 14.3442C49.0249 13.9169 48.504 13.7435 48.0768 13.9593C47.6487 14.1742 47.4761 14.6952 47.6911 15.1232C48.0664 15.8694 48.4061 16.6425 48.7008 17.4199C48.8317 17.7657 49.1609 17.9798 49.5111 17.9798C49.6134 17.9798 49.7165 17.9616 49.8188 17.9234C50.2669 17.7536 50.4922 17.2536 50.3223 16.8055Z" fill="#75FF37"/>
<path d="M3.92424 13.9593C3.49616 13.7435 2.97524 13.9169 2.76034 14.3442C2.35825 15.1441 1.99425 15.9726 1.6787 16.8055C1.50878 17.2536 1.73415 17.7537 2.18224 17.9235C2.2836 17.9616 2.38679 17.9799 2.48906 17.9799C2.83915 17.9799 3.16852 17.7658 3.30024 17.42C3.59488 16.6426 3.9346 15.8695 4.30988 15.1233C4.52488 14.6952 4.35152 14.1743 3.92424 13.9593Z" fill="#75FF37"/>
<path d="M2.07909 30.1028C1.84945 28.7569 1.73327 27.3763 1.73327 26C1.73327 25.2252 1.77054 24.4444 1.84245 23.6799C1.88835 23.2033 1.53908 22.7803 1.06245 22.7344C0.590078 22.6936 0.162805 23.0377 0.117812 23.5144C0.0399141 24.3343 0 25.1697 0 26C0 27.4742 0.12482 28.9519 0.370094 30.394C0.442914 30.8169 0.808641 31.1151 1.22373 31.1151C1.27227 31.1151 1.32163 31.1116 1.37018 31.1029C1.84255 31.0224 2.15973 30.5743 2.07909 30.1028Z" fill="#75FF37"/>
<path d="M5.17337 38.4584C4.74437 37.7425 4.34827 36.9972 3.99646 36.2432C3.79364 35.8098 3.27801 35.6209 2.84464 35.8246C2.41127 36.0274 2.22409 36.543 2.426 36.9764C2.80391 37.785 3.22763 38.5832 3.68792 39.3502C3.85082 39.6215 4.13774 39.7714 4.43237 39.7714C4.584 39.7714 4.73746 39.7315 4.87528 39.6475C5.286 39.4013 5.41945 38.8691 5.17337 38.4584Z" fill="#75FF37"/>
<path d="M38.1305 22.5334H22.5349C21.5781 22.5334 20.7998 23.3117 20.7998 24.2685V34.6651C20.7998 35.6219 21.5781 36.4002 22.5357 36.4002H30.841L35.7871 41.3463C35.9526 41.5118 36.1744 41.6002 36.3998 41.6002C36.5116 41.6002 36.6243 41.5785 36.7317 41.5343C37.055 41.3999 37.2664 41.0836 37.2664 40.7334V36.4001H38.1313C39.0882 36.4001 39.8664 35.6218 39.8664 34.6642V24.2684C39.8664 23.3117 39.0882 22.5334 38.1305 22.5334ZM38.1315 34.6667H36.3998C35.9214 34.6667 35.5332 35.055 35.5332 35.5333V38.6413L31.8125 34.9206C31.6504 34.7577 31.4294 34.6667 31.1998 34.6667L22.5332 34.6641V24.2684L22.5349 24.2667L38.1332 24.2684L38.1315 34.6667Z" fill="#75FF37"/>
<path d="M28.5973 17.3334H13.0017C12.0449 17.3334 11.2666 18.1116 11.2666 19.0685V29.465C11.2666 30.4218 12.0449 31.2001 13.0017 31.2001H13.8666V35.5335C13.8666 35.8836 14.0781 36.1999 14.4022 36.3343C14.5089 36.3785 14.6215 36.4002 14.7333 36.4002C14.9587 36.4002 15.1805 36.3119 15.3461 36.1463L20.2922 31.2002H21.6667C22.1451 31.2002 22.5333 30.8119 22.5333 30.3336V24.2684L29.4667 24.2666C29.9451 24.2666 30.3333 23.8784 30.3333 23.4V19.0684C30.3333 18.1116 29.5551 17.3334 28.5973 17.3334ZM28.6 22.5334H22.5351C21.5782 22.5334 20.8 23.3116 20.8 24.2685V29.4667H19.9333C19.7037 29.4667 19.4827 29.5577 19.3206 29.7207L15.6 33.4412V30.3333C15.6 29.8549 15.2117 29.4666 14.7333 29.4666L13 29.4649L13.0017 19.0666L28.6 19.0684V22.5334Z" fill="#75FF37"/>
<path d="M30.3342 26.8666H25.1342C24.6559 26.8666 24.2676 27.2549 24.2676 27.7332C24.2676 28.2116 24.6559 28.5998 25.1342 28.5998H30.3342C30.8126 28.5998 31.2008 28.2116 31.2008 27.7332C31.2008 27.2549 30.8126 26.8666 30.3342 26.8666Z" fill="#75FF37"/>
<path d="M35.5336 26.8666H33.8002C33.3219 26.8666 32.9336 27.2549 32.9336 27.7332C32.9336 28.2116 33.3219 28.5998 33.8002 28.5998H35.5336C36.012 28.5998 36.4002 28.2116 36.4002 27.7332C36.4002 27.2549 36.012 26.8666 35.5336 26.8666Z" fill="#75FF37"/>
<path d="M35.5334 30.3334H30.3334C29.8551 30.3334 29.4668 30.7216 29.4668 31.2C29.4668 31.6784 29.8551 32.0666 30.3334 32.0666H35.5334C36.0118 32.0666 36.4001 31.6784 36.4001 31.2C36.4001 30.7216 36.0118 30.3334 35.5334 30.3334Z" fill="#75FF37"/>
<path d="M26.8666 30.3334H25.1332C24.6549 30.3334 24.2666 30.7216 24.2666 31.2C24.2666 31.6784 24.6549 32.0666 25.1332 32.0666H26.8666C27.345 32.0666 27.7332 31.6784 27.7332 31.2C27.7332 30.7216 27.3451 30.3334 26.8666 30.3334Z" fill="#75FF37"/>
<path d="M17.4192 48.7006C16.6427 48.406 15.8705 48.0671 15.1226 47.691C14.6953 47.4769 14.1736 47.6485 13.9587 48.0758C13.7438 48.5039 13.9162 49.0248 14.3443 49.2397C15.1451 49.6427 15.9737 50.0067 16.8057 50.3214C16.907 50.3594 17.0102 50.3777 17.1125 50.3777C17.4627 50.3777 17.7919 50.1636 17.9229 49.8178C18.0927 49.3696 17.8673 48.8696 17.4192 48.7006Z" fill="#75FF37"/>
<path d="M29.8719 50.8517C29.8147 50.3767 29.3857 50.037 28.9082 50.0942C26.9894 50.3238 25.0038 50.3238 23.0773 50.0925C22.6006 50.0353 22.1707 50.3741 22.1135 50.8491C22.0572 51.324 22.3961 51.7557 22.871 51.8128C23.904 51.9367 24.9562 52 25.9996 52C27.0405 52 28.0892 51.9377 29.1145 51.8154C29.5903 51.7582 29.9291 51.3267 29.8719 50.8517Z" fill="#75FF37"/>
<path d="M38.0401 48.0757C37.8243 47.6484 37.3035 47.4751 36.8762 47.6909C36.1291 48.067 35.3561 48.4068 34.5796 48.7005C34.1324 48.8695 33.9062 49.3696 34.076 49.8176C34.2077 50.1634 34.5371 50.3775 34.8872 50.3775C34.9895 50.3775 35.0925 50.3594 35.1931 50.3212C36.0251 50.0057 36.8536 49.6417 37.6545 49.2395C38.0825 49.0247 38.255 48.5039 38.0401 48.0757Z" fill="#75FF37"/>
</g>
<defs>
<clipPath id="clip0_302_499">
<rect width="52" height="52" fill="white"/>
</clipPath>
</defs>
</svg>
