<svg width="103" height="124" viewBox="0 0 103 124" fill="none" xmlns="http://www.w3.org/2000/svg">
<path d="M20.5613 57.5382V7C20.5613 4.23857 22.7999 2 25.5613 2H96C98.7614 2 101 4.23858 101 7V110.165C101 112.927 98.7614 115.165 96 115.165H54.9128M37.3092 34.5692L36.4496 34.5496C33.7333 34.4877 31.5636 32.2679 31.5636 29.5509V16.3383C31.5636 13.5769 33.8022 11.3383 36.5636 11.3383H49.7784M37.3092 34.5692L49.7784 11.3383M37.3092 34.5692L50.7564 34.8757M49.7784 11.3383H63.2256M50.7564 34.8757L85.7395 35.6732C88.5448 35.7372 90.8535 33.4806 90.8535 30.6745V16.3383C90.8535 13.5769 88.6149 11.3383 85.8535 11.3383H63.2256M50.7564 34.8757L63.2256 11.3383M31.5636 57.5382V51.1111C31.5636 48.3496 33.8022 46.1111 36.5636 46.1111H62.382C65.1435 46.1111 67.382 48.3496 67.382 51.1111V52.5382C67.382 55.2996 65.1435 57.5382 62.382 57.5382H44.3995M63.1033 92.1881H64.2157C66.9772 92.1881 69.2157 94.4266 69.2157 97.1881V100.704C69.2157 103.465 66.9772 105.704 64.2157 105.704H61.1474M54.3015 70.9312L54.7915 70.4387C55.7299 69.4955 57.0055 68.9653 58.336 68.9653H64.5825C67.3439 68.9653 69.5825 71.2038 69.5825 73.9653V77.1126C69.5825 79.874 67.3439 82.1126 64.5825 82.1126H62.6143M39.2651 61.2243C34.6412 63.9893 31.8979 66.7446 30.4398 70.8083M29.1186 78.5122C-7.59171 54.4905 -6.4838 131.25 29.1207 121.063M29.1186 78.5122V84.2014C28.9118 78.3673 29.2422 74.1464 30.4398 70.8083M29.1186 78.5122C69.4725 54.5354 61.7609 130.156 28.8762 121.063M30.4398 70.8083C23.23 73.3757 18.4657 73.5609 12.6645 69.7521C9.57613 67.7244 10.5467 63.1287 14.1637 62.3757C23.5111 60.4296 26.6325 63.9651 30.4398 70.8083ZM86.7092 92.1881H82.2841C79.5226 92.1881 77.2841 94.4266 77.2841 97.1881V100.704C77.2841 103.465 79.5226 105.704 82.2841 105.704H86.7092C89.4706 105.704 91.7092 103.465 91.7092 100.704V97.1881C91.7092 94.4266 89.4706 92.1881 86.7092 92.1881ZM86.7092 68.9653H82.2841C79.5226 68.9653 77.2841 71.2038 77.2841 73.9653V77.1126C77.2841 79.874 79.5226 82.1126 82.2841 82.1126H86.7092C89.4706 82.1126 91.7092 79.874 91.7092 77.1126V73.9653C91.7092 71.2038 89.4706 68.9653 86.7092 68.9653ZM82.2841 59.3812H86.7092C89.4706 59.3812 91.7092 57.1427 91.7092 54.3812V51.1111C91.7092 48.3496 89.4706 46.1111 86.7092 46.1111H82.2841C79.5226 46.1111 77.2841 48.3496 77.2841 51.1111V54.3812C77.2841 57.1427 79.5226 59.3812 82.2841 59.3812Z" stroke="#25691E" stroke-width="3" stroke-linecap="round"/>
</svg>
