<svg width="64" height="64" fill="none" xmlns="http://www.w3.org/2000/svg"><path d="M15.04 32.16l.048-.048c.352-.4.72-.768 1.12-1.12 2.032-1.792 4.688-2.896 7.616-2.896 2.128 0 4.112.576 5.808 1.584h.016l-.048-.096a11.455 11.455 0 01-1.104-4.912c0-.416.016-.816.064-1.216a9.24 9.24 0 01.272-1.504c.016-.08.048-.16.064-.24.112-.416.24-.832.4-1.232.032-.08.064-.16.096-.256.176-.416.368-.816.592-1.2.032-.048.048-.096.08-.144.256-.432.544-.864.848-1.264.32-.4.64-.8 1.008-1.152-.016-.016-.032-.016-.032-.032a11.542 11.542 0 00-8.08-3.28c-6.352 0-11.52 5.152-11.536 11.504v.032c0 2.832 1.024 5.44 2.72 7.456.032-.016.048 0 .048.016zM40.064 51.2c6.384 0 11.552-5.168 11.552-11.552 0-.384-.016-.752-.064-1.12a8.927 8.927 0 00-.128-.912c0-.032 0-.048-.016-.08a11.576 11.576 0 00-2.56-5.392c-.336.4-.704.752-1.088 1.104-2.048 1.824-4.736 2.96-7.712 2.96-2.112 0-4.064-.576-5.76-1.552-.016-.016-.032-.016-.048-.032a11.454 11.454 0 011.152 5.008c0 .304-.016.608-.048.896 0 .064 0 .128-.016.192a11.48 11.48 0 01-2.288 5.872c-.32.416-.656.832-1.04 1.2-.016.016-.032.048-.064.064 2.112 2.08 4.96 3.344 8.128 3.344z" fill="#72BF00"/><path d="M40.064 13.04c-3.168 0-6.016 1.28-8.112 3.328a11.466 11.466 0 00-8.112-3.328c-6.384 0-11.552 5.168-11.552 11.552v.032c.016-6.352 5.184-11.504 11.536-11.504 3.152 0 5.984 1.248 8.08 3.28.016.016.032.016.032.032a12.66 12.66 0 011.504 1.824 11.561 11.561 0 011.936 6.4c0 .432-.032.848-.08 1.264a11.506 11.506 0 00-1.824-7.696c1.664-1.728 4-2.8 6.576-2.8 5.056 0 9.152 4.112 9.152 9.152 0 2.224-.8 4.256-2.112 5.84C45.136 28.912 42.704 28 40.048 28c-2.112 0-4.096.576-5.792 1.568-.016.032-.016.064-.032.08a11.424 11.424 0 015.824-1.584c2.656 0 5.088.896 7.024 2.384.64.48 1.216 1.04 1.728 1.648l.048.048a11.503 11.503 0 012.56 5.392 11.652 11.652 0 00-2.576-5.472 11.45 11.45 0 002.768-7.488c0-6.368-5.168-11.536-11.536-11.536zm-10.416 21.6c-.016 0-.016.016-.032.016a11.825 11.825 0 00-.816 2.368c.208-.832.48-1.632.848-2.384zm3.376 11.984c-.32.416-.656.832-1.04 1.2a9.164 9.164 0 001.04-1.2c.016 0 .016 0 0 0zm-18-14.496a11.515 11.515 0 00-2.72 7.44c0 6.384 5.168 11.552 11.552 11.552 3.136 0 5.968-1.248 8.048-3.28-.56-.56-1.072-1.2-1.504-1.872a9.148 9.148 0 01-6.544 2.752c-5.056 0-9.152-4.112-9.152-9.152 0-2.192.768-4.208 2.064-5.776-.624-.48-1.2-1.024-1.712-1.632l-.032-.032zm14.624-2.448zm5.68 11.072c0-.064 0-.128.016-.192.032-.304.048-.608.048-.912 0-1.792-.416-3.488-1.152-5.008h-.016a11.454 11.454 0 011.152 5.008c0 .4-.016.784-.064 1.168.016-.016.016-.048.016-.064z" fill="#BDCCD4"/><path d="M47.072 30.464a11.483 11.483 0 00-7.024-2.384c-2.128 0-4.112.576-5.824 1.584.016-.032.016-.064.032-.08.064-.128.096-.256.16-.368.048-.096.08-.192.128-.288.096-.24.192-.48.272-.72.048-.176.112-.336.144-.512.048-.192.112-.384.144-.592.064-.272.112-.56.144-.848l.048-.32c.048-.416.08-.832.08-1.264 0-2.368-.72-4.56-1.936-6.4a10.99 10.99 0 00-1.504-1.824c-.368.352-.688.752-1.008 1.152a11.549 11.549 0 00-2.368 5.84 11.508 11.508 0 001.04 6.128l.048.096h-.016a11.424 11.424 0 00-5.824-1.584c-2.928 0-5.584 1.104-7.616 2.896-.4.352-.784.72-1.12 1.12l-.048.048a12.733 12.733 0 001.712 1.632 11.497 11.497 0 0012.864.864c.016 0 .016-.016.032-.016a11.296 11.296 0 00-.848 2.368c0 .016 0 .032-.016.032-.064.288-.112.592-.16.88-.08.56-.144 1.12-.144 1.712 0 2.336.688 4.496 1.888 6.32a12.05 12.05 0 001.504 1.872l.048.048c.016-.016.032-.048.064-.064.368-.368.72-.784 1.04-1.2a11.547 11.547 0 002.288-5.792c.032-.384.064-.784.064-1.168 0-1.792-.416-3.488-1.152-5.008h.016c.016.016.032.016.048.032a11.367 11.367 0 005.76 1.552c2.976 0 5.664-1.136 7.712-2.96a11.81 11.81 0 001.088-1.104l-.048-.048a11.074 11.074 0 00-1.712-1.632z" fill="#03755F"/></svg>