<?xml version="1.0" encoding="UTF-8"?> <svg xmlns="http://www.w3.org/2000/svg" width="40" height="40" viewBox="0 0 40 40" fill="none"> <g clip-path="url(#clip0)"> <path d="M24.0015 17.6908L27.1721 5.85803C27.5224 4.55063 26.7466 3.20685 25.4399 2.85783L23.8625 2.43515C22.5547 2.08473 21.2109 2.86056 20.862 4.16747L17.6916 15.9998L5.85809 12.8279C4.5507 12.4776 3.20692 13.2534 2.8579 14.5601L2.43367 16.1384C2.0835 17.4461 2.85933 18.7899 4.16598 19.1389L16.0008 22.31L12.8303 34.1423C12.4799 35.4501 13.2557 36.7939 14.5626 37.1428L16.1401 37.5655C17.4475 37.9158 18.7912 37.14 19.1403 35.8333L22.3108 24.0006L34.1433 27.1713C35.451 27.5215 36.7947 26.7456 37.1438 25.439L37.5664 23.8615C37.9166 22.5539 37.1408 21.2101 35.8341 20.8611L24.0015 17.6908Z" fill="#47B749"></path> </g> <defs> <clipPath id="clip0"> <rect width="28" height="28" fill="white" transform="translate(0.875732 14.8756) rotate(-30)"></rect> </clipPath> </defs> </svg> 