<?xml version="1.0" encoding="UTF-8"?> <svg xmlns="http://www.w3.org/2000/svg" width="39" height="39" viewBox="0 0 39 39" fill="none"> <g clip-path="url(#clip0)"> <path d="M23.1258 16.8151L26.2964 4.98239C26.6467 3.67499 25.8709 2.33121 24.5642 1.98219L22.9868 1.55951C21.679 1.20909 20.3352 1.98492 19.9863 3.29183L16.8158 15.1242L4.98236 11.9523C3.67497 11.602 2.33119 12.3778 1.98217 13.6845L1.55793 15.2628C1.20777 16.5705 1.9836 17.9142 3.29025 18.2633L15.125 21.4344L11.9546 33.2667C11.6041 34.5745 12.38 35.9183 13.6869 36.2672L15.2643 36.6898C16.5717 37.0402 17.9155 36.2643 18.2645 34.9577L21.4351 23.1249L33.2676 26.2957C34.5752 26.6458 35.919 25.87 36.268 24.5633L36.6907 22.9859C37.0409 21.6782 36.265 20.3345 34.9584 19.9854L23.1258 16.8151Z" fill="#47B749"></path> </g> <defs> <clipPath id="clip0"> <rect width="28" height="28" fill="white" transform="translate(0 14) rotate(-30)"></rect> </clipPath> </defs> </svg> 