<?xml version="1.0" encoding="UTF-8"?> <svg xmlns="http://www.w3.org/2000/svg" width="90" height="59" viewBox="0 0 90 59" fill="none"> <g clip-path="url(#clip0)"> <path d="M24.0015 36.6908L27.1721 24.858C27.5224 23.5506 26.7466 22.2069 25.4399 21.8578L23.8625 21.4352C22.5547 21.0847 21.2109 21.8606 20.862 23.1675L17.6916 34.9998L5.85809 31.8279C4.5507 31.4776 3.20692 32.2534 2.8579 33.5601L2.43367 35.1384C2.0835 36.4461 2.85933 37.7899 4.16598 38.1389L16.0008 41.31L12.8303 53.1423C12.4799 54.4501 13.2557 55.7939 14.5626 56.1428L16.1401 56.5655C17.4475 56.9158 18.7912 56.14 19.1403 54.8333L22.3108 43.0006L34.1433 46.1713C35.451 46.5215 36.7947 45.7456 37.1438 44.439L37.5664 42.8615C37.9166 41.5539 37.1408 40.2101 35.8341 39.8611L24.0015 36.6908Z" fill="#FFBB3C"></path> </g> <g clip-path="url(#clip1)"> <path d="M62.2509 17.505L64.1925 10.2588C64.407 9.4582 63.9319 8.63529 63.1318 8.42156L62.1658 8.16272C61.3649 7.94813 60.542 8.42323 60.3283 9.22355L58.3868 16.4694L51.1402 14.5271C50.3396 14.3125 49.5167 14.7876 49.303 15.5878L49.0432 16.5544C48.8287 17.3551 49.3038 18.178 50.104 18.3918L57.3514 20.3337L55.4099 27.5796C55.1953 28.3805 55.6704 29.2034 56.4707 29.417L57.4367 29.6759C58.2373 29.8904 59.0602 29.4153 59.274 28.6151L61.2156 21.369L68.4615 23.3107C69.2623 23.5251 70.0852 23.05 70.299 22.2498L70.5578 21.2838C70.7722 20.483 70.2971 19.6601 69.497 19.4464L62.2509 17.505Z" fill="#FFBB3C"></path> </g> <g clip-path="url(#clip2)"> <path d="M84.5032 5.56298L85.4904 1.87861C85.5995 1.47152 85.3579 1.05311 84.9511 0.944434L84.4599 0.812824C84.0527 0.703712 83.6343 0.945284 83.5256 1.35222L82.5385 5.03646L78.8539 4.04883C78.4468 3.93976 78.0284 4.18133 77.9197 4.58818L77.7876 5.07963C77.6786 5.4868 77.9201 5.90521 78.327 6.01389L82.012 7.00128L81.0248 10.6855C80.9157 11.0927 81.1573 11.5112 81.5642 11.6198L82.0554 11.7514C82.4624 11.8605 82.8809 11.6189 82.9895 11.212L83.9768 7.52767L87.6611 8.51494C88.0682 8.62398 88.4866 8.3824 88.5953 7.97555L88.7269 7.48438C88.8359 7.07721 88.5944 6.6588 88.1875 6.55012L84.5032 5.56298Z" fill="#47B749"></path> </g> <defs> <clipPath id="clip0"> <rect width="28" height="28" fill="white" transform="translate(0.875732 33.8756) rotate(-30)"></rect> </clipPath> <clipPath id="clip1"> <rect width="17.1467" height="17.1467" fill="white" transform="translate(48.0891 15.781) rotate(-30)"></rect> </clipPath> <clipPath id="clip2"> <rect width="8.71839" height="8.71839" fill="white" transform="translate(77.3025 4.68643) rotate(-30)"></rect> </clipPath> </defs> </svg> 