<?xml version="1.0" encoding="UTF-8"?> <svg xmlns="http://www.w3.org/2000/svg" width="34" height="34" viewBox="0 0 34 34" fill="none"> <g clip-path="url(#clip0)"> <path d="M3.09442 26.6871C3.52915 27.3054 4.00504 27.8937 4.51869 28.4481L6.07679 27.0058C5.62759 26.5212 5.21131 26.0071 4.83095 25.4668L3.09442 26.6871Z" fill="#FF5F5F"></path> <path d="M2.12465 16.9159C2.13647 9.47655 7.63739 3.18755 15.0089 2.18566L14.7307 0.0795288C5.4291 1.33035 -1.09728 9.88479 0.153601 19.1863C0.415274 21.1319 1.01204 23.0175 1.91754 24.7594L3.80064 23.7781C2.69261 21.6608 2.11735 19.3055 2.12465 16.9159Z" fill="#FF5F5F"></path> <path d="M6.16058 30.0062C6.74241 30.4876 7.35511 30.9304 7.99482 31.3317L9.1217 29.5261C8.56092 29.1748 8.02409 28.7867 7.51475 28.3642L6.16058 30.0062Z" fill="#FF5F5F"></path> <path d="M24.014 1.44326C22.5035 0.759004 20.9009 0.299582 19.2573 0.0795288L18.9791 2.18566C27.1144 3.30617 32.801 10.8095 31.6805 18.9448C30.6691 26.2869 24.4054 31.7634 16.994 31.7852C14.881 31.7904 12.7917 31.3409 10.8678 30.4671L9.99054 32.4023C18.5396 36.2747 28.6093 32.4836 32.4818 23.9345C36.3543 15.3855 32.5631 5.31573 24.014 1.44326Z" fill="#FF5F5F"></path> </g> <defs> <clipPath id="clip0"> <rect width="34" height="34" fill="white"></rect> </clipPath> </defs> </svg> 