<?xml version="1.0" encoding="UTF-8"?> <svg xmlns="http://www.w3.org/2000/svg" xmlns:xlink="http://www.w3.org/1999/xlink" width="200px" height="157px" viewBox="0 0 200 157"> <!-- Generator: Sketch 50.2 (55047) - http://www.bohemiancoding.com/sketch --> <title>novaposhta</title> <desc>Created with Sketch.</desc> <defs></defs> <g id="novaposhta" stroke="none" stroke-width="1" fill="none" fill-rule="evenodd"> <g id="shipped-2" transform="translate(6.000000, 22.000000)" fill-rule="nonzero"> <path d="M126.075234,2.84261111 L17.8495312,2.84261111 C16.1894531,2.84261111 14.8433203,4.18985185 14.8433203,5.8512963 L14.8433203,69.0347407 L23.8619531,69.0347407 C27.1824609,69.0347407 29.874375,71.7285185 29.874375,75.0521111 C29.874375,78.3753519 27.1821094,81.0694815 23.8619531,81.0694815 L14.8433203,81.0694815 L14.8433203,90.095537 C14.8433203,91.7569815 16.1894531,93.1042222 17.8495312,93.1042222 L129.081445,93.1042222 L129.081445,5.8512963 C129.081445,4.18985185 127.735313,2.84261111 126.075234,2.84261111 Z" id="Shape" fill="#ED1C24"></path> <path d="M165.15668,50.9826296 L129.081445,50.9826296 L129.081445,93.1049259 L177.181523,93.1049259 L177.181523,63.0173704 C177.181523,56.3708889 171.797695,50.9826296 165.15668,50.9826296 Z" id="Shape" fill="#ED1C24"></path> <path d="M129.081445,60.0086852 L161.649492,60.0086852 C164.970352,60.0086852 167.661914,62.702463 167.661914,66.0260556 L167.661914,93.1045741 L129.081445,93.1045741 L129.081445,60.0086852 Z" id="Shape" fill="#ED1C24"></path> <path d="M153.131484,14.8777037 L129.081445,14.8777037 L129.081445,26.9127963 L162.150469,26.9127963 L162.150469,23.9041111 C162.150469,18.9187222 158.112422,14.8777037 153.131484,14.8777037 Z" id="Shape" fill="#ED1C24"></path> <polygon id="Shape" fill="#B4E6FF" points="165.15668 50.9826296 159.143906 26.9127963 129.081445 26.9127963 129.081445 50.9826296"></polygon> <path d="M165.15668,63.0173704 L177.181875,63.0173704 L177.181875,75.052463 L171.169453,75.052463 C167.848594,75.052463 165.157031,72.3586852 165.157031,69.0350926 L165.157031,63.0173704 L165.15668,63.0173704 Z" id="Shape" fill="#F1F4FB"></path> <path d="M150.125273,72.0437778 C141.064805,72.0437778 133.18207,77.0629444 129.081445,84.4701296 L129.081445,93.1049259 L173.967539,93.1049259 C172.485,81.2345 162.387422,72.0437778 150.125273,72.0437778 Z" id="Shape" fill="#C4151B"></path> <path d="M167.661562,79.6634815 L167.661562,93.1049259 L173.967539,93.1049259 C173.32207,87.9365741 171.041484,83.2784074 167.661562,79.6634815 Z" id="Shape" fill="#C4151B"></path> <ellipse id="Oval" fill="#885951" cx="150.125273" cy="96.1136111" rx="15.0314062" ry="15.0437778"></ellipse> <path d="M141.106641,35.9388519 L161.398828,35.9388519 L159.144258,26.9127963 L129.081797,26.9127963 L129.081797,50.9826296 L138.10043,50.9826296 L138.10043,38.947537 C138.100078,37.2860926 139.446211,35.9388519 141.106641,35.9388519 Z" id="Shape" fill="#9BD6FF"></path> <path d="M50.9185547,72.0437778 C43.3272656,72.0437778 36.568125,75.5721481 32.1609375,81.0698333 L23.8623047,81.0698333 L14.8433203,81.0698333 L14.8433203,90.0958889 C14.8433203,91.7573333 16.1894531,93.1045741 17.8495312,93.1045741 L129.081445,93.1045741 L129.081445,81.0694815 L69.6761719,81.0694815 C65.2689844,75.5721481 58.5098437,72.0437778 50.9185547,72.0437778 Z" id="Shape" fill="#C4151B"></path> <ellipse id="Oval" fill="#885951" cx="50.9185547" cy="96.1136111" rx="15.0314062" ry="15.0437778"></ellipse> <path d="M167.399297,48.3314259 L162.73793,29.670963 C164.012344,29.400037 164.968594,28.2684815 164.968594,26.9127963 L164.968594,23.9041111 C164.968594,17.3716296 159.658242,12.0572593 153.131484,12.0572593 L131.899922,12.0572593 L131.899922,5.8512963 C131.899922,2.63677778 129.287109,0.0218148148 126.075234,0.0218148148 L17.8495313,0.0218148148 C14.6376563,0.0218148148 12.0248438,2.63677778 12.0248438,5.8512963 L12.0248438,57 C12.0248438,58.5576481 13.2866016,59.8207963 14.8433203,59.8207963 C16.4000391,59.8207963 17.6617969,58.558 17.6617969,57 L17.6617969,5.8512963 C17.6617969,5.7475 17.7458203,5.66340741 17.8495312,5.66340741 L126.074883,5.66340741 C126.178594,5.66340741 126.262617,5.7475 126.262617,5.8512963 L126.262617,57.0007037 C126.262617,58.5583519 127.524375,59.8215 129.081094,59.8215 C130.637461,59.8215 131.89957,58.5587037 131.89957,57.0007037 L131.89957,53.8030741 L165.146484,53.8030741 C165.148945,53.8030741 165.151406,53.8037778 165.153867,53.8037778 C165.156328,53.8037778 165.159141,53.8034259 165.161602,53.8034259 C169.252734,53.8058889 172.726523,56.4936852 173.919727,60.1969259 L165.155977,60.1969259 C163.599609,60.1969259 162.3375,61.4597222 162.3375,63.0177222 L162.3375,69.0350926 C162.3375,73.9085926 166.298906,77.8732593 171.168398,77.8732593 L174.362695,77.8732593 L174.362695,90.2841296 L166.993242,90.2841296 C164.572383,83.2886111 157.9275,78.249037 150.12457,78.249037 C142.321641,78.249037 135.676406,83.2882593 133.255898,90.2841296 L131.898867,90.2841296 L131.898867,69.0350926 C131.898867,67.4774444 130.637109,66.2142963 129.080391,66.2142963 C127.524023,66.2142963 126.261914,67.4770926 126.261914,69.0350926 L126.261914,90.2837778 L67.7872266,90.2837778 C65.3663672,83.2879074 58.7214844,78.2486852 50.9185547,78.2486852 C43.115625,78.2486852 36.4703906,83.2879074 34.0498828,90.2837778 L17.8495313,90.2837778 C17.7458203,90.2837778 17.6617969,90.1996852 17.6617969,90.0958889 L17.6617969,83.8902778 L29.8747266,83.8902778 C31.4310938,83.8902778 32.6932031,82.6274815 32.6932031,81.0694815 C32.6932031,79.5118333 31.4314453,78.2486852 29.8747266,78.2486852 L2.81847656,78.2486852 C1.26210938,78.2486852 0,79.5114815 0,81.0694815 C0,82.6271296 1.26175781,83.8902778 2.81847656,83.8902778 L12.0251953,83.8902778 L12.0251953,90.0958889 C12.0251953,93.3104074 14.6380078,95.9253704 17.8498828,95.9253704 L33.0739453,95.9253704 C33.0732422,95.988 33.0690234,96.0502778 33.0690234,96.1132593 C33.0690234,105.963704 41.0765625,113.977481 50.9185547,113.977481 C60.7605469,113.977481 68.7680859,105.963704 68.7680859,96.1132593 C68.7680859,96.0499259 68.7638672,95.988 68.7631641,95.9253704 L132.279961,95.9253704 C132.279258,95.988 132.275039,96.0502778 132.275039,96.1132593 C132.275039,105.963704 140.282578,113.977481 150.12457,113.977481 C159.966563,113.977481 167.974102,105.963704 167.974102,96.1132593 C167.974102,96.0499259 167.969883,95.988 167.96918,95.9253704 L177.181172,95.9253704 C178.737539,95.9253704 179.999648,94.6625741 179.999648,93.1045741 L179.999648,63.0170185 C180,55.5890741 174.523711,49.4168889 167.399297,48.3314259 Z M131.899922,29.7332407 L156.943477,29.7332407 L161.546836,48.1618333 L131.899922,48.1618333 L131.899922,29.7332407 Z M153.131484,17.6985 C156.55043,17.6985 159.331992,20.4823519 159.331992,23.9041111 L159.331992,24.092 L131.899922,24.092 L131.899922,17.6985 L153.131484,17.6985 Z M50.9185547,108.336593 C44.184375,108.336593 38.705625,102.853685 38.705625,96.1136111 C38.705625,89.373537 44.184375,83.8906296 50.9185547,83.8906296 C57.6527344,83.8906296 63.1314844,89.373537 63.1314844,96.1136111 C63.1314844,102.853685 57.6527344,108.336593 50.9185547,108.336593 Z M150.125273,108.336593 C143.391094,108.336593 137.912344,102.853685 137.912344,96.1136111 C137.912344,89.373537 143.391094,83.8906296 150.125273,83.8906296 C156.859453,83.8906296 162.338203,89.373537 162.338203,96.1136111 C162.338203,102.853685 156.859453,108.336593 150.125273,108.336593 Z M171.169102,72.2316667 C169.407773,72.2316667 167.974805,70.7975185 167.974805,69.0347407 L167.974805,65.8378148 L174.363047,65.8378148 L174.363047,72.2313148 L171.169102,72.2313148 L171.169102,72.2316667 Z" id="Shape" fill="#000000"></path> <path d="M50.9185547,90.2841296 C47.7066797,90.2841296 45.0938672,92.8990926 45.0938672,96.1136111 C45.0938672,99.3281296 47.7066797,101.943093 50.9185547,101.943093 C54.1304297,101.943093 56.7432422,99.3281296 56.7432422,96.1136111 C56.7432422,92.8990926 54.1304297,90.2841296 50.9185547,90.2841296 Z" id="Shape" fill="#000000"></path> <path d="M150.125273,90.2841296 C146.913398,90.2841296 144.300586,92.8990926 144.300586,96.1136111 C144.300586,99.3281296 146.913398,101.943093 150.125273,101.943093 C153.337148,101.943093 155.949961,99.3281296 155.949961,96.1136111 C155.949961,92.8990926 153.337148,90.2841296 150.125273,90.2841296 Z" id="Shape" fill="#000000"></path> <path d="M72.1504688,81.0698333 C72.1504688,82.6274815 73.4122266,83.8906296 74.9689453,83.8906296 L117.05625,83.8906296 C118.612617,83.8906296 119.874727,82.6278333 119.874727,81.0698333 C119.874727,79.5121852 118.612969,78.249037 117.05625,78.249037 L74.9685938,78.249037 C73.4122266,78.249037 72.1504688,79.5121852 72.1504688,81.0698333 Z" id="Shape" fill="#000000"></path> <path d="M8.83089844,71.855537 L44.9061328,71.855537 C46.4625,71.855537 47.7246094,70.5927407 47.7246094,69.0347407 C47.7246094,67.4770926 46.4628516,66.2139444 44.9061328,66.2139444 L8.83089844,66.2139444 C7.27453125,66.2139444 6.01242187,67.4767407 6.01242187,69.0347407 C6.01242187,70.5927407 7.27453125,71.855537 8.83089844,71.855537 Z" id="Shape" fill="#000000"></path> </g> <g id="Nova_Poshta_2014_logo" transform="translate(53.000000, 35.000000)" fill="#FFFFFF"> <path d="M46.4150074,17.6346865 C46.587347,17.5797497 46.8141096,17.6896232 47.0408723,17.9917752 C47.0408723,17.9917752 47.0408723,17.9917752 57.2905431,28.1184457 C57.8891965,28.7227497 57.8891965,29.6383619 57.2905431,30.0870119 C57.2905431,30.0870119 57.2905431,30.0870119 47.0408723,40.3693364 C46.8141096,40.6714884 46.587347,40.7447374 46.4150074,40.6531762 C46.2426678,40.561615 46.1338217,40.2960875 46.1338217,39.9115303 L46.1338217,18.2939272 C46.1338217,17.9185262 46.2426678,17.6896232 46.4150074,17.6346865 Z" id="path3461"></path> <path d="M28.8817203,0.75995581 L29.6073608,0.75995581 L30.3057897,1.0529517 C30.3057897,1.0529517 30.3057897,1.0529517 40.8547875,11.6374268 C41.3083128,12.2417308 41.1541142,12.6995369 40.4012623,12.6995369 C40.4012623,12.6995369 40.4012623,12.6995369 36.0292786,12.6995369 C35.2764267,12.6995369 34.6777733,13.303841 34.6777733,14.063799 C34.6777733,14.063799 34.6777733,14.063799 34.6777733,21.9197514 C34.6777733,22.6797095 34.0700495,23.2840135 33.1629989,23.2840135 C33.1629989,23.2840135 33.1629989,23.2840135 25.4802808,23.2840135 C24.7274288,23.2840135 24.119705,22.6797095 24.119705,21.9197514 C24.119705,21.9197514 24.119705,21.9197514 24.119705,14.063799 C24.119705,13.303841 23.5210516,12.6995369 22.7591292,12.6995369 L18.0878189,12.6995369 C17.3349669,12.6995369 17.1807683,12.2417308 17.6342936,11.6374268 C17.6342936,11.6374268 17.6342936,11.6374268 28.1923619,1.0529517 L28.8817203,0.75995581 Z" id="path3463"></path> <path d="M12.3552594,17.4057834 C12.54574,17.4973446 12.6636566,17.7628722 12.6636566,18.1474293 L12.6636566,40.2136824 C12.6636566,40.5982395 12.54574,40.8271425 12.3552594,40.9003915 C12.1738493,40.9736405 11.9108046,40.9003915 11.6024075,40.6714884 C11.6024075,40.6714884 11.6024075,40.6714884 1.19853771,30.0870119 C0.599884347,29.6383619 0.599884347,28.7227497 1.19853771,28.1184457 C1.19853771,28.1184457 1.19853771,28.1184457 11.6024075,17.6896232 C11.9108046,17.3874712 12.1738493,17.3142222 12.3552594,17.4057834 Z" id="path3465"></path> <path d="M25.4802808,34.7749461 C25.4802808,34.7749461 25.4802808,34.7749461 33.1629989,34.7749461 C34.0700495,34.7749461 34.6777733,35.3792502 34.6777733,36.1392082 C34.6777733,36.1392082 34.6777733,36.1392082 34.6777733,44.4529667 C34.6777733,45.3594227 35.2764267,45.9637267 36.0292786,45.9637267 L40.1019356,45.9637267 C40.8547875,45.9637267 41.1541142,46.4123767 40.5554609,46.8701828 C40.5554609,46.8701828 40.5554609,46.8701828 30.3057897,57.2990053 C29.9973925,57.6011573 29.6255018,57.7568114 29.2445406,57.7568114 C28.8726498,57.7568114 28.4916886,57.6011573 28.1923619,57.2990053 C28.1923619,57.2990053 28.1923619,57.2990053 17.9426908,46.8701828 C17.3349669,46.4123767 17.6342936,45.9637267 18.3871455,45.9637267 C18.3871455,45.9637267 18.3871455,45.9637267 22.7591292,45.9637267 C23.5210516,45.9637267 24.119705,45.3594227 24.119705,44.4529667 C24.119705,44.4529667 24.119705,44.4529667 24.119705,36.1392082 C24.119705,35.3792502 24.7274288,34.7749461 25.4802808,34.7749461 Z" id="path3467"></path> </g> </g> </svg> 