<svg width="150" height="150" fill="none" xmlns="http://www.w3.org/2000/svg"><path d="M0 33C0 14.775 14.775 0 33 0h116.281v116.281c0 18.225-14.775 33-33 33H0V33z" fill="url(#paint0_linear)"/><g clip-path="url(#clip0)" fill="#fff"><path d="M74.64 46.03a2.653 2.653 0 002.653-2.652V32.013c-.14-3.52-5.167-3.517-5.305 0v11.365a2.653 2.653 0 002.652 2.653zm-33.13-.776a2.653 2.653 0 103.75-3.752l-8.036-8.037a2.653 2.653 0 00-3.751 3.752l8.036 8.037zm66.262 0l8.036-8.037c2.39-2.588-1.166-6.14-3.751-3.752l-8.037 8.037c-2.39 2.588 1.166 6.14 3.752 3.752zm11.648 27.838l-14.207-19.89a2.653 2.653 0 00-2.159-1.11H46.227c-.857 0-1.661.413-2.16 1.11l-14.206 19.89a2.653 2.653 0 00.283 3.417l42.62 42.621a2.653 2.653 0 003.752 0l42.621-42.62a2.652 2.652 0 00.283-3.418zM97.9 57.397L88.846 70.07l-9.052-12.673H97.9zM83.692 71.98H65.588l9.052-12.673 9.053 12.673zM69.486 57.397L60.433 70.07l-9.052-12.673h18.105zm-23.26 1.91l9.053 12.674H37.174l9.053-12.673zm-7.802 17.98H58.52l10.05 30.146-30.147-30.147zm36.216 31.579l-10.526-31.58h21.053l-10.527 31.58zm6.07-1.433l10.05-30.147h20.097l-30.146 30.147zm13.292-35.452l9.052-12.673 9.053 12.673H94.002z"/></g><defs><linearGradient id="paint0_linear" x1="74.64" y1="0" x2="74.64" y2="149.281" gradientUnits="userSpaceOnUse"><stop stop-color="#CF5170"/><stop offset=".508" stop-color="#E3A4B4"/><stop offset="1" stop-color="#D04F6F"/></linearGradient><clipPath id="clip0"><path fill="#fff" transform="translate(29.367 29.367)" d="M0 0h90.547v90.547H0z"/></clipPath></defs></svg>