<svg width="150" height="150" fill="none" xmlns="http://www.w3.org/2000/svg"><path d="M0 33C0 14.775 14.775 0 33 0h116.281v116.281c0 18.225-14.775 33-33 33H0V33z" fill="url(#paint0_linear)"/><g clip-path="url(#clip0)" fill="#fff"><path d="M95.51 99.427h-6.96v-.603c0-.47.272-.965.815-1.485 2.285-2.185 7.121-3.988 7.121-8.327 0-3.104-2.645-4.983-5.603-4.983-2.739 0-5.328 1.724-5.328 4.592 0 1.165.483 1.747 1.45 1.747.88 0 1.67-.485 1.67-1.233 0-.753.209-1.319.627-1.696.878-.79 2.588-.763 3.35.114 1.61 1.857-.293 3.926-2.246 5.384-.661.568-4.976 2.904-4.976 5.874v2.433c0 .617.836 1.029 1.395 1.029h8.708c.26 0 .493-.146.698-.437.688-.984.11-2.409-.721-2.409z"/><path d="M106.943 95.285v-2.746c0-1.442-3.245-1.436-3.245 0v2.746h-2.92l4.793-9.584c.664-1.33-2.061-2.54-2.871-.83l-5.915 11.534c-.44.808-.024 1.724.924 1.724h5.99v3.075c0 1.402 3.244 1.44 3.244 0v-3.075h1.174c.807 0 1.39-1.431.748-2.42-.419-.647-.97-.347-1.922-.424zM70.73 64.85V49a1.745 1.745 0 00-3.49 0v15.85a6.157 6.157 0 00-4.134 4.135h-8.443a1.744 1.744 0 100 3.489h8.443a6.143 6.143 0 005.879 4.388 6.14 6.14 0 006.133-6.132 6.143 6.143 0 00-4.388-5.88zm-1.745 8.524a2.648 2.648 0 01-2.644-2.644 2.647 2.647 0 012.644-2.645 2.647 2.647 0 012.644 2.645 2.647 2.647 0 01-2.644 2.644zm17.667 4.592a1.744 1.744 0 10-3.488-.003 1.744 1.744 0 003.488.003z"/><path d="M117.96 89.248a22.069 22.069 0 00-9.716-13.206c.237-1.762.358-3.543.358-5.312 0-21.897-17.718-39.619-39.617-39.619-21.896 0-39.618 17.72-39.618 39.619 0 25.86 24.528 45.079 49.913 38.262 5.435 6.599 14.292 9.637 22.82 7.399 11.856-3.111 18.971-15.287 15.86-27.143zm-16.746 23.769c-7.79 2.044-15.743-1.149-20.116-7.389l-.06-.087c-4.239-6.122-4.467-14.23-.423-20.663.816-1.292 1.168-1.445 1.205-2.203.085-1.716-2.108-2.508-3.138-1.135-3.46 4.614-5.046 10.397-4.264 16.253-17.177 3.428-33.033-9.772-33.033-27.063 0-15.22 12.381-27.6 27.6-27.6 6.767 0 13.109 2.391 18.127 6.784l-1.981-.163a1.744 1.744 0 10-.287 3.477c6.317.519 5.979.498 6.11.498.894 0 1.654-.682 1.737-1.588l.538-5.961a1.744 1.744 0 10-3.474-.314l-.145 1.604a30.954 30.954 0 00-20.625-7.827c-17.142 0-31.089 13.947-31.089 31.09 0 19.605 17.997 34.344 37.248 30.474a22.658 22.658 0 002.012 4.724c-22.71 5.255-44.3-12.073-44.3-35.198 0-19.922 16.207-36.13 36.129-36.13 19.921 0 36.129 16.208 36.129 36.13 0 1.199-.061 2.405-.18 3.606a22.059 22.059 0 00-4.94-1.405c.051-.733.08-1.468.08-2.201 0-4.444-.919-8.736-2.73-12.757a1.745 1.745 0 00-3.181 1.433 27.386 27.386 0 012.422 11.324c0 .64-.022 1.282-.067 1.922-3.213-.004-5.784.757-5.702.735a1.744 1.744 0 00-1.244 2.13c.55 2.094 2.474 1.045 4.521.781 9.15-1.174 18.057 4.552 20.492 13.835 2.623 9.995-3.375 20.261-13.371 22.884z"/></g><defs><linearGradient id="paint0_linear" x1="74.64" y1="0" x2="74.64" y2="149.281" gradientUnits="userSpaceOnUse"><stop stop-color="#CF5170"/><stop offset=".508" stop-color="#E3A4B4"/><stop offset="1" stop-color="#D04F6F"/></linearGradient><clipPath id="clip0"><path fill="#fff" transform="translate(29.367 29.367)" d="M0 0h89.324v89.324H0z"/></clipPath></defs></svg>