<svg width="122" height="122" fill="none" xmlns="http://www.w3.org/2000/svg"><g filter="url(#filter0_d)"><circle cx="61" cy="57" r="57" fill="url(#paint0_linear)"/></g><g clip-path="url(#clip0)" fill="#fff"><path d="M64.846 53.115a11.35 11.35 0 008.09 3.385h.004a11.35 11.35 0 008.088-3.385 11.568 11.568 0 003.347-8.159 9.13 9.13 0 00-.496-2.745 21.534 21.534 0 00-1.244-2.961c-1.248-2.492-3.139-5.424-5.62-8.717a91.332 91.332 0 00-3.353-4.2l-.003-.003a.953.953 0 00-1.444.001l-.003.004a93.153 93.153 0 00-5.424 7.061.953.953 0 001.57 1.083 91.244 91.244 0 014.58-6.043c1.029 1.249 3.034 3.758 4.944 6.575 1.37 2.023 2.455 3.855 3.224 5.447.887 1.823 1.372 3.42 1.363 4.498a9.635 9.635 0 01-2.795 6.819 9.459 9.459 0 01-13.473 0 9.633 9.633 0 01-2.795-6.819c-.007-.99.403-2.429 1.153-4.054a.954.954 0 00-1.732-.793c-.9 1.974-1.321 3.514-1.327 4.847a11.567 11.567 0 003.346 8.16z"/><path d="M65.005 37.958a.953.953 0 10.982-1.635.953.953 0 00-.982 1.635zM76.75 51.47a.95.95 0 00.552-.177 7.778 7.778 0 003.26-6.336.953.953 0 10-1.906 0 5.869 5.869 0 01-2.458 4.782.953.953 0 00.553 1.73zm-3.812 1.218a.953.953 0 100-1.907.953.953 0 000 1.907zm-4.252 17.23l-8.346 1.855a.953.953 0 00.414 1.86l8.578-1.906a.956.956 0 00.413-.207l6.672-5.718a.863.863 0 00.054-.05l3.812-3.812a.953.953 0 000-1.348 5.003 5.003 0 00-7.007-.059l-6.432 4.594-5.186.865c-1.8-.93-11.201-5.68-15.408-5.68a.953.953 0 100 1.907c3.399 0 11.84 4.049 14.806 5.609.184.097.395.13.6.096l5.72-.953a.954.954 0 00.397-.164l6.672-4.766a.96.96 0 00.12-.101 3.097 3.097 0 013.59-.568l-3.006 3.006-6.463 5.54zm22.26 4.265a6.453 6.453 0 00-7.126-3.425.952.952 0 10.4 1.864 4.548 4.548 0 014.309 1.377l-14.857 3.495a.954.954 0 10.437 1.856l16.203-3.813a.953.953 0 00.634-1.354z"/><path d="M48.919 57.595c2.76.637 5.185 1.8 7.213 3.455.698.57 1.956 1.532 3.847 2.938a.953.953 0 101.138-1.53c-1.268-.942-2.953-2.207-3.78-2.884-2.255-1.843-4.944-3.134-7.99-3.837a.953.953 0 10-.429 1.857zM31.953 59.36a.967.967 0 00.297-.048l2.85-.932a30.341 30.341 0 016.53-1.264.954.954 0 00-.152-1.901 32.464 32.464 0 00-6.946 1.345l-2.875.94a.953.953 0 00.296 1.86zm13.351-2.282l.06.002a.962.962 0 10-.06-.002zm37.235 22.905l-2.628-.876a.953.953 0 10-.603 1.808l2.628.876a2.743 2.743 0 011.837 3.063l-18.904-6.05 9.416-4.28a1.13 1.13 0 00.054-.027l14.297-7.625a.952.952 0 00.314-1.413 6.66 6.66 0 00-8.31-1.962.953.953 0 00.852 1.706 4.756 4.756 0 015.144.575L73.47 72.801 63.2 77.469h-5.296L38.082 68.03a.954.954 0 00-.41-.093h-5.719a.953.953 0 100 1.907h5.503l19.822 9.438a.952.952 0 00.41.093h2.71l23.687 7.58a.953.953 0 001.143-.482 4.651 4.651 0 00-2.69-6.49z"/></g><defs><linearGradient id="paint0_linear" x1="61" y1="0" x2="61" y2="114" gradientUnits="userSpaceOnUse"><stop stop-color="#20395D"/><stop offset=".409" stop-color="#216477"/><stop offset="1" stop-color="#113263"/></linearGradient><clipPath id="clip0"><path fill="#fff" transform="translate(31 26)" d="M0 0h61v61H0z"/></clipPath><filter id="filter0_d" x="0" y="0" width="122" height="122" filterUnits="userSpaceOnUse" color-interpolation-filters="sRGB"><feFlood flood-opacity="0" result="BackgroundImageFix"/><feColorMatrix in="SourceAlpha" values="0 0 0 0 0 0 0 0 0 0 0 0 0 0 0 0 0 0 127 0"/><feOffset dy="4"/><feGaussianBlur stdDeviation="2"/><feColorMatrix values="0 0 0 0 0 0 0 0 0 0 0 0 0 0 0 0 0 0 0.43 0"/><feBlend in2="BackgroundImageFix" result="effect1_dropShadow"/><feBlend in="SourceGraphic" in2="effect1_dropShadow" result="shape"/></filter></defs></svg>