<svg width="122" height="122" fill="none" xmlns="http://www.w3.org/2000/svg"><g filter="url(#filter0_d)"><circle cx="61" cy="57" r="57" fill="url(#paint0_linear)"/></g><g clip-path="url(#clip0)" fill="#fff"><path d="M62.212 67.098a.952.952 0 00-1.327.239c-3.323 4.784-8.429 9.312-14.377 12.752-5.34 3.087-10.781 4.93-14.555 4.93a.953.953 0 100 1.907c4.094 0 9.892-1.939 15.51-5.187 6.185-3.577 11.508-8.305 14.987-13.315a.953.953 0 00-.238-1.326zm4.054-12.368a.953.953 0 00.953-.952V26.953a.953.953 0 10-1.906 0v26.825a.953.953 0 00.953.953zM91.6 80.819a4.728 4.728 0 00-1.046-1.577l-5.587-5.587a.954.954 0 00-1.35 1.348h.001l5.588 5.587a2.859 2.859 0 11-4.044 4.044l-19.42-19.42 4.043-4.044 8.442 8.442a.953.953 0 001.348-1.348l-9.115-9.115a.953.953 0 00-1.348 0l-.103.102-3.997-2.854-5.336-5.337a.954.954 0 00-1.578.373l-1.348 4.044a.953.953 0 00.23.975l3.988 3.988 2.855 3.996-.103.104a.953.953 0 000 1.347l20.094 20.094a4.756 4.756 0 003.366 1.397h.008a4.769 4.769 0 004.412-6.559zM61.698 58.474l-2.953-2.953.674-2.022 3.627 3.627-.674.674-.674.674zm3.491 4.596l-2.246-3.145.777-.777.777-.777 3.145 2.246-2.305 2.305-.148.148z"/><path d="M81.597 72.586a.954.954 0 10-.002-1.907.954.954 0 00.002 1.907zm-49.644 2.977a.953.953 0 100 1.906c4.646 0 8.094-1.291 10.248-3.837a9.107 9.107 0 002.143-5.695v-.001a.955.955 0 00-.01-.127c0-.009-.002-.018-.004-.027a.966.966 0 00-.023-.103l-.006-.022a1.03 1.03 0 00-.036-.099l-.006-.013-.015-.029a.963.963 0 00-.046-.083l-.016-.026a.948.948 0 00-.074-.097l-.01-.01a.948.948 0 00-.077-.076l-.023-.02a.981.981 0 00-.097-.072l-.016-.008a.95.95 0 00-.095-.05l-.017-.01c-.686-.3-6.781-2.939-9.394-2.939-1.428 0-2.086.89-2.565 1.54-.156.225-.33.436-.521.632a.953.953 0 101.32 1.375c.27-.27.516-.563.734-.875.459-.62.609-.766 1.032-.766 1.334 0 4.241 1.014 6.444 1.878-2.288.818-5.947 1.935-8.87 1.935a.953.953 0 000 1.906c3.596 0 8.003-1.464 10.288-2.326-.548 2.249-2.606 6.138-10.288 6.138zm27.92-32.686a.953.953 0 001.348-1.348l-2.86-2.86a.954.954 0 00-1.347 0c-.036.037-3.606 3.534-9.81 3.534h-8.579a.953.953 0 000 1.906h8.578a17.44 17.44 0 006.823-1.36l.009.009 2.025 2.025a.953.953 0 001.348-1.348l-1.58-1.579a14.99 14.99 0 001.81-1.214l2.235 2.235zM35.41 38.322a.953.953 0 001.1-.289c3.724-4.656 9.443-6.314 13.553-6.314 3.95 0 6.934.812 9.979 2.714a.953.953 0 001.458-.808 7.778 7.778 0 00-1.224-3.851C59.17 28.052 56.83 26 51.97 26c-8.251 0-12.471 3.04-14.558 5.592-2.303 2.815-2.584 5.64-2.595 5.76a.953.953 0 00.594.97zm3.476-5.523c2.619-3.2 7.143-4.893 13.083-4.893 4.726 0 6.523 2.193 7.206 3.865-2.746-1.346-5.636-1.958-9.112-1.958-3.511 0-8.086 1.098-11.897 3.977.22-.344.461-.675.72-.991zm-3.103 20.228c2.334 1.876 5.942 2.922 11.355 3.294a.953.953 0 10.13-1.902c-4.936-.339-8.303-1.28-10.291-2.878a.68.68 0 01-.177-.853.675.675 0 01.895-.266c4.5 2.24 12.963 2.265 13.32 2.265a.953.953 0 000-1.906c-.083 0-8.368-.023-12.47-2.065a2.576 2.576 0 00-3.373.985 2.576 2.576 0 00.61 3.326zM53.875 56.5a.953.953 0 100-1.906.953.953 0 000 1.906zm.953-3.812a.953.953 0 100-1.907.953.953 0 000 1.907z"/><path d="M50.063 56.5a.953.953 0 100-1.906.953.953 0 000 1.906z"/></g><defs><linearGradient id="paint0_linear" x1="61" y1="0" x2="61" y2="114" gradientUnits="userSpaceOnUse"><stop stop-color="#20395D"/><stop offset=".409" stop-color="#216477"/><stop offset="1" stop-color="#113263"/></linearGradient><clipPath id="clip0"><path fill="#fff" transform="translate(31 26)" d="M0 0h61v61H0z"/></clipPath><filter id="filter0_d" x="0" y="0" width="122" height="122" filterUnits="userSpaceOnUse" color-interpolation-filters="sRGB"><feFlood flood-opacity="0" result="BackgroundImageFix"/><feColorMatrix in="SourceAlpha" values="0 0 0 0 0 0 0 0 0 0 0 0 0 0 0 0 0 0 127 0"/><feOffset dy="4"/><feGaussianBlur stdDeviation="2"/><feColorMatrix values="0 0 0 0 0 0 0 0 0 0 0 0 0 0 0 0 0 0 0.43 0"/><feBlend in2="BackgroundImageFix" result="effect1_dropShadow"/><feBlend in="SourceGraphic" in2="effect1_dropShadow" result="shape"/></filter></defs></svg>