<svg width="69" height="85" viewBox="0 0 69 85" fill="none" xmlns="http://www.w3.org/2000/svg">
<path d="M56.282 26.988L53.4722 24.829L52.1637 28.0264C52.1386 28.0874 49.6251 34.1069 45.7653 33.0103C44.9107 32.7674 44.3375 32.2991 43.9616 31.5361C43.003 29.5914 43.4108 26.0713 45.0003 22.5683C47.1981 17.7245 46.2357 12.649 42.2171 7.89008C39.3903 4.54277 35.994 2.51634 35.8507 2.43161L31.7356 0L31.8273 4.59327C31.8289 4.67534 31.9175 12.8359 25.5379 15.8283C21.6293 17.6617 18.8313 20.6941 17.6591 24.3668C16.5626 27.8027 17.0231 31.5593 18.9225 34.6734C19.7001 35.9481 19.9356 37.0292 19.6231 37.8868C19.1763 39.112 17.7331 39.7428 17.3013 39.9069C12.7405 41.6418 9.75496 35.8499 9.63428 35.6108L7.55384 31.4051L5.00438 35.3724C1.73034 40.4669 0 46.3297 0 52.3271C0 70.2118 15.2527 84.7837 34.0856 84.995C34.2231 84.9983 34.361 85 34.4994 85H34.4996H34.5001C53.5234 85 69 70.3429 69 52.3271C69 42.4618 64.3647 33.2261 56.282 26.988V26.988ZM23.7101 69.7978L23.7099 69.7671C23.6841 67.7837 24.083 65.6567 24.8983 63.422L31.383 65.2172L31.4485 61.9582C31.5484 56.9669 34.5203 53.9029 36.8963 52.2452C37.5054 54.7558 38.4552 56.9943 39.7669 59.0247C41.2625 61.3361 42.6789 63.2954 43.9853 65.0663C44.8246 66.2064 45.3006 67.9277 45.2911 69.7885V69.8005C45.2911 72.5289 44.1686 75.0948 42.1302 77.0254C40.0938 78.9539 37.3839 80.0162 34.4996 80.0162C34.4992 80.0162 34.499 80.0162 34.4987 80.0162C28.5519 80.0157 23.7122 75.4337 23.7101 69.7978V69.7978ZM48.9811 76.3745C50.0082 74.3499 50.5525 72.1176 50.5532 69.8056C50.5667 66.9015 49.7672 64.2061 48.3002 62.2136C46.8431 60.2381 45.5974 58.497 44.2543 56.4215C42.7569 54.1039 41.8564 51.3724 41.5019 48.0713L41.1552 44.8446L37.9527 45.9932C37.6524 46.1008 34.9395 47.114 32.1588 49.5031C29.21 52.0366 27.3065 55.1694 26.5519 58.6873L21.8487 57.3854L20.9203 59.3909C19.2396 63.0213 18.4079 66.5276 18.448 69.8133C18.4505 72.1648 19.0198 74.3931 20.0331 76.382C11.2169 71.6081 5.26187 62.6139 5.26187 52.3268C5.26187 48.5846 6.05609 44.905 7.58121 41.5032C7.81502 41.7481 8.06374 41.9926 8.32737 42.2332C11.5502 45.1713 15.4334 45.9875 19.2616 44.5317C21.8477 43.5484 23.7922 41.7194 24.5966 39.5137C25.1693 37.9433 25.4402 35.3962 23.4786 32.1801C22.2864 30.2255 22.0083 27.9626 22.6957 25.8086C23.4428 23.4682 25.2813 21.5099 27.8731 20.2942C33.3274 17.7356 35.5571 12.9326 36.4665 9.28904C37.0404 9.82364 37.6301 10.4292 38.1844 11.095C40.8879 14.3415 41.5544 17.5396 40.1656 20.6007C37.9443 25.4965 37.5807 30.3725 39.1931 33.6442C40.2061 35.6999 41.9559 37.1312 44.2529 37.784C47.8638 38.8101 51.3951 37.6157 54.197 34.421C54.6357 33.921 55.0229 33.4118 55.3601 32.9226C60.7191 38.0802 63.7378 44.9987 63.7378 52.3268C63.738 62.6086 57.7896 71.5986 48.9811 76.3745V76.3745Z" fill="white"/>
</svg>
