<svg width="69" height="69" viewBox="0 0 69 69" fill="none" xmlns="http://www.w3.org/2000/svg">
<path d="M61.7773 51.3027C60.5829 50.4142 58.8946 50.6623 58.0061 51.8564C57.5174 52.5133 56.9945 53.1576 56.4518 53.7715C55.466 54.8866 55.5707 56.5901 56.6859 57.576C57.1988 58.0294 57.8356 58.252 58.4701 58.252C59.2156 58.252 59.9579 57.9443 60.4905 57.3418C61.1332 56.6149 61.7524 55.8518 62.3311 55.0738C63.2196 53.8797 62.9718 52.1911 61.7773 51.3027Z" fill="white"/>
<path d="M66.285 38.6623C64.8314 38.3458 63.3947 39.2682 63.0782 40.7226C62.9039 41.5227 62.6934 42.3243 62.452 43.1054C62.0126 44.5277 62.8093 46.0368 64.2315 46.4763C64.4966 46.5581 64.7645 46.5971 65.0281 46.5971C66.179 46.5971 67.2447 45.854 67.6024 44.6966C67.8889 43.7697 68.1387 42.8184 68.3455 41.8692C68.662 40.4148 67.7396 38.979 66.285 38.6623Z" fill="white"/>
<path d="M48.8038 59.9349C48.0882 60.3344 47.3473 60.7077 46.6018 61.0444C45.2451 61.6571 44.642 63.2535 45.2547 64.6102C45.7048 65.6069 46.6857 66.1968 47.7127 66.1968C48.0835 66.1968 48.4605 66.1199 48.8204 65.9573C49.7049 65.5579 50.5833 65.1152 51.4318 64.6415C52.7316 63.9159 53.1969 62.2739 52.4711 60.9742C51.7456 59.6747 50.1037 59.2093 48.8038 59.9349Z" fill="white"/>
<path d="M31.8047 12.9375V33.3836L21.9211 43.267C20.8686 44.3197 20.8686 46.0262 21.9211 47.0788C22.4475 47.6051 23.1371 47.8682 23.8271 47.8682C24.5168 47.8682 25.2067 47.605 25.7331 47.0788L36.406 36.4059C36.9114 35.9005 37.1953 35.2148 37.1953 34.5V12.9375C37.1953 11.4489 35.9886 10.2422 34.5 10.2422C33.0114 10.2422 31.8047 11.4489 31.8047 12.9375Z" fill="white"/>
<path d="M66.3047 5.79492C64.8161 5.79492 63.6094 7.00161 63.6094 8.49023V15.9746C57.3358 6.13561 46.3797 0 34.5 0C25.2847 0 16.621 3.58867 10.1047 10.1047C3.58867 16.621 0 25.2847 0 34.5C0 43.7153 3.58867 52.3789 10.1047 58.8953C16.621 65.4113 25.2847 69 34.5 69C34.5228 69 34.5447 68.9972 34.5674 68.9966C34.59 68.9972 34.612 69 34.6348 69C35.6062 69 36.5871 68.959 37.5507 68.8784C39.0341 68.7542 40.1359 67.451 40.0118 65.9676C39.8874 64.4843 38.586 63.3819 37.1008 63.5067C36.2863 63.5747 35.4567 63.6094 34.6348 63.6094C34.612 63.6094 34.59 63.6122 34.5674 63.6127C34.5447 63.6122 34.5228 63.6094 34.5 63.6094C18.449 63.6094 5.39062 50.551 5.39062 34.5C5.39062 18.449 18.449 5.39062 34.5 5.39062C44.8443 5.39062 54.3587 10.9043 59.5578 19.6758H52.1466C50.658 19.6758 49.4513 20.8825 49.4513 22.3711C49.4513 23.8597 50.658 25.0664 52.1466 25.0664H60.375C62.0164 25.0664 63.5521 24.6051 64.8596 23.8059C64.9437 23.758 65.0246 23.7064 65.1016 23.6507C67.4474 22.1075 69 19.453 69 16.4414V8.49023C69 7.00161 67.7933 5.79492 66.3047 5.79492Z" fill="white"/>
</svg>
