<svg width="81" height="81" viewBox="0 0 81 81" fill="none" xmlns="http://www.w3.org/2000/svg">
<g clip-path="url(#clip0)">
<path d="M47.9399 9.74183C47.0891 9.53696 46.2359 10.0598 46.0312 10.9091C45.8265 11.7584 46.3491 12.6131 47.1985 12.8178C60.0211 15.9089 68.9765 27.2922 68.9765 40.4999C68.9765 56.2018 56.2021 68.9763 40.5 68.9763C24.7979 68.9763 12.0235 56.2018 12.0235 40.4999C12.0235 27.2927 20.9784 15.9094 33.8004 12.8179C34.6498 12.6131 35.1724 11.7584 34.9677 10.9092C34.7628 10.0598 33.9079 9.5376 33.0589 9.74199C26.2752 11.3776 20.1292 15.299 15.7532 20.7837C11.2433 26.4362 8.8595 33.2539 8.8595 40.4999C8.8595 57.9465 23.0534 72.1404 40.5 72.1404C57.9466 72.1404 72.1405 57.9466 72.1405 40.4999C72.1405 33.2537 69.7567 26.4358 65.2465 20.7833C60.8703 15.2987 54.724 11.3773 47.9399 9.74183Z" fill="white"/>
<path d="M80.0463 36.6948L78.1954 33.2417L78.5041 28.9727C78.8009 26.2365 77.7094 23.566 75.5807 21.8245L72.5084 19.3088L71.2999 15.6682C70.6231 12.8846 68.509 10.6473 65.7661 9.81884L61.9738 8.67314L59.0696 5.31608C57.3512 3.29473 54.7502 2.24331 52.1115 2.50261L48.1754 2.89479L44.3063 0.953803C41.9218 -0.317354 39.0789 -0.318462 36.6942 0.953645L33.2413 2.8043L28.9725 2.49549C26.2351 2.1987 23.5656 3.2903 21.8243 5.41891L19.3084 8.4912L15.668 9.69971C12.8842 10.3765 10.6469 12.4906 9.81843 15.2333L8.67288 19.0256L5.31583 21.93C3.29463 23.6484 2.24259 26.249 2.5022 28.8881L2.89438 32.8242L0.953394 36.6933C-0.317922 39.0779 -0.318871 41.9207 0.953077 44.3056L2.80389 47.7585L2.49508 52.0274C2.19845 54.7637 3.28989 57.434 5.4185 59.1756L8.49079 61.6914L9.6993 65.3319C10.3759 68.1155 12.49 70.3528 15.2331 71.1813L19.0252 72.3269L21.9296 75.6841C23.6482 77.7053 26.2481 78.7573 28.8877 78.4976L32.8236 78.1054L36.6924 80.046C37.8851 80.682 39.1925 81.0002 40.4999 81.0002C41.8063 81.0002 43.1128 80.6825 44.3048 80.0467L47.7579 78.196L52.0267 78.5048C54.7628 78.801 57.4333 77.71 59.1751 75.5814L61.6908 72.5091L65.3315 71.3008C68.1149 70.624 70.3521 68.5099 71.1806 65.767L72.3263 61.9749L75.6835 59.0704C77.7047 57.352 78.7567 54.7515 78.4971 52.1122L78.1048 48.1765L80.0456 44.3073C81.3169 41.9226 81.3182 39.0797 80.0463 36.6948ZM77.2469 42.8308C77.2399 42.8438 77.2331 42.8567 77.2266 42.8697L75.0709 47.1673C74.9366 47.435 74.8811 47.7354 74.9107 48.0336L75.3484 52.4237C75.5063 54.029 74.8654 55.6126 73.6237 56.6684L69.9094 59.8819C69.6829 60.0779 69.5168 60.334 69.4302 60.6207L68.1518 64.8518C67.6422 66.5389 66.2578 67.836 64.5389 68.2367C64.4919 68.2476 64.4454 68.2607 64.3997 68.2759L60.2589 69.6502C59.9746 69.7447 59.7229 69.9177 59.5332 70.1495L56.7267 73.5771C55.6608 74.8801 54.0232 75.5455 52.3475 75.3569C52.3266 75.3545 52.3056 75.3526 52.2849 75.3511L47.529 75.0071C47.2295 74.9856 46.9315 75.0492 46.6676 75.1906L42.8131 77.2564C41.3596 78.0316 39.6235 78.0285 38.1688 77.2474C38.1558 77.2406 38.1428 77.2338 38.1299 77.2273L33.8325 75.0717C33.6116 74.9609 33.3686 74.9037 33.1231 74.9037C33.0709 74.9037 33.0185 74.9062 32.9661 74.9114L28.576 75.3488C26.9709 75.5074 25.3871 74.8659 24.3313 73.6243L21.1179 69.91C20.922 69.6835 20.6657 69.5172 20.3789 69.4306L16.1478 68.1525C14.4606 67.643 13.1636 66.2585 12.7629 64.5395C12.752 64.4925 12.7388 64.4462 12.7237 64.4003L11.3494 60.2593C11.2551 59.975 11.082 59.7235 10.8502 59.5338L7.42277 56.7271C6.11981 55.6612 5.45441 54.0241 5.64299 52.3481C5.64536 52.3272 5.64726 52.3063 5.64884 52.2853L5.99278 47.5293C6.01445 47.2306 5.95069 46.9319 5.80926 46.6678L3.74329 42.8137C2.9681 41.3601 2.97142 39.624 3.75215 38.1694C3.75911 38.1565 3.76576 38.1436 3.77225 38.1306L5.92791 33.833C6.06223 33.5653 6.11776 33.2649 6.08801 32.9669L5.65058 28.5764C5.4927 26.9712 6.13358 25.3875 7.37531 24.3317L11.0896 21.1183C11.3161 20.9223 11.4822 20.6662 11.5689 20.3795L12.8472 16.1482C13.3568 14.4611 14.7412 13.1642 16.4602 12.7633C16.5072 12.7524 16.5536 12.7393 16.5995 12.7241L20.7401 11.3496C21.0244 11.2553 21.2759 11.0822 21.4656 10.8505L24.2724 7.42286C25.3384 6.12006 26.976 5.45498 28.6515 5.64324C28.6724 5.64561 28.6933 5.64751 28.7141 5.6491L33.47 5.99303C33.7679 6.01423 34.0674 5.95095 34.3314 5.80951L38.1857 3.7437C39.6391 2.96851 41.3754 2.97168 42.8299 3.75256C42.8427 3.75937 42.8557 3.76617 42.8688 3.77266L47.1664 5.92832C47.4341 6.06264 47.7345 6.11832 48.0326 6.08842L52.4228 5.65099C54.028 5.49279 55.6117 6.13399 56.6676 7.37572L59.881 11.09C60.0768 11.3165 60.3331 11.4827 60.6199 11.5693L64.8511 12.8476C66.5381 13.3572 67.8351 14.7418 68.236 16.4607C68.2469 16.5076 68.26 16.554 68.2752 16.5999L69.6497 20.7405C69.7441 21.0248 69.917 21.2763 70.1488 21.466L73.5764 24.2727C74.8794 25.3387 75.5446 26.9756 75.356 28.6517C75.3537 28.6726 75.3518 28.6935 75.3503 28.7145L75.0064 33.4706C74.9847 33.7693 75.0485 34.068 75.1898 34.332L77.2557 38.1863C78.0311 39.6402 78.0277 41.3763 77.2469 42.8308Z" fill="white"/>
<path d="M33.6343 31.8804C33.3805 31.3456 32.8371 30.975 32.2059 30.975H23.8469C22.9732 30.975 22.2649 31.6833 22.2649 32.557V56.5035C22.2649 57.3772 22.9732 58.0855 23.8469 58.0855H32.2059C32.8616 58.0855 33.424 57.6867 33.6639 57.1183C34.8698 57.2875 36.1122 57.6305 37.4057 57.9887C39.3503 58.5271 41.3609 59.0838 43.4499 59.0838H52.5828C55.4061 59.0838 57.6939 57.587 58.7027 55.0797C59.1941 53.858 59.2802 52.5902 58.993 51.5288C59.5182 51.0566 59.9622 50.4687 60.2979 49.7823C60.9783 48.3913 61.1142 46.8272 60.7285 45.5098C61.4474 44.8153 61.9837 43.8982 62.264 42.8169C62.5262 41.806 62.5216 40.8085 62.2884 39.9443C63.7154 39.1048 64.6764 37.5798 64.6764 35.8614C64.6764 34.5137 64.1517 33.2718 63.1987 32.3646C62.2836 31.4936 61.0648 31.0137 59.7669 31.0137L46.8939 31.0141C45.9158 29.7872 45.6115 28.1223 46.1683 26.7821C47.3112 24.0316 47.2403 21.7034 45.9391 19.2332C44.9731 17.3998 42.3757 15.5744 40.1927 15.8861C38.8731 16.0747 37.9184 17.0073 37.6384 18.3811C37.556 18.7853 37.5333 19.222 37.5072 19.7276C37.4427 20.9748 37.3541 22.6831 36.2774 24.7459C35.5476 26.1443 35.3041 27.5825 35.0893 28.8514C34.7816 30.6692 34.6324 31.5448 33.6343 31.8804ZM25.4289 34.139H30.6238V54.9215H25.4289V34.139ZM38.209 29.3795C38.3933 28.2909 38.5838 27.1651 39.0824 26.2101C40.4783 23.5358 40.5964 21.2544 40.6672 19.8913C40.686 19.5282 40.7037 19.1853 40.7388 19.0128C40.739 19.0117 40.7393 19.0104 40.7396 19.0093C41.2884 19.0169 42.639 19.7578 43.1397 20.7083C44.0063 22.3529 44.0351 23.6703 43.2467 25.5684C42.5355 27.2798 42.589 29.2658 43.2924 31.0315C42.5227 31.1386 41.9298 31.7975 41.9298 32.5966C41.9298 33.4701 42.6382 34.1786 43.5118 34.1786L59.7669 34.1781C60.249 34.1781 60.6931 34.348 61.0171 34.6565C61.2431 34.8715 61.5124 35.2553 61.5124 35.8615C61.5124 36.7101 60.7345 37.4439 59.8136 37.464L55.7416 37.5526C54.8682 37.5715 54.1754 38.295 54.1944 39.1686C54.2132 40.0305 54.9176 40.7163 55.7755 40.7163C55.787 40.7163 55.7988 40.7163 55.8106 40.716L59.2018 40.6423C59.3124 40.9557 59.37 41.5535 59.1371 42.2384C58.9389 42.8209 58.4069 43.7979 57.0685 43.7979C56.1949 43.7979 55.4865 44.5062 55.4865 45.3799C55.4865 46.2537 56.1949 46.962 57.0685 46.962C57.3083 46.962 57.5437 46.9471 57.7741 46.9178C57.7937 47.3655 57.7016 47.89 57.4559 48.3921C57.1655 48.9857 56.5913 49.6935 55.5058 49.6935C54.6322 49.6935 53.9237 50.4018 53.9237 51.2755C53.9237 52.1493 54.6322 52.8576 55.5058 52.8576C55.6695 52.8576 55.8315 52.8503 55.9914 52.8359C55.9873 53.1395 55.9256 53.519 55.753 53.9341C55.505 54.5312 54.6992 55.9197 52.5831 55.9197H43.4503C41.7912 55.9197 40.0712 55.4435 38.2503 54.9393C36.8013 54.5381 35.3156 54.1271 33.7882 53.9436V35.0822C37.35 34.4368 37.841 31.5534 38.209 29.3795Z" fill="white"/>
<path d="M40.5004 12.0236C41.3741 12.0236 42.0824 11.3153 42.0824 10.4416C42.0824 9.56783 41.3741 8.85956 40.5004 8.85956H40.4992C39.6255 8.85956 38.9178 9.56783 38.9178 10.4416C38.9178 11.3153 39.6266 12.0236 40.5004 12.0236Z" fill="white"/>
</g>
<defs>
<clipPath id="clip0">
<rect width="81" height="81" fill="white"/>
</clipPath>
</defs>
</svg>
