<svg width="68" height="68" viewBox="0 0 68 68" fill="none" xmlns="http://www.w3.org/2000/svg">
<g clip-path="url(#clip0_112:164)">
<path d="M32.8527 25.928C33.2957 26.3488 34.0324 26.2637 34.3691 25.7558L40.9989 15.7502C41.3029 15.2916 41.1773 14.6732 40.7187 14.3692C40.2606 14.0657 39.6422 14.1912 39.3382 14.6493L33.3637 23.6661L30.0439 20.5138C29.645 20.1351 29.0146 20.1517 28.6354 20.5507C28.2566 20.9496 28.2733 21.58 28.6722 21.9587C28.6717 21.9587 32.8491 25.9249 32.8527 25.928Z" fill="#0796EF"/>
<path d="M33.5318 41.121C33.7222 41.2082 33.9329 41.2543 34.1425 41.2543H34.1508C34.364 41.2533 34.5777 41.2045 34.7686 41.1132C49.9155 33.9097 52.4825 18.3675 52.9079 13.7756C53.0055 12.7271 52.4151 11.7508 51.4392 11.3461C48.424 10.0942 46.3742 7.2948 46.0899 4.04038C46.0022 3.03857 45.1462 2.25778 44.1376 2.25778H44.1257L23.7193 2.37762C22.6905 2.38333 21.8547 3.16516 21.7758 4.19601C21.5247 7.45148 19.5051 10.2712 16.5048 11.5547C15.5388 11.9676 14.963 12.9492 15.073 13.9972C15.5523 18.5839 18.3014 34.0954 33.5318 41.121ZM17.2882 13.386C20.967 11.813 23.4453 8.35938 23.7602 4.36929L44.1081 4.24997C44.4697 8.23123 46.9832 11.6532 50.6755 13.1858C50.8405 13.2548 50.9406 13.4177 50.9246 13.592C50.5251 17.8954 48.135 32.4057 34.1388 39.2056C20.0622 32.5712 17.504 18.0889 17.0537 13.7902C17.0356 13.6164 17.13 13.454 17.2882 13.386Z" fill="#0796EF"/>
<path d="M19.7758 18.9082C19.8962 19.3513 20.458 19.757 20.9986 19.6081C21.5288 19.4618 21.8427 18.9165 21.6985 18.3858C21.4448 17.4509 21.2315 16.5031 21.064 15.5641C23.77 13.8007 25.7783 11.1688 26.7635 8.09491L41.1488 8.01035C42.1698 11.0718 44.2086 13.6808 46.9354 15.4121C46.7793 16.3537 46.5769 17.3046 46.3336 18.2431C46.1956 18.7759 46.5157 19.3196 47.048 19.4576C47.5813 19.5956 48.1245 19.2756 48.2625 18.7427C48.5479 17.6408 48.7803 16.5223 48.9525 15.4183C49.049 14.8014 48.7668 14.195 48.2345 13.8733C45.6945 12.3392 43.8169 9.9325 42.948 7.09674C42.7524 6.45914 42.1511 6.01608 41.4839 6.01608H41.4746L26.4138 6.10428C25.7425 6.10843 25.1417 6.5603 24.9534 7.20258C24.1181 10.0482 22.2686 12.4767 19.7467 14.0409C19.2181 14.3682 18.9436 14.9778 19.0469 15.5942C19.2326 16.6956 19.4775 17.8105 19.7758 18.9082Z" fill="#0796EF"/>
<path d="M46.249 21.8617C45.7406 21.6511 45.1585 21.8939 44.9484 22.4023C42.6465 27.9815 39.0025 32.2232 34.1143 35.0148C29.1883 32.2771 25.4914 28.0712 23.1246 22.5097C22.9088 22.0039 22.3236 21.7683 21.8178 21.9836C21.3114 22.1989 21.0759 22.7841 21.2912 23.29C23.8743 29.3589 27.9437 33.9342 33.3865 36.8877C33.6158 37.0127 33.8669 37.0744 34.1174 37.0744C34.3743 37.0744 34.6305 37.0096 34.864 36.8794C40.2657 33.8657 44.2781 29.2504 46.7901 23.1618C47.0003 22.6534 46.758 22.0713 46.249 21.8617Z" fill="#0796EF"/>
<path d="M6.3909 53.2277C4.448 53.2277 2.8667 54.8085 2.8667 56.7519C2.8667 58.6953 4.448 60.2761 6.3909 60.2761C8.33432 60.2761 9.91562 58.6953 9.91562 56.7519C9.91562 54.8085 8.33484 53.2277 6.3909 53.2277ZM6.3909 58.2839C5.5463 58.2839 4.85889 57.597 4.85889 56.7519C4.85889 55.9073 5.5463 55.2199 6.3909 55.2199C7.23602 55.2199 7.92343 55.9073 7.92343 56.7519C7.92343 57.597 7.23602 58.2839 6.3909 58.2839Z" fill="#0796EF"/>
<path d="M67.2856 43.4758C66.0089 41.5999 63.4382 41.1028 61.5555 42.3677L48.5336 51.083L45.7539 50.9268L45.6828 50.215C45.4058 47.4275 43.2751 45.2065 40.5016 44.8143C40.4839 44.8117 40.4668 44.8097 40.4492 44.8081L26.4178 43.5786C25.9431 43.5044 24.4235 43.0681 20.2482 40.6733C18.0781 39.4287 15.633 38.7262 13.149 38.6308V36.0248C13.149 34.7169 12.0854 33.6534 10.7775 33.6534H2.37143C1.06406 33.6534 0 34.7175 0 36.0248V61.6903C0 62.9977 1.06406 64.0618 2.37143 64.0618H10.7775C12.0849 64.0618 13.149 62.9977 13.149 61.6903V60.9832L25.4144 65.628C25.4414 65.6384 26.4375 66.0109 28.2688 65.8381C28.274 65.8376 48.6488 62.9002 48.6488 62.9002C48.654 62.8997 48.6587 62.8986 48.6638 62.8976C50.4049 62.62 52.0469 61.8839 53.4129 60.77C53.4254 60.7596 53.4373 60.7492 53.4492 60.7389L66.6117 48.9004C68.1629 47.523 68.4529 45.191 67.2856 43.4758ZM65.2841 47.4151L52.1357 59.2411C51.0472 60.1236 49.7409 60.7072 48.3567 60.9293L27.9918 63.8651C27.9871 63.8657 27.9804 63.8667 27.9742 63.8677C27.971 63.8683 27.9674 63.8688 27.9643 63.8693C27.3552 63.9653 26.7207 63.9248 26.0779 63.7489L13.149 58.853V47.4773C13.149 46.9269 12.7028 46.4812 12.1529 46.4812C11.6024 46.4812 11.1568 46.9269 11.1568 47.4773V61.6903C11.1568 61.8994 10.9866 62.0696 10.7775 62.0696H2.37143C2.16235 62.0696 1.99219 61.8994 1.99219 61.6903V36.0248C1.99219 35.8158 2.16235 35.6456 2.37143 35.6456H10.7775C10.9866 35.6456 11.1568 35.8158 11.1568 36.0248V42.9778C11.1568 43.5282 11.6029 43.9739 12.1529 43.9739C12.7033 43.9739 13.149 43.5277 13.149 42.9778V40.625C15.2859 40.7195 17.3881 41.3296 19.2568 42.4019C24.2928 45.2901 25.6992 45.4893 26.1615 45.5547C26.1791 45.5573 26.1962 45.5588 26.2139 45.5609L40.2469 46.7904C42.0969 47.0638 43.5153 48.5497 43.7005 50.4122L43.7534 50.9429L24.9662 52.1029C24.9532 52.1019 24.9402 52.1009 24.9288 52.0998C24.3197 52.0448 23.7698 51.7569 23.3792 51.2889C23.0269 50.8661 22.3986 50.8091 21.9763 51.1618C21.5535 51.5141 21.4964 52.1424 21.8492 52.5647C22.5802 53.4414 23.6116 53.9659 24.7514 54.0842C25.3667 54.1486 44.8491 52.8713 44.8491 52.8713L48.7546 53.0907C48.9705 53.1032 49.1847 53.044 49.3642 52.9237L62.6652 44.0221C63.6421 43.3658 64.9759 43.6232 65.6384 44.5964C66.2439 45.4867 66.0934 46.6965 65.2841 47.4151Z" fill="#0796EF"/>
</g>
<defs>
<clipPath id="clip0_112:164">
<rect width="68" height="68" fill="white"/>
</clipPath>
</defs>
</svg>
