<svg width="70" height="70" viewBox="0 0 70 70" fill="none" xmlns="http://www.w3.org/2000/svg">
<g clip-path="url(#clip0_112:185)">
<path d="M65.3892 36.9447C65.9817 36.0803 66.3294 35.0354 66.3294 33.9106C66.3294 30.9444 63.9163 28.5311 60.9499 28.5311C60.6413 28.5311 60.3392 28.5588 60.0447 28.6088C57.385 20.7918 51.0922 14.6424 43.1866 12.1808C42.5972 10.4707 41.2878 9.0933 39.6212 8.41353C40.2139 7.5492 40.5614 6.50426 40.5614 5.37947C40.5616 2.41322 38.1482 0 35.182 0C32.2157 0 29.8025 2.41322 29.8025 5.37947C29.8025 6.50439 30.15 7.5492 30.7427 8.41353C29.0026 9.12338 27.6516 10.5937 27.1034 12.4093C19.4471 15.0355 13.3982 21.1489 10.8626 28.8463C10.2957 28.6427 9.68543 28.531 9.04941 28.531C6.08316 28.531 3.66994 30.9442 3.66994 33.9105C3.66994 35.0354 4.01748 36.0802 4.61016 36.9445C2.32148 37.8781 0.704102 40.1267 0.704102 42.747V43.7496C0.704102 44.6309 1.42105 45.3478 2.30234 45.3478H10.9689C13.8469 53.7186 20.8957 60.1646 29.6222 62.1931C27.9439 63.318 26.8365 65.2311 26.8365 67.3989V68.4015C26.8365 69.2828 27.5535 69.9997 28.4348 69.9997H41.9289C42.8102 69.9997 43.5271 69.2828 43.5271 68.4015V67.3989C43.5271 65.2976 42.4862 63.436 40.8937 62.2992C49.8378 60.3969 57.0898 53.8692 60.0194 45.3478H61.113C61.6794 45.3478 62.1384 44.8887 62.1384 44.3224C62.1384 43.7561 61.6794 43.297 61.113 43.297H54.6555V42.747C54.6555 40.6249 56.2326 38.8649 58.2761 38.5753C59.0644 39.029 59.977 39.29 60.95 39.29C61.9231 39.29 62.8357 39.029 63.624 38.5753C65.6675 38.8648 67.2446 40.6249 67.2446 42.747V43.297H65.8982C65.3317 43.297 64.8728 43.7561 64.8728 44.3224C64.8728 44.8887 65.3317 45.3478 65.8982 45.3478H67.6971C68.5783 45.3478 69.2952 44.6309 69.2952 43.7496V42.747C69.2953 40.1269 67.6778 37.8783 65.3892 36.9447ZM35.182 2.05078C37.0176 2.05078 38.5108 3.54402 38.5108 5.37947C38.5108 7.21492 37.0176 8.70816 35.182 8.70816C33.3465 8.70816 31.8533 7.21492 31.8533 5.37947C31.8533 3.54402 33.3465 2.05078 35.182 2.05078ZM28.8874 14.216C28.8874 12.0939 30.4645 10.3339 32.508 10.0443C33.2963 10.4979 34.2089 10.7589 35.182 10.7589C36.155 10.7589 37.0676 10.4979 37.8559 10.0443C39.8996 10.3337 41.4766 12.0939 41.4766 14.216V14.766H28.8874V14.216ZM9.04941 30.5819C10.885 30.5819 12.3782 32.0752 12.3782 33.9106C12.3782 35.7461 10.885 37.2393 9.04941 37.2393C7.21396 37.2393 5.72072 35.7461 5.72072 33.9106C5.72072 32.0752 7.2141 30.5819 9.04941 30.5819ZM2.75488 43.2973V42.7473C2.75488 40.6251 4.33193 38.8652 6.37547 38.5756C7.16379 39.0292 8.07639 39.2902 9.04941 39.2902C10.0224 39.2902 10.935 39.0292 11.7234 38.5756C13.767 38.865 15.3441 40.6251 15.3441 42.7473V43.2973H2.75488ZM41.4766 67.3992V67.9492H28.8874V67.3992C28.8874 65.277 30.4645 63.5171 32.508 63.2275C33.2963 63.6811 34.2089 63.9421 35.182 63.9421C36.155 63.9421 37.0676 63.6811 37.8559 63.2275C39.8996 63.5171 41.4766 65.277 41.4766 67.3992ZM31.8533 58.5626C31.8533 56.7272 33.3465 55.2338 35.182 55.2338C37.0176 55.2338 38.5108 56.7271 38.5108 58.5626C38.5108 60.3982 37.0176 61.8913 35.182 61.8913C33.3465 61.8913 31.8533 60.3981 31.8533 58.5626ZM56.5106 36.9448C54.2221 37.8783 52.6046 40.1269 52.6046 42.7473V43.7499C52.6046 44.6311 53.3215 45.3481 54.2027 45.3481H57.8375C54.9737 52.9328 48.3561 58.6869 40.2604 60.334C40.4545 59.7789 40.5614 59.1831 40.5614 58.5626C40.5614 55.5964 38.1482 53.183 35.1818 53.183C32.2155 53.183 29.8024 55.5963 29.8024 58.5626C29.8024 59.1287 29.8908 59.6744 30.0537 60.1873C22.2657 58.365 15.9348 52.7212 13.1508 45.3481H15.7963C16.6776 45.3481 17.3946 44.6311 17.3946 43.7499V42.7473C17.3946 40.1269 15.7771 37.8783 13.4884 36.9448C14.0811 36.0805 14.4286 35.0355 14.4286 33.9108C14.4286 32.3374 13.7495 30.9198 12.6693 29.9353C14.8162 22.9538 20.0826 17.3276 26.8363 14.6904V15.2188C26.8363 16.1001 27.5532 16.8171 28.4345 16.8171H41.9286C42.8099 16.8171 43.5269 16.1001 43.5269 15.2188V14.4573C50.3822 16.9142 55.7957 22.4205 58.1254 29.3348C56.5932 30.2839 55.5699 31.9797 55.5699 33.9109C55.5704 35.0355 55.9181 36.0805 56.5106 36.9448ZM60.95 37.2393C59.1145 37.2393 57.6212 35.7461 57.6212 33.9106C57.6212 32.0752 59.1145 30.5819 60.95 30.5819C62.7855 30.5819 64.2787 32.0752 64.2787 33.9106C64.2787 35.7461 62.7854 37.2393 60.95 37.2393Z" fill="#0796EF"/>
<path d="M49.3919 23.0191C49.3783 22.9744 49.3616 22.9306 49.342 22.8881C49.1192 22.4057 48.6319 22.0942 48.1005 22.0942H43.8405V21.3281C43.8405 20.5365 43.1965 19.8926 42.4049 19.8926H39.5111C38.9447 19.8926 38.4857 20.3517 38.4857 20.918C38.4857 21.4843 38.9447 21.9434 39.5111 21.9434H41.7897V24.2047H28.2091V21.9434H34.726C35.2924 21.9434 35.7514 21.4843 35.7514 20.918C35.7514 20.3517 35.2924 19.8926 34.726 19.8926H27.5939C26.8023 19.8926 26.1584 20.5365 26.1584 21.3281V22.094H21.8983C21.3669 22.094 20.8796 22.4056 20.6568 22.8879C20.6371 22.9305 20.6204 22.9742 20.6069 23.0189L18.2514 30.7459C18.1193 31.179 18.2013 31.6549 18.4707 32.019C18.5826 32.1702 18.7237 32.2943 18.8815 32.3899V32.8854C18.8815 34.0204 19.3976 35.0443 20.2025 35.7227V48.3984C20.2025 49.3408 20.9691 50.1074 21.9115 50.1074H48.0872C49.0296 50.1074 49.7962 49.3408 49.7962 48.3984V35.7224C50.6011 35.044 51.1172 34.0203 51.1172 32.8851V32.3896C51.275 32.2941 51.416 32.1701 51.528 32.0187C51.7975 31.6548 51.8794 31.1788 51.7473 30.7459L49.3919 23.0191ZM47.7456 48.0566H40.7934V46.0742C40.7934 45.5079 40.3344 45.0488 39.768 45.0488C39.2016 45.0488 38.7426 45.5079 38.7426 46.0742V48.0566H31.2562V40.017H38.7426V41.2891C38.7426 41.8554 39.2016 42.3145 39.768 42.3145C40.3344 42.3145 40.7934 41.8554 40.7934 41.2891V39.4018C40.7934 38.6102 40.1495 37.9663 39.3579 37.9663H30.641C29.8494 37.9663 29.2054 38.6102 29.2054 39.4018V48.0566H22.2533V36.559C22.3099 36.5628 22.3669 36.5656 22.4242 36.5667C23.3962 36.5873 24.3142 36.2184 24.9957 35.5603C25.6607 36.2008 26.5516 36.5673 27.4963 36.5673C28.4413 36.5673 29.3323 36.2007 29.9973 35.5599C30.6623 36.2007 31.5533 36.5673 32.4984 36.5673C33.4434 36.5673 34.3344 36.2005 34.9994 35.5599C35.6644 36.2007 36.5554 36.5673 37.5004 36.5673C38.4455 36.5673 39.3365 36.2007 40.0015 35.5599C40.6665 36.2007 41.5575 36.5673 42.5025 36.5673C43.4473 36.5673 44.3381 36.2008 45.0031 35.5603C45.6683 36.2026 46.5573 36.5673 47.5042 36.5673C47.5276 36.5673 47.5513 36.5672 47.5747 36.5667C47.6319 36.5656 47.689 36.5628 47.7456 36.559V48.0566ZM49.0665 32.8852C49.0665 33.7684 48.3798 34.5003 47.5356 34.5163C47.5256 34.5164 47.5155 34.5166 47.5052 34.5166C46.979 34.5166 46.494 34.2553 46.203 33.8134C45.9357 33.4076 45.4878 33.1654 45.0046 33.1652C45.0045 33.1652 45.0044 33.1652 45.0042 33.1652C44.5206 33.1652 44.0721 33.4078 43.804 33.814C43.5138 34.2539 43.0273 34.5166 42.5025 34.5166C41.9778 34.5166 41.4914 34.2539 41.2011 33.8141C40.9333 33.4079 40.4848 33.1655 40.0014 33.1655C39.5181 33.1655 39.0697 33.4079 38.8018 33.8141C38.5117 34.2539 38.0251 34.5166 37.5004 34.5166C36.9757 34.5166 36.4892 34.2541 36.1991 33.8141C35.9313 33.4079 35.4827 33.1655 34.9994 33.1655C34.5161 33.1655 34.0675 33.4079 33.7997 33.8141C33.5096 34.2539 33.0231 34.5166 32.4984 34.5166C31.9737 34.5166 31.4872 34.2541 31.197 33.8141C30.9292 33.4079 30.4807 33.1655 29.9974 33.1655C29.514 33.1655 29.0655 33.4079 28.7977 33.814C28.5076 34.2539 28.021 34.5166 27.4963 34.5166C26.9716 34.5166 26.4851 34.2539 26.1949 33.8141C25.9268 33.4078 25.4782 33.1652 24.9946 33.1652C24.9945 33.1652 24.9943 33.1652 24.9942 33.1652C24.5112 33.1654 24.0631 33.4076 23.7959 33.8136C23.5048 34.2554 23.0197 34.5166 22.4936 34.5166C22.4835 34.5166 22.4734 34.5166 22.4633 34.5163C21.619 34.5002 20.9323 33.7684 20.9323 32.8852V32.6002H49.0664V32.8852H49.0665ZM20.4553 30.5494L22.4075 24.1448H26.1584V24.8199C26.1584 25.6115 26.8023 26.2555 27.5939 26.2555H42.4049C43.1965 26.2555 43.8405 25.6115 43.8405 24.8199V24.1448H47.5913L49.5435 30.5494H20.4553Z" fill="#0796EF"/>
</g>
<defs>
<clipPath id="clip0_112:185">
<rect width="70" height="70" fill="white"/>
</clipPath>
</defs>
</svg>
