<svg width="23" height="24" fill="none" xmlns="http://www.w3.org/2000/svg"><path d="M4.439.974H.124v4.38h4.315V.973zm7.911 0H8.033v4.38h4.315V.973zm7.91 0h-4.315v4.38h4.315V.973zM4.439 9.003H.124v4.38h4.315v-4.38zm0 8.029H.124v4.38h4.315v-4.38z" fill="#72BF00"/><path d="M6.596 23.601h15.821V7.543H6.596v16.058zm9.014-13.257h4.048v4.108H15.61v-4.108zm0 6.442h4.048v4.108H15.61v-4.108zM9.447 10.25h4.048v4.108H9.447v-4.107zm0 6.536h4.048v4.108H9.447v-4.108z" fill="#BDCCD4"/><path d="M13.068 9.733H8.753v4.38h4.315v-4.38zm6.472 0h-4.314v4.38h4.315v-4.38zm-6.472 6.569H8.753v4.38h4.315v-4.38zm6.472 0h-4.314v4.38h4.315v-4.38z" fill="#03755F"/></svg>