<svg width="137" height="96" fill="none" xmlns="http://www.w3.org/2000/svg"><path d="M125.282 38.4H89.094V11.16m36.188 27.24L134 49.2v28.44h-14.761m6.043-39.24s-2.513-21.762-12.899-27.24c-8.051-4.247-23.288 0-23.288 0M8.718 56.04h25.08M0 38.4h44.189M7.643 20.64h43.473m37.978-9.48V3H14.332v74.64H29.54m75.2-14.52c-20.77-.005-19.215 29.873-.597 29.88m.597-29.88c10.195 0 14.728 7.193 14.499 14.52M104.74 63.12c-10.196 0-15.015 7.193-15.08 14.52M104.143 93c9.49 0 14.859-7.753 15.096-15.36M104.143 93c-9.49 0-14.55-7.753-14.483-15.36m-60.12 0c.018-7.327 4.746-14.52 14.649-14.52 9.903 0 14.63 7.193 14.65 14.52m-29.3 0C29.52 85.247 34.578 93 44.19 93s14.668-7.753 14.65-15.36m30.821 0H58.838" stroke="#fff" stroke-width="6"/></svg>