<svg width="88" height="121" fill="none" xmlns="http://www.w3.org/2000/svg"><path d="M39.454 17.201c1.38-.22 2.794-.335 4.236-.335 14.692 0 26.603 11.91 26.603 26.603 0 14.692-11.911 26.603-26.603 26.603-14.693 0-26.603-11.91-26.603-26.603 0-11.047 6.733-20.521 16.32-24.543" stroke="#fff" stroke-width="6"/><path d="M26.7 74.285c.877.084 1.771.26 2.682.593 6.29 2.294 7.725 9.424 14.42 9.278a8.64 8.64 0 002.011-.273M26.7 74.285c-4.206-.402-8.03 1.325-11.513-1.754-4.714-4.168-.993-9.927-3.353-15.76-2.42-5.985-8.988-7.52-8.83-13.973.157-6.453 7.073-7.544 9.5-13.525 2.236-5.506-1.56-10.82 2.684-14.978 4.26-4.174 9.559-.115 15.09-2.347 5.604-2.262 6.59-8.727 12.63-8.943 6.365-.227 7.678 6.698 13.637 8.943 5.581 2.102 10.796-1.792 15.09 2.347 4.29 4.135.622 9.475 2.906 14.978 2.475 5.962 9.322 7.073 9.501 13.525.178 6.406-6.661 7.866-8.607 13.972-1.612 5.062 1.663 9.222-1.453 13.525-3.19 4.406-8.096 2.801-13.078 3.591m-34.203.4L13.845 106.51l12.854-3.018 6.484 10.731 12.63-30.341m0 0c4.837-1.268 6.526-6.583 11.737-9.005 1.11-.515 2.233-.814 3.353-.992m-13.748 24.69l6.818 15.649 6.93-10.731 13.078 3.018-13.078-32.625M34.971 43.47l7.936 10.619 12.296-19.114" stroke="#fff" stroke-width="6"/></svg>