<svg width="74" height="74" fill="none" xmlns="http://www.w3.org/2000/svg"><path d="M72.64 26.342a5.356 5.356 0 00-3.26-1.741v-.003L49.711 21.88 41.93 3.285a5.34 5.34 0 00-9.857 0L24.29 21.88 4.623 24.598a5.357 5.357 0 00-2.825 9.305l14.818 13.213L13.57 67.85a5.285 5.285 0 002.452 5.32 5.267 5.267 0 005.838-.108L37 62.766l15.14 10.306a5.346 5.346 0 008.29-5.211l-3.044-20.742 14.817-13.214a5.357 5.357 0 00.436-7.563zm-19.836 17.79a2.643 2.643 0 00-.853 2.358l3.17 22.198-16.627-11.305a2.642 2.642 0 00-2.97 0L18.798 68.62l3.253-22.14a2.643 2.643 0 00-.853-2.347L5.342 29.84l21.162-2.92a2.642 2.642 0 002.077-1.6l8.452-20.036a.1.1 0 01.02.04l8.365 19.986a2.642 2.642 0 002.077 1.6l21.189 3.049-15.88 14.172z" fill="#661B36"/></svg>