<svg width="25" height="25" fill="none" xmlns="http://www.w3.org/2000/svg"><path d="M9.302 2.508l-1.545.663c-.812-.682-1.303-.982-2.306-1.227C3.916 3.23 3.152 4 2.091 5.525c.173 1.017.448 1.463 1.08 2.159L2.68 9.278C1.538 9.37.98 9.51.153 9.94c-.19 2.05-.218 3.2 0 5.249.994.496 1.545.522 2.527.54l.49 1.545c-.603.652-.858 1.197-1.25 2.305l3.85 3.483c.844-.207 1.295-.397 1.987-1.103l1.545.54c.006.912.16 1.465.613 2.501h5.323c.519-.98.588-1.527.564-2.502l1.545-.54c.808.527 1.205.85 2.575 1.104l3.385-3.483c-.273-1.055-.56-1.545-1.226-2.305l.711-1.545c1.034-.088 1.549-.184 2.207-.54V9.94c-.684-.424-1.158-.577-2.207-.662l-.711-1.594c.64-.588.902-1.031 1.226-1.987-1.221-1.483-2.01-2.306-3.654-3.753-1.048.208-1.54.5-2.306 1.227l-1.545-.663c-.151-1.295-.284-1.75-.564-2.33-2.211-.227-3.388-.247-5.323 0-.365.852-.497 1.363-.613 2.33z" fill="#000"/><circle cx="12.484" cy="12.485" r="4.292" fill="#fff"/></svg>