<svg width="28" height="28" fill="none" xmlns="http://www.w3.org/2000/svg"><path fill-rule="evenodd" clip-rule="evenodd" d="M6.443 6.444C1.876 11.01 1.35 17.298 4.578 20.526c3.228 3.229 9.515 2.702 14.082-1.866 4.568-4.567 5.095-10.854 1.866-14.082-3.228-3.229-9.515-2.702-14.083 1.866zm-3.23 15.448c-4.274-4.273-3.13-11.82 1.865-16.814S17.62-1.06 21.892 3.212s3.128 11.82-1.866 16.814c-4.995 4.995-12.541 6.139-16.814 1.866z" fill="#040F1F"/><path fill-rule="evenodd" clip-rule="evenodd" d="M21.869 3.188l3.089 3.088c4.278 4.27 3.13 11.816-1.866 16.813-3.935 3.935-9.37 5.486-13.63 3.89l.678-1.808c3.377 1.265 8.041.098 11.586-3.447 4.572-4.572 5.098-10.856 1.867-14.081l-3.09-3.09 1.366-1.365z" fill="#040F1F"/><path d="M9.056 5.679a12.25 12.25 0 00-1.852 1.523c-3.848 3.847-4.52 9.411-1.502 12.422l7.223-7.223-3.87-6.722z" fill="#1673FF"/><path fill-rule="evenodd" clip-rule="evenodd" d="M17.922 7.42c-1.237-1.624-3.465-2.15-5.85-1.288l-.656-1.816c2.966-1.072 6.17-.525 8.042 1.934l.002.002c1.314 1.732 1.63 3.994 1.184 6.184-.446 2.196-1.666 4.394-3.537 6.103l-.001.001c-2.949 2.687-6.858 3.53-9.747 1.922l.94-1.687c1.947 1.084 4.965.653 7.505-1.662l2.118-9.693zm0 0c.9 1.187 1.193 2.845.83 4.632-.362 1.782-1.368 3.62-2.947 5.061m9.735-.48l-2.8-2.802 1.365-1.365 2.801 2.801-1.365 1.366zm-7.318 5.841l1.738 1.737-1.024 1.024-1.738-1.737 1.024-1.024z" fill="#040F1F"/></svg>