<svg width="170" height="170" fill="none" xmlns="http://www.w3.org/2000/svg"><ellipse cx="85" cy="84.63" rx="85" ry="84.557" fill="#0A0909"/><path d="M71.549 48.741c5.736-1.583 11.012-2.292 15.828-2.318m35.561 20.053c-1.821-3.79-4.073-7.15-8.231-10.558M81.362 40.766l6.015 5.657m0 0c5.526-.03 10.445.839 14.757 2.318m-9.481 8.29l9.481-8.29m0 0c4.652 1.596 9.336 4.524 12.573 7.177M71.549 37.303c18.15-11.018 43.158 7.233 43.158 18.615m0 0c-4.432 13.069-31.973 18.533-42.42 11.18C61.84 59.744 58.711 57.388 51.5 57.03l6.965-10.608M63 42.13l2.955-2.728m19.416 94.968c4.36-1.388 8.282-2.736 11.818-4.147m28.808-32.056c-1.522 5.653-3.355 10.281-5.636 14.166m-11.353-1.469l1.266 12.516m0 0c4.125-2.961 7.414-6.493 10.087-11.047m-10.087 11.047c-3.654 2.624-7.964 4.8-13.085 6.843m31.024-20.199l-7.852 2.309m-23.172 17.89c-6.542-20.199-1.39-36.77 21.105-44.334 5.212-2.24 7.107-4.102 9.919-7.765 22.107 29.32-.947 59.224-31.024 52.099zM44.746 67.098c-1.553 4.56-3.897 8.668-4.489 12.495m15.99 40.4c-3.505-4.436-6.393-8.458-8.678-12.277m5.513-9.55l-11.099-3.462m0 0c1.04 4.29 2.893 8.51 5.586 13.012m-5.586-13.012c-1.16-4.79-2.568-9.665-1.726-15.111m3.328 36.518l3.984-8.395m-7.312-28.123c-15.35 15.11-7.647 53.623 35.618 53.623-.33-7.787-.844-6.821-.844-19.938 0-13.118-14.563-32.321-34.774-33.685z" stroke="#fff" stroke-width="2"/></svg>