<svg width="116" height="115" viewBox="0 0 116 115" fill="none" xmlns="http://www.w3.org/2000/svg">
<path d="M38.6539 39.7661C39.6564 1.32169 82.6338 -6.22623 103.16 13.6295C123.686 33.4852 109.824 74.4792 82.5356 76.6M62.3591 26.9733C66.5279 14.2909 87.5911 16.9377 87.5911 26.9733C87.5911 37.0089 62.8601 39.6556 63.8474 50.794C64.8347 61.9324 86.8853 62.8146 91.4929 50.794M58.8395 34.2518H93.6158M58.8395 43.8463H93.6158M21.1012 77.0409C33.1687 72.9605 31.6328 46.8236 39.3121 45.5002C46.9914 44.1769 45.0168 69.2109 45.0168 69.2109C45.0168 69.2109 62.2403 69.2109 71.2361 69.2109C80.2318 69.2109 79.3542 80.1288 71.2361 80.1288M71.2361 80.1288H59.9365M71.2361 80.1288C79.4639 80.1288 79.1348 90.6055 71.2361 90.6055C63.3374 90.6055 68.8226 90.6055 68.8226 90.6055M57.4133 90.6055H68.8226M68.8226 90.6055C77.7086 90.6055 76.3922 100.641 68.8226 100.641C61.253 100.641 65.7509 100.641 65.7509 100.641M56.0969 100.641H65.7509M65.7509 100.641C76.0631 100.641 76.0631 112 65.7509 112C55.4387 112 37.3375 112 33.2784 112C29.2193 112 21.1012 108.581 21.1012 108.581M21.1012 108.581V72.9605H3V112H21.1012V108.581ZM92.8478 86.0839V90.7709M92.8478 95.4578V90.7709M92.8478 90.7709H88.2403H97.4554M28.1223 20.9078V25.8705M28.1223 30.8331V25.8705M28.1223 25.8705H23.1856H33.3881" stroke="white" stroke-width="6"/>
</svg>
