<svg width="86" height="86" viewBox="0 0 86 86" fill="none" xmlns="http://www.w3.org/2000/svg">
<path d="M49.7188 38.9688C48.7916 38.9688 48.0391 39.7212 48.0391 40.6484C48.0391 41.5756 48.7916 42.3281 49.7188 42.3281C50.6459 42.3281 51.3984 41.5756 51.3984 40.6484C51.3984 39.7212 50.6459 38.9688 49.7188 38.9688Z" fill="black"/>
<path d="M43 28.8906C42.0728 28.8906 41.3203 29.6431 41.3203 30.5703C41.3203 31.4975 42.0728 32.25 43 32.25C43.9272 32.25 44.6797 31.4975 44.6797 30.5703C44.6797 29.6431 43.9272 28.8906 43 28.8906Z" fill="black"/>
<path d="M22.8438 72.5625C21.9166 72.5625 21.1641 73.315 21.1641 74.2422C21.1641 75.1694 21.9166 75.9219 22.8438 75.9219C23.7709 75.9219 24.5234 75.1694 24.5234 74.2422C24.5234 73.315 23.7709 72.5625 22.8438 72.5625Z" fill="black"/>
<path d="M76.3278 68.4772L54.7579 30.1304V9.79023C56.7132 9.09702 58.1173 7.22904 58.1173 5.03906C58.1173 2.26052 55.8568 0 53.0782 0H32.922C30.1434 0 27.8829 2.26052 27.8829 5.03906C27.8829 7.22904 29.287 9.09702 31.2423 9.79023V30.1304L9.67241 68.4772C7.60169 72.1584 7.63847 76.5328 9.7705 80.1784C11.9024 83.8236 15.6964 86 19.9195 86H66.0807C70.3038 86 74.0977 83.8236 76.2297 80.1784C78.3617 76.5328 78.3985 72.1584 76.3278 68.4772ZM34.386 31.3937C34.5274 31.1424 34.6017 30.8587 34.6017 30.5703V10.0781H36.2813C37.2089 10.0781 37.961 9.32596 37.961 8.39844C37.961 7.47091 37.2089 6.71875 36.2813 6.71875H32.922C31.9958 6.71875 31.2423 5.96524 31.2423 5.03906C31.2423 4.11288 31.9958 3.35938 32.922 3.35938H53.0782C54.0044 3.35938 54.7579 4.11288 54.7579 5.03906C54.7579 5.96524 54.0044 6.71875 53.0782 6.71875H49.7188C48.7913 6.71875 48.0392 7.47091 48.0392 8.39844C48.0392 9.32596 48.7913 10.0781 49.7188 10.0781H51.3985V30.5703C51.3985 30.8589 51.4728 31.1422 51.6142 31.3937L61.5145 48.9946C55.4684 48.505 49.4434 49.7278 43.9078 52.5942C36.7916 56.2768 28.8697 56.9251 21.4 54.48L34.386 31.3937ZM73.3297 78.4824C71.8071 81.0861 69.0971 82.6406 66.0807 82.6406H19.9195C16.9031 82.6406 14.1931 81.0861 12.6705 78.4824C11.1475 75.8784 11.1211 72.7536 12.6004 70.1239L19.7237 57.4604C23.1798 58.6673 26.7515 59.2765 30.3791 59.2765C30.9161 59.2765 31.4544 59.2632 31.9938 59.2365C36.6809 59.0044 41.2089 57.7734 45.4521 55.5775C51.1281 52.6387 57.371 51.6242 63.5563 52.6244L73.3999 70.1239C74.8791 72.7536 74.8529 75.8784 73.3297 78.4824Z" fill="black"/>
<path d="M36.2812 38.9688C33.5027 38.9688 31.2422 41.2293 31.2422 44.0078C31.2422 46.7864 33.5027 49.0469 36.2812 49.0469C39.0598 49.0469 41.3203 46.7864 41.3203 44.0078C41.3203 41.2293 39.0598 38.9688 36.2812 38.9688ZM36.2812 45.6875C35.3551 45.6875 34.6016 44.934 34.6016 44.0078C34.6016 43.0816 35.3551 42.3281 36.2812 42.3281C37.2074 42.3281 37.9609 43.0816 37.9609 44.0078C37.9609 44.934 37.2074 45.6875 36.2812 45.6875Z" fill="black"/>
<path d="M63.1562 72.5625H29.5625C28.635 72.5625 27.8828 73.3147 27.8828 74.2422C27.8828 75.1697 28.635 75.9219 29.5625 75.9219H63.1562C64.0838 75.9219 64.8359 75.1697 64.8359 74.2422C64.8359 73.3147 64.0838 72.5625 63.1562 72.5625Z" fill="black"/>
</svg>
