<svg width="86" height="86" viewBox="0 0 86 86" fill="none" xmlns="http://www.w3.org/2000/svg">
<path d="M34.5749 12.33C27.0617 4.82071 12.3594 3.94995 1.95257 3.94995C0.874783 3.94995 0 4.82455 0 5.90233C0 16.3091 0.866912 31.0115 8.38009 38.5248C11.551 41.6958 16.4128 43.1133 21.2315 43.1133C26.4681 43.1133 31.6578 41.438 34.5749 38.521C40.1708 32.9251 41.1979 18.949 34.5749 12.33ZM31.8142 35.7639C27.6357 39.9383 16.034 40.6529 11.145 35.7639C5.08048 29.6996 4.02997 17.3792 3.91666 7.86661C13.4293 7.97992 25.7496 9.03024 31.814 15.0948C36.7032 19.9838 35.9886 31.5895 31.8142 35.7639Z" fill="black"/>
<path d="M84.0476 11.6741C73.6408 11.6741 58.9384 12.541 51.4251 20.0542C44.8022 26.6731 45.8291 40.6492 51.4251 46.2451C54.3421 49.1583 59.528 50.8336 64.7646 50.8336C69.5834 50.8336 74.4412 49.4199 77.6199 46.2491C85.1292 38.736 85.9999 24.0336 85.9999 13.6266C86.0001 12.5489 85.1254 11.6741 84.0476 11.6741ZM74.8513 43.4842C69.9623 48.3732 58.3565 47.6586 54.1821 43.4842C50.0077 39.3098 49.2931 27.7041 54.1821 22.8151C60.2467 16.7505 72.5668 15.7002 82.0794 15.5869C81.9663 25.1033 80.9158 37.4237 74.8513 43.4842Z" fill="black"/>
<path d="M69.9466 28.575C69.4859 27.5947 68.166 27.259 67.1936 27.7119C52.218 34.7526 44.8609 47.03 41.5181 59.6509C37.3827 32.8156 25.4217 24.6347 20.3491 21.1632C19.7165 20.7297 19.2244 20.4134 18.9511 20.144C18.1897 19.3825 16.9517 19.3825 16.1902 20.144C15.4288 20.9055 15.4288 22.1434 16.1902 22.9049C16.5768 23.2876 17.2446 23.768 18.1467 24.3848C23.8636 28.2938 39.0501 38.685 39.0501 80.0976C39.0501 81.1754 39.9249 82.0502 41.0027 82.0502C42.0804 82.0502 42.9552 81.1754 42.9552 80.1017C42.9552 63.3688 47.45 41.3094 68.8571 31.25C68.8571 31.2462 69.1735 31.0977 69.1735 31.0977C70.1458 30.6368 70.4074 29.5511 69.9466 28.575Z" fill="black"/>
</svg>
