<svg width="81" height="81" viewBox="0 0 81 81" fill="none" xmlns="http://www.w3.org/2000/svg">
<path d="M32.0589 80.6C28.3291 80.6 24.5998 79.2144 21.7553 76.4404C20.4097 75.1282 19.3416 73.6003 18.5805 71.8988C16.6117 67.4966 13.103 63.9878 8.70074 62.0191C6.99932 61.2582 5.47138 60.1901 4.15918 58.8443C-1.40127 53.1417 -1.38417 43.8791 4.19733 38.1961C6.46811 35.884 9.35795 34.4113 12.5542 33.937C14.3726 33.6671 15.9895 32.8562 17.23 31.5921L17.3263 31.4949C20.7856 28.0356 25.7197 26.5212 31.2194 27.2311C36.4903 27.9116 41.6862 30.5795 45.8503 34.7436C50.0143 38.9076 52.6824 44.1036 53.3627 49.3745C54.0726 54.8743 52.5585 59.8083 49.099 63.2678L49.0116 63.3545C47.7439 64.6007 46.9323 66.2194 46.6637 68.0367C46.1909 71.2351 44.7185 74.1269 42.4061 76.3994C39.5574 79.199 35.8078 80.6 32.0589 80.6ZM28.6513 31.796C25.5663 31.796 22.7466 32.7902 20.684 34.8528L20.6202 34.9172C18.6486 36.9264 16.1008 38.2113 13.2512 38.6343C11.0852 38.9558 9.1259 39.9549 7.58498 41.5236C3.79892 45.3784 3.78721 51.6613 7.55886 55.5292C8.45097 56.4441 9.48743 57.1692 10.6393 57.6844C16.1092 60.1307 20.4689 64.4904 22.9152 69.9603C23.4304 71.1123 24.1555 72.1488 25.0703 73.0407C28.9393 76.8135 35.2231 76.8008 39.0778 73.0127C40.6471 71.4707 41.6459 69.51 41.9663 67.3426C42.3873 64.4944 43.672 61.9448 45.6816 59.9696L45.7412 59.9104C48.1363 57.5153 49.1704 53.9897 48.6531 49.9828C48.1062 45.747 45.9184 41.5276 42.4924 38.1016C38.3689 33.9778 33.22 31.796 28.6513 31.796Z" fill="black"/>
<path d="M47.8703 24.4605C45.1317 24.4605 42.679 23.4943 40.8579 21.6732C38.7325 19.5479 37.7717 16.5618 38.1523 13.265C38.5093 10.1735 40.0263 7.15055 42.424 4.75283C44.8216 2.35526 47.8445 0.838241 50.936 0.481147C54.233 0.100942 57.2187 1.06158 59.3442 3.18674C61.4697 5.31221 62.4305 8.29829 62.05 11.5951C61.693 14.6866 60.176 17.7095 57.7783 20.1071C55.3807 22.5048 52.3576 24.0218 49.2661 24.3788C48.7939 24.4334 48.3281 24.4605 47.8703 24.4605ZM52.3104 5.14965C52.0399 5.14965 51.7631 5.1658 51.4807 5.1984C49.4489 5.43298 47.4249 6.46723 45.7817 8.1104C44.1384 9.75373 43.1042 11.7777 42.8696 13.8095C42.6586 15.6361 43.1368 17.2363 44.2157 18.3153C45.2947 19.3943 46.8953 19.8722 48.7214 19.6615C50.7532 19.4269 52.7772 18.3927 54.4205 16.7494C56.0639 15.106 57.0981 13.0822 57.3325 11.0504C57.5435 9.22379 57.0654 7.62367 55.9863 6.54463C55.0743 5.63243 53.7895 5.14965 52.3104 5.14965Z" fill="black"/>
<path d="M15.995 25.6687C13.2562 25.6687 10.8037 24.7025 8.98259 22.8815C6.85712 20.7561 5.89616 17.7702 6.27684 14.4734C6.63377 11.3819 8.15079 8.3589 10.5485 5.96118C12.9461 3.56361 15.9692 2.04659 19.0605 1.6895C22.3578 1.30898 25.3434 2.26994 27.4687 4.39509C29.5942 6.52056 30.5552 9.50664 30.1745 12.8034C29.8175 15.8949 28.3005 18.9179 25.9028 21.3155C23.5052 23.7132 20.4821 25.2302 17.3906 25.5871C16.9188 25.6417 16.4528 25.6687 15.995 25.6687ZM20.4351 6.358C20.1646 6.358 19.8877 6.37415 19.6054 6.40676C17.5736 6.64134 15.5496 7.67558 13.9064 9.31875C12.2629 10.9622 11.2288 12.9863 10.9941 15.018C10.7833 16.8446 11.2613 18.4448 12.3403 19.5238C13.4192 20.6027 15.019 21.0812 16.8461 20.8699C18.8779 20.6353 20.9019 19.6011 22.5452 17.9577C24.1886 16.3144 25.2228 14.2904 25.4572 12.2588C25.6682 10.4321 25.19 8.83202 24.1111 7.75298C23.1989 6.84078 21.9141 6.358 20.4351 6.358Z" fill="black"/>
<path d="M66.7387 43.329C64 43.329 61.5473 42.3628 59.7262 40.5419C57.6008 38.4164 56.6398 35.4305 57.0205 32.1337C57.3774 29.0422 58.8944 26.0193 61.2922 23.6216C63.6897 21.224 66.7129 19.707 69.8044 19.35C73.1008 18.9687 76.0871 19.9303 78.2125 22.0556C80.338 24.1809 81.299 27.167 80.9183 30.4638C80.5614 33.5553 79.0443 36.5783 76.6468 38.976C74.249 41.3735 71.2259 42.8906 68.1346 43.2477C67.6624 43.3019 67.1964 43.329 66.7387 43.329ZM71.1788 24.0184C70.9082 24.0184 70.6314 24.0345 70.349 24.0671C68.3173 24.3017 66.2932 25.336 64.6499 26.9793C63.0066 28.6226 61.9723 30.6465 61.7377 32.6782C61.5269 34.5049 62.0049 36.105 63.084 37.184C64.163 38.2631 65.7635 38.7416 67.5898 38.5301C69.6215 38.2955 71.6456 37.2613 73.2889 35.6181C74.9322 33.9748 75.9665 31.9507 76.2009 29.919C76.4119 28.0924 75.9337 26.4922 74.8548 25.4132C73.9426 24.501 72.6579 24.0184 71.1788 24.0184Z" fill="black"/>
<path d="M65.1425 74.8165C62.4038 74.8165 59.9511 73.8504 58.13 72.0294C56.0046 69.904 55.0436 66.918 55.4243 63.6212C55.7812 60.5297 57.2983 57.5068 59.696 55.1091C62.0935 52.7115 65.1167 51.1945 68.2082 50.8375C71.5046 50.4564 74.4909 51.4178 76.6163 53.5431C78.7418 55.6684 79.7028 58.6545 79.3221 61.9513C78.9652 65.0428 77.4481 68.0658 75.0506 70.4635C72.6528 72.8611 69.6297 74.3781 66.5384 74.7352C66.0662 74.7896 65.6002 74.8165 65.1425 74.8165ZM69.5826 55.506C69.312 55.506 69.0352 55.5222 68.7528 55.5548C66.7211 55.7894 64.697 56.8236 63.0537 58.4669C61.4104 60.1103 60.3761 62.1341 60.1416 64.1659C59.9307 65.9925 60.4087 67.5926 61.4878 68.6717C62.5667 69.7507 64.1674 70.2289 65.9936 70.0178C68.0253 69.7832 70.0493 68.7489 71.6927 67.1058C73.336 65.4624 74.3703 63.4384 74.6047 61.4067C74.8157 59.58 74.3375 57.9799 73.2586 56.9009C72.3464 55.9887 71.0617 55.506 69.5826 55.506Z" fill="black"/>
</svg>
