<svg width="120" height="145" viewBox="0 0 120 145" fill="none" xmlns="http://www.w3.org/2000/svg">
<path d="M57.6443 57.9609C67.012 36.6772 73.3816 25.4217 85.8106 6C85.8106 6 120.328 53.9319 116.738 80.0512C113.148 106.171 63.9955 110.755 57.6443 80.0512M83.1872 89.6376C94.9231 91.0269 105.002 82.9688 105.002 68.5198M56.1255 63.935C55.1742 67.4381 54.8481 69.3124 56.1255 71.8542M52.3976 100.474C52.3976 100.474 30.0367 125.947 38.3145 135.763C45.3264 144.079 59.0547 144.079 66.0666 135.763C74.4763 125.79 52.3976 100.474 52.3976 100.474ZM22.1603 51.9868C22.1603 51.9868 -1.17361 80.0512 3.65891 95.056C7.83132 108.011 33.5111 107.788 38.3145 95.056C43.9754 80.0512 22.1603 51.9868 22.1603 51.9868Z" stroke="#484848" stroke-width="6"/>
</svg>
