<svg width="147" height="142" viewBox="0 0 147 142" fill="none" xmlns="http://www.w3.org/2000/svg">
<path d="M107.578 29.8452L73.1551 4L5 55.6904L13.8298 65.1762L18.7966 61.5852M107.578 29.8452V14.4481H123.651V41.9132M107.578 29.8452L123.651 41.9132M123.651 41.9132L142 55.6904L131.377 66.9633L126.41 63.1518M18.7966 61.5852L73.1551 22.2841L126.41 63.1518M18.7966 61.5852V139H33.283M126.41 110.268V139H33.283M5 139H33.283M142 139H33.283M33.283 108.756V139M33.283 97.8951V102.294M126.41 63.1518V91.8462M126.41 97.8951V102.294M72.5342 65.1762H45.5619V90.6777M72.5342 65.1762H99.5065V90.6777M72.5342 65.1762V116.179M72.5342 116.179H99.5065V90.6777M72.5342 116.179H45.5619V90.6777M45.5619 90.6777H99.5065" stroke="#484848" stroke-width="6"/>
</svg>
