<svg width="145" height="123" viewBox="0 0 145 123" fill="none" xmlns="http://www.w3.org/2000/svg">
<path d="M60.7535 14.8376H47.0493M84.666 14.8376H96.832M19.0815 14.8376H3V28.74H10.831M19.0815 14.8376V3H47.0493V14.8376M19.0815 14.8376H47.0493M96.832 14.8376V3H124.8V14.8376M96.832 14.8376H124.8M124.8 14.8376H142V28.74H132.771M132.771 28.74V103.62M132.771 28.74H10.831M132.771 103.62H10.831M132.771 103.62H142V120H3V103.62H10.831M10.831 103.62V28.74M25.6539 67.0059H41.3159M111.235 59.5729V74.7141M102.705 67.0059H119.626M66.9064 14.8376H74.1781M74.1781 41.2659L56.5584 70.7224H69.9829V93.0212L88.3018 63.7024H74.1781V41.2659Z" stroke="#484848" stroke-width="6"/>
</svg>
