<svg width="92" height="120" fill="none" xmlns="http://www.w3.org/2000/svg"><path d="M16.035 110.809l.14.191-2.579-23.746 23-13.732-14.749-3.304c27.329-2.076 38.428-5.065 53.53-19.203l-9.695-3.717h13.923C88.47 36.006 89.59 26.15 88.785 6l-12.48 10.738-4.126 11.15-2.372-7.95-13.305 5.575c-.823 7.406-2.787 11.094-8.354 17.036V27.888C9.16 33.36 12.152 56.383 11.946 60.307c-.207 3.923-1.96-13.01-1.96-13.01C3.056 59.865-.225 67.127 7.305 84.88c-.513 13.358 2.835 17.912 8.73 25.93z" stroke="#B65E20" stroke-width="5"/></svg>