<svg width="108" height="105" fill="none" xmlns="http://www.w3.org/2000/svg"><path d="M24.517 44.624v-6.836H3V102h21.517v-7.56m0-49.816h6.485c12.14.276 20.152-32.389 21.002-36.767 1.775-9.137 11.94-3.157 14.207 0 2.267 3.157 6.048 21.488-4.633 33.66h33.15c7.928 0 10.09 14.292 0 14.292M24.517 44.624V94.44m70.211-38.631h-17.81m17.81 0c14.105 0 13.281 15.328 0 15.328m0 0H75.58m19.148 0c8.854 0 10.09 15.12 0 15.12h-8.236m-16.575 0h16.575m0 0c11.943 0 9.987 14.397 0 14.397H38.003L24.517 94.44" stroke="#B65E20" stroke-width="5"/></svg>