<svg width="82" height="108" fill="none" xmlns="http://www.w3.org/2000/svg"><path d="M67.032 28.362c-3.458 7.014-6.713 15.17-9.259 20.97m-5.306-5.653C45.818 29.267 53.924 14.485 75.46 4c9.184 39.745-.484 41.606-17.687 45.332m0 0C53.645 56.014 44.414 86.515 44.976 107c1.313-17.25-.979-28.998-11.37-43.276M18.239 46.146c6.422 6.499 11.465 12.217 15.367 17.578M3.336 24.456C.317 63.004 18.238 69.48 33.605 63.724M3.796 26.1c27.029 2.775 38.908 18.196 33.69 33.1" stroke="#B65E20" stroke-width="5"/></svg>