<svg width="107" height="111" fill="none" xmlns="http://www.w3.org/2000/svg"><path d="M20.81 106.633c-24.832-4.239-25.038-40.426 7.901-73.2m7.696 73.407c23.194-13.707 23.294-40.322-9.235-72.58m0 61.207c14.414-2.788 15.91-7.982 12.724-20.471M25.838 107.46c2.183 1.161 5.13.104 5.952 0m60.586-34.222c5.221-2.832 6.98-5.028 6.054-11.063M54.467 5c-16.402 26.71-15.084 37.634 0 38.358 15.085.724 14.65-15.863 0-38.358zm35.094 23.056C66.473 53.8 66.165 82.562 85.867 83.5c19.702.937 26.757-15.128 3.694-55.444z" stroke="#B65E20" stroke-width="5"/></svg>