<svg width="86" height="86" fill="none" xmlns="http://www.w3.org/2000/svg"><g clip-path="url(#clip0)" fill="#343634"><path d="M49.719 38.969a1.68 1.68 0 10.001 3.36 1.68 1.68 0 00-.001-3.36zM43 28.89a1.68 1.68 0 10.001 3.361 1.68 1.68 0 00-.001-3.36zM22.844 72.562a1.68 1.68 0 10.001 3.361 1.68 1.68 0 00-.001-3.36z"/><path d="M76.328 68.477L54.758 30.13V9.79a5.048 5.048 0 003.36-4.751 5.046 5.046 0 00-5.04-5.04H32.922a5.045 5.045 0 00-5.04 5.04 5.048 5.048 0 003.36 4.751v20.34L9.672 68.477c-2.07 3.681-2.034 8.056.098 11.701C11.902 83.823 15.697 86 19.92 86h46.16c4.224 0 8.018-2.177 10.15-5.822 2.132-3.645 2.168-8.02.098-11.701zM34.386 31.394a1.68 1.68 0 00.216-.824V10.078h1.68a1.68 1.68 0 000-3.36h-3.36c-.926 0-1.68-.753-1.68-1.68 0-.925.754-1.679 1.68-1.679h20.156c.926 0 1.68.754 1.68 1.68 0 .926-.754 1.68-1.68 1.68h-3.36a1.68 1.68 0 000 3.359h1.68V30.57c0 .289.075.572.216.824l9.9 17.6c-6.046-.49-12.07.734-17.606 3.6-7.116 3.683-15.038 4.331-22.508 1.886l12.986-23.086zM73.33 78.482a8.318 8.318 0 01-7.25 4.159H19.92a8.318 8.318 0 01-7.25-4.159 8.32 8.32 0 01-.07-8.358l7.124-12.664a32.188 32.188 0 0012.27 1.776c4.687-.232 9.215-1.463 13.458-3.659 5.676-2.938 11.919-3.953 18.104-2.953l9.844 17.5a8.32 8.32 0 01-.07 8.358z"/><path d="M36.281 38.969a5.045 5.045 0 00-5.039 5.039 5.045 5.045 0 005.04 5.039 5.044 5.044 0 005.038-5.04 5.044 5.044 0 00-5.039-5.038zm0 6.718c-.926 0-1.68-.753-1.68-1.68 0-.925.754-1.679 1.68-1.679.926 0 1.68.753 1.68 1.68 0 .926-.754 1.68-1.68 1.68zm26.875 26.875H29.563a1.68 1.68 0 000 3.36h33.593a1.68 1.68 0 000-3.36z"/></g><defs><clipPath id="clip0"><path fill="#fff" d="M0 0h86v86H0z"/></clipPath></defs></svg>