<svg width="81" height="81" fill="none" xmlns="http://www.w3.org/2000/svg"><g clip-path="url(#clip0)" fill="#343634"><path d="M32.059 80.6c-3.73 0-7.46-1.386-10.304-4.16a14.71 14.71 0 01-3.174-4.541 19.554 19.554 0 00-9.88-9.88 14.704 14.704 0 01-4.542-3.175c-5.56-5.703-5.543-14.965.038-20.648a14.639 14.639 0 018.357-4.26c1.819-.27 3.435-1.08 4.676-2.344l.096-.097c3.46-3.46 8.394-4.974 13.893-4.264 5.271.68 10.467 3.348 14.631 7.512s6.832 9.36 7.513 14.631c.71 5.5-.804 10.434-4.264 13.894l-.087.086c-1.268 1.246-2.08 2.865-2.348 4.683a14.64 14.64 0 01-4.258 8.362c-2.849 2.8-6.598 4.2-10.347 4.2zM28.65 31.796c-3.085 0-5.904.994-7.967 3.057l-.064.064c-1.971 2.01-4.52 3.294-7.369 3.717a9.927 9.927 0 00-5.666 2.89c-3.786 3.854-3.798 10.137-.026 14.005a9.978 9.978 0 003.08 2.155A24.297 24.297 0 0122.915 69.96a9.976 9.976 0 002.155 3.08c3.87 3.773 10.153 3.76 14.008-.028a9.926 9.926 0 002.888-5.67c.421-2.848 1.706-5.397 3.716-7.373l.06-.059c2.394-2.395 3.428-5.92 2.911-9.927-.547-4.236-2.735-8.456-6.16-11.881-4.124-4.124-9.273-6.306-13.842-6.306zm19.22-7.336c-2.738 0-5.191-.966-7.012-2.787-2.125-2.125-3.086-5.111-2.706-8.408.357-3.092 1.874-6.115 4.272-8.512C44.822 2.355 47.844.838 50.936.48c3.297-.38 6.283.58 8.408 2.706 2.126 2.125 3.087 5.111 2.706 8.408-.357 3.091-1.874 6.114-4.272 8.512-2.397 2.398-5.42 3.915-8.512 4.272-.472.054-.938.081-1.396.081zm4.44-19.31c-.27 0-.547.016-.83.048-2.031.235-4.055 1.27-5.698 2.912-1.644 1.644-2.678 3.668-2.912 5.7-.211 1.826.267 3.426 1.346 4.505 1.079 1.08 2.68 1.557 4.505 1.346 2.032-.234 4.056-1.268 5.7-2.912 1.643-1.643 2.677-3.667 2.912-5.699.21-1.826-.268-3.426-1.347-4.505-.912-.913-2.197-1.395-3.676-1.395zM15.995 25.669c-2.739 0-5.191-.967-7.012-2.788-2.126-2.125-3.087-5.111-2.706-8.408.357-3.091 1.874-6.114 4.272-8.512 2.397-2.398 5.42-3.915 8.512-4.272 3.297-.38 6.282.58 8.408 2.706 2.125 2.125 3.086 5.111 2.705 8.408-.357 3.092-1.873 6.115-4.271 8.512-2.398 2.398-5.42 3.915-8.512 4.272-.472.055-.938.082-1.396.082zm4.44-19.311c-.27 0-.547.016-.83.049-2.031.234-4.055 1.268-5.699 2.912-1.643 1.643-2.677 3.667-2.912 5.699-.21 1.826.267 3.427 1.346 4.506 1.08 1.078 2.679 1.557 4.506 1.346 2.032-.235 4.056-1.27 5.7-2.912 1.643-1.644 2.677-3.668 2.911-5.7.211-1.826-.267-3.426-1.346-4.505-.912-.912-2.197-1.395-3.676-1.395zm46.304 36.971c-2.739 0-5.192-.966-7.013-2.787-2.125-2.126-3.086-5.112-2.706-8.408.357-3.092 1.874-6.115 4.272-8.512 2.398-2.398 5.42-3.915 8.512-4.272 3.297-.381 6.283.58 8.409 2.705 2.125 2.126 3.086 5.112 2.705 8.409-.357 3.091-1.874 6.114-4.271 8.512-2.398 2.398-5.421 3.915-8.512 4.272-.473.054-.939.08-1.396.08zm4.44-19.31c-.27 0-.548.015-.83.048-2.032.235-4.056 1.269-5.7 2.912-1.642 1.643-2.677 3.667-2.911 5.7-.211 1.826.267 3.426 1.346 4.505 1.079 1.079 2.68 1.558 4.506 1.346 2.031-.235 4.056-1.269 5.699-2.912 1.643-1.643 2.677-3.667 2.912-5.7.21-1.826-.267-3.426-1.346-4.505-.912-.912-2.197-1.395-3.676-1.395zm-6.037 50.797c-2.738 0-5.19-.966-7.012-2.787-2.125-2.125-3.086-5.111-2.706-8.408.357-3.091 1.874-6.114 4.272-8.512 2.398-2.398 5.42-3.915 8.512-4.272 3.297-.38 6.283.58 8.408 2.706 2.126 2.125 3.087 5.111 2.706 8.408-.357 3.092-1.874 6.115-4.271 8.512-2.398 2.398-5.421 3.915-8.513 4.272-.472.055-.938.081-1.395.081zm4.44-19.31c-.27 0-.547.016-.83.049-2.03.234-4.055 1.269-5.698 2.912-1.644 1.643-2.678 3.667-2.912 5.699-.211 1.826.267 3.427 1.346 4.505 1.079 1.08 2.68 1.558 4.506 1.347 2.031-.235 4.055-1.27 5.699-2.912 1.643-1.644 2.677-3.668 2.912-5.7.21-1.826-.267-3.426-1.346-4.505-.913-.913-2.197-1.395-3.676-1.395z"/></g><defs><clipPath id="clip0"><path fill="#fff" d="M0 0h81v81H0z"/></clipPath></defs></svg>