<svg width="99" height="99" fill="none" xmlns="http://www.w3.org/2000/svg"><g clip-path="url(#clip0)"><path d="M35.674 67.566a1.452 1.452 0 011.233-1.64c.79-.109 1.524.44 1.634 1.229.224 1.518.394 3.107.504 4.757a71.32 71.32 0 01.175 4.955c0 3.996-.318 8.063-1.052 11.987-.707 3.76-1.738 6.983-2.993 9.373a1.46 1.46 0 01-1.283.773H21.27a1.449 1.449 0 01-1.331-.872c-1.234-2.379-2.248-5.563-2.944-9.274-.734-3.924-1.052-7.991-1.052-11.987 0-3.996.318-8.063 1.052-11.987.674-3.59 1.645-6.687 2.823-9.039v-5.42c0-1.25.51-2.385 1.332-3.207a4.524 4.524 0 013.206-1.332h1.776V21.426h-.75a1.45 1.45 0 010-2.9h.75V16.28h-2.767a1.448 1.448 0 01-1.453-1.453c0-.8.647-1.447 1.453-1.447h2.767v-2.247h-2.767a1.447 1.447 0 01-1.453-1.447c0-.8.647-1.452 1.453-1.452h2.767V5.99h-.75a1.45 1.45 0 01-1.447-1.453c0-.8.646-1.452 1.447-1.452h.75V1.452a1.45 1.45 0 112.9 0v1.634h.75a1.45 1.45 0 011.448 1.452c0 .8-.647 1.453-1.447 1.453h-.751v2.242H31.8c.8 0 1.452.652 1.452 1.452 0 .8-.652 1.447-1.452 1.447h-2.77v2.248h2.768a1.45 1.45 0 110 2.899H29.03v2.247h.75a1.45 1.45 0 010 2.9h-.75v24.456h1.776c1.25 0 2.384.51 3.206 1.332a4.524 4.524 0 011.332 3.207v5.42c.313.62.608 1.289.882 2.001.318.817.625 1.716.91 2.691a1.45 1.45 0 01-.986 1.793 1.45 1.45 0 01-1.793-.987 28.31 28.31 0 00-.827-2.444 18.16 18.16 0 00-.537-1.261h-10.83c-.954 2.05-1.748 4.703-2.324 7.778a57.831 57.831 0 00-.751 5.58h16.98a53.304 53.304 0 00-.394-3.426zm24.835-25.159a1.455 1.455 0 01-2.044.16 1.448 1.448 0 01-.154-2.04c.844-.992 1.814-1.787 2.878-2.335 1.069-.548 2.214-.85 3.409-.85 2.828 0 5.35 1.645 7.136 4.303 1.672 2.489 2.708 5.893 2.708 9.63 0 3.733-1.036 7.143-2.708 9.631-1.787 2.659-4.308 4.297-7.136 4.297-2.828 0-5.35-1.639-7.137-4.297-1.671-2.488-2.707-5.898-2.707-9.63 0-1.414.153-2.84.46-4.22a1.447 1.447 0 011.721-1.102 1.45 1.45 0 011.102 1.72 16.582 16.582 0 00-.384 3.602c0 3.157.844 5.99 2.209 8.019 1.25 1.858 2.927 3.009 4.736 3.009 1.808 0 3.48-1.151 4.735-3.01 1.365-2.027 2.21-4.861 2.21-8.018 0-3.157-.845-5.991-2.21-8.02-1.255-1.863-2.927-3.008-4.735-3.008-.73 0-1.43.18-2.083.515-.724.373-1.403.932-2.006 1.644zm19.644 43.11H49.037v5.41c0 1.419.586 2.712 1.524 3.655a5.158 5.158 0 003.656 1.519h20.762c1.42 0 2.713-.581 3.656-1.519a5.177 5.177 0 001.518-3.656v-5.41zM49.037 82.61h31.116v-6.55c0-.8.652-1.452 1.453-1.452.8 0 1.452.652 1.452 1.453v14.864a8.06 8.06 0 01-2.373 5.706A8.056 8.056 0 0174.979 99H54.217a8.046 8.046 0 01-5.706-2.368 8.06 8.06 0 01-2.373-5.706v-65.62c0-2.22.91-4.242 2.373-5.706a8.046 8.046 0 015.706-2.367h.756V14.07a1.45 1.45 0 112.9 0v3.163h13.445V4.763c0-.51-.209-.976-.549-1.316a1.86 1.86 0 00-1.315-.547h-9.718c-.51 0-.976.213-1.316.547a1.88 1.88 0 00-.548 1.316v2.735c0 .8-.647 1.453-1.447 1.453s-1.452-.653-1.452-1.453V4.763c0-1.31.537-2.5 1.397-3.365A4.767 4.767 0 0159.736 0h9.718a4.75 4.75 0 013.366 1.397 4.748 4.748 0 011.403 3.366v12.47h.756c2.22 0 4.243.904 5.706 2.367a8.06 8.06 0 012.373 5.706V69.49c0 .8-.652 1.453-1.452 1.453-.8 0-1.453-.652-1.453-1.453V33.616H49.037V82.61zm0-51.895h31.116v-5.41c0-1.42-.58-2.713-1.518-3.656a5.178 5.178 0 00-3.656-1.518H54.216a5.158 5.158 0 00-3.656 1.518 5.183 5.183 0 00-1.523 3.656v5.41zM18.907 73.89a66.222 66.222 0 000 5.952h17.348c.044-.975.06-1.967.06-2.976a65.81 65.81 0 00-.06-2.976H18.907zm.181 8.852c.17 1.968.428 3.842.75 5.58.576 3.074 1.371 5.727 2.325 7.777h10.836c.948-2.05 1.749-4.703 2.324-7.777a57.9 57.9 0 00.745-5.58h-16.98zm37.557-5.388c-.8 0-1.453-.652-1.453-1.453 0-.8.652-1.447 1.453-1.447H72.55a1.45 1.45 0 010 2.9H56.645zm3.809-5.525a1.45 1.45 0 01-1.453-1.447c0-.8.653-1.453 1.453-1.453h8.287c.8 0 1.453.653 1.453 1.453s-.653 1.447-1.453 1.447h-8.287zM22.716 54.734h9.73v-4.313a1.646 1.646 0 00-1.64-1.64h-6.45a1.646 1.646 0 00-1.639 1.639v4.314z" fill="#343634"/></g><defs><clipPath id="clip0"><path fill="#fff" d="M0 0h99v99H0z"/></clipPath></defs></svg>