<svg width="124" height="134" viewBox="0 0 124 134" fill="none" xmlns="http://www.w3.org/2000/svg">
<path d="M50.8392 26.3605L58.9441 34.0527L73.1608 16.1486M8.32168 6.20187L22.6713 13.6287M8.32168 25.5648H22.6713M8.32168 44.5299L22.6713 36.7051M101.462 13.6287L115.413 6.20187M101.462 25.5648H115.413M101.462 36.7051L114.483 43.7341M62 66.9431L71.4336 81.0012H113.287M62 66.9431L52.4336 81.0012H9.91608M62 66.9431V90.0195M9.91608 81.0012H5L14.1678 62.8318H110.231L119 81.0012H113.287M9.91608 81.0012V131H61.6014M113.287 81.0012V131H61.6014M62 113.229L61.6014 131M40.0769 116.279H22.6713M61.3353 3.00054C32.8699 2.82212 32.1047 46.9171 62 46.9171C91.8953 46.9171 89.8006 3.17896 61.3353 3.00054Z" stroke="black" stroke-width="6"/>
</svg>
