<svg width="122" height="132" viewBox="0 0 122 132" fill="none" xmlns="http://www.w3.org/2000/svg">
<path d="M49.8392 25.3605L57.9441 33.0527L72.1608 15.1486M7.32168 5.20187L21.6713 12.6287M7.32168 24.5648H21.6713M7.32168 43.5299L21.6713 35.7051M100.462 12.6287L114.413 5.20187M100.462 24.5648H114.413M100.462 35.7051L113.483 42.7341M61 65.9431L70.4336 80.0012H112.287M61 65.9431L51.4336 80.0012H8.91608M61 65.9431V89.0195M8.91608 80.0012H4L13.1678 61.8318H109.231L118 80.0012H112.287M8.91608 80.0012V130H60.6014M112.287 80.0012V130H60.6014M61 112.229L60.6014 130M39.0769 115.279H21.6713M60.3353 2.00054C31.8699 1.82212 31.1047 45.9171 61 45.9171C90.8953 45.9171 88.8006 2.17896 60.3353 2.00054Z" stroke="#022F38" stroke-width="4"/>
</svg>
