<svg width="116" height="115" fill="none" xmlns="http://www.w3.org/2000/svg"><path d="M38.654 39.766C39.656 1.322 82.634-6.226 103.16 13.63c20.526 19.855 6.664 60.85-20.624 62.97M62.359 26.973c4.169-12.682 25.232-10.035 25.232 0 0 10.036-24.73 12.683-23.744 23.821.988 11.138 23.038 12.02 27.646 0M58.84 34.252h34.776M58.84 43.846h34.776M21.1 77.041C33.17 72.96 31.633 46.824 39.312 45.5c7.68-1.324 5.705 23.71 5.705 23.71h26.22c8.995 0 8.117 10.918 0 10.918m0 0h-11.3m11.3 0c8.227 0 7.898 10.477 0 10.477h-2.414m-11.41 0h11.41m0 0c8.886 0 7.57 10.035 0 10.035H65.75m-9.654 0h9.654m0 0c10.312 0 10.312 11.359 0 11.359H33.278c-4.059 0-12.177-3.419-12.177-3.419m0 0V72.96H3V112h18.101v-3.419zm71.747-22.497v4.687m0 4.687V90.77m0 0H88.24h9.215M28.122 20.908v4.962m0 4.963v-4.962m0 0h-4.936 10.202" stroke="#fff" stroke-width="6"/></svg>