<svg width="69" height="85" fill="none" xmlns="http://www.w3.org/2000/svg"><path d="M56.282 26.988l-2.81-2.159-1.308 3.197c-.025.061-2.539 6.08-6.399 4.984-.854-.243-1.428-.71-1.803-1.474-.959-1.945-.551-5.465 1.038-8.968 2.198-4.844 1.236-9.919-2.783-14.678-2.827-3.347-6.223-5.374-6.366-5.458L31.736 0l.091 4.593c.002.082.09 8.243-6.29 11.235-3.908 1.834-6.706 4.866-7.878 8.539-1.096 3.436-.636 7.192 1.264 10.306.777 1.275 1.013 2.356.7 3.214-.447 1.225-1.89 1.856-2.322 2.02-4.56 1.735-7.546-4.057-7.667-4.296l-2.08-4.206-2.55 3.967C1.73 40.467 0 46.33 0 52.327c0 17.885 15.253 32.457 34.086 32.668.137.003.275.005.413.005h.001C53.523 85 69 70.343 69 52.327c0-9.865-4.635-19.1-12.718-25.339zM23.71 69.798v-.03c-.026-1.984.373-4.111 1.188-6.346l6.485 1.795.066-3.259c.1-4.991 3.071-8.055 5.447-9.713.61 2.51 1.56 4.75 2.87 6.78 1.497 2.311 2.913 4.27 4.22 6.041.839 1.14 1.315 2.862 1.305 4.722v.013c0 2.728-1.122 5.294-3.16 7.224-2.037 1.929-4.747 2.991-7.631 2.991h-.001c-5.947 0-10.787-4.582-10.789-10.218zm25.271 6.576a14.477 14.477 0 001.572-6.568c.014-2.904-.786-5.6-2.253-7.592-1.457-1.976-2.703-3.717-4.046-5.792-1.497-2.318-2.398-5.05-2.752-8.35l-.347-3.227-3.202 1.148c-.3.108-3.014 1.121-5.794 3.51-2.949 2.534-4.852 5.666-5.607 9.184l-4.703-1.302-.929 2.006c-1.68 3.63-2.512 7.137-2.472 10.422.003 2.352.572 4.58 1.585 6.569-8.816-4.774-14.771-13.768-14.771-24.055 0-3.742.794-7.422 2.32-10.824.233.245.482.49.745.73 3.223 2.938 7.106 3.755 10.935 2.299 2.586-.984 4.53-2.813 5.335-5.018.572-1.57.843-4.118-1.118-7.334-1.193-1.954-1.47-4.217-.783-6.371.747-2.34 2.585-4.3 5.177-5.515 5.454-2.558 7.684-7.361 8.594-11.005a19.8 19.8 0 011.717 1.806c2.704 3.246 3.37 6.445 1.982 9.506-2.222 4.896-2.585 9.771-.973 13.043 1.013 2.056 2.763 3.487 5.06 4.14 3.61 1.026 7.142-.168 9.944-3.363.439-.5.826-1.01 1.163-1.498 5.36 5.157 8.378 12.076 8.378 19.404 0 10.282-5.948 19.272-14.757 24.047z" fill="#fff"/></svg>