<svg width="81" height="81" fill="none" xmlns="http://www.w3.org/2000/svg"><path d="M27.418 80.999c-9.005-29.67 10.02-40.503 10.02-40.503-1.33 15.832 7.667 28.166 7.667 28.166 3.309-.998 9.625-5.664 9.625-5.664 0 5.664-3.333 17.994-3.333 17.994s11.666-9.02 15.339-24.003c3.667-14.982-6.986-30.024-6.986-30.024a40.176 40.176 0 01-9.974 29.002c.351-.406.646-.857.873-1.345 1.262-2.526 3.29-9.09 2.103-24.289C51.08 8.997 31.748 0 31.748 0c1.667 13-3.33 15.995-15.034 40.67C5.01 65.342 27.418 81 27.418 81z" fill="#fff"/></svg>