<svg width="69" height="69" fill="none" xmlns="http://www.w3.org/2000/svg"><path d="M68.408 53.301L57.474 42.367l-.225-2.772 3.014-1.836a2.022 2.022 0 00.813-2.504l-1.357-3.257 2.298-2.678c.65-.757.65-1.875 0-2.633l-2.299-2.678 1.358-3.257a2.022 2.022 0 00-.813-2.504l-3.014-1.837.286-3.516c.08-.995-.577-1.9-1.548-2.13l-3.432-.816-.816-3.433a2.023 2.023 0 00-2.13-1.548l-3.518.285-1.836-3.013a2.022 2.022 0 00-2.505-.814l-3.256 1.36-2.677-2.3a2.022 2.022 0 00-2.633 0l-2.678 2.298-3.256-1.358a2.022 2.022 0 00-2.505.813L22.91 5.254l-3.518-.286a2.02 2.02 0 00-2.13 1.548l-.816 3.433-3.433.816a2.022 2.022 0 00-1.547 2.13l.286 3.517-3.014 1.836a2.022 2.022 0 00-.813 2.504L9.28 24.01l-2.298 2.679a2.022 2.022 0 000 2.633l2.298 2.677-1.357 3.257a2.022 2.022 0 00.813 2.504l3.014 1.836-.226 2.772L.592 53.3a2.021 2.021 0 00.79 3.347L9.61 59.39l2.742 8.228a2.021 2.021 0 003.347.79l15.011-15.01 2.473 2.122a2.021 2.021 0 002.634 0l2.473-2.123 15.01 15.01a2.021 2.021 0 003.348-.79l2.742-8.227 8.227-2.742a2.021 2.021 0 00.79-3.347zm-53.255 9.935l-2.028-6.084a2.022 2.022 0 00-1.278-1.279l-6.083-2.027 8.344-8.344 2.337.556.816 3.433a2.024 2.024 0 002.13 1.548l3.518-.285 1.79 2.937-9.546 9.545zm28.134-15.65l-1.581 2.595-2.805-1.17a2.022 2.022 0 00-2.095.332l-2.306 1.98-2.306-1.98c-.81-.696-1.722-.488-2.095-.332l-2.804 1.17-1.582-2.595a2.02 2.02 0 00-1.89-.963l-3.03.246-.702-2.957a2.021 2.021 0 00-1.5-1.5l-2.956-.702.246-3.029a2.021 2.021 0 00-.963-1.89l-2.595-1.581 1.17-2.805a2.021 2.021 0 00-.333-2.095l-1.979-2.306 1.98-2.307c.497-.58.625-1.39.331-2.094l-1.17-2.805 2.596-1.582a2.022 2.022 0 00.963-1.89l-.246-3.029 2.957-.702a2.021 2.021 0 001.5-1.5l.702-2.957 3.03.246a2.02 2.02 0 001.889-.963l1.581-2.595 2.805 1.17a2.022 2.022 0 002.095-.331l2.306-1.98 2.306 1.98c.58.497 1.39.625 2.095.331l2.805-1.17 1.581 2.595a2.019 2.019 0 001.89.963l3.03-.246.702 2.958a2.02 2.02 0 001.5 1.5l2.956.701-.246 3.03a2.02 2.02 0 00.963 1.889l2.595 1.582-1.17 2.805a2.021 2.021 0 00.333 2.094l1.979 2.307-1.98 2.306a2.021 2.021 0 00-.331 2.095l1.17 2.804-2.596 1.582a2.022 2.022 0 00-.963 1.89l.246 3.029-2.957.702a2.021 2.021 0 00-1.5 1.5l-.702 2.957-3.03-.246a2.02 2.02 0 00-1.889.963zm13.866 8.288a2.022 2.022 0 00-1.278 1.278l-2.028 6.084-9.546-9.545 1.79-2.938 3.518.286c.992.08 1.9-.577 2.13-1.548l.816-3.434 2.338-.555 8.343 8.344-6.083 2.028z" fill="#fff"/><path d="M51.086 22.244l-6.124-6.125a2.023 2.023 0 00-2.859 0l-9.768 9.768-4.355-4.354a2.02 2.02 0 00-2.859 0l-6.124 6.124a2.02 2.02 0 000 2.859l11.909 11.909c.79.79 2.07.789 2.858 0l17.322-17.322c.79-.79.79-2.07 0-2.86zM32.335 38.136l-9.05-9.05 3.265-3.265 4.356 4.355a2.02 2.02 0 002.858 0l9.768-9.768 3.266 3.265-14.463 14.463z" fill="#fff"/></svg>