<svg width="70" height="70" fill="none" xmlns="http://www.w3.org/2000/svg"><path d="M27.752 50.898h-.008c-1.35.01-1.805-.065-2.864-.764a1.007 1.007 0 00-1.402.296 1.03 1.03 0 00.293 1.417c1.159.765 1.96 1.008 2.968 1.075v.913c0 .566.453 1.024 1.013 1.024.56 0 1.013-.458 1.013-1.024v-.999c2.056-.443 3.259-2.172 3.528-3.789.351-2.11-.74-3.943-2.78-4.671-1.234-.44-2.6-.975-3.387-1.598-.333-.264-.479-.806-.371-1.381.103-.556.479-1.231 1.22-1.457.286-.087.554-.131.802-.146h.023c1.08-.055 1.774.47 1.927.599.43.361 1.068.302 1.426-.132a1.03 1.03 0 00-.13-1.442 4.899 4.899 0 00-2.258-1.007v-.815c0-.566-.454-1.024-1.013-1.024-.56 0-1.013.459-1.013 1.024v.89c-.115.027-.23.057-.349.093-1.347.41-2.353 1.574-2.626 3.038-.25 1.337.177 2.63 1.112 3.37.82.65 1.967 1.206 3.961 1.918 1.627.58 1.527 1.985 1.458 2.402-.174 1.046-1.044 2.176-2.543 2.19z" fill="#fff"/><path d="M66.965 22.635c0-1.186.52-2.637 1.024-4.04.841-2.344 1.711-4.77.56-6.779-.83-1.45-2.33-2.037-3.386-2.352-.537-.16-1.1.149-1.259.691a1.025 1.025 0 00.685 1.272c1.149.343 1.85.792 2.206 1.414.679 1.185.004 3.066-.71 5.057-.564 1.569-1.146 3.191-1.146 4.737 0 1.547.582 3.169 1.145 4.738.715 1.991 1.39 3.872.71 5.057-.717 1.253-2.712 1.602-4.825 1.972-1.59.278-3.233.566-4.497 1.305-1.213.709-2.244 1.975-3.24 3.2-1.327 1.63-2.698 3.314-4.225 3.314-1.527 0-2.899-1.685-4.225-3.315-.997-1.224-2.028-2.49-3.24-3.199-1.264-.74-2.908-1.027-4.498-1.305-2.113-.37-4.108-.72-4.826-1.972-.678-1.184-.003-3.065.71-5.056.564-1.57 1.146-3.193 1.146-4.739 0-1.546-.582-3.169-1.145-4.738-.485-1.352-.951-2.652-.989-3.72l.001-.015-.002-.054c-.009-.476.072-.905.28-1.268.717-1.253 2.713-1.602 4.826-1.971 1.59-.278 3.233-.565 4.497-1.304 1.212-.709 2.243-1.975 3.24-3.2 1.326-1.63 2.698-3.315 4.225-3.315 1.527 0 2.898 1.685 4.224 3.314.997 1.225 2.028 2.492 3.24 3.2.99.58 2.192.87 3.237 1.076a1.013 1.013 0 001.188-.808 1.023 1.023 0 00-.8-1.2c-.88-.175-1.878-.41-2.61-.839-.895-.523-1.767-1.595-2.69-2.729-1.55-1.904-3.305-4.061-5.789-4.061-2.484 0-4.24 2.158-5.79 4.062-.923 1.134-1.795 2.205-2.69 2.728-.95.556-2.413.812-3.827 1.06-2.48.433-5.044.88-6.235 2.963a4.1 4.1 0 00-.477 1.323h-9.504c-2.314 0-4.196 1.902-4.196 4.24v28.315h-5.16c-1.47 0-2.762.84-3.372 2.193a3.73 3.73 0 00.577 4.006l4.141 4.809a1.006 1.006 0 001.43.1 1.03 1.03 0 00.098-1.444l-4.14-4.81a1.668 1.668 0 01-.262-1.813 1.64 1.64 0 011.529-.994H18.3c.56 0 1.014-.458 1.014-1.024V17.38c0-1.21.973-2.193 2.17-2.193h9.531c.188 1.118.601 2.273 1.009 3.409.503 1.403 1.023 2.854 1.023 4.04 0 1.187-.52 2.638-1.023 4.041-.841 2.345-1.71 4.769-.56 6.78.82 1.43 2.286 2.089 3.928 2.502v10.76c0 .565.453 1.023 1.013 1.023h6.175a1.64 1.64 0 011.528.994c.28.622.182 1.3-.261 1.814L30.039 66.586a3.542 3.542 0 01-2.684 1.235c-1.03 0-2.008-.45-2.684-1.233l-7.01-8.142a1.006 1.006 0 00-1.428-.1 1.03 1.03 0 00-.1 1.444l7.01 8.141a5.558 5.558 0 004.212 1.937 5.56 5.56 0 004.212-1.938l13.808-16.037a3.73 3.73 0 00.577-4.006c-.61-1.353-1.901-2.193-3.372-2.193h-5.162v-9.325l.28.05c1.415.247 2.878.503 3.83 1.06.894.523 1.766 1.594 2.689 2.727 1.55 1.904 3.306 4.061 5.79 4.061s4.24-2.157 5.789-4.06c.923-1.134 1.795-2.205 2.691-2.729.95-.556 2.414-.812 3.828-1.06 2.479-.433 5.042-.882 6.233-2.963 1.152-2.01.282-4.435-.56-6.78-.503-1.403-1.023-2.853-1.023-4.04z" fill="#fff"/><path d="M52.127 25.564c.51.233 1.11.004 1.34-.51a1.028 1.028 0 00-.506-1.355l-6.127-2.798a1.145 1.145 0 00-1.292.241 1.175 1.175 0 00-.239 1.301l2.754 6.207a1.013 1.013 0 001.339.515c.51-.231.739-.837.51-1.352l-.4-.902 1.733-1.752.888.405zm-3.508-.652l-.529-1.191 1.176.537-.647.654zm6.089-1.452c.203 0 .408-.061.584-.187.09-.065.132-.094 1.716-1.713A1.03 1.03 0 0057 20.113a1.005 1.005 0 00-1.432.008l-.857.872-3.795-3.835c-.396-.4-1.037-.4-1.433 0a1.03 1.03 0 000 1.447l4.508 4.555c.197.199.456.3.717.3zm3.752-3.782c.268 0 .525-.108.715-.3l1.884-1.903c.396-.4.396-1.048 0-1.448-.395-.4-1.037-.4-1.432 0l-1.168 1.18-.803-.811 1.029-1.04a1.03 1.03 0 000-1.447c-.396-.4-1.037-.4-1.432 0l-1.03 1.04-.802-.812 1.168-1.18a1.03 1.03 0 000-1.447c-.396-.4-1.037-.4-1.433 0l-1.884 1.903a1.03 1.03 0 000 1.448l4.47 4.517c.191.192.449.3.717.3zM43.563 31.38a1.015 1.015 0 00-1.061.973 1.02 1.02 0 00.962 1.072c.06.003.12.005.181.005 1.034 0 2.055-.438 2.826-1.216 1.025-1.036 1.227-2.573.48-3.655-.566-.821-1.77-1.42-3.45-.638-.72.336-1.424.62-1.68.722a.225.225 0 01-.185-.1c-.092-.124-.087-.304.014-.495.387-.727 1.325-.846 1.361-.85a1.02 1.02 0 00.913-1.108 1.016 1.016 0 00-1.096-.931c-.757.066-2.231.545-2.963 1.921-.475.895-.418 1.925.149 2.69a2.23 2.23 0 002.276.87.934.934 0 00.154-.045c.037-.015.942-.366 1.906-.815.357-.166.79-.266.94-.05.128.186.137.644-.251 1.036-.407.41-.959.64-1.476.615zm-33.439-9.892l.087-.329c.438-1.673-.49-3.42-2.112-3.977L4.64 15.996a3.253 3.253 0 00-2.599.217 3.311 3.311 0 00-1.616 2.068l-.214.817a3.347 3.347 0 00.392 2.605 3.283 3.283 0 002.152 1.488l3.588.698c.206.04.412.06.615.06a3.29 3.29 0 003.166-2.461zm-1.872-.853l-.086.329a1.25 1.25 0 01-1.44.914l-3.588-.698a1.234 1.234 0 01-.82-.566 1.258 1.258 0 01-.149-.992l.214-.818a1.245 1.245 0 011.606-.87l3.46 1.187c.617.212.97.877.803 1.514zM6.94 12.248l2.76 2.417a3.242 3.242 0 002.141.803 3.25 3.25 0 002.323-.972l.237-.24a3.341 3.341 0 00.14-4.512L12.13 6.97a3.27 3.27 0 00-2.357-1.124 3.266 3.266 0 00-2.423.973l-.59.6a3.33 3.33 0 00.178 4.83zM8.197 8.86l.59-.6a1.226 1.226 0 01.922-.37c.35.01.668.163.898.428l2.41 2.775c.43.496.406 1.25-.054 1.718l-.237.242a1.24 1.24 0 01-1.7.064L8.266 10.7a1.252 1.252 0 01-.43-.905 1.255 1.255 0 01.362-.935zm8.817-.763a3.287 3.287 0 003.098 2.223c.281 0 .567-.037.85-.114l.325-.09c1.654-.452 2.688-2.137 2.353-3.835l-.713-3.62A3.317 3.317 0 0021.442.494a3.255 3.255 0 00-2.58-.38l-.808.22a3.29 3.29 0 00-2.036 1.646 3.349 3.349 0 00-.2 2.627l1.196 3.489zm.795-5.159c.163-.312.438-.534.775-.627l.808-.22a1.225 1.225 0 01.983.145c.296.185.497.478.565.824l.713 3.62a1.264 1.264 0 01-.896 1.461l-.325.09c-.63.172-1.29-.18-1.504-.804L17.733 3.94a1.261 1.261 0 01.076-1zm48.636 43.739l-3.587-.698c-1.682-.328-3.344.727-3.782 2.4l-.086.33c-.438 1.673.489 3.42 2.111 3.976l3.46 1.186a3.252 3.252 0 002.599-.217 3.311 3.311 0 001.616-2.067l.214-.818a3.347 3.347 0 00-.392-2.604 3.284 3.284 0 00-2.153-1.488zm.587 3.569l-.215.817a1.245 1.245 0 01-1.605.87l-3.46-1.186a1.265 1.265 0 01-.804-1.515l.087-.329a1.253 1.253 0 011.44-.914l3.588.698a1.258 1.258 0 01.969 1.559zm-4.77 7.374l-2.761-2.417a3.257 3.257 0 00-4.463.168l-.238.241a3.341 3.341 0 00-.139 4.51l2.409 2.776a3.27 3.27 0 002.459 1.126c.867 0 1.708-.352 2.321-.975l.59-.6a3.33 3.33 0 00-.178-4.83zm-1.258 3.386l-.59.6a1.22 1.22 0 01-.923.37 1.228 1.228 0 01-.898-.428l-2.409-2.775a1.272 1.272 0 01.053-1.718l.238-.241a1.24 1.24 0 011.7-.064l2.761 2.417c.264.23.416.552.43.904.012.353-.116.685-.362.935zm-8.818.764c-.56-1.636-2.294-2.562-3.948-2.11l-.325.089c-1.653.453-2.687 2.138-2.353 3.836l.713 3.62a3.317 3.317 0 001.485 2.166 3.257 3.257 0 002.58.38l.808-.221a3.289 3.289 0 002.036-1.646 3.349 3.349 0 00.2-2.627l-1.196-3.488zm-.795 5.158a1.236 1.236 0 01-.775.627l-.808.22a1.247 1.247 0 01-1.549-.97l-.712-3.62a1.264 1.264 0 01.897-1.46l.324-.09c.63-.172 1.29.181 1.504.804l1.196 3.488c.113.334.086.689-.077 1z" fill="#fff"/></svg>