<svg width="81" height="81" fill="none" xmlns="http://www.w3.org/2000/svg"><g clip-path="url(#clip0)" fill="#fff"><path d="M47.94 9.742a1.581 1.581 0 10-.741 3.076C60.02 15.908 68.977 27.292 68.977 40.5c0 15.702-12.775 28.476-28.477 28.476S12.023 56.202 12.023 40.5c0-13.207 8.955-24.59 21.777-27.682a1.582 1.582 0 00-.741-3.076c-6.784 1.636-12.93 5.557-17.306 11.042-4.51 5.652-6.893 12.47-6.893 19.716 0 17.447 14.193 31.64 31.64 31.64 17.447 0 31.64-14.193 31.64-31.64 0-7.246-2.383-14.064-6.894-19.717C60.87 15.3 54.724 11.377 47.94 9.742z"/><path d="M80.046 36.695l-1.85-3.453.308-4.27a8.075 8.075 0 00-2.923-7.148l-3.073-2.515-1.208-3.64a8.131 8.131 0 00-5.534-5.85l-3.792-1.146-2.904-3.357a8.096 8.096 0 00-6.959-2.813l-3.936.392L44.306.954a8.071 8.071 0 00-7.612 0l-3.453 1.85-4.268-.309a8.074 8.074 0 00-7.149 2.924L19.308 8.49l-3.64 1.21a8.131 8.131 0 00-5.85 5.533l-1.145 3.793-3.357 2.904a8.095 8.095 0 00-2.814 6.958l.392 3.936-1.94 3.87a8.072 8.072 0 000 7.612l1.85 3.453-.309 4.268a8.076 8.076 0 002.923 7.149l3.073 2.515 1.208 3.64a8.13 8.13 0 005.534 5.85l3.792 1.146 2.905 3.357a8.095 8.095 0 006.958 2.814l3.936-.393 3.868 1.941a8.078 8.078 0 007.612 0l3.454-1.85 4.269.309a8.078 8.078 0 007.148-2.924l2.516-3.072 3.64-1.208a8.131 8.131 0 005.85-5.534l1.145-3.792 3.358-2.905a8.095 8.095 0 002.813-6.958l-.392-3.936 1.94-3.869a8.072 8.072 0 00.001-7.612zm-2.8 6.136a1.448 1.448 0 00-.02.039l-2.155 4.297c-.134.268-.19.568-.16.867l.437 4.39a4.936 4.936 0 01-1.724 4.244l-3.715 3.214a1.582 1.582 0 00-.479.739l-1.278 4.23a4.959 4.959 0 01-3.613 3.386c-.047.01-.094.024-.14.039l-4.14 1.374a1.583 1.583 0 00-.726.5l-2.806 3.427a4.924 4.924 0 01-4.442 1.774l-4.756-.344c-.3-.021-.598.042-.861.184l-3.855 2.065a4.912 4.912 0 01-4.644-.009l-.04-.02-4.296-2.155a1.582 1.582 0 00-.867-.16l-4.39.437a4.934 4.934 0 01-4.245-1.725l-3.213-3.714a1.582 1.582 0 00-.74-.48l-4.23-1.278a4.958 4.958 0 01-3.385-3.612 1.607 1.607 0 00-.04-.14l-1.374-4.14a1.58 1.58 0 00-.499-.726l-3.427-2.807a4.924 4.924 0 01-1.774-4.442l.344-4.756a1.582 1.582 0 00-.184-.861l-2.066-3.854a4.913 4.913 0 01.03-4.683l2.155-4.298c.134-.268.19-.568.16-.866l-.437-4.39a4.936 4.936 0 011.724-4.245l3.715-3.214a1.59 1.59 0 00.479-.738l1.278-4.232a4.959 4.959 0 013.613-3.385c.047-.01.094-.024.14-.039l4.14-1.374a1.58 1.58 0 00.726-.5l2.806-3.427a4.926 4.926 0 014.442-1.774l4.756.344c.298.021.597-.042.861-.183l3.855-2.066a4.912 4.912 0 014.683.029l4.297 2.155c.268.135.569.19.867.16l4.39-.437a4.935 4.935 0 014.245 1.725l3.213 3.714c.196.226.452.393.739.48l4.231 1.278a4.96 4.96 0 013.385 3.613c.01.047.024.093.04.139l1.374 4.14c.094.285.267.536.499.726l3.427 2.807a4.924 4.924 0 011.774 4.442l-.344 4.756c-.021.298.043.597.184.861l2.066 3.854a4.912 4.912 0 01-.01 4.645z"/><path d="M33.634 31.88a1.58 1.58 0 00-1.428-.905h-8.36c-.873 0-1.581.708-1.581 1.582v23.947c0 .873.708 1.582 1.582 1.582h8.359c.656 0 1.218-.4 1.458-.968 1.206.17 2.448.512 3.742.87 1.944.54 3.955 1.096 6.044 1.096h9.133c2.823 0 5.11-1.497 6.12-4.004.491-1.222.577-2.49.29-3.551.525-.472.97-1.06 1.305-1.747.68-1.39.816-2.955.43-4.272.72-.695 1.256-1.612 1.536-2.693.262-1.011.258-2.008.024-2.873 1.427-.84 2.388-2.364 2.388-4.083 0-1.347-.524-2.59-1.477-3.496a4.947 4.947 0 00-3.432-1.351H46.894c-.978-1.227-1.282-2.892-.726-4.232 1.143-2.75 1.072-5.079-.229-7.549-.966-1.833-3.563-3.659-5.746-3.347-1.32.189-2.275 1.121-2.555 2.495-.082.404-.105.841-.13 1.347-.065 1.247-.154 2.955-1.23 5.018-.73 1.398-.974 2.837-1.189 4.105-.307 1.818-.457 2.694-1.455 3.03zm-8.204 2.26h5.195v20.782H25.43V34.14zm12.78-4.76c.184-1.088.375-2.214.873-3.169 1.396-2.674 1.514-4.956 1.585-6.319.019-.363.037-.706.072-.878v-.004c.55.008 1.9.749 2.4 1.7.867 1.644.896 2.961.108 4.86-.712 1.71-.658 3.697.045 5.463a1.581 1.581 0 00.22 3.147h16.255c.482 0 .926.169 1.25.477.226.215.495.6.495 1.206 0 .848-.778 1.582-1.698 1.602l-4.072.089a1.582 1.582 0 00.034 3.163h.035l3.39-.074c.111.314.169.911-.064 1.596-.198.583-.73 1.56-2.069 1.56a1.582 1.582 0 000 3.164c.24 0 .476-.015.706-.044.02.447-.072.972-.318 1.474-.29.594-.865 1.301-1.95 1.301a1.582 1.582 0 000 3.165c.163 0 .325-.008.485-.022a2.984 2.984 0 01-.238 1.098c-.248.597-1.054 1.986-3.17 1.986H43.45c-1.659 0-3.379-.477-5.2-.98-1.449-.402-2.934-.813-4.462-.996V35.082c3.562-.645 4.053-3.529 4.421-5.703zm2.29-17.356a1.582 1.582 0 000-3.164 1.581 1.581 0 100 3.164z"/></g><defs><clipPath id="clip0"><path fill="#fff" d="M0 0h81v81H0z"/></clipPath></defs></svg>